<svg width="22" height="32" viewBox="0 0 22 32" fill="none" xmlns="http://www.w3.org/2000/svg">
<g filter="url(#filter0_d_35_2517)">
<path d="M4.93934 10.9393C4.35355 11.5251 4.35355 12.4749 4.93934 13.0607L14.4853 22.6066C15.0711 23.1924 16.0208 23.1924 16.6066 22.6066C17.1924 22.0208 17.1924 21.0711 16.6066 20.4853L8.12132 12L16.6066 3.51472C17.1924 2.92893 17.1924 1.97919 16.6066 1.3934C16.0208 0.807611 15.0711 0.807611 14.4853 1.3934L4.93934 10.9393ZM16 13.5C16.8284 13.5 17.5 12.8284 17.5 12C17.5 11.1716 16.8284 10.5 16 10.5V13.5ZM6 13.5H16V10.5H6V13.5Z" fill="black"/>
</g>
<defs>
<filter id="filter0_d_35_2517" x="0.5" y="0.953125" width="21" height="30.0938" filterUnits="userSpaceOnUse" color-interpolation-filters="sRGB">
<feFlood flood-opacity="0" result="BackgroundImageFix"/>
<feColorMatrix in="SourceAlpha" type="matrix" values="0 0 0 0 0 0 0 0 0 0 0 0 0 0 0 0 0 0 127 0" result="hardAlpha"/>
<feOffset dy="4"/>
<feGaussianBlur stdDeviation="2"/>
<feComposite in2="hardAlpha" operator="out"/>
<feColorMatrix type="matrix" values="0 0 0 0 0 0 0 0 0 0 0 0 0 0 0 0 0 0 0.75 0"/>
<feBlend mode="normal" in2="BackgroundImageFix" result="effect1_dropShadow_35_2517"/>
<feBlend mode="normal" in="SourceGraphic" in2="effect1_dropShadow_35_2517" result="shape"/>
</filter>
</defs>
</svg>
