<?xml version="1.0" encoding="UTF-8"?>
<!DOCTYPE svg PUBLIC "-//W3C//DTD SVG 1.1//EN" "http://www.w3.org/Graphics/SVG/1.1/DTD/svg11.dtd">
<!-- Creator: CorelDRAW 2018 (64-Bit) -->
<svg xmlns="http://www.w3.org/2000/svg" xml:space="preserve" width="210mm" height="297mm" version="1.1" style="shape-rendering:geometricPrecision; text-rendering:geometricPrecision; image-rendering:optimizeQuality; fill-rule:evenodd; clip-rule:evenodd"
viewBox="0 0 21000 29700"
 xmlns:xlink="http://www.w3.org/1999/xlink">
 <defs>
  <style type="text/css">
   <![CDATA[
    .fil13 {fill:#2B2A29}
    .fil12 {fill:#2FB7EA}
    .fil10 {fill:#363432}
    .fil11 {fill:#46C1F0}
    .fil8 {fill:#7A595E}
    .fil9 {fill:#948C85}
    .fil7 {fill:#AB7C84}
    .fil5 {fill:#B0B0B0}
    .fil2 {fill:#B5AAA1}
    .fil1 {fill:#CDC1B7}
    .fil4 {fill:#D9D7D6}
    .fil6 {fill:#E5BEC1}
    .fil3 {fill:#ECE8E7}
    .fil0 {fill:#F5F0A2}
    .fil14 {fill:#FEFEFE}
   ]]>
  </style>
 </defs>
 <g id="Слой_x0020_1">
  <metadata id="CorelCorpID_0Corel-Layer"/>
  <g id="_2152679911216">
   <circle class="fil0" cx="11114.04" cy="12859.1" r="8513.23"/>
   <path class="fil1" d="M6383.04 7096.58c111.64,-44.65 227.74,-71.44 384.03,-51.35 156.29,20.09 352.77,87.08 618.47,241.14 265.69,154.05 600.6,395.18 830.57,558.18 229.97,162.98 355,247.83 451.02,301.42 96,53.58 162.98,75.91 200.94,62.51 37.96,-13.4 46.88,-62.51 46.88,-113.87 0,-51.35 -8.92,-104.94 -13.39,-131.73 -4.46,-26.79 -4.46,-26.79 29.03,13.4 33.48,40.18 100.47,120.56 187.54,176.39 87.08,55.81 194.25,87.06 247.84,78.14 53.58,-8.93 53.58,-58.06 46.88,-104.94 -6.7,-46.89 -20.09,-91.54 -8.92,-96 11.16,-4.47 46.88,31.25 71.44,51.34 24.56,20.1 37.95,24.57 49.11,8.94 11.17,-15.63 20.1,-51.35 -24.55,-203.18 -44.66,-151.83 -142.89,-419.76 -247.83,-636.33 -104.94,-216.58 -216.58,-381.79 -272.4,-464.4 -55.82,-82.62 -55.82,-82.62 -8.93,-26.8 46.89,55.82 140.67,167.45 227.74,296.95 87.07,129.5 167.46,276.86 234.44,428.69 66.98,151.82 120.56,308.11 154.05,413.05 33.5,104.94 46.89,158.52 64.75,185.32 17.86,26.79 40.19,26.79 55.82,6.7 15.63,-20.1 24.56,-60.28 40.19,-180.85 15.63,-120.57 37.95,-321.52 20.1,-509.06 -17.86,-187.56 -75.92,-361.7 -104.94,-448.78 -29.03,-87.08 -29.03,-87.08 0,-37.96 29.02,49.12 87.08,147.36 120.57,296.95 33.48,149.59 42.42,350.54 46.88,500.13 4.47,149.59 4.47,247.83 11.17,319.29 6.69,71.44 20.09,116.09 33.49,118.32 13.4,2.24 26.79,-37.95 33.48,-80.37 6.7,-42.43 6.7,-87.08 4.47,-84.84 -2.23,2.23 -6.7,51.34 8.93,116.1 15.63,64.74 51.36,145.13 125.04,194.25 73.68,49.11 185.31,66.97 225.51,26.79 40.18,-40.2 8.93,-138.43 -6.7,-221.04 -15.63,-82.62 -15.63,-149.6 -6.7,-100.47 8.93,49.11 26.79,214.33 82.61,325.97 55.81,111.64 149.59,169.68 207.65,167.46 58.04,-2.23 80.36,-64.76 104.92,-62.52 24.57,2.23 51.36,69.22 80.39,96.01 29.03,26.79 60.28,13.39 78.14,-15.64 17.86,-29.02 22.33,-73.67 29.03,-84.84 6.7,-11.16 15.63,11.17 37.96,31.26 22.32,20.1 58.04,37.95 98.23,33.49 40.2,-4.47 84.85,-31.25 109.41,-55.82 24.56,-24.56 29.02,-46.88 42.42,-40.18 13.4,6.7 35.72,42.42 62.51,44.65 26.8,2.23 58.05,-29.03 62.52,-113.87 4.46,-84.85 -17.86,-223.27 -15.63,-221.04 2.24,2.24 29.02,145.12 75.91,218.81 46.89,73.67 113.87,78.14 160.76,64.74 46.89,-13.39 73.68,-44.65 89.31,-46.88 15.63,-2.23 20.1,24.55 46.89,24.55 26.79,0 75.91,-26.78 111.64,-55.81 35.72,-29.03 58.04,-60.28 93.77,-62.51 35.72,-2.23 84.84,24.55 140.65,8.93 55.82,-15.63 118.34,-73.68 194.25,-138.43 75.91,-64.75 165.23,-136.2 207.65,-198.71 42.42,-62.52 37.95,-116.11 40.19,-87.08 2.23,29.03 11.16,140.66 58.04,192.02 46.89,51.35 131.74,42.41 185.32,4.46 53.59,-37.96 75.91,-104.94 87.08,-209.88 11.16,-104.94 11.16,-247.83 15.63,-223.27 4.46,24.56 13.4,216.57 53.58,319.28 40.19,102.71 111.64,116.1 167.46,98.24 55.82,-17.87 96.01,-66.98 122.8,-69.22 26.8,-2.23 40.19,42.42 89.3,40.19 49.13,-2.23 133.97,-51.35 214.35,-136.19 80.38,-84.85 156.29,-205.42 294.72,-366.17 138.43,-160.76 339.38,-361.71 553.72,-522.46 214.33,-160.76 442.08,-281.32 613.99,-355 171.93,-73.68 288.03,-100.47 413.06,-111.64 125.03,-11.16 259,-6.69 355,15.63 96.01,22.33 154.06,62.52 198.71,120.57 44.66,58.05 75.92,133.97 98.25,229.97 22.33,96.01 35.72,212.11 42.42,372.87 6.69,160.75 6.69,366.16 -2.24,591.67 -8.93,225.5 -26.78,471.1 -42.41,618.46 -15.63,147.36 -29.03,196.48 -15.63,227.74 13.39,31.26 53.58,44.66 120.56,51.35 66.98,6.7 160.76,6.7 245.6,11.17 84.84,4.46 160.76,13.39 198.71,17.85 37.96,4.47 37.96,4.47 -17.86,0 -55.81,-4.46 -167.45,-13.39 -261.22,-11.15 -93.78,2.23 -169.69,15.62 -162.99,29.02 6.69,13.39 96,26.79 142.88,33.49 46.89,6.7 51.36,6.7 11.17,20.1 -40.19,13.39 -125.03,40.18 -183.09,66.97 -58.05,26.8 -89.3,53.59 -111.63,82.62 -22.33,29.03 -35.72,60.28 -33.49,87.07 2.23,26.8 20.1,49.12 58.05,64.75 37.96,15.63 96.01,24.56 178.62,29.03 82.61,4.46 189.78,4.46 232.2,8.93 42.43,4.46 20.1,13.4 -35.72,22.33 -55.81,8.93 -145.13,17.86 -207.65,33.49 -62.51,15.63 -98.23,37.95 -109.39,80.38 -11.17,42.42 2.22,104.93 22.32,138.43 20.1,33.49 46.89,37.95 91.54,40.19 44.66,2.23 107.18,2.23 127.27,20.09 20.09,17.87 -2.23,53.58 -2.23,78.15 0,24.56 22.32,37.95 26.79,60.27 4.46,22.33 -8.93,53.59 -31.26,89.32 -22.33,35.73 -53.58,75.91 -44.65,100.47 8.93,24.56 58.04,33.49 93.77,37.95 35.73,4.47 58.05,4.47 55.81,24.56 -2.23,20.1 -29.02,60.28 -33.48,96.01 -4.47,35.72 13.4,66.98 53.58,87.08 40.19,20.1 102.71,29.02 149.59,51.35 46.89,22.33 78.15,58.05 111.64,96.01 33.49,37.96 69.21,78.14 102.7,113.87 33.5,35.73 64.76,66.98 66.99,96.01 2.23,29.02 -24.56,55.81 -6.7,73.67 17.86,17.87 80.38,26.8 89.31,49.13 8.93,22.32 -35.72,58.04 -20.1,75.91 15.63,17.86 91.55,17.86 109.4,31.26 17.87,13.39 -22.32,40.18 -20.08,69.21 2.23,29.02 46.88,60.28 22.32,75.91 -24.56,15.63 -118.34,15.63 -183.09,33.5 -64.74,17.86 -100.46,53.58 -22.32,80.37 78.14,26.8 270.16,44.65 368.4,75.91 98.24,31.26 102.7,75.91 145.12,107.17 42.42,31.26 122.81,49.12 133.97,69.22 11.17,20.1 -46.89,42.42 -40.19,73.68 6.7,31.26 78.15,71.44 138.43,118.33 60.29,46.89 109.4,100.47 156.29,169.69 46.89,69.21 91.54,154.06 129.5,180.86 37.96,26.78 69.21,-4.47 156.29,0 87.08,4.46 229.97,44.65 276.86,78.14 46.89,33.49 -2.23,60.28 20.09,111.63 22.33,51.35 116.1,127.27 156.29,205.41 40.19,78.14 26.8,158.53 116.11,254.53 89.3,96.01 281.32,207.65 444.31,303.66 162.99,96 296.95,176.39 408.53,206.51 111.59,30.11 200.8,9.96 245.41,-0.11 44.6,-10.07 48.31,-9.52 43.85,103.79 -4.46,113.3 -1.66,343.86 -31.86,636.4 -30.19,292.55 -97.07,646.52 -152.69,942.99 -55.61,296.48 -115.37,530.95 -233.14,869.97 -117.77,339.02 -293.55,782.6 -445.54,1097.36 -151.99,314.77 -280.18,500.72 -438.88,750.26 -158.69,249.54 -347.9,562.66 -528.29,817.73 -180.38,255.08 -351.95,452.11 -555.69,660.94 -203.73,208.84 -439.62,429.48 -681.75,632.44 -242.13,202.97 -490.49,388.27 -697.16,531.76 -206.67,143.5 -371.66,245.19 -546.01,344.05 -174.34,98.86 -358.02,194.86 -503.17,266.94 -145.15,72.08 -251.75,120.23 -376.23,172.43 -124.47,52.2 -266.82,108.46 -587.91,121.39 -321.07,12.94 -820.89,-17.44 -1850.01,-403.27 -1029.13,-385.82 -2587.57,-1127.09 -3770.92,-1560.24 -1183.34,-433.15 -1991.59,-558.18 -2393.47,-651.96 -401.89,-93.77 -397.43,-156.28 -392.96,-265.69 4.46,-109.41 8.92,-265.69 13.39,-397.42 4.46,-131.74 8.93,-238.91 22.32,-377.34 13.4,-138.42 35.73,-308.11 75.92,-457.7 40.19,-149.6 98.24,-279.09 107.17,-319.29 8.93,-40.18 -31.26,8.94 -84.84,96.01 -53.59,87.08 -120.57,212.11 -174.15,406.36 -53.59,194.25 -93.78,457.7 -118.34,692.14 -24.56,234.44 -33.49,439.85 -24.56,596.14 8.93,156.29 35.72,263.47 15.63,160.75 -20.1,-102.7 -87.08,-415.28 -129.5,-701.07 -42.42,-285.79 -60.28,-544.78 20.1,-1230.23 80.37,-685.44 258.99,-1797.34 276.86,-2583.26 17.85,-785.92 -125.04,-1245.86 -178.62,-1516.02 -53.59,-270.16 -17.87,-350.54 35.72,-390.73 53.58,-40.19 125.03,-40.19 187.55,-69.21 62.52,-29.03 116.1,-87.08 142.89,-129.5 26.8,-42.43 26.8,-69.21 44.66,-111.63 17.86,-42.43 53.58,-100.48 73.68,-149.6 20.09,-49.12 24.56,-89.3 51.35,-142.89 26.8,-53.59 75.91,-120.57 96.01,-171.92 20.09,-51.36 11.16,-87.08 33.49,-129.5 22.33,-42.43 75.91,-91.54 87.07,-136.2 11.17,-44.66 -20.09,-84.84 -44.65,-136.19 -24.56,-51.35 -42.42,-113.87 -46.89,-196.48 -4.46,-82.61 4.47,-185.32 8.94,-276.86 4.46,-91.54 4.46,-171.93 -33.5,-209.88 -37.96,-37.96 -113.87,-33.49 -169.69,-17.86 -55.82,15.63 -91.54,42.42 -87.07,24.56 4.46,-17.86 49.11,-80.38 104.94,-129.5 55.82,-49.12 122.8,-84.84 125.03,-100.47 2.23,-15.63 -60.28,-11.16 -78.14,-24.56 -17.87,-13.4 8.92,-44.66 40.18,-69.22 31.26,-24.56 66.99,-42.41 96.01,-80.37 29.03,-37.96 51.35,-96.01 69.21,-154.06 17.87,-58.05 31.26,-116.1 29.03,-147.36 -2.23,-31.26 -20.09,-35.72 -51.35,-33.49 -31.26,2.23 -75.91,11.16 -87.08,-4.47 -11.16,-15.63 11.17,-55.81 22.33,-75.91 11.16,-20.09 11.16,-20.09 29.03,-53.58 17.86,-33.5 53.58,-100.48 82.61,-154.06 29.02,-53.59 51.34,-93.78 42.41,-236.67 -8.93,-142.9 -49.11,-388.5 -69.21,-571.58 -20.09,-183.08 -20.09,-303.65 -15.63,-410.82 4.47,-107.17 13.4,-200.95 26.8,-290.26 13.39,-89.31 31.26,-174.15 93.78,-247.83 62.51,-73.68 169.68,-136.2 281.31,-180.85z"/>
   <path class="fil2" d="M9228.68 8829.19c47.99,40.19 65.86,2.24 90.42,-14.51 24.56,-16.75 55.81,-12.28 85.96,0 30.14,12.28 59.17,32.37 89.31,25.67 30.14,-6.7 61.4,-40.18 113.87,-73.68 52.46,-33.49 126.15,-66.98 156.29,-93.77 30.14,-26.79 16.74,-46.89 -50.24,-88.19 -66.98,-41.31 -187.55,-103.83 -280.21,-151.83 -92.65,-48 -157.41,-81.49 -226.62,-98.24 -69.21,-16.74 -142.89,-16.74 -214.34,-20.09 -71.45,-3.35 -140.66,-10.05 -187.55,-12.28 -46.89,-2.24 -71.44,0 -108.29,-10.05 -36.84,-10.05 -85.95,-32.38 -142.89,-64.75 -56.94,-32.38 -121.68,-74.8 -224.39,-141.78 -102.71,-66.98 -243.37,-158.53 -405.24,-263.47 -161.88,-104.93 -344.95,-223.27 -481.15,-315.92 -136.2,-92.66 -225.51,-159.64 -330.45,-213.23 -104.94,-53.58 -225.5,-93.77 -341.61,-103.82 -116.1,-10.04 -227.73,10.04 -312.57,40.19 -84.85,30.14 -142.9,70.33 -188.67,133.96 -45.78,63.63 -79.26,150.71 -100.47,243.37 -21.22,92.65 -30.15,190.9 -16.75,359.47 13.4,168.57 49.12,407.47 72.56,578.28 23.45,170.8 34.61,273.51 45.77,336.03 11.17,62.51 22.33,84.83 45.78,88.18 23.44,3.35 59.16,-12.27 87.07,-21.2 27.91,-8.93 48.01,-11.17 40.19,-18.98 -7.81,-7.82 -43.54,-21.21 -53.59,-33.5 -10.04,-12.28 5.59,-23.44 -2.23,-40.19 -7.81,-16.74 -39.07,-39.06 -45.76,-59.16 -6.7,-20.1 11.15,-37.96 18.97,-52.47 7.81,-14.52 5.58,-25.67 7.81,-42.42 2.23,-16.75 8.93,-39.07 5.58,-61.4 -3.35,-22.33 -16.73,-44.65 -26.78,-65.86 -10.05,-21.22 -16.75,-41.31 -32.38,-66.99 -15.63,-25.68 -40.19,-56.93 -41.31,-84.84 -1.11,-27.91 21.22,-52.47 39.08,-75.92 17.86,-23.44 31.25,-45.77 25.67,-71.44 -5.58,-25.68 -30.14,-54.7 -34.6,-75.91 -4.47,-21.22 11.16,-34.61 22.33,-60.29 11.16,-25.68 17.85,-63.63 27.9,-109.4 10.05,-45.78 23.44,-99.36 5.58,-145.13 -17.86,-45.78 -66.98,-83.73 -84.84,-120.57 -17.86,-36.84 -4.47,-72.56 15.63,-108.28 20.1,-35.73 46.88,-71.45 103.82,-112.76 56.93,-41.3 144.01,-88.19 276.86,-98.24 132.85,-10.04 311.46,16.74 449.89,87.08 138.43,70.33 236.68,184.2 313.7,279.09 77.03,94.89 132.85,170.81 176.39,216.58 43.54,45.77 74.8,61.39 116.1,77.02 41.3,15.63 92.66,31.26 157.41,51.36 64.75,20.09 142.89,44.65 207.64,80.37 64.75,35.73 116.1,82.61 160.76,121.68 44.65,39.08 82.6,70.34 120.56,128.39 37.96,58.05 75.92,142.9 80.38,250.07 4.47,107.17 -24.56,236.67 -32.37,342.72 -7.82,106.06 5.58,188.67 35.72,241.14 30.15,52.47 77.03,74.79 80.38,58.04 3.35,-16.74 -36.84,-72.56 -55.81,-113.87 -18.98,-41.3 -16.75,-68.09 -4.47,-66.97 12.28,1.11 34.6,30.13 53.58,52.46 18.98,22.33 34.61,37.96 33.49,17.86 -1.11,-20.09 -18.98,-75.91 -27.91,-107.17 -8.93,-31.26 -8.93,-37.96 12.28,-16.74 21.22,21.21 63.63,70.32 88.19,90.42 24.57,20.1 31.26,11.17 23.45,-11.16 -7.82,-22.32 -30.14,-58.05 -49.12,-91.54 -18.98,-33.5 -34.61,-64.75 -21.21,-58.05 13.4,6.7 55.82,51.35 108.29,82.61 52.46,31.26 114.98,49.12 150.71,62.52 35.72,13.4 44.65,22.32 37.95,-11.17 -6.7,-33.49 -29.02,-109.41 -69.21,-192.01 -40.19,-82.61 -98.24,-171.93 -127.27,-217.69 -29.02,-45.78 -29.02,-48.01 18.98,-12.28 48,35.72 144.01,109.4 211,176.38 66.98,66.98 104.93,127.27 140.66,138.43 35.72,11.16 69.21,-26.79 74.79,-68.1 5.58,-41.31 -16.74,-85.96 -92.65,-196.48 -75.92,-110.52 -205.42,-286.9 -280.21,-387.37 -74.8,-100.48 -94.9,-125.04 -42.42,-94.89 52.46,30.13 177.49,114.98 279.08,216.57 101.59,101.59 179.74,219.92 227.75,260.11z"/>
   <path class="fil2" d="M6235.71 9236.14c29.03,127.82 82.61,346.63 122.8,529.72 40.19,183.08 66.98,330.43 100.47,381.78 33.5,51.35 73.68,6.7 93.78,-49.11 20.09,-55.82 20.09,-122.81 55.82,-91.55 35.72,31.26 107.17,160.76 138.43,276.86 31.25,116.1 22.32,218.81 64.74,303.66 42.42,84.84 136.2,151.82 198.72,198.71 62.51,46.89 93.77,73.67 89.3,87.07 -4.47,13.4 -44.65,13.4 -55.81,33.49 -11.17,20.1 6.69,60.28 4.46,78.15 -2.23,17.86 -24.55,13.39 4.48,33.49 29.01,20.09 109.4,64.74 80.37,87.07 -29.03,22.33 -167.46,22.33 -250.06,44.66 -82.62,22.33 -109.41,66.98 -151.83,89.31 -42.43,22.33 -100.47,22.33 -149.6,51.35 -49.12,29.02 -89.3,87.08 -158.51,160.75 -69.22,73.68 -167.47,162.99 -236.68,236.68 -69.22,73.68 -109.4,131.72 -208.07,146.15 -98.68,14.42 -255.85,-14.78 -379.02,-8.65 -123.18,6.13 -212.37,47.6 -256.96,68.34 -44.6,20.73 -44.6,20.73 10.48,-12.39 55.07,-33.12 165.22,-99.35 220.29,-132.47 55.07,-33.12 55.07,-33.12 68.72,-64.16 13.65,-31.04 40.94,-93.12 19.73,-119.72 -21.2,-26.6 -90.91,-17.72 -76.27,-54.03 14.63,-36.32 113.61,-117.82 171.35,-172.77 57.74,-54.95 74.25,-83.33 95.83,-133.57 21.58,-50.24 48.24,-122.32 74.2,-192.89 25.95,-70.56 51.21,-139.6 58.28,-185 7.07,-45.4 -4.04,-67.15 -17.42,-110.77 -13.37,-43.64 -29,-109.13 -54.54,-227.86 -25.55,-118.74 -61.01,-290.72 -90.4,-392.3 -29.4,-101.59 -52.74,-132.8 -81.9,-126.81 -29.16,5.98 -64.13,49.14 -81.62,70.73 -17.49,21.58 -17.49,21.58 10.62,-8.23 28.1,-29.81 84.31,-89.45 109.61,-131.87 25.31,-42.42 19.7,-67.63 39.61,-105.18 19.9,-37.54 65.29,-87.4 104.37,-162.56 39.07,-75.17 71.81,-175.65 79.63,-231.46 7.81,-55.82 -9.31,-66.99 -32.38,-73.31 -23.07,-6.33 -52.09,-7.82 -60.44,-25.67 -8.34,-17.84 3.98,-52.04 33.11,-118.37 29.12,-66.35 75.02,-164.82 94.42,-270.16 19.4,-105.35 12.3,-217.57 -0.72,-352.02 -13.02,-134.45 -31.95,-291.13 -40.68,-443.37 -8.74,-152.24 -7.27,-300.04 -3.65,-398.07 3.62,-98.02 9.4,-146.27 12.29,-170.4 2.89,-24.13 2.89,-24.13 2.89,-24.13 0,0 0,0 0,0 0,0 0,0 2.05,53.41 2.05,53.4 6.15,160.22 19.93,294.01 13.76,133.78 37.21,294.53 66.8,492.68 29.58,198.16 65.3,433.71 85.39,569.91 20.1,136.2 24.57,173.04 53.59,300.87z"/>
   <path class="fil2" d="M12705.05 8573.57c-3.35,2.23 30.14,-24.56 39.07,-14.51 8.93,10.05 -6.69,56.93 -1.11,73.68 5.58,16.75 32.37,3.35 61.4,1.12 29.03,-2.24 60.28,6.69 89.31,6.69 29.02,0 55.82,-8.93 69.21,3.35 13.4,12.28 13.4,45.77 10.05,87.08 -3.35,41.31 -10.05,90.42 -32.37,146.24 -22.33,55.82 -60.28,118.34 -82.61,160.76 -22.33,42.42 -29.03,64.75 -10.05,51.35 18.98,-13.4 63.63,-62.51 103.82,-120.56 40.19,-58.06 75.91,-125.04 107.17,-173.04 31.26,-48.01 58.05,-77.03 75.91,-64.75 17.86,12.28 26.79,65.87 41.31,80.38 14.51,14.51 34.6,-10.05 51.35,-1.12 16.74,8.94 30.14,51.35 50.23,65.87 20.1,14.51 46.89,1.11 61.4,18.97 14.51,17.87 16.75,66.98 24.56,81.5 7.82,14.51 21.21,-5.58 48.01,-44.65 26.79,-39.08 66.98,-97.12 80.37,-102.71 13.4,-5.58 0,41.3 -6.69,79.26 -6.7,37.96 -6.7,66.98 12.28,61.4 18.98,-5.58 56.93,-45.77 94.89,-81.49 37.96,-35.73 75.91,-66.98 94.89,-82.61 18.98,-15.63 18.98,-15.63 9.35,-7.6 -9.62,8.02 -28.88,24.07 -50.09,11.8 -21.21,-12.28 -44.38,-52.9 -57.08,-88.83 -12.7,-35.94 -14.93,-67.2 8.51,-111.85 23.44,-44.66 72.57,-102.71 123.91,-147.36 51.36,-44.66 104.94,-75.91 136.2,-96.01 31.26,-20.09 40.19,-29.02 10.05,-16.74 -30.14,12.28 -99.36,45.76 -167.46,91.54 -68.09,45.76 -135.07,103.82 -185.31,148.48 -50.24,44.65 -83.73,75.91 -104.94,78.14 -21.21,2.23 -30.14,-24.56 -6.7,-70.33 23.45,-45.77 79.26,-110.53 118.34,-162.99 39.07,-52.47 61.39,-92.66 73.67,-120.57 12.29,-27.91 14.52,-43.54 1.12,-50.24 -13.4,-6.7 -42.42,-4.46 -58.05,-17.86 -15.63,-13.4 -17.86,-42.42 -1.11,-85.95 16.74,-43.54 52.46,-101.6 109.39,-161.88 56.94,-60.28 135.09,-122.8 217.7,-177.5 82.61,-54.71 169.69,-101.59 243.37,-132.85 73.68,-31.26 133.96,-46.88 132.84,-49.11 -1.11,-2.24 -63.62,8.92 -125.03,25.67 -61.39,16.74 -121.68,39.07 -122.8,14.52 -1.11,-24.56 56.94,-96.01 168.58,-197.6 111.63,-101.59 276.85,-233.32 451,-334.91 174.16,-101.59 357.24,-173.04 480.04,-210.99 122.8,-37.96 185.32,-42.42 246.71,-17.86 61.41,24.56 121.69,78.14 170.81,159.64 49.12,81.49 87.07,190.89 109.4,331.56 22.33,140.65 29.03,312.58 32.38,514.63 3.35,202.06 3.35,434.27 14.51,563.77 11.17,129.5 33.49,156.29 63.63,168.57 30.15,12.28 68.1,10.05 87.08,-2.24 18.98,-12.28 18.98,-34.6 24.56,-158.51 5.58,-123.92 16.74,-349.43 23.44,-584.98 6.7,-235.56 8.93,-481.15 -2.23,-653.07 -11.16,-171.92 -35.73,-270.16 -68.1,-344.95 -32.38,-74.81 -72.56,-126.15 -145.13,-169.69 -72.56,-43.55 -177.5,-79.26 -284.67,-88.2 -107.17,-8.93 -216.57,8.94 -322.62,37.96 -106.06,29.03 -208.77,69.21 -304.77,121.69 -96.01,52.46 -185.32,117.21 -281.33,185.31 -96.01,68.09 -198.71,139.55 -348.3,280.21 -149.59,140.65 -346.07,350.54 -483.39,493.43 -137.3,142.89 -215.45,218.81 -273.51,262.35 -58.05,43.53 -96,54.69 -144,55.81 -48.01,1.12 -106.06,-7.81 -168.58,4.47 -62.51,12.28 -129.49,45.76 -187.55,61.39 -58.05,15.63 -107.16,13.4 -151.82,17.87 -44.66,4.46 -84.84,15.63 -123.92,32.37 -39.07,16.75 -77.02,39.07 -149.59,37.95 -72.56,-1.11 -179.74,-25.67 -171.92,-23.43 7.81,2.23 130.61,31.25 209.87,52.46 79.27,21.21 114.99,34.61 145.14,55.82 30.14,21.21 54.7,50.23 76.28,89.87 21.58,39.63 40.18,89.86 56.93,106.61 16.75,16.75 31.63,0 18.98,7.26 -12.65,7.25 -52.84,38.5 -56.19,40.74z"/>
   <path class="fil2" d="M15519.39 10474.75c31.26,-21.21 80.39,-39.07 120.57,-51.35 40.19,-12.28 71.45,-18.98 87.08,7.82 15.63,26.79 15.63,87.07 46.89,109.4 31.26,22.32 93.78,6.7 120.56,20.1 26.8,13.39 17.87,55.81 8.93,99.35 -8.93,43.54 -17.85,88.19 -4.45,97.12 13.39,8.93 49.11,-17.86 87.07,-21.21 37.96,-3.35 78.14,16.75 120.57,63.64 42.42,46.88 87.07,120.57 146.23,176.39 59.18,55.81 132.86,93.76 216.58,103.81 83.73,10.05 177.51,-7.82 164.11,-35.73 -13.39,-27.91 -133.96,-65.86 -173.04,-109.4 -39.06,-43.54 3.35,-92.66 -10.04,-140.65 -13.4,-48.01 -82.61,-94.9 -114.99,-147.37 -32.38,-52.47 -27.91,-110.51 -33.49,-158.52 -5.58,-48.01 -21.21,-85.96 -44.66,-121.68 -23.44,-35.73 -54.7,-69.22 -71.44,-126.15 -16.75,-56.94 -18.98,-137.32 -21.22,-210.82 -2.24,-73.51 -4.48,-140.13 -32.4,-190.36 -27.91,-50.24 -81.47,-84.09 -123.89,-146.78 -42.42,-62.69 -73.68,-154.24 -90.42,-239.08 -16.75,-84.84 -18.98,-162.99 -50.24,-145.13 -31.25,17.86 -91.54,131.73 -142.9,214.35 -51.35,82.6 -93.76,133.95 -110.51,159.63 -16.75,25.68 -7.81,25.68 -46.89,30.14 -39.07,4.47 -126.15,13.4 -184.2,40.2 -58.05,26.79 -87.08,71.44 -127.27,152.94 -40.18,81.49 -91.54,199.83 -125.03,277.98 -33.49,78.14 -49.12,116.09 -18.98,110.51 30.14,-5.58 106.06,-54.7 160.76,-90.43 54.7,-35.72 88.19,-58.04 93.77,-41.3 5.58,16.74 -16.74,72.56 -51.35,120.57 -34.61,48 -81.49,88.18 -68.1,92.65 13.4,4.47 87.08,-26.79 149.59,-70.32 62.52,-43.54 113.87,-99.36 109.41,-88.2 -4.47,11.17 -64.75,89.32 -111.64,154.06 -46.89,64.75 -80.37,116.1 -73.67,129.5 6.69,13.39 53.58,-11.16 83.72,-10.05 30.14,1.12 43.54,27.91 56.94,29.02 13.39,1.12 26.79,-23.44 58.04,-44.65z"/>
   <path class="fil2" d="M10761.47 9881.97c-22.33,118.34 -75.91,310.36 -116.1,451.02 -40.19,140.65 -66.99,229.97 -84.85,256.76 -17.87,26.79 -26.79,-8.93 -40.19,-100.47 -13.39,-91.55 -31.26,-238.91 -66.98,-363.94 -35.73,-125.03 -89.31,-227.74 -138.42,-234.44 -49.13,-6.69 -93.78,82.62 -142.9,218.82 -49.12,136.19 -102.7,319.27 -127.27,480.03 -24.56,160.75 -20.09,299.18 -26.79,417.52 -6.7,118.33 -24.56,216.57 -66.98,187.54 -42.42,-29.03 -109.41,-185.31 -149.59,-343.84 -40.19,-158.52 -53.59,-319.27 -116.1,-437.61 -62.52,-118.33 -174.16,-194.25 -252.3,-238.9 -78.15,-44.66 -122.8,-58.05 -149.6,-6.7 -26.79,51.35 -35.72,167.45 2.24,308.12 37.95,140.66 122.8,305.88 154.06,419.75 31.25,113.87 8.93,176.38 -35.73,187.55 -44.66,11.16 -111.63,-29.02 -221.04,-80.38 -109.41,-51.35 -261.23,-113.87 -381.79,-167.45 -120.57,-53.59 -209.89,-98.24 -218.82,-127.26 -8.93,-29.03 62.52,-42.43 120.58,-53.59 58.04,-11.17 102.69,-20.1 122.79,-62.52 20.1,-42.42 15.63,-118.34 31.26,-140.66 15.63,-22.33 51.36,8.93 73.68,-20.09 22.33,-29.03 31.26,-118.35 37.96,-221.05 6.69,-102.7 11.16,-218.81 17.86,-314.81 6.7,-96.01 15.63,-171.92 69.22,-165.22 53.58,6.69 151.82,96.01 216.58,156.3 64.74,60.28 95.99,91.53 129.49,87.06 33.49,-4.46 69.21,-44.65 87.07,-107.16 17.86,-62.52 17.86,-147.37 -43.72,-290.27 -61.59,-142.91 -184.78,-343.86 -195.95,-406.38 -11.16,-62.52 89.7,13.41 184.78,142.92 95.08,129.51 184.39,312.59 262.54,533.63 78.14,221.04 145.12,480.03 185.31,647.49 40.19,167.46 53.58,243.37 55.82,216.58 2.23,-26.8 -6.69,-156.29 -26.79,-285.79 -20.1,-129.5 -51.36,-259 -71.45,-350.54 -20.1,-91.55 -29.02,-145.13 -51.35,-218.8 -22.33,-73.69 -58.05,-167.47 -107.17,-270.17 -49.12,-102.71 -111.64,-214.34 -131.73,-234.44 -20.1,-20.09 2.22,51.36 64.74,165.23 62.52,113.86 165.23,270.16 234.45,399.66 69.21,129.49 104.93,232.2 118.32,227.73 13.4,-4.46 4.47,-116.1 -17.86,-243.36 -22.33,-127.27 -58.05,-270.17 -80.37,-377.34 -22.33,-107.17 -31.26,-178.62 -13.4,-127.26 17.86,51.35 62.51,225.5 100.47,357.23 37.96,131.74 69.22,221.05 91.55,223.28 22.33,2.24 35.72,-82.61 42.41,-176.39 6.7,-93.77 6.7,-196.48 6.7,-247.83 0,-51.35 0,-51.35 2.24,-93.77 2.23,-42.43 6.69,-127.27 6.69,-127.27 0,0 -4.46,84.84 31.26,122.8 35.72,37.95 111.64,29.02 158.53,58.05 46.88,29.03 64.75,96.01 80.38,51.36 15.63,-44.66 29.02,-200.95 55.82,-252.3 26.79,-51.36 66.98,2.23 91.54,60.28 24.56,58.05 33.48,120.56 51.34,162.99 17.87,42.42 44.66,64.74 78.16,84.84 33.49,20.1 73.67,37.96 98.23,69.22 24.56,31.26 33.5,75.91 11.17,194.24z"/>
   <path class="fil2" d="M12005.1 9605.12c73.67,-69.22 140.66,-140.67 198.71,-214.35 58.05,-73.67 107.17,-149.59 149.59,-236.67 42.42,-87.07 78.14,-185.32 91.54,-176.38 13.4,8.93 4.47,125.03 -13.4,227.73 -17.86,102.71 -44.65,192.02 -49.11,214.35 -4.47,22.32 13.39,-22.33 40.18,-69.21 26.8,-46.89 62.52,-96.01 100.48,-149.6 37.96,-53.58 78.14,-111.63 98.24,-140.66 20.09,-29.03 20.09,-29.03 20.09,42.43 0,71.44 0,214.34 43.67,214.5 43.68,0.15 131.04,-142.43 218.11,-227.27 87.07,-84.85 173.88,-111.96 190.49,-69.69 16.61,42.26 -36.98,153.9 -92.81,256.6 -55.81,102.71 -113.86,196.49 -160.75,296.96 -46.89,100.47 -82.6,207.64 -116.1,323.74 -33.49,116.1 -64.74,241.14 -75.91,294.73 -11.16,53.58 -2.24,35.71 46.88,-11.17 49.12,-46.89 138.44,-122.81 232.21,-207.65 93.77,-84.84 192.02,-178.61 203.18,-171.91 11.17,6.7 -64.75,113.87 -127.27,187.55 -62.51,73.68 -111.63,113.86 -156.29,165.22 -44.65,51.34 -84.84,113.86 -109.4,151.82 -24.56,37.95 -33.49,51.35 -49.12,84.84 -15.63,33.5 -37.95,87.08 -55.82,154.06 -17.86,66.98 -31.26,147.37 -40.19,216.58 -8.93,69.21 -13.4,127.26 -26.79,174.15 -13.4,46.89 -35.72,82.61 -69.21,122.8 -33.5,40.19 -78.15,84.84 -116.11,116.1 -37.95,31.26 -69.21,49.12 -102.7,37.95 -33.49,-11.16 -69.22,-51.34 -84.85,-116.09 -15.63,-64.75 -11.16,-154.07 -15.63,-223.28 -4.46,-69.22 -17.85,-118.33 -29.02,-171.91 -11.16,-53.59 -20.09,-111.65 -11.16,-221.05 8.93,-109.4 35.72,-270.15 51.35,-379.55 15.63,-109.42 20.09,-167.46 -17.87,-120.57 -37.95,46.88 -118.33,198.7 -176.39,236.66 -58.04,37.96 -93.76,-37.96 -131.72,-91.54 -37.96,-53.59 -78.14,-84.84 -98.24,-107.17 -20.09,-22.33 -20.09,-35.73 -15.63,-69.21 4.47,-33.49 13.4,-87.08 58.05,-147.36 44.66,-60.29 125.04,-127.27 198.72,-196.48z"/>
   <path class="fil2" d="M13505.49 10523.87c-35.73,119.46 -84.84,197.61 -137.31,255.66 -52.48,58.05 -108.29,96 -165.23,102.7 -56.93,6.7 -114.98,-17.86 -175.27,-25.67 -60.28,-7.82 -122.79,1.11 -159.64,11.16 -36.84,10.05 -48,21.21 -25.67,-3.35 22.33,-24.56 78.14,-84.85 117.21,-140.66 39.08,-55.82 61.4,-107.17 82.61,-149.6 21.22,-42.42 41.31,-75.91 64.76,-113.86 23.44,-37.96 50.23,-80.38 81.49,-109.41 31.26,-29.02 66.98,-44.65 126.15,-68.1 59.17,-23.44 141.78,-54.7 190.9,-89.31 49.12,-34.61 64.74,-72.56 61.4,-11.15 -3.35,61.39 -25.68,222.14 -61.4,341.59z"/>
   <path class="fil3" d="M8802.23 11750.78c-34.61,40.18 -97.13,133.96 -103.83,225.5 -6.7,91.54 42.43,180.86 62.52,250.07 20.09,69.21 11.17,118.33 -11.16,138.43 -22.33,20.09 -58.05,11.16 -85.57,-18.98 -27.51,-30.14 -46.82,-81.51 -73.61,-139.55 -26.8,-58.06 -61.08,-122.8 -82.68,-184.2 -21.61,-61.4 -30.54,-119.45 -50.63,-148.47 -20.1,-29.03 -51.35,-29.03 -98.24,-22.33 -46.89,6.7 -109.4,20.1 -149.6,29.03 -40.19,8.93 -58.04,13.39 -62.51,35.72 -4.46,22.32 4.47,62.51 17.87,96 13.39,33.49 31.25,60.29 42.41,104.95 11.17,44.65 15.63,107.17 62.52,178.61 46.88,71.44 136.2,151.83 232.2,218.81 96.01,66.98 198.71,120.56 294.72,180.85 96.01,60.28 185.32,127.27 174.16,176.39 -11.17,49.11 -122.8,80.37 -196.48,111.63 -73.69,31.26 -109.4,62.52 -118.34,111.64 -8.93,49.11 8.93,116.1 -24.56,189.78 -33.49,73.67 -118.34,154.06 -151.82,212.11 -33.5,58.05 -15.63,93.77 -96.01,51.35 -80.38,-42.42 -259,-162.99 -404.12,-261.23 -145.13,-98.24 -256.77,-174.16 -359.47,-274.63 -102.71,-100.47 -196.49,-225.5 -272.4,-323.74 -75.91,-98.24 -133.96,-169.69 -176.38,-243.37 -42.42,-73.67 -69.22,-149.59 -82.61,-216.57 -13.4,-66.98 -13.4,-125.03 6.69,-196.47 20.1,-71.46 60.28,-156.31 64.75,-205.42 4.47,-49.12 -26.79,-62.51 -22.32,-71.44 4.46,-8.94 44.65,-13.4 66.98,-46.89 22.33,-33.5 26.79,-96.01 26.79,-156.29 0,-60.29 -4.46,-118.34 -34.97,-206.91 -30.52,-88.57 -87.08,-207.66 -143.63,-245.24 -56.57,-37.6 -113.13,6.31 -205.41,14.5 -92.29,8.2 -220.31,-19.33 -245.61,-4.45 -25.31,14.89 52.09,72.18 2.98,101.21 -49.13,29.03 -224.77,29.78 -263.55,51.06 -38.78,21.27 59.32,63.06 95.79,98.03 36.47,34.98 11.31,63.13 -20.98,96.93 -32.3,33.8 -71.75,73.24 -111.2,112.69 -39.44,39.44 -78.88,78.89 -133.28,122.97 -54.41,44.08 -123.77,92.8 -244.34,114.01 -120.57,21.19 -292.35,14.88 -473.5,52.3 -181.16,37.42 -371.67,118.57 -484.8,192.64 -113.12,74.07 -148.84,141.05 -146.61,158.91 2.24,17.86 42.42,-13.4 117.67,-39.69 75.25,-26.3 185.56,-47.64 203.43,-45.41 17.85,2.23 -56.73,28.04 -107.42,63.27 -50.69,35.23 -77.48,79.88 -106.51,129 -29.02,49.12 -60.28,102.7 -62.52,131.73 -2.23,29.03 24.57,33.49 60.29,22.33 35.73,-11.17 80.38,-37.96 100.47,-35.73 20.1,2.24 15.63,33.5 -29.02,66.99 -44.65,33.49 -129.5,69.21 -189.78,125.03 -60.29,55.82 -96.01,131.73 -98.24,151.83 -2.23,20.09 29.02,-15.63 93.77,-42.43 64.75,-26.79 162.99,-44.65 187.55,-33.49 24.56,11.17 -24.56,51.35 -62.52,93.77 -37.95,42.43 -64.75,87.08 -66.98,113.87 -2.23,26.8 20.09,35.73 60.29,31.26 40.19,-4.46 98.23,-22.33 122.8,-15.63 24.56,6.7 15.63,37.96 -17.87,93.78 -33.49,55.82 -91.54,136.2 -127.26,192.02 -35.73,55.82 -49.13,87.07 -58.06,120.56 -8.93,33.49 -13.39,69.21 6.71,82.61 20.09,13.4 64.74,4.46 96,0 31.26,-4.47 49.12,-4.47 58.05,6.7 8.93,11.16 8.93,33.49 -33.48,73.68 -42.43,40.19 -127.28,98.24 -185.32,149.6 -58.06,51.34 -89.31,95.99 -109.41,151.82 -20.09,55.81 -29.02,122.8 -24.56,158.52 4.47,35.72 22.33,40.19 44.66,24.56 22.33,-15.63 49.11,-51.35 71.44,-71.45 22.33,-20.09 40.19,-24.56 42.43,2.23 2.23,26.8 -11.17,84.85 -35.73,145.13 -24.56,60.28 -60.28,122.8 -71.44,187.55 -11.17,64.75 2.22,131.73 26.78,136.19 24.57,4.47 60.29,-53.58 91.55,-87.07 31.26,-33.49 58.05,-42.42 80.38,-46.89 22.33,-4.46 40.18,-4.46 4.46,42.42 -35.72,46.89 -125.03,140.67 -167.45,234.44 -42.42,93.77 -37.96,187.55 -11.16,203.18 26.79,15.63 75.91,-46.89 107.17,-89.31 31.25,-42.43 44.65,-64.75 51.35,-42.43 6.7,22.33 6.7,89.32 -6.7,174.16 -13.4,84.84 -40.19,187.55 -22.32,200.95 17.85,13.4 80.37,-62.52 80.37,-35.73 0,26.8 -62.52,156.29 -100.47,323.74 -37.96,167.46 -51.35,372.87 -58.05,477.81 -6.7,104.94 -6.7,109.4 6.7,58.05 13.39,-51.35 40.18,-158.52 66.97,-234.44 26.8,-75.91 53.59,-120.56 71.46,-60.28 17.86,60.29 26.78,225.5 13.39,366.17 -13.4,140.66 -49.12,256.76 -60.28,468.87 -11.17,212.11 2.23,520.23 69.95,843.03 67.72,322.8 189.77,660.29 250.8,829.03 61.02,168.74 61.02,168.74 44.87,96.7 -16.16,-72.04 -48.47,-216.11 -24.66,-430.82 23.82,-214.71 103.76,-500.07 172.76,-710.48 69,-210.39 127.05,-345.85 170.22,-429.58 43.16,-83.72 71.44,-115.72 85.58,-131.72 14.14,-16.01 14.14,-16.01 -18.77,144.9 -32.9,160.92 -98.72,482.74 -135.18,741.36 -36.47,258.63 -43.6,454.05 -74.67,620.41 -31.07,166.36 -86.11,303.65 -110.66,476.14 -24.56,172.49 -18.64,380.19 -9.38,506.62 9.25,126.43 21.83,171.6 28.13,194.19 6.3,22.58 8.16,28.35 85.46,94.97 29.3,25.25 65.23,57.87 113.67,100.84 79.35,70.37 182.43,156.14 287.06,239.29 168.51,133.91 350.61,268 533.43,392.45 182.81,124.45 361.99,238.09 575.21,357.26 213.23,119.16 457.54,253.93 765.47,384.51 308.72,132.84 679.09,265.88 976.11,360.05 297.67,96 522.69,142.17 748.53,188.02 225.85,45.86 455.82,79.41 634.27,104.02 178.46,24.61 306.4,38.1 501.82,47.93 195.4,9.85 459.27,17.51 662.17,18.14 202.91,0.63 344.76,-12.99 511.93,-25.74 167.16,-12.74 360.06,-19.53 618.72,-61.2 137.8,-22.2 276.72,-43.4 414.64,-70.26 148.73,-28.97 296.43,-64.04 442.87,-98.79 268.97,-63.81 482.31,-131.1 711.96,-212.68 229.65,-81.58 477.23,-176.24 730.8,-292.63 253.58,-116.39 513.17,-250.46 740.39,-382.22 227.23,-131.76 432.01,-260.49 651.17,-418.39 219.16,-157.88 408.04,-308.59 596.88,-463.94 188.83,-155.35 363.8,-320.54 499.07,-459.91 135.27,-139.36 288.64,-297.74 430.32,-462.18 141.69,-164.44 281.99,-341.76 425.06,-533.26 143.08,-191.51 277.97,-401.75 388.81,-577.85 110.84,-176.1 184.16,-321.01 268.85,-482.7 84.69,-161.68 186.09,-338.12 290.75,-592.12 69.45,-168.55 154.2,-372.86 226.96,-582.46 36.88,-106.25 72.65,-218.04 105.71,-325.17 98.27,-318.44 161.89,-619.51 212.44,-862.54 50.55,-243.03 66.2,-424.4 81.37,-556.89 15.18,-132.5 18.77,-219.27 10.77,-332.76 -8,-113.5 -27.61,-253.72 -111.09,-366.25 -83.48,-112.53 -230.85,-197.38 -351.32,-297.25 -120.47,-99.86 -214.06,-214.75 -313.05,-309.83 -98.98,-95.1 -203.37,-170.39 -274.92,-250.46 -71.55,-80.07 -110.25,-164.92 -155.65,-241.57 -45.4,-76.65 -97.5,-145.13 -126.89,-197.97 -29.4,-52.84 -36.1,-90.05 -85.59,-121.68 -49.49,-31.63 -141.78,-57.67 -201.15,-69.8 -59.36,-12.13 -85.8,-10.34 -123.41,-24.8 -37.6,-14.47 -86.37,-45.2 -132.66,-91.43 -46.28,-46.24 -90.1,-108 -70.72,-133.52 19.38,-25.53 101.94,-14.82 101.94,-14.82 0,0 -82.56,-10.71 -150.43,-38.15 -67.87,-27.46 -121.04,-71.66 -173.92,-128.28 -52.87,-56.62 -105.43,-125.65 -155.9,-178.04 -50.47,-52.38 -98.85,-88.1 -200.06,-97.03 -101.21,-8.92 -255.24,8.97 -344.51,23.97 -89.27,15 -113.77,27.12 -177.22,15.78 -63.44,-11.35 -165.85,-46.17 -250.32,-100.62 -84.48,-54.45 -151.04,-128.54 -184.32,-165.58 -33.27,-37.04 -33.27,-37.04 -58.97,-36.46 -25.7,0.57 -77.11,1.71 -102.81,2.28 -25.7,0.57 -25.7,0.57 -26.45,-32.17 -0.74,-32.75 -2.24,-98.24 -13.16,-132.12 -10.92,-33.87 -31.27,-36.12 -51.36,-39.47 -20.1,-3.35 -39.94,-7.8 -64.47,-31.31 -24.53,-23.51 -53.75,-66.09 -96.18,-77.06 -42.41,-10.99 -98.04,9.63 -144.46,65.17 -46.41,55.52 -83.63,145.96 -151.36,213.51 -67.72,67.54 -165.97,112.19 -250.81,147.91 -84.84,35.73 -156.29,62.52 -207.65,84.85 -51.35,22.32 -82.6,40.19 -49.12,80.38 33.5,40.18 131.74,102.7 244.89,175.26 113.16,72.55 241.23,155.14 324.05,313.54 82.83,158.4 120.4,392.6 18.76,654.09 -101.65,261.49 -342.51,550.28 -600.04,775.94 -257.54,225.64 -531.75,388.16 -747,406.9 -215.25,18.74 -371.54,-106.29 -551.27,-231.32 -179.73,-125.04 -382.9,-250.09 -538.07,-307.03 -155.17,-56.93 -262.34,-45.77 -145.13,-80.37 117.22,-34.61 458.84,-114.99 701.09,-213.23 242.25,-98.24 385.14,-214.35 495.1,-378.47 109.96,-164.12 186.98,-376.26 169.67,-484.56 -17.3,-108.3 -128.94,-112.76 -265.14,-90.44 -136.19,22.33 -296.95,71.45 -500.13,118.34 -203.17,46.89 -448.77,91.54 -529.16,-4.47 -80.37,-96 4.48,-332.67 22.33,-466.64 17.86,-133.96 -31.25,-165.21 -63.63,-208.01 -32.37,-42.8 -47.98,-97.14 -44.6,-172.32 3.39,-75.19 25.77,-171.24 38.79,-227.77 13.03,-56.54 16.7,-73.56 -11.99,-118.57 -28.68,-45.01 -89.71,-117.99 -137.72,-114.67 -48,3.31 -82.98,82.95 -116.26,198.75 -33.29,115.8 -64.89,267.77 -96.85,363.45 -31.95,95.68 -64.27,135.08 -107.64,170.36 -43.37,35.27 -97.79,66.44 -139.14,62.68 -41.35,-3.77 -69.64,-42.47 -86.38,-99.03 -16.75,-56.57 -21.96,-130.99 -31.78,-215.19 -9.81,-84.21 -24.24,-178.2 -8.25,-257.46 16.01,-79.26 62.43,-143.79 66.81,-193.97 4.38,-50.18 -33.27,-86.02 -79.79,-116.17 -46.51,-30.14 -101.87,-54.6 -159.27,-91.39 -57.4,-36.8 -116.84,-85.95 -154.6,-143.54 -37.76,-57.59 -53.85,-123.62 -75.87,-196.18 -22.01,-72.55 -49.94,-151.6 -50.51,-224.63 -0.57,-73.02 26.22,-140 15.05,-126.6 -11.15,13.39 -60.28,107.17 -84.84,127.26 -24.55,20.1 -24.55,-33.49 -26.78,-89.3 -2.24,-55.83 -6.7,-113.87 8.93,-185.32 15.63,-71.45 51.35,-156.3 51.35,-194.25 0,-37.96 -35.72,-29.02 -66.98,15.63 -31.26,44.65 -58.06,125.04 -78.15,169.69 -20.1,44.65 -33.49,53.58 -53.58,31.26 -20.1,-22.33 -46.89,-75.91 -69.22,-142.89 -22.33,-66.99 -40.19,-147.37 -53.58,-223.28 -13.4,-75.91 -22.33,-147.36 -51.36,-154.06 -29.03,-6.7 -78.14,51.35 -122.8,156.29 -44.66,104.94 -84.84,256.76 -111.64,381.79 -26.79,125.03 -40.18,223.28 -97.9,335.83 -57.72,112.56 -159.76,239.43 -240.22,377.01 -80.48,137.58 -139.37,285.86 -208.92,389.88 -69.55,104.02 -149.75,163.77 -196.54,220.44 -46.8,56.67 -60.19,110.25 -66.89,188.41 -6.7,78.14 -6.7,180.84 -13.4,263.46 -6.7,82.61 -20.09,145.12 -69.95,144 -49.86,-1.11 -136.19,-65.87 -262.17,-130.84 -125.99,-64.97 -291.63,-130.15 -291.63,-130.15 0,0 165.64,65.18 223.54,40.47 57.88,-24.72 8.02,-139.33 -42.59,-247.62 -50.62,-108.29 -101.97,-210.24 -175.32,-237.69 -73.36,-27.46 -168.7,19.59 -203.73,125.27 -35.03,105.66 -9.75,269.96 -43.57,384.87 -33.81,114.9 -126.75,180.41 -195.55,232.15 -68.79,51.74 -113.44,89.69 -156.98,143.28 -43.54,53.58 -85.96,122.8 -114.98,164.11 -29.03,41.3 -44.66,54.7 -55.83,54.7 -11.16,0 -17.86,-13.4 -52.46,26.79z"/>
   <path class="fil4" d="M11639.87 14825.83c120.85,99.81 300.44,162.08 554.97,229.06 254.54,66.99 593.35,72.81 878.86,24.36 285.51,-48.44 517.72,-151.14 767.78,-309.67 250.07,-158.52 518,-372.87 683.21,-558.19 165.23,-185.31 227.75,-341.59 254.53,-457.69 26.8,-116.11 17.87,-192.02 -89.3,-198.72 -107.17,-6.7 -312.59,55.82 -533.63,100.48 -221.04,44.65 -457.7,71.44 -576.04,73.67 -118.33,2.24 -118.33,-20.09 -17.86,-33.49 100.47,-13.4 301.42,-17.86 428.69,-40.19 127.26,-22.33 180.84,-62.51 165.21,-93.77 -15.62,-31.26 -100.47,-53.58 -187.54,-73.68 -87.08,-20.1 -176.39,-37.96 -173.22,-59.32 3.18,-21.37 98.83,-46.22 202.79,-67.44 103.96,-21.21 216.22,-38.76 360.76,-105.84 144.55,-67.07 321.39,-183.67 509.91,-336.61 188.54,-152.95 388.76,-342.23 529.06,-517.25 140.3,-175.03 220.68,-335.78 217.45,-479.48 -3.23,-143.69 -90.07,-270.32 -65.51,-281.49 24.57,-11.16 160.52,93.14 315.57,210.04 155.06,116.9 329.21,246.4 356,297.76 26.8,51.34 -93.77,24.56 -200.94,40.19 -107.17,15.62 -200.94,73.67 -216.57,118.33 -15.63,44.65 46.89,75.9 116.1,71.44 69.21,-4.47 145.13,-44.65 136.19,-15.62 -8.93,29.02 -102.7,127.26 -122.79,180.85 -20.1,53.58 33.49,62.51 -2.24,125.03 -35.72,62.52 -160.76,178.62 -180.85,238.9 -20.1,60.28 64.75,64.75 42.42,100.47 -22.33,35.72 -151.82,102.71 -187.55,158.53 -35.72,55.81 22.33,100.46 2.23,142.89 -20.09,42.42 -118.33,82.61 -216.57,122.8 -98.24,40.19 -196.48,80.37 -252.3,125.03 -55.81,44.66 -69.21,93.77 29.03,104.94 98.24,11.16 308.12,-15.62 473.34,-62.51 165.22,-46.89 285.79,-113.87 245.59,-100.48 -40.18,13.39 -241.13,107.17 -428.68,203.18 -187.55,96.01 -361.7,194.25 -475.56,265.7 -113.87,71.45 -167.46,116.1 -165.23,176.38 2.23,60.28 60.29,136.2 243.37,160.75 183.09,24.57 491.2,-2.23 584.97,-6.69 93.78,-4.47 -26.79,13.39 -189.78,49.12 -162.98,35.72 -368.4,89.31 -520.22,160.75 -151.82,71.45 -250.07,160.76 -357.24,254.53 -107.17,93.77 -223.27,192.02 -352.77,294.72 -129.5,102.71 -272.39,209.88 -468.88,285.79 -196.47,75.91 -446.53,120.56 -808.23,91.54 132.2,67.05 -612.66,-49.75 -790.76,-42.18 -211.06,9 -531.11,163.7 -787.33,184.21 2.19,-0.23 -35.18,2.96 -93.12,-14.51 -164.72,-49.69 -511.45,-157.26 -710.3,-136.65 -272.39,29.03 -378.14,47.09 -623.74,87.28 -245.6,40.19 -473.34,84.84 -788.15,42.41 -314.82,-42.41 -716.7,-171.91 -917.65,-279.08 -200.95,-107.17 -200.95,-192.02 -471.11,-169.69 -270.16,22.33 -810.47,151.83 -1239.15,238.9 -428.69,87.08 -745.74,131.73 -756.9,96.01 -11.16,-35.72 283.55,-151.82 587.21,-250.06 303.64,-98.24 616.23,-178.62 660.89,-232.21 44.65,-53.58 -178.63,-80.37 -390.73,-122.79 -212.11,-42.43 -413.06,-100.48 -522.46,-140.67 -109.4,-40.19 -127.27,-62.51 -6.7,-71.44 120.57,-8.93 379.56,-4.47 558.19,-11.17 178.61,-6.69 276.85,-24.56 169.68,-118.34 -107.17,-93.77 -419.76,-263.45 -625.17,-424.21 -205.4,-160.76 -303.65,-312.58 -317.04,-366.16 -13.4,-53.59 58.05,-8.94 259,89.31 200.94,98.24 531.39,250.05 817.18,321.5 285.78,71.45 526.92,62.52 462.17,-55.81 -64.75,-118.34 -435.38,-346.08 -676.52,-486.74 -241.13,-140.66 -352.78,-194.24 -445.55,-267.93 -92.79,-73.69 -166.71,-167.47 -216.92,-245.24 -50.21,-77.78 -76.7,-139.54 -102.25,-170.79 -25.55,-31.25 -50.17,-32 -2.19,-52.47 47.98,-20.46 168.54,-60.65 148.45,-114.24 -20.1,-53.58 -180.85,-120.56 -165.22,-171.92 15.62,-51.35 207.64,-87.07 386.26,-169.68 178.62,-82.62 343.83,-212.11 448.78,-325.98 104.93,-113.87 149.58,-212.11 193.54,-161.91 43.95,50.2 87.2,248.85 168.33,434 81.13,185.13 200.15,356.78 389.77,545.57 189.62,188.79 449.86,394.73 600.74,510.24 150.88,115.5 192.42,140.57 191.05,185.13 -1.37,44.56 -45.65,108.62 -61.09,194.23 -15.45,85.62 -2.05,192.79 26.97,358 29.03,165.23 73.68,388.51 218.81,580.52 145.13,192.02 390.73,352.77 663.12,448.77 272.39,96.02 571.58,127.27 868.53,58.05 296.95,-69.21 644.58,-172.75 838.83,-297.79 194.24,-125.03 342.04,-223.93 415.72,-270.82 73.67,-46.88 -11.99,16.24 50.53,45.27 62.52,29.02 156.92,42.19 277.77,141.98z"/>
   <path class="fil4" d="M10255.72 16160.58c89.31,58.05 80.39,111.63 138.44,116.1 58.05,4.46 183.08,-40.19 250.07,4.46 66.98,44.66 75.9,178.62 98.23,218.81 22.33,40.19 58.04,-13.4 111.63,4.47 53.59,17.86 125.04,107.17 174.16,102.7 49.12,-4.47 75.91,-102.7 156.28,-102.7 80.39,0 214.35,98.23 285.8,89.3 71.45,-8.93 80.38,-125.03 160.75,-156.29 80.39,-31.25 232.21,22.33 308.12,-13.4 75.91,-35.72 75.91,-160.75 142.89,-200.94 66.99,-40.18 200.95,4.47 267.93,-8.93 66.99,-13.39 66.99,-84.84 98.24,-98.24 31.26,-13.39 93.78,31.26 156.29,17.86 62.51,-13.39 125.03,-84.84 214.34,-125.03 89.31,-40.19 205.42,-49.12 526.93,-147.36 321.51,-98.24 848.43,-285.78 1129.76,-397.43 281.32,-111.63 317.04,-147.35 151.82,-71.44 -165.22,75.92 -531.39,263.46 -835.04,424.22 -303.65,160.76 -544.78,294.71 -589.44,419.75 -44.65,125.03 107.17,241.13 192.01,343.84 84.85,102.7 102.71,192.01 89.32,196.48 -13.4,4.47 -58.05,-75.92 0,22.32 58.05,98.25 218.8,375.1 209.87,410.82 -8.93,35.73 -187.54,-169.69 -209.87,-183.08 -22.33,-13.39 111.63,165.22 75.91,303.65 -35.72,138.43 -241.14,236.67 -294.73,227.74 -53.58,-8.93 44.66,-125.03 58.06,-245.6 13.4,-120.57 -58.06,-245.6 -125.03,-241.14 -66.98,4.47 -129.5,138.43 -187.56,276.86 -58.04,138.43 -111.63,281.33 -165.21,401.9 -53.59,120.56 -107.17,218.8 -116.11,142.88 -8.93,-75.9 26.79,-325.97 -8.93,-513.52 -35.72,-187.55 -142.89,-312.58 -200.95,-276.86 -58.04,35.73 -66.98,232.21 -84.84,384.03 -17.86,151.83 -44.65,259 -102.7,272.4 -58.05,13.4 -147.36,-66.99 -156.3,-196.49 -8.93,-129.49 62.53,-308.11 26.8,-325.97 -35.73,-17.86 -178.61,125.03 -375.1,325.97 -196.48,200.95 -446.54,459.94 -486.73,424.22 -40.19,-35.72 129.5,-366.16 227.73,-576.04 98.25,-209.87 125.04,-299.18 58.05,-263.46 -66.98,35.73 -227.73,196.48 -357.23,361.7 -129.5,165.23 -227.73,334.91 -312.58,446.55 -84.84,111.63 -156.29,165.22 -142.89,49.11 13.39,-116.1 111.64,-401.88 183.08,-593.9 71.45,-192.01 116.1,-290.25 75.91,-281.32 -40.18,8.93 -165.22,125.03 -272.39,241.13 -107.17,116.1 -196.48,232.21 -343.84,361.7 -147.36,129.5 -352.77,272.4 -317.05,178.63 35.73,-93.78 312.58,-424.23 468.87,-638.57 156.3,-214.33 192.01,-312.58 93.78,-245.6 -98.24,66.98 -330.44,299.19 -433.15,321.51 -102.7,22.33 -75.92,-165.22 -147.36,-192.01 -71.44,-26.79 -241.13,107.17 -379.56,236.67 -138.43,129.5 -245.6,254.53 -267.92,196.48 -22.33,-58.05 40.18,-299.18 133.96,-482.27 93.77,-183.08 218.81,-308.11 223.27,-352.77 4.47,-44.65 -111.64,-8.93 -285.79,26.8 -174.16,35.72 -406.36,71.44 -638.56,49.11 -232.2,-22.32 -464.41,-102.7 -437.61,-147.36 26.79,-44.65 312.58,-53.58 576.04,-84.84 263.46,-31.26 504.6,-84.84 562.65,-111.64 58.05,-26.79 -66.99,-26.79 -250.07,-75.91 -183.08,-49.12 -424.22,-147.36 -696.61,-196.48 -272.39,-49.12 -576.04,-49.12 -647.49,-75.91 -71.45,-26.8 89.3,-80.38 339.37,-120.57 250.06,-40.19 589.44,-66.98 843.98,-71.44 254.53,-4.47 424.21,13.39 602.83,53.58 178.61,40.19 366.17,102.7 455.47,160.76z"/>
   <path class="fil3" d="M8467.32 14914.72c-234.45,116.1 -426.46,214.34 -734.57,323.74 -308.12,109.4 -732.34,229.97 -1183.35,341.6 -451.01,111.64 -928.81,214.35 -1424.48,314.82 -495.66,100.47 -1009.19,198.72 -1318.67,250.97 -309.48,52.25 -414.9,58.53 -467.62,61.66 -52.71,3.13 -52.71,3.13 -55,-2.24 -2.29,-5.37 -6.86,-16.11 -9.15,-21.49 -2.29,-5.37 -2.29,-5.37 52.71,-9.84 55,-4.45 165.01,-13.37 295.93,-33.47 130.91,-20.08 282.74,-51.34 505.08,-99 222.34,-47.66 515.2,-111.72 885.83,-194.34 370.63,-82.6 819.04,-183.76 1246.42,-285.7 427.38,-101.93 833.73,-204.64 1260.18,-352 426.45,-147.35 873,-339.37 1163.26,-468.87 290.25,-129.5 424.21,-196.48 495.66,-232.2 71.45,-35.73 80.38,-40.19 82.61,-31.25 2.23,8.93 -2.23,31.25 -142.89,109.39 -140.67,78.15 -417.52,212.11 -651.95,328.22z"/>
   <path class="fil3" d="M8840.18 14416.81c-392.96,109.4 -772.52,212.11 -1350.55,287.3 -578.03,75.18 -1354.51,122.83 -1908.22,37.98 -553.72,-84.84 -884.67,-302.18 -1146.14,-529.18 -261.48,-227.01 -453.5,-463.68 -578.53,-657.92 -125.03,-194.26 -183.08,-346.08 -212.1,-424.23 -29.03,-78.15 -29.03,-82.61 20.09,2.24 49.12,84.84 147.35,258.99 243.36,404.12 96.01,145.12 189.79,261.23 321.27,386.49 131.47,125.27 300.64,259.7 404.38,340.89 103.74,81.2 142.02,109.16 242.75,158.04 100.73,48.89 263.89,118.7 437.01,164.77 173.13,46.08 356.21,68.4 489.8,82.54 133.6,14.14 217.69,20.1 425.34,15.63 207.64,-4.46 538.83,-19.35 787.03,-37.96 248.21,-18.6 413.42,-40.92 627.07,-78.81 213.64,-37.88 475.71,-91.32 770.43,-149.37 294.72,-58.05 622.09,-120.71 899.65,-178.84 277.55,-58.13 505.29,-111.71 415.99,-80.45 -89.32,31.26 -495.67,147.36 -888.63,256.76z"/>
   <path class="fil3" d="M8355.66 15517.53c359.47,-223.27 716.72,-451.01 913.2,-578.28 196.48,-127.26 232.19,-154.05 227.73,-158.51 -4.47,-4.47 -49.12,13.39 -174.15,82.6 -125.03,69.22 -330.45,189.78 -643.03,366.16 -312.58,176.39 -732.33,408.6 -1315.6,765.22 -583.28,356.62 -1330.06,837.64 -1926.2,1257.39 -596.14,419.75 -1041.62,778.23 -1193.98,902.47 -152.37,124.25 -11.62,14.26 58.77,-40.73 70.38,-55 70.38,-55 82.89,-39.04 12.5,15.96 37.51,47.86 50.02,63.82 12.51,15.95 12.51,15.95 56.89,-32.08 44.38,-48.04 133.13,-144.12 362.83,-323.89 229.7,-179.77 600.33,-443.22 1026.78,-724.55 426.45,-281.32 908.72,-580.5 1330.7,-839.5 421.99,-259 783.69,-477.81 1143.15,-701.08z"/>
   <path class="fil3" d="M13911.44 14091.18c113.14,-2.61 702.58,50.98 1269.69,117.96 567.12,66.98 1111.9,147.36 1390.99,194.24 279.09,46.89 292.48,60.29 288.02,73.69 -4.47,13.39 -26.79,26.79 -167.45,11.16 -140.66,-15.63 -399.66,-60.28 -780.72,-111.26 -381.05,-50.98 -884.16,-108.27 -1317.31,-166.33 -433.15,-58.04 -796.34,-116.85 -683.22,-119.46z"/>
   <path class="fil3" d="M13957.6 14474.83c31.26,15.63 330.44,69.22 631.85,158.52 301.42,89.32 605.08,214.35 797.09,290.26 192.01,75.92 272.39,102.7 292.48,89.31 20.1,-13.39 -20.09,-66.98 -125.03,-122.8 -104.94,-55.82 -274.62,-113.86 -477.8,-178.62 -203.18,-64.74 -439.85,-136.19 -676.52,-183.08 -236.66,-46.89 -473.33,-69.22 -442.07,-53.59z"/>
   <path class="fil3" d="M13639.57 14715.18c109.49,14.17 436.8,105.69 738.22,244.12 301.43,138.43 576.94,323.76 728.1,432.06 151.16,108.3 177.95,139.55 137.75,137.32 -40.18,-2.24 -147.36,-37.95 -283.55,-104.94 -136.2,-66.98 -301.42,-165.22 -428.69,-231.45 -127.27,-66.23 -216.57,-100.46 -341.03,-155.94 -124.46,-55.48 -284.04,-132.21 -418.01,-202.18 -133.96,-69.96 -242.29,-133.16 -132.79,-118.99z"/>
   <path class="fil5" d="M11492.24 14714.48c74.09,61.78 161.17,133.23 311.12,197.6 149.96,64.37 362.79,121.67 483.24,151.96 120.45,30.29 148.5,33.57 153.72,46.22 5.23,12.66 -12.39,34.69 -53.58,44.59 -41.19,9.9 -105.93,7.67 -238.78,-34.76 -132.85,-42.41 -333.8,-125.03 -472.23,-190.9 -138.42,-65.86 -214.34,-114.98 -267.92,-147.35 -53.59,-32.38 -84.84,-48 -119.45,-41.3 -34.61,6.7 -72.56,35.72 -157.41,92.65 -84.84,56.93 -216.57,141.78 -337.14,203.18 -120.56,61.4 -229.97,99.35 -310.35,126.15 -80.37,26.79 -131.73,42.42 -165.97,38.38 -34.26,-4.04 -51.4,-27.74 -11.21,-54.54 40.19,-26.79 137.71,-56.67 256.8,-109.57 119.1,-52.89 259.75,-128.8 385.49,-214.02 125.73,-85.22 236.54,-179.75 290.12,-256.78 53.59,-77.03 49.96,-136.56 47.02,-194.23 -2.93,-57.68 -5.16,-113.5 2.65,-157.04 7.82,-43.53 25.67,-74.79 28.6,-17.12 2.94,57.68 -9.05,204.29 15.51,303.64 24.56,99.36 85.67,151.46 159.77,213.24z"/>
   <path class="fil4" d="M10675.45 13216.73c55.81,-59.17 131.73,-146.25 183.09,-235.56 51.34,-89.31 78.14,-180.85 98.23,-235.55 20.1,-54.71 33.49,-72.56 31.26,-41.3 -2.24,31.25 -20.09,111.63 -45.77,197.59 -25.68,85.96 -59.16,177.5 -70.33,241.14 -11.16,63.62 0,99.34 79.26,112.74 79.26,13.4 226.62,4.47 361.7,0.01 135.08,-4.47 257.88,-4.47 325.98,-23.45 68.1,-18.98 81.49,-56.94 69.21,-101.59 -12.28,-44.65 -50.23,-96.01 -74.79,-159.64 -24.56,-63.63 -35.72,-139.54 -37.95,-206.52 -2.24,-66.99 4.45,-125.03 11.15,-123.92 6.7,1.12 13.4,61.4 40.19,149.6 26.8,88.19 73.68,204.29 128.39,301.41 54.7,97.12 117.21,175.27 152.94,232.21 35.73,56.93 44.65,92.65 34.6,122.79 -10.05,30.15 -39.07,54.7 -162.98,59.17 -123.92,4.46 -342.72,-11.16 -536.98,-17.86 -194.24,-6.7 -363.92,-4.47 -476.67,-8.93 -112.76,-4.47 -168.58,-15.63 -198.72,-40.19 -30.14,-24.56 -34.61,-62.52 -18.98,-97.12 15.63,-34.61 51.35,-65.87 107.17,-125.03z"/>
   <path class="fil6" d="M11069.53 14134.37c39.07,52.47 77.02,103.82 112.41,130.09 35.4,26.28 68.24,27.47 117.36,18.54 49.12,-8.93 114.53,-27.99 169.55,-77.7 55.03,-49.72 99.69,-130.1 149.92,-195.96 50.24,-65.87 106.06,-117.22 161.88,-158.52 55.82,-41.31 111.63,-72.57 156.29,-112.75 44.66,-40.2 78.14,-89.32 80.56,-139.37 2.42,-50.05 -26.23,-101.02 -46.33,-146.98 -20.1,-45.96 -31.62,-86.89 -125.59,-111.64 -93.96,-24.74 -270.34,-33.31 -459.01,-37.58 -188.66,-4.29 -389.61,-4.29 -528.03,2.97 -138.43,7.26 -214.35,21.77 -265.7,46.33 -51.35,24.56 -78.14,59.17 -90.42,102.15 -12.28,42.98 -10.05,94.33 5.58,136.75 15.63,42.43 44.65,75.91 83.72,113.87 39.08,37.96 88.2,80.38 129.5,112.75 41.31,32.38 74.8,54.7 111.64,79.26 36.84,24.57 77.02,51.35 117.22,91.54 40.19,40.19 80.37,93.78 119.45,146.25z"/>
   <path class="fil7" d="M10978.53 13677.22c28.48,10.61 48.57,25.11 63.09,49.12 14.51,24 23.44,57.49 26.23,97.68 2.79,40.19 -0.56,87.08 -2.79,121.12 -2.23,34.05 -3.35,55.26 -5.58,70.89 -2.23,15.63 -5.58,25.68 -17.31,10.61 -11.72,-15.07 -31.81,-55.26 -54.14,-84.28 -22.33,-29.03 -46.89,-46.89 -85.08,-60.86 -38.19,-13.97 -90.02,-24.06 -133.61,-43.23 -43.58,-19.18 -78.92,-47.45 -117.75,-83.52 -38.82,-36.07 -81.13,-79.94 -105.64,-108.58 -24.51,-28.65 -31.23,-42.05 -26.22,-48.94 5.02,-6.9 21.76,-7.27 45.2,-1.87 23.45,5.39 53.58,16.55 85.96,39.44 32.37,22.88 66.98,57.48 92.65,65.86 25.68,8.37 42.43,-9.48 63.09,-21.77 20.65,-12.28 45.2,-18.97 75.91,-18.97 30.69,0 67.53,6.69 95.99,17.3z"/>
   <path class="fil7" d="M11550.68 13664.38c21.21,-25.68 50.23,-46.88 97.67,-46.88 47.46,0 113.32,21.2 155.74,24 42.43,2.79 61.4,-12.84 81.5,-31.82 20.09,-18.98 41.3,-41.3 60.97,-56.32 19.67,-15.02 37.8,-22.73 49.37,-13.95 11.57,8.77 16.56,34.03 2.79,72.32 -13.78,38.29 -46.33,89.6 -81.91,123.25 -35.56,33.65 -74.14,49.62 -129.15,82.17 -55.01,32.55 -126.46,81.67 -173.91,120.74 -47.44,39.08 -70.89,68.1 -88.75,82.06 -17.86,13.95 -30.14,12.83 -35.16,-12.85 -5.02,-25.68 -2.8,-75.91 0.55,-122.8 3.35,-46.89 7.82,-90.42 16.75,-127.26 8.93,-36.84 22.33,-66.98 43.54,-92.66z"/>
   <path class="fil8" d="M10846.47 13750.45c36.62,22.22 93.56,51.24 133.93,74.74 40.38,23.49 64.2,41.46 77.32,45.51 13.11,4.05 15.54,-5.82 14.18,-24.32 -1.36,-18.5 -6.48,-45.63 -12.76,-69.35 -6.28,-23.73 -13.72,-44.05 -27.34,-60.11 -13.63,-16.07 -33.45,-27.88 -59.36,-36.67 -25.9,-8.8 -57.91,-14.56 -86.55,-14.28 -28.66,0.27 -53.96,6.6 -71.52,12.85 -17.56,6.24 -27.36,12.42 -24.1,23.21 3.25,10.78 19.57,26.2 56.2,48.42z"/>
   <path class="fil8" d="M11687.97 13724.67c-19.53,11.72 -42.98,22.88 -65.03,37.4 -22.04,14.51 -42.7,32.36 -60.28,47.99 -17.59,15.63 -32.1,29.03 -43.64,41.03 -11.53,12 -20.08,22.61 -23.38,17.25 -3.3,-5.36 -1.34,-26.7 3.2,-53.67 4.54,-26.97 11.67,-59.58 20.74,-85.57 9.07,-25.99 20.09,-45.35 32.79,-60.91 12.71,-15.55 27.11,-27.28 43.38,-35.1 16.29,-7.81 34.45,-11.7 56.53,-11.88 22.09,-0.18 48.11,3.36 70.71,9.31 22.61,5.95 41.8,14.33 43.86,24.38 2.06,10.04 -13.01,21.76 -28.37,33.76 -15.35,12 -30.97,24.28 -50.51,36.01z"/>
   <path class="fil9" d="M8529.76 11538.75c96,-74.8 209.89,-149.82 329.19,-206.19 119.29,-56.38 244.01,-94.12 378.32,-97.59 134.31,-3.47 278.21,27.33 410.1,79.7 131.89,52.35 251.76,126.28 358.59,239.15 106.82,112.88 200.6,264.7 244.14,427.69 43.53,162.98 36.83,337.14 -2.24,444.31 -39.07,107.17 -110.52,147.35 -210.17,189.18 -99.65,41.83 -227.51,85.29 -382.67,97.57 -155.18,12.28 -337.68,-6.62 -496.47,-53.5 -158.81,-46.89 -293.91,-121.76 -380.34,-182.64 -86.42,-60.89 -124.16,-107.79 -158.69,-156.16 -34.53,-48.38 -65.86,-98.25 -86.87,-153.43 -21,-55.17 -31.7,-115.67 -42.54,-165.43 -10.85,-49.76 -21.85,-88.8 -34.84,-112.54 -12.99,-23.75 -27.98,-32.2 -79.15,-16.98 -51.18,15.22 -138.54,54.12 -227.99,65.55 -89.45,11.42 -181,-4.63 -266.96,-26.05 -85.95,-21.43 -166.34,-48.22 -181.96,-60.5 -15.63,-12.28 33.49,-10.04 91.54,-6.69 58.05,3.34 125.03,7.81 207.64,-5.59 82.61,-13.39 180.86,-44.65 269.05,-97.57 88.18,-52.92 166.31,-127.5 262.32,-202.29z"/>
   <path class="fil9" d="M12775.24 11205.35c103.77,-50.52 210.82,-75.65 291.04,-88.93 80.23,-13.29 133.63,-14.74 190.19,-10.99 56.57,3.75 116.29,12.69 204.76,38.65 88.48,25.95 205.7,68.92 314.42,119.05 108.72,50.11 208.93,107.39 315.97,136.03 107.04,28.64 220.92,28.64 311.34,17.47 90.43,-11.16 157.41,-33.48 184.2,-40.18 26.79,-6.7 13.4,2.23 -39.08,21.21 -52.46,18.98 -144,48 -219.55,78.22 -75.56,30.22 -135.11,61.63 -191.11,78.62 -56,16.99 -108.43,19.56 -144.51,68.6 -36.09,49.04 -55.83,144.56 -81.33,236.98 -25.49,92.41 -56.75,181.72 -99.18,259.87 -42.42,78.14 -96,145.12 -139.54,194.25 -43.54,49.11 -77.03,80.37 -137.89,115.35 -60.85,34.98 -149.05,73.68 -258.46,99.36 -109.4,25.68 -240,38.32 -364.46,23.44 -124.46,-14.89 -242.8,-57.31 -334.35,-85.22 -91.54,-27.91 -156.28,-41.3 -208.75,-56.93 -52.48,-15.63 -92.66,-33.49 -118.34,-71.45 -25.68,-37.96 -36.84,-96 -27.91,-197.59 8.93,-101.6 37.96,-246.72 82.61,-376.22 44.66,-129.49 104.94,-243.37 185.32,-338.26 80.38,-94.89 180.85,-170.81 284.61,-221.33z"/>
   <path class="fil10" d="M8572.04 11719.38c26.28,-94.73 79.19,-185.91 156.33,-250.24 77.13,-64.32 178.49,-101.79 280.89,-129.23 102.4,-27.45 205.83,-44.85 329.19,-29.79 123.35,15.06 266.64,62.61 388.79,121.55 122.16,58.94 223.19,129.27 291.74,203.09 68.55,73.82 104.61,151.13 134.2,211.42 29.58,60.28 52.68,103.53 72.74,160.35 20.06,56.81 37.08,127.19 50.09,189.3 13,62.09 22.01,115.91 23.16,171.84 1.15,55.94 -5.55,113.99 -25.64,169.81 -20.1,55.82 -53.58,109.4 -78.15,148.47 -24.56,39.08 -40.19,63.64 -59.17,78.15 -18.98,14.52 -41.3,18.98 -46.69,-13.1 -5.4,-32.07 6.14,-100.68 0.37,-129.9 -5.77,-29.21 -28.83,-19.03 -71.63,-4.11 -42.8,14.91 -105.31,34.57 -200.04,52.43 -94.73,17.86 -221.67,33.93 -344.43,29.56 -122.76,-4.38 -241.35,-29.2 -354.08,-68.09 -112.73,-38.88 -219.61,-91.82 -294.54,-141.68 -74.95,-49.86 -117.97,-96.63 -154.69,-149.52 -36.73,-52.89 -67.17,-111.88 -86.79,-167.74 -19.62,-55.87 -28.42,-108.6 -32.99,-184.09 -4.58,-75.5 -4.95,-173.76 21.34,-268.48z"/>
   <path class="fil10" d="M13891.3 11485.87c13.13,34.37 7.8,70.54 8.11,133.2 0.3,62.67 6.23,151.84 -7.33,239.74 -13.56,87.89 -46.62,174.51 -79.14,241.58 -32.51,67.07 -64.49,114.58 -99.15,157.99 -34.65,43.4 -72,82.69 -138.52,122.15 -66.52,39.46 -162.2,79.08 -252.39,107.61 -90.18,28.53 -174.86,45.96 -283.64,45.16 -108.78,-0.8 -241.67,-19.82 -339.97,-38.76 -98.3,-18.94 -162.02,-37.79 -211.31,-51.83 -49.29,-14.04 -84.15,-23.27 -99.87,-6.02 -15.7,17.25 -12.25,60.98 0.49,100.9 12.74,39.91 34.79,76.01 35.49,102.52 0.7,26.51 -19.95,43.44 -56.2,15.96 -36.24,-27.49 -88.08,-99.38 -114.07,-144.67 -25.99,-45.31 -26.12,-64.01 -30.65,-85.11 -4.53,-21.11 -13.47,-44.61 -9.17,-124.27 4.32,-79.66 21.86,-215.47 56.2,-351.16 34.34,-135.69 85.47,-271.26 153.17,-372.59 67.71,-101.33 151.98,-168.43 230.43,-222.69 78.46,-54.27 151.08,-95.7 217.55,-124.13 66.47,-28.43 126.78,-43.84 192.06,-50.89 65.28,-7.05 135.51,-5.74 216.41,2.59 80.89,8.33 172.43,23.68 263.41,58.71 90.99,35.03 181.42,89.73 242.41,133.38 61,43.65 92.57,76.24 105.68,110.63z"/>
   <path class="fil11" d="M8807.66 11559.9c42.42,-31.26 102.7,-73.68 187.54,-101.59 84.85,-27.91 194.25,-41.3 288.02,-40.18 93.77,1.12 171.92,16.74 261.23,50.23 89.31,33.49 189.79,84.84 288.03,157.41 98.23,72.56 194.25,166.34 261.23,247.83 66.98,81.49 104.93,150.71 115.91,222.27 10.98,71.55 -5.03,145.46 -31.42,201.96 -26.39,56.51 -63.17,95.62 -108.9,133.75 -45.74,38.12 -100.45,75.27 -155.89,108.59 -55.46,33.31 -111.67,62.8 -189.02,84.27 -77.34,21.48 -175.83,34.94 -273.27,33.34 -97.45,-1.61 -193.87,-18.29 -291.55,-53.99 -97.69,-35.69 -196.66,-90.4 -281.47,-157.62 -84.81,-67.23 -155.47,-146.96 -193.1,-233.23 -37.63,-86.26 -42.24,-179.05 -39.36,-256.97 2.87,-77.92 13.23,-140.99 26.23,-192.61 12.98,-51.63 28.61,-91.82 48.71,-121.96 20.09,-30.14 44.66,-50.24 87.08,-81.5z"/>
   <path class="fil11" d="M13755.38 11604.57c22.33,55.82 40.18,111.64 41.3,176.39 1.12,64.75 -14.51,138.42 -31.25,197.59 -16.75,59.18 -34.61,103.83 -60.29,150.72 -25.68,46.88 -59.16,96 -98.24,138.43 -39.07,42.41 -83.72,78.14 -131.73,108.28 -48.01,30.14 -99.35,54.7 -154.06,74.79 -54.7,20.1 -112.75,35.73 -181.97,43.55 -69.21,7.81 -149.59,7.81 -219.92,1.11 -70.33,-6.7 -130.62,-20.09 -188.67,-36.84 -58.05,-16.75 -113.86,-36.84 -168.57,-58.05 -54.7,-21.22 -108.28,-43.54 -145.13,-68.1 -36.84,-24.56 -56.93,-51.35 -72.56,-87.07 -15.63,-35.73 -26.79,-80.38 -22.32,-146.24 4.46,-65.87 24.56,-152.95 65.86,-246.72 41.31,-93.78 103.83,-194.26 168.57,-274.63 64.75,-80.38 131.73,-140.66 217.69,-189.79 85.97,-49.12 190.9,-87.07 292.49,-103.82 101.59,-16.74 199.83,-12.28 301.42,16.75 101.59,29.03 206.53,82.61 272.39,137.31 65.87,54.71 92.66,110.52 114.99,166.34z"/>
   <path class="fil12" d="M8758.1 11867.87c0.41,100.64 2.65,216.74 55.12,323.91 52.46,107.17 155.18,205.41 253.41,265.7 98.24,60.28 192.02,82.61 291.38,90.42 99.35,7.82 204.29,1.12 301.41,-46.88 97.12,-48 186.44,-137.32 245.61,-214.35 59.16,-77.03 88.18,-141.77 101.52,-223.12 13.33,-81.36 10.97,-179.3 -13.22,-249.28 -24.19,-69.98 -70.23,-112.01 -119.04,-150.85 -48.81,-38.84 -100.4,-74.51 -160.73,-108.24 -60.33,-33.72 -129.39,-65.52 -192.11,-87.51 -62.73,-22 -119.12,-34.21 -182.03,-39.33 -62.91,-5.14 -132.36,-3.19 -207.14,10.14 -74.8,13.33 -154.93,38.04 -217.79,66.34 -62.86,28.29 -108.45,60.17 -131.93,118.7 -23.49,58.53 -24.89,143.7 -24.46,244.35z"/>
   <path class="fil12" d="M13655.45 11861.9c-1.67,51.91 -10.6,103.26 -42.98,181.96 -32.38,78.71 -88.19,184.76 -204.85,250.07 -116.67,65.3 -294.17,89.87 -432.04,79.82 -137.87,-10.05 -236.11,-54.7 -309.79,-119.44 -73.68,-64.76 -122.79,-149.61 -157.93,-234.23 -35.15,-84.64 -56.3,-169.06 -42.64,-246.65 13.67,-77.59 62.15,-148.36 119.43,-211.46 57.29,-63.1 123.37,-118.54 211.08,-164.39 87.72,-45.87 197.08,-82.14 296.06,-96.65 98.99,-14.52 187.6,-7.26 262.6,23.53 75.01,30.79 136.4,85.12 182.72,152.48 46.33,67.35 77.59,147.73 96.01,214.15 18.42,66.43 24.01,118.89 22.33,170.81z"/>
   <path class="fil13" d="M8963.97 11835.69c-7.82,82.61 1.11,171.91 26.79,252.3 25.68,80.37 68.1,151.82 125.03,208.76 56.94,56.93 128.39,99.35 205.41,116.1 77.03,16.74 159.65,7.81 233.32,-27.91 73.68,-35.73 138.43,-98.24 187.55,-175.27 49.12,-77.03 82.61,-168.57 102.05,-262.03 19.43,-93.46 24.8,-188.84 13.68,-248.8 -11.11,-59.96 -38.72,-84.5 -78.76,-112.4 -40.04,-27.91 -92.51,-59.17 -151.25,-86.52 -58.75,-27.35 -123.79,-50.8 -183.02,-65.23 -59.24,-14.45 -112.68,-19.88 -164.28,-19.45 -51.6,0.42 -101.35,6.7 -144.31,38.68 -42.96,31.98 -79.12,89.66 -109.47,156.46 -30.37,66.78 -54.93,142.7 -62.74,225.31z"/>
   <path class="fil13" d="M12633.46 11913.87c26.79,69.21 69.22,142.88 118.34,194.24 49.12,51.34 104.94,80.36 177.5,93.76 72.56,13.4 161.88,11.17 231.09,-3.35 69.22,-14.51 118.33,-41.3 156.99,-78.19 38.67,-36.89 66.87,-83.88 85.85,-127.41 18.97,-43.54 28.73,-83.64 33.6,-127.13 4.89,-43.48 4.89,-90.37 0.23,-148.41 -4.65,-58.06 -13.95,-127.26 -31.25,-186.2 -17.3,-58.95 -42.59,-107.62 -66.25,-147.68 -23.66,-40.06 -45.68,-71.49 -57.03,-87.26 -11.35,-15.77 -12.05,-15.87 -53.79,-20.29 -41.75,-4.44 -124.57,-13.21 -218.45,8.36 -93.87,21.57 -198.82,73.49 -272.78,119.81 -73.95,46.33 -116.94,87.09 -137.3,137.99 -20.36,50.9 -18.12,111.97 -11.41,174.87 6.71,62.91 17.87,127.67 44.66,196.89z"/>
   <path class="fil14" d="M10132.83 12185.74c2.79,13.4 0.56,30.14 -8.93,48.01 -9.49,17.86 -26.23,36.83 -40.74,39.63 -14.52,2.78 -26.8,-10.61 -32.38,-29.59 -5.58,-18.98 -4.47,-43.54 7.26,-59.72 11.72,-16.19 34.04,-24.01 49.12,-22.89 15.06,1.11 22.88,11.16 25.67,24.56z"/>
   <path class="fil14" d="M9338.26 11668.86c28.19,0 73.95,-1.11 111.36,-0.55 37.39,0.55 66.42,2.79 80.93,8.93 14.52,6.14 14.52,16.18 13.4,29.02 -1.12,12.83 -3.35,28.46 -18.42,35.72 -15.07,7.26 -42.98,6.14 -83.18,6.7 -40.19,0.56 -92.65,2.79 -124.47,-2.23 -31.82,-5.03 -42.97,-17.31 -44.37,-31.82 -1.4,-14.52 6.98,-31.25 16.46,-39.07 9.49,-7.81 20.1,-6.7 48.29,-6.7z"/>
   <path class="fil14" d="M9488.7 11900.81c1.67,38.51 -9.5,90.97 -29.59,123.35 -20.1,32.38 -49.12,44.65 -77.03,44.65 -27.91,0 -54.7,-12.27 -71.45,-48.55 -16.75,-36.29 -23.44,-96.57 -20.09,-135.65 3.35,-39.07 16.74,-56.93 36.84,-68.64 20.09,-11.73 46.89,-17.31 69.78,-16.75 22.88,0.55 41.85,7.25 58.6,22.88 16.75,15.63 31.26,40.19 32.94,78.71z"/>
   <path class="fil14" d="M12398.44 12075.39c11.22,28.05 12.34,47.03 -1.75,61.9 -14.08,14.87 -43.37,25.64 -61.79,11.13 -18.42,-14.51 -25.97,-54.31 -22.54,-87.74 3.42,-33.44 17.82,-60.52 25.02,-74.06 7.21,-13.54 7.21,-13.54 17.87,5.03 10.66,18.56 31.98,55.68 43.19,83.74z"/>
   <path class="fil14" d="M12978.44 11526.85c39.64,1.67 99.92,8.37 133.97,16.74 34.05,8.37 41.87,18.41 41.3,27.91 -0.55,9.48 -9.48,18.41 -47.44,24.56 -37.95,6.14 -104.94,9.48 -150.71,5.58 -45.77,-3.91 -70.33,-15.07 -75.91,-27.91 -5.58,-12.84 7.81,-27.35 24,-36.28 16.19,-8.93 35.16,-12.28 74.79,-10.6z"/>
   <path class="fil14" d="M13130.27 11745.65c0.56,29.58 -0.56,78.7 -7.25,107.73 -6.7,29.02 -18.98,37.96 -37.41,44.65 -18.42,6.7 -42.97,11.17 -69.76,10.05 -26.8,-1.11 -55.82,-7.81 -74.8,-29.02 -18.98,-21.22 -27.91,-56.94 -33.49,-91.54 -5.58,-34.61 -7.81,-68.11 -1.68,-89.87 6.15,-21.78 20.66,-31.82 44.1,-36.84 23.45,-5.03 55.82,-5.03 83.17,-5.03 27.35,0 49.67,0 64.19,6.7 14.51,6.7 21.21,20.09 25.68,31.82 4.46,11.72 6.69,21.76 7.25,51.35z"/>
   <path class="fil2" d="M8438.8 9344.2c-66.99,-80.37 -233.93,-193.88 -400.01,-250.63 -166.09,-56.74 -331.31,-56.74 -409.45,-56.74 -78.15,0 -69.22,0 4.46,15.63 73.68,15.63 212.11,46.88 308.12,82.6 96,35.73 149.59,75.91 200.95,129.5 51.34,53.59 100.46,120.57 109.39,145.13 8.93,24.56 -22.32,6.7 -133.95,-31.26 -111.65,-37.96 -303.66,-96 -529.16,-100.47 -225.51,-4.47 -484.5,44.65 -674.28,91.54 -189.79,46.89 -310.35,91.54 -368.4,111.64 -58.06,20.09 -53.59,15.63 73.68,-8.94 127.26,-24.56 377.32,-69.21 569.34,-98.23 192.01,-29.03 325.97,-42.42 457.7,-24.56 131.74,17.86 261.23,66.98 355.01,120.57 93.78,53.58 151.82,111.63 180.85,140.66 29.03,29.02 29.03,29.02 -29.02,15.62 -58.05,-13.39 -174.15,-40.18 -294.72,-58.04 -120.57,-17.87 -245.6,-26.8 -359.47,-17.87 -113.87,8.94 -216.58,35.72 -267.93,49.12 -51.35,13.4 -51.35,13.4 15.63,6.7 66.98,-6.7 200.94,-20.09 343.84,4.47 142.9,24.56 294.71,87.08 413.05,151.82 118.33,64.75 203.18,131.73 212.11,140.66 8.93,8.94 -58.05,-40.19 -160.76,-84.84 -102.7,-44.65 -241.13,-84.84 -404.11,-96 -162.99,-11.17 -350.55,6.69 -504.6,26.78 -154.06,20.1 -274.63,42.43 -243.37,58.06 31.26,15.63 214.34,24.55 337.14,44.65 122.8,20.09 185.32,51.35 234.44,89.31 49.12,37.96 84.84,82.61 55.82,87.08 -29.03,4.46 -122.81,-31.26 -241.14,-60.29 -118.34,-29.03 -261.23,-51.35 -357.24,-58.05 -96,-6.7 -145.13,2.24 -122.8,13.4 22.33,11.16 116.1,24.55 221.04,49.11 104.94,24.57 221.05,60.29 288.03,87.09 66.98,26.79 84.84,44.65 44.65,53.58 -40.19,8.93 -138.43,8.93 -289.2,14.99 -150.77,6.06 -354.07,18.17 -349.6,27.11 4.46,8.93 216.69,14.68 347.37,44.34 130.67,29.66 179.79,83.25 211.05,141.3 31.26,58.05 44.66,120.56 53.59,122.79 8.93,2.24 13.4,-55.81 -2.23,-111.62 -15.63,-55.83 -51.36,-109.41 -4.47,-122.8 46.88,-13.4 176.38,13.39 281.32,29.02 104.93,15.63 185.32,20.09 180.85,-6.7 -4.46,-26.8 -93.77,-84.84 -162.98,-120.57 -69.22,-35.73 -118.34,-49.11 -80.38,-40.18 37.95,8.93 162.99,40.18 270.16,75.91 107.17,35.72 196.48,75.91 203.18,64.74 6.69,-11.16 -69.22,-73.68 -149.59,-133.95 -80.39,-60.29 -165.24,-118.35 -238.91,-171.93 -73.68,-53.59 -136.2,-102.7 -100.47,-125.03 35.72,-22.33 169.69,-17.86 319.28,31.26 149.59,49.12 314.81,142.9 433.14,212.11 118.34,69.22 189.79,113.86 221.05,127.26 31.25,13.4 22.32,-4.46 -13.4,-55.81 -35.72,-51.36 -98.24,-136.21 -165.22,-203.18 -66.99,-66.99 -138.43,-116.11 -158.53,-158.53 -20.09,-42.42 11.17,-78.14 84.85,-51.35 73.68,26.79 189.78,116.1 223.27,138.43 33.49,22.32 -15.63,-22.33 -73.67,-66.98 -58.06,-44.66 -125.04,-89.31 -125.04,-125.04 0,-35.72 66.98,-62.51 104.94,-82.61 37.95,-20.09 46.88,-33.49 67.84,-63.81 20.96,-30.33 53.94,-77.59 -13.04,-157.97z"/>
   <path class="fil2" d="M13696.51 8833.68c63.64,-69.22 136.34,-110.54 227.38,-151.29 91.06,-40.76 200.46,-80.94 267.44,-92.11 66.98,-11.16 91.54,6.69 106.05,14.51 14.51,7.81 18.98,5.58 -16.75,10.05 -35.71,4.46 -111.63,15.63 -186.42,42.42 -74.8,26.8 -148.48,69.21 -204.3,108.29 -55.82,39.07 -93.77,74.79 -106.05,88.19 -12.28,13.4 1.11,4.47 58.04,-29.02 56.94,-33.49 157.42,-91.54 256.77,-118.33 99.36,-26.8 197.6,-22.33 217.69,-17.87 20.1,4.47 -37.95,8.93 -92.66,23.45 -54.7,14.51 -106.05,39.06 -175.27,72.56 -69.21,33.49 -156.29,75.91 -209.88,129.5 -53.58,53.58 -73.67,118.33 -39.07,114.98 34.61,-3.35 123.93,-74.79 231.1,-128.38 107.17,-53.59 232.2,-89.31 311.46,-109.4 79.26,-20.1 112.75,-24.57 104.93,-26.8 -7.81,-2.23 -56.93,-2.23 -139.54,32.38 -82.61,34.61 -198.71,103.82 -266.81,157.41 -68.1,53.59 -88.19,91.54 -39.08,84.84 49.12,-6.7 167.47,-58.05 261.24,-87.08 93.77,-29.02 162.99,-35.72 198.71,-39.07 35.72,-3.35 37.96,-3.35 7.81,5.58 -30.14,8.93 -92.65,26.8 -154.06,49.12 -61.39,22.33 -121.68,49.12 -176.38,80.38 -54.7,31.26 -103.82,66.98 -145.13,108.29 -41.3,41.3 -74.79,88.19 -39.07,78.15 35.72,-10.05 140.66,-77.04 252.3,-120.57 111.63,-43.54 229.97,-63.64 337.14,-74.8 107.17,-11.17 203.18,-13.4 300.3,-20.1 97.12,-6.7 195.37,-17.86 228.85,-22.33 33.5,-4.46 2.25,-2.23 -102.7,7.82 -104.94,10.05 -283.55,27.91 -430.91,58.05 -147.36,30.15 -263.46,72.56 -351.66,123.92 -88.19,51.36 -148.47,111.64 -204.29,162.99 -55.83,51.36 -107.17,93.77 -68.11,83.73 39.08,-10.05 168.58,-72.56 302.54,-114.99 133.97,-42.42 272.4,-64.74 426.46,-80.37 154.06,-15.63 323.74,-24.57 366.16,-16.75 42.43,7.81 -42.42,32.37 -145.13,55.81 -102.7,23.45 -223.27,45.78 -331.55,75.92 -108.29,30.14 -204.3,68.1 -274.64,125.03 -70.33,56.93 -114.98,132.85 -140.1,171.37 -25.11,38.52 -30.7,39.65 1.68,32.95 32.38,-6.7 102.7,-21.23 212.67,-53.05 109.96,-31.82 259.55,-80.94 406.91,-117.78 147.36,-36.84 292.49,-61.4 372.87,-74.79 80.38,-13.4 96,-15.63 37.95,-1.12 -58.05,14.51 -189.78,45.77 -295.83,80.37 -106.06,34.61 -186.44,72.57 -235.56,119.46 -49.12,46.89 -66.97,102.7 -89.3,145.12 -22.33,42.43 -49.13,71.45 -29.03,61.41 20.1,-10.05 87.07,-59.17 165.22,-113.87 78.15,-54.71 167.46,-114.99 262.35,-156.29 94.89,-41.31 195.36,-63.63 294.72,-74.8 99.35,-11.16 197.6,-11.16 243.36,-11.16 45.78,0 39.08,0 -4.46,14.51 -43.54,14.52 -123.92,43.54 -204.3,79.26 -80.37,35.73 -160.75,78.14 -233.32,122.8 -72.56,44.66 -137.31,91.54 -188.66,147.36 -51.36,55.82 -89.31,120.57 -108.29,152.95 -18.98,32.37 -18.98,32.37 33.49,-7.82 52.47,-40.18 157.41,-120.55 308.24,-179.33 150.83,-58.8 347.54,-96 445.9,-114.6 98.36,-18.61 98.36,-18.61 47.02,3.89 -51.33,22.51 -154.01,67.51 -282.52,116.27 -128.49,48.74 -282.82,101.22 -407.99,184.4 -125.16,83.17 -221.17,197.04 -274.75,265.14 -53.59,68.1 -64.75,90.43 -53.59,61.41 11.17,-29.03 44.65,-109.41 81.5,-203.18 36.84,-93.78 77.02,-200.95 126.15,-276.86 49.12,-75.92 107.17,-120.57 136.19,-142.9 29.03,-22.33 29.03,-22.33 -12.65,-15.45 -41.68,6.88 -125.03,20.64 -212.11,76.46 -87.08,55.82 -177.87,153.69 -231.09,211.57 -53.21,57.87 -68.84,75.72 -63.26,56.74 5.58,-18.97 32.38,-74.79 69.22,-155.73 36.84,-80.93 83.73,-186.99 108.29,-239.45 24.56,-52.47 26.79,-51.36 -7.26,-37.4 -34.05,13.95 -104.38,40.74 -203.74,78.7 -99.36,37.96 -227.74,87.07 -307.56,130.61 -79.82,43.54 -111.07,81.5 -99.91,55.83 11.17,-25.68 64.75,-115 104.94,-188.67 40.19,-73.68 66.98,-131.74 130.81,-198.33 63.84,-66.59 164.72,-141.71 193.74,-165.16 29.02,-23.44 -13.8,4.8 -98.84,51.3 -85.05,46.49 -212.31,111.24 -310.56,170.41 -98.24,59.17 -167.45,112.75 -206.52,141.78 -39.08,29.02 -48,33.49 -13.96,-12.1 34.05,-45.59 111.08,-141.23 184.19,-223.1 73.11,-81.86 142.3,-149.94 148.81,-183.06 6.51,-33.12 -49.65,-31.28 -121.65,14.87 -71.99,46.14 -159.81,136.57 -210.42,186.25 -50.6,49.69 -64,58.61 -41.68,21.78 22.33,-36.85 80.38,-119.46 138.8,-201.71 58.42,-82.24 117.22,-164.11 146.61,-205.05 29.4,-40.94 29.4,-40.94 -18.98,-16.74 -48.37,24.19 -145.12,72.57 -222.52,132.49 -77.39,59.91 -135.45,131.36 -143.26,125.78 -7.81,-5.58 34.61,-88.2 78.33,-149.78 43.72,-61.6 88.75,-102.17 86.52,-102.17 -2.23,0 -51.73,40.57 -54.33,11.36 -2.6,-29.21 41.68,-128.2 37.21,-156.11 -4.47,-27.91 -57.68,15.27 -101.03,55.84 -43.35,40.56 -76.84,78.52 -66.31,48.93 10.55,-29.58 65.11,-126.7 128.74,-195.92z"/>
  </g>
 </g>
</svg>
