<?xml version="1.0" encoding="UTF-8"?>
<!DOCTYPE svg PUBLIC "-//W3C//DTD SVG 1.1//EN" "http://www.w3.org/Graphics/SVG/1.1/DTD/svg11.dtd">
<!-- Creator: CorelDRAW 2018 (64-Bit) -->
<svg xmlns="http://www.w3.org/2000/svg" xml:space="preserve" width="210mm" height="297mm" version="1.1" style="shape-rendering:geometricPrecision; text-rendering:geometricPrecision; image-rendering:optimizeQuality; fill-rule:evenodd; clip-rule:evenodd"
viewBox="0 0 21000 29700"
 xmlns:xlink="http://www.w3.org/1999/xlink">
 <defs>
  <style type="text/css">
   <![CDATA[
    .fil17 {fill:#FEFEFE}
    .fil16 {fill:#FEFEFE}
    .fil14 {fill:#1F1B20}
    .fil15 {fill:#1F1B20}
    .fil8 {fill:#2F2D2E}
    .fil9 {fill:#2F2D2E}
    .fil12 {fill:#535C65}
    .fil13 {fill:#535C65}
    .fil20 {fill:#743F47}
    .fil21 {fill:#743F47}
    .fil6 {fill:#7F746E}
    .fil7 {fill:#7F746E}
    .fil10 {fill:#A1A7B3}
    .fil11 {fill:#A1A7B3}
    .fil4 {fill:#B3A697}
    .fil5 {fill:#B3A697}
    .fil1 {fill:#C5C1BD}
    .fil19 {fill:#D09FA2}
    .fil18 {fill:#E0B9BC}
    .fil2 {fill:#E7E6E4}
    .fil3 {fill:#E7E6E4}
    .fil0 {fill:url(#id0)}
   ]]>
  </style>
  <radialGradient id="id0" gradientUnits="userSpaceOnUse" gradientTransform="matrix(-0.0133871 -3.08524 3.08524 -0.0133871 -88655 65182)" cx="10550.22" cy="32200.55" r="9807.22" fx="10550.22" fy="32200.55">
   <stop offset="0" style="stop-opacity:1; stop-color:#FEFEFE"/>
   <stop offset="0.329412" style="stop-opacity:1; stop-color:#F5F0A2"/>
   <stop offset="0.65098" style="stop-opacity:1; stop-color:#CEEBFF"/>
   <stop offset="1" style="stop-opacity:1; stop-color:#95C671"/>
  </radialGradient>
 </defs>
 <g id="Слой_x0020_1">
  <metadata id="CorelCorpID_0Corel-Layer"/>
  <g id="_2871629858144">
   <circle class="fil0" cx="9961.79" cy="12193.82" r="9807.22"/>
   <path class="fil1" d="M3769.55 19761.83c337.29,266.24 760.92,566.17 1266.45,853.37 505.52,287.2 1092.95,561.66 1618.83,761.39 525.88,199.74 990.23,324.75 1434.63,413.57 444.39,88.82 868.84,141.44 1273.41,167.79 404.57,26.36 789.25,26.43 1145.08,8.77 355.83,-17.65 682.8,-53.03 1097.78,-131.68 414.99,-78.64 917.98,-200.53 1333.21,-325.32 415.24,-124.79 742.72,-252.46 1028.08,-377.74 285.37,-125.28 528.64,-248.17 777.69,-388.7 249.05,-140.52 503.88,-298.7 756.46,-472.79 252.59,-174.09 502.92,-364.1 715.95,-538.24 213.04,-174.13 388.79,-332.39 600.28,-545.2 211.49,-212.8 458.74,-480.14 688.65,-757.66 229.92,-277.51 442.52,-565.18 687.87,-968.81 245.36,-403.63 523.49,-923.2 752.46,-1463.79 228.98,-540.59 408.81,-1102.18 537.72,-1739.51 128.92,-637.33 206.91,-1350.4 245.91,-1706.93 39,-356.53 39,-356.53 -216.76,-603.47 -255.76,-246.94 -767.28,-740.82 -1146.52,-1075.95 -379.23,-335.14 -626.17,-511.53 -902.52,-729.07 -276.34,-217.55 -582.08,-476.26 -917.22,-687.92 -335.14,-211.67 -699.67,-376.3 -911.34,-499.77 -211.67,-123.47 -270.46,-205.79 -246.95,-352.78 23.52,-146.99 129.36,-358.65 194.03,-799.62 64.68,-440.98 88.2,-1111.26 111.72,-1669.82 23.52,-558.57 47.03,-1005.42 -11.77,-1293.52 -58.79,-288.1 -199.9,-417.46 -446.85,-464.49 -246.94,-47.04 -599.72,-11.77 -899.58,105.83 -299.86,117.59 -546.81,317.5 -776.12,517.41 -229.3,199.91 -440.96,399.81 -652.63,593.84 -211.67,194.03 -423.33,382.17 -623.24,458.61 -199.91,76.43 -388.05,41.16 -535.04,17.64 -146.99,-23.52 -252.83,-35.28 -382.18,-41.16 -129.35,-5.88 -282.23,-5.88 -352.79,41.16 -70.55,47.03 -58.79,141.11 -64.67,199.91 -5.88,58.79 -29.39,82.31 -76.43,111.71 -47.04,29.4 -117.59,64.67 -176.39,111.71 -58.8,47.04 -105.83,105.83 -235.18,135.23 -129.36,29.4 -341.02,29.4 -488.01,47.04 -147,17.64 -229.31,52.92 -358.66,70.56 -129.36,17.64 -305.74,17.64 -435.09,5.88 -129.36,-11.76 -211.67,-35.28 -293.98,-76.44 -82.32,-41.16 -164.64,-99.95 -264.59,-152.87 -99.95,-52.92 -217.55,-99.95 -393.94,-152.87 -176.39,-52.92 -411.57,-111.71 -552.68,-129.35 -141.12,-17.64 -188.15,5.88 -341.02,17.64 -152.87,11.76 -411.58,11.76 -623.24,-17.64 -211.67,-29.4 -376.3,-88.19 -599.72,-241.06 -223.43,-152.88 -505.65,-399.82 -770.23,-576.21 -264.59,-176.39 -511.53,-282.23 -770.23,-341.02 -258.71,-58.8 -529.18,-70.55 -723.2,0.01 -194.03,70.55 -311.63,223.42 -358.66,488.01 -47.04,264.58 -23.52,640.87 58.8,1140.64 82.31,499.77 223.42,1123.01 305.74,1516.95 82.31,393.93 105.83,558.56 82.31,670.28 -23.52,111.71 -94.07,170.5 -88.19,258.7 5.88,88.19 88.19,205.78 70.56,264.58 -17.64,58.79 -135.24,58.79 -194.03,105.83 -58.8,47.04 -58.8,141.11 -94.08,194.03 -35.28,52.92 -105.83,64.67 -117.59,94.07 -11.76,29.4 35.27,76.44 5.88,111.72 -29.4,35.28 -135.24,58.79 -164.63,94.07 -29.4,35.28 17.63,82.31 0,117.59 -17.64,35.28 -99.96,58.8 -117.59,82.32 -17.64,23.52 29.39,47.03 -11.76,94.07 -41.16,47.04 -170.51,117.59 -205.79,170.51 -35.28,52.92 23.52,88.19 -17.64,129.35 -41.16,41.16 -182.27,88.2 -299.86,147 -117.59,58.79 -211.67,129.35 -199.91,158.75 11.76,29.39 129.36,17.63 211.68,11.75 82.31,-5.88 129.34,-5.88 52.91,29.4 -76.44,35.28 -276.34,105.83 -440.97,199.91 -164.63,94.07 -293.99,211.67 -270.47,241.07 23.52,29.39 199.91,-29.4 305.75,-58.8 105.83,-29.4 141.1,-29.4 82.31,17.64 -58.8,47.03 -211.67,141.11 -305.74,252.82 -94.08,111.71 -129.36,241.07 -94.08,270.47 35.28,29.39 141.11,-41.16 123.48,5.88 -17.64,47.03 -158.76,211.66 -229.31,358.65 -70.56,146.99 -70.56,276.35 -29.4,288.11 41.16,11.76 123.47,-94.08 146.99,-94.08 23.52,0 -11.76,105.84 -76.43,235.19 -64.68,129.35 -158.76,282.22 -147,329.26 11.76,47.03 129.36,-11.76 147,35.28 17.63,47.03 -64.68,199.9 -105.84,388.05 -41.16,188.15 -41.16,411.57 -17.64,429.21 23.52,17.64 70.55,-170.51 88.19,-141.11 17.64,29.4 5.89,276.34 52.93,370.42 47.03,94.07 152.87,35.28 164.63,188.15 11.75,152.87 -70.56,517.4 -111.72,658.51 -41.16,141.11 -41.16,58.8 5.88,176.39 47.04,117.59 141.11,435.09 170.51,699.67 29.4,264.59 -5.88,476.25 47.04,893.7 52.91,417.46 194.03,1040.71 264.59,1352.33 70.55,311.62 70.55,311.62 88.19,135.23 17.64,-176.39 52.91,-529.17 146.99,-829.03 94.07,-299.86 246.94,-546.81 323.38,-670.28 76.43,-123.47 76.43,-123.47 35.28,5.88 -41.16,129.35 -123.48,388.06 -188.15,676.16 -64.68,288.1 -111.72,605.6 -110.64,886.61 1.07,281.02 50.25,525.56 74.85,647.82 24.59,122.27 24.59,122.27 150.07,238.54 125.48,116.27 376.44,348.82 713.74,615.06z"/>
   <path class="fil2" d="M4188.01 10835.65c-111.71,41.15 -229.31,170.51 -293.98,258.71 -64.68,88.19 -76.44,135.22 -111.72,223.42 -35.28,88.19 -94.07,217.55 -117.59,329.26 -23.52,111.71 -11.76,205.79 -70.55,305.74 -58.8,99.95 -188.16,205.79 -223.43,329.26 -35.28,123.47 23.51,264.58 -41.16,364.54 -64.68,99.95 -252.82,158.74 -311.61,229.3 -58.8,70.55 11.75,152.87 129.35,235.19 117.59,82.31 282.21,164.62 305.73,211.66 23.52,47.04 -94.07,58.8 -199.9,64.68 -105.84,5.88 -199.91,5.88 -141.11,70.56 58.79,64.67 270.45,194.02 405.69,276.34 135.23,82.31 194.02,117.59 135.23,146.99 -58.8,29.4 -235.18,52.91 -288.1,70.55 -52.92,17.64 17.64,29.4 70.56,64.68 52.91,35.28 88.19,94.07 70.55,158.75 -17.64,64.67 -88.19,135.23 -88.19,194.03 0,58.79 70.55,105.83 -29.4,188.15 -99.95,82.31 -370.42,199.9 -476.25,305.73 -105.83,105.84 -47.04,199.91 -58.8,329.26 -11.76,129.36 -94.07,293.98 -52.91,323.38 41.15,29.4 205.78,-76.44 258.7,-29.4 52.91,47.04 -5.88,246.95 70.56,252.83 76.43,5.88 288.09,-182.27 314.48,-70.81 26.39,111.46 -132.5,522.54 -97.22,634.25 35.28,111.71 264.72,-75.93 260.88,-60 -3.85,15.93 -241,235.43 -317.43,599.97 -76.44,364.54 7.84,874.1 55.86,1181.8 48.01,307.7 59.77,413.54 153.85,378.26 94.07,-35.28 270.45,-211.66 423.32,-446.85 152.87,-235.18 282.23,-529.17 282.23,-446.86 0,82.32 -129.36,540.94 -170.51,876.08 -41.16,335.14 5.87,546.8 76.43,752.59 70.56,205.79 164.63,405.69 258.71,399.81 94.07,-5.88 188.15,-217.54 252.83,-182.27 64.67,35.28 99.94,317.5 199.9,376.29 99.95,58.8 264.58,-105.82 346.9,-76.43 82.31,29.4 82.31,252.83 135.23,293.98 52.91,41.16 158.75,-99.95 258.7,-35.28 99.95,64.68 194.03,335.15 287.57,577.44 93.53,242.3 186.52,456.44 321.76,462.32 135.23,5.88 312.69,-196.5 419.07,-303.57 106.37,-107.06 141.65,-118.82 200.45,4.65 58.79,123.47 141.11,382.18 229.3,446.85 88.19,64.68 182.27,-64.68 240.15,-11.64 57.88,53.04 79.58,288.46 173.66,323.74 94.07,35.28 260.52,-129.59 381.53,-100.19 121.01,29.41 196.57,253.09 446.59,392.89 250.01,139.81 674.48,195.74 1260.53,203.22 586.04,7.48 1333.66,-33.49 1874.28,-92.47 540.62,-58.98 874.23,-135.96 1096.43,-190.18 222.21,-54.22 332.99,-85.68 459.58,-190.03 126.59,-104.34 268.98,-281.57 416.61,-505.42 147.63,-223.85 300.5,-494.32 394.57,-758.9 94.08,-264.58 129.36,-523.29 235.19,-617.36 105.84,-94.07 282.22,-23.52 388.05,-23.52 105.84,0 141.12,-70.55 205.79,-5.88 64.68,64.68 158.76,264.58 223.43,223.42 64.68,-41.15 99.95,-323.37 176.38,-329.25 76.44,-5.88 194.04,264.58 317.51,246.94 123.47,-17.64 252.83,-323.38 311.62,-493.89 58.8,-170.51 47.04,-205.78 41.16,-341.02 -5.88,-135.23 -5.88,-370.41 70.55,-440.97 76.44,-70.55 229.31,23.52 317.5,-29.4 88.2,-52.91 111.72,-252.82 170.51,-276.34 58.8,-23.52 152.88,129.35 217.55,23.51 64.68,-105.83 99.95,-470.36 205.78,-464.48 105.84,5.88 282.23,382.17 370.42,352.77 88.2,-29.39 88.2,-464.49 129.35,-834.91 41.16,-370.41 123.48,-676.15 235.19,-776.11 111.71,-99.95 252.83,5.89 282.22,-58.79 29.4,-64.67 -52.91,-299.86 -170.51,-505.65 -117.59,-205.78 -270.46,-382.17 -423.33,-558.56 -152.87,-176.39 -305.74,-352.78 -364.54,-452.73 -58.79,-99.96 -23.52,-123.47 258.7,-82.31 282.23,41.15 811.39,146.99 987.78,70.56 176.39,-76.44 0.01,-335.15 -199.9,-523.29 -199.91,-188.15 -423.33,-305.75 -429.21,-423.34 -5.88,-117.59 205.78,-235.19 270.45,-358.66 64.68,-123.47 -17.63,-252.83 -158.75,-270.46 -141.11,-17.64 -341.01,76.43 -335.13,5.88 5.88,-70.56 217.54,-305.74 305.73,-517.41 88.2,-211.67 52.93,-399.81 -11.75,-540.92 -64.67,-141.12 -158.75,-235.19 -246.95,-382.18 -88.19,-147 -170.5,-346.9 -370.41,-658.52 -199.91,-311.62 -517.41,-734.96 -770.24,-1011.3 -252.82,-276.34 -440.96,-405.69 -505.64,-393.93 -64.67,11.76 -5.88,164.63 88.19,411.58 94.08,246.94 223.43,587.95 241.07,887.81 17.64,299.86 -76.44,558.57 -188.15,687.92 -111.71,129.35 -241.07,129.35 -264.59,182.27 -23.51,52.91 58.8,158.75 -41.15,241.07 -99.95,82.31 -382.18,141.1 -417.46,229.3 -35.27,88.19 176.39,205.79 176.39,293.99 0,88.19 -211.66,146.98 -158.75,217.54 52.92,70.55 370.42,152.87 358.66,252.82 -11.76,99.95 -352.77,217.55 -664.39,288.11 -311.62,70.55 -593.85,94.07 -676.17,29.4 -82.31,-64.68 35.29,-217.55 -47.03,-270.46 -82.31,-52.92 -364.54,-5.89 -599.73,-0.01 -235.18,5.88 -423.33,-29.4 -440.97,-94.07 -17.64,-64.68 135.24,-158.76 88.2,-211.67 -47.04,-52.92 -293.98,-64.68 -370.42,-105.83 -76.44,-41.16 17.64,-111.72 11.76,-164.63 -5.88,-52.92 -111.72,-88.2 -158.76,-141.11 -47.03,-52.92 -35.27,-123.48 -117.59,-188.15 -82.31,-64.68 -258.69,-123.47 -346.89,-182.27 -88.19,-58.8 -88.19,-117.59 -182.27,-188.14 -94.07,-70.56 -282.22,-152.88 -399.82,-99.96 -117.59,52.92 -164.62,241.06 -235.18,246.94 -70.55,5.88 -164.63,-170.51 -182.27,-411.57 -17.63,-241.07 41.16,-546.81 11.76,-670.28 -29.39,-123.47 -146.99,-64.68 -223.43,-146.99 -76.43,-82.32 -111.71,-305.74 -58.8,-493.89 52.92,-188.15 194.04,-341.02 241.07,-564.44 47.04,-223.43 0.01,-517.41 -170.5,-876.06 -170.51,-358.66 -464.5,-782 -640.89,-1023.06 -176.39,-241.07 -235.18,-299.86 -288.1,-229.3 -52.92,70.55 -99.95,270.45 -199.9,476.24 -99.96,205.79 -252.83,417.45 -311.62,582.08 -58.8,164.63 -23.53,282.23 -94.08,411.58 -70.56,129.35 -246.94,270.46 -329.25,435.09 -82.32,164.63 -70.56,352.78 5.88,546.81 76.43,194.03 217.54,393.93 226.97,648.84 9.43,254.91 -112.81,564.81 -150.29,836.01 -37.48,271.19 9.8,503.68 -87.82,548.63 -97.63,44.95 -340.17,-97.62 -520.23,-139.51 -180.07,-41.89 -297.67,16.9 -438.78,75.7 -141.11,58.8 -305.74,117.59 -458.61,146.99 -152.87,29.4 -293.98,29.4 -382.17,70.56 -88.2,41.15 -123.48,123.47 -176.39,199.91 -52.92,76.43 -123.48,146.98 -182.27,258.7 -58.8,111.71 -105.83,264.58 -258.7,346.9 -152.87,82.31 -411.58,94.07 -505.65,70.55 -94.08,-23.52 -23.52,-82.31 -41.16,-117.59 -17.64,-35.28 -123.48,-47.04 -158.75,23.52 -35.28,70.55 0,223.42 117.6,305.74 117.59,82.31 317.49,94.07 382.17,164.63 64.67,70.55 -5.88,199.91 -129.35,288.11 -123.48,88.19 -299.87,135.22 -535.05,23.51 -235.19,-111.71 -529.17,-382.18 -687.92,-593.84 -158.75,-211.67 -182.27,-364.54 -293.98,-464.49 -111.72,-99.96 -311.62,-146.99 -417.45,-258.7 -105.84,-111.72 -117.6,-288.11 -117.6,-482.14 0,-194.03 11.76,-405.69 70.56,-552.68 58.79,-146.99 164.63,-229.31 229.31,-317.5 64.67,-88.2 88.19,-182.27 47.04,-252.83 -41.16,-70.56 -147,-117.59 -258.71,-76.43z"/>
   <path class="fil1" d="M3859.85 14675.32c140.02,29.11 281.13,-0.28 451.64,-12.04 170.51,-11.76 370.41,-5.88 440.97,44.1 70.56,49.97 11.76,144.05 -26.45,199.9 -38.22,55.86 -55.86,73.5 -8.82,102.9 47.03,29.4 158.75,70.55 299.86,58.79 141.11,-11.76 311.62,-76.43 476.25,-126.41 164.63,-49.98 323.38,-85.25 464.49,-126.41 141.11,-41.16 264.59,-88.19 217.55,-117.59 -47.04,-29.4 -264.58,-41.16 -470.37,-32.34 -205.79,8.82 -399.82,38.21 -549.75,64.67 -149.93,26.46 -255.77,49.98 -314.56,20.59 -58.8,-29.4 -70.56,-111.72 -161.69,-161.69 -91.14,-49.98 -261.65,-67.62 -481.05,-82.03 -219.4,-14.42 -487.68,-25.62 -552.35,12.6 -64.68,38.22 74.25,125.84 214.28,154.96z"/>
   <path class="fil1" d="M6566.33 14760.29c8.82,-32.34 132.3,-91.13 164.64,-82.31 32.33,8.82 -26.46,85.25 -14.7,114.65 11.75,29.4 94.07,11.76 185.2,-32.34 91.13,-44.1 191.09,-114.65 196.97,-88.19 5.88,26.45 -82.32,149.93 -94.07,214.6 -11.76,64.68 52.91,70.56 117.59,61.74 64.68,-8.82 129.35,-32.33 132.29,-5.88 2.94,26.46 -55.85,102.9 -14.69,97.02 41.15,-5.88 182.26,-94.08 252.82,-108.78 70.55,-14.69 70.55,44.1 5.88,102.9 -64.68,58.8 -194.04,117.59 -249.89,120.53 -55.86,2.94 -38.22,-49.97 -99.95,-67.61 -61.74,-17.64 -202.85,-0.01 -235.19,-14.71 -32.34,-14.7 44.1,-61.73 -2.94,-70.55 -47.04,-8.82 -217.55,20.58 -261.64,0 -44.1,-20.58 38.21,-91.13 79.37,-132.29 41.16,-41.16 41.16,-52.92 -11.75,-61.74 -52.92,-8.82 -158.76,-14.7 -149.94,-47.04z"/>
   <path class="fil3" d="M4188.01 10835.65c-111.71,41.15 -229.31,170.51 -293.98,258.71 -64.68,88.19 -76.44,135.22 -111.72,223.42 -35.28,88.19 -94.07,217.55 -117.59,329.26 -23.52,111.71 -11.76,205.79 -70.55,305.74 -58.8,99.95 -188.16,205.79 -223.43,329.26 -35.28,123.47 23.51,264.58 -41.16,364.54 -64.68,99.95 -252.82,158.74 -311.61,229.3 -58.8,70.55 11.75,152.87 129.35,235.19 117.59,82.31 282.21,164.62 305.73,211.66 23.52,47.04 -94.07,58.8 -199.9,64.68 -105.84,5.88 -199.91,5.88 -141.11,70.56 58.79,64.67 270.45,194.02 405.69,276.34 135.23,82.31 194.02,117.59 135.23,146.99 -58.8,29.4 -235.18,52.91 -288.1,70.55 -52.92,17.64 17.64,29.4 70.56,64.68 52.91,35.28 88.19,94.07 70.55,158.75 -17.64,64.67 -88.19,135.23 -88.19,194.03 0,58.79 70.55,105.83 -29.4,188.15 -99.95,82.31 -370.42,199.9 -476.25,305.73 -105.83,105.84 -47.04,199.91 -58.8,329.26 -11.76,129.36 -94.07,293.98 -52.91,323.38 41.15,29.4 205.78,-76.44 258.7,-29.4 52.91,47.04 -5.88,246.95 70.56,252.83 76.43,5.88 288.09,-182.27 314.48,-70.81 26.39,111.46 -132.5,522.54 -97.22,634.25 35.28,111.71 264.72,-75.93 260.88,-60 -3.85,15.93 -241,235.43 -317.43,599.97 -76.44,364.54 7.84,874.1 55.86,1181.8 48.01,307.7 59.77,413.54 153.85,378.26 94.07,-35.28 270.45,-211.66 423.32,-446.85 152.87,-235.18 282.23,-529.17 282.23,-446.86 0,82.32 -129.36,540.94 -170.51,876.08 -41.16,335.14 5.87,546.8 76.43,752.59 70.56,205.79 164.63,405.69 258.71,399.81 94.07,-5.88 188.15,-217.54 252.83,-182.27 64.67,35.28 99.94,317.5 199.9,376.29 99.95,58.8 264.58,-105.82 346.9,-76.43 82.31,29.4 82.31,252.83 135.23,293.98 52.91,41.16 158.75,-99.95 258.7,-35.28 99.95,64.68 194.03,335.15 287.57,577.44 93.53,242.3 186.52,456.44 321.76,462.32 135.23,5.88 312.69,-196.5 419.07,-303.57 106.37,-107.06 141.65,-118.82 200.45,4.65 58.79,123.47 141.11,382.18 229.3,446.85 88.19,64.68 182.27,-64.68 240.15,-11.64 57.88,53.04 79.58,288.46 173.66,323.74 94.07,35.28 260.52,-129.59 381.53,-100.19 121.01,29.41 196.57,253.09 446.59,392.89 250.01,139.81 674.48,195.74 1260.53,203.22 586.04,7.48 1333.66,-33.49 1874.28,-92.47 540.62,-58.98 874.23,-135.96 1096.43,-190.18 222.21,-54.22 332.99,-85.68 459.58,-190.03 126.59,-104.34 268.98,-281.57 416.61,-505.42 147.63,-223.85 300.5,-494.32 394.57,-758.9 94.08,-264.58 129.36,-523.29 235.19,-617.36 105.84,-94.07 282.22,-23.52 388.05,-23.52 105.84,0 141.12,-70.55 205.79,-5.88 64.68,64.68 158.76,264.58 223.43,223.42 64.68,-41.15 99.95,-323.37 176.38,-329.25 76.44,-5.88 194.04,264.58 317.51,246.94 123.47,-17.64 252.83,-323.38 311.62,-493.89 58.8,-170.51 47.04,-205.78 41.16,-341.02 -5.88,-135.23 -5.88,-370.41 70.55,-440.97 76.44,-70.55 229.31,23.52 317.5,-29.4 88.2,-52.91 111.72,-252.82 170.51,-276.34 58.8,-23.52 152.88,129.35 217.55,23.51 64.68,-105.83 99.95,-470.36 205.78,-464.48 105.84,5.88 282.23,382.17 370.42,352.77 88.2,-29.39 88.2,-464.49 129.35,-834.91 41.16,-370.41 123.48,-676.15 235.19,-776.11 111.71,-99.95 252.83,5.89 282.22,-58.79 29.4,-64.67 -52.91,-299.86 -170.51,-505.65 -117.59,-205.78 -270.46,-382.17 -423.33,-558.56 -152.87,-176.39 -305.74,-352.78 -364.54,-452.73 -58.79,-99.96 -23.52,-123.47 258.7,-82.31 282.23,41.15 811.39,146.99 987.78,70.56 176.39,-76.44 0.01,-335.15 -199.9,-523.29 -199.91,-188.15 -423.33,-305.75 -429.21,-423.34 -5.88,-117.59 205.78,-235.19 270.45,-358.66 64.68,-123.47 -17.63,-252.83 -158.75,-270.46 -141.11,-17.64 -341.01,76.43 -335.13,5.88 5.88,-70.56 217.54,-305.74 305.73,-517.41 88.2,-211.67 52.93,-399.81 -11.75,-540.92 -64.67,-141.12 -158.75,-235.19 -246.95,-382.18 -88.19,-147 -170.5,-346.9 -370.41,-658.52 -199.91,-311.62 -517.41,-734.96 -770.24,-1011.3 -252.82,-276.34 -440.96,-405.69 -505.64,-393.93 -64.67,11.76 -5.88,164.63 88.19,411.58 94.08,246.94 223.43,587.95 241.07,887.81 17.64,299.86 -76.44,558.57 -188.15,687.92 -111.71,129.35 -241.07,129.35 -264.59,182.27 -23.51,52.91 58.8,158.75 -41.15,241.07 -99.95,82.31 -382.18,141.1 -417.46,229.3 -35.27,88.19 176.39,205.79 176.39,293.99 0,88.19 -211.66,146.98 -158.75,217.54 52.92,70.55 370.42,152.87 358.66,252.82 -11.76,99.95 -352.77,217.55 -664.39,288.11 -311.62,70.55 -593.85,94.07 -676.17,29.4 -82.31,-64.68 35.29,-217.55 -47.03,-270.46 -82.31,-52.92 -364.54,-5.89 -599.73,-0.01 -235.18,5.88 -423.33,-29.4 -440.97,-94.07 -17.64,-64.68 135.24,-158.76 88.2,-211.67 -47.04,-52.92 -293.98,-64.68 -370.42,-105.83 -76.44,-41.16 17.64,-111.72 11.76,-164.63 -5.88,-52.92 -111.72,-88.2 -158.76,-141.11 -47.03,-52.92 -35.27,-123.48 -117.59,-188.15 -82.31,-64.68 -258.69,-123.47 -346.89,-182.27 -88.19,-58.8 -88.19,-117.59 -182.27,-188.14 -94.07,-70.56 -282.22,-152.88 -399.82,-99.96 -117.59,52.92 -164.62,241.06 -235.18,246.94 -70.55,5.88 -164.63,-170.51 -182.27,-411.57 -17.63,-241.07 41.16,-546.81 11.76,-670.28 -29.39,-123.47 -146.99,-64.68 -223.43,-146.99 -76.43,-82.32 -111.71,-305.74 -58.8,-493.89 52.92,-188.15 194.04,-341.02 241.07,-564.44 47.04,-223.43 0.01,-517.41 -170.5,-876.06 -170.51,-358.66 -464.5,-782 -640.89,-1023.06 -176.39,-241.07 -235.18,-299.86 -288.1,-229.3 -52.92,70.55 -99.95,270.45 -199.9,476.24 -99.96,205.79 -252.83,417.45 -311.62,582.08 -58.8,164.63 -23.53,282.23 -94.08,411.58 -70.56,129.35 -246.94,270.46 -329.25,435.09 -82.32,164.63 -70.56,352.78 5.88,546.81 76.43,194.03 217.54,393.93 225.38,649.21 7.84,255.27 -117.59,565.91 -164.62,839.31 -47.03,273.4 -15.67,509.56 -111.7,554.15 -96.04,44.58 -319.47,-102.4 -489.98,-146.49 -170.52,-44.1 -288.12,14.69 -429.23,73.49 -141.11,58.8 -305.74,117.59 -458.61,146.99 -152.87,29.4 -293.98,29.4 -382.17,70.56 -88.2,41.15 -123.48,123.47 -176.39,199.91 -52.92,76.43 -123.48,146.98 -182.27,258.7 -58.8,111.71 -105.83,264.58 -258.7,346.9 -152.87,82.31 -411.58,94.07 -505.65,70.55 -94.08,-23.52 -23.52,-82.31 -41.16,-117.59 -17.64,-35.28 -123.48,-47.04 -158.75,23.52 -35.28,70.55 0,223.42 117.6,305.74 117.59,82.31 317.49,94.07 382.17,164.63 64.67,70.55 -5.88,199.91 -129.35,288.11 -123.48,88.19 -299.87,135.22 -535.05,23.51 -235.19,-111.71 -529.17,-382.18 -687.92,-593.84 -158.75,-211.67 -182.27,-364.54 -293.98,-464.49 -111.72,-99.96 -311.62,-146.99 -417.45,-258.7 -105.84,-111.72 -117.6,-288.11 -117.6,-482.14 0,-194.03 11.76,-405.69 70.56,-552.68 58.79,-146.99 164.63,-229.31 229.31,-317.5 64.67,-88.2 88.19,-182.27 47.04,-252.83 -41.16,-70.56 -147,-117.59 -258.71,-76.43z"/>
   <path class="fil1" d="M3859.85 14675.32c140.02,29.11 281.13,-0.28 451.64,-12.04 170.51,-11.76 370.41,-5.88 440.97,44.1 70.56,49.97 11.76,144.05 -26.45,199.9 -38.22,55.86 -55.86,73.5 -8.82,102.9 47.03,29.4 158.75,70.55 299.86,58.79 141.11,-11.76 311.62,-76.43 476.25,-126.41 164.63,-49.98 323.38,-85.25 464.49,-126.41 141.11,-41.16 264.59,-88.19 217.55,-117.59 -47.04,-29.4 -264.58,-41.16 -470.37,-32.34 -205.79,8.82 -399.82,38.21 -549.75,64.67 -149.93,26.46 -255.77,49.98 -314.56,20.59 -58.8,-29.4 -70.56,-111.72 -161.69,-161.69 -91.14,-49.98 -261.65,-67.62 -481.05,-82.03 -219.4,-14.42 -487.68,-25.62 -552.35,12.6 -64.68,38.22 74.25,125.84 214.28,154.96z"/>
   <path class="fil1" d="M6566.33 14760.29c8.82,-32.34 132.3,-91.13 164.64,-82.31 32.33,8.82 -26.46,85.25 -14.7,114.65 11.75,29.4 94.07,11.76 185.2,-32.34 91.13,-44.1 191.09,-114.65 196.97,-88.19 5.88,26.45 -82.32,149.93 -94.07,214.6 -11.76,64.68 52.91,70.56 117.59,61.74 64.68,-8.82 129.35,-32.33 132.29,-5.88 2.94,26.46 -55.85,102.9 -14.69,97.02 41.15,-5.88 182.26,-94.08 252.82,-108.78 70.55,-14.69 70.55,44.1 5.88,102.9 -64.68,58.8 -194.04,117.59 -249.89,120.53 -55.86,2.94 -38.22,-49.97 -99.95,-67.61 -61.74,-17.64 -202.85,-0.01 -235.19,-14.71 -32.34,-14.7 44.1,-61.73 -2.94,-70.55 -47.04,-8.82 -217.55,20.58 -261.64,0 -44.1,-20.58 38.21,-91.13 79.37,-132.29 41.16,-41.16 41.16,-52.92 -11.75,-61.74 -52.92,-8.82 -158.76,-14.7 -149.94,-47.04z"/>
   <path class="fil1" d="M13969.83 13355.65c-55.85,48.51 -71.79,142.28 -62.12,196.52 9.67,54.24 44.94,68.94 91.98,85.11 47.04,16.17 105.83,33.8 163.16,45.56 57.33,11.76 113.18,17.64 188.15,1.47 74.97,-16.17 169.04,-54.38 268.99,-105.83 99.96,-51.45 205.8,-116.12 305.19,-178.36 99.39,-62.24 192.34,-122.03 252.84,-166.86 60.5,-44.83 88.56,-74.7 6.8,-93.3 -81.75,-18.61 -273.31,-25.97 -452.88,2.7 -179.56,28.66 -347.13,93.33 -478.8,127.29 -131.67,33.96 -227.45,37.19 -283.31,85.7z"/>
   <path class="fil1" d="M13673.37 13931.26c179.33,13.23 432.16,30.87 587.97,39.69 155.81,8.82 214.6,8.82 283.69,8.82 69.09,0 148.46,0 266.05,10.29 117.6,10.29 273.41,30.86 435.1,38.21 161.69,7.35 329.26,1.47 327.79,19.11 -1.47,17.64 -171.98,58.8 -385.12,89.67 -213.13,30.87 -468.9,51.44 -668.81,54.38 -199.9,2.94 -343.96,-11.76 -540.93,-63.2 -196.96,-51.45 -446.85,-139.65 -518.88,-179.33 -72.02,-39.69 33.82,-30.87 213.14,-17.64z"/>
   <path class="fil1" d="M7864.27 15041.09c82.31,-29.4 170.51,-29.4 226.37,-52.92 55.85,-23.52 79.36,-70.56 173.44,-123.48 94.07,-52.91 258.7,-111.71 393.94,-182.26 135.23,-70.56 241.06,-152.87 335.14,-217.55 94.07,-64.68 176.39,-111.71 170.51,-117.59 -5.88,-5.88 -99.96,29.39 -188.15,8.82 -88.2,-20.58 -170.51,-97.02 -146.99,-132.29 23.51,-35.28 152.87,-29.4 264.58,-29.4 111.71,0 205.79,-5.88 282.23,-41.16 76.43,-35.28 135.22,-99.95 173.44,-164.63 38.22,-64.68 55.86,-129.35 67.62,-194.03 11.76,-64.68 17.64,-129.35 -11.76,-196.96 -29.4,-67.62 -94.07,-138.18 -179.32,-202.85 -85.26,-64.68 -191.1,-123.47 -252.83,-191.09 -61.74,-67.62 -79.38,-144.05 -85.26,-217.55 -5.88,-73.5 0,-144.05 20.58,-208.72 20.58,-64.68 55.85,-123.48 82.31,-182.27 26.46,-58.8 44.1,-117.59 58.8,-179.33 14.7,-61.74 26.46,-126.41 52.92,-132.29 26.46,-5.88 67.61,47.03 105.83,44.09 38.22,-2.94 73.49,-61.73 108.77,-88.19 35.28,-26.46 70.56,-20.58 91.14,47.04 20.58,67.61 26.46,196.96 64.68,244 38.21,47.03 108.77,11.76 162.42,-58.07 53.64,-69.83 90.37,-174.21 108.74,-226.4 18.37,-52.19 18.37,-52.19 32.34,-2.94 13.97,49.25 41.91,147.75 91.16,197 49.25,49.25 119.8,49.25 202.12,40.43 82.31,-8.82 176.39,-26.45 220.49,-82.31 44.09,-55.86 38.21,-149.93 49.97,-223.43 11.76,-73.5 41.16,-126.41 58.8,-188.14 17.64,-61.74 23.52,-132.3 29.4,-179.33 5.88,-47.04 11.75,-70.56 35.27,-38.22 23.52,32.33 64.68,120.53 91.14,217.54 26.46,97.01 38.21,202.85 55.85,296.93 17.64,94.07 41.16,176.38 79.38,273.4 38.22,97.01 91.13,208.73 105.83,320.44 14.7,111.71 -8.82,223.43 -108.78,349.84 -99.95,126.41 -276.33,267.52 -364.53,355.72 -88.19,88.19 -88.19,123.46 -85.25,167.56 2.94,44.1 8.82,97.01 73.49,135.23 64.68,38.22 188.15,61.74 279.28,82.32 91.14,20.58 149.93,38.22 179.33,94.08 29.4,55.85 29.4,149.93 -44.1,170.51 -73.49,20.57 -220.48,-32.34 -208.72,0 11.76,32.33 182.27,149.93 335.14,238.13 152.87,88.19 288.1,146.98 382.17,199.9 94.08,52.92 146.99,99.95 179.33,99.95 32.34,0 44.1,-47.03 73.5,-64.67 29.4,-17.64 76.43,-5.89 138.17,26.45 61.74,32.34 138.17,85.25 214.6,129.35 76.44,44.1 152.88,79.38 188.15,76.44 35.28,-2.94 29.41,-44.09 111.72,-49.97 82.32,-5.88 252.82,23.51 332.19,2.93 79.38,-20.58 67.63,-91.13 20.59,-149.93 -47.04,-58.8 -129.35,-105.83 -64.68,-73.49 64.68,32.33 276.34,144.05 408.63,208.72 132.3,64.68 185.21,82.32 152.87,52.92 -32.33,-29.4 -149.93,-105.83 -238.12,-176.39 -88.19,-70.56 -146.99,-135.23 -79.37,-123.47 67.62,11.76 261.64,99.95 382.17,149.93 120.54,49.98 167.57,61.74 144.05,41.16 -23.51,-20.58 -117.59,-73.49 -202.85,-129.35 -85.25,-55.86 -161.68,-114.65 -114.65,-102.89 47.04,11.75 217.55,94.07 299.86,170.51 82.32,76.43 76.44,146.98 55.86,164.62 -20.58,17.64 -55.85,-17.64 -73.49,-14.7 -17.64,2.94 -17.64,44.1 -47.04,61.74 -29.4,17.64 -88.19,11.76 -105.83,35.28 -17.64,23.52 5.87,76.43 -44.11,82.31 -49.97,5.88 -173.44,-35.27 -267.52,-73.49 -94.07,-38.22 -158.74,-73.5 -141.11,-52.92 17.64,20.58 117.6,97.01 173.45,152.87 55.86,55.86 67.62,91.13 35.28,123.47 -32.34,32.34 -108.77,61.74 -164.63,88.2 -55.86,26.46 -91.13,49.97 -126.41,91.13 -35.28,41.16 -70.55,99.95 -105.83,144.05 -35.28,44.1 -70.56,73.5 -70.56,91.14 0,17.64 35.28,23.51 117.59,20.57 82.32,-2.94 211.67,-14.69 326.32,-20.57 114.65,-5.88 214.61,-5.88 191.09,35.27 -23.52,41.16 -170.51,123.48 -299.86,185.21 -129.35,61.74 -241.07,102.89 -358.66,170.51 -117.59,67.62 -241.07,161.69 -282.23,226.37 -41.15,64.68 0.01,99.95 105.84,211.66 105.84,111.72 276.35,299.87 279.29,385.12 2.94,85.26 -161.69,67.62 -299.86,32.34 -138.17,-35.28 -249.89,-88.19 -355.73,-88.19 -105.83,0 -205.78,52.91 -305.74,35.27 -99.95,-17.64 -199.91,-105.83 -270.47,-73.5 -70.55,32.34 -111.7,185.22 5.89,273.41 117.59,88.2 393.94,111.71 561.51,211.66 167.57,99.96 226.36,276.35 241.06,420.4 14.7,144.05 -14.7,255.77 -129.36,299.86 -114.65,44.1 -314.55,20.58 -485.06,49.98 -170.51,29.4 -311.62,111.71 -449.79,120.53 -138.17,8.82 -273.41,-55.85 -435.1,-82.31 -161.69,-26.46 -349.83,-14.7 -535.04,26.45 -185.21,41.16 -367.48,111.72 -508.59,102.9 -141.11,-8.82 -241.07,-97.02 -308.68,-185.21 -67.62,-88.19 -102.89,-176.39 -176.38,-188.15 -73.5,-11.75 -185.22,52.92 -264.59,114.65 -79.38,61.74 -126.42,120.54 -202.85,105.84 -76.44,-14.7 -182.28,-102.9 -255.77,-185.21 -73.5,-82.31 -114.65,-158.75 -170.51,-176.39 -55.86,-17.63 -126.41,23.52 -208.72,26.46 -82.32,2.94 -176.4,-32.34 -229.31,-94.08 -52.92,-61.73 -64.68,-149.93 17.64,-270.46 82.31,-120.53 258.7,-273.4 270.46,-346.9 11.76,-73.49 -141.11,-67.61 -235.18,-97.01 -94.08,-29.4 -129.35,-94.07 -41.15,-161.69 88.19,-67.62 299.85,-138.17 393.93,-191.09 94.07,-52.92 70.55,-88.19 -17.64,-91.13 -88.2,-2.94 -241.07,26.45 -393.94,67.61 -152.87,41.16 -305.74,94.07 -293.98,79.37 11.76,-14.69 188.15,-97.01 305.74,-185.2 117.59,-88.19 176.39,-182.27 135.23,-252.83 -41.16,-70.55 -182.27,-117.58 -329.26,-144.04 -146.99,-26.46 -299.86,-32.34 -440.97,-52.92 -141.11,-20.58 -270.47,-55.86 -191.09,-76.44 79.37,-20.58 367.48,-26.46 473.31,-82.32 105.83,-55.85 29.4,-161.69 -17.64,-232.25 -47.04,-70.55 -64.67,-105.82 -26.45,-164.62 38.21,-58.79 132.29,-141.11 217.55,-211.67 85.25,-70.55 161.68,-129.34 244,-158.74z"/>
   <path class="fil3" d="M9107.81 15343.88c94.07,-29.4 211.67,-79.37 332.2,-83.78 120.53,-4.41 244.01,36.75 338.09,38.22 94.07,1.47 158.74,-36.75 198.43,2.93 39.69,39.69 54.39,157.29 74.97,255.77 20.58,98.49 47.03,177.86 92.6,135.23 45.57,-42.62 110.24,-207.25 157.28,-295.45 47.04,-88.19 76.43,-99.95 154.34,-51.45 77.9,48.51 204.32,157.29 285.16,171.98 80.85,14.7 116.13,-64.67 160.23,-77.9 44.1,-13.23 97.01,39.68 139.64,10.28 42.63,-29.39 74.96,-141.11 135.22,-148.46 60.27,-7.34 148.47,89.67 241.07,148.47 92.61,58.8 189.62,79.37 279.28,89.66 89.67,10.29 171.99,10.29 267.53,11.76 95.54,1.47 204.32,4.41 296.92,-13.23 92.61,-17.64 169.04,-55.85 205.79,-40.17 36.75,15.68 33.8,85.25 -26.47,132.29 -60.26,47.04 -177.85,71.53 -282.21,94.07 -104.36,22.54 -195.5,43.12 -355.72,69.58 -160.22,26.46 -389.52,58.79 -505.65,114.65 -116.12,55.86 -119.06,135.23 -194.03,219.01 -74.96,83.79 -221.96,171.99 -343.96,171.99 -122,0 -219.02,-88.2 -339.55,-144.06 -120.53,-55.85 -264.58,-79.37 -333.66,-45.56 -69.09,33.81 -63.21,124.94 -94.08,158.75 -30.87,33.81 -98.48,10.29 -164.63,-32.34 -66.15,-42.63 -130.82,-104.36 -208.72,-97.01 -77.91,7.35 -169.05,83.78 -254.3,74.96 -85.26,-8.81 -164.63,-102.89 -264.58,-157.28 -99.96,-54.38 -220.5,-69.08 -210.21,-144.05 10.29,-74.96 151.41,-210.2 157.29,-241.07 5.88,-30.86 -123.48,42.63 -239.6,86.73 -116.12,44.1 -219.02,58.8 -360.13,74.97 -141.11,16.17 -320.44,33.8 -455.67,47.03 -135.23,13.23 -226.37,22.05 -327.87,39.07 -101.51,17.02 -213.39,42.25 -319.28,47.62 -105.89,5.37 -205.8,-9.11 -266.47,-25.15 -60.67,-16.04 -82.12,-33.65 -13.95,-56.17 68.16,-22.52 225.93,-49.96 312.76,-82.61 86.83,-32.64 102.71,-70.48 131.62,-120.95 28.91,-50.46 70.84,-113.55 119.74,-124.51 48.89,-10.96 104.74,30.19 170.89,-15.38 66.15,-45.56 142.58,-177.86 185.21,-248.42 42.63,-70.55 51.45,-79.37 35.28,-23.52 -16.17,55.86 -57.33,176.4 -49.98,246.95 7.35,70.56 63.2,91.14 129.35,57.33 66.15,-33.81 142.58,-122 183.74,-135.23 41.16,-13.23 47.04,48.5 70.56,67.61 23.52,19.11 64.67,-4.4 102.89,-8.81 38.22,-4.41 73.5,10.29 132.3,8.82 58.79,-1.47 141.11,-19.11 192.56,-41.16 51.44,-22.05 72.02,-48.51 117.59,-66.15 45.56,-17.64 116.12,-26.46 210.19,-55.86z"/>
   <path class="fil1" d="M13175.03 14582.48c60.27,11.76 216.06,17.65 318.95,29.41 102.89,11.76 152.86,29.4 155.8,5.88 2.94,-23.52 -41.15,-88.19 -13.23,-102.89 27.93,-14.7 127.89,20.57 154.34,7.34 26.46,-13.23 -20.57,-74.96 -17.63,-104.36 2.94,-29.4 55.85,-26.46 108.77,-35.28 52.92,-8.82 105.83,-29.39 79.37,-52.91 -26.45,-23.52 -132.29,-49.98 -242.53,-74.97 -110.24,-24.99 -224.9,-48.51 -251.36,-16.17 -26.45,32.34 35.28,120.53 22.05,160.22 -13.22,39.69 -101.42,30.87 -192.55,24.99 -91.13,-5.88 -185.21,-8.82 -258.71,-16.17 -73.49,-7.35 -126.41,-19.11 -98.48,1.47 27.93,20.58 136.7,73.49 173.45,108.77 36.76,35.28 1.5,52.91 61.76,64.67z"/>
   <path class="fil4" d="M4201.19 7197.68c97.01,-111.71 196.97,-205.79 285.17,-299.86 88.19,-94.07 164.62,-188.15 246.94,-273.4 82.31,-85.26 170.51,-161.69 246.95,-208.73 76.43,-47.04 141.1,-64.67 244,-8.81 102.89,55.85 244,185.2 364.54,279.28 120.53,94.07 220.48,152.86 285.16,238.12 64.68,85.25 94.07,196.97 97.01,282.23 2.94,85.25 -20.58,144.04 79.38,217.54 99.95,73.49 323.37,161.69 543.86,273.4 220.49,111.71 438.03,246.95 587.97,376.3 149.93,129.35 232.24,252.83 273.4,346.9 41.16,94.07 41.16,158.75 -29.39,246.94 -70.56,88.19 -211.68,199.91 -405.7,346.9 -194.03,146.99 -440.98,329.26 -470.37,488.01 -29.4,158.75 158.74,293.98 249.88,382.18 91.13,88.19 85.25,129.35 11.76,173.45 -73.5,44.1 -214.61,91.13 -317.5,129.35 -102.9,38.22 -167.57,67.61 -308.68,94.07 -141.12,26.46 -358.66,49.98 -464.49,97.02 -105.84,47.04 -99.96,117.59 -58.8,167.57 41.16,49.98 117.59,79.37 70.56,123.47 -47.04,44.1 -217.55,102.89 -308.68,235.19 -91.14,132.29 -102.9,338.07 -29.4,552.68 73.49,214.61 232.24,438.03 376.29,608.54 144.05,170.51 273.41,288.11 385.12,364.55 111.71,76.43 205.79,111.7 315.42,132.41 109.63,20.71 234.83,26.86 273.05,-11.36 38.21,-38.22 -10.54,-120.79 17.96,-160.56 28.5,-39.77 134.25,-36.73 163.65,-57.31 29.4,-20.58 -17.56,-64.78 -0.61,-79.29 16.95,-14.52 97.81,0.65 221.28,24.17 123.47,23.52 289.56,55.38 321.12,48.28 31.56,-7.11 -71.39,-53.2 -122.87,-76.24 -51.48,-23.04 -51.48,-23.04 -19.35,-27.69 32.13,-4.65 96.4,-13.96 233.13,-23.25 136.73,-9.3 345.94,-18.58 345.94,-18.58 0,0 -209.21,9.28 -444.39,-58.33 -235.19,-67.62 -496.35,-212.14 -688.67,-375.53 -192.32,-163.4 -315.8,-345.66 -380.47,-498.53 -64.68,-152.87 -70.56,-276.35 -26.46,-341.02 44.09,-64.68 138.17,-70.56 232.24,5.88 94.07,76.43 188.15,235.18 361.6,317.5 173.45,82.31 426.27,88.19 637.94,44.1 211.67,-44.1 382.17,-138.18 529.16,-244.01 146.99,-105.83 270.47,-223.43 314.57,-332.2 44.09,-108.77 8.82,-208.73 -85.25,-311.62 -94.08,-102.89 -246.95,-208.73 -352.78,-276.34 -105.84,-67.62 -164.63,-97.02 -155.81,-141.12 8.81,-44.1 85.25,-102.89 173.44,-94.07 88.19,8.82 188.15,85.25 276.35,152.87 88.19,67.62 164.62,126.41 241.06,158.75 76.44,32.34 152.87,38.22 215.84,16.41 62.97,-21.82 112.48,-71.32 91.9,-150.69 -20.58,-79.38 -111.25,-188.63 -91.9,-346.14 19.34,-157.52 148.7,-363.31 219.76,-436.61 71.05,-73.3 83.82,-14.12 119.1,35.86 35.27,49.98 93.07,90.75 162.06,-62.48 68.99,-153.24 149.17,-500.49 178.57,-776.83 29.4,-276.34 8.01,-481.79 -17.38,-634.48 -25.4,-152.7 -54.8,-252.66 -131.23,-290.87 -76.44,-38.22 -199.92,-14.71 -338.09,5.87 -138.17,20.58 -291.04,38.22 -399.81,49.98 -108.78,11.76 -173.45,17.64 -258.7,70.56 -85.26,52.91 -191.1,152.87 -191.1,332.2 0,179.32 105.84,438.03 120.54,464.49 14.7,26.45 -61.74,-179.33 -188.15,-391 -126.41,-211.67 -302.8,-429.21 -373.35,-505.64 -70.56,-76.44 -35.28,-11.77 14.7,105.83 49.97,117.59 114.65,288.1 117.59,435.09 2.93,146.99 -55.86,270.46 -123.47,267.52 -67.62,-2.94 -144.06,-132.29 -191.09,-279.28 -47.04,-146.99 -64.68,-311.62 -47.04,-429.21 17.64,-117.6 70.55,-188.15 102.89,-205.79 32.34,-17.64 44.1,17.63 105.84,38.21 61.73,20.58 173.45,26.46 276.34,-5.87 102.89,-32.34 196.97,-102.9 252.83,-173.45 55.85,-70.56 73.49,-141.11 114.65,-214.61 41.16,-73.5 105.83,-149.93 188.87,-235.39 83.03,-85.47 184.41,-179.95 213.08,-239.98 28.67,-60.03 -15.37,-85.61 -87.26,-118.92 -71.9,-33.32 -171.63,-74.37 -306.1,-117.41 -134.47,-43.04 -303.66,-88.07 -468.4,-111.63 -164.74,-23.57 -325.02,-25.69 -482.5,-30.31 -157.49,-4.63 -312.18,-11.77 -436.79,-29.95 -124.61,-18.18 -219.14,-47.41 -355.33,-109.05 -136.2,-61.65 -314.06,-155.73 -534.28,-284.85 -220.22,-129.12 -482.79,-293.28 -705.49,-417.61 -222.71,-124.33 -405.53,-208.83 -557.41,-263.75 -151.89,-54.92 -272.83,-80.26 -400.15,-91.54 -127.32,-11.28 -261.01,-8.5 -327.86,-7.1 -66.85,1.39 -66.85,1.39 -110.67,21.14 -43.83,19.75 -131.47,59.25 -199.99,114.02 -68.52,54.76 -117.9,124.8 -150.83,315.62 -32.94,190.82 -49.42,502.43 -24.27,850.62 25.15,348.19 91.94,732.97 162.92,1107.03 70.97,374.06 146.13,737.41 178.55,1040.39 32.41,302.97 22.06,545.56 -25.96,738.94 -48.02,193.38 -133.71,337.54 -194.42,434.68 -60.72,97.14 -96.44,147.26 -115.06,181.56 -18.62,34.3 -20.13,52.77 -48.32,77.69 -28.2,24.92 -83.07,56.27 -110.51,91.55 -27.44,35.28 -27.44,74.47 -46.17,115.83 -18.73,41.36 -56.2,84.89 -95.25,128.12 -39.06,43.22 -79.72,86.16 -100.04,107.63 -20.33,21.46 -20.33,21.46 -40.07,57.61 -19.74,36.14 -59.21,108.44 -78.95,144.59 -19.74,36.14 -19.74,36.14 -69.71,60.64 -49.98,24.5 -149.94,73.5 -233.23,124.46 -83.3,50.96 -149.93,103.87 -183.25,130.33 -33.32,26.46 -33.32,26.46 -16.11,29.58 17.21,3.11 51.64,9.33 98.69,10.84 47.04,1.51 106.72,-1.71 96.35,17.6 -10.37,19.3 -90.79,61.12 -193.17,117 -102.39,55.87 -226.74,125.8 -308.06,183.74 -81.32,57.94 -119.59,103.88 -138.73,126.86 -19.14,22.97 -19.14,22.97 44.72,10.12 63.86,-12.86 191.57,-38.58 255.43,-51.43 63.86,-12.86 63.86,-12.86 37.99,12.79 -25.88,25.64 -77.62,76.92 -141.18,146.25 -63.56,69.33 -138.93,156.7 -178.14,254.66 -39.21,97.96 -42.27,206.52 -23.95,231.38 18.32,24.86 58.02,-33.96 39.65,-3.6 -18.38,30.36 -94.81,149.91 -141.31,233.84 -46.5,83.92 -63.06,132.21 -67.96,180.23 -4.9,48.02 1.86,95.76 25.81,123.8 23.95,28.03 65.08,36.35 52.34,114.75 -12.74,78.39 -79.35,226.86 -88.16,306.97 -8.81,80.11 40.19,91.87 47.05,162.43 6.86,70.55 -28.42,199.9 -25.48,374.33 2.94,174.43 44.1,393.93 58.74,473.08 14.64,79.14 2.77,17.93 30.21,49.29 27.43,31.35 94.19,155.29 121.61,272.65 27.41,117.35 15.48,228.13 -2.16,367.28 -17.64,139.15 -40.99,306.67 -16.41,655.99 24.58,349.32 97.09,880.45 177.45,1371.4 80.36,490.95 168.55,941.72 212.65,1167.11 44.1,225.39 44.1,225.39 38.95,-126.16 -5.16,-351.54 -15.46,-1054.62 -5.91,-1535.52 9.54,-480.89 38.93,-739.6 35.99,-921.87 -2.94,-182.26 -38.21,-288.1 -79.37,-329.26 -41.16,-41.15 -88.19,-17.63 -94.07,-88.18 -5.88,-70.56 29.39,-235.19 32.33,-326.32 2.94,-91.14 -26.45,-108.78 -32.33,-152.88 -5.88,-44.1 11.75,-114.65 32.33,-214.6 20.58,-99.96 44.1,-229.31 -8.77,-229.53 -52.87,-0.22 -182.12,128.68 -202.7,111.04 -20.58,-17.64 67.52,-181.82 102.75,-290.37 35.23,-108.56 17.59,-161.47 -5.93,-217.33 -23.52,-55.86 -52.91,-114.65 -26.45,-211.66 26.45,-97.02 108.77,-232.25 167.57,-332.2 58.79,-99.96 94.06,-164.63 64.67,-191.09 -29.4,-26.46 -123.48,-14.7 -108.78,-82.31 14.7,-67.62 138.18,-214.61 205.8,-317.5 67.61,-102.9 79.37,-161.69 47.03,-176.39 -32.34,-14.7 -108.77,14.69 -135.23,-20.58 -26.46,-35.28 -2.94,-135.24 49.98,-196.97 52.91,-61.74 135.23,-85.25 126.41,-117.59 -8.82,-32.34 -108.78,-73.5 -129.35,-117.6 -20.58,-44.1 38.21,-91.13 126.41,-158.74 88.19,-67.62 205.79,-155.82 222.7,-263.86 16.91,-108.05 -66.86,-235.96 -40.4,-285.93 26.46,-49.98 163.14,-22.03 310.86,-49.21 147.72,-27.19 306.47,-109.5 479.92,-256.49 173.45,-147 361.59,-358.66 532.1,-517.41 170.51,-158.75 323.38,-264.59 446.85,-335.14 123.47,-70.56 217.55,-105.83 244.01,-167.57 26.45,-61.74 -14.7,-149.93 11.76,-205.79 26.45,-55.86 120.53,-79.37 129.35,-158.74 8.82,-79.38 -67.62,-214.62 -158.75,-332.21 -91.13,-117.59 -196.97,-217.55 -223.42,-276.34 -26.46,-58.8 26.45,-76.44 123.47,-94.08 97.01,-17.64 238.12,-35.27 241.06,-117.58 2.94,-82.32 -132.29,-229.32 -296.92,-276.35 -164.63,-47.04 -358.66,5.87 -464.49,-14.7 -105.84,-20.58 -123.47,-114.66 -64.67,-194.03 58.79,-79.38 194.02,-144.05 238.12,-199.91 44.09,-55.86 -2.94,-102.89 -61.74,-179.32 -58.8,-76.44 -129.35,-182.28 -205.78,-202.85 -76.44,-20.58 -158.76,44.09 -152.88,11.76 5.88,-32.34 99.96,-161.7 196.97,-273.41z"/>
   <path class="fil5" d="M6070.91 7929.72c-188.15,-2.94 -470.37,11.76 -680.56,19.11 -210.2,7.35 -348.38,7.35 -427.75,11.76 -79.38,4.41 -99.95,13.23 0,-13.23 99.95,-26.46 320.44,-88.19 554.16,-110.24 233.71,-22.05 480.65,-4.41 637.93,24.99 157.28,29.4 224.9,70.55 211.67,80.84 -13.23,10.29 -107.31,-10.29 -295.45,-13.23z"/>
   <path class="fil5" d="M5707.84 7685.72c-160.22,38.22 -433.62,70.55 -689.38,126.41 -255.77,55.86 -493.89,135.23 -573.27,130.82 -79.38,-4.41 0,-92.6 142.58,-158.75 142.58,-66.15 348.37,-110.24 557.1,-139.64 208.73,-29.4 420.39,-44.1 557.09,-47.04 136.7,-2.94 198.44,5.88 224.9,0 26.45,-5.88 17.64,-26.45 -179.33,-14.69 -196.97,11.76 -582.08,55.85 -809.92,97.01 -227.84,41.16 -298.39,79.37 -342.49,73.49 -44.1,-5.88 -61.73,-55.85 -67.61,-108.77 -5.88,-52.92 -0.01,-108.77 55.85,-157.28 55.85,-48.51 161.69,-89.66 314.56,-114.65 152.87,-24.99 352.78,-33.81 545.89,-28.57 193.11,5.23 379.41,24.52 447.03,42.16 67.61,17.64 16.54,33.62 -92.78,28.39 -109.33,-5.24 -276.9,-31.69 -435.65,-36.1 -158.75,-4.41 -308.68,13.23 -423.33,44.1 -114.65,30.87 -194.03,74.96 -239.59,105.83 -45.57,30.87 -57.33,48.5 -30.87,60.26 26.46,11.76 91.13,17.64 142.58,26.46 51.45,8.82 89.66,20.58 207.26,11.76 117.59,-8.82 314.55,-38.21 485.06,-52.91 170.51,-14.7 314.56,-14.7 363.07,7.35 48.5,22.05 1.47,66.14 -158.75,104.36z"/>
   <path class="fil5" d="M10457.1 7359.41c61.73,-55.86 155.81,-108.77 288.1,-120.53 132.29,-11.76 302.8,17.64 411.57,17.64 108.78,0 155.81,-29.4 141.11,-85.25 -14.7,-55.86 -91.13,-138.18 -149.93,-246.95 -58.8,-108.77 -99.95,-244.01 -142.81,-339.32 -42.86,-95.32 -87.43,-150.71 -86.2,-230.34 1.24,-79.64 48.28,-183.52 100.63,-242.41 52.36,-58.9 110.04,-72.81 277.43,-67.99 167.39,4.82 444.5,28.39 682.33,-1.44 237.84,-29.84 436.4,-113.07 613.89,-224.31 177.5,-111.24 333.91,-250.5 475.09,-377.56 141.19,-127.06 267.15,-241.93 452.38,-389.58 185.23,-147.66 429.75,-328.09 627.34,-443.82 197.59,-115.73 348.25,-166.74 478.44,-198.21 130.19,-31.48 239.91,-43.42 358.16,-40.58 118.26,2.84 245.05,20.46 339.09,49.27 94.05,28.8 155.35,68.79 209.71,140.73 54.37,71.93 101.81,175.8 131.43,335.39 29.63,159.58 41.44,374.88 41.39,638.75 -0.05,263.87 -11.95,576.32 -20.68,794 -8.72,217.67 -14.26,340.59 -18.58,431.68 -4.32,91.08 -7.43,150.34 33.35,185.89 40.78,35.55 125.45,47.39 244.21,59.19 118.77,11.8 271.64,23.55 389.23,64.71 117.6,41.16 199.91,111.71 149.93,141.11 -49.97,29.4 -232.24,17.64 -367.47,5.88 -135.23,-11.76 -223.43,-23.51 -295.19,-17.72 -71.75,5.79 -127.07,29.14 -115.31,43.84 11.76,14.69 90.59,20.75 87.85,54.97 -2.74,34.22 -87.06,96.61 -104.7,146.59 -17.64,49.97 31.41,87.54 24.83,145.26 -6.58,57.72 -68.79,135.59 -33.51,235.55 35.28,99.95 168.04,221.98 281.45,371.19 113.42,149.21 207.5,325.6 301.83,539.95 94.33,214.34 188.91,466.65 314.15,648.09 125.24,181.43 281.13,292 775.5,707.49 494.38,415.49 1327.25,1135.9 1782.85,1554.25 455.6,418.34 533.94,534.62 574.58,656.96 40.65,122.34 43.6,250.73 23.22,435.88 -20.37,185.14 -64.07,427.04 -79.37,498.34 -15.29,71.29 -2.17,-28 -42.29,-136.77 -40.12,-108.77 -133.46,-227.01 -159.56,-283.19 -26.09,-56.18 15.06,-50.3 -2.58,-100.27 -17.64,-49.98 -94.07,-155.82 -141.11,-217.55 -47.04,-61.74 -64.68,-79.38 -23.52,-88.2 41.16,-8.82 141.11,-8.82 135.23,-41.16 -5.87,-32.34 -117.59,-97.01 -238.12,-211.66 -120.53,-114.66 -249.89,-279.28 -405.7,-440.97 -155.81,-161.69 -338.07,-320.45 -438.03,-426.28 -99.95,-105.84 -117.59,-158.75 -161.69,-161.69 -44.1,-2.94 -114.65,44.1 -138.17,17.64 -23.52,-26.46 0,-126.41 -17.64,-182.27 -17.64,-55.86 -76.43,-67.61 -126.41,-67.61 -49.98,0 -91.13,11.75 -99.95,-14.7 -8.82,-26.46 14.69,-91.14 -32.35,-167.57 -47.03,-76.44 -164.63,-164.63 -282.22,-208.73 -117.59,-44.1 -235.18,-44.1 -293.98,-85.25 -58.79,-41.16 -58.79,-123.48 -73.49,-176.39 -14.7,-52.92 -44.1,-76.44 -126.42,-99.96 -82.31,-23.52 -217.54,-47.03 -288.1,-88.19 -70.55,-41.16 -76.43,-99.95 -141.11,-132.29 -64.67,-32.34 -188.15,-38.22 -305.74,-97.01 -117.59,-58.8 -229.31,-170.52 -382.18,-264.59 -152.87,-94.08 -346.89,-170.51 -505.64,-238.13 -158.75,-67.62 -282.23,-126.41 -402.76,-164.63 -120.53,-38.22 -238.13,-55.85 -338.08,-17.63 -99.95,38.21 -182.27,132.29 -238.13,232.24 -55.85,99.95 -85.24,205.79 -29.39,288.11 55.86,82.31 196.97,141.1 282.22,249.88 85.26,108.77 114.65,267.52 173.45,426.27 58.8,158.75 146.99,317.5 164.63,455.67 17.64,138.17 -35.27,255.77 -117.59,388.06 -82.31,132.29 -194.03,279.28 -311.62,411.57 -117.59,132.29 -241.07,249.89 -352.78,302.81 -111.71,52.91 -211.67,41.15 -241.07,64.67 -29.39,23.52 11.76,82.31 -23.52,161.69 -35.27,79.37 -146.99,179.33 -249.88,229.31 -102.89,49.97 -196.97,49.97 -276.35,8.82 -79.37,-41.16 -144.04,-123.48 -235.18,-167.57 -91.13,-44.1 -208.73,-49.98 -323.38,-44.1 -114.65,5.88 -226.36,23.52 -338.07,-17.64 -111.71,-41.16 -223.43,-141.11 -279.29,-191.09 -55.85,-49.98 -55.85,-49.98 70.56,-76.44 126.41,-26.46 379.24,-79.37 555.62,-141.1 176.39,-61.74 276.35,-132.3 370.42,-223.43 94.07,-91.13 182.27,-202.85 232.24,-311.62 49.98,-108.77 61.74,-214.61 64.68,-308.68 2.94,-94.08 -2.94,-176.39 -35.28,-255.76 -32.34,-79.38 -91.13,-155.82 -179.33,-182.27 -88.19,-26.46 -205.78,-2.95 -443.91,129.35 -238.12,132.29 -596.78,373.35 -779.05,293.98 -182.27,-79.38 -188.15,-479.19 -158.75,-743.77 29.4,-264.59 94.07,-393.94 126.41,-523.29 32.34,-129.35 32.34,-258.71 47.04,-405.7 14.7,-146.99 44.1,-311.62 2.94,-305.74 -41.15,5.88 -152.87,182.27 -235.19,361.6 -82.31,179.33 -135.22,361.59 -194.02,508.58 -58.8,146.99 -123.47,258.71 -196.97,299.87 -73.49,41.15 -155.81,11.76 -205.79,-67.61 -49.97,-79.38 -67.61,-208.74 -97.01,-396.88 -29.4,-188.15 -70.55,-435.1 -114.65,-593.85 -44.1,-158.75 -91.13,-229.3 -145.81,-247.47 -54.68,-18.17 -116.99,16.04 -152.27,-45.69 -35.28,-61.74 -43.52,-219.43 -65.28,-362.95 -21.76,-143.52 -57.04,-272.87 -124.66,-337.54 -67.61,-64.68 -167.57,-64.68 -191.08,-120.53 -23.52,-55.86 29.39,-167.58 35.27,-235.19 5.88,-67.62 -35.27,-91.14 -41.15,-132.3 -5.88,-41.16 23.52,-99.95 85.26,-155.81z"/>
   <path class="fil1" d="M14296.49 5688.17c49.98,-19.11 108.77,-39.68 176.39,-30.86 67.62,8.82 144.05,47.03 199.91,99.95 55.86,52.92 91.13,120.53 142.58,199.91 51.45,79.37 119.06,170.51 160.22,236.66 41.16,66.14 55.86,107.29 114.65,144.04 58.8,36.75 161.7,69.09 213.14,91.14 51.45,22.05 51.45,33.81 -17.64,35.28 -69.08,1.47 -207.26,-7.35 -242.54,13.23 -35.27,20.58 32.34,70.55 102.9,129.35 70.56,58.8 144.05,126.41 202.85,188.15 58.8,61.74 102.89,117.59 150.84,160.1 47.96,42.5 99.78,71.66 145.34,95.18 45.57,23.51 84.89,41.4 50.16,57.69 -34.72,16.29 -143.5,30.99 -234.63,47.16 -91.13,16.17 -164.63,33.8 -233.72,45.56 -69.08,11.76 -133.75,17.64 -198.43,-2.94 -64.68,-20.58 -129.35,-67.61 -213.14,-92.6 -83.78,-24.99 -186.68,-27.93 -198.44,-49.98 -11.76,-22.05 67.62,-63.2 161.69,-82.31 94.07,-19.11 202.85,-16.17 199.91,-30.87 -2.94,-14.7 -117.6,-47.04 -207.26,-54.39 -89.66,-7.35 -154.34,10.29 -227.84,24.99 -73.49,14.7 -155.8,26.46 -273.4,33.81 -117.59,7.35 -270.46,10.29 -380.71,0 -110.24,-10.29 -177.85,-33.81 -260.17,-32.34 -82.31,1.47 -179.33,27.93 -163.16,17.64 16.17,-10.29 145.52,-57.32 251.35,-105.83 105.84,-48.51 188.15,-98.49 242.54,-129.36 54.39,-30.87 80.85,-42.62 117.6,-7.34 36.75,35.27 83.78,117.59 148.45,136.7 64.68,19.1 147,-24.99 230.78,-47.04 83.79,-22.05 169.04,-22.05 282.22,-16.17 113.19,5.88 254.3,17.64 258.71,5.88 4.41,-11.76 -127.89,-47.04 -269,-73.5 -141.11,-26.46 -291.04,-44.09 -399.82,-54.38 -108.77,-10.29 -176.38,-13.23 -282.22,-20.58 -105.83,-7.35 -249.88,-19.11 -271.93,-27.93 -22.05,-8.82 77.91,-14.7 205.79,-14.7 127.88,0 283.69,5.88 326.32,-5.88 42.63,-11.76 -27.93,-41.16 -98.49,-61.74 -70.55,-20.58 -141.1,-32.33 -99.95,-48.5 41.16,-16.17 194.03,-36.75 343.96,-7.35 149.93,29.4 296.93,108.77 418.93,167.57 122,58.8 219.02,97.01 229.3,89.66 10.29,-7.35 -66.14,-60.26 -173.45,-113.18 -107.3,-52.92 -245.47,-105.83 -368.94,-141.11 -123.47,-35.28 -232.25,-52.92 -346.9,-70.56 -114.65,-17.64 -235.19,-35.28 -329.27,-42.63 -94.07,-7.35 -161.68,-4.41 -160.21,-29.4 1.47,-24.99 72.02,-77.9 157.27,-95.54 85.26,-17.64 185.22,0 208.73,-4.41 23.52,-4.41 -29.39,-30.86 -88.19,-48.5 -58.8,-17.64 -123.47,-26.46 -119.06,-41.16 4.41,-14.7 77.9,-35.28 136.7,-48.51 58.8,-13.23 102.89,-19.11 108.77,-35.28 5.88,-16.17 -26.45,-42.62 -14.7,-70.55 11.76,-27.93 67.62,-57.33 167.57,-52.92 99.95,4.41 244.01,42.62 308.68,47.03 64.68,4.41 49.98,-24.98 -16.17,-60.26 -66.14,-35.28 -183.74,-76.43 -260.18,-104.36 -76.43,-27.93 -111.7,-42.63 -108.76,-58.8 2.94,-16.17 44.09,-33.81 94.07,-52.92z"/>
   <path class="fil1" d="M12816.26 7625.55c42.63,-63.21 148.47,-157.29 226.37,-239.6 77.91,-82.32 127.88,-152.87 193.78,-226.61 65.91,-73.75 147.75,-150.69 162.45,-150.69 14.7,0 -37.74,76.94 -75.72,140.4 -37.97,63.45 -61.49,113.42 -40.91,139.88 20.58,26.46 85.25,29.4 104.36,48.51 19.11,19.11 -7.35,54.38 -67.62,92.6 -60.26,38.22 -154.34,79.38 -164.63,88.2 -10.28,8.82 63.21,-14.7 155.81,-67.62 92.61,-52.92 204.33,-135.23 304.04,-224.16 99.71,-88.94 187.42,-184.49 234.45,-205.07 47.04,-20.58 53.41,33.82 0.73,109.52 -52.67,75.7 -164.39,172.72 -232.01,247.69 -67.61,74.96 -91.12,127.88 -36.74,110.24 54.39,-17.64 186.68,-105.83 342.49,-185.21 155.81,-79.38 335.14,-149.93 445.38,-177.86 110.25,-27.93 151.4,-13.23 85.25,26.46 -66.14,39.69 -239.59,104.36 -374.82,171.98 -135.23,67.62 -232.25,138.17 -292.52,194.03 -60.26,55.86 -83.77,97.01 -29.39,76.43 54.39,-20.58 186.68,-102.89 316.03,-146.99 129.35,-44.1 255.77,-49.98 270.47,-45.57 14.7,4.41 -82.32,19.11 -174.93,63.21 -92.6,44.1 -180.79,117.59 -208.72,157.28 -27.93,39.69 4.41,45.57 42.63,54.39 38.22,8.82 82.31,20.58 86.72,44.1 4.41,23.52 -30.87,58.79 -123.48,105.83 -92.6,47.04 -242.53,105.83 -330.73,152.87 -88.19,47.04 -114.64,82.31 -30.86,67.61 83.79,-14.7 277.81,-79.37 408.63,-141.1 130.83,-61.74 198.44,-120.54 199.91,-151.4 1.47,-30.87 -63.2,-33.81 -44.1,-69.09 19.11,-35.28 122.01,-102.89 261.65,-132.29 139.64,-29.4 316.03,-20.58 395.4,-2.94 79.38,17.64 61.74,44.09 17.64,102.89 -44.09,58.8 -114.65,149.93 -99.95,189.62 14.7,39.69 114.66,27.93 233.72,-13.23 119.06,-41.16 257.23,-111.71 254.29,-98.48 -2.94,13.22 -146.99,110.24 -304.27,229.3 -157.28,119.06 -327.79,260.18 -461.55,370.42 -133.76,110.24 -230.78,189.62 -302.81,293.98 -72.02,104.36 -119.05,233.72 -64.67,223.43 54.39,-10.29 210.2,-160.22 355.72,-276.34 145.52,-116.13 280.75,-198.44 393.93,-258.71 113.19,-60.27 204.32,-98.48 142.58,-45.56 -61.73,52.91 -276.33,196.96 -410.1,311.62 -133.76,114.65 -186.67,199.9 -195.49,235.18 -8.82,35.28 26.45,20.58 114.64,-49.97 88.2,-70.56 229.31,-196.98 232.25,-179.34 2.94,17.64 -132.29,179.33 -213.14,291.05 -80.84,111.71 -107.3,173.44 -64.68,183.73 42.63,10.29 154.35,-30.86 170.99,-10.01 16.64,20.84 -61.8,103.69 -117.65,167.87 -55.85,64.17 -89.13,109.66 -130.76,102.05 -41.62,-7.62 -91.61,-68.35 -195.98,-84.01 -104.36,-15.67 -263.11,13.72 -276.34,-48.01 -13.23,-61.74 119.07,-214.61 113.19,-296.92 -5.88,-82.32 -149.94,-94.08 -254.31,-86.73 -104.36,7.35 -169.03,33.81 -235.18,41.16 -66.14,7.35 -133.76,-4.41 -160.22,-55.85 -26.45,-51.45 -11.76,-142.59 1.47,-217.55 13.23,-74.97 24.99,-133.76 88.19,-216.07 63.21,-82.32 177.87,-188.16 149.94,-205.8 -27.93,-17.64 -198.44,52.92 -305.75,127.89 -107.3,74.96 -151.39,154.33 -205.78,224.89 -54.39,70.56 -119.06,132.29 -174.92,108.78 -55.86,-23.52 -102.89,-132.3 -85.26,-229.31 17.64,-97.02 99.96,-182.27 149.93,-260.18 49.98,-77.91 67.62,-148.46 33.81,-208.73 -33.8,-60.27 -119.06,-110.24 -171.98,-151.4 -52.91,-41.16 -73.49,-73.49 -30.87,-136.69z"/>
   <path class="fil5" d="M9626.53 14559.15c86.72,-67.62 221.95,-164.64 299.86,-236.66 77.9,-72.03 98.48,-119.06 105.83,-183.74 7.35,-64.68 1.47,-146.99 -4.41,-242.53 -5.88,-95.55 -11.76,-204.33 -8.82,-345.44 2.94,-141.11 14.7,-314.55 41.16,-335.13 26.46,-20.58 67.61,111.71 74.96,291.04 7.35,179.33 -19.11,405.69 -22.05,546.81 -2.94,141.11 17.64,196.96 59.05,240.82 41.4,43.85 103.62,75.69 160.95,118.32 57.33,42.63 109.75,96.04 175.73,139.38 65.99,43.34 145.53,76.61 208.73,104.54 63.21,27.92 110.09,50.51 36.51,48.57 -73.58,-1.94 -267.61,-28.39 -411.66,-57.79 -144.05,-29.4 -238.13,-61.74 -341.02,-52.92 -102.89,8.82 -214.61,58.79 -298.39,99.95 -83.79,41.16 -139.64,73.5 -213.13,95.55 -73.5,22.05 -164.64,33.8 -171.99,17.63 -7.35,-16.17 69.09,-60.26 126.42,-101.42 57.32,-41.16 95.54,-79.37 182.27,-146.98z"/>
   <path class="fil6" d="M6004.64 11515.01c60.26,4.41 127.88,4.41 182.27,10.29 54.38,5.88 95.54,17.64 154.34,44.1 58.79,26.46 135.23,67.61 199.91,113.18 64.67,45.57 117.58,95.54 177.85,139.64 60.27,44.1 127.88,82.31 154.34,110.24 26.46,27.93 11.76,45.57 -23.52,36.75 -35.28,-8.82 -91.13,-44.09 -113.18,-44.09 -22.05,0 -10.29,35.27 26.85,96.04 37.13,60.77 99.63,147.04 80.53,161.74 -19.11,14.7 -119.84,-42.17 -158.44,-45.61 -38.6,-3.44 -15.09,46.53 -44.48,72.99 -29.4,26.46 -111.72,29.4 -192.56,5.88 -80.85,-23.52 -160.22,-73.5 -133.76,-97.02 26.45,-23.52 158.75,-20.58 192.56,-58.79 33.8,-38.22 -30.87,-117.6 -107.3,-174.92 -76.44,-57.33 -164.64,-92.61 -249.89,-108.78 -85.26,-16.17 -167.57,-13.23 -219.02,-57.32 -51.45,-44.1 -72.02,-135.24 -55.85,-176.39 16.17,-41.16 69.08,-32.34 129.35,-27.93z"/>
   <path class="fil7" d="M5956.01 10948.99c106.47,3.51 257.68,-18.87 388.5,-24.75 130.82,-5.88 241.26,4.75 281.78,30.64 40.51,25.89 11.12,67.04 43.46,167 32.33,99.95 126.41,258.7 305.74,299.86 179.32,41.15 443.91,-35.28 696.74,-151.4 252.82,-116.13 493.88,-271.94 679.09,-266.06 185.21,5.88 314.56,173.45 364.54,169.04 49.97,-4.41 20.58,-180.8 -41.76,-325.75 -62.35,-144.96 -157.65,-258.47 -282.75,-380.82 -125.1,-122.35 -280.02,-253.54 -447.64,-321.51 -167.62,-67.98 -347.94,-72.75 -513.27,-53.17 -165.33,19.58 -315.65,63.51 -442.14,131.66 -126.49,68.14 -229.14,160.5 -319.41,248.57 -90.28,88.07 -168.19,171.86 -270.34,238.74 -102.16,66.88 -228.57,116.85 -329.99,143.31 -101.43,26.46 -177.86,29.4 -230.78,30.87 -52.92,1.47 -82.31,1.47 -66.14,16.17 16.16,14.7 77.9,44.09 184.37,47.6z"/>
   <path class="fil7" d="M8524.75 9768.1c2.94,-66.15 4.41,-139.65 16.17,-193.3 11.76,-53.65 33.81,-87.45 45.57,-211.66 11.76,-124.21 13.23,-338.81 2.94,-478.45 -10.29,-139.65 -32.34,-204.32 -54.39,-171.98 -22.05,32.33 -44.1,161.68 -62.47,257.96 -18.38,96.28 -33.07,159.48 -64.67,190.35 -31.61,30.87 -80.11,29.4 -112.45,88.93 -32.34,59.53 -48.51,180.07 -56.59,287.37 -8.09,107.3 -8.09,201.38 13.96,299.86 22.05,98.48 66.14,201.38 112.45,277.08 46.3,75.7 94.8,124.2 119.79,92.6 24.99,-31.6 26.46,-143.32 29.4,-228.57 2.94,-85.26 7.35,-144.05 10.29,-210.19z"/>
   <path class="fil7" d="M7619.3 9475.61c-26.46,-42.63 -126.42,-129.36 -208,-177.13 -81.58,-47.77 -144.78,-56.59 -138.17,-33.07 6.61,23.52 83.05,79.37 90.4,116.12 7.35,36.75 -54.39,54.39 -57.32,94.82 -2.94,40.42 52.91,103.62 132.29,153.6 79.37,49.98 182.27,86.72 205.05,65.41 22.78,-21.32 -34.54,-100.69 -39.68,-139.64 -5.15,-38.96 41.88,-37.49 15.43,-80.11z"/>
   <path class="fil7" d="M4511.91 9769.62c64.67,-29.4 88.19,-55.86 61.73,-77.91 -26.46,-22.05 -102.89,-39.69 -146.99,-77.91 -44.1,-38.22 -55.85,-97.01 -82.31,-148.46 -26.46,-51.45 -67.62,-95.54 -83.79,-97.01 -16.17,-1.47 -7.35,39.68 -4.41,80.84 2.94,41.16 0,82.32 -5.88,123.48 -5.88,41.16 -14.7,82.31 -13.23,119.06 1.47,36.75 13.23,69.08 14.7,97.01 1.47,27.93 -7.35,51.45 41.16,47.04 48.5,-4.41 154.34,-36.74 219.02,-66.14z"/>
   <path class="fil7" d="M4428.12 9019.25c20.58,34.54 26.46,93.33 21.32,133.76 -5.15,40.42 -21.32,62.46 -44.1,52.91 -22.79,-9.56 -52.18,-50.71 -84.52,-76.43 -32.34,-25.73 -67.62,-36.02 -93.34,-54.39 -25.73,-18.38 -41.89,-44.83 -42.62,-66.88 -0.74,-22.05 13.95,-39.69 22.77,-71.29 8.82,-31.61 11.76,-77.17 10.29,-124.21 -1.47,-47.04 -7.35,-95.54 11.76,-70.55 19.11,24.98 63.2,123.47 102.89,177.86 39.69,54.38 74.97,64.67 95.55,99.22z"/>
   <path class="fil7" d="M4037.12 6378.59c11.76,-94.08 67.61,-185.22 69.08,-276.35 1.47,-91.13 -51.44,-182.27 -85.25,-261.64 -33.81,-79.38 -48.51,-146.99 -35.28,-202.85 13.23,-55.86 54.38,-99.95 89.66,-108.77 35.28,-8.82 64.68,17.63 92.61,5.87 27.93,-11.76 54.38,-61.73 95.54,-83.78 41.16,-22.05 97.01,-16.17 149.93,0 52.92,16.17 102.89,42.63 164.63,48.51 61.74,5.88 135.23,-8.82 189.62,-20.58 54.39,-11.76 89.66,-20.58 142.58,-22.05 52.92,-1.47 123.47,4.41 196.97,60.27 73.5,55.85 149.93,161.69 224.9,258.7 74.96,97.01 148.46,185.21 196.97,248.42 48.5,63.2 72.02,101.42 83.78,85.25 11.76,-16.17 11.76,-86.72 73.5,-95.54 61.73,-8.82 185.21,44.09 273.41,95.54 88.19,51.45 141.1,101.42 117.58,123.47 -23.52,22.05 -123.47,16.17 -208.72,14.7 -85.26,-1.47 -155.82,1.47 -101.43,44.1 54.39,42.63 233.71,124.94 374.83,192.56 141.11,67.62 244,120.53 314.56,167.57 70.56,47.04 108.77,88.19 105.83,138.17 -2.94,49.98 -47.03,108.77 -39.68,180.8 7.35,72.02 66.14,157.28 105.83,199.91 39.69,42.62 60.26,42.62 94.07,14.69 33.81,-27.93 80.84,-83.78 113.18,-58.79 32.34,24.99 49.98,130.82 57.33,232.25 7.35,101.42 4.41,198.44 58.8,261.65 54.38,63.2 166.1,92.59 185.21,4.4 19.1,-88.2 -54.39,-293.98 -49.98,-338.08 4.41,-44.1 86.72,73.5 161.59,145.09 74.86,71.58 142.26,97.17 152.55,44.25 10.29,-52.92 -36.53,-184.33 -142.26,-357.34 -105.73,-173.02 -270.36,-387.62 -274.77,-417.02 -4.41,-29.4 151.4,126.41 288.1,236.66 136.7,110.24 254.3,174.91 324.86,199.9 70.55,24.99 94.06,10.29 148.45,-4.41 54.39,-14.7 139.64,-29.4 141.11,-91.13 1.47,-61.74 -80.84,-170.52 -230.77,-251.36 -149.94,-80.85 -367.48,-133.76 -552.69,-204.31 -185.21,-70.56 -338.08,-158.76 -557.09,-280.76 -219.02,-122 -504.19,-277.82 -743.78,-427.75 -239.6,-149.93 -433.62,-293.98 -582.08,-392.46 -148.47,-98.49 -251.36,-151.4 -368.95,-191.09 -117.6,-39.69 -249.89,-66.15 -408.64,-67.62 -158.75,-1.47 -343.96,22.05 -463.02,74.97 -119.07,52.92 -171.98,135.23 -198.44,257.24 -26.46,122 -26.46,283.69 -2.94,465.96 23.52,182.27 70.55,385.11 101.42,551.21 30.87,166.1 45.57,295.46 58.8,392.48 13.23,97.01 24.99,161.68 48.51,167.56 23.52,5.88 58.79,-47.03 77.9,-135.22 19.11,-88.2 22.05,-211.68 7.35,-321.92 -14.7,-110.25 -47.03,-207.26 -35.27,-301.33z"/>
   <path class="fil7" d="M13012.07 12022.12c19.46,-44.6 66.49,-91.63 95.89,-122.5 29.4,-30.87 41.16,-45.56 83.79,-27.92 42.63,17.64 116.12,67.61 198.43,67.61 82.32,0 173.46,-49.97 214.61,-104.36 41.16,-54.39 32.34,-113.18 61.74,-169.04 29.4,-55.86 97.01,-108.77 157.28,-149.93 60.27,-41.16 113.18,-70.56 129.35,-102.9 16.17,-32.34 -4.4,-67.61 1.48,-94.07 5.88,-26.46 38.21,-44.1 67.61,-73.5 29.4,-29.4 55.85,-70.55 49.97,-116.12 -5.88,-45.57 -44.09,-95.54 -79.37,-142.58 -35.28,-47.04 -67.61,-91.14 -119.06,-92.61 -51.45,-1.47 -122,39.69 -169.04,94.08 -47.04,54.38 -70.56,122 -175.52,231.52 -104.96,109.51 -291.35,260.93 -482.87,369.27 -191.52,108.33 -388.15,173.57 -527.67,215.28 -139.52,41.71 -221.93,59.89 -280.3,72.09 -58.36,12.2 -92.7,18.42 -90.62,27.96 2.09,9.54 40.59,22.4 93.51,31.22 52.92,8.82 120.25,13.6 156.86,29.23 36.61,15.62 42.48,42.07 47.77,68.23 5.3,26.15 10.01,51.99 40.88,54.93 30.87,2.94 87.89,-17.02 123.42,-9.31 35.54,7.71 49.57,43.11 112.43,59.78 62.87,16.67 174.56,14.62 226.34,-7.48 51.78,-22.11 43.64,-64.28 63.09,-108.88z"/>
   <path class="fil7" d="M12799.27 11141.17c176.39,-4.41 264.59,33.8 335.14,-5.88 70.56,-39.69 123.47,-157.28 154.34,-266.05 30.87,-108.78 39.69,-208.73 44.1,-258.71 4.41,-49.98 4.41,-49.98 66.14,-42.63 61.74,7.35 185.22,22.05 296.93,14.7 111.71,-7.35 211.67,-36.74 264.58,-57.32 52.92,-20.58 58.8,-32.34 -35.28,-66.15 -94.07,-33.81 -288.1,-89.66 -461.55,-164.62 -173.45,-74.97 -326.32,-169.05 -485.07,-236.66 -158.75,-67.62 -323.38,-108.78 -476.25,-114.66 -152.87,-5.88 -293.98,23.52 -420.39,61.74 -126.41,38.22 -238.13,85.25 -351.31,188.15 -113.18,102.89 -227.84,261.64 -258.71,407.16 -30.86,145.52 22.05,277.82 139.64,382.18 117.6,104.36 299.87,180.8 523.29,195.5 223.43,14.69 488.02,-32.34 664.4,-36.75z"/>
   <path class="fil7" d="M12342.1 9406.69c45.57,-27.93 74.97,-63.2 91.14,-49.97 16.17,13.22 19.11,74.96 58.79,30.86 39.69,-44.1 116.13,-194.03 136.7,-291.04 20.58,-97.02 -14.69,-141.11 -73.49,-107.3 -58.8,33.8 -141.11,145.52 -204.32,230.78 -63.21,85.25 -107.3,144.04 -133.76,182.26 -26.46,38.22 -35.28,55.86 -8.82,54.39 26.46,-1.47 88.19,-22.05 133.76,-49.98z"/>
   <path class="fil7" d="M11658.59 8823.14c14.7,158.75 0.01,352.77 -2.79,514.02 -2.79,161.25 6.33,289.73 9.27,404.38 2.94,114.65 -0.3,215.49 -41.61,240.92 -41.3,25.42 -120.67,-24.55 -166.24,-84.82 -45.57,-60.27 -57.33,-130.82 -70.56,-136.7 -13.23,-5.88 -27.92,52.91 -47.03,-24.99 -19.11,-77.91 -42.63,-292.51 -49.98,-460.08 -7.35,-167.57 1.47,-288.11 8.82,-411.58 7.35,-123.47 13.23,-249.88 23.52,-329.25 10.29,-79.38 24.99,-111.71 20.58,-67.61 -4.41,44.09 -27.93,164.62 -10.29,210.19 17.64,45.56 76.43,16.17 119.06,-79.37 42.63,-95.55 69.08,-257.24 83.78,-298.4 14.7,-41.16 17.64,38.22 41.16,139.64 23.52,101.42 67.61,224.9 82.31,383.65z"/>
   <path class="fil7" d="M11086.81 8420.4c48.51,-73.5 104.36,-161.69 177.85,-245.47 73.5,-83.79 164.64,-163.17 183.74,-219.02 19.11,-55.86 -33.8,-88.2 -116.12,-51.45 -82.31,36.74 -194.03,142.58 -276.35,252.82 -82.31,110.24 -135.22,224.9 -168.32,323.24 -33.1,98.34 -46.39,180.38 -31.69,199.49 14.7,19.11 57.38,-24.71 99.3,-76.01 41.92,-51.31 83.08,-110.1 131.59,-183.6z"/>
   <path class="fil7" d="M11852.6 6750.62c-5.88,29.39 -14.7,138.17 -11.76,204.32 2.94,66.14 17.64,89.66 64.67,79.37 47.04,-10.29 126.42,-54.38 173.45,-36.74 47.04,17.63 61.74,97.01 89.67,136.7 27.93,39.68 69.08,39.68 107.3,44.09 38.22,4.41 73.5,13.23 145.52,0 72.03,-13.23 180.81,-48.5 282.23,-117.58 101.42,-69.09 195.5,-171.99 299.86,-251.36 104.36,-79.38 219.02,-135.23 217.55,-149.93 -1.47,-14.7 -119.07,11.75 -194.04,61.73 -74.96,49.98 -107.29,123.47 -111.7,116.12 -4.41,-7.35 19.1,-95.54 66.14,-166.1 47.04,-70.56 117.59,-123.47 73.49,-123.47 -44.09,0 -202.84,52.91 -296.92,152.87 -94.07,99.95 -123.47,246.95 -123.47,249.89 0,2.94 29.4,-138.18 72.03,-261.65 42.63,-123.47 98.48,-229.31 155.81,-324.85 57.33,-95.54 116.12,-180.8 232.24,-276.34 116.13,-95.55 289.57,-201.38 405.69,-258.71 116.13,-57.33 174.92,-66.14 136.7,-89.66 -38.21,-23.52 -173.44,-61.74 -155.8,-133.76 17.64,-72.03 188.15,-177.87 349.84,-239.6 161.69,-61.74 314.56,-79.37 435.09,-144.04 120.53,-64.68 208.73,-176.4 279.28,-252.83 70.56,-76.44 123.47,-117.6 158.75,-123.48 35.28,-5.88 52.92,23.52 108.77,30.87 55.86,7.35 149.94,-7.35 229.31,-7.35 79.38,0 144.05,14.7 186.68,66.15 42.63,51.44 63.21,139.64 67.62,208.73 4.41,69.08 -7.35,119.05 -7.35,173.44 0,54.39 11.76,113.18 38.22,227.84 26.46,114.65 67.61,285.16 98.48,414.52 30.87,129.35 51.45,217.54 51.45,311.62 0,94.07 -20.58,194.03 -17.64,291.04 2.94,97.01 29.4,191.09 55.86,213.14 26.46,22.04 52.91,-27.93 66.14,-188.15 13.23,-160.22 13.23,-430.69 0,-643.82 -13.23,-213.14 -39.68,-368.95 -57.32,-464.49 -17.64,-95.55 -26.46,-130.83 -23.52,-202.85 2.94,-72.03 17.64,-180.81 8.82,-271.94 -8.82,-91.13 -41.16,-164.63 -114.66,-230.77 -73.49,-66.15 -188.15,-124.94 -330.73,-157.28 -142.58,-32.34 -313.09,-38.22 -507.12,11.76 -194.03,49.97 -411.57,155.81 -583.55,260.17 -171.98,104.36 -298.39,207.26 -398.35,305.74 -99.95,98.48 -173.44,192.56 -232.24,271.94 -58.8,79.37 -102.89,144.04 -183.74,223.42 -80.84,79.37 -198.44,173.45 -299.87,257.24 -101.42,83.78 -186.67,157.27 -293.98,205.78 -107.3,48.51 -236.65,72.03 -371.88,101.43 -135.23,29.4 -276.35,64.67 -361.61,110.24 -85.25,45.57 -114.64,101.42 -132.28,176.39 -17.64,74.96 -23.52,169.04 -8.82,246.95 14.7,77.9 49.97,139.63 82.31,142.57 32.34,2.94 61.74,-52.91 74.97,-105.83 13.23,-52.92 10.29,-102.89 4.41,-73.49z"/>
   <path class="fil7" d="M15661.1 8361.63c10.29,120.53 7.35,255.77 33.81,342.5 26.46,86.72 82.31,124.93 55.85,183.73 -26.45,58.8 -135.23,138.17 -246.76,199.74 -111.52,61.57 -225.79,105.33 -283.12,61.24 -57.33,-44.1 -57.7,-176.06 -88.76,-237.62 -31.06,-61.57 -92.79,-52.76 -142.77,-30.71 -49.98,22.05 -88.19,57.33 -83.78,25 4.41,-32.34 51.44,-132.3 111.7,-166.1 60.27,-33.81 133.77,-1.48 176.39,39.68 42.63,41.16 54.39,91.13 91.72,98.9 37.34,7.76 100.25,-26.68 125.64,-96.3 25.4,-69.62 13.27,-174.4 -6.43,-232.14 -19.69,-57.75 -46.95,-68.44 -59.12,-125.23 -12.16,-56.8 -9.22,-159.7 46.63,-243.48 55.86,-83.79 164.64,-148.46 208.73,-170.51 44.1,-22.05 23.52,-1.48 24.99,61.73 1.47,63.2 24.99,169.04 35.28,289.57z"/>
   <path class="fil8" d="M6657.89 10939.89c11.76,129.35 38.21,285.16 97.01,421.86 58.79,136.7 149.93,254.3 310.15,348.38 160.22,94.07 389.52,164.62 598.25,198.43 208.73,33.81 396.88,30.87 539.46,-5.88 142.58,-36.75 239.6,-107.3 308.69,-148.46 69.08,-41.16 110.23,-52.91 121.99,-20.57 11.76,32.33 -5.87,108.77 11.77,122 17.64,13.22 70.55,-36.75 110.24,-138.17 39.69,-101.43 66.14,-254.3 64.67,-391 -1.47,-136.7 -30.86,-257.24 -97,-393.94 -66.15,-136.7 -169.05,-289.57 -258.71,-398.34 -89.67,-108.78 -166.1,-173.45 -261.64,-232.25 -95.55,-58.8 -210.21,-111.71 -342.5,-144.05 -132.29,-32.34 -282.22,-44.1 -452.73,-11.76 -170.51,32.34 -361.6,108.77 -490.95,192.56 -129.35,83.78 -196.97,174.92 -232.24,271.93 -35.28,97.01 -38.22,199.91 -26.46,329.26z"/>
   <path class="fil9" d="M11285.17 10776.77c52.92,-101.43 144.05,-277.82 238.12,-407.17 94.08,-129.36 191.1,-211.67 293.99,-276.35 102.89,-64.68 211.67,-111.71 330.73,-136.7 119.06,-24.99 248.42,-27.93 389.53,2.94 141.11,30.87 293.98,95.54 407.16,155.81 113.19,60.27 186.68,116.12 241.07,194.03 54.39,77.9 89.66,177.86 92.6,301.33 2.94,123.47 -26.46,270.46 -73.5,411.57 -47.03,141.11 -111.71,276.35 -180.8,371.9 -69.08,95.54 -142.57,151.39 -244,207.25 -101.42,55.86 -230.78,111.71 -404.23,132.29 -173.45,20.58 -390.99,5.88 -546.8,-24.99 -155.81,-30.87 -249.89,-77.9 -307.22,-102.89 -57.32,-24.99 -77.9,-27.93 -97.01,-13.23 -19.11,14.7 -36.74,47.04 -49.97,67.62 -13.23,20.58 -22.05,29.39 -48.51,14.69 -26.46,-14.7 -70.55,-52.91 -102.89,-113.17 -32.34,-60.27 -52.92,-142.59 -54.39,-251.36 -1.47,-108.77 16.17,-244.01 32.34,-324.85 16.17,-80.85 30.86,-107.3 83.78,-208.72z"/>
   <path class="fil10" d="M6825.43 10862.06c-13.97,63.21 -26.47,132.3 -25,202.13 1.47,69.82 16.91,140.36 43.74,210.91 26.83,70.55 65.05,141.11 110.62,207.99 45.57,66.88 98.48,130.08 166.83,184.47 68.35,54.39 152.14,99.95 232.25,133.76 80.11,33.81 156.54,55.86 245.47,67.62 88.93,11.76 190.36,13.23 297.66,3.68 107.3,-9.56 220.49,-30.14 310.16,-57.33 89.66,-27.2 155.8,-61 219.01,-105.1 63.21,-44.1 123.47,-98.48 167.57,-160.95 44.1,-62.48 72.02,-133.03 80.84,-202.12 8.82,-69.09 -1.47,-136.7 -27.19,-222.69 -25.73,-85.99 -66.88,-190.36 -124.21,-282.96 -57.33,-92.6 -130.82,-173.45 -204.31,-235.18 -73.5,-61.74 -147,-104.36 -265.32,-144.05 -118.33,-39.69 -281.49,-76.43 -439.5,-81.57 -158.02,-5.15 -310.9,21.3 -434,77.16 -123.11,55.85 -216.45,141.11 -270.83,212.4 -54.39,71.29 -69.83,128.61 -83.79,191.83z"/>
   <path class="fil11" d="M11368.91 11273.66c22.79,68.35 63.95,137.44 121.27,192.56 57.33,55.12 130.83,96.28 212.41,126.42 81.58,30.13 171.24,49.23 268.99,60.99 97.75,11.76 203.59,16.17 308.68,2.94 105.1,-13.23 209.47,-44.09 305.74,-88.19 96.28,-44.1 184.48,-101.42 263.12,-172.71 78.64,-71.29 147.72,-156.55 198.43,-241.07 50.72,-84.52 83.05,-168.3 93.34,-249.14 10.29,-80.85 -1.46,-158.76 -31.6,-234.46 -30.13,-75.7 -78.64,-149.19 -130.83,-213.13 -52.18,-63.95 -108.03,-118.33 -187.41,-163.16 -79.37,-44.84 -182.27,-80.11 -333.67,-78.64 -151.4,1.47 -351.3,39.68 -515.2,106.56 -163.89,66.88 -291.78,162.43 -386.59,291.78 -94.81,129.35 -156.54,292.51 -185.21,407.9 -28.66,115.39 -24.25,183 -1.47,251.35z"/>
   <path class="fil12" d="M6980.96 10756.68c-29.18,96.63 -46.81,212.75 -50.48,320.06 -3.68,107.3 6.6,205.78 67.6,315.29 61,109.51 172.72,230.04 301.34,306.48 128.61,76.43 274.14,108.77 413.05,112.45 138.9,3.67 271.19,-21.32 373.35,-57.33 102.16,-36.02 174.18,-83.05 230.78,-136.7 56.59,-53.66 97.74,-113.92 130.08,-182.27 32.34,-68.35 55.86,-144.79 69.83,-230.04 13.96,-85.26 18.37,-179.33 -3.37,-268.55 -21.74,-89.23 -69.64,-173.61 -123.86,-244.88 -54.22,-71.27 -114.78,-129.43 -202.75,-179.46 -87.97,-50.03 -203.35,-91.93 -339.13,-116.55 -135.78,-24.62 -291.96,-31.97 -421.33,-10.66 -129.37,21.3 -231.95,71.27 -303.59,134.83 -71.64,63.55 -112.35,140.69 -141.52,237.33z"/>
   <path class="fil13" d="M11491.3 11034.37c28.2,113.71 69.36,226.89 122.27,307.01 52.92,80.11 117.6,127.14 192.56,166.83 74.97,39.69 160.22,72.02 240.96,95.53 80.74,23.5 156.95,38.16 246.01,30.8 89.07,-7.37 190.99,-36.76 292.52,-105.09 101.53,-68.34 202.69,-175.62 260.61,-277.76 57.93,-102.14 72.63,-199.16 71.16,-293.97 -1.47,-94.81 -19.11,-187.41 -40.43,-266.79 -21.31,-79.38 -46.29,-145.52 -80.1,-206.52 -33.81,-61.01 -76.43,-116.86 -113.82,-159.41 -37.39,-42.56 -69.53,-71.8 -121.62,-86.92 -52.09,-15.13 -124.12,-16.14 -230.65,0.31 -106.53,16.45 -247.56,50.34 -366.99,90.49 -119.42,40.14 -217.25,86.53 -302.18,148.13 -84.92,61.59 -156.94,138.4 -185.34,233.92 -28.39,95.51 -13.16,209.73 15.04,323.44z"/>
   <path class="fil14" d="M7164.06 10769.71c-17.59,96.19 -27.88,182.92 -31.98,267.24 -4.1,84.32 -2.01,166.25 17.1,272.08 19.11,105.83 55.23,235.58 136.5,323.24 81.27,87.65 207.69,133.21 320.87,142.77 113.18,9.55 213.14,-16.9 301.34,-68.35 88.19,-51.45 164.62,-127.88 219.01,-223.42 54.39,-95.55 86.72,-210.21 105.12,-306.36 18.39,-96.16 22.85,-173.83 18.81,-267.53 -4.05,-93.7 -16.59,-203.45 -56.82,-282.55 -40.23,-79.1 -108.14,-127.55 -217.28,-170.18 -109.15,-42.63 -259.52,-79.43 -390.61,-77.53 -131.1,1.89 -242.91,42.48 -311.26,115.61 -68.35,73.12 -93.22,178.79 -110.8,274.98z"/>
   <path class="fil15" d="M11752.9 11260.56c52.91,80.5 111.67,156.26 202.68,217.8 91.01,61.54 214.27,108.86 323.77,101.88 109.51,-6.98 205.28,-68.27 274.12,-136.76 68.84,-68.5 110.75,-144.21 140.89,-227.26 30.14,-83.05 48.51,-173.44 52.55,-261.29 4.05,-87.85 -6.23,-173.17 -27.54,-258.45 -21.3,-85.29 -53.63,-170.54 -88.18,-241.83 -34.54,-71.29 -71.28,-128.62 -98.32,-166.06 -27.03,-37.44 -44.36,-54.99 -90.33,-57.54 -45.97,-2.56 -120.59,9.88 -205.44,24.56 -84.85,14.68 -179.93,31.58 -280.44,60.81 -100.51,29.22 -206.45,70.76 -265.61,128.46 -59.15,57.69 -71.53,131.53 -77.92,228.34 -6.39,96.8 -6.79,216.56 16.52,319.07 23.32,102.5 70.35,187.76 123.25,268.27z"/>
   <path class="fil16" d="M7861.42 10892.49c15.43,53.65 9.55,152.14 -14.4,199.11 -23.96,46.96 -65.99,42.41 -99.8,40.94 -33.81,-1.47 -59.39,0.14 -77.33,-32.86 -17.94,-33.01 -28.23,-100.62 -31.17,-152.8 -2.94,-52.19 1.47,-88.93 24.99,-107.3 23.52,-18.38 66.14,-18.38 105.83,-13.97 39.69,4.41 76.44,13.23 91.88,66.88z"/>
   <path class="fil17" d="M7945.2 10715.36c-2.21,14.7 -16.9,24.99 -41.89,30.87 -24.99,5.88 -60.27,7.35 -95.55,5.88 -35.28,-1.47 -70.55,-5.88 -104.36,-2.94 -33.81,2.94 -66.15,13.23 -91.87,5.15 -25.73,-8.09 -44.83,-34.54 -23.51,-55.85 21.31,-21.32 83.04,-37.49 146.25,-42.63 63.21,-5.15 127.88,0.73 165.37,13.23 37.48,12.49 47.76,31.59 45.56,46.29z"/>
   <path class="fil17" d="M12324.07 10734.49c8.09,42.63 12.5,108.77 0.74,156.55 -11.76,47.77 -39.69,77.16 -74.24,89.66 -34.54,12.49 -75.69,8.09 -106.56,-13.96 -30.87,-22.05 -51.45,-61.74 -63.95,-105.1 -12.49,-43.37 -16.89,-90.4 -22.77,-123.47 -5.88,-33.08 -13.23,-52.19 8.82,-65.42 22.05,-13.23 73.49,-20.58 116.12,-22.78 42.63,-2.21 76.43,0.73 99.21,11.76 22.79,11.02 34.55,30.13 42.63,72.76z"/>
   <path class="fil17" d="M12335.83 10555.9c-21.31,18.37 -65.4,31.6 -109.5,35.28 -44.1,3.67 -88.2,-2.21 -126.42,-4.41 -38.22,-2.21 -70.55,-0.74 -88.93,-16.17 -18.37,-15.44 -22.78,-47.78 13.23,-68.36 36.02,-20.58 112.45,-29.4 174.19,-29.4 61.74,0 108.77,8.82 133.02,24.99 24.26,16.17 25.73,39.69 4.41,58.07z"/>
   <path class="fil18" d="M9862.72 12538.05c120.53,1.47 302.8,-4.4 443.91,-4.4 141.11,0 241.07,5.87 314.56,8.81 73.5,2.94 120.53,2.94 169.04,45.57 48.51,42.63 98.48,127.88 126.19,204.69 27.71,76.8 33.14,145.14 26.49,190.77 -6.65,45.63 -25.39,68.54 -70.74,97.57 -45.34,29.03 -117.29,64.19 -228.23,127.34 -110.94,63.14 -260.87,154.27 -379.93,216.01 -119.07,61.74 -207.26,94.07 -330.73,69.09 -123.48,-24.99 -282.23,-107.31 -414.52,-179.33 -132.29,-72.03 -238.13,-133.76 -308.68,-185.21 -70.56,-51.45 -105.83,-92.6 -113.18,-169.03 -7.35,-76.44 13.22,-188.16 54.38,-258.71 41.16,-70.56 102.89,-99.96 185.21,-123.48 82.31,-23.52 185.21,-41.15 266.06,-45.56 80.84,-4.41 139.63,4.4 260.17,5.87z"/>
   <path class="fil19" d="M9208.86 13023.86c51.2,31.6 123.22,78.64 191.58,91.14 68.35,12.49 133.02,-9.56 183.74,-16.17 50.71,-6.62 87.45,2.2 135.23,41.89 47.77,39.68 106.56,110.24 153.6,158.01 47.04,47.77 82.31,72.76 108.77,71.29 26.46,-1.47 44.1,-29.39 84.53,-53.64 40.42,-24.26 103.62,-44.84 157.28,-81.59 53.65,-36.75 97.74,-89.66 139.64,-124.94 41.89,-35.28 81.57,-52.92 149.18,-65.41 67.62,-12.5 163.17,-19.85 227.84,-28.67 64.68,-8.82 98.49,-19.1 126.76,-40.86 28.27,-21.77 50.99,-55 62.35,-71.62 11.37,-16.62 11.37,-16.62 7.93,9.11 -3.44,25.73 -10.32,77.19 -40.73,120.27 -30.4,43.07 -84.34,77.76 -159.88,137.74 -75.54,59.97 -172.68,145.22 -255.06,226.8 -82.38,81.58 -150,159.49 -202.91,233.72 -52.92,74.23 -91.14,144.78 -120.54,193.29 -29.4,48.51 -49.97,74.97 -68.2,88.45 -18.23,13.48 -34.12,13.97 -58.92,-14.86 -24.8,-28.83 -58.51,-86.99 -98.34,-146.77 -39.84,-59.78 -85.78,-121.18 -148.44,-180.54 -62.66,-59.37 -142.04,-116.69 -241.25,-174.75 -99.22,-58.07 -218.29,-116.86 -295.95,-189.62 -77.66,-72.76 -113.91,-159.48 -132.04,-202.84 -18.13,-43.36 -18.13,-43.36 -2.94,-35.28 15.19,8.08 45.56,24.25 96.77,55.85z"/>
   <path class="fil20" d="M9474.64 13209.83c57.33,24.99 114.65,44.09 162.43,67.61 47.77,23.52 85.98,51.45 110.24,63.95 24.25,12.49 34.54,9.55 40.63,-13.56 6.09,-23.12 7.98,-66.42 -4.14,-100.96 -12.12,-34.55 -38.26,-60.35 -76.68,-73.24 -38.43,-12.9 -89.16,-12.9 -143.92,-8.48 -54.76,4.41 -113.55,13.23 -157.65,10.29 -44.1,-2.94 -73.49,-17.64 -88.19,-24.99 -14.7,-7.35 -14.7,-7.35 13.97,8.09 28.66,15.43 85.98,46.3 143.31,71.29z"/>
   <path class="fil21" d="M10311.06 13290.34c5.55,-17.64 15.17,-38.95 24.55,-69.64 9.37,-30.7 18.5,-70.77 38.31,-95.39 19.8,-24.63 50.29,-33.79 80.97,-40.21 30.68,-6.42 61.55,-10.1 89.11,-10.83 27.56,-0.74 51.82,1.47 81.58,2.57 29.77,1.1 65.05,1.1 92.24,-3.31 27.2,-4.41 46.3,-13.23 56.59,-17.64 10.29,-4.41 11.76,-4.41 -22.05,16.17 -33.81,20.58 -102.89,61.73 -160.96,94.81 -58.06,33.07 -105.09,58.06 -151.39,84.89 -46.31,26.82 -91.87,55.49 -113.92,62.84 -22.05,7.34 -20.58,-6.62 -15.03,-24.26z"/>
  </g>
 </g>
</svg>
