<?xml version="1.0" encoding="UTF-8"?>
<!DOCTYPE svg PUBLIC "-//W3C//DTD SVG 1.1//EN" "http://www.w3.org/Graphics/SVG/1.1/DTD/svg11.dtd">
<!-- Creator: CorelDRAW 2018 (64-Bit) -->
<svg xmlns="http://www.w3.org/2000/svg" xml:space="preserve" width="210mm" height="297mm" version="1.1" style="shape-rendering:geometricPrecision; text-rendering:geometricPrecision; image-rendering:optimizeQuality; fill-rule:evenodd; clip-rule:evenodd"
viewBox="0 0 21000 29700"
 xmlns:xlink="http://www.w3.org/1999/xlink">
 <defs>
  <style type="text/css">
   <![CDATA[
    .fil15 {fill:#FEFEFE}
    .fil16 {fill:#FEFEFE}
    .fil13 {fill:#2B2A29}
    .fil7 {fill:#131108}
    .fil10 {fill:#4189AB}
    .fil14 {fill:#4A421E}
    .fil6 {fill:#4A421E}
    .fil11 {fill:#4DA0C7}
    .fil12 {fill:#4DA0C7}
    .fil8 {fill:#B0A393}
    .fil9 {fill:#B0A393}
    .fil2 {fill:#C6AE8D}
    .fil3 {fill:#C6AE8D}
    .fil1 {fill:#E0D7C6}
    .fil17 {fill:#E0D7C6}
    .fil4 {fill:url(#id0)}
    .fil5 {fill:url(#id1)}
    .fil0 {fill:url(#id2)}
   ]]>
  </style>
  <linearGradient id="id0" gradientUnits="userSpaceOnUse" x1="10534.69" y1="1527.81" x2="9150.03" y2="10185.58">
   <stop offset="0" style="stop-opacity:1; stop-color:#131108"/>
   <stop offset="1" style="stop-opacity:1; stop-color:#C6AE8D"/>
  </linearGradient>
  <linearGradient id="id1" gradientUnits="userSpaceOnUse" x1="12990.22" y1="10964.69" x2="16681.24" y2="10051.73">
   <stop offset="0" style="stop-opacity:1; stop-color:#C6AE8D"/>
   <stop offset="1" style="stop-opacity:1; stop-color:#17140B"/>
  </linearGradient>
  <radialGradient id="id2" gradientUnits="userSpaceOnUse" gradientTransform="matrix(-0.0133871 -3.08524 3.08524 -0.0133871 -71224 58037)" cx="10135" cy="26414.32" r="9207.5" fx="10135" fy="26414.32">
   <stop offset="0" style="stop-opacity:1; stop-color:#FEFEFE"/>
   <stop offset="0.329412" style="stop-opacity:1; stop-color:#F5F0A2"/>
   <stop offset="0.65098" style="stop-opacity:1; stop-color:white"/>
   <stop offset="1" style="stop-opacity:1; stop-color:#95C671"/>
  </radialGradient>
 </defs>
 <g id="Слой_x0020_1">
  <metadata id="CorelCorpID_0Corel-Layer"/>
  <g id="_2114468670752">
   <circle class="fil0" cx="9643.94" cy="9718.06" r="8184.45"/>
   <path class="fil1" d="M4293.48 7854.21c111.71,-170.51 270.46,-299.87 376.3,-393.94 105.83,-94.08 158.74,-152.87 235.18,-246.94 76.43,-94.08 176.39,-223.43 311.62,-385.12 135.23,-161.69 305.74,-355.72 432.15,-473.31 126.41,-117.6 208.73,-158.75 288.11,-232.24 79.37,-73.5 155.8,-179.34 249.88,-282.23 94.07,-102.89 205.79,-202.85 373.36,-258.7 167.57,-55.86 390.99,-67.62 596.78,-26.46 205.79,41.15 393.93,135.23 582.08,238.12 188.15,102.89 376.3,214.61 520.35,352.78 144.05,138.17 244.01,302.8 326.33,461.55 82.31,158.75 146.98,311.62 229.3,476.25 82.31,164.63 182.27,341.02 329.26,329.26 146.99,-11.76 341.01,-211.66 508.58,-279.27 167.57,-67.62 308.69,-2.95 446.86,194.02 138.17,196.97 273.4,526.22 449.79,743.77 176.39,217.55 393.93,323.38 576.2,438.04 182.27,114.65 329.26,238.12 485.07,423.33 155.81,185.21 320.44,432.15 452.73,664.4 132.29,232.25 232.25,449.79 314.56,611.48 82.32,161.69 146.99,267.53 273.4,282.23 126.42,14.69 314.57,-61.74 511.54,-111.72 196.97,-49.98 402.75,-73.49 582.08,23.52 179.33,97.01 332.2,314.56 432.15,479.19 99.96,164.62 146.99,276.34 152.87,370.42 5.88,94.07 -29.39,170.5 -108.77,267.52 -79.37,97.01 -202.85,214.61 -314.56,332.2 -111.71,117.59 -211.67,235.19 -320.44,364.54 -108.77,129.35 -226.37,270.46 -255.77,452.73 -29.39,182.27 29.4,405.69 135.23,690.86 105.84,285.16 258.71,632.05 438.04,923.1 179.33,291.04 385.12,526.22 544.98,810.43 159.87,284.22 273.8,617.46 330.77,784.08 56.97,166.62 56.97,166.62 -21.4,226.42 -78.36,59.81 -235.1,179.42 -423.32,309.34 -188.22,129.93 -407.93,270.18 -585.99,376.85 -178.06,106.67 -314.48,179.76 -504.24,269.79 -189.75,90.04 -432.84,197 -660.81,286.23 -227.96,89.23 -440.78,160.71 -685.23,228.8 -244.44,68.09 -520.5,132.79 -760.85,179.55 -240.35,46.76 -445,75.59 -688,97.17 -243,21.58 -524.35,35.92 -665.03,43.08 -140.68,7.17 -140.68,7.17 -111.28,-78.09 29.4,-85.25 88.19,-255.75 58.8,-537.98 -29.4,-282.22 -147,-676.15 -252.83,-1105.37 -105.83,-429.21 -199.91,-893.7 -305.74,-1322.92 -105.83,-429.21 -223.43,-823.14 -343.96,-1131.82 -120.53,-308.69 -244,-532.11 -352.77,-676.16 -108.78,-144.06 -202.85,-208.73 -305.74,-308.68 -102.9,-99.96 -214.62,-235.19 -361.61,-443.91 -146.99,-208.73 -329.25,-490.96 -493.88,-679.1 -164.63,-188.15 -311.62,-282.23 -473.31,-446.86 -161.69,-164.63 -338.08,-399.81 -458.61,-576.2 -120.54,-176.39 -185.21,-293.99 -293.98,-373.36 -108.78,-79.38 -261.65,-120.53 -429.22,-199.9 -167.57,-79.38 -349.84,-196.98 -517.41,-361.61 -167.57,-164.63 -320.44,-376.29 -499.77,-585.02 -179.33,-208.73 -385.11,-414.51 -455.66,-623.24 -70.56,-208.73 -5.89,-420.39 105.83,-590.9z"/>
   <path class="fil2" d="M13061.5 12746.1c-113.18,-47.04 -310.15,-135.23 -433.63,-302.8 -123.47,-167.57 -173.44,-414.52 -204.31,-602.66 -30.87,-188.15 -42.63,-317.51 1.47,-426.28 44.1,-108.78 144.05,-196.97 249.88,-266.06 105.84,-69.09 217.56,-119.06 321.92,-185.2 104.36,-66.15 201.38,-148.47 291.04,-195.5 89.66,-47.04 171.98,-58.8 291.04,-42.63 119.06,16.17 274.88,60.26 364.54,139.64 89.67,79.37 113.18,194.03 162.01,288.59 48.83,94.56 122.98,169.02 146.49,226.84 23.52,57.81 -3.6,98.96 -69.58,174.91 -65.98,75.94 -170.84,186.68 -276.67,302.8 -105.83,116.12 -212.65,237.64 -292.63,333.3 -79.98,95.66 -133.14,165.46 -172.75,228.1 -39.61,62.64 -65.69,118.12 -82.65,184.54 -16.96,66.41 -24.82,143.77 -44,179.13 -19.18,35.36 -49.68,28.71 -79.64,22.45 -29.95,-6.26 -59.34,-12.13 -172.53,-59.17z"/>
   <path class="fil3" d="M10058.45 11002.81c-44.1,217.54 -97.01,476.25 -185.2,643.82 -88.2,167.56 -211.68,244 -305.75,370.41 -94.08,126.41 -158.75,302.8 -241.06,388.06 -82.32,85.25 -182.28,79.37 -308.69,64.67 -126.41,-14.7 -279.28,-38.21 -364.53,-108.76 -85.26,-70.56 -102.9,-188.16 -161.69,-288.11 -58.8,-99.96 -158.76,-182.27 -238.13,-267.52 -79.38,-85.26 -138.17,-173.46 -173.45,-302.81 -35.28,-129.35 -47.04,-299.86 -99.95,-470.37 -52.92,-170.51 -147,-341.02 -147,-479.19 0,-138.17 94.08,-244.01 211.67,-379.24 117.59,-135.23 258.71,-299.86 352.79,-420.39 94.07,-120.53 141.1,-196.97 164.62,-282.22 23.52,-85.25 23.52,-179.33 70.56,-188.15 47.03,-8.82 141.11,67.62 361.6,155.81 220.48,88.19 567.38,188.15 781.99,238.13 214.6,49.97 296.92,49.97 341.02,167.57 44.09,117.59 49.97,352.77 35.27,558.56 -14.7,205.79 -49.97,382.18 -94.07,599.73z"/>
   <path class="fil3" d="M8442.52 6593.98c-10.78,-75.54 -5.89,-153.13 -27.93,-175.18 -22.05,-22.05 -71.05,11.44 -104.36,-1.22 -33.32,-12.66 -50.96,-71.45 -84.77,-121.43 -33.81,-49.98 -83.78,-91.13 -124.94,-99.95 -41.16,-8.82 -73.5,14.7 -120.53,13.23 -47.04,-1.47 -108.78,-27.93 -189.62,-42.63 -80.85,-14.7 -180.8,-17.64 -285.16,-47.04 -104.37,-29.4 -213.15,-85.25 -332.21,-130.82 -119.06,-45.57 -248.41,-80.84 -389.52,-54.38 -141.11,26.45 -293.99,114.65 -410.11,185.21 -116.12,70.55 -195.5,123.46 -277.81,177.85 -82.32,54.39 -167.57,110.24 -248.41,174.92 -80.85,64.68 -157.29,138.17 -252.83,255.77 -95.54,117.59 -210.2,279.28 -286.63,398.35 -76.44,119.06 -114.65,195.49 -157.28,317.5 -42.63,122 -89.67,289.57 -102.9,467.43 -13.23,177.86 7.35,366.01 42.63,555.63 35.28,189.62 85.25,380.7 119.06,545.33 33.81,164.63 51.45,302.81 130.83,427.75 79.37,124.94 220.48,236.66 388.05,307.22 167.57,70.55 361.6,99.94 532.11,130.81 170.51,30.87 317.5,63.21 432.16,95.55 114.65,32.34 196.96,64.67 270.46,44.09 73.49,-20.58 138.17,-94.07 216.08,-185.2 77.9,-91.14 169.03,-199.92 257.23,-288.11 88.19,-88.2 173.45,-155.81 248.42,-239.59 74.96,-83.79 139.63,-183.75 198.43,-271.94 58.8,-88.19 111.71,-164.63 180.8,-241.06 69.09,-76.44 154.34,-152.87 242.54,-207.26 88.19,-54.39 179.33,-86.72 241.07,-111.71 61.73,-24.99 94.06,-42.63 99.94,-94.08 5.88,-51.45 -14.69,-136.7 -24.98,-220.48 -10.29,-83.79 -10.29,-166.11 -7.35,-238.13 2.94,-72.03 8.82,-133.76 11.76,-199.91 2.94,-66.15 2.94,-136.7 -20.58,-230.77 -23.52,-94.08 -70.55,-211.68 -91.13,-327.8 -20.58,-116.12 -14.71,-230.78 -25,-324.85 -10.29,-94.07 -36.74,-167.57 -47.52,-243.1z"/>
   <path class="fil4" d="M10472.96 4917.43c58.79,-70.56 135.23,-152.88 167.56,-232.25 32.34,-79.38 20.58,-155.81 -5.88,-220.49 -26.46,-64.68 -67.61,-117.59 -88.19,-161.69 -20.58,-44.1 -20.58,-79.37 23.51,-132.29 44.1,-52.92 132.3,-123.47 199.91,-173.45 67.62,-49.98 114.66,-79.37 126.42,-141.1 11.76,-61.74 -11.76,-155.82 -23.52,-217.55 -11.76,-61.74 -11.76,-91.14 5.88,-126.42 17.64,-35.28 52.91,-76.43 88.19,-126.41 35.28,-49.98 70.56,-108.77 82.32,-155.81 11.76,-47.04 0,-82.31 -11.76,-149.92 -11.76,-67.62 -23.52,-167.58 -58.8,-249.89 -35.28,-82.32 -94.07,-146.99 -194.03,-179.33 -99.95,-32.34 -241.06,-32.34 -355.71,-11.76 -114.65,20.58 -202.85,61.73 -282.22,111.71 -79.38,49.98 -149.93,108.77 -214.61,161.69 -64.68,52.92 -123.47,99.95 -194.03,138.17 -70.56,38.22 -152.87,67.61 -199.91,179.33 -47.04,111.71 -58.79,305.74 -114.64,540.93 -55.86,235.18 -155.82,511.53 -252.83,849.61 -97.02,338.07 -191.09,737.89 -249.88,1158.76 -58.8,420.86 -82.31,862.78 -123.46,1380.19 -41.16,517.41 -99.97,1110.3 -142.11,1508.17 -42.14,397.86 -67.61,600.7 -99.95,791.79 -32.34,191.08 -71.54,370.43 -64.68,495.38 6.86,124.95 59.77,195.5 168.55,263.12 108.77,67.62 273.4,132.29 408.63,285.16 135.23,152.87 241.07,393.94 349.84,446.86 108.77,52.91 220.49,-82.32 273.41,-258.71 52.91,-176.39 47.03,-393.93 114.16,-448.81 67.12,-54.89 207.26,52.88 307.21,-11.79 99.95,-64.68 159.73,-301.81 219.02,-508.57 59.28,-206.76 118.07,-383.15 112.2,-765.32 -5.88,-382.18 -76.44,-970.15 -114.65,-1364.08 -38.22,-393.94 -44.1,-593.84 -67.62,-720.25 -23.52,-126.42 -64.68,-179.33 -88.2,-249.88 -23.52,-70.56 -29.39,-158.76 2.95,-220.49 32.33,-61.74 102.89,-97.02 138.17,-149.94 35.27,-52.92 35.27,-123.47 26.45,-185.21 -8.82,-61.74 -26.45,-114.65 -47.03,-164.63 -20.58,-49.98 -44.1,-97.01 -55.86,-167.56 -11.76,-70.56 -11.76,-164.64 5.88,-273.41 17.64,-108.77 52.91,-232.25 91.13,-323.38 38.22,-91.14 79.38,-149.93 138.18,-220.48z"/>
   <path class="fil5" d="M15311.87 10235.59c155.81,123.47 326.32,270.46 482.13,398.35 155.81,127.88 296.93,236.65 408.64,314.56 111.71,77.91 194.03,124.94 255.76,158.75 61.74,33.81 102.89,54.38 149.93,85.25 47.04,30.87 99.95,72.03 122,127.89 22.05,55.85 13.24,126.41 16.18,195.5 2.94,69.08 17.63,136.69 19.1,202.84 1.47,66.15 -10.28,130.82 -54.38,195.5 -44.1,64.68 -120.53,129.35 -179.33,155.81 -58.8,26.46 -99.95,14.7 -152.87,17.64 -52.92,2.94 -117.59,20.58 -185.21,32.34 -67.62,11.76 -138.17,17.64 -219.02,-1.47 -80.84,-19.11 -171.98,-63.21 -248.42,-94.08 -76.43,-30.87 -138.16,-48.5 -167.56,-113.17 -29.4,-64.68 -26.46,-176.4 -24.99,-242.54 1.47,-66.15 1.47,-86.73 -45.57,-66.15 -47.03,20.58 -141.11,82.31 -214.61,104.36 -73.49,22.05 -126.4,4.41 -177.85,-38.22 -51.45,-42.63 -101.43,-110.24 -155.82,-196.96 -54.39,-86.73 -113.18,-192.57 -166.1,-252.83 -52.92,-60.27 -99.95,-74.96 -152.87,-45.56 -52.92,29.39 -111.71,102.89 -175.69,160.61 -63.97,57.72 -133.11,99.68 -183.09,112.91 -49.98,13.23 -80.78,-2.27 -124.12,-17.36 -43.33,-15.1 -99.18,-29.8 -181.5,-87.12 -82.31,-57.33 -191.09,-157.29 -291.04,-216.08 -99.95,-58.8 -191.09,-76.44 -295.45,-44.1 -104.36,32.34 -221.96,114.65 -346.9,161.69 -124.94,47.04 -257.24,58.8 -362.36,123.01 -105.11,64.2 -183.05,180.84 -231.56,119.11 -48.5,-61.74 -67.58,-301.86 -72.71,-463.08 -5.12,-161.22 3.7,-243.53 55.15,-319.01 51.46,-75.48 145.54,-144.11 257.25,-210.25 111.72,-66.15 241.06,-129.81 458.6,-232.19 217.54,-102.38 523.28,-243.5 730.53,-322.87 207.26,-79.38 316.04,-97.02 429.22,-105.84 113.18,-8.82 230.78,-8.82 329.26,5.88 98.49,14.7 177.86,44.1 288.1,108.78 110.25,64.67 251.36,164.63 407.17,288.1z"/>
   <path class="fil6" d="M5628.05 9331.62c55.86,36.75 126.41,101.42 227.84,142.58 101.42,41.16 233.71,58.8 354.24,30.87 120.53,-27.93 229.31,-101.42 333.68,-124.94 104.36,-23.52 204.31,2.93 288.1,33.8 83.78,30.87 151.4,66.15 249.41,88.68 98,22.52 226.4,32.28 346.94,7.3 120.53,-24.99 233.19,-84.74 342.44,-191.04 109.25,-106.31 215.09,-259.19 281.24,-388.54 66.14,-129.35 92.6,-235.19 97.01,-321.91 4.41,-86.73 -13.23,-154.34 2.94,-220.48 16.17,-66.15 66.14,-130.83 105.83,-189.62 39.69,-58.8 69.08,-111.71 76.43,-177.86 7.35,-66.15 -7.34,-145.52 -38.21,-226.37 -30.87,-80.85 -77.9,-163.16 -114.65,-230.78 -36.75,-67.62 -63.21,-120.53 -22.05,-173.45 41.15,-52.92 149.93,-105.83 146.99,-214.6 -2.94,-108.78 -117.6,-273.41 -202.85,-407.17 -85.26,-133.76 -141.11,-236.66 -219.01,-316.03 -77.91,-79.38 -177.87,-135.23 -285.17,-151.4 -107.3,-16.17 -221.96,7.35 -302.8,27.93 -80.85,20.58 -127.88,38.21 -214.6,41.15 -86.73,2.94 -213.15,-8.81 -304.28,-17.63 -91.14,-8.82 -146.99,-14.7 -201.38,17.64 -54.39,32.33 -107.3,102.89 -152.87,145.52 -45.57,42.62 -83.78,57.32 -129.35,67.61 -45.57,10.29 -98.48,16.17 -158.75,7.35 -60.27,-8.82 -127.88,-32.34 -161.69,-23.52 -33.81,8.82 -33.81,49.98 -71.48,59.81 -37.68,9.83 -113.03,-11.67 -124.79,16.26 -11.76,27.93 40.07,105.28 21.89,148.37 -18.18,43.09 -106.38,51.91 -135.77,73.96 -29.4,22.05 -0.01,57.32 -10.3,74.96 -10.29,17.64 -60.26,17.64 -72.02,36.75 -11.76,19.11 14.7,57.32 -1.47,79.37 -16.17,22.05 -74.96,27.93 -94.07,49.98 -19.11,22.05 1.47,60.26 -10.29,77.9 -11.76,17.64 -55.86,14.71 -58.8,32.35 -2.94,17.64 35.28,55.85 44.1,92.6 8.82,36.75 -11.76,72.02 -10.29,107.3 1.47,35.28 24.99,70.56 7.35,108.78 -17.64,38.22 -76.43,79.37 -80.84,111.71 -4.41,32.34 45.56,55.85 51.44,86.72 5.88,30.87 -32.33,69.09 -47.03,104.37 -14.7,35.28 -5.89,67.61 -20.59,91.13 -14.7,23.52 -52.91,38.22 -45.56,60.27 7.35,22.05 60.26,51.44 60.26,82.31 0,30.87 -52.91,63.21 -64.67,111.72 -11.76,48.51 17.64,113.18 22.05,164.63 4.41,51.45 -16.17,89.66 -11.76,148.46 4.41,58.8 33.8,138.17 32.33,189.62 -1.47,51.45 -33.8,74.96 -19.1,105.83 14.7,30.87 76.43,69.08 85.25,113.18 8.82,44.1 -35.27,94.08 -35.27,127.89 0,33.81 44.09,51.44 45.56,88.19 1.47,36.75 -39.68,92.6 -36.74,123.47 2.94,30.87 49.97,36.75 94.07,44.1 44.1,7.35 85.25,16.17 141.11,52.92z"/>
   <path class="fil7" d="M4683.99 9319.89c-76.06,-22.06 -164.26,-54.39 -242.16,-89.67 -77.91,-35.28 -145.52,-73.49 -204.32,-122 -58.8,-48.51 -108.77,-107.3 -157.28,-157.28 -48.51,-49.98 -95.54,-91.13 -186.67,-148.46 -91.14,-57.33 -226.38,-130.82 -382.19,-251.35 -155.81,-120.54 -332.19,-288.11 -473.3,-460.09 -141.11,-171.98 -246.95,-348.36 -257.24,-471.83 -10.29,-123.48 74.97,-194.03 174.92,-236.66 99.95,-42.63 214.61,-57.33 473.31,-64.68 258.7,-7.35 661.46,-7.35 952.5,-14.7 291.04,-7.35 470.37,-22.04 561.51,-19.1 91.13,2.94 94.07,23.51 72.02,42.62 -22.05,19.11 -69.08,36.75 -67.61,51.45 1.47,14.7 51.44,26.46 52.91,39.69 1.47,13.23 -45.56,27.92 -55.85,42.62 -10.29,14.7 16.16,29.4 2.93,47.04 -13.23,17.64 -66.14,38.22 -76.43,57.33 -10.29,19.11 22.05,36.74 16.17,52.91 -5.88,16.17 -49.98,30.87 -66.15,44.1 -16.17,13.23 -4.41,24.99 -20.58,35.28 -16.17,10.29 -60.26,19.11 -94.07,30.87 -33.81,11.76 -57.33,26.45 -38.22,36.74 19.11,10.29 80.84,16.17 70.56,32.34 -10.29,16.17 -92.61,42.63 -111.71,64.68 -19.11,22.05 24.98,39.68 30.86,57.32 5.88,17.64 -26.45,35.28 -20.57,49.98 5.88,14.7 49.97,26.46 36.74,47.04 -13.23,20.58 -83.78,49.97 -77.9,66.14 5.88,16.17 88.19,19.11 117.59,32.34 29.4,13.23 5.88,36.75 7.35,52.92 1.47,16.17 27.92,24.99 11.76,42.63 -16.17,17.64 -74.97,44.09 -86.72,61.73 -11.76,17.64 23.51,26.46 26.45,38.22 2.94,11.76 -26.46,26.46 -17.64,29.4 8.82,2.94 55.86,-5.88 48.51,14.7 -7.35,20.58 -69.08,70.55 -63.2,89.66 5.87,19.11 79.37,7.35 79.37,22.05 0,14.7 -73.5,55.85 -77.9,72.02 -4.41,16.17 60.26,7.36 83.78,25 23.52,17.64 5.88,61.73 36.75,70.55 30.86,8.82 110.24,-17.64 122,-17.64 11.75,0 -44.1,26.46 -39.69,42.63 4.41,16.17 69.08,22.05 85.25,33.81 16.17,11.76 -16.16,29.39 -1.46,49.97 14.7,20.58 76.43,44.1 80.84,60.27 4.41,16.17 -48.5,24.99 -41.15,42.63 7.34,17.64 74.96,44.09 83.78,70.55 8.81,26.46 -41.16,52.92 -54.39,76.44 -13.23,23.52 10.29,44.09 5.88,60.26 -4.41,16.17 -36.75,27.93 -36.75,58.8 0,30.87 32.34,80.84 70.56,148.46 38.22,67.61 82.31,152.87 118.45,237.38 36.13,84.51 64.3,168.27 78.39,210.16 14.08,41.88 14.08,41.88 -17.2,11.61 -31.29,-30.28 -93.86,-90.84 -153.89,-154.76 -60.03,-63.92 -117.52,-131.2 -178.22,-170.73 -60.71,-39.54 -124.63,-51.33 -200.68,-73.39z"/>
   <path class="fil7" d="M5982.27 4929.3c-24.99,-155.81 -51.45,-355.71 -47.04,-549.74 4.41,-194.03 39.68,-382.18 85.25,-488.01 45.57,-105.84 101.42,-129.35 208.73,-91.13 107.3,38.21 266.05,138.17 438.03,307.21 171.98,169.04 357.19,407.16 476.26,567.38 119.06,160.22 171.97,242.54 204.31,296.93 32.34,54.38 44.1,80.84 79.38,114.65 35.28,33.81 94.07,74.96 154.34,113.18 60.27,38.22 122,73.49 167.57,138.17 45.57,64.68 74.96,158.75 104.36,227.84 29.4,69.09 58.8,113.18 84.99,173.59 26.18,60.41 49.15,137.13 102.09,207.65 52.94,70.52 135.84,134.83 177.3,166.99 41.45,32.16 41.45,32.16 16.44,23.38 -25.01,-8.78 -75.03,-26.35 -136.79,-48.36 -61.76,-22.01 -135.25,-48.47 -213.15,-55.82 -77.91,-7.35 -160.23,4.41 -224.15,22.02 -63.92,17.61 -109.45,41.07 -146.2,32.25 -36.75,-8.82 -64.71,-49.92 -80.16,-85.17 -15.46,-35.25 -18.4,-64.64 -32.3,-54.45 -13.9,10.18 -38.77,59.94 -52,49.65 -13.23,-10.29 -14.82,-80.63 -14.82,-80.63 0,0 1.59,70.34 -10.16,57.12 -11.76,-13.23 -36.88,-110.04 -53.84,-136.39 -16.97,-26.35 -25.79,17.74 -46.37,17.74 -20.58,0 -52.91,-44.09 -70.32,-31.71 -17.42,12.38 -19.92,81.24 -33.15,70.95 -13.23,-10.29 -37.19,-99.73 -47.7,-128.28 -10.52,-28.55 -7.58,3.78 -20.81,-6.51 -13.23,-10.29 -42.62,-63.2 -64.67,-60.26 -22.05,2.94 -36.75,61.73 -67.62,58.79 -30.87,-2.94 -77.9,-67.61 -95.54,-66.14 -17.64,1.47 -5.89,69.08 -28.49,57.26 -22.61,-11.83 -79.59,-103.11 -104.57,-100.17 -24.99,2.94 -18,100.1 -36.55,135.45 -18.55,35.34 -62.64,8.89 -83.22,20.65 -20.58,11.76 -17.64,61.73 -22.05,76.43 -4.41,14.7 -16.17,-5.88 -25.17,15.38 -9.01,21.25 -15.26,84.35 -38.78,85.82 -23.52,1.47 -64.3,-58.69 -84.69,-66.71 -20.4,-8.03 -20.4,36.06 -30.69,43.41 -10.29,7.35 -30.86,-22.04 -48.5,-7.34 -17.64,14.7 -32.34,73.49 -55.86,85.25 -23.52,11.76 -55.86,-23.52 -74.97,-13.23 -19.11,10.29 -24.99,66.14 -47.04,91.13 -22.05,24.99 -60.26,19.11 -91.13,35.28 -30.87,16.17 -54.38,54.39 -84.26,63.1 -29.88,8.7 -66.13,-12.12 -84.47,-22.35 -18.35,-10.24 -18.8,-9.9 0.79,-90.63 19.59,-80.73 59.23,-242.52 90.81,-388.09 31.57,-145.58 55.08,-274.94 55.08,-395.47 0,-120.53 -23.51,-232.25 -48.5,-388.06z"/>
   <path class="fil7" d="M7483.03 8548.26c44.1,-4.41 114.65,-14.7 165.37,-32.34 50.71,-17.64 81.58,-42.63 111.72,-61.74 30.13,-19.11 59.52,-32.33 87.45,-47.76 27.93,-15.44 54.39,-33.08 81.59,-84.53 27.19,-51.45 55.11,-136.7 61.73,-203.58 6.61,-66.89 -8.08,-115.39 -37.48,-164.63 -29.4,-49.25 -73.5,-99.22 -127.89,-139.64 -54.39,-40.43 -119.06,-71.3 -160.22,-101.43 -41.16,-30.14 -58.79,-59.53 -51.44,-113.18 7.35,-53.66 39.68,-131.56 92.6,-241.07 52.92,-109.51 126.41,-250.62 171.25,-357.19 44.83,-106.57 61,-178.59 42.63,-257.97 -18.38,-79.38 -71.3,-166.1 -126.42,-225.63 -55.13,-59.54 -112.45,-91.87 -169.78,-105.83 -57.33,-13.97 -114.65,-9.56 -183,-5.88 -68.35,3.67 -147.73,6.61 -237.39,7.35 -89.67,0.73 -189.62,-0.74 -284.43,-2.21 -94.81,-1.47 -184.48,-2.94 -249.89,13.23 -65.41,16.17 -106.56,49.97 -148.45,94.07 -41.9,44.1 -84.53,98.48 -163.17,130.82 -78.64,32.34 -193.3,42.63 -292.42,62.63 -99.12,19.99 -182.7,49.7 -215.04,105.56 -32.34,55.85 -13.43,137.86 -28.23,168.58 -14.8,30.71 -63.3,10.14 -72.85,24.84 -9.56,14.7 19.84,64.67 6.61,88.93 -13.23,24.25 -69.08,22.78 -81.57,49.98 -12.5,27.19 18.36,83.04 -7.6,93.56 -25.96,10.52 -108.74,-24.31 -129.32,-14.75 -20.58,9.55 21.05,63.48 27.9,117.64 6.85,54.16 -21.08,108.55 -15.93,151.18 5.14,42.63 43.36,73.49 40.42,120.53 -2.94,47.04 -47.04,110.24 -73.5,167.57 -26.46,57.33 -35.28,108.77 -49.24,183.74 -13.97,74.97 -33.07,173.45 -31.6,282.96 1.47,109.51 23.51,230.05 25.72,324.86 2.2,94.8 -15.43,163.89 -3.67,237.39 11.76,73.49 52.91,151.39 74.96,221.22 22.05,69.82 24.99,131.55 61.01,153.6 36.01,22.05 105.09,4.41 150.66,37.49 45.57,33.07 67.61,116.85 106.57,138.17 38.95,21.31 94.8,-19.84 125.67,-19.84 30.87,0 36.75,41.15 72.03,33.07 35.28,-8.09 99.95,-65.41 141.11,-80.11 41.16,-14.7 58.8,13.23 96.29,4.41 37.48,-8.82 94.8,-54.39 128.61,-122 33.81,-67.62 44.1,-157.29 72.03,-216.82 27.93,-59.53 73.49,-88.93 108.04,-37.48 34.54,51.44 58.06,183.74 98.49,230.78 40.42,47.03 97.74,8.82 148.46,8.09 50.71,-0.74 94.8,36 172.71,2.2 77.9,-33.81 189.62,-138.18 259.44,-242.54 69.82,-104.36 97.75,-208.73 112.45,-271.2 14.7,-62.47 16.17,-83.05 25.73,-92.6 9.55,-9.56 27.18,-8.09 71.28,-12.5z"/>
   <path class="fil8" d="M10363.61 4579.93c77.48,-1.09 186.88,-3.26 257.43,-5.46 70.56,-2.21 102.27,-4.45 110.78,-17.33 8.51,-12.88 -6.19,-36.4 -49.55,-54.77 -43.36,-18.38 -115.39,-31.61 -214.6,-38.22 -99.22,-6.62 -225.64,-6.62 -291.78,5.88 -66.15,12.49 -72.03,37.48 -58.8,58.06 13.23,20.58 45.56,36.75 84.52,44.84 38.95,8.08 84.52,8.08 162,7z"/>
   <path class="fil9" d="M10629.38 3147.16c54.39,-6.62 126.41,-13.97 199.31,-0.29 72.91,13.68 146.69,48.39 184.17,83.67 37.48,35.28 38.67,71.12 39.26,89.05 0.59,17.92 0.59,17.92 -15.58,10.57 -16.17,-7.35 -48.5,-22.05 -85.99,-34.54 -37.48,-12.5 -80.1,-22.79 -112.44,-25.73 -32.34,-2.94 -54.39,1.47 -71.3,14.7 -16.9,13.23 -28.66,35.28 -36.75,55.86 -8.08,20.58 -12.49,39.69 -30.87,45.57 -18.37,5.88 -50.7,-1.47 -84.51,-9.55 -33.81,-8.09 -69.08,-16.91 -113.92,-25.73 -44.83,-8.82 -99.21,-17.64 -138.9,-22.05 -39.69,-4.41 -64.68,-4.41 -59.53,-20.58 5.14,-16.17 40.41,-48.5 78.63,-74.96 38.22,-26.46 79.38,-47.04 118.34,-60.27 38.95,-13.23 75.69,-19.11 130.08,-25.72z"/>
   <path class="fil9" d="M10603.65 2909.04c30.14,-6.62 83.05,3.67 130.09,21.31 47.04,17.64 88.2,42.62 108.78,55.12 20.58,12.49 20.58,12.49 5.88,-15.44 -14.7,-27.93 -44.1,-83.78 -83.06,-119.79 -38.95,-36.02 -87.45,-52.18 -131.55,-63.94 -44.1,-11.76 -83.78,-19.11 -127.15,-9.55 -43.36,9.55 -90.39,36 -125.67,66.14 -35.28,30.13 -58.8,63.93 -70.56,80.84 -11.76,16.9 -11.76,16.9 31.6,20.58 43.36,3.67 130.09,11.02 177.12,2.94 47.04,-8.09 54.39,-31.6 84.52,-38.21z"/>
   <path class="fil9" d="M14553.23 10542.29c-22.78,50.71 -50.7,109.5 -66.87,165.36 -16.17,55.86 -20.58,108.77 -5.58,153.49 15,44.71 49.42,81.22 53.09,89.31 3.68,8.08 -23.39,-12.26 -57.5,-42.27 -34.11,-30.02 -75.26,-69.71 -98.78,-108.66 -23.52,-38.96 -29.4,-77.17 -21.32,-133.03 8.09,-55.86 30.13,-129.35 52.91,-180.8 22.79,-51.45 46.31,-80.84 74.24,-100.68 27.93,-19.85 60.26,-30.14 82.31,-24.99 22.05,5.14 33.81,25.71 30.87,57.32 -2.94,31.6 -20.58,74.23 -43.37,124.95z"/>
   <path class="fil9" d="M15557.19 11273.2c-18.37,29.77 -47.77,75.33 -82.32,108.41 -34.54,33.07 -74.22,53.65 -119.06,72.39 -44.83,18.74 -94.8,35.65 -134.49,47.04 -39.69,11.39 -69.09,17.27 -57.33,6.98 11.76,-10.29 64.67,-36.75 104.36,-69.82 39.69,-33.08 66.15,-72.76 94.08,-116.12 27.93,-43.37 57.32,-90.4 74.22,-129.72 16.91,-39.32 21.32,-70.93 29.4,-92.61 8.09,-21.68 19.85,-33.44 41.16,-33.44 21.32,0 52.19,11.76 67.62,38.59 15.44,26.82 15.44,68.71 11.76,96.64 -3.67,27.93 -11.02,41.89 -29.4,71.66z"/>
   <path class="fil9" d="M16375.2 11539.62c19.11,28.66 29.4,63.93 25.72,106.56 -3.67,42.63 -21.31,92.6 -41.16,129.35 -19.84,36.75 -41.89,60.27 -55.12,62.48 -13.23,2.2 -17.63,-16.91 -22.04,-40.43 -4.41,-23.52 -8.82,-51.44 -16.17,-82.31 -7.35,-30.87 -17.64,-64.68 -23.52,-102.16 -5.88,-37.49 -7.35,-78.64 2.94,-103.63 10.29,-24.99 32.33,-33.81 57.32,-27.19 24.99,6.61 52.92,28.66 72.03,57.33z"/>
   <path class="fil9" d="M16546.44 11682.93c21.32,45.57 46.31,108.77 47.78,157.28 1.47,48.51 -20.58,82.31 -29.4,106.57 -8.82,24.25 -4.41,38.95 21.31,22.05 25.73,-16.91 72.76,-65.41 97.01,-122 24.26,-56.6 25.73,-121.27 19.11,-164.63 -6.61,-43.37 -21.31,-65.42 -49.24,-85.26 -27.93,-19.85 -69.08,-37.48 -98.48,-39.68 -29.4,-2.21 -47.04,11.01 -47.04,31.59 0,20.58 17.64,48.51 38.95,94.08z"/>
   <path class="fil10" d="M5708.04 8112.53c30.87,-23.52 66.14,-45.56 117.59,-60.99 51.45,-15.44 119.06,-24.26 171.98,-27.93 52.92,-3.68 91.13,-2.21 122.74,10.29 31.6,12.49 56.59,36 70.44,63.44 13.84,27.44 16.53,58.8 12.86,108.78 -3.68,49.97 -13.72,118.57 -36.38,171.98 -22.67,53.4 -57.94,91.62 -96.16,129.11 -38.22,37.48 -79.38,74.22 -124.21,98.48 -44.84,24.25 -93.34,36.01 -143.13,37.67 -49.8,1.65 -100.89,-6.81 -147.19,-22.98 -46.3,-16.17 -87.82,-40.05 -110.78,-85.8 -22.97,-45.75 -27.38,-113.37 -11.21,-175.1 16.17,-61.74 52.91,-117.59 84.52,-158.01 31.6,-40.43 58.06,-65.42 88.93,-88.94z"/>
   <path class="fil10" d="M6795.04 6851.8c30.87,-39.69 70.55,-85.25 133.03,-120.53 62.47,-35.28 147.72,-60.27 204.32,-67.62 56.59,-7.35 84.51,2.94 106.56,35.28 22.05,32.34 38.22,86.72 45.57,143.32 7.35,56.59 5.88,115.38 -8.82,169.77 -14.7,54.39 -42.62,104.36 -78.63,144.05 -36.02,39.69 -80.12,69.08 -129.36,96.28 -49.25,27.19 -103.63,52.18 -144.79,69.09 -41.16,16.9 -69.08,25.72 -94.07,23.52 -24.99,-2.21 -47.04,-15.44 -66.15,-50.72 -19.11,-35.28 -35.27,-92.6 -41.88,-152.13 -6.62,-59.54 -3.69,-121.27 8.81,-169.04 12.49,-47.78 34.54,-81.58 65.41,-121.27z"/>
   <path class="fil11" d="M5924.88 8304.84c13.23,33.07 47.03,66.87 61.73,96.27 14.7,29.4 10.29,54.39 2.21,79.38 -8.09,24.99 -19.85,49.97 -49.25,69.82 -29.4,19.84 -76.43,34.54 -114.65,38.95 -38.22,4.41 -67.61,-1.47 -94.8,-11.02 -27.2,-9.56 -52.19,-22.79 -69.09,-38.96 -16.91,-16.17 -25.73,-35.27 -31.61,-63.2 -5.88,-27.93 -8.82,-64.68 -1.47,-99.96 7.35,-35.28 24.99,-69.08 41.16,-97.74 16.17,-28.67 30.87,-52.19 57.33,-78.65 26.46,-26.46 64.67,-55.85 102.89,-74.96 38.22,-19.11 76.43,-27.93 97.01,-26.46 20.58,1.47 23.52,13.23 20.58,33.08 -2.94,19.84 -11.75,47.76 -19.83,77.9 -8.09,30.13 -15.44,62.47 -2.21,95.55z"/>
   <path class="fil12" d="M7178.35 6792.69c23.51,32.34 38.95,73.49 45.57,108.04 6.61,34.54 4.4,62.47 -1.48,86.36 -5.88,23.88 -15.43,43.73 -32.33,53.65 -16.91,9.92 -41.17,9.92 -78.65,8.09 -37.48,-1.84 -88.2,-5.52 -134.5,-13.23 -46.3,-7.72 -88.2,-19.48 -114.65,-34.18 -26.46,-14.7 -37.49,-32.34 -39.32,-56.59 -1.84,-24.26 5.51,-55.12 33.07,-88.56 27.56,-33.44 75.34,-69.46 117.97,-93.71 42.62,-24.26 80.11,-36.75 114.65,-31.24 34.54,5.51 66.15,29.03 89.67,61.37z"/>
   <path class="fil13" d="M5732.26 8248.98c-0.33,26.97 5.91,56.01 17.31,83.2 11.39,27.19 27.94,52.55 51.46,75.52 23.52,22.96 54.01,43.54 78.01,56.3 24,12.75 41.51,17.67 66.68,16.2 25.17,-1.47 58.01,-9.33 74.44,-37.52 16.42,-28.19 16.42,-76.7 7.05,-117.86 -9.37,-41.16 -28.11,-74.96 -52.61,-100.46 -24.5,-25.5 -54.75,-42.7 -81.62,-55.51 -26.87,-12.82 -50.37,-21.27 -74.24,-19.99 -23.87,1.28 -48.12,12.29 -63.69,30.25 -15.58,17.96 -22.47,42.89 -22.79,69.87z"/>
   <path class="fil14" d="M6840.93 8043.72c39.69,-42.63 95.54,-99.95 138.17,-135.23 42.63,-35.28 72.03,-48.51 105.11,-58.06 33.07,-9.56 69.81,-15.44 94.07,-1.47 24.25,13.96 36.01,47.77 36.01,88.2 0,40.42 -11.76,87.45 -28.66,112.44 -16.91,24.99 -38.96,27.93 -47.04,49.98 -8.09,22.05 -2.21,63.2 2.94,105.83 5.14,42.63 9.55,86.72 5.88,106.57 -3.68,19.84 -15.43,15.43 -41.15,13.96 -25.73,-1.47 -65.42,0 -99.23,7.35 -33.81,7.35 -61.73,20.58 -87.45,36.02 -25.73,15.43 -49.25,33.07 -78.65,43.36 -29.4,10.29 -64.67,13.23 -93.33,5.88 -28.67,-7.35 -50.72,-24.99 -63.95,-52.18 -13.23,-27.2 -17.64,-63.94 -4.41,-102.89 13.23,-38.96 44.1,-80.12 71.3,-114.66 27.19,-34.55 50.7,-62.47 90.39,-105.1z"/>
   <path class="fil13" d="M7089.24 6930.72c35.58,26.25 60.3,54.9 71.8,79.85 11.51,24.95 9.77,46.2 -3.24,66.82 -13.03,20.61 -37.33,40.58 -68.35,48.39 -31.03,7.81 -68.79,3.46 -103.28,-7.6 -34.51,-11.07 -65.74,-28.85 -91.55,-52.28 -25.83,-23.44 -46.23,-52.52 -53.83,-79.64 -7.59,-27.12 -2.38,-52.3 19.75,-73.55 22.13,-21.27 61.19,-38.63 103.94,-35.37 42.73,3.25 89.16,27.13 124.76,53.38z"/>
   <path class="fil15" d="M5924.08 8135.39c5.88,15.8 7.35,35.65 -1.47,49.25 -8.82,13.59 -27.93,20.94 -52.55,21.31 -24.62,0.36 -54.76,-6.25 -64.31,-25.73 -9.55,-19.48 1.47,-51.81 20.22,-67.98 18.74,-16.17 45.19,-16.17 63.57,-10.29 18.37,5.88 28.66,17.64 34.54,33.44z"/>
   <path class="fil16" d="M6075.49 8263.27c18.37,20.21 20.57,44.47 18.37,65.78 -2.21,21.31 -8.82,39.69 -20.21,55.86 -11.4,16.17 -27.56,30.13 -45.2,37.12 -17.64,6.98 -36.75,6.98 -45.57,-12.13 -8.82,-19.11 -7.35,-57.33 -4.78,-87.83 2.57,-30.5 6.25,-53.29 8.09,-70.56 1.83,-17.27 1.83,-29.03 19.1,-26.82 17.27,2.2 51.82,18.37 70.2,38.58z"/>
   <path class="fil16" d="M6950.81 6906.92c5.14,21.31 -1.47,35.28 -14.7,43.73 -13.23,8.45 -33.08,11.39 -48.51,8.82 -15.43,-2.57 -26.46,-10.66 -34.54,-26.46 -8.09,-15.8 -13.23,-39.32 -2.94,-58.06 10.29,-18.74 36.01,-32.71 57.33,-25.36 21.31,7.35 38.22,36.02 43.36,57.33z"/>
   <path class="fil16" d="M7202.54 7026.72c3.3,13.96 10.65,34.54 8.82,51.45 -1.84,16.9 -12.87,30.13 -31.97,39.69 -19.11,9.55 -46.31,15.43 -58.8,1.1 -12.5,-14.33 -10.29,-48.88 -17.27,-60.27 -6.99,-11.39 -23.16,0.37 -36.39,3.31 -13.23,2.94 -23.52,-2.94 -22.41,-19.11 1.1,-16.17 13.59,-42.63 27.93,-62.47 14.33,-19.85 30.49,-33.08 52.18,-29.03 21.68,4.04 48.87,25.35 62.1,39.69 13.23,14.33 12.5,21.67 15.81,35.64z"/>
   <path class="fil6" d="M7224.95 8343.03c22.05,24.99 66.15,67.61 106.75,105.28 40.59,37.67 77.69,70.37 102.33,86.21 24.63,15.83 36.82,14.78 43.63,5.05 6.8,-9.74 8.24,-28.18 -12.36,-48.78 -20.6,-20.61 -63.22,-43.4 -101.8,-68.02 -38.59,-24.62 -73.14,-51.08 -99.23,-71.29 -26.09,-20.21 -43.73,-34.18 -52.55,-37.48 -8.82,-3.31 -8.82,4.04 13.23,29.03z"/>
   <path class="fil6" d="M7278.24 8513.54c9.92,22.05 20.21,51.44 16.54,72.76 -3.68,21.31 -21.32,34.54 -37.49,40.06 -16.17,5.51 -30.87,3.3 -38.22,-11.03 -7.35,-14.33 -7.35,-40.79 -15.43,-67.98 -8.09,-27.2 -24.25,-55.12 -42.62,-81.58 -18.38,-26.46 -38.96,-51.45 -52.19,-66.88 -13.23,-15.44 -19.11,-21.32 -11.02,-27.2 8.08,-5.88 30.13,-11.76 57.69,3.31 27.56,15.06 60.64,51.08 81.95,76.44 21.31,25.35 30.87,40.05 40.79,62.1z"/>
   <path class="fil17" d="M6462.54 9261.17c-88.68,101.33 -220.98,245.39 -345.79,385.3 -124.82,139.9 -242.15,275.66 -314.17,360.92 -72.03,85.25 -98.75,119.99 -147.38,172.65 -48.64,52.65 -119.19,123.2 -154.47,158.48 -35.28,35.28 -35.28,35.28 9.06,-19.19 44.34,-54.48 133.03,-163.42 242.89,-306.15 109.85,-142.73 240.89,-319.23 392.53,-486.62 151.64,-167.4 323.89,-325.67 410.02,-404.81 86.12,-79.14 86.12,-79.14 63.59,-49.83 -22.54,29.3 -67.6,87.92 -156.28,189.25z"/>
   <path class="fil17" d="M6222.48 9137.38c89.68,-51.68 230.84,-131.52 301.42,-171.43 70.57,-39.92 70.57,-39.92 19.1,-22.05 -51.47,17.87 -154.4,53.6 -287.24,115.25 -132.84,61.65 -295.58,149.2 -486.01,252.56 -190.43,103.35 -408.55,222.51 -593.23,333.07 -184.69,110.56 -335.93,212.54 -411.55,263.53 -75.63,50.98 -75.63,50.98 -18.3,18.64 57.32,-32.34 171.98,-97.01 292.79,-167.73 120.8,-70.73 247.76,-147.51 418.27,-235.7 170.51,-88.2 384.57,-187.81 510.71,-249.38 126.14,-61.57 164.35,-85.09 254.04,-136.76z"/>
   <path class="fil17" d="M6685.48 9293.42c-58.8,104.36 -141.11,230.78 -214.6,383.65 -73.5,152.87 -138.18,332.19 -185.21,488 -47.04,155.81 -76.44,288.11 -91.14,357.2 -14.7,69.08 -14.7,74.96 -8.82,7.35 5.88,-67.62 17.64,-208.74 61.74,-374.84 44.09,-166.1 120.53,-357.18 220.48,-548.27 99.95,-191.09 223.43,-382.18 285.17,-479.19 61.73,-97.02 61.73,-99.96 44.09,-60.27 -17.64,39.69 -52.91,122 -111.71,226.37z"/>
   <path class="fil17" d="M8018.21 7488.76c93.39,-97.9 190.71,-205.7 305.18,-314.57 114.47,-108.87 246.09,-218.81 311.91,-273.78 65.81,-54.97 65.81,-54.97 65.81,-54.97 0,0 0,0 -51.26,32.44 -51.27,32.43 -153.79,97.3 -290.31,210.58 -136.52,113.28 -307.03,274.97 -414.98,395.4 -107.95,120.43 -153.33,199.61 -176.02,239.2 -22.7,39.58 -22.7,39.58 22.04,-4.41 44.74,-44 134.23,-132 227.63,-229.89z"/>
   <path class="fil17" d="M8222.99 7652.88c77.9,-34.54 150.68,-65.72 233.37,-98.21 82.68,-32.49 175.29,-66.3 230.5,-92.94 55.21,-26.64 73.03,-46.11 81.97,-56.2 8.94,-10.09 9,-10.8 -2.11,-9.88 -11.12,0.91 -33.41,3.46 -97.47,26.78 -64.06,23.32 -169.9,67.41 -274.99,110.04 -105.1,42.63 -209.47,83.78 -304.13,130.47 -94.67,46.68 -179.64,98.89 -231.09,134.17 -51.45,35.28 -69.37,53.62 -82.01,67.94 -12.64,14.32 -19.98,24.61 -10.42,25.35 9.55,0.73 36,-8.09 74.22,-30.87 38.22,-22.79 88.19,-59.53 154.7,-96.86 66.51,-37.33 149.55,-75.25 227.46,-109.79z"/>
   <path class="fil17" d="M8129.66 7935.23c19.11,-7.35 133.77,-19.11 243.28,-14.7 109.5,4.41 213.87,24.99 266.79,38.22 52.91,13.23 54.38,19.11 41.41,22.8 -12.98,3.68 -40.39,5.18 -75.67,0.77 -35.28,-4.41 -78.42,-14.73 -136.74,-21.35 -58.32,-6.63 -131.81,-9.57 -206.77,-12.51 -74.97,-2.94 -151.41,-5.88 -132.3,-13.23z"/>
  </g>
 </g>
</svg>
