<?xml version="1.0" encoding="UTF-8"?>
<!DOCTYPE svg PUBLIC "-//W3C//DTD SVG 1.1//EN" "http://www.w3.org/Graphics/SVG/1.1/DTD/svg11.dtd">
<!-- Creator: CorelDRAW 2018 (64-Bit) -->
<svg xmlns="http://www.w3.org/2000/svg" xml:space="preserve" width="210mm" height="297mm" version="1.1" style="shape-rendering:geometricPrecision; text-rendering:geometricPrecision; image-rendering:optimizeQuality; fill-rule:evenodd; clip-rule:evenodd"
viewBox="0 0 21000 29700"
 xmlns:xlink="http://www.w3.org/1999/xlink">
 <defs>
  <style type="text/css">
   <![CDATA[
    .str0 {stroke:#1F1B20;stroke-width:200;stroke-miterlimit:22.9256}
    .fil1 {fill:none}
    .fil0 {fill:#1F1B20}
   ]]>
  </style>
 </defs>
 <g id="Слой_x0020_1">
  <metadata id="CorelCorpID_0Corel-Layer"/>
  <g id="_2240550640944">
   <path class="fil0" d="M6918.98 4977.9c50.32,-34.6 113.21,-50.32 176.11,-36.17 62.9,14.15 125.8,58.18 158.82,113.22 33.02,55.03 36.17,121.07 55.04,155.67 18.87,34.59 53.46,37.73 84.91,39.31 31.45,1.57 59.75,1.57 83.34,25.16 23.59,23.59 42.45,70.76 59.75,103.78 17.3,33.02 33.02,51.89 58.18,89.63 25.16,37.74 59.76,94.35 81.77,169.82 22.01,75.48 31.45,169.83 39.31,232.73 7.86,62.9 14.15,94.34 29.88,117.93 15.72,23.59 40.88,39.31 56.6,64.47 15.73,25.16 22.02,59.75 29.88,103.78 7.87,44.03 17.3,97.49 37.74,144.67 20.44,47.17 51.89,88.05 72.33,132.08 20.44,44.03 29.88,91.21 45.6,144.67 15.73,53.46 37.74,113.22 86.49,275.18 48.74,161.96 124.22,426.13 201.27,682.44 77.05,256.31 155.68,504.76 213.85,704.46 58.18,199.7 95.92,350.65 125.8,448.15 29.88,97.48 51.89,141.52 91.21,191.83 39.3,50.32 95.92,106.93 182.4,166.68 86.48,59.75 202.84,122.65 311.34,174.55 108.5,51.89 209.14,92.77 261.03,113.21 51.89,20.44 55.03,20.44 42.45,-34.59 -12.58,-55.04 -40.88,-165.11 -48.74,-253.16 -7.86,-88.06 4.72,-154.11 33.02,-220.15 28.3,-66.04 72.33,-132.09 99.07,-169.82 26.73,-37.75 36.16,-47.18 51.89,-70.76 15.72,-23.59 37.73,-61.33 64.47,-88.06 26.73,-26.73 58.17,-42.46 133.66,-50.32 75.47,-7.86 194.98,-7.86 297.19,-40.88 102.21,-33.03 187.12,-99.07 245.3,-136.8 58.18,-37.74 89.63,-47.18 168.25,-55.04 78.62,-7.87 204.42,-14.16 331.79,-11.01 127.37,3.14 256.3,15.72 320.77,22.01 64.48,6.3 64.48,6.3 99.07,-133.65 34.59,-139.95 103.78,-419.84 138.37,-559.79 34.6,-139.95 34.6,-139.95 50.32,-67.62 15.73,72.33 47.17,217 75.48,322.36 28.31,105.35 53.46,171.39 69.19,243.72 15.72,72.33 22.01,150.96 31.45,207.57 9.43,56.6 22.01,91.2 47.17,99.06 25.16,7.86 62.9,-11.01 130.51,-80.19 67.62,-69.2 165.11,-188.7 239.02,-251.6 73.9,-62.9 124.22,-69.19 166.68,-70.76 42.45,-1.57 77.05,1.57 99.06,31.45 22.02,29.87 31.45,86.49 42.45,199.7 11.01,113.22 23.59,283.04 23.59,463.87 0,180.83 -12.58,372.67 -17.3,539.35 -4.71,166.68 -1.57,308.21 -20.44,440.3 -18.86,132.08 -59.75,254.73 -86.48,330.21 -26.73,75.48 -39.31,103.78 -55.04,138.37 -15.72,34.59 -34.59,75.48 -50.31,117.94 -15.73,42.45 -28.31,86.48 -61.33,161.96 -33.02,75.48 -86.49,182.4 -128.95,273.6 -42.45,91.2 -73.9,166.68 -91.19,245.3 -17.3,78.62 -20.45,160.4 -33.03,224.87 -12.58,64.47 -34.59,111.64 -55.03,136.8 -20.44,25.16 -39.31,28.3 -42.45,56.6 -3.15,28.31 9.43,81.78 -0.01,114.79 -9.43,33.03 -40.88,45.6 -72.33,55.04 -31.45,9.43 -62.9,15.72 -75.48,42.46 -12.57,26.73 -6.29,73.9 3.15,116.35 9.43,42.46 22.01,80.2 50.31,117.94 28.31,37.74 72.34,75.48 124.23,128.94 51.89,53.46 111.64,122.66 169.82,191.84 58.18,69.19 114.79,138.38 176.12,215.43 61.32,77.05 127.37,161.96 183.98,237.43 56.6,75.48 103.78,141.53 149.38,188.7 45.6,47.18 89.63,75.48 141.52,100.64 51.89,25.16 111.65,47.17 204.42,119.5 92.77,72.34 218.57,194.99 378.96,382.11 160.39,187.12 355.37,438.71 507.89,649.42 152.53,210.71 262.61,380.53 320.79,503.18 58.18,122.65 64.47,198.13 108.49,292.48 44.03,94.35 125.8,207.56 213.86,339.65 88.05,132.08 182.4,283.04 265.74,408.84 83.34,125.79 155.68,226.43 217,375.81 61.33,149.38 111.65,347.51 147.81,575.51 36.17,228.01 58.18,485.89 66.04,717.04 7.87,231.15 1.57,435.57 -37.74,627.41 -39.31,191.84 -111.64,371.1 -223.28,529.92 -111.64,158.81 -262.6,297.19 -405.69,386.82 -143.1,89.63 -278.33,130.51 -432.43,160.39 -154.1,29.88 -327.07,48.74 -619.54,55.03 -292.48,6.29 -704.46,0 -1078.71,7.87 -374.24,7.86 -710.74,29.88 -946.61,37.74 -235.86,7.86 -371.1,1.57 -448.14,-6.29 -77.05,-7.87 -95.92,-17.3 -111.64,-51.9 -15.73,-34.59 -28.31,-94.34 -34.6,-124.22 -6.29,-29.88 -6.29,-29.88 -106.93,-29.88 -100.64,0 -301.91,0 -402.54,0 -100.64,0 -100.64,0 -125.8,-33.02 -25.16,-33.02 -75.48,-99.06 -94.34,-147.81 -18.88,-48.74 -6.3,-80.19 26.72,-113.21 33.03,-33.02 86.49,-67.61 125.8,-97.49 39.32,-29.88 64.47,-55.04 91.2,-84.91 26.74,-29.88 55.04,-64.47 84.92,-77.05 29.87,-12.58 61.32,-3.15 130.51,6.29 69.19,9.43 176.11,18.86 235.86,23.58 59.76,4.72 72.33,4.72 80.2,4.72 7.86,0 11.01,0 -81.77,-62.9 -92.77,-62.9 -281.46,-188.69 -438.71,-281.47 -157.25,-92.77 -283.04,-152.53 -366.38,-196.56 -83.34,-44.02 -124.23,-72.32 -144.66,-86.48 -20.45,-14.15 -20.45,-14.15 -34.6,45.6 -14.15,59.76 -42.45,179.26 -75.48,283.04 -33.02,103.79 -70.76,191.84 -89.63,262.6 -18.87,70.76 -18.87,124.23 -17.29,187.13 1.57,62.89 4.71,135.22 6.29,201.27 1.57,66.04 1.57,125.79 -37.74,188.69 -39.31,62.9 -117.94,128.94 -179.26,169.82 -61.33,40.89 -105.35,56.61 -251.59,58.18 -146.24,1.58 -394.69,-11 -523.63,-22.01 -128.94,-11 -138.38,-20.44 -147.81,-48.75 -9.44,-28.3 -18.87,-75.47 -14.15,-125.79 4.72,-50.31 23.58,-103.78 51.89,-158.82 28.31,-55.03 66.04,-111.64 100.64,-158.82 34.59,-47.17 66.04,-84.91 111.64,-100.63 45.6,-15.72 105.35,-9.43 135.23,-9.43 29.87,0 29.87,-6.29 39.31,-147.82 9.44,-141.52 28.31,-418.27 51.89,-665.14 23.59,-246.88 51.89,-463.88 92.78,-732.77 40.88,-268.88 94.35,-589.66 133.66,-951.33 39.31,-361.66 64.46,-764.21 66.04,-1067.69 1.57,-303.48 -20.44,-507.9 -50.32,-647.85 -29.88,-139.95 -67.61,-215.42 -119.5,-323.92 -51.9,-108.5 -117.94,-250.02 -182.41,-410.41 -64.47,-160.39 -127.37,-339.65 -161.96,-606.97 -34.6,-267.31 -40.89,-622.69 -33.02,-886.86 7.86,-264.17 29.87,-437.14 20.44,-572.37 -9.43,-135.23 -50.32,-232.73 -113.22,-345.94 -62.89,-113.22 -147.81,-242.16 -242.15,-386.82 -94.35,-144.67 -198.13,-305.06 -270.47,-470.17 -72.33,-165.1 -113.21,-334.93 -177.68,-553.5 -64.47,-218.57 -152.53,-485.88 -220.14,-724.89 -67.62,-239.02 -114.79,-449.72 -161.96,-740.63 -47.18,-290.9 -94.36,-662 -121.09,-869.56 -26.73,-207.57 -33.02,-251.6 -51.89,-290.91 -18.87,-39.31 -50.32,-73.9 -59.75,-130.51 -9.44,-56.61 3.14,-135.23 -7.86,-194.98 -11.01,-59.76 -45.6,-100.64 -80.2,-150.96 -34.59,-50.31 -69.18,-110.07 -111.64,-165.11 -42.46,-55.03 -92.78,-105.35 -127.37,-150.95 -34.6,-45.6 -53.46,-86.49 -67.61,-133.66 -14.16,-47.17 -23.59,-100.64 -58.18,-157.24 -34.6,-56.61 -94.35,-116.37 -128.95,-169.83 -34.59,-53.47 -44.02,-100.64 -37.73,-138.38 6.29,-37.74 28.3,-66.04 33.02,-102.2 4.71,-36.17 -7.87,-80.2 -12.58,-132.09 -4.72,-51.89 -1.58,-111.65 20.44,-154.1 22.02,-42.46 62.9,-67.61 94.35,-80.19 31.45,-12.58 53.46,-12.58 83.34,-39.31 29.87,-26.74 67.61,-80.2 117.93,-114.79z"/>
   <circle class="fil1 str0" cx="10973.02" cy="11647.96" r="8281.46"/>
  </g>
 </g>
</svg>
