<?xml version="1.0" encoding="UTF-8"?>
<!DOCTYPE svg PUBLIC "-//W3C//DTD SVG 1.1//EN" "http://www.w3.org/Graphics/SVG/1.1/DTD/svg11.dtd">
<!-- Creator: CorelDRAW 2018 (64-Bit) -->
<svg xmlns="http://www.w3.org/2000/svg" xml:space="preserve" width="210mm" height="297mm" version="1.1" style="shape-rendering:geometricPrecision; text-rendering:geometricPrecision; image-rendering:optimizeQuality; fill-rule:evenodd; clip-rule:evenodd"
viewBox="0 0 21000 29700"
 xmlns:xlink="http://www.w3.org/1999/xlink">
 <defs>
  <style type="text/css">
   <![CDATA[
    .fil0 {fill:#1F1B20}
   ]]>
  </style>
 </defs>
 <g id="Слой_x0020_1">
  <metadata id="CorelCorpID_0Corel-Layer"/>
  <path class="fil0" d="M3932.59 3776.54c94.07,-64.68 211.66,-94.08 329.25,-67.62 117.59,26.46 235.19,108.77 296.93,211.67 61.73,102.89 67.61,226.36 102.89,291.04 35.28,64.67 99.95,70.55 158.75,73.49 58.8,2.94 111.71,2.94 155.81,47.04 44.1,44.1 79.37,132.29 111.71,194.03 32.34,61.74 61.74,97.01 108.78,167.57 47.03,70.55 111.71,176.39 152.87,317.5 41.15,141.11 58.79,317.5 73.49,435.1 14.7,117.59 26.46,176.38 55.86,220.48 29.4,44.1 76.43,73.49 105.83,120.53 29.4,47.04 41.16,111.71 55.86,194.03 14.7,82.31 32.33,182.27 70.55,270.47 38.22,88.19 97.01,164.62 135.23,246.94 38.22,82.31 55.86,170.51 85.26,270.46 29.4,99.95 70.55,211.67 161.69,514.47 91.13,302.8 232.25,796.69 376.3,1275.88 144.05,479.19 291.04,943.68 399.81,1317.04 108.77,373.35 179.33,655.58 235.19,837.85 55.85,182.26 97.01,264.58 170.51,358.65 73.49,94.07 179.33,199.91 341.02,311.62 161.69,111.71 379.23,229.31 582.08,326.33 202.85,97.01 390.99,173.44 488.01,211.66 97.01,38.22 102.89,38.22 79.37,-64.67 -23.52,-102.9 -76.43,-308.68 -91.13,-473.31 -14.7,-164.63 8.82,-288.11 61.74,-411.58 52.91,-123.47 135.23,-246.95 185.21,-317.5 49.97,-70.56 67.61,-88.19 97.01,-132.29 29.4,-44.1 70.55,-114.65 120.53,-164.63 49.98,-49.98 108.77,-79.38 249.89,-94.08 141.11,-14.7 364.53,-14.7 555.62,-76.43 191.09,-61.74 349.84,-185.21 458.62,-255.76 108.77,-70.56 167.56,-88.2 314.55,-102.9 146.99,-14.7 382.18,-26.46 620.3,-20.58 238.13,5.88 479.19,29.4 599.72,41.16 120.54,11.76 120.54,11.76 185.21,-249.88 64.68,-261.65 194.03,-784.93 258.7,-1046.57 64.68,-261.65 64.68,-261.65 94.08,-126.42 29.4,135.23 88.19,405.7 141.11,602.67 52.92,196.96 99.95,320.43 129.35,455.66 29.4,135.23 41.16,282.23 58.8,388.06 17.64,105.83 41.15,170.51 88.19,185.21 47.04,14.69 117.59,-20.58 244,-149.93 126.42,-129.36 308.69,-352.78 446.86,-470.37 138.17,-117.6 232.25,-129.36 311.62,-132.3 79.38,-2.94 144.05,2.94 185.21,58.8 41.16,55.85 58.79,161.69 79.37,373.36 20.58,211.66 44.1,529.16 44.1,867.24 0,338.08 -23.52,696.74 -32.34,1008.36 -8.82,311.62 -2.94,576.21 -38.22,823.16 -35.27,246.94 -111.71,476.24 -161.69,617.36 -49.97,141.11 -73.49,194.02 -102.89,258.7 -29.4,64.67 -64.67,141.11 -94.07,220.49 -29.4,79.37 -52.92,161.68 -114.66,302.8 -61.73,141.11 -161.69,341.01 -241.07,511.52 -79.37,170.51 -138.16,311.62 -170.5,458.61 -32.34,146.99 -38.22,299.87 -61.74,420.4 -23.52,120.53 -64.67,208.73 -102.89,255.76 -38.22,47.04 -73.49,52.92 -79.37,105.83 -5.88,52.92 17.63,152.88 -0.01,214.61 -17.64,61.74 -76.43,85.25 -135.23,102.89 -58.79,17.64 -117.59,29.4 -141.11,79.38 -23.51,49.98 -11.76,138.17 5.88,217.54 17.64,79.38 41.16,149.94 94.07,220.49 52.92,70.56 135.24,141.11 232.25,241.06 97.01,99.96 208.73,229.32 317.5,358.67 108.77,129.35 214.61,258.7 329.26,402.75 114.65,144.05 238.13,302.8 343.96,443.91 105.83,141.11 194.03,264.59 279.28,352.78 85.26,88.2 167.57,141.11 264.58,188.15 97.02,47.04 208.74,88.19 382.18,223.42 173.45,135.24 408.64,364.54 708.5,714.38 299.86,349.84 664.39,820.21 949.55,1214.14 285.17,393.94 490.96,711.44 599.73,940.74 108.78,229.31 120.53,370.43 202.84,546.82 82.32,176.39 235.19,388.05 399.82,634.99 164.63,246.95 341.02,529.18 496.83,764.36 155.81,235.19 291.05,423.33 405.7,702.61 114.65,279.29 208.73,649.7 276.34,1075.97 67.62,426.28 108.77,908.41 123.47,1340.56 14.7,432.16 2.94,814.33 -70.56,1172.99 -73.49,358.66 -208.72,693.8 -417.45,990.72 -208.72,296.92 -490.95,555.63 -758.47,723.2 -267.52,167.57 -520.35,244 -808.45,299.86 -288.1,55.86 -611.48,91.13 -1158.29,102.89 -546.8,11.76 -1317.04,0 -2016.72,14.7 -699.67,14.7 -1328.79,55.86 -1769.76,70.56 -440.97,14.7 -693.8,2.94 -837.85,-11.76 -144.05,-14.7 -179.32,-32.34 -208.72,-97.02 -29.4,-64.67 -52.92,-176.39 -64.68,-232.25 -11.76,-55.85 -11.76,-55.85 -199.91,-55.85 -188.15,0 -564.44,0 -752.59,0 -188.15,0 -188.15,0 -235.18,-61.74 -47.04,-61.73 -141.12,-185.2 -176.39,-276.34 -35.28,-91.13 -11.77,-149.92 49.97,-211.66 61.74,-61.74 161.69,-126.41 235.19,-182.27 73.5,-55.86 120.53,-102.89 170.51,-158.75 49.98,-55.86 102.89,-120.53 158.75,-144.05 55.86,-23.52 114.65,-5.88 244,11.76 129.36,17.64 329.26,35.27 440.97,44.09 111.72,8.82 135.23,8.82 149.93,8.82 14.7,0 20.58,0 -152.87,-117.59 -173.45,-117.59 -526.22,-352.78 -820.2,-526.23 -293.99,-173.44 -529.17,-285.16 -684.98,-367.48 -155.81,-82.31 -232.25,-135.22 -270.46,-161.68 -38.22,-26.46 -38.22,-26.46 -64.68,85.25 -26.46,111.72 -79.37,335.14 -141.11,529.17 -61.74,194.03 -132.29,358.66 -167.57,490.95 -35.28,132.29 -35.28,232.25 -32.34,349.84 2.94,117.59 8.82,252.82 11.76,376.29 2.94,123.47 2.94,235.19 -70.55,352.78 -73.5,117.59 -220.49,241.07 -335.14,317.5 -114.66,76.44 -196.97,105.83 -470.37,108.77 -273.41,2.94 -737.9,-20.57 -978.96,-41.15 -241.07,-20.58 -258.71,-38.22 -276.35,-91.14 -17.64,-52.91 -35.27,-141.11 -26.45,-235.18 8.82,-94.07 44.09,-194.03 97.01,-296.93 52.92,-102.89 123.47,-208.72 188.15,-296.92 64.68,-88.19 123.47,-158.75 208.73,-188.15 85.25,-29.39 196.96,-17.63 252.82,-17.63 55.85,0 55.85,-11.76 73.49,-276.35 17.64,-264.58 52.92,-781.99 97.02,-1243.54 44.1,-461.55 97.01,-867.25 173.45,-1369.96 76.43,-502.7 176.39,-1102.43 249.89,-1778.59 73.49,-676.15 120.52,-1428.75 123.46,-1996.14 2.94,-567.38 -38.21,-949.55 -94.07,-1211.2 -55.86,-261.64 -126.41,-402.75 -223.42,-605.6 -97.02,-202.84 -220.5,-467.43 -341.03,-767.29 -120.53,-299.86 -238.12,-635 -302.79,-1134.77 -64.68,-499.77 -76.44,-1164.17 -61.74,-1658.06 14.7,-493.89 55.85,-817.27 38.22,-1070.1 -17.64,-252.82 -94.08,-435.09 -211.67,-646.76 -117.59,-211.66 -276.34,-452.73 -452.73,-723.19 -176.39,-270.46 -370.42,-570.33 -505.65,-879.01 -135.23,-308.68 -211.67,-626.18 -332.2,-1034.81 -120.53,-408.64 -285.16,-908.4 -411.57,-1355.25 -126.42,-446.86 -214.61,-840.79 -302.8,-1384.66 -88.2,-543.87 -176.4,-1237.66 -226.37,-1625.72 -49.98,-388.06 -61.74,-470.37 -97.02,-543.87 -35.28,-73.5 -94.07,-138.17 -111.71,-244 -17.64,-105.84 5.88,-252.83 -14.7,-364.54 -20.58,-111.71 -85.25,-188.15 -149.93,-282.22 -64.68,-94.07 -129.35,-205.79 -208.72,-308.68 -79.38,-102.9 -173.46,-196.97 -238.13,-282.22 -64.68,-85.26 -99.95,-161.7 -126.41,-249.89 -26.46,-88.19 -44.1,-188.15 -108.77,-293.98 -64.68,-105.83 -176.4,-217.55 -241.07,-317.5 -64.68,-99.96 -82.31,-188.15 -70.55,-258.71 11.76,-70.56 52.91,-123.47 61.73,-191.08 8.82,-67.62 -14.7,-149.94 -23.52,-246.95 -8.82,-97.01 -2.94,-208.73 38.22,-288.1 41.16,-79.38 117.59,-126.41 176.39,-149.93 58.8,-23.52 99.95,-23.52 155.81,-73.49 55.86,-49.98 126.41,-149.94 220.49,-214.61z"/>
 </g>
</svg>
