<?xml version="1.0" encoding="UTF-8"?>
<!DOCTYPE svg PUBLIC "-//W3C//DTD SVG 1.1//EN" "http://www.w3.org/Graphics/SVG/1.1/DTD/svg11.dtd">
<!-- Creator: CorelDRAW 2018 (64-Bit) -->
<svg xmlns="http://www.w3.org/2000/svg" xml:space="preserve" width="210mm" height="297mm" version="1.1" style="shape-rendering:geometricPrecision; text-rendering:geometricPrecision; image-rendering:optimizeQuality; fill-rule:evenodd; clip-rule:evenodd"
viewBox="0 0 21000 29700"
 xmlns:xlink="http://www.w3.org/1999/xlink">
 <defs>
  <style type="text/css">
   <![CDATA[
    .fil1 {fill:#FEFEFE}
    .fil0 {fill:#1F1B20}
   ]]>
  </style>
 </defs>
 <g id="Слой_x0020_1">
  <metadata id="CorelCorpID_0Corel-Layer"/>
  <g id="_2240551841104">
   <path class="fil0" d="M1090.29 1524.65c78.88,-123.47 161.19,-258.7 319.94,-358.65 158.75,-99.96 393.94,-164.63 599.73,-182.27 205.78,-17.64 382.17,11.75 582.08,85.25 199.91,73.49 423.33,191.09 473.31,326.32 49.98,135.23 -73.5,288.1 -261.64,370.42 -188.15,82.31 -440.98,94.07 -585.03,176.39 -144.05,82.31 -179.32,235.18 -108.76,535.04 70.55,299.86 246.93,746.72 438.02,1155.36 191.09,408.63 396.88,779.04 699.68,1205.32 302.8,426.27 702.62,908.4 1125.95,1378.77 423.33,470.37 870.19,928.99 1261.19,1237.67 390.99,308.68 726.13,467.43 958.38,573.27 232.24,105.83 361.59,158.74 552.68,182.26 191.09,23.52 443.91,17.64 729.08,5.88 285.16,-11.76 602.66,-29.4 870.19,20.58 267.52,49.97 485.06,167.57 702.61,244.01 217.55,76.43 435.09,111.71 676.16,144.05 241.06,32.34 505.65,61.73 823.15,70.55 317.5,8.82 687.91,-2.94 1028.93,-5.88 341.02,-2.94 652.64,2.94 861.36,55.86 208.73,52.91 314.57,152.87 461.56,135.23 146.99,-17.64 335.14,-152.87 599.72,-273.4 264.59,-120.53 605.61,-226.37 799.64,-314.56 194.03,-88.2 241.06,-158.75 267.52,-226.37 26.46,-67.62 32.34,-132.29 38.22,-343.96 5.88,-211.67 11.76,-570.32 20.58,-796.68 8.82,-226.37 20.57,-320.45 91.12,-308.69 70.56,11.76 199.92,129.35 317.51,252.82 117.59,123.47 223.43,252.83 338.08,346.91 114.65,94.07 238.13,152.86 323.38,164.62 85.26,11.76 132.29,-23.51 167.57,-14.69 35.28,8.82 58.79,61.73 120.53,126.41 61.74,64.67 161.69,141.11 343.96,191.09 182.27,49.97 446.86,73.49 643.82,88.19 196.97,14.7 326.32,20.58 473.31,38.22 146.99,17.64 311.62,47.03 493.89,41.15 182.27,-5.88 382.18,-47.03 567.39,-111.7 185.21,-64.68 355.72,-152.88 467.43,-196.97 111.72,-44.1 164.63,-44.1 182.27,8.82 17.64,52.91 0,158.75 -52.92,261.64 -52.92,102.89 -141.11,202.85 -211.67,311.62 -70.56,108.77 -123.47,226.37 -164.63,338.08 -41.16,111.71 -70.55,217.55 -91.13,302.8 -20.58,85.25 -32.34,149.93 -55.86,217.55 -23.52,67.61 -58.79,138.16 -70.55,208.72 -11.76,70.56 0,141.11 11.76,211.67 11.76,70.55 23.51,141.11 20.57,223.43 -2.94,82.31 -20.57,176.38 -49.97,261.64 -29.4,85.25 -70.55,161.69 -102.89,241.07 -32.34,79.37 -55.86,161.68 -132.3,261.64 -76.43,99.95 -205.79,217.55 -293.99,323.38 -88.19,105.83 -135.22,199.91 -176.38,302.8 -41.16,102.89 -76.43,214.61 -161.69,299.87 -85.25,85.25 -220.49,144.04 -291.05,199.9 -70.55,55.86 -76.43,108.77 -85.25,335.14 -8.82,226.36 -20.57,626.18 -88.19,967.2 -67.61,341.01 -191.09,623.24 -288.11,870.19 -97.01,246.94 -167.56,458.6 -202.84,629.11 -35.28,170.51 -35.28,299.87 -14.7,414.52 20.58,114.65 61.73,214.61 105.83,329.26 44.1,114.65 91.14,244.01 232.25,435.09 141.11,191.09 376.3,443.92 623.24,673.22 246.95,229.31 505.65,435.09 655.58,626.18 149.94,191.09 191.09,367.48 220.49,546.81 29.4,179.33 47.03,361.59 58.79,511.52 11.76,149.93 17.64,267.53 52.92,385.12 35.28,117.59 99.95,235.19 167.57,335.14 67.62,99.96 138.17,182.27 196.97,273.4 58.8,91.14 105.83,191.1 79.37,302.81 -26.45,111.71 -126.41,235.18 -226.36,305.73 -99.95,70.56 -199.91,88.2 -314.56,61.74 -114.65,-26.46 -244.01,-97.01 -364.54,-179.33 -120.53,-82.31 -232.25,-176.39 -296.93,-273.4 -64.67,-97.01 -82.31,-196.97 -99.95,-314.56 -17.64,-117.59 -35.27,-252.83 -61.73,-396.88 -26.46,-144.05 -61.74,-296.92 -91.14,-405.7 -29.4,-108.77 -52.91,-173.44 -146.99,-252.82 -94.07,-79.37 -258.7,-173.45 -443.91,-258.7 -185.21,-85.25 -390.99,-161.69 -623.24,-261.64 -232.25,-99.95 -490.95,-223.43 -743.78,-385.12 -252.82,-161.69 -499.77,-361.59 -732.02,-564.44 -232.24,-202.85 -449.78,-408.64 -596.78,-538 -146.99,-129.35 -223.42,-182.26 -299.86,-211.66 -76.43,-29.4 -152.87,-35.27 -246.94,23.52 -94.07,58.8 -205.79,182.27 -293.99,317.5 -88.19,135.23 -152.86,282.23 -217.54,473.31 -64.68,191.09 -129.35,426.28 -170.51,614.42 -41.16,188.15 -58.79,329.27 -64.67,455.68 -5.88,126.41 -0.01,238.12 26.45,332.19 26.46,94.08 73.5,170.51 146.99,241.07 73.5,70.56 173.46,135.23 261.65,161.69 88.19,26.46 164.63,14.7 270.46,20.58 105.83,5.88 241.07,29.4 332.2,97.01 91.14,67.62 138.17,179.34 158.75,276.35 20.58,97.01 14.7,179.33 -26.46,258.7 -41.15,79.38 -117.59,155.81 -194.03,199.91 -76.43,44.1 -152.86,55.85 -343.95,44.09 -191.09,-11.76 -496.83,-47.03 -737.9,-158.75 -241.06,-111.71 -417.45,-299.85 -540.93,-429.21 -123.47,-129.35 -194.02,-199.9 -246.94,-326.32 -52.92,-126.41 -88.19,-308.68 -126.41,-608.54 -38.22,-299.86 -79.37,-717.32 -141.11,-1108.32 -61.74,-390.99 -144.05,-755.52 -235.19,-973.07 -91.13,-217.55 -191.09,-288.1 -446.86,-343.96 -255.76,-55.86 -667.33,-97.01 -1108.3,-117.59 -440.98,-20.58 -911.35,-20.58 -1196.51,-14.7 -285.16,5.88 -385.12,17.64 -476.25,88.19 -91.14,70.56 -173.45,199.91 -358.66,423.33 -185.21,223.43 -473.31,540.93 -676.15,755.53 -202.85,214.61 -320.45,326.33 -452.74,429.22 -132.29,102.89 -279.28,196.97 -343.95,338.08 -64.68,141.11 -47.05,329.26 -32.35,576.2 14.7,246.95 26.46,552.69 49.98,749.66 23.52,196.97 58.79,285.16 114.65,349.84 55.86,64.68 132.29,105.83 167.57,182.26 35.28,76.44 29.4,188.16 -11.75,279.29 -41.16,91.14 -117.6,161.69 -241.07,211.67 -123.47,49.98 -293.98,79.37 -417.45,64.67 -123.48,-14.7 -199.91,-73.49 -238.13,-102.89 -38.22,-29.4 -38.22,-29.4 11.76,35.27 49.97,64.68 149.93,194.04 270.46,279.29 120.53,85.26 261.65,126.41 349.85,217.54 88.19,91.14 123.46,232.25 138.16,349.84 14.7,117.6 8.82,211.67 -44.09,276.35 -52.92,64.68 -152.88,99.95 -326.32,114.65 -173.45,14.7 -420.4,8.82 -635,2.94 -214.61,-5.88 -396.88,-11.76 -537.99,-85.26 -141.11,-73.49 -241.07,-214.6 -323.38,-352.77 -82.32,-138.17 -146.99,-273.41 -155.81,-458.62 -8.82,-185.2 38.21,-420.39 26.45,-646.76 -11.76,-226.36 -82.31,-443.9 -135.23,-720.25 -52.92,-276.34 -88.19,-611.48 -97.01,-914.28 -8.82,-302.8 8.82,-573.27 23.52,-770.24 14.7,-196.96 26.45,-320.44 52.91,-426.27 26.46,-105.83 67.62,-194.03 158.76,-279.29 91.13,-85.25 232.24,-167.56 355.71,-293.98 123.47,-126.41 229.31,-296.92 291.05,-443.91 61.73,-146.99 79.37,-270.46 52.91,-493.88 -26.46,-223.43 -97.01,-546.81 -238.12,-1020.12 -141.12,-473.31 -352.78,-1096.56 -523.29,-1637.48 -170.51,-540.93 -299.87,-999.54 -320.44,-1408.17 -20.58,-408.64 67.61,-767.3 82.31,-1008.36 14.7,-241.07 -44.09,-364.54 -232.24,-561.5 -188.15,-196.97 -505.65,-467.44 -826.09,-849.61 -320.44,-382.18 -643.82,-876.07 -996.6,-1425.81 -352.78,-549.75 -734.95,-1155.36 -1037.75,-1708.04 -302.81,-552.69 -526.23,-1052.46 -670.28,-1466.97 -144.06,-414.52 -208.73,-743.78 -228.82,-1011.3 -20.09,-267.53 4.41,-473.31 54.39,-632.06 49.97,-158.75 125.43,-270.47 204.32,-393.94z"/>
   <path class="fil1" d="M14812.87 14999.29c114.65,-64.68 267.53,-129.35 458.61,-305.74 191.09,-176.39 420.4,-464.5 535.05,-608.55 114.65,-144.05 114.65,-144.05 26.45,0 -88.19,144.05 -264.57,432.16 -538.49,684.75 -273.91,252.58 -645.34,469.64 -851.13,585.52 -205.79,115.89 -245.93,130.58 -315,190.84 -69.07,60.27 -167.06,166.11 -216.06,219.02 -49,52.92 -49,52.92 20.07,-7.35 69.07,-60.26 207.2,-180.79 320.87,-284.91 113.68,-104.12 202.9,-191.84 285.72,-268.04 82.82,-76.19 159.26,-140.86 273.91,-205.54z"/>
   <path class="fil1" d="M6271.2 18212.55c19.11,-199.9 54.38,-485.07 94.07,-651.17 39.69,-166.1 83.78,-213.13 208.09,-327.04 124.31,-113.91 328.84,-294.69 431.1,-385.08 102.26,-90.39 102.26,-90.39 32.34,-17.64 -69.93,72.75 -209.77,218.25 -317.91,333.63 -108.15,115.38 -184.58,200.63 -237.5,300.58 -52.92,99.96 -82.31,214.62 -107.3,414.52 -24.99,199.91 -45.57,485.08 -57.33,693.8 -11.76,208.73 -14.7,341.02 -6.36,448.07 8.33,107.06 27.94,188.87 37.75,229.78 9.8,40.91 9.8,40.91 -8.82,-67.62 -18.63,-108.52 -55.87,-325.56 -73.02,-491.41 -17.16,-165.85 -14.22,-280.51 4.89,-480.42z"/>
   <path class="fil1" d="M16879.5 11546.49c-176.39,30.87 -373.35,48.5 -546.8,26.45 -173.45,-22.05 -323.38,-83.78 -508.59,-183.73 -185.21,-99.96 -405.69,-238.13 -564.44,-374.83 -158.75,-136.7 -255.77,-271.93 -332.21,-418.92 -76.43,-146.99 -132.28,-305.74 -177.85,-502.71 -45.57,-196.97 -80.85,-432.15 -98.49,-549.74 -17.64,-117.6 -17.64,-117.6 -5.88,27.92 11.76,145.52 35.28,436.57 107.3,705.56 72.03,268.99 192.57,515.94 354.26,701.15 161.69,185.2 364.53,308.68 585.01,420.39 220.49,111.71 458.62,211.67 715.85,238.13 257.23,26.45 533.58,-20.58 745.24,-85.26 211.67,-64.68 358.66,-146.99 443.91,-204.32 85.26,-57.33 108.78,-89.66 147,-113.18 38.22,-23.52 91.13,-38.22 144.05,-60.27 52.92,-22.05 105.83,-51.44 132.29,-66.14 26.46,-14.7 26.46,-14.7 -26.46,2.94 -52.91,17.64 -158.75,52.91 -229.31,85.25 -70.55,32.34 -105.82,61.73 -166.09,99.95 -60.27,38.22 -145.52,85.25 -266.06,130.82 -120.53,45.57 -276.34,89.67 -452.73,120.54z"/>
  </g>
 </g>
</svg>
