<?xml version="1.0" encoding="UTF-8"?>
<!DOCTYPE svg PUBLIC "-//W3C//DTD SVG 1.1//EN" "http://www.w3.org/Graphics/SVG/1.1/DTD/svg11.dtd">
<!-- Creator: CorelDRAW 2018 (64-Bit) -->
<svg xmlns="http://www.w3.org/2000/svg" xml:space="preserve" width="210mm" height="297mm" version="1.1" style="shape-rendering:geometricPrecision; text-rendering:geometricPrecision; image-rendering:optimizeQuality; fill-rule:evenodd; clip-rule:evenodd"
viewBox="0 0 21000 29700"
 xmlns:xlink="http://www.w3.org/1999/xlink">
 <defs>
  <style type="text/css">
   <![CDATA[
    .str0 {stroke:#1F1B20;stroke-width:200;stroke-miterlimit:22.9256}
    .fil2 {fill:none}
    .fil1 {fill:#FEFEFE}
    .fil0 {fill:#1F1B20}
   ]]>
  </style>
 </defs>
 <g id="Слой_x0020_1">
  <metadata id="CorelCorpID_0Corel-Layer"/>
  <g id="_2240322685120">
   <g>
    <path class="fil0" d="M10380.73 8525.72c104.04,-163.77 219.63,-352.58 354.5,-554.88 134.87,-202.3 289,-418.08 391.11,-552.95 102.12,-134.87 152.21,-188.81 227.35,-229.27 75.14,-40.47 175.33,-67.43 258.17,-71.29 82.85,-3.85 148.36,15.42 213.86,96.34 65.51,80.92 131.02,223.49 181.11,354.5 50.09,131.02 84.77,250.46 102.11,310.19 17.34,59.73 17.34,59.73 73.21,52.02 55.88,-7.71 167.62,-23.11 281.3,-26.97 113.67,-3.85 229.27,3.85 350.65,-15.41 121.38,-19.27 248.54,-65.51 358.36,-100.19 109.82,-34.68 202.3,-57.8 314.04,-109.82 111.75,-52.02 242.76,-132.94 472.03,-277.43 229.27,-144.51 556.81,-352.58 710.94,-431.58 154.13,-78.99 134.86,-28.9 105.96,59.73 -28.89,88.62 -67.43,215.78 -127.15,335.24 -59.73,119.45 -140.65,231.19 -223.5,346.79 -82.84,115.6 -167.62,235.06 -219.64,352.58 -52.02,117.53 -71.28,233.13 -84.77,314.05 -13.48,80.92 -21.19,127.16 -7.7,196.52 13.48,69.35 48.16,161.84 53.94,233.12 5.78,71.29 -17.34,121.38 3.85,184.96 21.2,63.58 86.71,140.65 150.29,219.64 63.57,78.99 125.23,159.92 148.34,269.74 23.13,109.82 7.72,248.53 7.72,393.03 0,144.5 15.41,294.78 -0.01,439.28 -15.41,144.5 -61.65,283.22 -80.92,385.33 -19.26,102.11 -11.56,167.63 9.64,240.84 21.19,73.21 55.87,154.13 52.01,258.17 -3.85,104.04 -46.23,231.2 -96.33,327.53 -50.09,96.33 -107.89,161.84 -157.99,196.52 -50.09,34.68 -92.47,38.53 -123.3,59.73 -30.83,21.19 -50.09,59.72 -73.21,94.4 -23.12,34.68 -50.09,65.51 -40.46,138.72 9.63,73.21 55.87,188.81 94.4,314.05 38.54,125.23 69.36,260.09 73.21,504.78 3.86,244.69 -19.26,599.19 -3.84,899.76 15.41,300.55 69.35,547.16 131,855.43 61.66,308.27 131.03,678.18 190.75,1204.16 59.72,525.98 109.82,1208.02 131.01,1680.05 21.19,472.03 13.48,734.05 -109.82,986.45 -123.31,252.39 -362.21,495.15 -612.68,707.08 -250.46,211.93 -512.49,393.04 -666.62,499.01 -154.13,105.97 -200.37,136.79 -163.77,179.18 36.61,42.39 156.06,96.33 225.42,208.08 69.37,111.74 88.63,281.29 71.29,421.94 -17.34,140.64 -71.29,252.39 -134.87,335.23 -63.57,82.85 -136.79,136.8 -198.45,171.48 -61.65,34.68 -111.74,50.09 -142.57,48.16 -30.82,-1.92 -42.38,-21.19 -48.16,-25.04 -5.79,-3.86 -5.79,7.7 -9.64,67.43 -3.85,59.73 -11.55,167.62 -28.89,254.32 -17.34,86.7 -44.32,152.21 -123.32,219.64 -78.99,67.43 -210,136.79 -317.89,179.18 -107.89,42.38 -192.66,57.8 -283.22,53.95 -90.55,-3.86 -186.89,-26.98 -235.06,-38.54 -48.16,-11.56 -48.16,-11.56 -88.62,15.41 -40.46,26.98 -121.38,80.92 -198.44,113.68 -77.07,32.75 -150.28,44.31 -246.62,42.38 -96.33,-1.93 -215.78,-17.33 -337.16,-57.8 -121.38,-40.45 -244.68,-105.96 -337.16,-165.69 -92.48,-59.73 -154.14,-113.67 -196.52,-165.69 -42.39,-52.02 -65.51,-102.12 -88.63,-131.02 -23.12,-28.89 -46.24,-36.6 -113.67,-88.62 -67.44,-52.02 -179.18,-148.35 -269.74,-277.44 -90.55,-129.09 -159.91,-290.92 -231.2,-456.62 -71.28,-165.69 -144.5,-335.24 -210,-441.21 -65.51,-105.96 -123.31,-148.34 -200.37,-188.81 -77.07,-40.46 -173.4,-78.99 -285.15,-146.43 -111.74,-67.43 -238.9,-163.76 -327.53,-236.98 -88.63,-73.21 -138.72,-123.3 -169.54,-154.13 -30.83,-30.82 -42.39,-42.38 -105.97,-63.57 -63.58,-21.2 -179.18,-52.02 -352.58,-63.58 -173.4,-11.56 -404.6,-3.86 -672.4,3.85 -267.81,7.7 -572.22,15.41 -818.83,30.83 -246.61,15.41 -435.43,38.53 -618.46,69.35 -183.03,30.83 -360.29,69.37 -481.66,109.82 -121.38,40.47 -186.9,82.85 -194.6,119.46 -7.7,36.61 42.39,67.43 115.6,98.26 73.22,30.82 169.55,61.65 246.61,100.18 77.07,38.54 134.87,84.78 171.48,132.94 36.6,48.17 52.02,98.26 15.41,177.25 -36.61,79 -125.24,186.89 -244.68,258.18 -119.46,71.29 -269.74,105.97 -448.92,84.77 -179.17,-21.19 -387.25,-98.26 -541.38,-208.08 -154.14,-109.82 -254.33,-252.39 -310.2,-375.69 -55.88,-123.31 -67.43,-227.35 -52.02,-335.24 15.41,-107.9 57.8,-219.64 154.13,-333.32 96.33,-113.67 246.61,-229.27 402.67,-325.6 156.06,-96.34 317.9,-173.4 549.1,-250.46 231.2,-77.07 531.76,-154.14 801.5,-210.02 269.72,-55.87 508.63,-90.54 786.07,-104.03 277.44,-13.49 593.41,-5.79 824.61,7.7 231.2,13.49 377.62,32.76 450.84,42.39 73.21,9.63 73.21,9.63 61.65,-136.79 -11.56,-146.43 -34.68,-439.28 -17.34,-647.36 17.34,-208.08 75.13,-331.38 113.67,-418.09 38.54,-86.7 57.8,-136.79 61.65,-223.49 3.85,-86.7 -7.7,-210 -1.92,-348.72 5.78,-138.72 28.9,-292.85 77.07,-464.33 48.16,-171.47 121.38,-360.29 175.33,-543.32 53.94,-183.03 88.61,-360.29 127.15,-489.37 38.54,-129.08 80.92,-210 132.94,-352.58 52.02,-142.57 113.67,-346.8 173.4,-525.98 59.72,-179.17 117.52,-333.31 227.34,-518.27 109.82,-184.95 271.66,-400.74 358.37,-554.87 86.69,-154.14 98.25,-246.62 105.96,-387.26 7.7,-140.65 11.56,-329.46 55.87,-531.76 44.31,-202.3 129.09,-418.09 196.52,-578 67.43,-159.91 117.53,-263.95 140.65,-358.36 23.11,-94.4 19.26,-179.18 -1.93,-312.11 -21.2,-132.95 -59.73,-314.06 -79,-512.5 -19.26,-198.45 -19.26,-414.23 -30.82,-574.14 -11.56,-159.92 -34.68,-263.96 -30.83,-408.45 3.86,-144.51 34.68,-329.46 96.34,-491.3 61.65,-161.84 154.13,-300.56 258.17,-464.33z"/>
    <path class="fil1" d="M12886.36 11877.16c66.47,51.05 153.17,116.56 237.94,157.98 84.77,41.43 167.62,58.76 251.43,60.69 83.81,1.92 168.58,-11.56 239.87,-32.76 71.29,-21.19 129.08,-50.09 174.36,-88.62 45.28,-38.53 78.03,-86.7 108.86,-127.16 30.83,-40.46 59.72,-73.21 74.17,-89.59 14.46,-16.37 14.46,-16.37 -11.56,26.98 -26.01,43.35 -78.02,130.04 -125.23,190.74 -47.2,60.68 -89.59,95.36 -154.13,124.26 -64.54,28.9 -151.25,52.02 -250.47,54.91 -99.22,2.89 -210.97,-14.45 -297.67,-50.08 -86.69,-35.65 -148.35,-89.6 -210,-150.29 -61.65,-60.69 -123.31,-128.12 -156.06,-162.8 -32.75,-34.69 -36.61,-36.61 -15.41,-19.26 21.19,17.33 67.43,53.94 133.9,105z"/>
    <path class="fil1" d="M12525.11 17837.29c-132.94,327.54 -294.78,728.29 -429.64,1078.94 -134.87,350.65 -242.76,651.21 -319.84,888.18 -77.06,236.98 -123.3,410.39 -134.86,583.78 -11.56,173.4 11.56,346.8 7.71,319.83 -3.85,-26.98 -34.68,-254.32 -69.36,-506.71 -34.68,-252.39 -73.21,-529.83 -123.3,-780.3 -50.1,-250.46 -111.75,-473.96 -190.75,-766.81 -78.99,-292.85 -175.32,-655.06 -236.98,-944.07 -61.65,-288.99 -88.62,-504.78 -102.11,-612.67 -13.48,-107.9 -13.48,-107.9 25.05,69.36 38.53,177.25 115.6,531.75 194.59,851.58 78.99,319.82 159.91,604.97 225.42,832.31 65.51,227.35 115.6,396.9 152.21,568.37 36.6,171.47 59.72,344.88 77.06,497.08 17.34,152.21 28.9,283.22 34.68,350.65 5.78,67.44 5.78,71.29 5.78,13.49 0,-57.8 0,-177.25 21.2,-312.12 21.19,-134.87 63.57,-285.14 165.69,-564.51 102.11,-279.37 263.95,-687.82 446.98,-1107.83 183.03,-420.01 387.27,-851.58 489.38,-1069.29 102.11,-217.72 102.11,-221.57 50.09,-96.34 -52.02,125.24 -156.06,379.55 -289,707.08z"/>
    <path class="fil1" d="M13446.05 18097.4c-82.84,190.73 -221.56,495.15 -323.68,766.8 -102.11,271.67 -167.61,510.57 -204.22,687.82 -36.61,177.25 -44.31,292.85 -48.16,341.02 -3.86,48.17 -3.86,28.91 19.26,-69.35 23.12,-98.26 69.36,-275.52 127.16,-473.97 57.79,-198.44 127.16,-418.08 227.34,-662.77 100.19,-244.68 231.2,-514.42 358.37,-791.85 127.16,-277.44 250.46,-562.59 344.86,-874.71 94.41,-312.12 159.92,-651.21 207.44,-1060.95 47.52,-409.74 77.06,-890.13 71.64,-1250.09 -5.42,-359.96 -45.79,-599.49 -64.7,-706.95 -18.91,-107.45 -16.35,-82.84 -14.79,82.53 1.57,165.37 2.15,471.49 -7.2,803.72 -9.35,332.24 -28.62,690.6 -65.23,1025.84 -36.6,335.24 -90.55,647.36 -175.32,949.84 -84.77,302.49 -200.37,595.34 -271.66,780.3 -71.29,184.96 -98.26,262.03 -181.11,452.77z"/>
    <path class="fil1" d="M9953.03 18014.55c-80.93,-219.64 -208.08,-570.29 -296.71,-826.53 -88.62,-256.25 -138.72,-418.09 -154.13,-547.18 -15.41,-129.08 3.85,-225.41 36.6,-321.74 32.76,-96.33 79,-192.67 104.04,-335.25 25.05,-142.57 28.91,-331.38 28.91,-479.73 0,-148.35 -3.86,-256.25 7.7,-418.09 11.56,-161.83 38.53,-377.62 63.58,-630.01 25.05,-252.39 48.16,-541.4 59.72,-685.89 11.56,-144.51 11.56,-144.51 -13.48,50.09 -25.05,194.59 -75.14,583.78 -119.45,957.55 -44.32,373.77 -82.85,732.13 -100.19,940.21 -17.34,208.07 -13.48,265.88 -30.83,339.09 -17.34,73.21 -55.87,161.84 -92.47,242.76 -36.61,80.92 -71.29,154.14 -57.8,300.56 13.48,146.43 75.14,366.06 186.88,680.11 111.74,314.04 273.59,722.5 400.75,1121.31 127.15,398.82 219.64,788.01 263.95,1206.1 44.31,418.08 40.46,865.06 44.31,1167.22 3.85,302.16 15.4,459.49 21.18,538.15 5.78,78.67 5.78,78.67 11.56,-86.7 5.78,-165.36 17.35,-496.09 28.91,-804.03 11.56,-307.93 23.12,-593.08 17.34,-799.24 -5.78,-206.15 -28.89,-333.3 -75.13,-522.12 -46.25,-188.81 -115.6,-439.27 -167.63,-608.82 -52.02,-169.55 -86.7,-258.18 -167.61,-477.82z"/>
   </g>
   <circle class="fil2 str0" cx="10755.05" cy="14428.61" r="8781.69"/>
  </g>
 </g>
</svg>
