<?xml version="1.0" encoding="UTF-8"?>
<!DOCTYPE svg PUBLIC "-//W3C//DTD SVG 1.1//EN" "http://www.w3.org/Graphics/SVG/1.1/DTD/svg11.dtd">
<!-- Creator: CorelDRAW 2018 (64-Bit) -->
<svg xmlns="http://www.w3.org/2000/svg" xml:space="preserve" width="210mm" height="297mm" version="1.1" style="shape-rendering:geometricPrecision; text-rendering:geometricPrecision; image-rendering:optimizeQuality; fill-rule:evenodd; clip-rule:evenodd"
viewBox="0 0 21000 29700"
 xmlns:xlink="http://www.w3.org/1999/xlink">
 <defs>
  <style type="text/css">
   <![CDATA[
    .fil1 {fill:#FEFEFE}
    .fil0 {fill:#1F1B20}
   ]]>
  </style>
 </defs>
 <g id="Слой_x0020_1">
  <metadata id="CorelCorpID_0Corel-Layer"/>
  <g id="_2240548041760">
   <path class="fil0" d="M6347.72 5102.4c48.51,-17.64 92.6,-23.52 173.45,26.46 80.84,49.97 198.44,155.81 313.09,291.04 114.65,135.23 226.37,299.86 296.93,388.06 70.55,88.19 99.94,99.94 120.52,83.77 20.58,-16.17 32.34,-60.26 49.98,-248.41 17.64,-188.15 41.16,-520.34 54.39,-737.88 13.23,-217.55 16.17,-320.45 27.93,-373.36 11.76,-52.92 32.33,-55.86 63.2,-24.99 30.87,30.86 72.02,95.54 111.71,202.84 39.69,107.3 77.91,257.23 111.72,407.16 33.81,149.93 63.2,299.87 77.9,380.72 14.7,80.84 14.7,92.59 36.75,95.53 22.05,2.94 66.14,-2.94 114.65,-14.7 48.51,-11.76 101.42,-29.39 202.85,-76.43 101.42,-47.04 251.36,-123.47 371.89,-177.86 120.53,-54.39 211.67,-86.72 293.98,-104.36 82.31,-17.64 155.81,-20.58 301.33,-29.4 145.52,-8.82 363.06,-23.52 523.28,-32.34 160.22,-8.82 263.12,-11.76 363.08,-16.17 99.95,-4.41 196.96,-10.29 279.28,-19.11 82.31,-8.82 149.93,-20.57 254.29,-32.33 104.36,-11.76 245.48,-23.52 330.73,1.47 85.26,24.99 114.65,86.72 133.76,145.52 19.11,58.8 27.93,114.65 47.04,166.1 19.11,51.45 48.5,98.48 83.78,160.22 35.28,61.73 76.44,138.17 79.38,213.14 2.94,74.96 -32.34,148.45 -29.4,194.02 2.94,45.57 44.1,63.2 67.62,110.24 23.52,47.04 29.39,123.47 14.69,226.37 -14.7,102.89 -49.97,232.25 -88.19,320.45 -38.22,88.19 -79.37,135.22 -191.09,233.71 -111.71,98.48 -293.98,248.41 -427.74,371.88 -133.76,123.47 -219.02,220.49 -274.87,338.08 -55.86,117.59 -82.32,255.76 -111.72,395.4 -29.4,139.64 -61.73,280.76 -33.8,386.59 27.92,105.83 116.12,176.39 219.01,204.32 102.89,27.92 220.49,13.22 393.94,38.21 173.45,24.99 402.75,89.66 585.02,160.22 182.27,70.56 317.5,146.99 527.69,219.02 210.2,72.02 495.37,139.64 792.29,183.74 296.92,44.09 605.6,64.67 823.14,74.96 217.55,10.29 343.97,10.29 429.22,-23.52 85.26,-33.81 129.35,-101.42 151.4,-176.38 22.05,-74.97 22.05,-157.29 58.8,-270.47 36.75,-113.18 110.24,-257.23 201.37,-477.71 91.14,-220.49 199.92,-517.42 291.05,-870.19 91.13,-352.78 164.63,-761.42 219.01,-1112.72 54.39,-351.31 89.66,-645.29 111.71,-871.65 22.05,-226.37 30.87,-385.12 0,-510.06 -30.86,-124.94 -101.42,-216.08 -148.46,-305.74 -47.03,-89.67 -70.55,-177.86 -55.85,-242.54 14.7,-64.68 67.61,-105.83 122,-117.59 54.39,-11.76 110.24,5.88 151.4,-76.43 41.16,-82.32 67.62,-264.59 49.98,-452.74 -17.64,-188.15 -79.37,-382.17 -127.88,-515.93 -48.51,-133.77 -83.79,-207.26 -88.2,-273.4 -4.41,-66.15 22.05,-124.95 64.68,-169.04 42.63,-44.1 101.42,-73.5 170.5,-73.5 69.09,0 148.47,29.4 201.38,36.75 52.92,7.35 79.38,-7.35 97.02,-79.37 17.64,-72.03 26.46,-201.39 45.57,-289.58 19.11,-88.2 48.5,-135.23 95.54,-170.51 47.04,-35.28 111.71,-58.79 174.92,-72.02 63.21,-13.23 124.94,-16.17 173.45,-4.41 48.51,11.76 83.78,38.21 105.83,73.49 22.05,35.28 30.87,79.37 38.22,136.7 7.35,57.33 13.23,127.88 22.05,177.86 8.82,49.98 20.58,79.37 47.04,88.19 26.46,8.82 67.61,-2.93 99.95,-38.21 32.34,-35.28 55.85,-94.07 83.78,-127.88 27.93,-33.81 60.27,-42.63 105.84,-45.57 45.57,-2.94 104.36,0 152.87,24.99 48.51,24.99 86.72,72.02 108.77,132.29 22.05,60.27 27.93,133.76 23.52,196.97 -4.41,63.21 -19.11,116.12 -38.22,161.69 -19.11,45.57 -42.63,83.78 -67.62,135.23 -24.99,51.45 -51.44,116.12 -44.09,160.22 7.35,44.1 48.5,67.61 97.01,80.84 48.51,13.23 104.36,16.17 158.75,-1.47 54.39,-17.64 107.3,-55.85 158.75,-42.62 51.45,13.23 101.42,77.9 89.66,166.1 -11.75,88.19 -85.25,199.9 -155.81,282.22 -70.55,82.31 -138.16,135.22 -211.66,192.55 -73.5,57.33 -152.87,119.06 -216.08,174.92 -63.21,55.86 -110.24,105.83 -148.46,232.25 -38.22,126.41 -67.61,329.25 -86.72,533.57 -19.11,204.32 -27.93,410.1 -19.11,537.99 8.82,127.88 35.27,177.86 23.51,283.7 -11.76,105.83 -61.73,267.51 -101.42,468.89 -39.69,201.38 -69.08,442.44 -89.66,717.32 -20.58,274.87 -32.34,583.55 -45.57,909.87 -13.23,326.32 -27.93,670.27 -51.45,914.28 -23.52,244 -55.85,388.05 -72.02,517.4 -16.17,129.35 -16.17,244.01 -33.81,433.63 -17.64,189.61 -52.91,454.2 -82.31,720.25 -29.4,266.05 -52.92,533.58 -107.31,705.56 -54.38,171.98 -139.64,248.41 -271.93,335.14 -132.29,86.72 -311.62,183.74 -511.53,305.74 -199.91,122 -420.39,268.99 -580.61,389.52 -160.22,120.53 -260.18,214.61 -364.54,370.42 -104.36,155.81 -213.14,373.35 -363.07,580.61 -149.93,207.26 -341.01,404.22 -480.66,577.67 -139.64,173.45 -227.83,323.38 -292.51,502.71 -64.68,179.33 -105.83,388.05 -123.47,605.6 -17.64,217.55 -11.76,443.91 2.94,662.93 14.7,219.02 38.22,430.68 70.56,726.13 32.34,295.46 73.49,674.69 192.55,1100.96 119.07,426.28 316.03,899.58 493.89,1300.86 177.86,401.29 336.61,730.55 520.35,1109.78 183.74,379.24 392.46,808.46 629.11,1267.07 236.66,458.61 501.25,946.62 655.59,1240.6 154.34,293.98 198.44,393.94 246.95,471.84 48.51,77.91 101.42,133.76 145.52,192.55 44.1,58.8 79.37,120.54 94.07,192.56 14.7,72.03 8.82,154.34 45.56,224.9 36.75,70.56 116.13,129.35 174.92,177.86 58.8,48.51 97.02,86.72 119.07,127.88 22.05,41.16 27.93,85.25 42.63,146.99 14.7,61.74 38.21,141.11 48.5,204.32 10.29,63.21 7.35,110.24 -27.93,141.11 -35.27,30.87 -102.89,45.56 -145.52,44.09 -42.62,-1.47 -60.26,-19.1 -77.9,-16.16 -17.64,2.94 -35.28,26.45 -92.61,51.44 -57.32,24.99 -154.34,51.45 -211.67,48.51 -57.32,-2.94 -74.96,-35.28 -98.48,-39.69 -23.52,-4.41 -52.91,19.11 -108.77,33.81 -55.86,14.7 -138.17,20.58 -198.44,20.58 -60.27,0 -98.48,-5.88 -120.53,-14.7 -22.05,-8.82 -27.93,-20.58 -32.34,-17.64 -4.41,2.94 -7.35,20.58 -45.57,38.22 -38.21,17.64 -111.71,35.27 -171.98,30.86 -60.26,-4.41 -107.29,-30.86 -148.45,-91.13 -41.16,-60.26 -76.44,-154.34 -104.37,-254.29 -27.93,-99.95 -48.5,-205.79 -58.79,-286.64 -10.29,-80.84 -10.29,-136.69 -42.63,-246.94 -32.34,-110.24 -97.01,-274.87 -152.87,-404.22 -55.86,-129.35 -102.89,-223.43 -164.63,-329.26 -61.74,-105.83 -138.17,-223.43 -207.26,-358.66 -69.09,-135.23 -130.82,-288.1 -201.38,-436.56 -70.55,-148.46 -149.93,-292.51 -327.79,-561.51 -177.85,-268.99 -454.2,-662.92 -693.8,-1025.99 -239.59,-363.07 -442.43,-695.26 -627.64,-1028.93 -185.21,-333.67 -352.78,-668.81 -476.26,-901.06 -123.47,-232.24 -202.84,-361.59 -264.58,-429.21 -61.74,-67.61 -105.83,-73.49 -174.92,-92.6 -69.08,-19.11 -163.16,-51.45 -230.78,-88.2 -67.61,-36.75 -108.76,-77.9 -213.13,-20.58 -104.36,57.33 -271.93,213.14 -404.22,320.44 -132.29,107.31 -229.31,166.1 -298.39,199.91 -69.09,33.81 -110.24,42.63 -98.48,51.45 11.75,8.82 76.43,17.64 144.05,79.37 67.61,61.74 138.16,176.4 191.08,286.64 52.92,110.24 88.19,216.08 114.65,360.13 26.46,144.05 44.1,326.31 38.22,602.65 -5.88,276.35 -35.27,646.76 -70.55,955.44 -35.28,308.68 -76.44,555.63 -91.14,695.27 -14.7,139.64 -2.94,171.98 42.63,182.27 45.57,10.29 124.94,-1.47 205.79,-8.82 80.84,-7.35 163.16,-10.29 266.05,-23.52 102.89,-13.23 226.37,-36.75 396.88,11.75 170.51,48.51 388.05,169.05 595.31,324.86 207.26,155.81 404.22,346.89 535.04,510.05 130.83,163.16 195.5,298.4 180.8,488.01 -14.69,189.62 -108.77,433.63 -227.83,598.25 -119.06,164.63 -263.12,249.89 -301.34,326.32 -38.21,76.44 29.4,144.05 48.51,205.79 19.11,61.74 -10.28,117.59 -47.03,163.16 -36.75,45.57 -80.85,80.84 -260.18,94.07 -179.33,13.23 -493.89,4.41 -883.42,17.64 -389.52,13.23 -854.01,48.51 -1346.43,61.74 -492.42,13.23 -1012.76,4.41 -1311.15,10.29 -298.4,5.88 -374.83,26.46 -488.01,63.21 -113.19,36.75 -263.12,89.66 -402.76,126.41 -139.64,36.75 -269,57.32 -391,64.67 -122,7.35 -236.65,1.47 -320.43,-17.64 -83.79,-19.11 -136.7,-51.44 -296.92,-73.49 -160.22,-22.05 -427.75,-33.81 -642.35,-42.63 -214.61,-8.82 -376.3,-14.7 -482.13,-49.98 -105.84,-35.28 -155.81,-99.95 -230.78,-236.66 -74.97,-136.7 -174.92,-345.42 -213.14,-543.86 -38.22,-198.44 -14.7,-386.58 -30.87,-573.26 -16.17,-186.68 -72.02,-371.88 -139.63,-651.17 -67.62,-279.28 -147,-652.63 -179.33,-1081.85 -32.34,-429.21 -17.65,-914.28 44.09,-1440.51 61.73,-526.22 170.51,-1093.61 305.74,-1671.28 135.23,-577.67 296.92,-1165.64 433.62,-1615.43 136.7,-449.79 248.42,-761.41 396.88,-1123.01 148.46,-361.59 333.67,-773.17 557.1,-1134.76 223.42,-361.6 485.07,-673.22 690.86,-896.64 205.78,-223.43 355.71,-358.66 514.46,-493.89 158.75,-135.23 326.32,-270.47 432.16,-361.6 105.83,-91.14 149.92,-138.17 182.26,-216.07 32.34,-77.91 52.92,-186.69 79.38,-264.59 26.46,-77.91 58.79,-124.94 85.25,-160.22 26.46,-35.28 47.04,-58.79 45.57,-126.4 -1.47,-67.62 -24.99,-179.34 -39.69,-279.29 -14.7,-99.95 -20.58,-188.15 -26.46,-264.58 -5.88,-76.44 -11.76,-141.11 -44.1,-236.65 -32.34,-95.55 -91.13,-221.97 -141.11,-321.92 -49.98,-99.95 -91.13,-173.45 -155.8,-295.45 -64.68,-122 -152.88,-292.51 -239.6,-438.03 -86.73,-145.52 -171.98,-266.06 -264.58,-411.58 -92.61,-145.52 -192.57,-316.02 -274.88,-476.24 -82.32,-160.22 -146.99,-310.16 -177.86,-530.64 -30.87,-220.49 -27.93,-511.53 -52.92,-729.07 -24.99,-217.55 -77.9,-361.6 -138.16,-558.56 -60.27,-196.97 -127.89,-446.86 -183.74,-736.43 -55.86,-289.57 -99.96,-618.83 -110.25,-814.33 -10.29,-195.5 13.23,-257.23 51.45,-302.8 38.22,-45.57 91.13,-74.96 139.64,-92.6z"/>
   <path class="fil1" d="M11045.54 22304.75c74.97,42.63 142.58,83.78 194.03,120.53 51.45,36.75 86.72,69.08 101.42,102.89 14.7,33.81 8.82,69.09 -42.63,127.88 -51.44,58.8 -148.46,141.12 -248.41,205.79 -99.95,64.68 -202.85,111.71 -345.43,148.46 -142.58,36.75 -324.85,63.21 -605.6,83.79 -280.76,20.58 -659.99,35.28 -877.54,39.69 -217.55,4.41 -273.4,-1.47 -301.33,-4.41 -27.93,-2.94 -27.93,-2.94 17.64,-42.63 45.56,-39.69 136.7,-119.06 238.12,-202.85 101.42,-83.78 213.14,-171.98 355.72,-258.71 142.58,-86.72 316.03,-171.97 471.84,-245.47 155.81,-73.5 293.98,-135.23 424.8,-167.57 130.82,-32.34 254.3,-35.28 357.19,-14.7 102.9,20.58 185.21,64.68 260.18,107.31z"/>
   <path class="fil1" d="M8654.22 23291.76c-117.85,90.4 -270.73,213.88 -410.37,332.94 -139.64,119.06 -266.05,233.72 -395.4,305.74 -129.35,72.03 -261.65,101.42 -494.62,163.89 -232.97,62.47 -566.62,158 -733.44,205.77 -166.83,47.77 -166.83,47.77 -52.92,24.99 113.91,-22.78 341.72,-68.34 583.51,-124.93 241.79,-56.59 497.56,-124.2 678.36,-206.52 180.79,-82.31 286.63,-179.33 458.86,-332.93 172.23,-153.6 410.86,-363.78 530.18,-468.88 119.31,-105.09 119.31,-105.09 77.9,-76.43 -41.41,28.66 -124.22,85.97 -242.06,176.36z"/>
   <path class="fil1" d="M9698.84 21604.3c-218.78,134.5 -512.77,334.4 -784.7,549.01 -271.93,214.61 -521.82,443.91 -724.66,654.11 -202.85,210.2 -358.67,401.29 -595.32,501.24 -236.66,99.96 -554.16,108.78 -796.69,92.61 -242.54,-16.17 -410.11,-57.32 -549.75,-70.55 -139.64,-13.23 -251.36,1.46 -385.12,67.6 -133.76,66.15 -289.57,183.75 -424.8,276.35 -135.23,92.61 -249.89,160.22 -317.5,208.73 -67.62,48.51 -88.19,77.9 -98.48,92.6 -10.29,14.7 -10.29,14.7 41.16,-38.22 51.44,-52.91 154.34,-158.75 298.39,-273.4 144.05,-114.65 329.25,-238.12 455.67,-305.74 126.41,-67.61 194.02,-79.37 268.99,-85.25 74.97,-5.88 157.28,-5.88 266.06,8.82 108.77,14.7 244,44.09 420.39,54.38 176.39,10.29 393.93,1.47 567.38,-38.22 173.45,-39.68 302.81,-110.24 429.22,-208.72 126.41,-98.48 249.89,-224.9 408.64,-377.77 158.75,-152.87 352.77,-332.2 557.09,-499.77 204.32,-167.57 418.92,-323.38 637.94,-463.02 219.02,-139.64 442.44,-263.12 581.85,-330 139.4,-66.88 194.78,-77.17 222.47,-82.32 27.69,-5.14 27.69,-5.14 -44.09,29.4 -71.79,34.55 -215.37,103.63 -434.14,238.13z"/>
  </g>
 </g>
</svg>
