<?xml version="1.0" encoding="UTF-8"?>
<!DOCTYPE svg PUBLIC "-//W3C//DTD SVG 1.1//EN" "http://www.w3.org/Graphics/SVG/1.1/DTD/svg11.dtd">
<!-- Creator: CorelDRAW 2018 (64-Bit) -->
<svg xmlns="http://www.w3.org/2000/svg" xml:space="preserve" width="210mm" height="297mm" version="1.1" style="shape-rendering:geometricPrecision; text-rendering:geometricPrecision; image-rendering:optimizeQuality; fill-rule:evenodd; clip-rule:evenodd"
viewBox="0 0 21000 29700"
 xmlns:xlink="http://www.w3.org/1999/xlink">
 <defs>
  <style type="text/css">
   <![CDATA[
    .fil1 {fill:#FEFEFE}
    .fil0 {fill:#1F1B20}
   ]]>
  </style>
 </defs>
 <g id="Слой_x0020_1">
  <metadata id="CorelCorpID_0Corel-Layer"/>
  <g id="_2240547603952">
   <path class="fil0" d="M4247.19 4673.19c32.34,373.36 85.25,884.88 167.57,1461.09 82.31,576.2 194.03,1217.08 302.8,1690.39 108.77,473.31 214.61,779.06 367.48,1108.32 152.87,329.26 352.77,682.03 535.04,928.98 182.27,246.94 346.9,388.05 517.41,499.77 170.51,111.71 346.9,194.02 505.65,235.18 158.75,41.16 299.86,41.16 479.19,55.86 179.33,14.7 396.87,44.09 684.98,108.77 288.1,64.67 646.76,164.63 964.26,249.89 317.5,85.25 593.84,155.8 884.88,205.78 291.04,49.98 596.79,79.38 893.71,91.14 296.92,11.76 585.03,5.88 776.11,-8.82 191.09,-14.7 285.17,-38.22 332.2,-49.98 47.04,-11.76 47.04,-11.76 29.4,-164.63 -17.64,-152.87 -52.92,-458.61 -35.28,-790.81 17.64,-332.2 88.19,-690.86 155.81,-917.22 67.62,-226.37 132.29,-320.45 138.17,-426.28 5.88,-105.83 -47.03,-223.43 -47.03,-338.08 0,-114.65 52.91,-226.37 67.61,-435.09 14.7,-208.73 -8.82,-514.47 -32.34,-790.81 -23.52,-276.34 -47.03,-523.29 -82.31,-696.73 -35.28,-173.45 -82.31,-273.41 -88.19,-326.32 -5.88,-52.92 29.39,-58.8 105.82,-17.64 76.44,41.15 194.04,129.35 367.49,282.22 173.45,152.87 402.75,370.41 599.72,532.1 196.97,161.69 361.6,267.53 467.43,323.39 105.84,55.85 152.87,61.73 214.6,52.91 61.74,-8.82 138.18,-32.34 205.79,-2.94 67.62,29.4 126.41,111.71 214.6,164.63 88.2,52.92 205.8,76.43 343.97,94.07 138.17,17.64 296.92,29.4 452.73,47.04 155.81,17.64 308.68,41.16 455.67,49.98 146.99,8.82 288.11,2.94 396.88,-29.4 108.77,-32.34 185.21,-91.13 244,-117.59 58.8,-26.46 99.96,-20.58 149.93,-14.7 49.98,5.88 108.78,11.76 185.21,-23.52 76.44,-35.28 170.51,-111.71 311.62,-223.42 141.12,-111.72 329.26,-258.71 523.29,-388.06 194.03,-129.35 393.94,-241.07 552.69,-293.98 158.75,-52.92 276.34,-47.04 311.61,41.16 35.28,88.19 -11.75,258.7 -70.55,482.13 -58.79,223.42 -129.35,499.77 -179.33,690.86 -49.97,191.08 -79.37,296.92 -114.65,420.39 -35.28,123.47 -76.43,264.58 -94.07,388.05 -17.64,123.47 -11.76,229.31 17.64,352.78 29.4,123.47 82.31,264.58 114.65,388.05 32.34,123.47 44.1,229.31 38.22,376.3 -5.88,146.99 -29.4,335.14 -70.56,546.81 -41.16,211.67 -99.95,446.85 -144.05,608.54 -44.1,161.69 -73.49,249.89 -123.47,361.6 -49.98,111.71 -120.53,246.94 -196.97,435.09 -76.44,188.15 -158.75,429.21 -194.03,632.06 -35.28,202.85 -23.52,367.48 -5.88,614.43 17.64,246.94 41.16,576.2 5.88,1037.75 -35.27,461.55 -129.35,1055.4 -255.76,1596.32 -126.41,540.93 -285.17,1028.94 -517.42,1549.29 -232.24,520.35 -537.98,1073.03 -779.05,1543.4 -241.06,470.37 -417.45,858.43 -587.96,1264.12 -170.51,405.7 -335.14,829.03 -461.55,1202.39 -126.41,373.36 -214.61,696.74 -349.84,1046.58 -135.23,349.84 -317.5,726.13 -382.18,1070.09 -64.67,343.96 -11.76,655.58 20.58,820.21 32.34,164.63 44.1,182.26 132.29,220.48 88.2,38.22 252.83,97.01 364.54,196.96 111.72,99.96 170.51,241.08 191.09,373.37 20.58,132.29 2.94,255.76 -35.28,335.13 -38.22,79.38 -97.01,114.66 -185.21,135.24 -88.19,20.58 -205.78,26.46 -273.4,32.34 -67.61,5.88 -85.25,11.76 -94.07,64.67 -8.82,52.92 -8.82,152.88 -2.94,244.01 5.88,91.13 17.64,173.45 -5.88,229.3 -23.52,55.86 -82.31,85.26 -211.67,108.78 -129.35,23.52 -329.25,41.15 -602.66,44.09 -273.4,2.94 -620.3,-8.81 -852.55,-41.15 -232.24,-32.34 -349.84,-85.25 -420.4,-146.99 -70.55,-61.74 -94.06,-132.29 -99.94,-238.13 -5.88,-105.83 5.87,-246.95 29.39,-352.78 23.52,-105.83 58.8,-176.39 64.68,-249.89 5.88,-73.49 -17.64,-149.92 -76.44,-302.8 -58.79,-152.87 -152.87,-382.17 -226.37,-682.04 -73.49,-299.86 -126.4,-670.27 -217.54,-1117.13 -91.13,-446.85 -220.49,-970.13 -346.9,-1484.6 -126.41,-514.47 -249.89,-1020.12 -341.02,-1417 -91.13,-396.87 -149.93,-684.97 -194.02,-837.84 -44.1,-152.87 -73.5,-170.51 -293.98,-199.91 -220.49,-29.4 -632.07,-70.55 -934.87,-105.83 -302.8,-35.28 -496.83,-64.68 -593.84,-79.38 -97.02,-14.7 -97.02,-14.7 -94.08,35.27 2.94,49.98 8.82,149.94 -120.53,332.21 -129.35,182.27 -393.94,446.85 -623.24,673.22 -229.31,226.37 -423.33,414.51 -546.8,587.96 -123.48,173.45 -176.39,332.2 -211.67,449.79 -35.28,117.6 -52.92,194.03 -61.74,232.25 -8.82,38.22 -8.82,38.22 70.56,246.94 79.37,208.73 238.12,626.19 346.9,940.75 108.77,314.56 167.56,526.22 199.9,632.05 32.34,105.84 38.22,105.84 94.08,97.02 55.85,-8.82 161.69,-26.46 264.58,-17.64 102.89,8.82 202.85,44.1 305.74,132.29 102.89,88.2 208.73,229.31 273.41,349.84 64.67,120.53 88.19,220.49 102.89,323.38 14.7,102.89 20.57,208.73 -0.01,282.22 -20.58,73.5 -67.61,114.66 -132.28,129.36 -64.68,14.7 -147,2.94 -261.65,-2.94 -114.65,-5.88 -261.64,-5.88 -438.03,-5.88 -176.39,0 -382.18,0 -546.81,0 -164.63,0 -288.1,0 -361.59,-49.98 -73.5,-49.97 -97.02,-149.93 -167.57,-261.64 -70.56,-111.71 -188.16,-235.19 -285.17,-379.24 -97.01,-144.05 -173.45,-308.68 -267.52,-511.53 -94.07,-202.85 -205.79,-443.91 -314.56,-673.22 -108.77,-229.31 -214.61,-446.85 -279.28,-664.4 -64.68,-217.54 -88.2,-435.09 -126.42,-637.94 -38.22,-202.84 -91.13,-390.99 -120.53,-532.1 -29.4,-141.11 -35.28,-235.19 -17.64,-320.45 17.64,-85.25 58.79,-161.68 79.37,-199.9 20.58,-38.22 20.58,-38.22 -91.13,123.47 -111.71,161.69 -335.14,485.07 -499.77,702.61 -164.63,217.55 -270.46,329.27 -326.32,408.64 -55.86,79.38 -61.73,126.41 -11.75,329.26 49.97,202.85 155.81,561.51 267.52,873.13 111.71,311.62 229.3,576.21 288.1,708.5 58.79,132.29 58.79,132.29 105.83,123.47 47.04,-8.82 141.11,-26.46 241.07,29.39 99.95,55.86 205.79,185.22 282.23,273.41 76.43,88.2 123.46,135.23 155.8,199.9 32.34,64.68 49.98,147 41.16,226.37 -8.82,79.38 -44.1,155.81 -97.01,226.37 -52.92,70.56 -123.48,135.23 -244.01,158.75 -120.53,23.52 -291.04,5.88 -476.25,-2.94 -185.21,-8.82 -385.12,-8.82 -540.93,-26.46 -155.81,-17.64 -267.53,-52.91 -367.48,-82.31 -99.95,-29.4 -188.15,-52.92 -261.64,-141.12 -73.5,-88.19 -132.29,-241.06 -229.3,-508.59 -97.02,-267.52 -232.25,-649.69 -349.84,-1034.81 -117.6,-385.12 -217.55,-773.17 -302.8,-1128.89 -85.26,-355.72 -155.82,-679.1 -170.51,-931.93 -14.7,-252.82 26.45,-435.09 76.43,-670.28 49.98,-235.18 108.77,-523.28 246.95,-1064.21 138.17,-540.92 355.71,-1334.67 446.85,-1872.66 91.13,-537.98 55.86,-820.21 -11.76,-1270 -67.62,-449.79 -167.57,-1067.16 -202.85,-1534.59 -35.28,-467.43 -5.88,-784.93 102.9,-1193.56 108.77,-408.64 296.91,-908.41 440.97,-1249.43 144.05,-341.02 244,-523.28 246.94,-802.56 2.94,-279.29 -91.13,-655.58 -211.66,-1052.46 -120.54,-396.88 -267.53,-814.33 -399.82,-1402.29 -132.29,-587.97 -249.89,-1346.45 -326.32,-2063.76 -76.44,-717.32 -111.71,-1393.47 -129.35,-1934.4 -17.64,-540.93 -17.64,-946.62 23.52,-1293.52 41.15,-346.9 123.47,-635 223.42,-837.84 99.95,-202.85 217.55,-320.45 352.78,-408.64 135.23,-88.2 288.1,-146.99 429.21,-141.11 141.11,5.88 270.47,76.43 408.64,167.57 138.17,91.13 285.16,202.85 402.76,346.9 117.59,144.05 205.78,320.43 229.3,446.85 23.52,126.41 -17.64,202.84 -117.59,238.12 -99.96,35.28 -258.71,29.4 -338.08,26.46 -79.38,-2.94 -79.38,-2.94 -97.02,111.72 -17.64,114.65 -52.91,343.95 -64.67,576.2 -11.76,232.25 0,467.43 32.34,840.79z"/>
   <path class="fil1" d="M14086.76 18537.36c-205.78,208.73 -693.79,732.02 -1017.17,1075.98 -323.38,343.96 -482.13,508.59 -537.99,849.61 -55.85,341.02 -8.82,858.42 58.79,1308.21 67.62,449.8 155.82,831.97 238.13,1314.1 82.32,482.13 158.75,1064.22 217.55,1381.72 58.8,317.5 99.95,370.41 167.56,443.91 67.62,73.5 161.7,167.57 241.82,281.2 80.12,113.63 146.28,246.82 179.36,313.41 33.09,66.59 33.09,66.59 23.52,20.57 -9.56,-46.01 -28.69,-138.03 -52.96,-213.45 -24.26,-75.41 -53.65,-134.2 -106.57,-207.7 -52.92,-73.49 -129.35,-161.69 -185.21,-220.49 -55.86,-58.79 -91.13,-88.19 -135.23,-211.67 -44.1,-123.47 -97.01,-341.01 -173.45,-820.2 -76.43,-479.19 -176.39,-1220.03 -246.95,-1772.72 -70.55,-552.68 -111.71,-917.21 -126.41,-1167.1 -14.7,-249.88 -2.94,-385.12 11.76,-499.77 14.7,-114.65 32.34,-208.73 132.29,-358.66 99.96,-149.93 282.23,-355.71 523.29,-617.36 241.07,-261.64 540.93,-579.14 729.08,-790.81 188.15,-211.67 264.58,-317.5 58.79,-108.78z"/>
   <path class="fil1" d="M5783.7 19390.4c247.92,-279.77 465.46,-520.84 600.7,-682.53 135.23,-161.69 188.14,-244 214.6,-285.16 26.46,-41.16 26.46,-41.16 202.85,5.88 176.39,47.04 529.17,141.11 799.08,242.12 269.9,101.01 456.94,208.94 550.46,262.91 93.51,53.97 93.51,53.97 -29.4,5.88 -122.92,-48.09 -368.75,-144.27 -626.89,-227.64 -258.15,-83.36 -528.62,-153.92 -678.55,-183.32 -149.93,-29.39 -179.33,-17.64 -267.52,97.01 -88.2,114.66 -235.19,332.2 -506.62,629.61 -271.44,297.42 -667.33,674.7 -865.27,863.34 -197.94,188.64 -197.94,188.64 -58.79,29.4 139.14,-159.24 417.43,-477.73 665.35,-757.5z"/>
  </g>
 </g>
</svg>
