<?xml version="1.0" encoding="UTF-8"?>
<!DOCTYPE svg PUBLIC "-//W3C//DTD SVG 1.1//EN" "http://www.w3.org/Graphics/SVG/1.1/DTD/svg11.dtd">
<!-- Creator: CorelDRAW 2018 (64-Bit) -->
<svg xmlns="http://www.w3.org/2000/svg" xml:space="preserve" width="210mm" height="297mm" version="1.1" style="shape-rendering:geometricPrecision; text-rendering:geometricPrecision; image-rendering:optimizeQuality; fill-rule:evenodd; clip-rule:evenodd"
viewBox="0 0 21000 29700"
 xmlns:xlink="http://www.w3.org/1999/xlink">
 <defs>
  <style type="text/css">
   <![CDATA[
    .str0 {stroke:#1F1B20;stroke-width:200;stroke-miterlimit:22.9256}
    .fil2 {fill:none}
    .fil1 {fill:#FEFEFE}
    .fil0 {fill:#1F1B20}
   ]]>
  </style>
 </defs>
 <g id="Слой_x0020_1">
  <metadata id="CorelCorpID_0Corel-Layer"/>
  <g id="_2240551814192">
   <g>
    <path class="fil0" d="M3543.77 6929.94c54.4,-85.17 111.18,-178.44 220.68,-247.39 109.5,-68.94 271.72,-113.55 413.66,-125.72 141.94,-12.17 263.61,8.11 401.5,58.8 137.89,50.69 291.99,131.81 326.47,225.09 34.47,93.27 -50.7,198.71 -180.47,255.49 -129.78,56.78 -304.17,64.89 -403.53,121.67 -99.36,56.77 -123.69,162.22 -75.02,369.05 48.66,206.83 170.32,515.05 302.13,796.91 131.8,281.86 273.75,537.35 482.61,831.38 208.86,294.02 484.63,626.58 776.63,951.02 291.99,324.44 600.22,640.77 869.91,853.69 269.69,212.91 500.85,322.41 661.05,395.41 160.19,73 249.41,109.5 381.22,125.72 131.8,16.22 306.18,12.17 502.88,4.05 196.69,-8.11 415.69,-20.27 600.22,14.2 184.53,34.47 334.57,115.58 484.63,168.31 150.06,52.72 300.11,77.05 466.39,99.36 166.27,22.3 348.77,42.58 567.77,48.66 219,6.08 474.49,-2.03 709.71,-4.06 235.22,-2.02 450.16,2.03 594.13,38.53 143.97,36.5 216.98,105.45 318.36,93.28 101.39,-12.17 231.17,-105.44 413.66,-188.58 182.51,-83.14 417.73,-156.14 551.56,-216.97 133.83,-60.84 166.27,-109.5 184.52,-156.14 18.25,-46.64 22.31,-91.25 26.37,-237.25 4.05,-146 8.11,-393.38 14.19,-549.51 6.08,-156.14 14.19,-221.04 62.85,-212.92 48.67,8.11 137.9,89.22 219.01,174.38 81.1,85.16 154.11,174.39 233.19,239.28 79.08,64.89 164.25,105.44 223.05,113.55 58.81,8.11 91.25,-16.22 115.59,-10.13 24.33,6.08 40.55,42.58 83.13,87.19 42.59,44.61 111.53,97.33 237.25,131.81 125.72,34.46 308.22,50.69 444.08,60.83 135.86,10.13 225.08,14.19 326.47,26.36 101.38,12.16 214.94,32.44 340.66,28.38 125.72,-4.05 263.61,-32.44 391.36,-77.04 127.75,-44.62 245.36,-105.45 322.41,-135.87 77.06,-30.41 113.56,-30.41 125.73,6.09 12.16,36.49 0,109.5 -36.51,180.47 -36.5,70.96 -97.33,139.91 -146,214.94 -48.67,75.02 -85.16,156.14 -113.55,233.19 -28.39,77.05 -48.66,150.06 -62.86,208.86 -14.19,58.8 -22.31,103.41 -38.53,150.05 -16.22,46.64 -40.55,95.3 -48.66,143.97 -8.11,48.67 0,97.33 8.11,146 8.11,48.66 16.22,97.33 14.19,154.11 -2.03,56.78 -14.19,121.66 -34.47,180.47 -20.28,58.8 -48.66,111.53 -70.97,166.28 -22.3,54.75 -38.53,111.52 -91.25,180.47 -52.72,68.94 -141.95,150.06 -202.78,223.05 -60.83,73 -93.27,137.89 -121.66,208.86 -28.39,70.97 -52.72,148.03 -111.53,206.84 -58.8,58.8 -152.08,99.35 -200.75,137.88 -48.66,38.53 -52.72,75.02 -58.8,231.16 -6.09,156.14 -14.19,431.92 -60.83,667.14 -46.64,235.21 -131.81,429.88 -198.73,600.22 -66.91,170.32 -115.57,316.32 -139.91,433.93 -24.33,117.61 -24.33,206.84 -10.14,285.92 14.2,79.08 42.58,148.02 73,227.11 30.42,79.08 62.86,168.3 160.19,300.1 97.34,131.81 259.56,306.2 429.89,464.36 170.33,158.17 348.77,300.1 452.19,431.91 103.42,131.81 131.8,253.47 152.08,377.17 20.28,123.69 32.44,249.4 40.55,352.82 8.11,103.42 12.17,184.53 36.5,265.64 24.34,81.11 68.95,162.22 115.59,231.16 46.64,68.95 95.3,125.73 135.86,188.58 40.56,62.87 73,131.82 54.74,208.87 -18.24,77.05 -87.19,162.22 -156.13,210.88 -68.94,48.67 -137.89,60.83 -216.97,42.58 -79.08,-18.25 -168.31,-66.91 -251.44,-123.69 -83.14,-56.77 -160.2,-121.67 -204.81,-188.58 -44.61,-66.91 -56.78,-135.86 -68.94,-216.97 -12.17,-81.11 -24.33,-174.39 -42.58,-273.75 -18.25,-99.36 -42.59,-204.8 -62.87,-279.83 -20.27,-75.03 -36.49,-119.64 -101.38,-174.39 -64.89,-54.74 -178.44,-119.64 -306.19,-178.44 -127.75,-58.8 -269.69,-111.53 -429.89,-180.47 -160.19,-68.94 -338.63,-154.11 -513.02,-265.64 -174.39,-111.52 -344.72,-249.4 -504.92,-389.32 -160.19,-139.92 -310.24,-281.86 -411.63,-371.09 -101.39,-89.22 -154.11,-125.72 -206.83,-145.99 -52.72,-20.28 -105.44,-24.33 -170.33,16.22 -64.89,40.56 -141.94,125.72 -202.78,219 -60.83,93.27 -105.44,194.67 -150.05,326.47 -44.61,131.8 -89.22,294.02 -117.61,423.8 -28.39,129.77 -40.55,227.11 -44.61,314.3 -4.05,87.2 0,164.25 18.25,229.13 18.25,64.9 50.69,117.61 101.38,166.28 50.7,48.67 119.65,93.28 180.48,111.53 60.83,18.25 113.55,10.14 186.55,14.19 73,4.06 166.28,20.28 229.14,66.92 62.86,46.64 95.3,123.7 109.5,190.61 14.19,66.92 10.14,123.7 -18.26,178.44 -28.38,54.76 -81.1,107.47 -133.83,137.89 -52.72,30.42 -105.43,38.52 -237.24,30.41 -131.81,-8.11 -342.69,-32.44 -508.97,-109.5 -166.27,-77.05 -287.94,-206.82 -373.11,-296.05 -85.17,-89.22 -133.83,-137.88 -170.33,-225.08 -36.5,-87.19 -60.83,-212.91 -87.19,-419.74 -26.36,-206.83 -54.75,-494.78 -97.33,-764.47 -42.59,-269.69 -99.36,-521.13 -162.23,-671.18 -62.85,-150.06 -131.8,-198.72 -308.22,-237.25 -176.41,-38.53 -460.3,-66.92 -764.46,-81.11 -304.17,-14.2 -628.61,-14.2 -825.3,-10.14 -196.69,4.06 -265.64,12.17 -328.49,60.83 -62.87,48.67 -119.64,137.89 -247.39,291.99 -127.75,154.12 -326.47,373.11 -466.38,521.14 -139.92,148.02 -221.03,225.08 -312.28,296.05 -91.25,70.97 -192.64,135.86 -237.24,233.2 -44.62,97.33 -32.46,227.1 -22.32,397.43 10.14,170.34 18.25,381.22 34.48,517.09 16.22,135.86 40.55,196.69 79.08,241.3 38.53,44.61 91.25,73 115.58,125.72 24.33,52.72 20.28,129.78 -8.1,192.64 -28.39,62.86 -81.12,111.52 -166.28,146 -85.17,34.47 -202.78,54.74 -287.94,44.6 -85.17,-10.14 -137.89,-50.69 -164.25,-70.96 -26.37,-20.28 -26.37,-20.28 8.11,24.32 34.46,44.62 103.41,133.84 186.55,192.64 83.13,58.81 180.47,87.2 241.31,150.05 60.83,62.87 85.16,160.2 95.3,241.31 10.14,81.11 6.08,146 -30.41,190.61 -36.51,44.62 -105.45,68.94 -225.09,79.08 -119.63,10.14 -289.97,6.09 -437.99,2.03 -148.03,-4.05 -273.75,-8.11 -371.08,-58.81 -97.33,-50.69 -166.28,-148.02 -223.06,-243.32 -56.78,-95.31 -101.38,-188.59 -107.47,-316.34 -6.08,-127.74 26.36,-289.97 18.25,-446.11 -8.12,-156.13 -56.78,-306.18 -93.28,-496.79 -36.5,-190.61 -60.83,-421.77 -66.91,-630.63 -6.09,-208.86 6.08,-395.42 16.22,-531.28 10.14,-135.85 18.24,-221.03 36.5,-294.02 18.25,-73 46.64,-133.84 109.5,-192.64 62.86,-58.81 160.19,-115.58 245.35,-202.78 85.17,-87.19 158.17,-204.8 200.76,-306.19 42.58,-101.39 54.74,-186.55 36.49,-340.66 -18.25,-154.11 -66.91,-377.16 -164.24,-703.63 -97.34,-326.47 -243.33,-756.36 -360.94,-1129.46 -117.61,-373.11 -206.84,-689.44 -221.03,-971.3 -14.19,-281.86 46.63,-529.25 56.77,-695.52 10.14,-166.28 -30.41,-251.44 -160.18,-387.3 -129.78,-135.86 -348.78,-322.42 -569.81,-586.02 -221.02,-263.61 -444.07,-604.27 -687.41,-983.46 -243.33,-379.2 -506.93,-796.92 -715.79,-1178.13 -208.87,-381.22 -362.97,-725.94 -462.33,-1011.85 -99.37,-285.92 -143.97,-513.03 -157.83,-697.55 -13.86,-184.54 3.04,-326.47 37.51,-435.97 34.47,-109.5 86.52,-186.56 140.94,-271.72z"/>
    <path class="fil1" d="M13009 16224.15c79.08,-44.61 184.53,-89.22 316.33,-210.88 131.81,-121.67 289.97,-320.4 369.05,-419.76 79.08,-99.35 79.08,-99.35 18.25,0 -60.83,99.36 -182.49,298.09 -371.43,472.32 -188.93,174.21 -445.13,323.93 -587.07,403.86 -141.95,79.94 -169.63,90.07 -217.27,131.63 -47.65,41.58 -115.24,114.58 -149.03,151.07 -33.8,36.51 -33.8,36.51 13.84,-5.06 47.64,-41.57 142.92,-124.71 221.32,-196.52 78.41,-71.82 139.95,-132.33 197.08,-184.89 57.13,-52.55 109.85,-97.15 188.93,-141.77z"/>
    <path class="fil1" d="M7117.33 18440.52c13.18,-137.88 37.51,-334.58 64.89,-449.15 27.37,-114.57 57.78,-147.01 143.53,-225.58 85.74,-78.57 226.82,-203.26 297.35,-265.61 70.54,-62.35 70.54,-62.35 22.31,-12.17 -48.24,50.18 -144.69,150.54 -219.28,230.13 -74.6,79.58 -127.32,138.38 -163.82,207.32 -36.5,68.95 -56.77,148.04 -74.01,285.92 -17.24,137.89 -31.43,334.59 -39.54,478.55 -8.12,143.98 -10.14,235.22 -4.39,309.06 5.74,73.85 19.27,130.28 26.04,158.5 6.76,28.21 6.76,28.21 -6.09,-46.65 -12.85,-74.85 -38.53,-224.55 -50.36,-338.95 -11.84,-114.4 -9.81,-193.48 3.37,-331.37z"/>
    <path class="fil1" d="M14434.47 13842.56c-121.66,21.29 -257.52,33.45 -377.16,18.25 -119.64,-15.21 -223.05,-57.79 -350.8,-126.73 -127.75,-68.95 -279.83,-164.25 -389.33,-258.54 -109.5,-94.29 -176.42,-187.57 -229.14,-288.96 -52.72,-101.38 -91.24,-210.88 -122.67,-346.74 -31.44,-135.87 -55.77,-298.08 -67.94,-379.19 -12.16,-81.12 -12.16,-81.12 -4.05,19.26 8.11,100.37 24.33,301.12 74.01,486.66 49.68,185.54 132.82,355.87 244.35,483.62 111.53,127.75 251.44,212.92 403.51,289.97 152.09,77.05 316.34,146 493.77,164.25 177.42,18.25 368.04,-14.19 514.03,-58.81 146,-44.61 247.39,-101.38 306.19,-140.93 58.81,-39.54 75.03,-61.84 101.39,-78.06 26.37,-16.23 62.86,-26.37 99.36,-41.58 36.51,-15.2 73,-35.48 91.25,-45.62 18.25,-10.14 18.25,-10.14 -18.25,2.03 -36.49,12.17 -109.5,36.5 -158.17,58.8 -48.66,22.31 -72.99,42.58 -114.56,68.94 -41.57,26.37 -100.37,58.81 -183.52,90.24 -83.13,31.43 -190.6,61.85 -312.27,83.14z"/>
   </g>
   <circle class="fil2 str0" cx="9661.29" cy="13138.46" r="9363.88"/>
  </g>
 </g>
</svg>
