<?xml version="1.0" encoding="UTF-8"?>
<!DOCTYPE svg PUBLIC "-//W3C//DTD SVG 1.1//EN" "http://www.w3.org/Graphics/SVG/1.1/DTD/svg11.dtd">
<!-- Creator: CorelDRAW 2018 (64-Bit) -->
<svg xmlns="http://www.w3.org/2000/svg" xml:space="preserve" width="210mm" height="297mm" version="1.1" style="shape-rendering:geometricPrecision; text-rendering:geometricPrecision; image-rendering:optimizeQuality; fill-rule:evenodd; clip-rule:evenodd"
viewBox="0 0 21000 29700"
 xmlns:xlink="http://www.w3.org/1999/xlink">
 <defs>
  <style type="text/css">
   <![CDATA[
    .str0 {stroke:#1F1B20;stroke-width:200;stroke-miterlimit:22.9256}
    .fil2 {fill:none}
    .fil1 {fill:#FEFEFE}
    .fil0 {fill:#1F1B20}
   ]]>
  </style>
 </defs>
 <g id="Слой_x0020_1">
  <metadata id="CorelCorpID_0Corel-Layer"/>
  <g id="_2240543116144">
   <g>
    <path class="fil0" d="M6127.77 9715.29c19.12,220.83 50.42,523.37 99.11,864.17 48.68,340.8 114.76,719.85 179.09,999.79 64.33,279.94 126.93,460.78 217.35,655.52 90.41,194.74 208.64,403.39 316.45,549.45 107.8,146.05 205.17,229.51 306.02,295.59 100.85,66.07 205.18,114.75 299.07,139.1 93.9,24.34 177.36,24.34 283.42,33.04 106.07,8.69 234.73,26.07 405.14,64.33 170.39,38.25 382.53,97.37 570.31,147.8 187.79,50.42 351.23,92.15 523.37,121.71 172.14,29.56 352.97,46.95 528.59,53.9 175.61,6.96 346.02,3.48 459.03,-5.21 113.02,-8.7 168.67,-22.61 196.48,-29.57 27.82,-6.95 27.82,-6.95 17.39,-97.37 -10.43,-90.41 -31.3,-271.24 -20.87,-467.72 10.44,-196.49 52.16,-408.62 92.16,-542.5 39.99,-133.89 78.24,-189.53 81.72,-252.12 3.48,-62.6 -27.82,-132.15 -27.82,-199.96 0,-67.81 31.3,-133.89 39.99,-257.34 8.7,-123.45 -5.21,-304.28 -19.13,-467.73 -13.91,-163.44 -27.81,-309.5 -48.68,-412.08 -20.86,-102.59 -48.68,-161.71 -52.16,-193 -3.48,-31.3 17.38,-34.78 62.59,-10.44 45.21,24.34 114.77,76.51 217.35,166.92 102.59,90.42 238.21,219.08 354.71,314.72 116.5,95.63 213.87,158.23 276.46,191.27 62.6,33.03 90.42,36.51 126.93,31.29 36.52,-5.22 81.73,-19.13 121.72,-1.74 39.99,17.39 74.76,66.07 126.92,97.37 52.17,31.3 121.72,45.21 203.44,55.64 81.73,10.43 175.62,17.39 267.77,27.82 92.16,10.44 182.57,24.35 269.51,29.56 86.94,5.22 170.41,1.74 234.74,-17.39 64.33,-19.12 109.54,-53.9 144.31,-69.54 34.78,-15.65 59.12,-12.18 88.68,-8.7 29.56,3.48 64.34,6.96 109.54,-13.91 45.21,-20.87 100.85,-66.07 184.31,-132.14 83.47,-66.08 194.74,-153.02 309.5,-229.52 114.76,-76.51 233,-142.58 326.89,-173.88 93.9,-31.3 163.45,-27.82 184.31,24.35 20.86,52.16 -6.95,153 -41.73,285.15 -34.77,132.15 -76.5,295.59 -106.06,408.62 -29.56,113.01 -46.95,175.61 -67.81,248.64 -20.87,73.02 -45.21,156.48 -55.64,229.51 -10.44,73.03 -6.96,135.63 10.43,208.65 17.39,73.03 48.68,156.49 67.81,229.52 19.13,73.03 26.08,135.62 22.61,222.56 -3.48,86.94 -17.39,198.22 -41.74,323.42 -24.34,125.19 -59.11,264.29 -85.2,359.92 -26.08,95.63 -43.46,147.8 -73.02,213.87 -29.56,66.07 -71.29,146.05 -116.5,257.34 -45.21,111.28 -93.9,253.85 -114.76,373.83 -20.87,119.98 -13.91,217.35 -3.48,363.41 10.43,146.05 24.34,340.79 3.48,613.78 -20.86,272.99 -76.51,624.22 -151.27,944.15 -74.77,319.94 -168.67,608.57 -306.03,916.33 -137.36,307.77 -318.19,634.65 -460.78,912.86 -142.57,278.2 -246.9,507.72 -347.75,747.67 -100.85,239.95 -198.22,490.33 -272.98,711.15 -74.77,220.83 -126.93,412.09 -206.92,619.01 -79.98,206.91 -187.78,429.47 -226.04,632.91 -38.25,203.43 -6.95,387.74 12.17,485.12 19.13,97.37 26.09,107.79 78.25,130.4 52.16,22.6 149.53,57.38 215.61,116.49 66.07,59.12 100.84,142.59 113.02,220.83 12.17,78.25 1.74,151.27 -20.87,198.22 -22.61,46.95 -57.38,67.81 -109.54,79.99 -52.16,12.17 -121.71,15.65 -161.71,19.12 -39.99,3.48 -50.42,6.96 -55.64,38.25 -5.21,31.3 -5.21,90.42 -1.73,144.32 3.47,53.9 10.43,102.59 -3.48,135.62 -13.91,33.04 -48.68,50.43 -125.2,64.34 -76.5,13.91 -194.73,24.34 -356.44,26.08 -161.7,1.74 -366.88,-5.21 -504.25,-24.34 -137.36,-19.13 -206.91,-50.42 -248.64,-86.94 -41.73,-36.51 -55.64,-78.24 -59.11,-140.84 -3.48,-62.59 3.47,-146.06 17.38,-208.65 13.91,-62.6 34.78,-104.33 38.26,-147.8 3.47,-43.47 -10.44,-88.67 -45.22,-179.09 -34.77,-90.42 -90.41,-226.04 -133.88,-403.4 -43.47,-177.35 -74.76,-396.43 -128.67,-660.73 -53.9,-264.29 -130.41,-573.79 -205.17,-878.07 -74.77,-304.29 -147.8,-603.36 -201.7,-838.1 -53.9,-234.73 -88.68,-405.12 -114.76,-495.54 -26.08,-90.42 -43.47,-100.85 -173.87,-118.24 -130.41,-17.39 -373.84,-41.72 -552.93,-62.59 -179.1,-20.87 -293.86,-38.26 -351.23,-46.95 -57.39,-8.7 -57.39,-8.7 -55.65,20.86 1.74,29.56 5.22,88.68 -71.29,196.49 -76.5,107.8 -232.99,264.29 -368.61,398.18 -135.63,133.88 -250.38,245.16 -323.41,347.75 -73.03,102.59 -104.33,196.48 -125.19,266.03 -20.87,69.55 -31.3,114.76 -36.52,137.36 -5.22,22.61 -5.22,22.61 41.73,146.06 46.95,123.45 140.84,370.36 205.18,556.41 64.33,186.05 99.1,311.23 118.23,373.83 19.13,62.6 22.6,62.6 55.64,57.38 33.04,-5.22 95.64,-15.65 156.49,-10.43 60.86,5.21 119.98,26.08 180.83,78.24 60.86,52.17 123.46,135.63 161.71,206.91 38.25,71.29 52.16,130.41 60.86,191.27 8.69,60.85 12.16,123.45 -0.01,166.92 -12.17,43.47 -39.99,67.82 -78.24,76.51 -38.25,8.69 -86.94,1.74 -154.75,-1.74 -67.81,-3.48 -154.75,-3.48 -259.08,-3.48 -104.32,0 -226.04,0 -323.41,0 -97.37,0 -170.4,0 -213.86,-29.56 -43.48,-29.55 -57.39,-88.67 -99.11,-154.75 -41.74,-66.07 -111.29,-139.1 -168.67,-224.3 -57.38,-85.2 -102.59,-182.57 -158.22,-302.55 -55.64,-119.97 -121.72,-262.55 -186.05,-398.17 -64.34,-135.63 -126.93,-264.3 -165.18,-392.97 -38.26,-128.66 -52.17,-257.33 -74.78,-377.31 -22.6,-119.97 -53.89,-231.25 -71.28,-314.71 -17.39,-83.46 -20.87,-139.11 -10.44,-189.53 10.44,-50.43 34.77,-95.63 46.95,-118.24 12.17,-22.6 12.17,-22.6 -53.9,73.03 -66.07,95.63 -198.22,286.9 -295.59,415.56 -97.37,128.67 -159.97,194.75 -193.01,241.69 -33.04,46.95 -36.51,74.77 -6.95,194.75 29.56,119.97 92.16,332.1 158.23,516.41 66.07,184.31 135.62,340.81 170.4,419.05 34.77,78.24 34.77,78.24 62.59,73.03 27.82,-5.22 83.46,-15.65 142.58,17.38 59.12,33.04 121.72,109.55 166.93,161.71 45.2,52.16 73.02,79.98 92.15,118.23 19.13,38.26 29.56,86.94 24.34,133.89 -5.21,46.95 -26.08,92.15 -57.38,133.89 -31.29,41.73 -73.03,79.98 -144.32,93.89 -71.28,13.91 -172.13,3.48 -281.68,-1.74 -109.54,-5.22 -227.78,-5.22 -319.93,-15.65 -92.16,-10.43 -158.23,-31.29 -217.35,-48.68 -59.12,-17.39 -111.28,-31.3 -154.75,-83.47 -43.47,-52.16 -78.24,-142.57 -135.62,-300.81 -57.38,-158.22 -137.36,-384.26 -206.91,-612.04 -69.56,-227.78 -128.67,-457.29 -179.09,-667.69 -50.43,-210.39 -92.17,-401.65 -100.85,-551.19 -8.7,-149.53 15.64,-257.34 45.2,-396.44 29.56,-139.1 64.33,-309.5 146.06,-629.43 81.72,-319.93 210.39,-789.4 264.29,-1107.6 53.9,-318.19 33.04,-485.11 -6.95,-751.14 -40,-266.03 -99.11,-631.18 -119.98,-907.64 -20.87,-276.47 -3.48,-464.25 60.86,-705.94 64.33,-241.69 175.61,-537.28 260.81,-738.98 85.2,-201.7 144.32,-309.5 146.06,-474.68 1.74,-165.19 -53.9,-387.74 -125.19,-622.48 -71.29,-234.74 -158.23,-481.64 -236.47,-829.39 -78.25,-347.76 -147.8,-796.37 -193.01,-1220.62 -45.21,-424.26 -66.07,-824.18 -76.5,-1144.11 -10.44,-319.94 -10.44,-559.88 13.91,-765.06 24.34,-205.18 73.03,-375.57 132.14,-495.54 59.12,-119.98 128.67,-189.54 208.65,-241.7 79.99,-52.16 170.4,-86.93 253.86,-83.46 83.46,3.48 159.97,45.21 241.69,99.11 81.73,53.9 168.66,119.98 238.22,205.18 69.55,85.2 121.71,189.52 135.62,264.29 13.91,74.77 -10.43,119.97 -69.55,140.84 -59.12,20.86 -153.01,17.39 -199.96,15.65 -46.95,-1.74 -46.95,-1.74 -57.38,66.08 -10.43,67.81 -31.3,203.43 -38.25,340.79 -6.96,137.37 0,276.47 19.13,497.29z"/>
    <path class="fil1" d="M11947.43 17915.32c-121.71,123.45 -410.35,432.95 -601.61,636.39 -191.27,203.44 -285.16,300.81 -318.2,502.51 -33.03,201.69 -5.22,507.71 34.77,773.74 39.99,266.04 92.16,492.07 140.84,777.23 48.69,285.16 93.9,629.44 128.67,817.23 34.78,187.78 59.12,219.08 99.11,262.55 39.99,43.47 95.64,99.11 143.02,166.32 47.39,67.2 86.52,145.98 106.09,185.36 19.57,39.39 19.57,39.39 13.91,12.17 -5.66,-27.21 -16.97,-81.64 -31.33,-126.25 -14.34,-44.6 -31.73,-79.37 -63.03,-122.84 -31.3,-43.47 -76.5,-95.63 -109.54,-130.41 -33.04,-34.77 -53.9,-52.16 -79.98,-125.19 -26.09,-73.03 -57.38,-201.7 -102.59,-485.11 -45.2,-283.42 -104.33,-721.6 -146.06,-1048.49 -41.73,-326.88 -66.07,-542.49 -74.77,-690.28 -8.69,-147.8 -1.73,-227.79 6.96,-295.6 8.69,-67.81 19.13,-123.45 78.24,-212.13 59.13,-88.67 166.93,-210.38 309.51,-365.14 142.58,-154.75 319.93,-342.53 431.21,-467.73 111.29,-125.19 156.49,-187.78 34.78,-64.33z"/>
    <path class="fil1" d="M7036.54 18419.85c146.64,-165.47 275.3,-308.05 355.29,-403.68 79.98,-95.64 111.28,-144.32 126.93,-168.66 15.65,-24.35 15.65,-24.35 119.97,3.47 104.33,27.83 312.98,83.46 472.62,143.21 159.64,59.74 270.26,123.58 325.57,155.5 55.31,31.92 55.31,31.92 -17.39,3.47 -72.7,-28.44 -218.09,-85.33 -370.77,-134.63 -152.69,-49.31 -312.66,-91.04 -401.33,-108.43 -88.68,-17.38 -106.07,-10.43 -158.23,57.38 -52.17,67.81 -139.1,196.48 -299.64,372.38 -160.55,175.91 -394.7,399.06 -511.77,510.63 -117.07,111.57 -117.07,111.57 -34.77,17.39 82.29,-94.19 246.89,-282.56 393.52,-448.03z"/>
   </g>
   <circle class="fil2 str0" cx="9306.19" cy="14951.45" r="8113.9"/>
  </g>
 </g>
</svg>
