<?xml version="1.0" encoding="UTF-8"?>
<!DOCTYPE svg PUBLIC "-//W3C//DTD SVG 1.1//EN" "http://www.w3.org/Graphics/SVG/1.1/DTD/svg11.dtd">
<!-- Creator: CorelDRAW 2018 (64-Bit) -->
<svg xmlns="http://www.w3.org/2000/svg" xml:space="preserve" width="210mm" height="297mm" version="1.1" style="shape-rendering:geometricPrecision; text-rendering:geometricPrecision; image-rendering:optimizeQuality; fill-rule:evenodd; clip-rule:evenodd"
viewBox="0 0 21000 29700"
 xmlns:xlink="http://www.w3.org/1999/xlink">
 <defs>
  <style type="text/css">
   <![CDATA[
    .fil1 {fill:#FEFEFE}
    .fil0 {fill:#1F1B20}
   ]]>
  </style>
 </defs>
 <g id="Слой_x0020_1">
  <metadata id="CorelCorpID_0Corel-Layer"/>
  <g id="_2240319333728">
   <path class="fil0" d="M9606.49 5625.63c158.75,-249.89 335.13,-537.99 540.92,-846.67 205.79,-308.68 440.97,-637.94 596.78,-843.73 155.81,-205.79 232.25,-288.1 346.9,-349.84 114.65,-61.74 267.53,-102.89 393.94,-108.77 126.41,-5.88 226.37,23.52 326.32,147 99.95,123.47 199.91,341.01 276.34,540.92 76.44,199.91 129.35,382.17 155.81,473.31 26.46,91.13 26.46,91.13 111.71,79.37 85.26,-11.76 255.77,-35.27 429.22,-41.15 173.45,-5.88 349.83,5.87 535.04,-23.52 185.21,-29.4 379.24,-99.96 546.81,-152.87 167.57,-52.92 308.68,-88.2 479.19,-167.57 170.51,-79.38 370.41,-202.85 720.25,-423.33 349.84,-220.49 849.61,-537.99 1084.79,-658.52 235.19,-120.54 205.79,-44.1 161.69,91.13 -44.09,135.23 -102.89,329.26 -194.02,511.53 -91.13,182.27 -214.61,352.77 -341.02,529.16 -126.41,176.39 -255.77,358.66 -335.15,537.99 -79.37,179.33 -108.76,355.72 -129.34,479.19 -20.58,123.47 -32.34,194.03 -11.76,299.86 20.58,105.83 73.49,246.95 82.31,355.72 8.82,108.77 -26.45,185.21 5.88,282.22 32.34,97.01 132.3,214.61 229.31,335.14 97.01,120.53 191.09,244.01 226.36,411.58 35.28,167.57 11.77,379.23 11.77,599.72 0,220.49 23.51,449.79 -0.01,670.28 -23.52,220.49 -94.07,432.15 -123.47,587.96 -29.4,155.81 -17.64,255.77 14.7,367.48 32.34,111.71 85.25,235.19 79.37,393.94 -5.88,158.75 -70.55,352.77 -146.99,499.76 -76.43,146.99 -164.63,246.95 -241.07,299.87 -76.43,52.91 -141.1,58.79 -188.14,91.13 -47.04,32.34 -76.43,91.13 -111.71,144.05 -35.28,52.92 -76.43,99.95 -61.74,211.67 14.7,111.71 85.26,288.1 144.05,479.19 58.8,191.09 105.83,396.87 111.71,770.23 5.88,373.36 -29.39,914.28 -5.87,1372.9 23.52,458.61 105.83,834.9 199.9,1305.27 94.08,470.38 199.92,1034.82 291.05,1837.39 91.13,802.57 167.57,1843.27 199.9,2563.52 32.34,720.26 20.58,1120.07 -167.57,1505.19 -188.15,385.12 -552.68,755.53 -934.86,1078.91 -382.17,323.38 -781.99,599.73 -1017.18,761.42 -235.18,161.69 -305.73,208.72 -249.88,273.4 55.86,64.68 238.13,146.99 343.96,317.5 105.84,170.51 135.23,429.22 108.77,643.82 -26.45,214.61 -108.77,385.12 -205.78,511.53 -97.01,126.41 -208.73,208.73 -302.81,261.64 -94.07,52.92 -170.5,76.44 -217.54,73.5 -47.04,-2.94 -64.68,-32.34 -73.5,-38.22 -8.82,-5.88 -8.82,11.76 -14.7,102.89 -5.88,91.14 -17.63,255.77 -44.09,388.06 -26.46,132.29 -67.62,232.25 -188.16,335.14 -120.53,102.89 -320.43,208.73 -485.06,273.4 -164.63,64.68 -293.98,88.2 -432.15,82.32 -138.17,-5.88 -285.17,-41.16 -358.67,-58.8 -73.49,-17.64 -73.49,-17.64 -135.23,23.52 -61.73,41.16 -185.2,123.47 -302.79,173.45 -117.59,49.98 -229.31,67.61 -376.3,64.67 -146.99,-2.94 -329.26,-26.45 -514.47,-88.19 -185.21,-61.73 -373.35,-161.69 -514.46,-252.83 -141.11,-91.13 -235.19,-173.44 -299.86,-252.82 -64.68,-79.37 -99.96,-155.81 -135.24,-199.91 -35.28,-44.09 -70.55,-55.85 -173.44,-135.23 -102.9,-79.37 -273.41,-226.36 -411.58,-423.33 -138.17,-196.97 -244.01,-443.91 -352.78,-696.74 -108.77,-252.82 -220.49,-511.53 -320.44,-673.22 -99.95,-161.69 -188.15,-226.36 -305.74,-288.1 -117.59,-61.74 -264.58,-120.53 -435.09,-223.43 -170.51,-102.89 -364.54,-249.88 -499.77,-361.6 -135.23,-111.71 -211.67,-188.14 -258.7,-235.18 -47.04,-47.04 -64.68,-64.67 -161.69,-97.01 -97.02,-32.34 -273.41,-79.37 -537.99,-97.01 -264.59,-17.64 -617.36,-5.89 -1025.99,5.87 -408.64,11.76 -873.13,23.52 -1249.42,47.04 -376.3,23.52 -664.41,58.8 -943.69,105.83 -279.28,47.04 -549.75,105.84 -734.95,167.57 -185.21,61.74 -285.17,126.41 -296.92,182.27 -11.76,55.86 64.67,102.89 176.39,149.93 111.71,47.04 258.7,94.08 376.29,152.87 117.59,58.8 205.79,129.36 261.65,202.85 55.85,73.5 79.37,149.93 23.52,270.46 -55.86,120.54 -191.1,285.17 -373.36,393.94 -182.27,108.78 -411.58,161.69 -684.98,129.35 -273.4,-32.33 -590.9,-149.93 -826.08,-317.5 -235.19,-167.57 -388.07,-385.11 -473.32,-573.26 -85.26,-188.15 -102.89,-346.9 -79.37,-511.53 23.51,-164.63 88.19,-335.14 235.18,-508.59 146.99,-173.45 376.29,-349.84 614.42,-496.83 238.13,-146.99 485.07,-264.58 837.85,-382.17 352.78,-117.59 811.39,-235.19 1222.97,-320.45 411.57,-85.25 776.1,-138.16 1199.44,-158.74 423.33,-20.58 905.46,-8.83 1258.24,11.75 352.78,20.58 576.2,49.98 687.92,64.68 111.71,14.7 111.71,14.7 94.07,-208.73 -17.64,-223.42 -52.92,-670.28 -26.46,-987.78 26.46,-317.5 114.65,-505.64 173.45,-637.94 58.8,-132.29 88.19,-208.72 94.07,-341.02 5.88,-132.29 -11.75,-320.43 -2.93,-532.1 8.82,-211.67 44.09,-446.85 117.59,-708.5 73.49,-261.64 185.21,-549.75 267.53,-829.03 82.31,-279.28 135.22,-549.75 194.02,-746.72 58.8,-196.96 123.47,-320.43 202.85,-537.98 79.37,-217.54 173.45,-529.17 264.58,-802.57 91.13,-273.4 179.33,-508.59 346.9,-790.81 167.57,-282.22 414.51,-611.48 546.81,-846.66 132.29,-235.19 149.92,-376.31 161.68,-590.91 11.76,-214.61 17.64,-502.71 85.26,-811.39 67.61,-308.68 196.97,-637.94 299.86,-881.94 102.89,-244.01 179.33,-402.76 214.61,-546.81 35.27,-144.05 29.39,-273.41 -2.95,-476.25 -32.34,-202.85 -91.13,-479.2 -120.53,-782 -29.4,-302.8 -29.4,-632.06 -47.04,-876.06 -17.64,-244.01 -52.91,-402.76 -47.03,-623.24 5.88,-220.49 52.91,-502.71 146.99,-749.65 94.07,-246.95 235.19,-458.62 393.94,-708.5z"/>
   <path class="fil1" d="M13429.73 10739.46c101.43,77.9 233.72,177.85 363.07,241.06 129.35,63.21 255.77,89.66 383.65,92.6 127.88,2.94 257.23,-17.64 366,-49.98 108.78,-32.34 196.97,-76.43 266.06,-135.22 69.09,-58.8 119.06,-132.3 166.1,-194.03 47.04,-61.74 91.13,-111.71 113.18,-136.7 22.05,-24.99 22.05,-24.99 -17.64,41.16 -39.69,66.14 -119.06,198.43 -191.09,291.04 -72.02,92.6 -136.7,145.51 -235.18,189.61 -98.48,44.1 -230.78,79.37 -382.18,83.78 -151.4,4.41 -321.91,-22.04 -454.2,-76.42 -132.29,-54.39 -226.37,-136.71 -320.44,-229.31 -94.07,-92.61 -188.15,-195.5 -238.13,-248.42 -49.97,-52.92 -55.85,-55.85 -23.51,-29.39 32.34,26.45 102.89,82.31 204.31,160.22z"/>
   <path class="fil1" d="M12878.52 19833.81c-202.85,499.77 -449.79,1111.26 -655.58,1646.3 -205.79,535.05 -370.42,993.66 -488.02,1355.25 -117.59,361.6 -188.14,626.19 -205.78,890.77 -17.64,264.58 17.64,529.17 11.76,488.01 -5.88,-41.16 -52.91,-388.05 -105.83,-773.17 -52.92,-385.11 -111.71,-808.45 -188.15,-1190.63 -76.44,-382.17 -170.51,-723.19 -291.05,-1170.05 -120.53,-446.85 -267.52,-999.53 -361.6,-1440.51 -94.07,-440.97 -135.22,-770.23 -155.8,-934.86 -20.58,-164.63 -20.58,-164.63 38.22,105.83 58.79,270.47 176.39,811.39 296.92,1299.4 120.53,488.01 244,923.11 343.95,1270 99.96,346.9 176.39,605.61 232.25,867.25 55.86,261.64 91.13,526.23 117.59,758.47 26.46,232.25 44.1,432.16 52.92,535.05 8.82,102.9 8.82,108.78 8.82,20.58 0,-88.19 0,-270.46 32.34,-476.25 32.34,-205.79 97.01,-435.09 252.82,-861.37 155.81,-426.27 402.76,-1049.51 682.04,-1690.39 279.28,-640.88 590.91,-1299.4 746.72,-1631.6 155.81,-332.2 155.81,-338.08 76.43,-146.99 -79.37,191.09 -238.12,579.14 -440.97,1078.91z"/>
   <path class="fil1" d="M14283.75 20230.69c-126.41,291.04 -338.07,755.53 -493.89,1170.04 -155.81,414.52 -255.76,779.05 -311.62,1049.51 -55.86,270.47 -67.61,446.86 -73.49,520.35 -5.88,73.5 -5.88,44.11 29.39,-105.82 35.28,-149.93 105.84,-420.4 194.03,-723.2 88.19,-302.8 194.03,-637.94 346.9,-1011.3 152.87,-373.35 352.78,-784.93 546.81,-1208.26 194.03,-423.33 382.17,-858.43 526.22,-1334.68 144.05,-476.25 244.01,-993.66 316.52,-1618.87 72.51,-625.21 117.58,-1358.22 109.31,-1907.47 -8.27,-549.25 -69.87,-914.74 -98.72,-1078.7 -28.85,-163.96 -24.95,-126.4 -22.56,125.93 2.39,252.33 3.27,719.42 -11,1226.37 -14.26,506.95 -43.66,1053.75 -99.52,1565.28 -55.85,511.53 -138.17,987.78 -267.52,1449.33 -129.35,461.55 -305.74,908.41 -414.52,1190.63 -108.77,282.22 -149.92,399.82 -276.34,690.86z"/>
   <path class="fil1" d="M8953.87 20104.28c-123.48,-335.14 -317.5,-870.18 -452.73,-1261.18 -135.23,-390.99 -211.67,-637.94 -235.18,-834.91 -23.52,-196.96 5.87,-343.95 55.85,-490.94 49.98,-146.99 120.53,-293.99 158.75,-511.54 38.22,-217.54 44.1,-505.64 44.1,-732.01 0,-226.36 -5.88,-390.99 11.76,-637.94 17.64,-246.94 58.79,-576.2 97.01,-961.31 38.22,-385.12 73.49,-826.1 91.13,-1046.58 17.64,-220.49 17.64,-220.49 -20.57,76.43 -38.22,296.92 -114.66,890.77 -182.27,1461.09 -67.62,570.33 -126.41,1117.13 -152.87,1434.63 -26.46,317.5 -20.58,405.7 -47.04,517.41 -26.46,111.71 -85.25,246.95 -141.11,370.42 -55.86,123.47 -108.77,235.19 -88.19,458.61 20.57,223.43 114.65,558.56 285.16,1037.75 170.5,479.19 417.45,1102.44 611.48,1710.98 194.02,608.54 335.14,1202.39 402.76,1840.33 67.61,637.94 61.73,1319.97 67.61,1781.02 5.87,461.06 23.5,701.12 32.32,821.15 8.81,120.04 8.81,120.04 17.64,-132.29 8.82,-252.32 26.46,-756.97 44.11,-1226.84 17.64,-469.87 35.28,-904.97 26.46,-1219.53 -8.82,-314.56 -44.09,-508.58 -114.65,-796.69 -70.56,-288.1 -176.39,-670.27 -255.77,-928.98 -79.38,-258.7 -132.29,-393.94 -255.76,-729.08z"/>
  </g>
 </g>
</svg>
