<?xml version="1.0" encoding="UTF-8"?>
<!DOCTYPE svg PUBLIC "-//W3C//DTD SVG 1.1//EN" "http://www.w3.org/Graphics/SVG/1.1/DTD/svg11.dtd">
<!-- Creator: CorelDRAW 2018 (64-Bit) -->
<svg xmlns="http://www.w3.org/2000/svg" xml:space="preserve" width="210mm" height="297mm" version="1.1" style="shape-rendering:geometricPrecision; text-rendering:geometricPrecision; image-rendering:optimizeQuality; fill-rule:evenodd; clip-rule:evenodd"
viewBox="0 0 21000 29700"
 xmlns:xlink="http://www.w3.org/1999/xlink">
 <defs>
  <style type="text/css">
   <![CDATA[
    .fil2 {fill:#FEFEFE}
    .fil1 {fill:#FEFEFE}
    .fil0 {fill:#1F1B20}
   ]]>
  </style>
 </defs>
 <g id="Слой_x0020_1">
  <metadata id="CorelCorpID_0Corel-Layer"/>
  <g id="_2240552970672">
   <path class="fil0" d="M4791.08 9056.42c138.17,-188.15 320.43,-458.62 514.46,-846.67 194.03,-388.06 399.81,-893.71 637.94,-1434.63 238.12,-540.93 508.59,-1117.14 764.36,-1599.27 255.76,-482.13 496.82,-870.18 729.07,-1128.88 232.25,-258.71 455.67,-388.07 732.02,-467.44 276.34,-79.38 605.6,-108.77 967.2,-85.25 361.6,23.52 755.53,99.95 1096.55,246.95 341.02,146.99 629.12,364.53 981.9,711.43 352.78,346.9 770.23,823.15 1096.55,1384.66 326.32,561.5 561.51,1208.26 670.28,1593.38 108.77,385.11 91.14,508.59 114.65,614.42 23.52,105.83 88.2,194.03 199.91,338.08 111.71,144.05 270.46,343.95 435.09,617.36 164.63,273.4 335.14,620.3 461.55,984.84 126.42,364.54 208.73,746.71 246.95,1158.29 38.22,411.57 32.34,852.55 11.76,1281.76 -20.58,429.21 -55.85,846.67 -85.25,1102.43 -29.4,255.76 -52.92,349.84 -41.16,614.42 11.76,264.58 58.79,699.68 108.77,1114.19 49.98,414.52 102.89,808.45 123.47,1123.01 20.58,314.56 8.82,549.75 -17.64,867.25 -26.46,317.5 -67.61,717.31 -97.01,981.89 -29.4,264.59 -47.04,393.95 -11.76,540.94 35.28,146.99 123.47,311.61 258.7,523.28 135.24,211.67 317.5,470.37 479.19,787.87 161.69,317.51 302.81,693.8 426.28,940.74 123.47,246.95 229.31,364.55 288.1,508.6 58.8,144.05 70.56,314.55 49.98,488 -20.58,173.45 -73.49,349.84 -138.17,543.87 -64.68,194.03 -141.11,405.69 -194.03,546.8 -52.92,141.12 -82.31,211.67 -52.92,270.47 29.4,58.8 117.6,105.83 226.37,185.2 108.77,79.38 238.13,191.1 314.56,302.81 76.44,111.71 99.95,223.43 94.07,385.12 -5.88,161.69 -41.15,373.35 -73.49,488 -32.34,114.66 -61.74,132.3 -188.16,141.12 -126.41,8.82 -349.83,8.82 -726.13,-2.94 -376.3,-11.76 -905.46,-35.28 -1237.66,-61.74 -332.2,-26.46 -467.43,-55.85 -585.02,-99.95 -117.59,-44.1 -217.55,-102.89 -285.17,-149.93 -67.61,-47.04 -102.89,-82.32 -170.51,-88.2 -67.61,-5.88 -167.57,17.64 -308.68,55.86 -141.11,38.22 -323.38,91.13 -652.64,123.47 -329.26,32.34 -805.51,44.1 -1337.62,47.04 -532.1,2.94 -1120.07,-2.94 -1546.34,-32.34 -426.27,-29.4 -690.86,-82.31 -855.49,-97.01 -164.63,-14.7 -229.3,8.81 -279.28,49.97 -49.98,41.16 -85.25,99.95 -152.86,146.99 -67.62,47.04 -167.58,82.32 -496.84,126.42 -329.26,44.1 -887.82,97.01 -1337.61,79.37 -449.8,-17.64 -790.82,-105.83 -952.51,-255.77 -161.69,-149.93 -144.05,-361.59 -97.01,-526.22 47.03,-164.63 123.47,-282.23 149.93,-388.06 26.45,-105.83 2.94,-199.91 -35.28,-385.12 -38.22,-185.2 -91.13,-461.55 -135.23,-655.58 -44.1,-194.02 -79.37,-305.74 0.01,-455.67 79.37,-149.93 273.39,-338.07 464.48,-523.28 191.09,-185.21 379.23,-367.48 502.71,-587.97 123.47,-220.48 182.26,-479.19 202.84,-781.99 20.58,-302.8 2.95,-649.7 -70.54,-1143.59 -73.5,-493.89 -202.86,-1134.77 -270.47,-1502.25 -67.62,-367.47 -73.5,-461.55 -123.47,-558.56 -49.98,-97.01 -144.06,-196.97 -279.29,-393.94 -135.23,-196.96 -311.62,-490.95 -449.79,-755.53 -138.17,-264.58 -238.13,-499.77 -288.1,-687.92 -49.98,-188.14 -49.98,-329.26 20.58,-458.61 70.55,-129.35 211.66,-246.95 382.17,-305.74 170.51,-58.8 370.42,-58.8 561.51,-47.04 191.09,11.76 373.35,35.28 464.49,47.04 91.13,11.76 91.13,11.76 117.59,-196.96 26.46,-208.73 79.37,-626.19 196.97,-1096.56 117.59,-470.37 299.86,-993.66 493.89,-1493.43 194.03,-499.77 399.81,-976.02 590.9,-1361.13 191.09,-385.12 367.48,-679.1 490.96,-887.82 123.47,-208.73 194.02,-332.21 326.32,-461.56 132.29,-129.35 326.31,-264.59 552.68,-388.06 226.36,-123.47 485.07,-235.18 661.46,-323.37 176.39,-88.2 270.46,-152.87 367.48,-249.88 97.01,-97.02 196.97,-226.38 244.01,-426.28 47.03,-199.91 41.15,-470.38 -32.34,-740.84 -73.5,-270.46 -214.62,-540.93 -343.97,-758.47 -129.35,-217.55 -246.94,-382.18 -346.89,-493.89 -99.96,-111.72 -182.27,-170.51 -296.92,-167.57 -114.66,2.94 -261.65,67.61 -388.06,158.75 -126.41,91.13 -232.25,208.73 -373.36,391 -141.11,182.26 -317.5,429.21 -505.65,732.01 -188.15,302.8 -388.05,661.46 -599.72,1049.52 -211.67,388.05 -435.09,805.51 -632.06,1111.25 -196.97,305.74 -367.48,499.76 -585.02,699.67 -217.55,199.91 -482.14,405.7 -696.74,523.3 -214.61,117.59 -379.24,146.98 -514.47,152.86 -135.23,5.88 -241.07,-11.76 -317.5,-117.59 -76.44,-105.84 -123.47,-299.86 -108.77,-449.79 14.69,-149.93 91.13,-255.77 176.39,-361.6 85.25,-105.83 179.32,-211.67 317.5,-399.81z"/>
   <path class="fil1" d="M13119.61 23717.29c47.04,-108.77 123.47,-244 205.78,-361.59 82.32,-117.59 170.52,-217.55 232.25,-288.11 61.74,-70.55 97.01,-111.71 194.02,-170.51 97.02,-58.79 255.77,-135.23 394.45,-242.12 138.68,-106.88 257.3,-244.22 404.29,-364.76 146.99,-120.53 322.36,-224.25 283.63,-202.62 -38.72,21.63 -291.55,168.63 -462.06,280.34 -170.51,111.71 -258.7,188.15 -385.12,255.76 -126.41,67.62 -291.04,126.41 -414.51,194.03 -123.47,67.62 -205.79,144.05 -320.44,293.98 -114.65,149.94 -261.64,373.36 -358.66,573.27 -97.01,199.91 -144.05,376.29 -157.8,507.56 -13.75,131.28 5.79,217.45 15.56,260.53 9.77,43.08 9.77,43.08 50.91,45.53 41.14,2.45 123.43,7.34 164.57,9.79 41.14,2.45 41.14,2.45 46.08,-84.24 4.95,-86.68 14.84,-260.06 28.6,-387.91 13.77,-127.84 31.41,-210.15 78.45,-318.93z"/>
   <path class="fil2" d="M6319.81 22170.95c-8.82,20.58 144.05,38.22 276.34,82.32 132.29,44.1 244.01,114.65 355.72,220.48 111.71,105.84 223.43,246.95 320.44,382.18 97.01,135.23 179.33,264.59 261.65,393.94 82.31,129.35 164.62,258.7 238.12,358.65 73.5,99.96 138.17,170.51 182.27,264.58 44.1,94.08 67.61,211.68 61.24,341.03 -6.38,129.35 -42.64,270.45 -60.77,341 -18.14,70.56 -18.14,70.56 4.16,61.94 22.29,-8.61 66.89,-25.84 89.19,-34.46 22.29,-8.61 22.29,-8.61 32.83,-61.73 10.53,-53.12 31.61,-159.35 42.15,-259.51 10.53,-100.16 10.53,-194.23 -4.17,-288.31 -14.7,-94.07 -44.1,-188.15 -88.2,-267.53 -44.1,-79.37 -102.89,-144.04 -164.62,-220.48 -61.74,-76.43 -126.42,-164.63 -196.97,-261.64 -70.56,-97.01 -146.99,-202.85 -199.91,-308.68 -52.92,-105.83 -82.31,-211.67 -152.86,-311.62 -70.56,-99.95 -182.28,-194.03 -296.93,-276.35 -114.65,-82.31 -232.25,-152.86 -376.3,-176.38 -144.05,-23.52 -314.56,-0.01 -323.38,20.57z"/>
   <path class="fil2" d="M10850.02 19786.74c114.66,5.88 291.05,23.51 473.32,-20.59 182.27,-44.09 370.42,-149.93 526.23,-261.64 155.81,-111.71 279.28,-229.3 352.77,-291.04 73.5,-61.73 97.02,-67.61 61.74,-8.82 -35.27,58.8 -129.35,182.27 -226.37,291.04 -97.01,108.78 -196.96,202.85 -349.84,276.35 -152.87,73.5 -358.65,126.41 -543.86,129.35 -185.21,2.94 -349.84,-44.1 -432.16,-70.56 -82.31,-26.46 -82.31,-32.33 -55.85,-38.21 26.46,-5.88 79.37,-11.76 194.02,-5.88z"/>
   <path class="fil2" d="M6704.9 18484.39c-8.82,-32.34 -79.37,-173.45 -129.35,-270.47 -49.98,-97.01 -79.37,-149.92 -135.23,-176.38 -55.86,-26.46 -138.17,-26.46 -232.24,-55.86 -94.08,-29.4 -199.92,-88.19 -305.75,-220.97 -105.83,-132.78 -211.67,-339.54 -264.58,-442.92 -52.92,-103.38 -52.92,-103.38 -2.94,35.28 49.97,138.66 149.93,415.97 291.04,575.21 141.11,159.24 323.38,200.39 443.92,253.31 120.53,52.92 179.32,117.59 235.18,188.14 55.86,70.56 108.77,147 99.95,114.66z"/>
   <path class="fil2" d="M6779.37 14887.02c257.72,90.15 510.55,178.35 728.1,243.02 217.54,64.68 399.81,105.84 520.35,129.36 120.53,23.52 179.32,29.4 229.3,20.58 49.98,-8.82 91.13,-32.34 214.61,-120.54 123.47,-88.19 329.25,-241.06 514.46,-352.77 185.21,-111.72 349.84,-182.27 555.23,-270.82 205.39,-88.56 451.55,-195.12 669.1,-230.39 217.54,-35.28 406.48,0.71 500.95,18.71 94.47,18 94.47,18 120.93,-55.49 26.46,-73.5 79.37,-220.49 164.62,-388.06 85.26,-167.57 202.86,-355.71 352.79,-564.44 149.93,-208.73 332.2,-438.03 505.65,-646.76 173.45,-208.73 338.07,-396.88 476.24,-529.17 138.17,-132.29 249.89,-208.73 373.36,-258.7 123.47,-49.98 258.71,-73.5 382.18,-44.1 123.47,29.4 235.19,111.71 323.38,223.43 88.2,111.71 152.87,252.82 196.97,502.71 44.1,249.88 67.61,608.53 70.55,987.77 2.94,379.24 -14.69,779.05 -2.93,1064.22 11.76,285.16 52.91,455.67 58.79,576.2 5.88,120.54 -23.52,191.09 -64.68,223.43 -41.16,32.34 -94.07,26.46 -126.41,73.49 -32.34,47.04 -44.09,147 -14.7,264.59 29.4,117.59 99.96,252.82 179.33,376.29 79.38,123.47 167.57,235.19 229.31,399.82 61.74,164.63 97.01,382.17 179.2,652.94 82.19,270.77 211.3,594.75 275.85,756.74 64.55,162 64.55,162 23.51,-11.75 -41.03,-173.75 -123.09,-521.26 -208.22,-850.82 -85.13,-329.56 -173.33,-641.19 -255.65,-835.22 -82.31,-194.02 -158.74,-270.46 -214.6,-335.14 -55.86,-64.67 -91.13,-117.58 -70.56,-176.38 20.58,-58.8 97.02,-123.47 144.05,-179.33 47.04,-55.86 64.68,-102.89 67.62,-182.27 2.94,-79.37 -8.82,-191.09 -32.34,-317.5 -23.52,-126.41 -58.79,-267.52 -67.61,-485.06 -8.82,-217.55 8.82,-511.54 8.82,-884.89 0,-373.36 -17.64,-826.1 -55.86,-1123.02 -38.22,-296.92 -97.01,-438.03 -155.81,-549.74 -58.8,-111.71 -117.59,-194.03 -196.97,-252.82 -79.37,-58.8 -179.33,-94.08 -276.34,-108.78 -97.01,-14.7 -191.09,-8.82 -285.17,14.7 -94.07,23.52 -188.14,64.67 -285.16,117.59 -97.01,52.92 -196.97,117.59 -302.8,205.79 -105.83,88.19 -217.55,199.91 -361.6,373.36 -144.05,173.45 -320.43,408.63 -493.88,635 -173.45,226.37 -343.96,443.91 -464.5,632.06 -120.53,188.15 -191.08,346.9 -226.36,432.16 -35.28,85.25 -35.28,97.01 -97.02,85.25 -61.73,-11.76 -185.21,-47.04 -426.27,2.94 -241.07,49.97 -599.72,185.21 -902.52,320.44 -302.81,135.23 -549.75,270.46 -723.2,370.42 -173.45,99.95 -273.41,164.62 -341.02,205.78 -67.62,41.16 -102.89,58.8 -249.88,35.28 -146.99,-23.52 -405.7,-88.19 -748.67,-172.46 -342.98,-84.27 -770.24,-188.14 -983.86,-240.07 -213.63,-51.93 -213.63,-51.93 -82.32,-5.88 131.31,46.05 393.94,138.16 651.66,228.3z"/>
  </g>
 </g>
</svg>
