<?xml version="1.0" encoding="UTF-8"?>
<!DOCTYPE svg PUBLIC "-//W3C//DTD SVG 1.1//EN" "http://www.w3.org/Graphics/SVG/1.1/DTD/svg11.dtd">
<!-- Creator: CorelDRAW 2018 (64-Bit) -->
<svg xmlns="http://www.w3.org/2000/svg" xml:space="preserve" width="210mm" height="297mm" version="1.1" style="shape-rendering:geometricPrecision; text-rendering:geometricPrecision; image-rendering:optimizeQuality; fill-rule:evenodd; clip-rule:evenodd"
viewBox="0 0 21000 29700"
 xmlns:xlink="http://www.w3.org/1999/xlink">
 <defs>
  <style type="text/css">
   <![CDATA[
    .str0 {stroke:#1F1B20;stroke-width:200;stroke-miterlimit:22.9256}
    .fil2 {fill:none}
    .fil1 {fill:#FEFEFE}
    .fil0 {fill:#1F1B20}
   ]]>
  </style>
 </defs>
 <g id="Слой_x0020_1">
  <metadata id="CorelCorpID_0Corel-Layer"/>
  <g id="_2240540285872">
   <g>
    <path class="fil0" d="M8212.68 9316.78c72.41,9.56 165.32,23.22 267.8,65.58 102.47,42.36 214.51,113.4 333.37,222.71 118.87,109.3 244.58,256.87 323.82,351.14 79.25,94.28 112.04,135.27 128.43,155.76 16.4,20.5 16.4,20.5 46.46,-13.66 30.06,-34.16 90.18,-102.48 162.59,-147.56 72.42,-45.09 157.13,-66.95 215.88,-97.01 58.75,-30.06 91.54,-68.32 131.17,-116.14 39.62,-47.82 86.07,-105.21 116.13,-155.76 30.06,-50.55 43.72,-94.27 77.88,-154.39 34.16,-60.12 88.81,-136.63 142.1,-177.62 53.28,-40.99 105.2,-46.46 136.63,-58.75 31.42,-12.3 42.36,-31.43 27.32,-103.84 -15.03,-72.42 -56.01,-198.12 -102.47,-286.93 -46.45,-88.81 -98.37,-140.73 -138,-209.05 -39.62,-68.31 -66.94,-153.02 -80.61,-215.87 -13.66,-62.85 -13.66,-103.84 -5.46,-139.37 8.2,-35.52 24.59,-65.58 43.72,-92.91 19.13,-27.33 40.99,-51.92 50.55,-77.88 9.57,-25.96 6.83,-53.28 10.93,-81.98 4.1,-28.69 15.03,-58.75 36.89,-76.51 21.86,-17.76 54.66,-23.22 71.05,-39.62 16.4,-16.4 16.4,-43.72 24.59,-64.22 8.2,-20.49 24.6,-34.16 49.19,-53.29 24.6,-19.13 57.39,-43.72 106.57,-61.48 49.19,-17.76 114.78,-28.69 163.96,-32.79 49.19,-4.1 81.98,-1.37 103.84,15.03 21.87,16.39 32.79,46.45 105.21,54.65 72.41,8.2 206.31,-5.46 322.45,-6.83 116.14,-1.37 214.51,9.57 308.79,32.79 94.27,23.23 184.45,58.75 282.82,106.57 98.38,47.82 204.95,107.95 271.9,136.64 66.95,28.69 94.27,25.96 131.16,-24.6 36.89,-50.55 83.35,-148.92 150.3,-241.83 66.95,-92.91 154.39,-180.36 198.11,-224.08 43.73,-43.72 43.73,-43.72 42.36,16.39 -1.36,60.12 -4.1,180.36 -5.46,240.47 -1.37,60.12 -1.37,60.12 15.03,46.46 16.39,-13.66 49.18,-40.99 88.8,-57.38 39.63,-16.4 86.09,-21.86 120.24,-17.77 34.16,4.1 56.02,17.76 65.59,64.22 9.56,46.45 6.83,125.7 -9.57,226.81 -16.4,101.1 -46.45,224.07 -95.64,381.2 -49.19,157.13 -117.5,348.41 -159.86,476.85 -42.36,128.43 -58.75,194.01 -68.31,263.69 -9.57,69.68 -12.3,143.47 -35.53,202.22 -23.23,58.75 -66.95,102.47 -95.64,153.02 -28.7,50.56 -42.36,107.94 -68.32,192.66 -25.96,84.7 -64.21,196.74 -116.14,316.98 -51.92,120.23 -117.5,248.67 -158.49,345.68 -40.99,97 -57.38,162.59 -65.58,225.44 -8.2,62.85 -8.2,122.97 9.56,162.59 17.77,39.62 53.29,58.75 75.15,84.71 21.86,25.96 30.06,58.75 31.43,98.37 1.36,39.63 -4.1,86.08 -6.83,125.71 -2.74,39.62 -2.74,72.41 21.85,125.7 24.59,53.28 73.78,127.07 142.09,221.35 68.32,94.27 155.76,209.04 247.3,312.88 91.54,103.84 187.19,196.75 267.8,289.66 80.61,92.91 146.19,185.82 217.24,318.35 71.05,132.53 147.56,304.69 191.28,489.14 43.73,184.45 54.66,381.2 65.59,599.81 10.93,218.61 21.86,459.08 27.33,717.31 5.46,258.24 5.46,534.24 -8.2,729.62 -13.67,195.38 -40.99,310.15 -46.46,426.29 -5.46,116.14 10.94,233.64 25.97,344.31 15.03,110.67 28.69,214.51 28.69,341.58 0,127.06 -13.66,277.36 -45.09,422.19 -31.43,144.83 -80.61,284.19 -120.24,429.02 -39.62,144.83 -69.68,295.13 -83.35,401.7 -13.65,106.57 -10.92,169.42 -17.75,229.54 -6.84,60.11 -23.23,117.5 -41,191.28 -17.76,73.78 -36.88,163.96 -95.64,240.48 -58.75,76.51 -157.12,139.36 -267.79,178.98 -110.67,39.63 -233.64,56.02 -334.75,64.22 -101.11,8.19 -180.35,8.19 -241.84,6.83 -61.48,-1.37 -105.21,-4.1 -142.1,23.23 -36.89,27.33 -66.94,84.71 -218.6,239.1 -151.66,154.4 -424.93,405.8 -668.14,618.94 -243.2,213.15 -456.34,388.03 -688.62,569.76 -232.27,181.72 -483.67,370.27 -699.55,502.8 -215.88,132.53 -396.23,209.05 -551.99,260.97 -155.76,51.92 -286.93,79.24 -422.19,87.44 -135.27,8.2 -274.63,-2.73 -403.06,-25.96 -128.44,-23.23 -245.94,-58.75 -371.64,-128.43 -125.7,-69.68 -259.6,-173.53 -359.34,-256.87 -99.74,-83.34 -165.33,-146.2 -183.09,-214.51 -17.76,-68.32 12.3,-142.1 71.05,-187.19 58.75,-45.09 146.19,-61.48 222.71,-66.94 76.51,-5.47 142.09,-0.01 224.07,31.41 81.98,31.43 180.35,88.82 311.52,121.61 131.17,32.79 295.13,40.99 431.76,30.06 136.63,-10.93 245.94,-40.99 386.67,-133.9 140.73,-92.91 312.88,-248.67 508.27,-445.42 195.38,-196.75 413.99,-434.48 591.61,-610.74 177.62,-176.26 314.25,-291.02 464.55,-426.29 150.29,-135.27 314.25,-291.02 382.56,-360.7 68.32,-69.69 40.99,-53.29 6.83,-54.66 -34.15,-1.37 -75.14,-20.49 -146.19,-51.92 -71.05,-31.43 -172.15,-75.15 -239.11,-97.01 -66.95,-21.86 -99.73,-21.86 -124.33,16.39 -24.59,38.26 -40.99,114.78 -64.22,214.51 -23.22,99.75 -53.28,222.72 -91.54,289.67 -38.25,66.95 -84.71,77.88 -173.52,77.88 -88.81,0 -219.98,-10.93 -338.85,-35.53 -118.87,-24.59 -225.44,-62.85 -368.9,-113.4 -143.47,-50.55 -323.82,-113.41 -441.32,-155.77 -117.51,-42.35 -172.16,-64.21 -200.85,-91.54 -28.69,-27.32 -31.42,-60.11 -20.49,-101.1 10.93,-40.99 35.52,-90.18 62.85,-131.17 27.33,-40.99 57.38,-73.78 86.08,-102.47 28.69,-28.69 56.01,-53.28 90.17,-57.38 34.16,-4.1 75.15,12.29 107.94,2.72 32.79,-9.56 57.38,-45.08 97.01,-46.45 39.62,-1.36 94.28,31.43 153.03,58.75 58.75,27.33 121.6,49.19 155.76,35.52 34.15,-13.66 39.62,-62.85 40.98,-121.6 1.37,-58.75 -1.36,-127.06 -25.95,-207.67 -24.6,-80.62 -71.06,-173.52 -88.81,-284.2 -17.77,-110.67 -6.84,-239.1 -4.11,-393.5 2.73,-154.39 -2.73,-334.74 -9.56,-491.87 -6.83,-157.12 -15.03,-291.03 9.57,-433.12 24.59,-142.1 81.98,-292.39 144.83,-450.89 62.85,-158.49 131.16,-325.18 159.86,-437.22 28.68,-112.03 17.75,-169.42 19.12,-267.8 1.37,-98.37 15.03,-237.73 25.96,-327.91 10.93,-90.17 19.13,-131.16 -17.76,-207.68 -36.89,-76.51 -118.87,-188.55 -204.95,-321.08 -86.08,-132.53 -176.25,-285.56 -273.26,-408.53 -97.01,-122.97 -200.85,-215.87 -336.11,-326.54 -135.27,-110.68 -301.96,-239.11 -413.99,-329.29 -112.04,-90.17 -169.43,-142.1 -221.35,-177.62 -51.92,-35.53 -98.38,-54.65 -153.03,-68.31 -54.65,-13.67 -117.5,-21.87 -163.95,-41 -46.46,-19.13 -76.52,-49.18 -105.21,-56.01 -28.7,-6.84 -56.02,9.56 -109.3,21.86 -53.29,12.3 -132.54,20.49 -196.76,32.79 -64.21,12.29 -113.4,28.69 -206.31,69.68 -92.91,40.99 -229.54,106.57 -334.74,120.24 -105.21,13.66 -179,-24.6 -228.18,-65.59 -49.19,-40.99 -73.78,-84.71 -86.08,-127.06 -12.3,-42.36 -12.3,-83.35 6.83,-128.44 19.13,-45.08 57.39,-94.27 103.84,-144.83 46.46,-50.55 101.11,-102.47 159.86,-144.83 58.75,-42.35 121.6,-75.14 226.81,-112.03 105.2,-36.89 252.77,-77.89 401.69,-103.84 148.93,-25.96 299.23,-36.9 464.55,-20.5 165.33,16.4 345.68,60.12 478.21,106.58 132.53,46.45 217.25,95.64 267.8,120.23 50.56,24.59 66.95,24.59 80.61,-54.65 13.67,-79.25 24.6,-237.74 15.03,-393.5 -9.56,-155.76 -39.62,-308.79 -65.58,-413.99 -25.96,-105.21 -47.82,-162.6 -64.22,-211.78 -16.39,-49.19 -27.32,-90.18 -54.65,-136.64 -27.33,-46.45 -71.05,-98.37 -94.27,-143.46 -23.23,-45.08 -25.97,-83.34 -60.12,-135.26 -34.16,-51.92 -99.74,-117.51 -157.13,-166.69 -57.38,-49.19 -106.57,-81.98 -148.93,-91.54 -42.35,-9.57 -77.88,4.09 -121.6,6.82 -43.72,2.74 -95.64,-5.46 -158.49,-25.95 -62.85,-20.5 -136.63,-53.29 -180.35,-91.55 -43.73,-38.26 -57.39,-81.98 -58.76,-125.7 -1.36,-43.72 9.57,-87.45 42.36,-133.9 32.79,-46.45 87.44,-95.64 153.03,-142.09 65.58,-46.46 142.09,-90.18 206.31,-109.31 64.22,-19.13 116.15,-13.67 188.57,-4.1z"/>
    <path class="fil0" d="M12911.85 17703.23c17.31,20.5 36.44,40.99 52.84,67.64 16.4,26.64 30.06,59.43 8.88,77.19 -21.18,17.77 -77.2,20.5 -137.32,28.7 -60.11,8.2 -124.33,21.86 -138.68,-15.04 -14.35,-36.88 21.18,-124.32 57.16,-169.42 35.98,-45.09 72.42,-47.83 98.38,-38.95 25.97,8.88 41.44,29.39 58.74,49.88z"/>
    <path class="fil1" d="M9559.16 10468.82c74.43,102.24 126.35,184.22 179.64,296.26 53.28,112.03 107.94,254.13 143.46,397.59 35.52,143.46 51.92,288.29 60.12,362.07 8.2,73.79 8.2,76.52 2.73,-31.42 -5.46,-107.94 -16.4,-326.55 -50.55,-500.07 -34.16,-173.52 -91.55,-301.96 -166.7,-418.09 -75.14,-116.14 -168.05,-219.98 -243.85,-293.53 -75.8,-73.55 -134.49,-116.81 -163.83,-138.44 -29.34,-21.63 -29.34,-21.63 19.13,39.62 48.47,61.25 145.42,183.76 219.85,286.01z"/>
    <path class="fil1" d="M9061.5 12162.66c99.34,225.6 211.38,427.82 300.2,569.92 88.8,142.09 154.39,224.07 248.67,282.82 94.27,58.75 217.24,94.27 334.74,20.49 117.5,-73.78 229.54,-256.86 338.84,-415.35 109.31,-158.5 215.88,-292.39 269.17,-359.34 53.29,-66.95 53.29,-66.95 -16.4,43.72 -69.68,110.67 -209.05,332.01 -329.28,497.34 -120.23,165.32 -221.34,274.62 -323.81,312.88 -102.48,38.26 -206.31,5.47 -291.03,-46.45 -84.71,-51.92 -150.3,-122.97 -233.64,-251.4 -83.34,-128.44 -184.45,-314.26 -270.52,-505.54 -86.08,-191.28 -157.14,-388.04 -204.56,-534.39 -47.42,-146.36 -71.23,-242.32 -83.12,-290.3 -11.91,-47.98 -11.91,-47.98 31.42,76.51 43.32,124.5 129.98,373.49 229.32,599.09z"/>
   </g>
   <circle class="fil2 str0" cx="10091.18" cy="13844.9" r="7099.84"/>
  </g>
 </g>
</svg>
