<?xml version="1.0" encoding="UTF-8"?>
<!DOCTYPE svg PUBLIC "-//W3C//DTD SVG 1.1//EN" "http://www.w3.org/Graphics/SVG/1.1/DTD/svg11.dtd">
<!-- Creator: CorelDRAW 2018 (64-Bit) -->
<svg xmlns="http://www.w3.org/2000/svg" xml:space="preserve" width="210mm" height="297mm" version="1.1" style="shape-rendering:geometricPrecision; text-rendering:geometricPrecision; image-rendering:optimizeQuality; fill-rule:evenodd; clip-rule:evenodd"
viewBox="0 0 21000 29700"
 xmlns:xlink="http://www.w3.org/1999/xlink">
 <defs>
  <style type="text/css">
   <![CDATA[
    .fil1 {fill:#FEFEFE}
    .fil0 {fill:#1F1B20}
   ]]>
  </style>
 </defs>
 <g id="Слой_x0020_1">
  <metadata id="CorelCorpID_0Corel-Layer"/>
  <g id="_2240551809392">
   <path class="fil0" d="M6537.17 5333.23c155.81,20.58 355.72,49.97 576.21,141.11 220.48,91.13 461.55,244 717.31,479.19 255.76,235.18 526.23,552.68 696.74,755.53 170.51,202.85 241.06,291.04 276.34,335.14 35.28,44.1 35.28,44.1 99.96,-29.39 64.67,-73.5 194.03,-220.5 349.84,-317.51 155.81,-97.02 338.07,-144.05 464.49,-208.72 126.41,-64.68 196.96,-147 282.22,-249.89 85.25,-102.89 185.21,-226.37 249.89,-335.14 64.67,-108.77 94.06,-202.85 167.56,-332.2 73.49,-129.35 191.09,-293.98 305.74,-382.17 114.65,-88.2 226.37,-99.96 293.98,-126.42 67.62,-26.46 91.14,-67.61 58.8,-223.42 -32.34,-155.81 -120.53,-426.28 -220.49,-617.36 -99.95,-191.09 -211.66,-302.81 -296.92,-449.8 -85.25,-146.99 -144.04,-329.26 -173.44,-464.49 -29.4,-135.23 -29.4,-223.43 -11.76,-299.86 17.64,-76.44 52.91,-141.11 94.07,-199.91 41.16,-58.8 88.19,-111.71 108.77,-167.57 20.58,-55.86 14.7,-114.65 23.52,-176.39 8.82,-61.74 32.34,-126.41 79.37,-164.63 47.04,-38.22 117.6,-49.97 152.87,-85.25 35.28,-35.28 35.28,-94.07 52.92,-138.17 17.64,-44.1 52.92,-73.5 105.84,-114.66 52.92,-41.16 123.47,-94.07 229.3,-132.29 105.84,-38.22 246.95,-61.73 352.78,-70.55 105.84,-8.82 176.39,-2.94 223.43,32.34 47.04,35.27 70.55,99.95 226.36,117.59 155.81,17.63 443.92,-11.76 693.8,-14.7 249.89,-2.94 461.55,20.58 664.4,70.56 202.85,49.97 396.87,126.41 608.54,229.3 211.67,102.89 440.97,232.25 585.02,293.99 144.06,61.73 202.85,55.85 282.22,-52.92 79.38,-108.78 179.34,-320.44 323.39,-520.35 144.05,-199.91 332.2,-388.06 426.27,-482.13 94.08,-94.08 94.08,-94.08 91.14,35.27 -2.94,129.35 -8.82,388.06 -11.76,517.41 -2.94,129.35 -2.94,129.35 32.34,99.96 35.28,-29.4 105.83,-88.2 191.08,-123.47 85.26,-35.28 185.22,-47.04 258.71,-38.22 73.5,8.82 120.53,38.21 141.11,138.17 20.58,99.95 14.7,270.46 -20.58,488.01 -35.28,217.54 -99.95,482.13 -205.79,820.21 -105.83,338.08 -252.82,749.65 -343.96,1026 -91.13,276.34 -126.4,417.45 -146.98,567.38 -20.58,149.93 -26.46,308.68 -76.44,435.09 -49.98,126.41 -144.05,220.49 -205.79,329.26 -61.74,108.77 -91.13,232.25 -146.99,414.52 -55.86,182.26 -138.17,423.33 -249.89,682.03 -111.71,258.7 -252.82,535.05 -341.02,743.78 -88.19,208.72 -123.46,349.84 -141.1,485.07 -17.64,135.23 -17.64,264.58 20.57,349.84 38.22,85.25 114.66,126.41 161.69,182.27 47.04,55.85 64.68,126.41 67.62,211.66 2.94,85.25 -8.82,185.21 -14.7,270.47 -5.88,85.25 -5.88,155.8 47.03,270.46 52.91,114.65 158.74,273.41 305.72,476.26 146.99,202.85 335.13,449.79 532.1,673.22 196.97,223.43 402.76,423.33 576.21,623.24 173.45,199.91 314.56,399.81 467.43,684.98 152.87,285.16 317.5,655.57 411.57,1052.45 94.08,396.87 117.6,820.21 141.12,1290.58 23.52,470.37 47.03,987.78 58.79,1543.4 11.76,555.63 11.76,1149.48 -17.64,1569.87 -29.4,420.39 -88.19,667.34 -99.95,917.22 -11.76,249.89 23.52,502.71 55.86,740.83 32.34,238.13 61.73,461.56 61.73,734.96 0,273.4 -29.39,596.79 -97.01,908.41 -67.62,311.62 -173.45,611.48 -258.71,923.1 -85.25,311.62 -149.93,635 -179.33,864.3 -29.39,229.31 -23.51,364.54 -38.21,493.89 -14.7,129.35 -49.98,252.83 -88.2,411.58 -38.22,158.75 -79.37,352.78 -205.79,517.41 -126.41,164.63 -338.07,299.86 -576.2,385.11 -238.12,85.26 -502.71,120.53 -720.26,138.17 -217.54,17.64 -388.05,17.64 -520.34,14.7 -132.29,-2.94 -226.37,-8.81 -305.75,49.98 -79.37,58.8 -144.04,182.27 -470.36,514.47 -326.32,332.2 -914.29,873.12 -1437.58,1331.73 -523.28,458.62 -981.9,834.91 -1481.67,1225.91 -499.77,391 -1040.69,796.69 -1505.18,1081.85 -464.5,285.17 -852.55,449.8 -1187.69,561.51 -335.14,111.72 -617.37,170.51 -908.41,188.15 -291.04,17.64 -590.9,-5.88 -867.24,-55.86 -276.34,-49.98 -529.17,-126.41 -799.63,-276.34 -270.46,-149.93 -558.57,-373.36 -773.17,-552.69 -214.61,-179.32 -355.72,-314.56 -393.94,-461.55 -38.22,-146.99 26.46,-305.74 152.87,-402.76 126.41,-97.01 314.56,-132.28 479.19,-144.04 164.63,-11.76 305.74,-0.01 482.13,67.6 176.39,67.62 388.05,191.1 670.28,261.65 282.22,70.56 635,88.2 928.99,64.68 293.98,-23.52 529.16,-88.19 831.97,-288.1 302.8,-199.91 673.21,-535.05 1093.61,-958.39 420.39,-423.33 890.76,-934.85 1272.94,-1314.09 382.17,-379.24 676.16,-626.18 999.54,-917.23 323.38,-291.04 676.15,-626.17 823.14,-776.1 146.99,-149.93 88.2,-114.66 14.7,-117.6 -73.49,-2.94 -161.69,-44.09 -314.56,-111.71 -152.87,-67.62 -370.41,-161.69 -514.47,-208.73 -144.05,-47.04 -214.6,-47.04 -267.52,35.27 -52.92,82.32 -88.19,246.95 -138.17,461.55 -49.98,214.61 -114.65,479.2 -196.97,623.25 -82.31,144.05 -182.27,167.57 -373.35,167.57 -191.09,0 -473.32,-23.52 -729.08,-76.44 -255.77,-52.91 -485.07,-135.23 -793.75,-244 -308.69,-108.77 -696.74,-244.01 -949.56,-335.15 -252.83,-91.13 -370.42,-138.16 -432.15,-196.96 -61.74,-58.79 -67.62,-129.35 -44.1,-217.54 23.52,-88.19 76.43,-194.03 135.23,-282.23 58.8,-88.19 123.47,-158.74 185.21,-220.48 61.73,-61.74 120.53,-114.65 194.03,-123.47 73.49,-8.82 161.68,26.45 232.24,5.87 70.56,-20.57 123.47,-97.01 208.73,-99.95 85.25,-2.94 202.85,67.62 329.26,126.41 126.41,58.8 261.64,105.83 335.14,76.43 73.49,-29.39 85.25,-135.23 88.19,-261.64 2.94,-126.41 -2.94,-273.4 -55.85,-446.85 -52.92,-173.45 -152.88,-373.35 -191.09,-611.48 -38.22,-238.12 -14.71,-514.47 -8.83,-846.67 5.88,-332.2 -5.87,-720.25 -20.57,-1058.33 -14.7,-338.08 -32.34,-626.19 20.58,-931.93 52.91,-305.74 176.39,-629.12 311.62,-970.14 135.23,-341.02 282.22,-699.67 343.96,-940.74 61.73,-241.06 38.21,-364.54 41.15,-576.21 2.94,-211.66 32.34,-511.52 55.86,-705.55 23.52,-194.02 41.16,-282.22 -38.21,-446.85 -79.38,-164.63 -255.77,-405.69 -440.98,-690.85 -185.21,-285.17 -379.24,-614.43 -587.96,-879.01 -208.73,-264.59 -432.16,-464.49 -723.2,-702.61 -291.04,-238.13 -649.7,-514.48 -890.76,-708.5 -241.07,-194.03 -364.55,-305.75 -476.26,-382.18 -111.71,-76.44 -211.67,-117.59 -329.26,-146.99 -117.59,-29.4 -252.82,-47.04 -352.77,-88.2 -99.96,-41.16 -164.63,-105.83 -226.37,-120.53 -61.74,-14.7 -120.53,20.58 -235.18,47.04 -114.66,26.46 -285.17,44.09 -423.34,70.55 -138.17,26.46 -244.01,61.74 -443.91,149.94 -199.91,88.19 -493.89,229.3 -720.25,258.7 -226.37,29.4 -385.13,-52.92 -490.96,-141.11 -105.84,-88.2 -158.75,-182.27 -185.21,-273.4 -26.46,-91.14 -26.46,-179.34 14.7,-276.35 41.16,-97.01 123.47,-202.85 223.43,-311.62 99.95,-108.77 217.55,-220.49 343.96,-311.62 126.41,-91.14 261.64,-161.69 488.01,-241.06 226.36,-79.38 543.86,-167.58 864.3,-223.43 320.44,-55.86 643.82,-79.38 999.54,-44.1 355.72,35.28 743.77,129.35 1028.94,229.31 285.16,99.95 467.43,205.79 576.21,258.71 108.77,52.91 144.04,52.91 173.44,-117.6 29.4,-170.51 52.92,-511.53 32.34,-846.67 -20.58,-335.14 -85.25,-664.4 -141.11,-890.76 -55.86,-226.37 -102.89,-349.85 -138.17,-455.68 -35.28,-105.83 -58.8,-194.03 -117.59,-293.98 -58.8,-99.95 -152.88,-211.67 -202.85,-308.68 -49.98,-97.01 -55.86,-179.33 -129.35,-291.04 -73.5,-111.71 -214.61,-252.83 -338.08,-358.66 -123.47,-105.83 -229.31,-176.39 -320.44,-196.96 -91.14,-20.58 -167.57,8.81 -261.64,14.69 -94.08,5.88 -205.8,-11.76 -341.03,-55.85 -135.23,-44.1 -293.98,-114.66 -388.05,-196.97 -94.08,-82.32 -123.47,-176.39 -126.41,-270.46 -2.94,-94.08 20.57,-188.16 91.13,-288.11 70.55,-99.95 188.15,-205.79 329.26,-305.74 141.11,-99.95 305.74,-194.03 443.92,-235.18 138.17,-41.16 249.9,-29.41 405.72,-8.83z"/>
   <path class="fil0" d="M16648.12 23377.87c37.24,44.11 78.4,88.2 113.68,145.53 35.28,57.33 64.67,127.88 19.1,166.1 -45.56,38.22 -166.1,44.1 -295.45,61.74 -129.35,17.64 -267.52,47.03 -298.39,-32.35 -30.87,-79.37 45.57,-267.51 122.99,-364.53 77.42,-97.02 155.82,-102.92 211.68,-83.81 55.86,19.11 89.16,63.22 126.39,107.32z"/>
   <path class="fil1" d="M9434.32 7812c160.15,219.99 271.87,396.38 386.52,637.45 114.65,241.06 232.24,546.8 308.68,855.48 76.43,308.68 111.71,620.3 129.35,779.05 17.64,158.75 17.64,164.63 5.88,-67.61 -11.76,-232.25 -35.28,-702.62 -108.77,-1075.97 -73.5,-373.36 -196.98,-649.71 -358.67,-899.59 -161.69,-249.89 -361.59,-473.31 -524.68,-631.56 -163.09,-158.26 -289.37,-251.35 -352.5,-297.89 -63.14,-46.54 -63.14,-46.54 41.16,85.26 104.29,131.79 312.88,395.39 473.03,615.38z"/>
   <path class="fil1" d="M8363.54 11456.55c213.75,485.41 454.82,920.51 645.91,1226.25 191.08,305.74 332.2,482.12 535.05,608.54 202.84,126.41 467.43,202.84 720.25,44.09 252.82,-158.75 493.89,-552.68 729.07,-893.7 235.19,-341.02 464.49,-629.12 579.14,-773.17 114.66,-144.05 114.66,-144.05 -35.27,94.08 -149.93,238.12 -449.8,714.37 -708.5,1070.09 -258.7,355.72 -476.25,590.9 -696.73,673.22 -220.49,82.31 -443.91,11.76 -626.18,-99.95 -182.27,-111.72 -323.39,-264.59 -502.71,-540.93 -179.33,-276.35 -396.88,-676.16 -582.08,-1087.73 -185.21,-411.58 -338.09,-834.92 -440.13,-1149.82 -102.04,-314.91 -153.25,-521.39 -178.85,-624.63 -25.61,-103.24 -25.61,-103.24 67.61,164.63 93.22,267.87 279.67,803.61 493.42,1289.03z"/>
  </g>
 </g>
</svg>
