<?xml version="1.0" encoding="UTF-8"?>
<!DOCTYPE svg PUBLIC "-//W3C//DTD SVG 1.1//EN" "http://www.w3.org/Graphics/SVG/1.1/DTD/svg11.dtd">
<!-- Creator: CorelDRAW 2018 (64-Bit) -->
<svg xmlns="http://www.w3.org/2000/svg" xml:space="preserve" width="210mm" height="297mm" version="1.1" style="shape-rendering:geometricPrecision; text-rendering:geometricPrecision; image-rendering:optimizeQuality; fill-rule:evenodd; clip-rule:evenodd"
viewBox="0 0 21000 29700"
 xmlns:xlink="http://www.w3.org/1999/xlink">
 <defs>
  <style type="text/css">
   <![CDATA[
    .str0 {stroke:#1F1B20;stroke-width:200;stroke-miterlimit:22.9256}
    .fil2 {fill:none}
    .fil1 {fill:#FEFEFE}
    .fil0 {fill:#1F1B20}
   ]]>
  </style>
 </defs>
 <g id="Слой_x0020_1">
  <metadata id="CorelCorpID_0Corel-Layer"/>
  <g id="_2240551776976">
   <g>
    <path class="fil0" d="M7930.77 8841.54c23.78,-8.65 45.41,-11.53 85.05,12.98 39.65,24.51 97.32,76.41 153.54,142.73 56.23,66.31 111.02,147.05 145.62,190.3 34.6,43.25 49.01,49.01 59.1,41.08 10.09,-7.93 15.86,-29.55 24.51,-121.82 8.65,-92.27 20.19,-255.17 26.67,-361.85 6.49,-106.69 7.93,-157.15 13.7,-183.1 5.77,-25.95 15.86,-27.39 30.99,-12.25 15.14,15.13 35.32,46.85 54.79,99.47 19.46,52.62 38.2,126.14 54.78,199.67 16.59,73.52 31,147.06 38.21,186.7 7.21,39.65 7.21,45.41 18.02,46.85 10.81,1.44 32.43,-1.44 56.22,-7.21 23.79,-5.76 49.74,-14.41 99.48,-37.48 49.74,-23.07 123.27,-60.55 182.38,-87.22 59.1,-26.67 103.8,-42.53 144.16,-51.18 40.37,-8.65 76.41,-10.09 147.78,-14.42 71.36,-4.32 178.04,-11.53 256.61,-15.86 78.57,-4.32 129.04,-5.76 178.06,-7.93 49.01,-2.16 96.59,-5.04 136.96,-9.37 40.36,-4.32 73.52,-10.09 124.7,-15.85 51.18,-5.77 120.38,-11.54 162.19,0.72 41.81,12.25 56.22,42.53 65.59,71.36 9.38,28.84 13.7,56.23 23.07,81.46 9.37,25.23 23.79,48.29 41.09,78.57 17.3,30.27 37.49,67.76 38.93,104.52 1.44,36.76 -15.86,72.8 -14.42,95.15 1.44,22.35 21.63,30.99 33.16,54.06 11.53,23.07 14.41,60.55 7.2,111.01 -7.2,50.46 -24.5,113.9 -43.24,157.15 -18.75,43.25 -38.93,66.31 -93.71,114.61 -54.79,48.3 -144.17,121.82 -209.77,182.37 -65.59,60.55 -107.41,108.13 -134.79,165.8 -27.4,57.66 -40.37,125.42 -54.79,193.9 -14.42,68.48 -30.27,137.69 -16.58,189.59 13.69,51.89 56.95,86.5 107.4,100.19 50.46,13.7 108.13,6.49 193.19,18.74 85.06,12.26 197.51,43.97 286.9,78.57 89.38,34.61 155.7,72.09 258.78,107.41 103.08,35.32 242.93,68.48 388.53,90.11 145.61,21.62 296.99,31.71 403.67,36.76 106.69,5.04 168.69,5.04 210.49,-11.54 41.81,-16.58 63.43,-49.73 74.25,-86.49 10.81,-36.77 10.81,-77.14 28.83,-132.64 18.03,-55.5 54.07,-126.15 98.76,-234.27 44.69,-108.13 98.04,-253.74 142.73,-426.74 44.69,-173 80.73,-373.4 107.4,-545.68 26.67,-172.28 43.97,-316.45 54.78,-427.46 10.81,-111.01 15.14,-188.86 0,-250.13 -15.13,-61.27 -49.73,-105.96 -72.8,-149.93 -23.07,-43.98 -34.6,-87.23 -27.39,-118.95 7.21,-31.71 33.15,-51.89 59.83,-57.66 26.67,-5.77 54.06,2.88 74.24,-37.48 20.19,-40.37 33.16,-129.76 24.51,-222.03 -8.65,-92.27 -38.92,-187.41 -62.71,-253.01 -23.79,-65.6 -41.09,-101.64 -43.25,-134.07 -2.16,-32.44 10.81,-61.28 31.72,-82.9 20.9,-21.63 49.73,-36.05 83.61,-36.05 33.88,0 72.81,14.42 98.76,18.03 25.95,3.6 38.92,-3.61 47.58,-38.93 8.65,-35.32 12.97,-98.76 22.34,-142.01 9.37,-43.25 23.79,-66.31 46.86,-83.61 23.06,-17.31 54.78,-28.84 85.78,-35.32 30.99,-6.49 61.27,-7.93 85.06,-2.17 23.79,5.77 41.08,18.74 51.9,36.04 10.81,17.31 15.13,38.93 18.74,67.04 3.6,28.12 6.49,62.71 10.81,87.22 4.33,24.51 10.09,38.93 23.07,43.25 12.98,4.33 33.16,-1.43 49.02,-18.74 15.86,-17.3 27.38,-46.13 41.08,-62.71 13.7,-16.58 29.56,-20.9 51.91,-22.35 22.34,-1.44 51.17,0 74.96,12.26 23.79,12.25 42.53,35.32 53.34,64.87 10.82,29.56 13.7,65.6 11.54,96.6 -2.17,31 -9.37,56.94 -18.75,79.29 -9.37,22.35 -20.9,41.09 -33.16,66.32 -12.25,25.23 -25.22,56.94 -21.62,78.57 3.61,21.63 23.79,33.16 47.58,39.64 23.78,6.49 51.17,7.93 77.85,-0.72 26.67,-8.65 52.62,-27.39 77.85,-20.9 25.23,6.49 49.73,38.2 43.97,81.46 -5.77,43.25 -41.81,98.03 -76.41,138.4 -34.6,40.36 -67.76,66.31 -103.8,94.42 -36.04,28.12 -74.97,58.39 -105.97,85.79 -30.99,27.39 -54.06,51.89 -72.8,113.89 -18.74,61.99 -33.16,161.46 -42.53,261.66 -9.37,100.2 -13.7,201.12 -9.37,263.83 4.33,62.72 17.3,87.23 11.53,139.13 -5.77,51.9 -30.27,131.19 -49.74,229.94 -19.46,98.76 -33.87,216.98 -43.97,351.78 -10.09,134.79 -15.86,286.17 -22.34,446.2 -6.49,160.02 -13.7,328.7 -25.23,448.36 -11.54,119.66 -27.39,190.3 -35.32,253.73 -7.93,63.44 -7.93,119.67 -16.58,212.65 -8.65,92.99 -25.95,222.74 -40.37,353.22 -14.42,130.47 -25.95,261.66 -52.62,346 -26.67,84.34 -68.48,121.82 -133.36,164.35 -64.87,42.53 -152.82,90.11 -250.85,149.94 -98.04,59.83 -206.16,131.91 -284.73,191.02 -78.57,59.11 -127.6,105.24 -178.77,181.65 -51.18,76.41 -104.53,183.09 -178.05,284.73 -73.53,101.64 -167.23,198.23 -235.72,283.29 -68.48,85.06 -111.73,158.59 -143.45,246.53 -31.71,87.95 -51.89,190.3 -60.54,296.99 -8.66,106.69 -5.77,217.69 1.44,325.1 7.21,107.41 18.74,211.2 34.6,356.09 15.86,144.9 36.04,330.87 94.43,539.91 58.39,209.05 154.98,441.16 242.2,637.95 87.22,196.79 165.07,358.26 255.18,544.23 90.11,185.98 192.46,396.47 308.51,621.37 116.06,224.9 245.82,464.22 321.51,608.39 75.68,144.17 97.31,193.19 121.1,231.39 23.79,38.21 49.74,65.6 71.36,94.43 21.63,28.83 38.93,59.11 46.13,94.43 7.21,35.32 4.33,75.69 22.35,110.29 18.02,34.6 56.95,63.43 85.78,87.22 28.83,23.79 47.58,42.53 58.39,62.72 10.81,20.18 13.7,41.8 20.91,72.08 7.2,30.28 18.73,69.2 23.78,100.2 5.05,31 3.6,54.06 -13.7,69.2 -17.29,15.14 -50.45,22.34 -71.36,21.62 -20.9,-0.72 -29.55,-9.37 -38.2,-7.92 -8.65,1.44 -17.3,12.97 -45.42,25.22 -28.11,12.26 -75.69,25.23 -103.8,23.79 -28.11,-1.44 -36.76,-17.3 -48.3,-19.46 -11.53,-2.17 -25.94,9.37 -53.34,16.58 -27.39,7.21 -67.75,10.09 -97.31,10.09 -29.56,0 -48.3,-2.88 -59.11,-7.21 -10.81,-4.32 -13.7,-10.09 -15.86,-8.65 -2.16,1.44 -3.6,10.09 -22.35,18.74 -18.73,8.65 -54.78,17.3 -84.33,15.14 -29.56,-2.17 -52.62,-15.14 -72.8,-44.69 -20.19,-29.55 -37.49,-75.69 -51.19,-124.71 -13.69,-49.01 -23.78,-100.92 -28.83,-140.56 -5.04,-39.65 -5.04,-67.04 -20.9,-121.1 -15.86,-54.07 -47.58,-134.8 -74.97,-198.23 -27.4,-63.44 -50.46,-109.57 -80.74,-161.47 -30.27,-51.9 -67.75,-109.57 -101.64,-175.89 -33.88,-66.32 -64.15,-141.28 -98.75,-214.09 -34.6,-72.8 -73.53,-143.45 -160.75,-275.36 -87.22,-131.92 -222.74,-325.1 -340.24,-503.15 -117.5,-178.05 -216.97,-340.95 -307.8,-504.58 -90.82,-163.64 -173,-327.99 -233.55,-441.88 -60.55,-113.9 -99.48,-177.33 -129.75,-210.49 -30.28,-33.16 -51.9,-36.04 -85.78,-45.41 -33.88,-9.37 -80.02,-25.23 -113.18,-43.25 -33.15,-18.03 -53.33,-38.21 -104.52,-10.1 -51.18,28.12 -133.35,104.53 -198.23,157.15 -64.87,52.62 -112.45,81.45 -146.33,98.03 -33.88,16.58 -54.06,20.91 -48.29,25.23 5.76,4.33 37.48,8.66 70.64,38.93 33.16,30.28 67.75,86.5 93.71,140.57 25.95,54.06 43.24,105.96 56.22,176.6 12.98,70.65 21.63,160.03 18.74,295.54 -2.88,135.53 -17.29,317.17 -34.59,468.55 -17.31,151.38 -37.49,272.48 -44.7,340.96 -7.21,68.48 -1.44,84.34 20.91,89.39 22.34,5.04 61.27,-0.72 100.92,-4.33 39.64,-3.6 80.01,-5.05 130.47,-11.53 50.45,-6.49 111.01,-18.03 194.63,5.76 83.61,23.79 190.3,82.9 291.94,159.31 101.64,76.41 198.23,170.11 262.38,250.13 64.16,80.01 95.87,146.33 88.66,239.32 -7.2,92.99 -53.34,212.65 -111.72,293.38 -58.39,80.73 -129.04,122.55 -147.78,160.03 -18.74,37.48 14.42,70.64 23.79,100.92 9.37,30.27 -5.04,57.66 -23.06,80.01 -18.03,22.35 -39.65,39.64 -127.6,46.13 -87.94,6.49 -242.2,2.17 -433.23,8.65 -191.02,6.49 -418.8,23.79 -660.28,30.28 -241.49,6.49 -496.66,2.16 -642.99,5.05 -146.34,2.88 -183.82,12.97 -239.32,30.99 -55.51,18.03 -129.04,43.97 -197.52,62 -68.48,18.02 -131.91,28.11 -191.74,31.71 -59.83,3.6 -116.06,0.72 -157.14,-8.65 -41.09,-9.37 -67.04,-25.23 -145.61,-36.04 -78.57,-10.81 -209.77,-16.58 -315.01,-20.91 -105.24,-4.32 -184.54,-7.2 -236.44,-24.51 -51.9,-17.3 -76.4,-49.01 -113.17,-116.05 -36.77,-67.04 -85.78,-169.4 -104.52,-266.71 -18.75,-97.32 -7.21,-189.58 -15.14,-281.13 -7.93,-91.55 -35.32,-182.37 -68.48,-319.33 -33.16,-136.96 -72.09,-320.05 -87.94,-530.54 -15.86,-210.49 -8.66,-448.36 21.62,-706.43 30.27,-258.06 83.62,-536.3 149.94,-819.59 66.31,-283.29 145.61,-571.63 212.64,-792.21 67.04,-220.58 121.83,-373.39 194.63,-550.72 72.81,-177.33 163.64,-379.17 273.21,-556.49 109.56,-177.33 237.87,-330.15 338.79,-439.71 100.92,-109.57 174.44,-175.89 252.29,-242.21 77.85,-66.31 160.03,-132.63 211.94,-177.32 51.89,-44.7 73.52,-67.76 89.38,-105.96 15.85,-38.21 25.95,-91.56 38.92,-129.76 12.98,-38.21 28.83,-61.27 41.81,-78.57 12.98,-17.3 23.07,-28.83 22.35,-61.99 -0.72,-33.16 -12.26,-87.95 -19.47,-136.96 -7.21,-49.02 -10.09,-92.27 -12.97,-129.75 -2.89,-37.49 -5.77,-69.2 -21.63,-116.05 -15.86,-46.86 -44.69,-108.86 -69.2,-157.87 -24.51,-49.02 -44.69,-85.06 -76.4,-144.89 -31.72,-59.83 -74.98,-143.45 -117.5,-214.81 -42.54,-71.37 -84.34,-130.48 -129.75,-201.84 -45.42,-71.36 -94.44,-154.98 -134.8,-233.55 -40.37,-78.57 -72.09,-152.1 -87.23,-260.23 -15.14,-108.12 -13.69,-250.85 -25.95,-357.53 -12.25,-106.69 -38.2,-177.33 -67.75,-273.92 -29.56,-96.59 -62.72,-219.14 -90.11,-361.14 -27.39,-142.01 -49.02,-303.48 -54.07,-399.35 -5.04,-95.87 6.49,-126.15 25.24,-148.49 18.74,-22.35 44.69,-36.76 68.48,-45.42z"/>
    <path class="fil1" d="M10234.58 17277.57c36.76,20.91 69.92,41.09 95.15,59.11 25.23,18.02 42.52,33.88 49.73,50.46 7.21,16.58 4.33,33.88 -20.9,62.71 -25.23,28.84 -72.81,69.21 -121.82,100.92 -49.02,31.72 -99.48,54.78 -169.4,72.81 -69.92,18.02 -159.31,30.99 -296.99,41.09 -137.68,10.09 -323.66,17.3 -430.34,19.46 -106.69,2.16 -134.08,-0.72 -147.77,-2.16 -13.7,-1.44 -13.7,-1.44 8.65,-20.91 22.34,-19.46 67.03,-58.39 116.77,-99.48 49.74,-41.08 104.52,-84.33 174.44,-126.87 69.93,-42.52 154.99,-84.33 231.4,-120.38 76.4,-36.04 144.16,-66.31 208.32,-82.17 64.15,-15.86 124.71,-17.3 175.16,-7.21 50.47,10.09 90.83,31.72 127.6,52.62z"/>
    <path class="fil1" d="M9061.87 17761.6c-57.79,44.34 -132.76,104.89 -201.24,163.28 -68.48,58.38 -130.47,114.61 -193.91,149.93 -63.43,35.33 -128.31,49.74 -242.56,80.37 -114.25,30.64 -277.87,77.49 -359.68,100.91 -81.81,23.43 -81.81,23.43 -25.95,12.26 55.86,-11.17 167.58,-33.52 286.15,-61.27 118.58,-27.75 244.01,-60.9 332.67,-101.27 88.66,-40.37 140.56,-87.95 225.03,-163.27 84.46,-75.33 201.48,-178.4 260,-229.94 58.51,-51.54 58.51,-51.54 38.2,-37.48 -20.31,14.05 -60.92,42.16 -118.71,86.48z"/>
    <path class="fil1" d="M9574.15 16934.07c-107.29,65.96 -251.46,163.99 -384.81,269.24 -133.36,105.24 -255.9,217.69 -355.38,320.77 -99.47,103.09 -175.89,196.8 -291.94,245.81 -116.06,49.02 -271.76,53.35 -390.7,45.42 -118.94,-7.93 -201.12,-28.11 -269.59,-34.6 -68.48,-6.49 -123.27,0.72 -188.87,33.15 -65.59,32.44 -142,90.11 -208.32,135.52 -66.32,45.42 -122.55,78.57 -155.7,102.36 -33.16,23.79 -43.25,38.21 -48.3,45.41 -5.04,7.21 -5.04,7.21 20.19,-18.74 25.23,-25.95 75.69,-77.85 146.33,-134.07 70.64,-56.23 161.46,-116.78 223.46,-149.94 61.99,-33.15 95.15,-38.92 131.91,-41.81 36.77,-2.88 77.13,-2.88 130.48,4.33 53.34,7.21 119.66,21.62 206.16,26.67 86.5,5.04 193.18,0.72 278.24,-18.74 85.06,-19.46 148.5,-54.07 210.49,-102.36 61.99,-48.3 122.55,-110.29 200.4,-185.26 77.85,-74.97 173,-162.91 273.19,-245.09 100.2,-82.17 205.44,-158.58 312.85,-227.06 107.41,-68.48 216.97,-129.04 285.34,-161.83 68.36,-32.8 95.52,-37.85 109.1,-40.37 13.58,-2.52 13.58,-2.52 -21.62,14.41 -35.21,16.95 -105.62,50.82 -212.91,116.78z"/>
   </g>
   <circle class="fil2 str0" cx="10858.41" cy="13261.96" r="6314.73"/>
  </g>
 </g>
</svg>
