<?xml version="1.0" encoding="UTF-8"?>
<!DOCTYPE svg PUBLIC "-//W3C//DTD SVG 1.1//EN" "http://www.w3.org/Graphics/SVG/1.1/DTD/svg11.dtd">
<!-- Creator: CorelDRAW 2018 (64-Bit) -->
<svg xmlns="http://www.w3.org/2000/svg" xml:space="preserve" width="210mm" height="297mm" version="1.1" style="shape-rendering:geometricPrecision; text-rendering:geometricPrecision; image-rendering:optimizeQuality; fill-rule:evenodd; clip-rule:evenodd"
viewBox="0 0 21000 29700"
 xmlns:xlink="http://www.w3.org/1999/xlink">
 <defs>
  <style type="text/css">
   <![CDATA[
    .str0 {stroke:#2B2A29;stroke-width:200;stroke-miterlimit:22.9256}
    .fil1 {fill:none}
    .fil0 {fill:#1F1B20}
   ]]>
  </style>
 </defs>
 <g id="Слой_x0020_1">
  <metadata id="CorelCorpID_0Corel-Layer"/>
  <g id="_2717639506928">
   <path class="fil0" d="M6638.12 6813c121.01,-106.19 239.54,-234.61 348.2,-358.08 108.66,-123.48 207.45,-242.02 286.48,-350.67 79.02,-108.66 138.28,-207.45 167.92,-333.4 29.64,-125.94 29.64,-279.06 32.11,-424.76 2.47,-145.7 7.4,-284 -7.42,-407.47 -14.82,-123.48 -49.39,-232.14 -32.1,-333.39 17.29,-101.25 86.43,-195.1 165.46,-232.13 79.02,-37.05 167.93,-17.3 244.48,64.2 76.56,81.49 140.77,224.73 187.69,400.07 46.92,175.33 76.56,382.77 98.78,560.58 22.23,177.81 37.04,325.98 12.35,484.03 -24.7,158.05 -88.91,325.98 -182.75,528.49 -93.84,202.5 -217.32,439.57 -377.84,634.67 -160.52,195.09 -358.09,348.2 -521.07,481.56 -162.99,133.35 -291.41,246.95 -434.64,377.84 -143.23,130.88 -301.29,279.06 -409.94,405 -108.66,125.95 -167.94,229.67 -209.91,338.33 -41.99,108.66 -66.68,222.26 -66.68,370.43 0,148.18 24.69,330.92 69.15,471.68 44.44,140.76 108.66,239.55 202.5,318.58 93.84,79.02 217.31,138.29 308.69,162.99 91.37,24.69 150.64,14.81 283.99,-19.76 133.36,-34.58 340.8,-93.84 526.02,-135.83 185.21,-41.98 348.2,-66.67 572.94,-101.25 224.72,-34.57 511.18,-79.02 824.82,-123.47 313.63,-44.46 654.42,-88.9 968.06,-106.19 313.63,-17.29 600.09,-7.41 871.74,27.17 271.65,34.56 528.49,93.84 755.69,167.92 227.19,74.08 424.76,162.99 612.44,251.89 187.69,88.9 365.49,177.81 474.15,222.27 108.67,44.44 148.17,44.44 190.16,-19.76 41.98,-64.21 86.43,-192.63 91.37,-284 4.94,-91.38 -29.63,-145.7 -74.08,-195.1 -44.46,-49.39 -98.78,-93.84 -128.42,-170.39 -29.64,-76.56 -34.58,-185.22 -46.92,-291.41 -12.35,-106.19 -32.1,-209.91 -71.62,-291.41 -39.51,-81.5 -98.78,-140.76 -135.82,-202.49 -37.05,-61.75 -51.86,-125.96 -61.74,-219.8 -9.87,-93.84 -14.81,-217.31 -9.87,-321.03 4.93,-103.73 19.74,-187.69 39.5,-242.03 19.76,-54.33 44.46,-79.02 116.07,-79.02 71.62,0 190.16,24.69 343.27,81.49 153.11,56.8 340.79,145.71 459.33,182.75 118.55,37.04 167.93,22.23 239.54,-19.75 71.63,-41.99 165.47,-111.13 219.8,-170.4 54.33,-59.28 69.14,-108.66 106.19,-214.85 37.04,-106.2 96.31,-269.18 150.64,-446.99 54.33,-177.81 103.72,-370.43 143.23,-501.32 39.52,-130.88 69.15,-200.03 111.13,-200.03 41.99,0 96.31,69.15 143.24,187.69 46.92,118.53 86.43,286.46 130.88,439.58 44.46,153.11 93.84,291.4 138.3,370.43 44.45,79.02 83.96,98.77 146.62,133.97 62.67,35.19 148.5,85.81 230.66,126.36 82.16,40.54 160.66,70.99 230.43,116.07 69.77,45.07 130.79,104.74 176.74,159.9 45.95,55.15 76.81,105.77 111.85,141.15 35.04,35.37 74.24,55.49 110.66,86.36 36.43,30.87 70.08,72.49 116.9,145.06 46.81,72.57 106.8,176.08 119.76,276.71 12.96,100.64 -21.08,198.39 -40.28,269.5 -19.18,71.1 -23.52,115.55 -38.03,160 -14.51,44.45 -39.2,88.9 -68.84,135.82 -29.63,46.93 -64.2,96.31 -116.37,136.14 -52.16,39.81 -121.93,70.07 -171.32,102.18 -49.39,32.1 -78.41,66.06 -97.86,159.6 -19.45,93.53 -29.33,246.63 2.77,503.46 32.1,256.83 106.19,617.39 138.29,928.56 32.11,311.15 22.24,572.92 7.42,844.57 -14.82,271.65 -34.58,553.18 -135.83,990.29 -101.25,437.11 -283.99,1029.8 -400.07,1395.3 -116.07,365.49 -165.45,503.78 -204.97,669.24 -39.51,165.47 -69.14,358.08 -83.96,602.58 -14.82,244.48 -14.82,540.82 54.33,931 69.15,390.2 207.44,874.23 313.63,1234.78 106.19,360.56 180.28,597.63 306.23,743.33 125.94,145.71 303.74,200.03 419.81,283.99 116.08,83.97 170.4,197.58 175.34,281.54 4.94,83.97 -39.5,138.3 -138.29,187.69 -98.78,49.39 -251.9,93.84 -407.48,103.72 -155.58,9.88 -313.62,-14.82 -464.27,-83.97 -150.64,-69.14 -293.87,-182.74 -409.94,-330.92 -116.07,-148.17 -204.98,-330.91 -340.8,-706.29 -135.83,-375.37 -318.57,-943.36 -464.27,-1360.72 -145.71,-417.35 -254.36,-684.06 -400.07,-995.22 -145.7,-311.16 -328.44,-666.78 -456.87,-881.63 -128.41,-214.84 -202.49,-288.93 -283.99,-301.28 -81.5,-12.35 -170.41,37.04 -614.93,64.21 -444.51,27.16 -1244.64,32.1 -1874.37,-4.94 -629.73,-37.05 -1089.07,-116.08 -1318.73,-155.58 -229.67,-39.52 -229.67,-39.52 -283.99,51.86 -54.34,91.37 -163,274.11 -286.48,464.27 -123.48,190.16 -261.77,387.72 -395.13,597.63 -133.35,209.91 -261.77,432.17 -338.32,577.87 -76.56,145.7 -101.25,214.85 -96.31,298.82 4.94,83.96 39.51,182.75 98.78,360.55 59.27,177.81 143.24,434.64 209.92,587.75 66.67,153.11 116.06,202.5 177.8,207.44 61.73,4.94 135.82,-34.57 219.78,-32.1 83.97,2.47 177.81,46.92 239.56,96.31 61.73,49.39 91.36,103.72 91.36,172.86 0,69.15 -29.63,153.12 -66.67,204.98 -37.05,51.86 -81.5,71.62 -232.14,86.44 -150.64,14.82 -407.47,24.7 -540.83,29.63 -133.35,4.94 -143.23,4.94 -197.56,-69.15 -54.33,-74.08 -153.12,-222.25 -286.47,-491.43 -133.36,-269.18 -301.28,-659.38 -427.23,-928.56 -125.94,-269.18 -209.91,-417.34 -244.48,-543.29 -34.58,-125.95 -19.77,-229.67 -12.36,-281.54 7.41,-51.85 7.41,-51.85 -59.26,12.35 -66.68,64.21 -200.04,192.63 -340.8,333.39 -140.77,140.77 -288.93,293.88 -372.89,412.42 -83.97,118.54 -103.73,202.51 -96.32,380.31 7.41,177.81 41.97,449.46 79.02,654.42 37.04,204.98 76.56,343.28 113.6,417.36 37.05,74.09 71.62,83.97 118.54,88.91 46.92,4.94 106.19,4.94 165.46,12.35 59.27,7.4 118.53,22.21 153.11,88.89 34.57,66.68 44.45,185.22 27.16,269.19 -17.28,83.97 -61.73,133.35 -98.78,160.52 -37.04,27.16 -66.67,32.1 -202.49,34.57 -135.83,2.47 -377.85,2.47 -503.8,4.94 -125.94,2.47 -135.82,7.4 -162.99,-37.05 -27.16,-44.45 -71.61,-138.3 -113.6,-259.3 -41.98,-121.01 -81.49,-269.17 -135.81,-567.99 -54.34,-298.82 -123.49,-748.27 -165.46,-1103.89 -41.99,-355.61 -56.81,-617.39 -39.52,-768.03 17.29,-150.64 66.67,-190.15 121.01,-325.98 54.33,-135.82 113.6,-367.96 192.63,-654.42 79.02,-286.47 177.8,-627.27 242.01,-847.06 64.2,-219.79 93.84,-318.57 54.33,-622.32 -39.51,-303.76 -148.18,-812.49 -200.03,-1163.16 -51.87,-350.67 -46.93,-543.3 -4.94,-765.56 41.97,-222.25 121,-474.15 160.52,-674.18 39.51,-200.04 39.51,-348.21 14.81,-565.53 -24.7,-217.32 -74.08,-503.78 -133.35,-805.07 -59.27,-301.28 -128.42,-617.38 -148.17,-859.39 -19.76,-242.03 9.87,-409.96 71.61,-568.01 61.73,-158.05 155.58,-306.22 271.65,-429.69 116.07,-123.48 254.36,-222.27 424.76,-350.68 170.4,-128.42 372.9,-286.47 535.89,-407.48 162.99,-121 286.47,-204.97 407.48,-311.16z"/>
   <circle class="fil1 str0" cx="10180.74" cy="12549.74" r="9437.48"/>
  </g>
 </g>
</svg>
