<?xml version="1.0" encoding="UTF-8"?>
<!DOCTYPE svg PUBLIC "-//W3C//DTD SVG 1.1//EN" "http://www.w3.org/Graphics/SVG/1.1/DTD/svg11.dtd">
<!-- Creator: CorelDRAW 2018 (64-Bit) -->
<svg xmlns="http://www.w3.org/2000/svg" xml:space="preserve" width="210mm" height="297mm" version="1.1" style="shape-rendering:geometricPrecision; text-rendering:geometricPrecision; image-rendering:optimizeQuality; fill-rule:evenodd; clip-rule:evenodd"
viewBox="0 0 21000 29700"
 xmlns:xlink="http://www.w3.org/1999/xlink">
 <defs>
  <style type="text/css">
   <![CDATA[
    .fil8 {fill:none}
    .fil27 {fill:black}
    .fil6 {fill:#1A1A1D}
    .fil22 {fill:#322022}
    .fil18 {fill:#382828}
    .fil2 {fill:#3A383D}
    .fil1 {fill:#3C444F}
    .fil0 {fill:#465664}
    .fil7 {fill:#565363}
    .fil13 {fill:#5B5861}
    .fil12 {fill:#636373}
    .fil19 {fill:#67544E}
    .fil23 {fill:#686F62}
    .fil17 {fill:#73555A}
    .fil15 {fill:#786965}
    .fil20 {fill:#817575}
    .fil14 {fill:#83787E}
    .fil3 {fill:#8A869D}
    .fil11 {fill:#918EA3}
    .fil26 {fill:#A0B896}
    .fil4 {fill:#A29EB7}
    .fil21 {fill:#A9969A}
    .fil24 {fill:#B2C9AC}
    .fil9 {fill:#BAAAB4}
    .fil16 {fill:#C0ACBC}
    .fil5 {fill:#C0C2DB}
    .fil10 {fill:#E4DCE8}
    .fil25 {fill:#ECF7E7}
    .fil28 {fill:#FEFEFE}
   ]]>
  </style>
 </defs>
 <g id="Слой_x0020_1">
  <metadata id="CorelCorpID_0Corel-Layer"/>
  <g id="_2171685649328">
   <path class="fil0" d="M4945.55 14122.02c111.98,-374.39 229.58,-821.25 388.33,-1191.66 158.75,-370.42 358.66,-664.4 482.14,-881.94 123.47,-217.55 170.5,-358.66 223.42,-593.84 52.92,-235.19 111.71,-564.45 158.75,-817.27 47.04,-252.83 82.31,-429.22 146.99,-629.13 64.67,-199.91 158.75,-423.33 235.19,-799.63 76.43,-376.3 135.22,-905.46 170.5,-1170.04 35.28,-264.59 47.04,-264.59 770.24,-346.9 723.19,-82.32 2157.82,-246.95 2951.57,-417.46 793.75,-170.51 946.62,-346.89 1134.77,-511.52 188.15,-164.63 411.57,-317.5 599.72,-399.81 188.15,-82.32 341.02,-94.08 635,-176.39 293.98,-82.32 729.08,-235.19 1105.37,-358.66 376.3,-123.47 693.8,-217.55 1128.89,-341.02 435.09,-123.47 987.78,-276.35 1305.28,-358.66 317.5,-82.32 399.81,-94.07 346.89,29.4 -52.91,123.47 -241.06,382.18 -399.81,552.69 -158.75,170.5 -288.1,252.82 -435.09,358.65 -146.99,105.83 -311.62,235.19 -458.61,435.1 -146.99,199.9 -276.35,470.37 -393.94,664.4 -117.59,194.02 -223.43,311.61 -323.38,388.05 -99.95,76.43 -194.03,111.71 -235.19,194.03 -41.15,82.31 -29.39,211.66 -29.39,346.89 0,135.23 -11.76,276.35 -47.04,388.06 -35.28,111.71 -94.07,194.03 -152.87,246.95 -58.8,52.91 -117.59,76.43 -223.43,117.59 -105.83,41.16 -258.7,99.95 -635,229.31 -376.29,129.35 -976.02,329.25 -1534.59,582.08 -558.56,252.82 -1075.96,558.56 -1234.71,1246.48 -158.75,687.91 41.15,1758.01 411.57,2910.42 370.42,1152.4 911.34,2387.13 1017.17,3239.67 105.84,852.54 -223.43,1322.91 -388.06,1558.09 -164.63,235.18 -164.63,235.18 -438.94,207.59 -274.31,-27.59 -822.92,-82.77 -1377.04,-200.02 -554.13,-117.25 -1113.77,-296.57 -1500.04,-439.32 -386.28,-142.75 -599.21,-248.92 -859.77,-401.58 -260.57,-152.65 -568.77,-351.79 -863.84,-572.17 -295.07,-220.38 -577,-462 -819.38,-693.97 -242.39,-231.96 -445.24,-454.26 -636.37,-688.69 -191.14,-234.43 -370.58,-481 -460.29,-604.28 -89.72,-123.28 -89.72,-123.28 -36.53,-274.24 53.18,-150.96 159.54,-452.87 271.52,-827.25z"/>
   <path class="fil1" d="M7519.36 17793.99c-213.97,-132.35 -553.36,-357.94 -890.43,-616.86 -337.07,-258.91 -671.81,-551.15 -914.43,-781.59 -242.63,-230.44 -393.14,-399.1 -485.45,-504.75 -92.32,-105.64 -126.43,-148.27 -165.48,-198.1 -39.06,-49.83 -83.04,-106.84 -66.25,-146.08 16.78,-39.23 94.35,-60.67 153.71,-139.01 59.36,-78.34 100.51,-213.58 126.97,-381.15 26.46,-167.57 38.22,-367.47 52.92,-537.98 14.7,-170.51 32.34,-311.63 82.32,-367.48 49.97,-55.86 132.29,-26.46 205.79,-23.52 73.49,2.94 138.16,-20.58 217.54,-102.89 79.37,-82.32 173.45,-223.43 214.61,-235.19 41.15,-11.76 29.4,105.84 20.58,246.95 -8.82,141.11 -14.7,305.74 -35.28,485.07 -20.58,179.33 -55.86,373.35 -20.58,546.8 35.27,173.45 141.11,326.32 264.58,296.92 123.47,-29.4 264.59,-241.06 285.17,-432.15 20.58,-191.09 -79.38,-361.6 -94.08,-479.19 -14.7,-117.6 55.86,-182.27 99.96,-252.82 44.09,-70.56 61.73,-147 76.43,-246.95 14.7,-99.95 26.46,-223.43 44.1,-414.51 17.64,-191.09 41.15,-449.8 38.21,-632.06 -2.94,-182.27 -32.33,-288.11 -67.61,-414.52 -35.28,-126.41 -76.43,-273.4 -97.01,-399.81 -20.58,-126.41 -20.58,-232.25 -5.88,-349.84 14.7,-117.59 44.09,-246.95 76.43,-364.54 32.34,-117.59 67.61,-223.43 105.83,-167.57 38.22,55.86 79.38,273.4 126.42,467.43 47.04,194.03 99.95,364.54 161.69,529.17 61.73,164.63 132.29,323.38 191.09,429.22 58.79,105.83 105.82,158.74 152.86,167.56 47.04,8.82 94.08,-26.46 161.7,14.7 67.61,41.15 155.81,158.75 288.1,258.71 132.29,99.95 308.68,182.26 455.67,267.52 146.99,85.25 264.58,173.45 326.32,299.86 61.73,126.41 67.61,291.04 49.97,435.09 -17.64,144.05 -58.79,267.53 -67.61,338.09 -8.82,70.55 14.7,88.18 61.74,55.85 47.03,-32.34 117.59,-114.66 129.35,-97.02 11.75,17.64 -35.28,135.24 -67.62,244.01 -32.34,108.77 -49.98,208.73 -38.22,276.34 11.76,67.62 52.92,102.89 129.36,102.89 76.43,0 188.15,-35.27 323.38,-146.98 135.23,-111.72 293.98,-299.87 364.54,-461.56 70.55,-161.69 52.91,-296.92 -38.22,-435.09 -91.14,-138.17 -255.77,-279.28 -417.46,-414.51 -161.69,-135.23 -320.44,-264.59 -470.37,-385.12 -149.93,-120.53 -291.04,-232.25 -432.15,-346.9 -141.11,-114.65 -282.23,-232.25 -396.88,-396.88 -114.65,-164.63 -202.85,-376.29 -246.94,-535.04 -44.1,-158.75 -44.1,-264.59 -23.52,-376.3 20.58,-111.71 61.73,-229.31 88.19,-367.48 26.46,-138.17 38.22,-296.92 23.52,-429.21 -14.7,-132.29 -55.85,-238.13 -155.8,-396.88 -99.96,-158.75 -258.71,-370.41 -370.42,-555.62 -111.72,-185.21 -176.39,-343.96 -202.85,-493.89 -26.46,-149.93 -14.7,-291.04 -2.94,-408.63 11.76,-117.6 23.51,-211.67 226.36,-120.54 202.85,91.13 596.78,367.48 923.1,540.93 326.32,173.45 585.03,244 740.84,364.54 155.81,120.53 208.72,291.04 244,726.14 35.28,435.09 52.92,1134.76 185.21,1746.25 132.29,611.48 379.24,1134.76 564.45,1534.58 185.2,399.81 308.68,676.16 343.96,846.67 35.27,170.51 -17.64,235.18 -76.44,302.8 -58.8,67.62 -123.47,138.17 -179.33,220.48 -55.86,82.32 -102.89,176.4 -94.07,220.49 8.82,44.1 73.49,38.22 152.87,-26.46 79.37,-64.67 173.45,-188.15 226.37,-255.77 52.91,-67.61 64.67,-79.37 55.85,-8.82 -8.82,70.56 -38.22,223.44 -111.71,343.97 -73.5,120.53 -191.09,208.73 -255.76,282.22 -64.68,73.5 -76.44,132.29 -102.9,138.17 -26.46,5.88 -67.61,-41.15 -105.83,-26.46 -38.22,14.7 -73.5,91.14 -41.16,135.23 32.33,44.1 132.29,55.86 161.69,91.14 29.39,35.28 -11.76,94.07 -52.92,211.66 -41.16,117.6 -82.31,293.99 -123.47,467.44 -41.16,173.45 -82.31,343.96 -149.93,443.91 -67.62,99.96 -161.69,129.35 -229.31,182.27 -67.62,52.92 -108.77,129.35 -170.5,185.21 -61.74,55.86 -144.06,91.13 -229.31,173.44 -85.26,82.32 -173.45,211.68 -215.01,343.42 -41.57,131.74 -36.5,265.88 -33.96,332.94 2.53,67.07 2.53,67.07 -95.82,20.59 -98.36,-46.48 -295.07,-139.45 -437.69,-205.48 -142.63,-66.03 -231.18,-105.12 -445.15,-237.47z"/>
   <path class="fil1" d="M12265.91 7159.57c97.02,-108.78 208.74,-267.53 314.57,-361.6 105.83,-94.08 205.79,-123.47 288.1,-135.23 82.32,-11.76 146.99,-5.88 208.73,-58.79 61.74,-52.92 120.53,-164.64 179.33,-235.19 58.8,-70.56 117.59,-99.96 208.72,-120.54 91.14,-20.58 214.61,-32.33 349.84,-32.33 135.23,0 282.23,11.75 554.17,61.72 271.94,49.97 668.83,138.14 548.29,432.13 -120.53,293.98 -758.48,793.76 -1106.86,1084.82 -348.38,291.05 -407.17,373.36 -504.19,417.46 -97.01,44.1 -232.24,49.98 -396.87,17.64 -164.63,-32.34 -358.66,-102.89 -496.83,-188.14 -138.17,-85.26 -220.49,-185.22 -279.29,-296.93 -58.79,-111.71 -94.07,-235.19 -70.55,-326.32 23.52,-91.14 105.83,-149.93 202.84,-258.7z"/>
   <path class="fil2" d="M6724.33 16896.26c58.8,14.7 111.71,14.7 191.09,58.79 79.37,44.1 185.21,132.3 293.98,158.75 108.77,26.46 220.49,-8.81 311.62,-29.39 91.13,-20.58 161.69,-26.46 202.85,0 41.15,26.46 52.91,85.25 58.79,146.99 5.88,61.74 5.88,126.41 17.64,191.09 11.76,64.68 35.28,129.35 -9.58,191.27 -44.87,61.92 -158.11,121.07 -241.74,133.51 -83.64,12.44 -137.65,-21.84 -164.66,-38.98 -27.01,-17.14 -27.01,-17.14 65.18,35.09 92.18,52.23 276.55,156.69 466.67,244.22 190.12,87.54 385.98,158.14 483.92,193.44 97.93,35.31 97.93,35.31 118.15,-50.9 20.21,-86.2 60.64,-258.61 59.99,-399.74 -0.66,-141.13 -42.39,-250.98 -72.08,-332.37 -29.69,-81.38 -47.33,-134.29 -70.85,-216.61 -23.52,-82.31 -52.91,-194.03 -73.49,-314.56 -20.58,-120.53 -32.34,-249.88 -29.4,-349.84 2.94,-99.95 20.57,-170.5 49.97,-223.42 29.4,-52.92 70.56,-88.19 105.84,-152.87 35.28,-64.68 64.67,-158.75 76.43,-226.37 11.76,-67.62 5.88,-108.77 -26.46,-129.35 -32.34,-20.58 -91.13,-20.58 -88.19,-47.04 2.94,-26.46 67.61,-79.37 114.65,-179.33 47.04,-99.95 76.44,-246.94 98.76,-356.84 22.31,-109.9 37.54,-182.71 8.14,-206.23 -29.4,-23.52 -103.42,2.26 -123.79,-80.42 -20.37,-82.68 12.92,-273.8 7.04,-338.48 -5.88,-64.68 -50.93,-2.9 -82.27,-4.35 -31.35,-1.46 -48.99,-66.13 -125.42,-83.77 -76.44,-17.64 -211.67,11.76 -175.15,-25.15 36.51,-36.91 244.78,-140.12 403.53,-187.16 158.75,-47.04 267.98,-37.9 352,-74.48 84.02,-36.59 142.81,-118.91 193.6,-209.08 50.79,-90.18 93.56,-188.21 15.53,-216.79 -78.04,-28.59 -276.89,12.27 -433.51,26.01 -156.62,13.74 -271.01,0.36 -303.61,-64.16 -32.6,-64.53 16.58,-180.2 64.61,-209.12 48.03,-28.92 94.9,28.9 161.44,51.46 66.54,22.55 152.75,9.84 185.25,-39.59 32.49,-49.43 11.26,-135.59 -104.12,-189.17 -115.39,-53.59 -324.93,-74.61 -450.43,-96.38 -125.5,-21.77 -166.96,-44.29 -249.19,-100.3 -82.24,-56.01 -205.27,-145.52 -290.61,-212 -85.34,-66.48 -133,-109.93 -167.62,-73.83 -34.62,36.1 -56.21,151.76 -87.58,265.45 -31.37,113.68 -72.52,225.4 -107.8,316.54 -35.28,91.13 -64.68,161.68 -102.9,170.5 -38.22,8.82 -85.25,-44.09 -108.77,-126.4 -23.52,-82.32 -23.52,-194.04 -11.76,-296.93 11.76,-102.89 35.28,-196.97 35.32,-329.22 0.03,-132.26 -23.41,-302.69 -99.83,-307.6 -76.43,-4.92 -205.84,155.69 -232.33,299.71 -26.5,144.01 49.92,271.43 76.37,376.3 26.44,104.86 2.93,187.18 -17.65,278.31 -20.58,91.13 -38.22,191.09 -52.92,296.92 -14.7,105.83 -26.46,217.55 -75.99,359.81 -49.54,142.25 -136.84,315.05 -176.02,441.94 -39.19,126.89 -30.26,207.86 -40.69,290.63 -10.44,82.77 -40.26,167.33 -36.35,287.38 3.91,120.06 41.53,275.62 77.99,371.03 36.45,95.42 71.73,130.69 148.17,180.67 76.43,49.98 194.03,114.65 267.53,167.57 73.49,52.92 102.88,94.07 47.03,126.41 -55.86,32.34 -196.97,55.86 -335.14,44.1 -138.17,-11.76 -273.41,-58.79 -370.42,-58.79 -97.02,0 -155.81,47.03 -179.33,23.51 -23.52,-23.51 -11.76,-117.59 -23.52,-205.79 -11.76,-88.19 -47.03,-170.5 -88.19,-270.46 -41.16,-99.95 -88.19,-217.55 -146.99,-288.11 -58.8,-70.55 -129.35,-94.06 -182.27,-135.22 -52.92,-41.16 -88.2,-99.95 -105.84,-144.05 -17.64,-44.1 -17.64,-73.5 -20.58,-32.35 -2.94,41.16 -8.81,152.88 -69.87,206.91 -61.06,54.03 -177.29,50.39 -203.75,120.94 -26.46,70.56 36.86,215.32 71.46,317.1 34.6,101.78 40.47,160.57 26.84,220.58 -13.63,60.01 -46.76,121.22 -63.33,151.83 -16.57,30.61 -16.57,30.61 45.32,93.42 61.89,62.82 185.68,188.46 348.78,340.68 163.09,152.22 365.49,331.04 517.9,461.3 152.4,130.27 254.81,211.98 293.49,220.24 38.68,8.26 13.65,-56.95 -25.33,-142.47 -38.98,-85.51 -91.89,-191.35 -94.83,-217.81 -2.94,-26.45 44.09,26.46 99.95,67.62 55.86,41.16 120.53,70.55 179.33,85.25z"/>
   <path class="fil2" d="M8867.47 17035.4c67.62,59.76 173.48,102.85 208.76,58.75 35.27,-44.09 -0.03,-175.38 -2.98,-320.4 -2.95,-145.01 26.45,-303.76 47.03,-433.11 20.58,-129.35 32.34,-229.31 67.62,-346.9 35.28,-117.59 94.07,-252.83 146.99,-346.91 52.92,-94.07 99.95,-146.98 163.66,-214.12 63.71,-67.14 144.08,-148.51 170.54,-242.58 26.46,-94.07 -1,-200.86 -29.43,-216.04 -28.43,-15.17 -57.83,61.27 -113.68,158.28 -55.86,97.01 -138.18,214.61 -214.61,332.2 -76.44,117.59 -146.99,235.19 -202.85,346.9 -55.86,111.71 -97.01,217.55 -138.17,349.84 -41.16,132.29 -82.31,291.04 -120.53,405.69 -38.22,114.66 -73.5,185.21 -76.44,258.7 -2.94,73.5 26.46,149.94 94.09,209.7z"/>
   <path class="fil2" d="M8751.33 16029.01c42.63,-14.7 122,-73.49 164.63,-135.23 42.63,-61.74 48.51,-126.41 39.69,-188.15 -8.82,-61.74 -32.34,-120.53 -32.34,-171.98 0,-51.45 23.52,-95.54 70.56,-124.94 47.03,-29.4 117.59,-44.1 157.28,-89.67 39.68,-45.56 48.5,-122 24.98,-146.99 -23.52,-24.98 -79.37,1.47 -142.58,27.93 -63.21,26.46 -133.76,52.92 -177.86,91.14 -44.1,38.22 -61.73,88.19 -66.14,157.27 -4.41,69.09 4.41,157.29 10.29,214.61 5.88,57.33 8.82,83.79 0,120.54 -8.82,36.75 -29.4,83.78 -48.51,119.06 -19.11,35.28 -36.75,58.79 -42.63,85.25 -5.88,26.46 0,55.86 42.63,41.16z"/>
   <path class="fil2" d="M9345.17 14989.79c19.11,-57.33 33.81,-113.18 67.62,-186.68 33.81,-73.5 86.72,-164.63 85.25,-176.39 -1.47,-11.76 -57.32,55.85 -98.48,105.83 -41.16,49.98 -67.62,82.32 -83.79,139.64 -16.17,57.33 -22.04,139.65 -26.45,192.56 -4.41,52.92 -7.35,76.44 2.94,58.8 10.29,-17.64 33.8,-76.43 52.91,-133.76z"/>
   <path class="fil3" d="M9634.74 16969.78c47.04,-97.01 105.83,-232.25 146.99,-361.6 41.16,-129.35 64.68,-252.82 82.32,-361.6 17.64,-108.77 29.4,-202.84 55.86,-276.34 26.46,-73.5 67.61,-126.41 114.65,-185.21 47.04,-58.79 99.95,-123.47 138.17,-194.03 38.22,-70.55 61.73,-146.98 82.31,-229.3 20.58,-82.31 38.22,-170.51 58.8,-244.01 20.58,-73.49 44.1,-132.28 64.68,-176.38 20.58,-44.1 38.21,-73.5 85.25,-73.5 47.04,0 123.47,29.4 302.87,85 179.41,55.61 461.77,137.42 488.23,410.82 26.46,273.41 -202.99,738.4 -353,1120.83 -150,382.43 -220.55,682.29 -311.69,973.33 -91.13,291.04 -202.85,573.27 -290.81,783.6 -87.96,210.34 -152.17,348.79 -184.27,418.01 -32.11,69.23 -32.11,69.23 -113.81,52.35 -81.71,-16.88 -245.13,-50.65 -425.24,-95 -180.11,-44.35 -376.91,-99.3 -563.91,-159.36 -187.01,-60.06 -364.21,-125.23 -452.81,-157.82 -88.6,-32.59 -88.6,-32.59 -70.68,-122.02 17.91,-89.43 53.75,-268.29 113.5,-357.59 59.75,-89.3 143.41,-89.03 223.47,-115.36 80.05,-26.33 156.48,-79.24 253.5,-138.04 97.01,-58.79 214.61,-123.47 291.05,-188.15 76.43,-64.67 111.7,-129.34 146.98,-191.08 35.28,-61.74 70.55,-120.53 117.59,-217.55z"/>
   <path class="fil4" d="M9049.72 17935.5c23.52,-39.69 55.85,-77.9 116.12,-95.54 60.27,-17.64 148.46,-14.7 229.31,-13.23 80.84,1.47 154.34,1.47 191.09,-13.23 36.74,-14.7 36.74,-44.1 64.67,-61.74 27.93,-17.64 83.78,-23.52 119.06,-77.91 35.28,-54.38 49.98,-157.28 63.21,-248.41 13.23,-91.13 24.99,-170.51 48.51,-236.66 23.52,-66.14 58.79,-119.05 101.42,-145.51 42.63,-26.46 92.6,-26.46 74.66,-63.52 -17.94,-37.06 -103.79,-111.19 -106.73,-200.86 -2.94,-89.66 77.03,-194.86 153.77,-290.1 76.74,-95.23 150.23,-180.48 156.11,-223.11 5.88,-42.63 -55.85,-42.63 -99.95,-48.51 -44.1,-5.88 -70.55,-17.63 -73.49,-77.9 -2.94,-60.27 17.63,-169.04 63.2,-277.82 45.57,-108.77 116.12,-217.55 163.16,-292.52 47.04,-74.96 70.56,-116.11 102.9,-164.62 32.34,-48.51 73.49,-104.36 108.23,-188.76 34.75,-84.4 63.07,-197.33 99.82,-270.83 36.75,-73.49 81.92,-107.55 401.42,-59.9 319.51,47.65 913.36,177 1455.75,-14.09 542.4,-191.09 1033.35,-702.61 1314.1,-952.49 280.76,-249.89 351.31,-238.14 398.35,-210.21 47.04,27.93 70.55,72.03 113.18,183.75 42.63,111.71 104.36,291.03 163.16,454.19 58.8,163.16 114.65,310.16 189.61,464.5 74.97,154.34 169.05,316.03 257.24,513 88.2,196.97 170.51,429.21 238.13,686.44 67.62,257.24 120.53,539.47 160.22,759.95 39.69,220.49 66.15,379.24 94.77,542.16 28.62,162.93 59.4,330.02 74.79,413.57 15.39,83.55 15.39,83.55 -25.12,105.39 -40.5,21.84 -121.52,65.51 -224.93,117.87 -103.41,52.37 -229.22,113.43 -364.29,174.23 -135.07,60.8 -279.41,121.34 -461.71,188.77 -182.3,67.43 -402.56,141.73 -566.43,193.28 -163.87,51.56 -271.34,80.37 -403.61,111.65 -132.27,31.28 -289.33,65.03 -452.29,94.73 -162.95,29.7 -331.8,55.33 -495.29,75.31 -163.48,19.99 -321.62,34.32 -497.5,44.04 -175.88,9.73 -369.5,14.85 -554.18,13.88 -184.68,-0.97 -360.42,-8.03 -537.94,-21 -177.51,-12.97 -356.81,-31.86 -507.26,-51.51 -150.46,-19.65 -272.06,-40.06 -422.69,-69.72 -150.64,-29.66 -330.3,-68.57 -484.75,-107.67 -154.45,-39.1 -283.7,-78.39 -347.9,-97.91 -64.2,-19.52 -63.37,-19.26 -58.69,-45.11 4.68,-25.84 13.19,-77.78 7.16,-125.81 -6.03,-48.02 -26.61,-92.11 -47.19,-124.45 -20.58,-32.34 -41.16,-52.92 -48.51,-74.97 -7.35,-22.05 -1.47,-45.57 8.82,-77.91 10.29,-32.34 24.99,-73.49 48.51,-113.18z"/>
   <path class="fil3" d="M11560.3 17634.18c20.58,67.62 64.67,170.52 113.18,226.37 48.51,55.86 101.43,64.68 127.89,83.79 26.46,19.11 26.46,48.5 39.69,11.75 13.23,-36.74 39.68,-139.64 52.91,-248.41 13.23,-108.77 13.23,-223.43 -19.11,-302.81 -32.34,-79.37 -97.01,-123.46 -144.05,-110.23 -47.04,13.23 -76.43,83.78 -104.36,127.88 -27.93,44.1 -54.39,61.73 -69.09,86.72 -14.7,24.99 -17.64,57.33 2.94,124.94z"/>
   <path class="fil5" d="M10849.85 15007.41c-11.42,24.18 -59.13,64.29 -87.4,99.04 -28.26,34.76 -37.07,64.16 -40.01,96.5 -2.94,32.34 -0.01,67.61 16.16,80.84 16.17,13.23 45.57,4.41 55.86,26.46 10.29,22.05 1.47,74.96 -22.05,123.47 -23.52,48.51 -61.73,92.6 -74.96,124.94 -13.23,32.34 -1.47,52.92 14.7,35.28 16.17,-17.64 36.74,-73.49 60.26,-111.71 23.52,-38.22 49.98,-58.8 73.5,-89.67 23.52,-30.87 44.09,-72.02 79.37,-99.95 35.28,-27.93 85.25,-42.63 102.89,-27.93 17.64,14.7 2.95,58.8 2.95,104.37 0,45.57 14.69,92.6 45.56,110.24 30.87,17.64 77.91,5.88 110.3,-18.3 32.4,-24.17 50.14,-60.77 106,-56.36 55.86,4.41 149.82,49.83 182.1,100.46 32.29,50.64 2.89,106.49 8.77,155 5.88,48.51 47.03,89.66 93.82,111.29 46.8,21.63 99.24,23.74 150.68,34.03 51.45,10.29 101.91,28.76 113.91,-17.86 12,-46.61 -14.45,-158.33 14.94,-202.43 29.4,-44.09 114.66,-20.58 130.82,16.17 16.17,36.75 -36.74,86.72 -42.62,126.41 -5.88,39.69 35.28,69.09 74.97,70.56 39.69,1.47 77.9,-24.99 88.19,-49.98 10.29,-24.99 -7.35,-48.5 10.29,-57.32 17.64,-8.82 70.55,-2.94 113.18,1.47 42.63,4.41 74.97,7.35 73.5,23.52 -1.47,16.17 -36.75,45.56 -41.16,69.08 -4.41,23.52 22.05,41.16 69.09,72.03 47.04,30.87 114.65,74.96 152.87,114.65 38.22,39.69 47.04,74.96 63.21,122 16.17,47.04 39.68,105.83 52.91,151.4 13.23,45.57 16.17,77.91 32.34,91.14 16.17,13.23 45.56,7.35 66.14,19.11 20.58,11.76 32.34,41.15 36.75,91.13 4.41,49.98 1.47,120.53 -10.29,183.74 -11.76,63.21 -32.33,119.06 -39.68,204.31 -7.35,85.26 -1.47,199.92 14.7,279.29 16.17,79.38 42.62,123.47 69.08,92.6 26.46,-30.86 52.92,-136.7 72.03,-160.22 19.11,-23.51 30.86,35.28 47.03,86.73 16.17,51.45 36.75,95.54 55.86,86.72 19.11,-8.82 36.75,-70.55 42.63,-124.94 5.88,-54.39 0,-101.42 -24.99,-151.4 -24.99,-49.98 -69.08,-102.89 -107.3,-199.91 -38.22,-97.01 -70.56,-238.12 -91.14,-371.88 -20.58,-133.76 -29.4,-260.18 -38.22,-358.67 -8.82,-98.48 -17.63,-169.03 -47.03,-205.78 -29.4,-36.75 -79.38,-39.69 -85.26,-44.1 -5.88,-4.41 32.34,-10.29 57.33,-27.93 24.99,-17.64 36.75,-47.03 51.45,-83.78 14.7,-36.75 32.33,-80.84 48.5,-111.71 16.17,-30.87 30.87,-48.51 88.19,-38.22 57.33,10.29 157.29,48.5 235.19,111.71 77.91,63.21 133.76,151.4 198.44,251.35 64.68,99.96 138.17,211.68 210.2,311.63 72.03,99.95 142.58,188.15 191.09,263.11 48.51,74.97 74.96,136.7 82.31,202.85 7.35,66.15 -4.41,136.7 1.47,205.79 5.88,69.09 29.4,136.7 69.09,195.5 39.69,58.8 95.54,108.77 138.17,149.93 42.63,41.16 72.02,73.49 86.72,114.65 14.7,41.16 14.7,91.13 8.82,148.46 -5.88,57.33 -17.63,122 -20.57,189.62 -2.94,67.62 2.93,138.17 16.16,202.85 13.23,64.68 33.81,123.47 55.86,166.1 22.05,42.63 45.57,69.08 51.45,111.71 5.88,42.63 -5.88,101.42 -15.09,151.63 -9.21,50.22 -15.87,91.86 -19.2,112.67 -3.33,20.82 -3.33,20.82 68.03,-4.08 71.37,-24.89 214.1,-74.68 338.07,-122.79 123.97,-48.1 229.18,-94.53 312.3,-131.92 83.13,-37.38 144.18,-65.74 174.7,-79.92 30.52,-14.17 30.52,-14.17 24.88,-55.02 -5.64,-40.85 -16.92,-122.54 -19.62,-220.72 -2.7,-98.17 3.17,-212.83 26.69,-306.9 23.52,-94.07 64.68,-167.57 49.98,-354.25 -14.7,-186.67 -85.25,-486.54 -149.93,-726.14 -64.68,-239.59 -123.47,-418.92 -199.91,-592.37 -76.43,-173.45 -170.51,-341.02 -223.43,-474.78 -52.91,-133.76 -64.67,-233.72 -83.78,-298.4 -19.11,-64.67 -45.57,-94.07 -72.03,-113.18 -26.46,-19.11 -52.91,-27.92 -58.79,-42.62 -5.88,-14.7 8.82,-35.28 13.23,-69.09 4.41,-33.81 -1.47,-80.84 -23.52,-127.88 -22.05,-47.04 -60.27,-94.07 -97.02,-129.35 -36.75,-35.28 -72.02,-58.8 -99.95,-67.62 -27.93,-8.82 -48.51,-2.94 -94.08,49.98 -45.56,52.91 -116.12,152.87 -161.69,216.08 -45.56,63.2 -66.14,89.66 -76.43,122 -10.29,32.34 -10.29,70.55 -2.94,97.01 7.35,26.46 22.05,41.16 48.51,42.63 26.46,1.47 64.67,-10.29 85.25,-39.69 20.58,-29.4 23.52,-76.43 52.92,-116.12 29.4,-39.69 85.25,-72.03 116.12,-66.15 30.87,5.88 36.75,49.98 30.87,64.68 -5.88,14.7 -23.52,0 -42.63,7.35 -19.11,7.35 -39.68,36.74 -63.2,73.49 -23.52,36.75 -49.98,80.85 -76.44,107.31 -26.46,26.46 -52.91,35.27 -69.08,47.03 -16.17,11.76 -22.05,26.46 -19.11,73.5 2.94,47.04 14.7,126.41 14.7,182.27 0,55.86 -11.76,88.19 -35.28,111.71 -23.52,23.52 -58.8,38.22 -82.32,29.4 -23.52,-8.82 -35.27,-41.16 -32.33,-60.27 2.94,-19.11 20.57,-24.98 36.74,-38.21 16.17,-13.23 30.87,-33.81 41.16,-74.97 10.29,-41.16 16.17,-102.89 11.76,-144.05 -4.41,-41.16 -19.11,-61.74 -38.22,-80.85 -19.11,-19.11 -42.62,-36.74 -74.96,-42.62 -32.34,-5.88 -73.5,0 -139.65,29.4 -66.14,29.4 -157.28,82.31 -257.23,114.65 -99.95,32.34 -208.73,44.09 -432.16,38.21 -223.42,-5.88 -561.5,-29.39 -875.74,-54.54 -314.24,-25.14 -604.63,-51.91 -794.59,-84.91 -189.96,-32.99 -279.47,-72.21 -311.8,-87.7 -32.32,-15.49 -7.46,-7.25 -18.88,16.92z"/>
   <path class="fil2" d="M7932.54 11860.36c23.52,158.75 94.07,311.62 138.17,396.88 44.1,85.25 61.74,102.89 88.2,85.25 26.46,-17.64 61.73,-70.55 88.19,-70.55 26.46,0 44.1,52.91 88.2,126.41 44.09,73.49 114.65,167.57 229.3,276.34 114.65,108.77 273.4,232.25 438.03,414.52 164.63,182.26 335.14,423.33 443.92,608.54 108.77,185.2 155.8,314.56 220.48,432.15 64.68,117.59 146.99,223.43 255.77,320.44 108.77,97.01 244,185.21 370.41,261.65 126.41,76.43 244.01,141.1 352.78,229.29 108.77,88.2 208.73,199.92 308.68,291.05 99.96,91.14 199.91,161.69 338.08,229.31 138.18,67.62 314.56,132.29 458.61,170.51 144.05,38.22 255.77,49.97 393.94,44.09 138.17,-5.88 302.8,-29.39 411.57,-82.31 108.78,-52.92 161.69,-135.23 205.79,-185.21 44.1,-49.98 79.38,-67.61 120.54,-64.67 41.16,2.94 88.19,26.45 146.98,55.85 58.8,29.4 129.36,64.68 205.79,41.16 76.44,-23.52 158.75,-105.83 252.82,-196.97 94.08,-91.13 199.92,-191.09 276.35,-273.41 76.44,-82.31 123.47,-146.98 176.39,-202.84 52.92,-55.86 111.71,-102.89 146.99,-146.99 35.28,-44.1 47.04,-85.25 47.04,-170.5 0,-85.26 -11.76,-214.62 -26.46,-358.67 -14.7,-144.05 -32.34,-302.8 -41.16,-382.17 -8.82,-79.38 -8.82,-79.38 23.52,-176.39 32.34,-97.02 97.01,-291.04 161.69,-476.25 64.68,-185.21 129.35,-361.6 191.09,-523.29 61.74,-161.69 120.53,-308.68 152.87,-449.79 32.34,-141.11 38.22,-276.35 41.16,-411.58 2.94,-135.23 2.94,-270.46 5.88,-399.81 2.94,-129.35 8.82,-252.83 26.46,-332.2 17.64,-79.38 47.03,-114.65 61.73,-146.99 14.7,-32.34 14.7,-61.74 -5.88,-105.84 -20.58,-44.1 -61.73,-102.89 -99.95,-164.63 -38.22,-61.74 -73.49,-126.41 -114.65,-164.63 -41.16,-38.22 -88.2,-49.97 -170.52,-111.7 -82.31,-61.74 -199.9,-173.46 -376.29,-373.36 -176.39,-199.91 -411.57,-488.02 -590.9,-667.35 -179.33,-179.33 -302.81,-249.88 -714.39,-308.68 -411.57,-58.8 -1111.24,-105.83 -1802.1,-182.26 -690.86,-76.44 -1372.89,-182.28 -1855.02,-417.46 -482.13,-235.19 -764.36,-599.72 -1037.76,-890.76 -273.4,-291.05 -537.99,-508.59 -670.28,-617.36 -132.29,-108.78 -132.29,-108.78 -199.9,8.82 -67.62,117.59 -202.86,352.77 -291.05,564.44 -88.2,211.67 -129.35,399.81 -155.81,546.8 -26.46,146.99 -38.22,252.83 -17.64,352.78 20.58,99.95 73.49,194.03 111.71,302.8 38.22,108.77 61.74,232.25 108.78,341.02 47.04,108.77 117.59,202.85 191.09,302.8 73.49,99.95 149.93,205.79 238.12,317.5 88.19,111.71 188.15,229.31 261.65,364.54 73.49,135.23 120.52,288.1 164.62,426.27 44.1,138.17 85.26,261.65 135.24,373.36 49.98,111.71 108.77,211.67 135.23,279.29 26.46,67.61 20.58,102.89 11.76,164.63 -8.82,61.73 -20.58,149.93 -38.22,276.34 -17.64,126.41 -41.16,291.04 -17.64,449.79z"/>
   <path class="fil6" d="M8982.01 10752.07c-8.82,97.01 2.94,226.37 0,335.14 -2.94,108.77 -20.58,196.97 -47.04,267.53 -26.46,70.55 -61.73,123.46 -94.07,164.62 -32.34,41.16 -61.73,70.55 -79.37,35.28 -17.64,-35.28 -23.52,-135.24 -32.34,-226.37 -8.82,-91.13 -20.58,-173.45 -35.28,-144.05 -14.7,29.4 -32.34,170.51 -38.22,249.89 -5.88,79.37 0,97.01 -5.88,129.35 -5.88,32.34 -23.51,79.37 -23.51,120.53 0,41.16 17.63,76.43 47.03,97.01 29.4,20.58 70.55,26.46 120.53,97.02 49.98,70.55 108.77,205.79 164.63,299.87 55.86,94.07 108.77,146.98 158.75,220.48 49.98,73.49 97.02,167.57 149.94,264.58 52.91,97.01 111.71,196.97 196.96,276.35 85.25,79.37 196.97,138.16 273.41,185.2 76.43,47.04 117.59,82.31 161.69,158.75 44.1,76.43 91.13,194.03 117.59,291.05 26.46,97.01 32.34,173.44 73.5,276.34 41.15,102.89 117.59,232.24 155.81,302.8 38.21,70.55 38.21,82.31 20.57,-8.82 -17.64,-91.14 -52.91,-285.16 -91.13,-449.79 -38.22,-164.63 -79.37,-299.87 -135.23,-399.82 -55.86,-99.95 -126.41,-164.63 -196.97,-211.66 -70.56,-47.04 -141.11,-76.44 -220.48,-138.17 -79.38,-61.74 -167.58,-155.82 -244.01,-249.89 -76.44,-94.07 -141.11,-188.15 -173.45,-299.86 -32.34,-111.71 -32.34,-241.07 -32.34,-279.28 0,-38.22 0,14.69 5.88,-44.1 5.88,-58.8 17.64,-229.31 17.64,-373.36 0,-144.05 -11.76,-261.65 -23.52,-432.16 -11.76,-170.51 -23.52,-393.93 -44.1,-526.22 -20.58,-132.3 -49.97,-173.45 -79.37,-161.69 -29.4,11.76 -58.8,76.43 -67.62,173.45z"/>
   <path class="fil6" d="M7638.53 9396.86c39.69,22.05 83.78,57.32 126.41,80.84 42.63,23.52 83.78,35.28 120.53,70.56 36.75,35.28 69.09,94.07 94.08,133.76 24.99,39.69 42.62,60.26 69.08,66.14 26.46,5.88 61.74,-2.93 82.32,-10.28 20.58,-7.35 26.46,-13.23 22.05,10.29 -4.41,23.52 -19.11,76.43 -47.04,116.12 -27.93,39.69 -69.08,66.14 -91.13,101.42 -22.05,35.28 -24.99,79.37 -41.16,113.18 -16.17,33.81 -45.57,57.33 -77.91,13.24 -32.34,-44.1 -67.61,-155.82 -110.24,-223.43 -42.63,-67.62 -92.6,-91.14 -152.87,-148.46 -60.27,-57.33 -130.82,-148.47 -185.21,-219.02 -54.39,-70.56 -92.6,-120.53 -113.18,-155.81 -20.58,-35.28 -23.52,-55.86 11.76,-51.45 35.27,4.41 108.77,33.81 163.16,52.92 54.38,19.11 89.66,27.93 129.35,49.98z"/>
   <path class="fil6" d="M9430.38 13068.69c105.83,92.6 208.73,174.91 273.41,236.65 64.67,61.74 91.13,102.89 107.3,160.22 16.17,57.33 22.05,130.82 30.87,191.09 8.82,60.27 20.58,107.3 33.81,160.22 13.23,52.92 27.92,111.71 79.37,186.68 51.45,74.96 139.64,166.1 219.02,255.77 79.37,89.66 149.93,177.85 199.91,235.18 49.97,57.33 79.37,83.78 94.07,97.01 14.7,13.23 14.7,13.23 -30.87,-13.23 -45.57,-26.46 -136.7,-79.37 -216.07,-123.47 -79.38,-44.1 -147,-79.37 -217.55,-133.76 -70.56,-54.39 -144.05,-127.88 -192.56,-186.68 -48.51,-58.8 -72.03,-102.89 -88.2,-138.17 -16.17,-35.28 -24.98,-61.74 -17.63,-83.79 7.35,-22.05 30.86,-39.68 49.97,-54.38 19.11,-14.7 33.81,-26.46 38.22,-51.45 4.41,-24.99 -1.47,-63.2 -13.23,-83.78 -11.76,-20.58 -29.4,-23.52 -49.98,-49.98 -20.58,-26.46 -44.09,-76.43 -72.02,-129.35 -27.93,-52.92 -60.27,-108.77 -85.26,-149.93 -24.99,-41.16 -42.62,-67.62 -74.96,-86.73 -32.34,-19.11 -79.37,-30.87 -111.71,-36.75 -32.34,-5.88 -49.98,-5.88 -67.62,-22.05 -17.64,-16.17 -35.28,-48.5 -55.86,-77.9 -20.58,-29.4 -44.09,-55.86 -58.79,-97.02 -14.7,-41.16 -20.58,-97.01 -44.1,-155.81 -23.52,-58.8 -64.68,-120.53 -99.96,-167.57 -35.28,-47.04 -64.67,-79.37 -55.85,-73.49 8.82,5.88 55.85,49.97 133.76,123.47 77.9,73.49 186.68,176.39 292.51,269z"/>
   <path class="fil6" d="M9444.43 12371.91c-16.17,-73.5 -40.11,-168.27 -55.02,-262.69 -14.91,-94.43 -20.79,-188.51 -26.67,-263.47 -5.88,-74.97 -11.76,-130.82 -10.29,-170.51 1.47,-39.69 10.29,-63.21 22.05,-60.27 11.76,2.94 26.46,32.33 51.45,151.4 24.99,119.06 60.26,327.79 97.01,477.72 36.75,149.93 74.96,241.07 123.47,329.27 48.51,88.19 107.3,173.44 183.74,249.88 76.44,76.43 170.51,144.05 220.49,186.68 49.98,42.62 55.86,60.26 58.8,69.08 2.94,8.82 2.94,8.82 -1.47,-14.7 -4.41,-23.52 -13.23,-70.55 -39.69,-116.12 -26.46,-45.57 -70.55,-89.66 -122,-154.34 -51.45,-64.68 -110.24,-149.93 -155.81,-224.9 -45.57,-74.97 -77.91,-139.64 -108.78,-192.56 -30.87,-52.92 -60.26,-94.07 -86.72,-136.7 -26.46,-42.63 -49.98,-86.72 -67.62,-120.53 -17.64,-33.81 -29.4,-57.33 -39.69,-132.29 -10.29,-74.97 -19.1,-201.38 -14.69,-351.31 4.41,-149.93 22.04,-323.38 47.03,-401.28 24.99,-77.91 57.33,-60.28 85.26,-69.1 27.93,-8.82 51.44,-44.09 74.96,-85.25 23.52,-41.16 47.04,-88.19 63.21,-86.72 16.17,1.47 24.99,51.44 44.1,92.6 19.11,41.16 48.5,73.49 76.43,97.01 27.93,23.52 54.39,38.22 54.39,77.91 0,39.69 -26.46,104.36 -29.4,239.6 -2.94,135.23 17.64,341.01 61.74,507.11 44.09,166.1 111.71,292.52 167.57,393.95 55.85,101.42 99.95,177.85 166.1,264.58 66.14,86.72 154.34,183.74 219.01,258.71 64.68,74.96 105.83,127.87 138.17,148.45 32.34,20.58 55.86,8.82 77.91,26.46 22.05,17.64 42.63,64.67 86.72,92.6 44.1,27.93 111.72,36.75 164.63,73.5 52.92,36.75 91.14,101.42 145.52,117.59 54.39,16.17 124.95,-16.16 177.86,-44.09 52.92,-27.93 88.2,-51.45 127.89,-69.09 39.69,-17.64 83.78,-29.4 117.59,-16.17 33.81,13.23 57.33,51.45 86.73,70.56 29.4,19.11 64.67,19.11 108.77,13.23 44.1,-5.88 97.01,-17.64 132.29,-17.64 35.28,0 52.92,11.76 55.86,39.69 2.94,27.93 -8.82,72.02 -44.1,111.71 -35.28,39.69 -94.07,74.96 -139.64,124.94 -45.57,49.98 -77.91,114.65 -73.5,157.28 4.41,42.63 45.57,63.21 99.95,67.62 54.39,4.41 122.01,-7.35 171.98,-23.52 49.98,-16.17 82.32,-36.75 107.31,-30.87 24.99,5.88 42.63,38.22 42.63,30.87 0,-7.35 -17.64,-54.39 -35.28,-99.96 -17.64,-45.57 -35.28,-89.66 -36.75,-132.29 -1.47,-42.63 13.23,-83.78 32.34,-101.42 19.11,-17.64 42.63,-11.76 63.21,-10.29 20.58,1.47 38.21,-1.47 55.85,-19.11 17.64,-17.64 35.28,-49.98 66.15,-61.74 30.87,-11.76 74.96,-2.94 99.95,-39.68 24.99,-36.75 30.87,-119.07 29.4,-210.2 -1.47,-91.13 -10.29,-191.09 -33.81,-260.17 -23.52,-69.09 -61.73,-107.31 -57.32,-133.77 4.41,-26.46 51.44,-41.15 76.43,-57.32 24.99,-16.17 27.93,-33.81 52.92,-36.75 24.99,-2.94 72.02,8.82 77.9,-4.41 5.88,-13.23 -29.39,-51.45 -54.38,-80.85 -24.99,-29.4 -39.69,-49.97 -19.11,-67.61 20.58,-17.64 76.43,-32.34 130.82,-38.22 54.39,-5.88 107.3,-2.94 141.11,-35.28 33.81,-32.34 48.51,-99.95 54.39,-195.49 5.88,-95.55 2.94,-219.03 1.47,-292.52 -1.47,-73.5 -1.47,-97.01 -8.82,-127.88 -7.35,-30.87 -22.05,-69.09 -54.39,-101.43 -32.34,-32.34 -82.31,-58.79 -123.47,-86.72 -41.16,-27.93 -73.49,-57.33 -98.48,-82.32 -24.99,-24.99 -42.63,-45.56 -74.97,-24.98 -32.34,20.58 -79.37,82.31 -85.25,170.51 -5.88,88.19 29.39,202.85 47.03,263.12 17.64,60.26 17.64,66.14 -5.88,48.5 -23.52,-17.64 -70.55,-58.8 -107.3,-54.39 -36.75,4.41 -63.21,54.38 -89.67,130.82 -26.46,76.44 -52.91,179.33 -45.56,267.53 7.35,88.19 48.5,161.69 69.08,198.44 20.58,36.74 20.58,36.74 -14.7,-24.99 -35.28,-61.74 -105.83,-185.22 -173.45,-264.59 -67.61,-79.38 -132.29,-114.65 -199.91,-148.46 -67.61,-33.81 -138.16,-66.14 -169.03,-157.27 -30.87,-91.14 -22.05,-241.08 -55.86,-382.19 -33.81,-141.11 -110.24,-273.4 -232.25,-373.35 -122,-99.96 -289.57,-167.57 -354.25,-233.72 -64.67,-66.15 -26.46,-130.82 33.81,-166.1 60.27,-35.28 142.58,-41.16 216.08,-45.57 73.5,-4.41 138.17,-7.35 227.83,13.23 89.67,20.58 204.33,64.67 296.93,110.24 92.6,45.57 163.16,92.61 219.01,148.47 55.86,55.85 97.02,120.53 132.3,171.98 35.28,51.44 64.67,89.66 95.54,92.6 30.87,2.94 63.21,-29.4 47.04,-107.3 -16.17,-77.91 -80.84,-201.39 -135.23,-299.87 -54.39,-98.48 -98.48,-171.98 -158.75,-227.83 -60.27,-55.86 -136.7,-94.08 -214.61,-127.89 -77.91,-33.81 -157.28,-63.2 -199.91,-79.37 -42.63,-16.17 -48.51,-19.11 51.44,24.99 99.96,44.09 305.75,135.23 446.86,221.96 141.11,86.72 217.55,169.03 279.28,241.06 61.74,72.03 108.78,133.76 130.83,211.67 22.05,77.9 19.11,171.98 22.05,241.07 2.94,69.08 11.75,113.17 42.62,111.7 30.87,-1.47 83.78,-48.5 117.59,-82.31 33.81,-33.81 48.51,-54.38 77.91,-35.27 29.4,19.11 73.49,77.9 113.18,74.96 39.69,-2.94 74.97,-67.61 133.76,-51.44 58.8,16.16 141.12,113.18 192.56,176.39 51.45,63.2 72.03,92.59 107.31,91.12 35.28,-1.47 85.25,-33.8 119.06,-77.9 33.81,-44.1 51.45,-99.95 29.4,-151.4 -22.05,-51.45 -83.78,-98.48 -64.68,-102.89 19.11,-4.41 119.07,33.8 179.33,72.02 60.27,38.22 80.85,76.43 138.17,105.83 57.33,29.4 151.41,49.98 213.14,72.03 61.74,22.05 91.13,45.57 126.41,45.57 35.28,0 76.44,-23.52 116.13,-70.56 39.69,-47.04 77.9,-117.59 98.48,-154.34 20.58,-36.75 23.52,-39.69 23.52,-1.47 0,38.22 -2.94,117.59 -19.11,189.62 -16.17,72.03 -45.57,136.7 -80.85,182.27 -35.28,45.57 -76.43,72.02 -101.42,97.01 -24.99,24.99 -33.81,48.51 -41.16,174.93 -7.35,126.41 -13.23,355.71 -16.17,555.62 -2.94,199.91 -2.94,370.42 -2.94,455.68 0,85.25 0,85.25 -20.58,72.02 -20.58,-13.23 -61.73,-39.69 -82.31,-38.22 -20.58,1.47 -20.58,30.87 -20.58,48.51 0,17.64 0,23.52 -27.93,14.7 -27.93,-8.82 -83.78,-32.34 -102.89,-20.58 -19.11,11.76 -1.47,58.79 16.17,88.19 17.64,29.4 35.28,41.16 61.74,51.45 26.46,10.29 61.73,19.11 77.9,35.28 16.17,16.17 13.23,39.68 -11.76,39.68 -24.99,0 -72.02,-23.51 -105.83,-36.74 -33.81,-13.23 -54.39,-16.17 -74.97,10.29 -20.58,26.46 -41.15,82.31 -66.14,114.65 -24.99,32.34 -54.39,41.16 -69.09,64.68 -14.7,23.52 -14.7,61.73 -7.35,102.89 7.35,41.16 22.05,85.25 23.52,149.93 1.47,64.68 -10.29,149.93 -33.81,219.02 -23.52,69.09 -58.79,122 -79.37,167.57 -20.58,45.57 -26.46,83.78 -54.39,120.53 -27.93,36.75 -77.9,72.03 -95.54,113.19 -17.64,41.16 -2.95,88.19 17.63,122 20.58,33.81 47.04,54.38 73.5,48.5 26.46,-5.88 52.92,-38.21 72.03,-26.45 19.11,11.76 30.86,67.61 36.74,102.89 5.88,35.28 5.88,49.98 23.52,64.68 17.64,14.7 52.92,29.39 74.97,51.44 22.05,22.05 30.86,51.45 8.81,85.26 -22.05,33.81 -74.96,72.02 -161.69,127.88 -86.72,55.86 -207.25,129.35 -302.55,201.12 -95.29,71.77 -165.35,141.8 -220.47,187.6 -55.12,45.8 -95.3,67.35 -142.59,64.67 -47.28,-2.68 -101.67,-29.59 -133.28,-41.58 -31.6,-11.99 -40.42,-9.05 -61,4.18 -20.58,13.23 -52.92,36.74 -70.56,61.73 -17.64,24.99 -20.58,51.45 -38.22,64.68 -17.64,13.23 -49.97,13.23 -88.19,22.05 -38.22,8.82 -82.31,26.45 -114.65,35.27 -32.34,8.82 -52.92,8.82 -68.35,31.59 -15.43,22.77 -25.72,68.3 -63.99,90.07 -38.26,21.78 -104.52,19.8 -175.81,-4.44 -71.29,-24.24 -147.63,-70.72 -190.21,-108.67 -42.57,-37.94 -51.39,-67.34 -32.28,-98.21 19.11,-30.87 66.14,-63.2 72.02,-83.78 5.88,-20.58 -29.39,-29.4 -76.43,-19.11 -47.04,10.29 -105.83,39.68 -136.7,17.63 -30.87,-22.04 -33.81,-95.54 4.41,-122 38.22,-26.45 117.59,-5.88 160.22,-13.23 42.63,-7.35 48.5,-42.62 24.98,-64.67 -23.52,-22.05 -76.43,-30.87 -113.18,-20.58 -36.75,10.29 -57.32,39.68 -79.37,39.68 -22.05,0 -45.57,-29.39 -74.97,-51.44 -29.4,-22.05 -64.67,-36.75 -99.95,-44.1 -35.28,-7.35 -70.56,-7.35 -104.37,-16.17 -33.81,-8.82 -66.14,-26.45 -88.19,-52.91 -22.05,-26.46 -33.81,-61.74 -4.41,-61.74 29.4,0 99.95,35.28 163.16,54.39 63.21,19.11 119.06,22.05 148.46,8.82 29.4,-13.23 32.34,-42.63 42.63,-47.04 10.29,-4.41 27.93,16.17 61.74,35.28 33.81,19.11 83.78,36.74 122,45.56 38.22,8.82 64.67,8.82 95.54,24.99 30.87,16.17 66.15,48.51 104.37,60.27 38.22,11.76 79.37,2.94 119.06,-22.05 39.69,-24.99 77.9,-66.14 77.9,-99.95 0,-33.81 -38.21,-60.27 -69.08,-66.15 -30.87,-5.88 -54.39,8.82 -77.91,36.75 -23.52,27.93 -47.03,69.08 -72.02,92.6 -24.99,23.52 -51.45,29.4 -74.97,20.58 -23.52,-8.82 -44.09,-32.34 -47.03,-63.21 -2.94,-30.87 11.75,-69.08 20.57,-113.18 8.82,-44.1 11.76,-94.07 32.34,-139.64 20.58,-45.57 58.8,-86.72 85.26,-114.65 26.46,-27.93 41.15,-42.63 54.38,-29.4 13.23,13.23 24.99,54.38 20.58,89.66 -4.41,35.28 -24.99,64.68 -11.76,82.32 13.23,17.64 60.27,23.52 97.02,4.41 36.75,-19.11 63.2,-63.21 67.61,-101.43 4.41,-38.22 -13.23,-70.55 -47.04,-77.9 -33.81,-7.35 -83.78,10.29 -127.88,16.17 -44.1,5.88 -82.31,0 -98.48,-17.64 -16.17,-17.64 -10.29,-47.04 1.47,-74.97 11.76,-27.93 29.4,-54.38 63.21,-64.67 33.81,-10.29 83.78,-4.41 132.29,-4.41 48.51,0 95.54,-5.88 120.53,-23.52 24.99,-17.64 27.93,-47.04 23.52,-70.56 -4.41,-23.52 -16.17,-41.15 -54.39,-36.74 -38.22,4.41 -102.89,30.86 -135.23,54.38 -32.34,23.52 -32.34,44.1 -29.4,55.86 2.94,11.76 8.82,14.7 0,17.64 -8.82,2.94 -32.34,5.88 -44.1,-10.29 -11.76,-16.17 -11.76,-51.45 -22.05,-76.44 -10.29,-24.99 -30.86,-39.68 -47.03,-69.08 -16.17,-29.4 -27.93,-73.5 -33.81,-105.84 -5.88,-32.34 -5.88,-52.91 2.94,-83.78 8.82,-30.87 26.46,-72.02 22.05,-99.95 -4.41,-27.93 -30.87,-42.63 -70.56,-48.51 -39.69,-5.88 -92.6,-2.94 -122,19.11 -29.4,22.05 -35.28,63.2 -17.64,92.6 17.64,29.4 58.8,47.04 102.9,36.75 44.1,-10.29 91.13,-48.51 114.65,-67.62 23.52,-19.11 23.52,-19.11 8.82,8.82 -14.7,27.93 -44.1,83.78 -92.61,111.71 -48.51,27.93 -116.12,27.93 -167.57,16.17 -51.45,-11.76 -86.72,-35.27 -127.88,-51.44 -41.16,-16.17 -88.19,-24.99 -127.88,-33.81 -39.69,-8.82 -72.02,-17.64 -89.66,-35.28 -17.64,-17.64 -20.58,-44.09 -35.28,-63.2 -14.7,-19.11 -41.16,-30.87 -67.62,-42.63 -26.46,-11.76 -52.91,-23.52 -79.37,-47.04 -26.46,-23.52 -52.92,-58.79 -85.26,-94.07 -32.34,-35.28 -70.55,-70.56 -105.83,-70.56 -35.28,0 -67.62,35.28 -83.79,79.38 -16.17,44.1 -16.17,97.01 7.35,130.82 23.52,33.81 70.55,48.5 92.6,73.49 22.05,24.99 19.11,60.27 20.58,89.67 1.47,29.4 7.35,52.91 26.46,67.61 19.11,14.7 51.45,20.58 89.67,32.34 38.22,11.76 82.31,29.4 105.83,44.1 23.52,14.7 26.46,26.46 58.8,44.1 32.34,17.64 94.07,41.15 89.66,54.38 -4.41,13.23 -74.96,16.17 -110.24,22.05 -35.28,5.88 -35.28,14.7 -41.16,13.23 -5.88,-1.47 -17.64,-13.23 -44.1,-26.46 -26.46,-13.23 -67.61,-27.92 -107.3,-33.8 -39.69,-5.88 -77.9,-2.94 -80.84,11.76 -2.94,14.7 29.39,41.15 41.15,73.49 11.76,32.34 2.94,70.55 13.23,95.54 10.29,24.99 39.69,36.75 42.63,26.46 2.94,-10.29 -20.58,-42.62 -11.76,-55.85 8.82,-13.23 49.97,-7.35 77.9,7.35 27.93,14.7 42.63,38.21 30.87,69.08 -11.76,30.87 -49.97,69.09 -69.08,110.25 -19.11,41.16 -19.11,85.25 -42.63,79.37 -23.52,-5.88 -70.55,-61.73 -105.83,-113.18 -35.28,-51.45 -58.8,-98.48 -82.32,-124.94 -23.52,-26.46 -47.03,-32.34 -60.26,-55.86 -13.23,-23.52 -16.17,-64.68 -14.7,-97.02 1.47,-32.34 7.35,-55.85 4.41,-72.02 -2.94,-16.17 -14.7,-24.99 -29.4,-14.7 -14.7,10.29 -32.34,39.68 -38.22,23.52 -5.88,-16.17 0,-77.91 22.05,-91.13 22.05,-13.23 60.26,22.04 88.19,14.69 27.93,-7.35 45.57,-57.32 48.51,-86.72 2.94,-29.4 -8.82,-38.22 -42.63,-23.52 -33.81,14.7 -89.66,52.91 -123.47,44.09 -33.81,-8.82 -45.57,-64.67 -39.69,-101.42 5.88,-36.75 29.4,-54.38 39.69,-85.25 10.29,-30.87 7.35,-74.97 -11.76,-101.43 -19.11,-26.46 -54.38,-35.27 -79.37,-60.26 -24.99,-24.99 -39.69,-66.15 -57.33,-99.96 -17.64,-33.81 -38.22,-60.26 -39.69,-11.75 -1.47,48.5 16.17,171.98 17.64,264.58 1.47,92.6 -13.23,154.34 -16.17,221.96 -2.94,67.61 5.88,141.1 26.46,174.91 20.58,33.81 52.92,27.93 76.44,49.98 23.52,22.05 38.21,72.02 72.02,107.3 33.81,35.28 86.72,55.86 116.12,85.26 29.4,29.4 35.28,67.61 35.28,99.95 0,32.34 -5.88,58.8 -20.58,54.39 -14.7,-4.41 -38.21,-39.69 -79.37,-85.26 -41.16,-45.57 -99.95,-101.42 -149.93,-155.81 -49.98,-54.39 -91.13,-107.3 -124.94,-145.52 -33.81,-38.22 -60.27,-61.73 -66.15,-108.77 -5.88,-47.04 8.82,-117.59 4.41,-170.51 -4.41,-52.92 -27.93,-88.19 -39.69,-116.12 -11.76,-27.93 -11.76,-48.51 -24.99,-92.61 -13.23,-44.1 -39.68,-111.71 -52.91,-163.16 -13.23,-51.45 -13.23,-86.72 -14.7,-117.59 -1.47,-30.87 -4.41,-57.33 -17.64,-104.36 -13.23,-47.04 -36.75,-114.66 -54.39,-166.1 -17.64,-51.45 -29.4,-86.73 -49.98,-119.07 -20.58,-32.34 -49.97,-61.73 -80.84,-88.19 -30.87,-26.46 -63.21,-49.98 -104.37,-86.73 -41.16,-36.75 -91.13,-86.72 -148.45,-146.99 -57.33,-60.27 -122.01,-130.82 -167.57,-180.8 -45.57,-49.98 -72.03,-79.37 -97.02,-105.83 -24.99,-26.46 -48.51,-49.98 -64.47,-87.84 -15.96,-37.87 -24.35,-90.09 -40.52,-163.58z"/>
   <path class="fil7" d="M9812.44 10583.17c-91.13,-49.98 -191.09,-108.78 -258.7,-194.03 -67.62,-85.25 -102.89,-196.97 -120.53,-288.1 -17.64,-91.14 -17.64,-161.69 -44.1,-176.39 -26.46,-14.7 -79.37,26.45 -144.05,29.39 -64.68,2.94 -141.11,-32.33 -214.61,-23.51 -73.5,8.82 -144.05,61.73 -223.42,126.41 -79.38,64.67 -167.58,141.11 -235.19,158.75 -67.62,17.63 -114.65,-23.52 -141.11,-97.01 -26.46,-73.5 -32.34,-179.34 -41.16,-267.53 -8.82,-88.2 -20.58,-158.75 -85.25,-235.18 -64.68,-76.44 -182.28,-158.76 -329.27,-252.83 -146.99,-94.07 -323.37,-199.91 -429.2,-279.28 -105.84,-79.38 -141.12,-132.29 -188.16,-196.97 -47.04,-64.68 -105.83,-141.11 -108.77,-232.24 -2.94,-91.14 49.97,-196.98 47.04,-288.11 -2.94,-91.13 -61.74,-167.57 -111.71,-252.82 -49.98,-85.26 -91.14,-179.33 -97.02,-355.72 -5.88,-176.39 23.52,-435.1 41.16,-664.4 17.64,-229.31 23.52,-429.21 32.34,-543.86 8.82,-114.66 20.57,-144.06 41.15,-167.58 20.58,-23.52 49.98,-41.15 76.44,-79.37 26.46,-38.22 49.97,-97.01 194.03,-170.5 144.05,-73.5 408.63,-161.7 711.44,-185.21 302.8,-23.52 643.81,17.63 902.52,61.73 258.7,44.1 435.09,91.13 702.62,135.23 267.52,44.1 626.17,85.25 864.29,164.63 238.13,79.37 355.73,196.97 429.22,370.42 73.5,173.45 102.89,402.75 135.23,564.44 32.34,161.69 67.62,255.77 117.59,355.72 49.98,99.95 114.66,205.79 167.57,308.68 52.92,102.89 94.08,202.85 146.99,285.17 52.92,82.31 117.6,146.98 244.01,282.22 126.41,135.23 314.56,341.01 443.91,573.26 129.36,232.24 199.91,490.95 238.13,779.05 38.22,288.1 44.09,605.6 47.03,784.93 2.94,179.33 2.94,220.49 53.91,325.09 50.98,104.6 152.92,272.63 171.45,360.3 18.54,87.66 -46.33,94.95 -94.77,91.4 -48.43,-3.55 -80.43,-17.95 -111.14,-11.51 -30.7,6.44 -60.13,33.7 -92.54,34.32 -32.4,0.61 -67.8,-25.44 -89.17,-78.64 -21.37,-53.2 -28.72,-133.55 -100.04,-237.85 -71.31,-104.31 -206.6,-232.56 -341.26,-342.76 -134.66,-110.21 -268.69,-202.38 -353.04,-254.74 -84.34,-52.36 -118.99,-64.92 -168.33,-77.93 -49.34,-13.01 -113.37,-26.46 -145.4,23.96 -32.02,50.41 -32.05,164.69 -51.14,222.25 -19.09,57.56 -57.26,58.39 -112.36,66.4 -55.09,8.01 -127.11,23.2 -190.34,15.62 -63.22,-7.58 -117.63,-37.94 -128.42,-25.49 -10.78,12.45 22.08,67.69 4.44,105.91 -17.64,38.22 -85.78,59.4 -169.82,122.92 -84.04,63.51 -184,169.34 -245.73,248.72 -61.74,79.38 -85.25,132.29 2.95,273.4 88.19,141.11 288.09,370.42 496.1,460.56 208.01,90.14 424.12,41.13 578.4,53.35 154.28,12.21 246.74,85.66 328.07,151.81 81.34,66.14 151.55,124.98 182.2,160.64 30.65,35.66 21.73,48.13 17.27,54.37 -4.46,6.24 -4.46,6.24 36.4,61.94 40.86,55.7 122.59,167.09 157.91,228.47 35.33,61.38 24.27,72.73 -36.9,113.21 -61.16,40.48 -172.41,110.08 -254.14,161.61 -81.72,51.52 -133.91,84.98 -207.41,102.62 -73.49,17.63 -168.29,19.46 -256.85,23.31 -88.56,3.85 -170.87,9.73 -253.19,6.79 -82.31,-2.94 -164.63,-14.7 -232.25,-44.1 -67.61,-29.4 -120.52,-76.43 -203.8,-93.34 -83.28,-16.92 -196.93,-3.71 -276.31,-68.38 -79.37,-64.68 -124.47,-207.24 -188.65,-294.45 -64.19,-87.22 -147.46,-119.09 -205.19,-166.96 -57.73,-47.87 -89.92,-111.74 -125.67,-219.33 -35.75,-107.59 -75.04,-258.91 -58.47,-440.34 16.57,-181.44 89.01,-393 139.93,-525.24 50.92,-132.24 80.32,-185.15 86.2,-241.01 5.88,-55.86 -11.76,-114.65 -35.28,-155.81 -23.52,-41.16 -52.92,-64.67 -108.77,-97.01 -55.86,-32.34 -138.18,-73.5 -229.31,-123.47z"/>
   <path class="fil7" d="M14251.34 11329.09c46.81,-68.3 141.06,-164.57 218.85,-234.04 77.79,-69.48 139.1,-112.17 169.76,-133.51 30.66,-21.34 30.66,-21.34 25.83,60.31 -4.82,81.65 -14.47,244.95 -23.29,417.04 -8.82,172.09 -16.82,352.97 -45.19,525.06 -28.37,172.09 -77.13,335.39 -137.89,516.08 -60.75,180.69 -133.5,378.76 -200.05,482.97 -66.54,104.21 -126.88,114.56 -177.59,100.62 -50.71,-13.94 -91.79,-52.15 -111.72,-144.79 -19.93,-92.65 -18.69,-239.72 -14.22,-412.75 4.47,-173.03 12.19,-372.03 30.44,-493.12 18.26,-121.1 47.06,-164.31 69.53,-194.38 22.47,-30.08 38.61,-47.02 60.15,-85.87 21.55,-38.86 48.5,-99.61 64.38,-145.7 15.89,-46.1 20.7,-77.54 22.78,-113.42 2.09,-35.88 1.43,-76.2 48.23,-144.5z"/>
   <path class="fil7" d="M14036.87 8998.65c108.77,-79.38 226.37,-173.45 296.92,-249.89 70.56,-76.44 94.08,-135.23 105.84,-223.42 11.76,-88.2 11.76,-205.79 2.94,-326.32 -8.82,-120.53 -26.46,-244.01 2.94,-314.56 29.4,-70.56 105.83,-88.2 173.44,-108.78 67.62,-20.58 126.42,-44.09 241.07,-208.72 114.65,-164.63 285.16,-470.38 499.77,-734.96 214.61,-264.59 473.31,-488.01 682.04,-682.04 208.73,-194.03 367.48,-358.66 490.95,-514.47 123.47,-155.81 211.67,-302.8 246.94,-396.87 35.28,-94.08 17.64,-135.23 -20.58,-158.75 -38.22,-23.52 -97.01,-29.4 -167.57,-32.34 -70.55,-2.94 -152.87,-2.94 -273.4,26.46 -120.53,29.4 -279.28,88.19 -432.15,144.05 -152.87,55.86 -299.86,108.77 -526.23,185.21 -226.36,76.43 -532.11,176.39 -881.95,273.4 -349.84,97.01 -743.77,191.09 -1105.37,305.74 -361.6,114.65 -690.86,249.89 -1002.48,385.12 -311.62,135.23 -605.6,270.46 -779.05,346.9 -173.45,76.43 -226.36,94.07 -277.46,124.84 -51.1,30.76 -100.37,74.64 -35.7,165.78 64.68,91.13 243.3,229.52 426.69,392.79 183.39,163.26 371.54,351.4 586.15,560.13 214.61,208.73 455.67,438.03 640.67,649.42 185,211.39 313.93,404.86 415.06,541.28 101.14,136.42 174.49,215.8 233.49,216.08 59.01,0.27 103.68,-78.54 175.99,-150.28 72.31,-71.75 172.27,-136.43 281.04,-215.8z"/>
   <path class="fil1" d="M12370 7070.13c82.32,-108.78 111.71,-238.13 202.84,-317.5 91.14,-79.38 244.01,-108.78 335.14,-141.12 91.14,-32.34 120.54,-67.61 164.64,-117.59 44.1,-49.98 102.89,-114.65 179.32,-155.81 76.44,-41.16 170.52,-58.79 264.59,-67.61 94.07,-8.82 188.15,-8.82 258.7,-23.52 70.56,-14.7 117.59,-44.1 117.59,2.94 0,47.03 -47.03,170.51 -120.53,320.44 -73.49,149.93 -173.45,326.32 -202.85,467.43 -29.39,141.11 11.76,246.95 8.82,343.96 -2.94,97.01 -49.97,185.21 -94.07,270.46 -44.1,85.25 -85.25,167.57 -149.93,249.89 -64.68,82.31 -152.87,164.62 -220.49,238.12 -67.62,73.5 -114.65,138.17 -164.63,132.29 -49.98,-5.88 -102.89,-82.31 -164.63,-155.81 -61.73,-73.5 -132.29,-144.05 -216.08,-170.02 -83.78,-25.97 -180.79,-7.35 -277.68,-45.21 -96.88,-37.87 -193.62,-132.22 -239.19,-232.66 -45.57,-100.45 -39.95,-206.98 30.47,-304.35 70.42,-97.37 205.66,-185.56 287.97,-294.33z"/>
   <path class="fil1" d="M13620.87 8897.25c98.48,-10.29 213.14,-30.87 298.39,-49.98 85.26,-19.11 141.11,-36.75 205.3,-52.92 64.19,-16.18 136.71,-30.88 172.97,-38.23 36.26,-7.36 36.26,-7.36 -13.23,34.29 -49.48,41.65 -148.46,124.94 -244.79,202.56 -96.32,77.61 -190,149.55 -266.17,210.56 -76.17,61.01 -134.84,111.11 -182.08,104.06 -47.23,-7.06 -83.04,-71.27 -120.06,-147.46 -37.01,-76.2 -75.22,-164.4 -53.18,-208.49 22.05,-44.1 104.37,-44.1 202.85,-54.39z"/>
   <path class="fil6" d="M12572.81 7590.52c0,-67.62 -8.82,-129.35 1.47,-182.27 10.29,-52.92 39.68,-97.01 63.2,-135.23 23.52,-38.22 41.16,-70.55 14.7,-95.54 -26.46,-24.99 -97.01,-42.63 -160.22,-16.17 -63.21,26.46 -119.06,97.01 -158.75,176.39 -39.69,79.37 -63.2,167.57 -38.22,239.6 24.99,72.02 98.49,127.87 149.93,163.15 51.45,35.28 80.85,49.98 99.96,20.58 19.11,-29.4 27.93,-102.89 27.93,-170.51z"/>
   <path class="fil6" d="M13135.78 7621.39c-30.87,-24.99 -63.2,-66.14 -47.03,-127.88 16.17,-61.74 80.84,-144.05 139.64,-238.12 58.8,-94.08 111.71,-199.92 158.75,-295.46 47.04,-95.55 88.19,-180.8 157.69,-257.31 69.51,-76.51 167.37,-144.27 216.29,-178.15 48.93,-33.88 48.93,-33.88 -1.47,32.34 -50.39,66.22 -151.19,198.65 -211.88,322.2 -60.68,123.54 -81.25,238.2 -101.83,339.63 -20.58,101.42 -41.16,189.61 -77.91,261.64 -36.75,72.03 -89.66,127.88 -130.82,151.4 -41.16,23.52 -70.56,14.7 -101.43,-10.29z"/>
   <path class="fil8" d="M13135.78 7621.39c-30.87,-24.99 -63.2,-66.14 -47.03,-127.88 16.17,-61.74 80.84,-144.05 139.64,-238.12 58.8,-94.08 111.71,-199.92 158.75,-295.46 47.04,-95.55 88.19,-180.8 157.69,-257.31 69.51,-76.51 167.37,-144.27 216.29,-178.15 48.93,-33.88 48.93,-33.88 -1.47,32.34 -50.39,66.22 -151.19,198.65 -211.88,322.2 -60.68,123.54 -81.25,238.2 -101.83,339.63 -20.58,101.42 -41.16,189.61 -77.91,261.64 -36.75,72.03 -89.66,127.88 -130.82,151.4 -41.16,23.52 -70.56,14.7 -101.43,-10.29z"/>
   <path class="fil6" d="M14045.74 6354.71c102.8,-51.81 258.61,-151.77 432.06,-242.9 173.45,-91.14 364.53,-173.45 542.39,-242.54 177.86,-69.09 342.49,-124.94 508.59,-198.43 166.1,-73.5 333.67,-164.64 492.42,-235.19 158.75,-70.56 308.69,-120.53 377.77,-132.29 69.09,-11.76 57.33,14.69 39.69,64.67 -17.64,49.98 -41.16,123.47 -104.37,198.44 -63.2,74.96 -166.1,151.4 -264.58,238.13 -98.48,86.72 -192.56,183.73 -238.13,244 -45.56,60.27 -42.62,83.78 0.5,94.55 43.13,10.77 126.44,8.79 217.57,-52.94 91.14,-61.74 190.09,-183.24 294.72,-300.7 104.63,-117.46 214.94,-230.89 288.44,-322.03 73.5,-91.15 110.21,-160 131.74,-208.64 21.53,-48.65 27.88,-77.07 10.83,-107.77 -17.04,-30.7 -57.49,-63.68 -182.68,-45.04 -125.19,18.63 -335.11,88.87 -591.48,188.67 -256.36,99.79 -559.16,229.14 -832.57,349.67 -273.4,120.53 -517.4,232.25 -733.67,328.3 -216.26,96.05 -404.77,176.45 -531.62,221.98 -126.84,45.52 -192.01,56.19 -227.11,102.72 -35.09,46.52 -40.1,128.92 -74.95,205.4 -34.85,76.47 -99.52,147.02 -140.19,222.23 -40.66,75.21 -57.32,155.07 -65.65,195 -8.32,39.93 -8.32,39.93 35.16,-18.79 43.48,-58.72 130.43,-176.16 206.47,-267.17 76.05,-91.01 141.18,-155.6 198.63,-189.72 57.46,-34.13 107.23,-37.8 210.02,-89.61z"/>
   <path class="fil6" d="M10182.73 4001.05c108.77,35.28 173.45,76.43 235.19,141.11 61.73,64.67 120.52,152.87 176.38,293.98 55.86,141.11 108.77,335.14 173.45,637.94 64.68,302.8 141.11,714.38 167.13,960.77 26.02,246.38 1.62,327.59 22.96,421.35 21.35,93.75 88.44,200.05 155.33,265.99 66.9,65.93 133.61,91.5 173.17,145.51 39.57,54.01 52,136.46 43.69,234.2 -8.31,97.74 -37.36,210.77 -26.04,321.97 11.32,111.19 63,220.56 46.01,272.05 -16.98,51.48 -102.65,45.09 -557.06,-166.83 -454.4,-211.93 -1277.55,-629.39 -1892.65,-762.33 -615.1,-132.95 -1022.14,18.6 -1281.57,103.43 -259.43,84.82 -371.23,102.9 -424.57,66.1 -53.34,-36.81 -48.22,-128.5 -10.54,-259.96 37.68,-131.46 107.91,-302.69 156.05,-465.13 48.13,-162.45 74.18,-316.11 125.42,-460.56 51.23,-144.45 127.67,-279.69 198.23,-379.64 70.55,-99.96 135.22,-164.63 299.85,-302.8 164.63,-138.18 429.22,-349.84 676.17,-526.23 246.94,-176.39 476.24,-317.5 661.45,-417.45 185.21,-99.96 326.32,-158.75 473.31,-173.45 146.99,-14.7 299.87,14.7 408.64,49.98z"/>
   <path class="fil6" d="M7200.27 8957.58c54.39,-32.34 124.94,-147 182.27,-235.19 57.33,-88.2 101.42,-149.93 108.77,-201.38 7.35,-51.45 -22.04,-92.6 -44.09,-146.99 -22.05,-54.39 -36.75,-122 -57.33,-207.25 -20.58,-85.26 -47.04,-188.16 -52.92,-267.53 -5.88,-79.38 8.82,-135.23 -13.2,-95.56 -22.03,39.66 -80.77,174.85 -98.24,262.48 -17.48,87.63 6.33,127.7 6.33,127.7 0,0 -23.81,-40.07 -66.6,-83.6 -42.8,-43.53 -104.58,-90.53 -136.94,-84.62 -32.37,5.9 -35.31,64.69 -13.26,108.79 22.05,44.1 69.08,73.49 113.35,87.63 44.26,14.13 85.76,13 91.64,51.22 5.88,38.22 -23.86,115.78 -57.83,192.78 -33.98,77 -72.19,153.44 -88.36,224 -16.17,70.55 -10.29,135.22 11.76,192.55 22.05,57.33 60.26,107.3 114.65,74.97z"/>
   <path class="fil9" d="M9985.78 10198.22c29.4,-14.7 47.04,-70.55 92.61,-104.36 45.57,-33.81 119.06,-45.57 173.45,-36.75 54.39,8.82 89.66,38.22 123.47,23.52 33.81,-14.7 66.14,-73.49 116.12,-111.71 49.98,-38.22 117.59,-55.86 107.3,-42.63 -10.28,13.23 -98.48,57.32 -133.75,99.95 -35.28,42.63 -17.65,83.78 33.8,92.6 51.45,8.82 136.7,-14.69 195.5,-4.4 58.8,10.29 91.13,54.38 124.94,77.9 33.81,23.52 69.09,26.46 119.07,14.7 49.98,-11.76 114.65,-38.21 166.1,-33.8 51.45,4.41 89.66,39.68 122,35.27 32.34,-4.41 58.79,-48.5 92.6,-69.08 33.81,-20.58 74.97,-17.64 91.14,-1.47 16.17,16.17 7.35,45.56 33.81,41.15 26.46,-4.41 88.19,-42.62 133.76,-29.39 45.57,13.23 74.96,77.9 133.76,95.54 58.8,17.64 146.99,-11.76 191.09,-16.17 44.1,-4.41 44.1,16.17 27.93,33.81 -16.17,17.64 -48.51,32.34 -104.37,45.57 -55.85,13.23 -135.23,24.98 -157.49,56.54 -22.26,31.56 12.6,82.93 75.8,88.81 63.21,5.88 154.76,-33.73 204.95,-82.93 50.19,-49.2 59.01,-107.99 56.07,-155.03 -2.94,-47.04 -17.64,-82.31 4.41,-126.41 22.05,-44.1 80.84,-97.01 122,-139.64 41.16,-42.63 64.68,-74.97 66.15,-117.6 1.47,-42.63 -19.11,-95.54 -45.57,-149.93 -26.46,-54.39 -58.79,-110.24 -85.25,-142.58 -26.46,-32.34 -47.04,-41.16 19.1,0 66.15,41.16 219.02,132.29 301.33,92.61 82.32,-39.69 94.08,-210.2 24.99,-460.08 -69.08,-249.89 -219.01,-579.15 -351.3,-780.53 -132.29,-201.38 -246.95,-274.87 -402.76,-276.34 -155.81,-1.47 -352.77,69.08 -489.48,104.36 -136.7,35.28 -213.13,35.28 -296.92,23.52 -83.78,-11.76 -174.92,-35.28 -269,-57.33 -94.07,-22.05 -191.08,-42.62 -288.09,-52.91 -97.02,-10.29 -194.04,-10.29 -299.87,17.64 -105.83,27.93 -220.49,83.78 -299.86,108.77 -79.38,24.99 -123.47,19.11 -208.72,-16.17 -85.26,-35.28 -211.68,-99.95 -311.63,-154.34 -99.95,-54.39 -173.45,-98.48 -251.35,-116.12 -77.91,-17.64 -160.22,-8.83 -231.89,-4.08 -71.67,4.74 -132.7,5.41 -197.37,-0.47 -64.68,-5.88 -133.01,-18.3 -196.57,-17.16 -63.57,1.13 -122.36,15.82 -209.08,76.09 -86.73,60.26 -201.38,166.1 -305.74,154.34 -104.37,-11.76 -198.44,-141.11 -182.27,-255.76 16.16,-114.65 142.58,-214.61 241.07,-349.84 98.48,-135.23 169.03,-305.74 114.65,-426.27 -54.39,-120.54 -233.72,-191.1 -373.33,-215.31 -139.61,-24.22 -239.5,-2.1 -302.79,-37.37 -63.3,-35.27 -89.99,-127.95 -111.08,-125.62 -21.09,2.32 -36.58,99.64 -48.6,310.69 -12.02,211.05 -20.58,535.83 -15.89,726.16 4.68,190.33 22.6,246.2 48.53,244.45 25.93,-1.76 59.85,-61.14 86.27,-112.24 26.42,-51.1 45.33,-93.9 60.59,-76.93 15.26,16.96 26.86,93.71 42.11,171.66 15.25,77.94 34.14,157.09 54.19,225.63 20.05,68.53 41.27,126.46 53.95,168.07 12.67,41.6 16.8,66.9 11.16,96.99 -5.64,30.08 -21.06,64.97 -55.35,107.88 -34.29,42.91 -87.44,93.85 -102,137.39 -14.56,43.54 9.47,79.67 35.67,115.59 26.2,35.92 54.55,71.63 58.7,44.21 4.14,-27.42 -15.94,-117.95 -7.84,-196.78 8.09,-78.84 44.34,-145.96 47.54,-230.33 3.2,-84.37 -26.67,-185.97 -52.39,-289.6 -25.72,-103.63 -47.31,-209.28 -13.01,-223.39 34.29,-14.11 124.45,63.31 184.24,132.9 59.78,69.58 89.17,131.31 93.58,204.81 4.41,73.5 -16.16,158.75 -32.33,233.72 -16.17,74.97 -27.93,139.64 24.99,223.43 52.91,83.78 170.51,186.68 245.48,248.42 74.96,61.73 107.29,82.31 176.38,99.95 69.08,17.64 174.92,32.33 269,44.09 94.07,11.76 176.38,20.58 252.82,-10.29 76.43,-30.87 146.99,-101.42 194.03,-104.36 47.03,-2.94 70.55,61.73 111.71,91.13 41.16,29.4 99.95,23.52 170.51,2.94 70.55,-20.58 152.87,-55.85 191.09,-58.79 38.21,-2.94 32.33,26.45 60.26,19.1 27.93,-7.35 89.66,-51.44 161.69,-99.95 72.03,-48.51 154.34,-101.42 241.07,-160.22 86.72,-58.8 177.86,-123.47 227.84,-155.81 49.97,-32.34 58.79,-32.34 42.62,1.47 -16.17,33.81 -57.32,101.42 -45.56,158.75 11.76,57.33 76.43,104.36 91.13,155.81 14.7,51.45 -20.58,107.3 -16.17,158.75 4.41,51.45 48.5,98.48 27.93,149.93 -20.58,51.45 -105.84,107.3 -54.39,83.79 51.45,-23.52 239.6,-126.42 411.58,-199.91 171.98,-73.5 327.79,-117.59 405.69,-139.64 77.91,-22.05 77.91,-22.05 37.15,-9.93 -40.76,12.11 -122.29,36.33 -211.96,89.25 -89.66,52.92 -187.46,134.52 -302.86,197.09 -115.4,62.56 -248.39,106.09 -342.46,159.01 -94.08,52.91 -149.24,115.22 -188.58,184.6 -39.34,69.37 -62.85,145.8 -23.16,179.61 39.68,33.81 142.58,24.99 164.63,29.4 22.04,4.41 -36.75,22.05 -86.73,45.57 -49.98,23.52 -91.13,52.91 -98.48,83.78 -7.35,30.87 19.1,63.21 55.85,61.74 36.75,-1.47 83.78,-36.75 92.6,-30.87 8.82,5.88 -20.57,52.91 -14.69,89.66 5.88,36.75 47.03,63.21 76.43,48.51z"/>
   <path class="fil10" d="M9033.31 8501.95c-8.82,85.25 -11.76,161.68 -11.76,207.25 0,45.57 2.94,60.26 -23.52,51.44 -26.46,-8.82 -82.31,-41.15 -157.27,-38.21 -74.97,2.94 -169.05,41.15 -219.02,86.72 -49.98,45.57 -55.86,98.48 -71.86,163.01 -16,64.52 -42.12,140.64 -76.42,176.9 -34.3,36.26 -76.79,32.65 -96.06,1.94 -19.28,-30.72 -15.36,-88.53 -36.91,-108.62 -21.56,-20.09 -68.59,-2.45 -125.92,-17.15 -57.33,-14.7 -124.94,-61.74 -164.63,-88.2 -39.69,-26.46 -51.45,-32.33 -70.31,-12.73 -18.87,19.6 -44.85,64.68 -98.75,45.82 -53.9,-18.87 -135.72,-101.67 -182.97,-161.15 -47.25,-59.48 -59.92,-95.64 -64.08,-132.87 -4.17,-37.24 0.17,-75.57 7.73,-133.68 7.56,-58.12 18.33,-136.02 45.53,-175.46 27.2,-39.45 70.81,-40.43 113.2,-51.21 42.39,-10.78 83.55,-31.36 120.3,-49 36.75,-17.64 69.08,-32.33 98.48,-10.28 29.4,22.05 55.86,80.84 74.97,126.41 19.11,45.57 30.86,77.9 60.26,104.36 29.4,26.46 76.43,47.04 105.83,89.67 29.4,42.62 41.16,107.3 73.5,161.69 32.34,54.38 85.25,98.48 122,94.07 36.75,-4.41 57.33,-57.32 76.44,-97.01 19.11,-39.69 36.75,-66.15 51.45,-108.78 14.7,-42.63 26.45,-101.42 14.69,-152.87 -11.76,-51.45 -47.03,-95.54 -82.31,-136.7 -35.28,-41.16 -70.55,-79.37 -88.19,-117.59 -17.64,-38.22 -17.64,-76.44 -5.88,-99.96 11.76,-23.52 35.27,-32.34 91.13,-14.7 55.86,17.64 144.05,61.74 210.02,87.04 65.97,25.29 109.72,31.79 164.11,34.73 54.38,2.94 119.41,2.32 144.58,49.05 25.16,46.73 10.46,140.81 1.64,226.07z"/>
   <path class="fil11" d="M11660.05 7029.13c48.51,5.88 110.24,-5.88 163.16,-8.82 52.92,-2.94 97.01,2.94 132.29,38.22 35.28,35.27 61.74,99.95 71.62,180.48 9.88,80.52 3.18,176.91 20.92,274.2 17.74,97.28 59.93,195.47 150.73,267.87 90.81,72.39 230.23,119 363.39,196.61 133.17,77.6 260.08,186.21 353.42,233.19 93.34,46.98 153.13,32.34 206.18,-16.47 53.06,-48.81 99.38,-131.78 127.44,-178.7 28.06,-46.93 37.85,-57.8 54.37,33.66 16.53,91.46 39.78,285.26 61.7,430.67 21.92,145.4 42.5,242.42 83.66,346.78 41.16,104.36 102.89,216.08 154.34,321.91 51.45,105.83 92.6,205.79 127.88,286.64 35.28,80.84 64.68,142.57 102.68,212.34 38.01,69.76 84.61,147.55 170.63,248.67 86.02,101.12 211.45,225.58 274.16,287.81 62.72,62.22 62.72,62.22 91.14,80.84 28.42,18.61 85.26,55.85 149.44,129.34 64.19,73.49 135.73,183.25 162.18,280.27 26.46,97.01 7.85,181.28 -21.07,237.65 -28.92,56.37 -68.14,84.83 -120.78,129.23 -52.63,44.39 -118.68,104.72 -170.88,139.79 -52.2,35.07 -90.56,44.88 -118.53,74.49 -27.96,29.6 -45.55,78.99 -79.28,137.32 -33.73,58.33 -83.61,125.6 -130.07,159.85 -46.45,34.24 -89.49,35.47 -168.94,-50.79 -79.45,-86.26 -195.32,-260 -322.34,-340.99 -127.02,-81 -265.19,-69.24 -397.01,-61.54 -131.81,7.7 -257.26,11.34 -391.19,-11.37 -133.93,-22.72 -276.33,-71.78 -402.22,-146.4 -125.88,-74.63 -235.24,-174.82 -298.28,-247.65 -63.04,-72.83 -79.76,-118.31 -91.06,-152.81 -11.29,-34.5 -17.17,-58.01 -12.07,-96.45 5.11,-38.44 21.21,-91.79 31.73,-153.53 10.53,-61.74 15.5,-131.87 27.42,-179.16 11.93,-47.29 30.83,-71.76 58.54,-103.85 27.72,-32.1 64.26,-71.84 83.74,-115.35 19.49,-43.52 21.91,-90.83 11.45,-138.83 -10.46,-48.01 -33.81,-96.73 -53.19,-132.6 -19.37,-35.88 -34.77,-58.91 -44.92,-94.92 -10.14,-36.02 -15.02,-85 -39.52,-113.9 -24.49,-28.91 -68.59,-37.73 -136.21,-48.02 -67.61,-10.29 -158.75,-22.05 -226.37,-47.04 -67.61,-24.99 -111.7,-63.2 -127.87,-101.42 -16.17,-38.22 -4.41,-76.44 36.74,-108.78 41.16,-32.34 111.72,-58.79 157.28,-95.54 45.57,-36.75 66.15,-83.78 17.64,-92.6 -48.5,-8.82 -166.1,20.57 -233.72,10.28 -67.61,-10.29 -85.24,-60.26 -86.71,-101.42 -1.47,-41.16 13.22,-73.49 8.81,-101.42 -4.41,-27.93 -27.92,-51.45 -16.16,-91.14 11.76,-39.69 58.79,-95.54 80.84,-158.74 22.05,-63.21 19.11,-133.77 -8.82,-169.04 -27.93,-35.28 -80.84,-35.28 -139.64,-64.68 -58.8,-29.4 -123.47,-88.19 -166.1,-148.46 -42.63,-60.27 -63.2,-122 -66.76,-190.87 -3.56,-68.87 9.89,-144.88 43.88,-216.64 34,-71.77 88.52,-139.3 127.37,-233.71 38.85,-94.42 62.01,-215.72 57.6,-317.85 -4.4,-102.13 -36.39,-185.08 -52.38,-226.56 -15.99,-41.48 -15.99,-41.48 26.45,-23.39 42.44,18.08 127.33,54.25 187.41,84.1 60.08,29.84 95.35,53.36 143.86,59.24z"/>
   <path class="fil3" d="M11948.14 12676.57c-22.05,36.75 -69.08,80.84 -113.18,101.42 -44.1,20.58 -85.25,17.64 -122,41.16 -36.75,23.52 -69.09,73.49 -119.07,99.95 -49.98,26.46 -117.59,29.4 -204.32,27.93 -86.72,-1.47 -192.56,-7.35 -327.79,-36.75 -135.23,-29.4 -299.86,-82.31 -395.41,-135.23 -95.54,-52.92 -121.99,-105.83 -191.07,-188.14 -69.09,-82.32 -180.81,-194.04 -248.42,-276.35 -67.62,-82.32 -91.14,-135.23 -116.13,-201.38 -24.99,-66.15 -51.44,-145.52 -63.93,-269.76 -12.49,-124.24 -11,-293.34 0.13,-407.31 11.12,-113.97 31.88,-172.8 56.63,-242.39 24.75,-69.59 53.49,-149.92 74.7,-225.57 21.21,-75.65 34.91,-146.62 43.23,-220.32 8.31,-73.7 11.25,-150.13 12.72,-188.35 1.47,-38.22 1.47,-38.22 -6.84,35.48 -8.32,73.7 -24.96,221.1 -36.72,401.9 -11.76,180.8 -18.64,395 -26.49,552.08 -7.86,157.07 -16.68,257.03 -4.92,356.98 11.76,99.95 44.1,199.91 105.84,293.99 61.73,94.07 152.87,182.26 223.43,246.94 70.55,64.68 120.52,105.83 114.64,79.38 -5.88,-26.46 -67.61,-120.54 -124.94,-201.38 -57.33,-80.85 -110.24,-148.46 -146.99,-217.55 -36.75,-69.09 -57.33,-139.64 -74.97,-199.91 -17.64,-60.27 -32.33,-110.24 5.89,-55.85 38.21,54.38 129.35,213.13 207.26,321.91 77.9,108.77 142.57,167.56 201.37,205.78 58.8,38.22 111.71,55.86 161.69,67.62 49.98,11.76 97.01,17.64 133.76,8.82 36.75,-8.82 63.21,-32.34 77.91,-57.33 14.7,-24.99 17.64,-51.44 48.5,-63.2 30.87,-11.76 89.67,-8.82 141.11,-7.35 51.45,1.47 95.55,1.47 138.18,26.46 42.63,24.99 83.78,74.96 133.76,108.77 49.98,33.81 108.77,51.45 163.16,70.56 54.39,19.11 104.36,39.68 152.87,48.5 48.51,8.82 95.54,5.88 120.53,19.11 24.99,13.23 27.93,42.63 5.88,79.38z"/>
   <path class="fil4" d="M11086.02 12610.43c55.13,-7.35 140.38,-7.35 245.48,8.09 105.1,15.43 230.04,46.3 281.48,69.82 51.45,23.52 29.41,39.68 16.91,62.47 -12.49,22.78 -15.43,52.18 -19.84,81.33 -4.41,29.15 -10.28,58.06 -47.28,77.17 -36.99,19.1 -105.09,28.41 -178.43,29.83 -73.33,1.41 -151.89,-5.06 -244.99,-29.31 -93.09,-24.26 -200.72,-66.28 -269.24,-99.05 -68.51,-32.78 -97.91,-56.3 -123.64,-79.08 -25.72,-22.79 -47.76,-44.83 -48.5,-61 -0.73,-16.17 19.84,-26.46 51.44,-30.87 31.61,-4.41 74.23,-2.94 114.65,-0.73 40.43,2.2 78.65,5.14 110.25,-0.74 31.61,-5.88 56.59,-20.58 111.71,-27.93z"/>
   <path class="fil12" d="M12193.51 10105.79c51.45,-49.98 133.76,-97.01 191.09,-142.58 57.33,-45.57 89.66,-89.66 86.72,-113.18 -2.94,-23.52 -41.15,-26.46 -74.96,-24.99 -33.81,1.47 -63.21,7.35 -70.56,-2.94 -7.35,-10.29 7.35,-36.75 35.28,-58.8 27.93,-22.05 69.08,-39.68 102.89,-54.38 33.81,-14.7 60.27,-26.46 72.03,-45.57 11.76,-19.11 8.82,-45.57 -2.94,-72.03 -11.76,-26.46 -32.34,-52.91 -80.85,-61.73 -48.5,-8.82 -124.94,0 -186.68,1.47 -61.73,1.47 -108.76,-4.41 -108.76,-7.35 0,-2.94 47.03,-2.94 101.42,-7.35 54.39,-4.41 116.12,-13.23 145.52,-41.16 29.4,-27.93 26.46,-74.96 8.82,-107.3 -17.64,-32.34 -49.98,-49.98 -97.02,-48.51 -47.04,1.47 -108.77,22.05 -151.4,32.34 -42.63,10.29 -66.14,10.29 -51.44,0 14.7,-10.29 67.61,-30.87 108.77,-55.86 41.16,-24.99 70.55,-54.39 89.66,-98.48 19.11,-44.1 27.93,-102.9 13.23,-167.57 -14.7,-64.68 -52.91,-135.23 -72.02,-170.51 -19.11,-35.28 -19.11,-35.28 -26.46,-7.35 -7.35,27.93 -22.05,83.78 -38.22,136.7 -16.17,52.92 -33.81,102.89 -77.91,139.64 -44.09,36.75 -114.65,60.26 -179.33,74.96 -64.67,14.7 -123.46,20.58 -152.86,23.52 -29.4,2.94 -29.4,2.94 5.87,-11.76 35.28,-14.7 105.84,-44.09 167.57,-79.37 61.74,-35.28 114.65,-76.43 144.05,-124.94 29.4,-48.51 35.28,-104.36 38.22,-169.04 2.94,-64.68 2.94,-138.17 2.94,-186.68 0,-48.51 0,-72.03 0,-83.79 0,-11.76 0,-11.76 36.75,41.16 36.75,52.91 110.24,158.75 158.75,242.54 48.51,83.78 72.03,145.51 79.38,198.43 7.35,52.92 -1.47,97.02 2.94,132.3 4.41,35.28 22.04,61.73 39.68,83.78 17.64,22.05 35.28,39.69 47.04,58.8 11.76,19.11 17.64,39.68 20.58,57.32 2.94,17.64 2.94,32.34 14.7,49.98 11.76,17.64 35.28,38.22 48.51,52.92 13.23,14.7 16.17,23.52 22.05,48.51 5.88,24.99 14.69,66.14 19.1,101.42 4.41,35.28 4.41,64.67 8.82,86.72 4.41,22.05 13.23,36.75 29.4,57.33 16.17,20.58 39.69,47.04 60.27,67.62 20.58,20.58 38.21,35.27 54.38,58.79 16.17,23.52 30.87,55.86 45.57,89.67 14.7,33.81 29.4,69.08 39.69,57.32 10.29,-11.76 16.17,-70.55 -24.99,-204.31 -41.16,-133.77 -129.35,-342.49 -201.38,-513 -72.03,-170.51 -127.88,-302.81 -160.22,-393.94 -32.34,-91.14 -41.15,-141.11 8.82,-47.03 49.98,94.07 158.76,332.19 248.42,535.04 89.66,202.85 160.22,370.42 223.42,527.7 63.21,157.28 119.06,304.27 171.98,463.02 52.92,158.75 102.89,329.26 127.88,414.52 24.99,85.25 24.99,85.25 24.99,2.94 0,-82.32 0,-246.95 -11.76,-376.3 -11.76,-129.35 -35.27,-223.43 -70.55,-341.02 -35.28,-117.59 -82.31,-258.71 -123.47,-370.42 -41.16,-111.71 -76.44,-194.03 -111.72,-282.22 -35.28,-88.19 -70.55,-182.27 -88.19,-229.3 -17.64,-47.04 -17.64,-47.04 36.74,55.86 54.39,102.89 163.17,308.67 245.48,510.05 82.32,201.38 138.17,398.34 170.51,542.4 32.34,144.05 41.16,235.18 51.45,323.38 10.29,88.19 22.05,173.45 41.16,221.96 19.11,48.5 45.56,60.26 66.14,36.74 20.58,-23.52 35.28,-82.31 38.22,-164.62 2.94,-82.32 -5.88,-188.16 -10.29,-288.11 -4.41,-99.95 -4.41,-194.03 -11.76,-263.11 -7.35,-69.09 -22.05,-113.19 -44.1,-148.47 -22.05,-35.28 -51.44,-61.73 -64.67,-94.07 -13.23,-32.34 -10.29,-70.55 -5.88,-105.83 4.41,-35.28 10.29,-67.62 17.64,-82.32 7.35,-14.7 16.17,-11.76 64.67,-2.94 48.51,8.82 136.71,23.52 232.25,60.27 95.54,36.75 198.44,95.54 268.99,154.34 70.56,58.8 108.77,117.59 160.22,185.21 51.45,67.61 116.12,144.05 148.46,183.74 32.34,39.68 32.34,42.62 58.8,38.21 26.46,-4.41 79.37,-16.16 122,-1.46 42.63,14.7 74.97,55.85 104.37,92.6 29.4,36.75 55.85,69.08 77.9,99.95 22.05,30.87 39.69,60.27 41.16,85.26 1.47,24.99 -13.23,45.56 -33.81,55.85 -20.58,10.29 -47.03,10.29 -91.13,22.05 -44.1,11.76 -105.83,35.28 -142.58,57.33 -36.75,22.05 -48.51,42.63 -42.63,27.93 5.88,-14.7 29.4,-64.68 49.98,-107.31 20.58,-42.63 38.21,-77.9 47.03,-110.24 8.82,-32.34 8.82,-61.73 4.41,-86.72 -4.41,-24.99 -13.23,-45.57 -39.69,-70.56 -26.46,-24.99 -70.55,-54.39 -92.6,-69.09 -22.05,-14.7 -22.05,-14.7 -16.17,58.8 5.88,73.49 17.64,220.49 14.7,318.98 -2.94,98.48 -20.58,148.45 -44.1,194.02 -23.52,45.57 -52.91,86.72 -72.02,135.23 -19.11,48.51 -27.93,104.36 -32.34,145.52 -4.41,41.16 -4.41,67.62 -24.99,107.31 -20.58,39.69 -61.73,92.6 -105.83,126.41 -44.1,33.81 -91.13,48.51 -133.76,47.04 -42.63,-1.47 -80.85,-19.11 -124.95,-41.16 -44.1,-22.05 -94.07,-48.51 -148.46,-77.91 -54.39,-29.4 -113.18,-61.73 -177.86,-82.31 -64.67,-20.58 -135.23,-29.4 -164.63,-17.64 -29.39,11.76 -17.64,44.1 7.35,89.67 24.99,45.56 63.21,104.36 39.69,69.08 -23.52,-35.28 -108.77,-164.63 -135.23,-188.15 -26.46,-23.52 5.88,58.8 -22.05,110.25 -27.93,51.44 -116.12,72.02 -216.08,11.76 -99.95,-60.27 -211.67,-201.39 -293.99,-267.53 -82.31,-66.15 -135.22,-57.33 -195.49,-72.03 -60.27,-14.7 -127.88,-52.91 -173.45,-92.6 -45.57,-39.69 -69.08,-80.84 -89.66,-163.15 -20.58,-82.32 -38.22,-205.8 -60.27,-304.28 -22.05,-98.49 -48.5,-171.98 -51.44,-235.19 -2.94,-63.21 17.63,-116.12 69.08,-166.1z"/>
   <path class="fil13" d="M11448.26 10464.45c82.32,20.58 191.1,49.98 282.23,88.2 91.13,38.22 164.63,85.25 217.54,135.23 52.92,49.98 85.26,102.89 113.19,161.69 27.93,58.8 51.44,123.47 73.49,188.15 22.05,64.67 42.63,129.35 64.68,154.34 22.05,24.98 45.57,10.29 91.13,4.41 45.57,-5.88 113.19,-2.94 141.11,39.69 27.93,42.62 16.18,124.94 22.06,180.8 5.88,55.85 29.39,85.25 54.38,85.25 24.99,0 51.45,-29.4 74.97,-42.63 23.52,-13.23 44.09,-10.29 54.38,-35.28 10.29,-24.99 10.29,-77.9 13.23,-73.49 2.94,4.41 8.82,66.14 23.52,91.13 14.7,24.99 38.22,13.23 66.94,-20.27 28.72,-33.51 62.63,-88.76 94.98,-102 32.35,-13.24 63.12,15.54 96.14,59.34 33.02,43.79 68.28,102.6 110.9,155.53 42.62,52.93 92.59,99.96 136.69,127.89 44.1,27.93 82.31,36.75 119.06,14.7 36.75,-22.05 72.03,-74.96 101.92,-137.68 29.89,-62.72 54.38,-135.23 96.27,-157.77 41.9,-22.54 101.18,4.89 165.63,36.15 64.46,31.26 134.08,66.35 205.37,97.71 71.29,31.35 144.26,58.99 201.32,55.17 57.06,-3.83 98.21,-39.1 118.49,-109.71 20.29,-70.62 19.69,-176.56 28.58,-252.9 8.9,-76.35 27.27,-123.08 42.75,-157.57 15.49,-34.49 28.09,-56.72 47.12,-89.15 19.04,-32.44 44.52,-75.06 51.28,-134 6.76,-58.95 -5.19,-134.22 -10.54,-154.82 -5.34,-20.61 -4.08,13.43 -36.32,54.01 -32.24,40.57 -97.98,87.66 -138.21,112.68 -40.22,25.02 -54.91,27.96 -68.14,58.83 -13.23,30.87 -24.99,89.66 -54.39,145.52 -29.4,55.86 -76.43,108.77 -114.65,139.64 -38.22,30.87 -67.62,39.68 -91.14,42.62 -23.52,2.94 -41.16,0.01 -45.57,-20.57 -4.41,-20.58 4.41,-58.8 22.05,-77.91 17.64,-19.11 44.1,-19.11 51.45,-29.4 7.35,-10.29 -4.41,-30.86 -23.52,-39.68 -19.11,-8.82 -45.57,-5.88 -72.03,-23.52 -26.46,-17.64 -52.91,-55.86 -64.67,-113.18 -11.76,-57.33 -8.82,-133.77 14.7,-183.74 23.52,-49.98 67.61,-73.5 72.02,-88.2 4.41,-14.7 -30.86,-20.58 -64.67,-61.74 -33.81,-41.16 -66.15,-117.59 -104.13,-185.45 -37.97,-67.86 -81.57,-127.15 -99.21,-193.29 -17.64,-66.15 -9.31,-139.15 -5.15,-175.65 4.17,-36.51 4.17,-36.51 3.22,67.85 -0.94,104.35 -2.82,313.05 10.4,458.58 13.23,145.52 41.58,227.85 61.63,301.36 20.05,73.5 31.81,138.18 33.28,186.69 1.47,48.5 -7.35,80.84 -27.93,80.84 -20.58,0 -52.91,-32.34 -74.47,-70.56 -21.56,-38.22 -32.34,-82.31 -48.76,-110.48 -16.41,-28.18 -38.45,-40.42 -64.91,-137.43 -26.46,-97.02 -57.33,-278.8 -87.96,-449.06 -30.62,-170.27 -60.99,-329.02 -119.83,-484.35 -58.83,-155.33 -146.12,-307.24 -189.77,-383.19 -43.64,-75.96 -43.64,-75.96 -2.87,29.24 40.77,105.2 122.31,315.61 171.34,490.05 49.04,174.43 65.56,312.91 75.78,444.86 10.23,131.95 14.15,257.39 15.27,329.99 1.12,72.6 -0.55,92.37 -4.72,91.88 -4.16,-0.49 -10.82,-21.24 -49.67,-79.14 -38.84,-57.9 -109.89,-152.96 -171.87,-253.4 -61.98,-100.45 -114.89,-206.28 -158.99,-281.25 -44.1,-74.97 -79.38,-119.06 -108.78,-158.75 -29.4,-39.69 -52.91,-74.96 -77.9,-55.85 -24.99,19.1 -51.45,92.6 -70.56,154.34 -19.11,61.73 -30.86,111.71 -24.98,120.53 5.88,8.82 29.39,-23.52 48.5,-44.1 19.11,-20.58 33.81,-29.4 52.92,0 19.11,29.4 42.62,97.01 67.61,108.77 24.99,11.76 51.45,-32.33 74.97,-29.39 23.52,2.94 44.1,52.91 64.68,117.59 20.58,64.68 41.15,144.05 54.38,204.32 13.23,60.27 19.11,101.42 44.1,130.82 24.99,29.4 69.08,47.04 94.07,92.61 24.99,45.56 30.87,119.06 29.4,166.1 -1.47,47.03 -10.29,67.61 -19.11,92.6 -8.82,24.99 -17.63,54.38 -45.56,70.55 -27.93,16.17 -74.97,19.11 -122.01,0 -47.04,-19.11 -94.07,-60.26 -117.59,-104.36 -23.52,-44.1 -23.52,-91.13 -52.92,-133.76 -29.4,-42.63 -88.19,-80.84 -107.3,-127.88 -19.11,-47.04 1.47,-102.89 24.99,-149.93 23.52,-47.04 49.97,-85.26 67.61,-127.89 17.64,-42.63 26.46,-89.66 16.17,-92.6 -10.29,-2.94 -39.68,38.21 -58.79,61.73 -19.11,23.52 -27.93,29.4 -49.98,10.29 -22.05,-19.11 -57.32,-63.2 -69.08,-63.2 -11.76,0 -0.01,44.09 2.93,83.78 2.94,39.69 -2.93,74.97 -14.69,113.19 -11.76,38.22 -29.4,79.37 -47.04,88.19 -17.64,8.82 -35.28,-14.7 -49.98,-51.45 -14.7,-36.75 -26.46,-86.72 -26.46,-158.74 0,-72.03 11.76,-166.11 22.05,-235.19 10.29,-69.09 19.11,-113.18 0,-95.54 -19.11,17.63 -66.14,97.01 -89.66,163.16 -23.52,66.14 -23.52,119.05 -20.58,174.91 2.94,55.86 8.82,114.65 20.58,158.75 11.76,44.1 29.39,73.5 32.33,89.67 2.94,16.17 -8.81,19.11 -26.45,16.17 -17.64,-2.94 -41.16,-11.76 -71.54,-20.09 -30.38,-8.33 -67.61,-16.16 -101.42,-29.39 -33.81,-13.23 -64.19,-31.86 -99.96,-64.69 -35.77,-32.83 -76.92,-79.86 -143.07,-131.31 -66.14,-51.45 -157.28,-107.3 -242.54,-144.05 -85.25,-36.75 -164.62,-54.39 -245.47,-60.27 -80.84,-5.88 -163.16,0 -205.79,4.41 -42.62,4.41 -45.56,7.35 -19.1,14.7 26.46,7.35 82.31,19.11 164.62,39.69z"/>
   <path class="fil12" d="M11636.42 8943.1c19.22,-0.75 169.37,-87.5 249.48,-136.37 80.12,-48.88 90.2,-59.87 98.17,-87.41 7.98,-27.55 13.86,-71.65 7.98,-120.16 -5.88,-48.51 -23.52,-101.42 -39.69,-144.05 -16.17,-42.63 -30.87,-74.96 -38.22,-72.02 -7.35,2.94 -7.35,41.15 -2.94,92.6 4.41,51.45 13.23,116.12 2.2,167.94 -11.02,51.81 -41.9,90.76 -113.2,152.87 -71.29,62.1 -183,147.35 -163.78,146.6z"/>
   <path class="fil12" d="M11781.84 8151.61c-26.46,-27.93 -49.97,-51.45 -74.96,-60.27 -24.99,-8.82 -51.45,-2.94 -77.91,-11.76 -26.46,-8.82 -52.91,-32.34 -72.02,-64.68 -19.11,-32.34 -30.87,-73.49 -49.98,-92.6 -19.11,-19.11 -45.57,-16.17 -63.21,-47.04 -17.64,-30.87 -26.46,-95.54 -32.34,-152.87 -5.88,-57.33 -8.82,-107.3 -13.23,-102.89 -4.41,4.41 -10.28,63.2 -22.04,117.59 -11.76,54.39 -29.4,104.36 -58.8,148.46 -29.4,44.1 -70.55,82.31 -107.3,120.53 -36.75,38.22 -69.09,76.44 -47.04,74.97 22.05,-1.47 98.48,-42.63 149.93,-72.03 51.45,-29.4 77.9,-47.03 101.42,-49.97 23.52,-2.94 44.1,8.82 55.86,42.63 11.76,33.81 14.7,89.66 -14.7,138.17 -29.4,48.51 -91.13,89.66 -95.54,94.07 -4.41,4.41 48.5,-27.93 91.13,-45.57 42.63,-17.64 74.96,-20.58 107.3,-19.11 32.34,1.47 64.68,7.35 80.85,23.52 16.17,16.17 16.17,42.63 7.35,64.68 -8.82,22.05 -26.46,39.69 -14.7,38.22 11.76,-1.47 52.91,-22.05 82.31,-30.87 29.4,-8.82 47.04,-5.88 51.45,23.52 4.41,29.4 -4.41,85.25 -36.75,132.29 -32.34,47.04 -88.19,85.25 -145.52,113.18 -57.33,27.93 -116.12,45.57 -174.92,55.86 -58.8,10.29 -117.59,13.23 -146.99,14.7 -29.4,1.47 -29.4,1.47 19.11,4.41 48.51,2.94 145.52,8.82 233.71,-5.88 88.2,-14.7 167.58,-49.98 231.78,-82.43 64.2,-32.45 113.23,-62.08 130.87,-107.64 17.64,-45.57 3.89,-107.08 -17.69,-154 -21.57,-46.93 -50.97,-79.26 -77.43,-107.19z"/>
   <path class="fil12" d="M11564.28 7712.83c30.87,25.72 63.21,66.88 101.43,108.78 38.22,41.89 82.31,84.51 108.77,108.77 26.46,24.25 35.28,30.13 22.78,36.75 -12.49,6.61 -46.3,13.96 -68.35,12.49 -22.05,-1.47 -32.34,-11.76 -29.4,-27.19 2.94,-15.44 19.11,-36.02 21.31,-52.92 2.21,-16.91 -9.55,-30.14 -24.99,-33.81 -15.43,-3.68 -34.53,2.2 -55.85,-5.88 -21.31,-8.09 -44.83,-30.13 -67.62,-54.38 -22.78,-24.26 -44.82,-50.72 -60.99,-74.24 -16.17,-23.52 -26.46,-44.09 -16.91,-49.23 9.56,-5.15 38.95,5.13 69.82,30.86z"/>
   <path class="fil12" d="M12697.57 8103.12c32.34,55.86 79.37,120.53 129.35,199.91 49.98,79.37 102.89,173.45 158.75,263.11 55.86,89.66 114.65,174.92 189.61,251.36 74.97,76.43 166.11,144.04 217.55,180.79 51.45,36.75 63.21,42.63 17.64,-7.34 -45.56,-49.98 -148.46,-155.82 -226.37,-261.65 -77.9,-105.83 -130.81,-211.67 -157.27,-273.4 -26.46,-61.74 -26.46,-79.38 1.47,-77.91 27.93,1.47 83.78,22.05 97.01,7.35 13.23,-14.7 -16.17,-64.67 -13.23,-83.78 2.94,-19.11 38.21,-7.35 54.38,-23.52 16.17,-16.17 13.24,-60.27 14.71,-83.79 1.47,-23.52 7.34,-26.45 23.51,-48.5 16.17,-22.05 42.63,-63.21 67.62,-72.03 24.99,-8.82 48.5,14.7 74.96,4.41 26.46,-10.29 55.86,-54.38 72.03,-122 16.17,-67.62 19.11,-158.75 7.35,-204.32 -11.76,-45.57 -38.22,-45.57 -54.39,-26.46 -16.17,19.11 -22.05,57.33 -45.57,79.38 -23.52,22.05 -64.67,27.93 -102.89,41.16 -38.22,13.23 -73.49,33.8 -88.19,60.26 -14.7,26.46 -8.82,58.8 -29.4,82.32 -20.58,23.52 -67.61,38.21 -91.13,57.32 -23.52,19.11 -23.52,42.63 -33.81,63.21 -10.29,20.58 -30.87,38.22 -42.63,60.27 -11.76,22.05 -14.7,48.5 -42.63,29.39 -27.93,-19.11 -80.84,-83.78 -129.35,-132.29 -48.51,-48.51 -92.6,-80.84 -114.65,-97.01 -22.05,-16.17 -22.05,-16.17 -13.23,7.35 8.82,23.52 26.46,70.55 58.8,126.41z"/>
   <path class="fil12" d="M12575.56 8375.06c55.86,77.9 92.6,145.52 135.23,225.63 42.63,80.11 91.13,172.71 116.12,226.37 24.99,53.65 26.46,68.35 -2.21,36.75 -28.66,-31.61 -87.45,-109.51 -146.25,-199.91 -58.8,-90.4 -117.59,-193.3 -169.04,-285.9 -51.45,-92.61 -95.54,-174.92 -80.11,-171.98 15.44,2.94 90.4,91.13 146.26,169.04z"/>
   <path class="fil12" d="M12721.08 8430.18c48.51,69.82 99.95,140.37 152.13,198.44 52.19,58.06 105.1,103.62 134.5,133.02 29.4,29.4 35.28,42.63 12.49,6.62 -22.78,-36.01 -74.22,-121.27 -118.32,-186.68 -44.1,-65.41 -80.84,-110.98 -112.45,-149.2 -31.6,-38.22 -58.06,-69.08 -91.87,-102.89 -33.81,-33.81 -74.96,-70.56 -72.76,-54.39 2.21,16.17 47.77,85.25 96.28,155.08z"/>
   <path class="fil12" d="M13164.26 9140.15c52.18,53.65 87.46,108.03 124.94,141.11 37.49,33.07 77.17,44.82 114.65,60.99 37.49,16.17 72.76,36.75 106.57,56.6 33.81,19.84 66.15,38.95 94.08,74.97 27.93,36.01 51.44,88.92 55.11,108.03 3.68,19.11 -12.48,4.41 -35.27,-5.88 -22.78,-10.29 -52.18,-16.17 -75.7,-33.81 -23.52,-17.64 -41.15,-47.04 -80.11,-62.47 -38.95,-15.44 -99.21,-16.9 -124.2,0.74 -24.99,17.64 -14.71,54.38 -0.01,72.76 14.7,18.37 33.81,18.37 69.82,19.11 36.02,0.73 88.93,2.2 149.93,22.05 61.01,19.84 130.09,58.05 207.99,112.44 77.91,54.39 164.64,124.94 224.17,188.15 59.53,63.21 91.87,119.06 108.77,153.61 16.91,34.54 18.38,47.76 -18.37,13.96 -36.75,-33.81 -111.71,-114.66 -219.02,-185.21 -107.3,-70.56 -246.94,-130.82 -335.14,-160.95 -88.19,-30.14 -124.94,-30.14 -146.26,-29.4 -21.31,0.73 -27.19,2.2 -51.45,-27.93 -24.25,-30.14 -66.87,-91.87 -99.95,-167.57 -33.07,-75.7 -56.58,-165.37 -91.13,-249.15 -34.54,-83.79 -80.11,-161.69 -110.25,-204.32 -30.13,-42.63 -44.82,-49.97 -17.63,-27.18 27.19,22.78 96.28,75.69 148.46,129.35z"/>
   <path class="fil9" d="M12505.71 8679.35c-25.72,-58.8 -69.81,-132.29 -116.12,-185.21 -46.3,-52.92 -94.8,-85.25 -93.33,-60.26 1.47,24.98 52.91,107.3 99.95,176.39 47.04,69.08 89.66,124.93 113.91,158.74 24.26,33.81 30.14,45.57 29.4,29.4 -0.73,-16.17 -8.08,-60.26 -33.81,-119.06z"/>
   <path class="fil9" d="M12694.6 8828.54c33.81,59.53 88.19,143.32 135.23,213.88 47.04,70.55 86.73,127.87 104.37,124.94 17.64,-2.94 13.23,-66.15 -2.94,-113.18 -16.17,-47.04 -44.1,-77.91 -76.53,-123.22 -32.42,-45.31 -69.34,-105.06 -106.82,-146.21 -37.48,-41.16 -75.53,-63.73 -87.94,-57.37 -12.4,6.36 0.82,41.63 34.63,101.16z"/>
   <path class="fil9" d="M12877.33 8768.74c29.87,60 82.26,150.59 112.02,200.57 29.77,49.97 36.93,59.32 41.6,44.89 4.68,-14.43 6.88,-52.64 -8.93,-91.59 -15.8,-38.95 -49.6,-78.63 -84.15,-124.2 -34.54,-45.57 -69.82,-97.01 -83.79,-108.03 -13.96,-11.03 -6.61,18.36 23.25,78.36z"/>
   <path class="fil9" d="M11640.68 7400.53c58.8,24.99 85.25,48.51 88.19,76.44 2.94,27.93 -17.63,60.26 -51.44,69.08 -33.81,8.82 -80.84,-5.87 -124.94,-33.8 -44.1,-27.93 -85.26,-69.09 -110.25,-102.9 -24.99,-33.81 -33.81,-60.26 7.35,-60.26 41.16,0 132.29,26.45 191.09,51.44z"/>
   <path class="fil9" d="M11940.54 7625.43c23.52,26.46 32.34,73.49 11.76,98.48 -20.58,24.99 -70.55,27.93 -97.01,4.41 -26.46,-23.52 -29.4,-73.49 -27.93,-101.42 1.47,-27.93 7.35,-33.81 29.4,-33.81 22.05,0 60.26,5.88 83.78,32.34z"/>
   <path class="fil14" d="M13841.12 8842.52c80.85,-29.4 221.96,-55.86 313.09,-105.83 91.14,-49.98 132.29,-123.48 151.4,-185.21 19.11,-61.74 16.17,-111.71 4.41,-186.68 -11.76,-74.97 -32.33,-174.92 -32.33,-271.93 0,-97.02 20.57,-191.1 44.09,-254.3 23.52,-63.21 49.98,-95.54 79.38,-114.65 29.4,-19.11 61.73,-24.99 89.66,-38.22 27.93,-13.23 51.45,-33.81 70.56,-95.54 19.11,-61.74 33.81,-164.64 107.3,-266.06 73.5,-101.42 205.79,-201.38 371.89,-346.9 166.1,-145.52 366.01,-336.61 480.66,-452.73 114.66,-116.13 144.05,-157.28 132.29,-182.27 -11.76,-24.99 -64.67,-33.81 -92.6,-69.09 -27.93,-35.28 -30.87,-97.01 2.94,-155.81 33.81,-58.8 104.36,-114.65 183.73,-179.33 79.38,-64.68 167.58,-138.17 238.13,-213.13 70.56,-74.97 123.47,-151.41 124.94,-195.5 1.47,-44.1 -48.5,-55.86 -126.41,-39.69 -77.9,16.17 -183.74,60.26 -339.55,124.94 -155.81,64.68 -361.59,149.93 -601.19,249.89 -239.59,99.95 -513,214.61 -727.61,338.08 -214.6,123.47 -370.42,255.76 -483.6,377.76 -113.18,122 -183.74,233.72 -214.61,333.68 -30.86,99.95 -22.04,188.14 -14.69,245.47 7.35,57.33 13.22,83.78 5.87,130.82 -7.35,47.04 -27.92,114.65 -42.62,179.33 -14.7,64.68 -23.52,126.41 -44.74,190.03 -21.21,63.61 -54.82,129.1 -73.93,178.83 -19.1,49.72 -23.69,83.69 -44.25,120.76 -20.55,37.06 -57.05,77.22 -92.82,108.83 -35.77,31.6 -70.8,54.64 -92.24,74.25 -21.43,19.6 -29.26,35.76 -33.47,51.06 -4.2,15.3 -4.78,29.72 -16.3,47.61 -11.51,17.88 -33.96,39.23 -42.99,63.87 -9.02,24.63 -4.61,52.55 -2.95,59.55 1.66,7 0.58,-6.94 -15.59,-8.16 -16.17,-1.23 -47.42,10.26 -51.44,52.49 -4.01,42.23 19.2,115.2 63.42,196.09 44.22,80.88 109.43,169.66 161.52,235.34 52.09,65.67 91.04,108.22 161.96,120.44 70.92,12.22 173.81,-5.9 235.54,-31.13 61.73,-25.23 82.31,-57.56 163.15,-86.96z"/>
   <path class="fil15" d="M14833.28 6372.34c-49.97,38.95 -136.7,88.93 -220.49,128.62 -83.78,39.69 -164.62,69.08 -219.75,81.58 -55.12,12.49 -84.51,8.08 -97.01,-3.68 -12.49,-11.76 -8.08,-30.87 65.41,-73.49 73.5,-42.63 216.08,-108.78 318.97,-150.67 102.9,-41.89 166.1,-59.53 191.09,-54.38 24.99,5.14 11.76,33.06 -38.22,72.02z"/>
   <path class="fil15" d="M13720.53 8115.32c18.38,32.34 27.2,64.68 26.46,96.29 -0.73,31.6 -11.02,62.46 -37.48,88.19 -26.46,25.72 -69.08,46.3 -103.63,42.63 -34.54,-3.68 -60.99,-31.61 -74.96,-66.89 -13.96,-35.28 -15.43,-77.9 -24.99,-83.78 -9.55,-5.88 -27.19,24.98 -53.65,58.79 -26.46,33.81 -61.73,70.56 -80.84,98.49 -19.11,27.93 -22.05,47.03 -24.99,12.49 -2.94,-34.54 -5.88,-122.74 -5.75,-178.91 0.14,-56.18 3.35,-80.33 16.96,-112.74 13.61,-32.42 37.62,-73.08 54.34,-113.02 16.72,-39.95 26.15,-79.16 32.83,-103.57 6.68,-24.41 10.61,-34.01 18.74,15.81 8.14,49.81 20.47,159.04 33.25,218.8 12.79,59.76 26.02,70.05 39.98,55.35 13.97,-14.7 28.66,-54.39 47.03,-79.38 18.38,-24.99 40.43,-35.27 65.42,-24.24 24.99,11.02 52.91,43.35 71.28,75.69z"/>
   <path class="fil16" d="M13414.06 8434.29c52.92,16.17 120.53,20.58 187.41,14.7 66.89,-5.88 133.03,-22.04 185.95,-55.11 52.92,-33.08 92.6,-83.06 119.06,-124.95 26.46,-41.9 39.69,-75.7 78.64,-86.72 38.96,-11.03 103.63,0.73 141.85,29.4 38.22,28.66 49.98,74.22 59.53,142.57 9.56,68.35 16.91,159.49 -17.64,224.17 -34.54,64.67 -110.97,102.89 -196.23,122 -85.25,19.11 -179.33,19.11 -244.74,31.61 -65.41,12.49 -102.16,37.47 -174.19,22.04 -72.02,-15.44 -179.33,-71.29 -248.42,-135.23 -69.08,-63.94 -99.94,-135.97 -97,-180.06 2.94,-44.1 39.68,-60.27 77.16,-54.39 37.49,5.88 75.7,33.8 128.62,49.97z"/>
   <path class="fil16" d="M13820.26 7752.76c100.91,18.62 203.81,18.62 300.95,10.71 97.15,-7.91 188.55,-23.73 250.28,-81.05 61.74,-57.33 93.82,-156.17 67.22,-243.8 -26.59,-87.64 -111.84,-164.07 -238.26,-172.89 -126.41,-8.82 -293.98,49.97 -406.54,95.23 -112.56,45.25 -170.11,76.95 -206.34,124.48 -36.23,47.52 -51.15,110.87 -9.15,161.16 42.01,50.29 140.94,87.54 241.84,106.16z"/>
   <path class="fil16" d="M13956.44 7148.14c117.6,-29.4 285.17,-55.86 468.91,-120.53 183.74,-64.68 383.65,-167.58 545.34,-291.05 161.69,-123.47 285.16,-267.52 336.6,-346.89 51.45,-79.38 30.88,-94.08 -16.16,-88.2 -47.04,5.88 -120.53,32.33 -207.26,97.01 -86.72,64.68 -186.68,167.57 -321.91,236.66 -135.23,69.09 -305.74,104.36 -465.96,122 -160.22,17.64 -310.15,17.64 -406.61,11.16 -96.45,-6.48 -139.43,-19.45 -175.8,3.76 -36.37,23.2 -66.14,82.57 -83.47,153.17 -17.33,70.59 -22.22,152.42 -7.9,207.12 14.32,54.7 47.86,82.28 98.44,79.9 50.58,-2.38 118.19,-34.71 235.78,-64.11z"/>
   <path class="fil16" d="M15317.23 5975.33c137.81,-14.53 284.09,-25.95 368.01,-96.97 83.93,-71.03 105.52,-201.67 57.37,-206.25 -48.15,-4.59 -166.03,116.89 -314.64,196.74 -148.6,79.84 -327.93,118.05 -352.92,128.34 -24.99,10.29 104.37,-7.34 242.18,-21.86z"/>
   <path class="fil17" d="M8788.19 8056.56c97.01,-17.64 208.72,-41.15 311.62,0.01 102.89,41.15 196.96,146.99 264.58,226.37 67.62,79.37 108.77,132.28 170.51,105.83 61.73,-26.46 144.05,-132.3 241.06,-194.03 97.01,-61.74 208.73,-79.38 338.08,-73.5 129.35,5.88 276.35,35.28 435.1,85.26 158.75,49.97 329.25,120.53 474.43,187.82 145.19,67.28 265.05,131.3 324.35,100.11 59.31,-31.19 58.07,-157.58 17.15,-242.34 -40.91,-84.77 -121.48,-127.91 -180.79,-234.89 -59.31,-106.98 -97.34,-277.82 -119.3,-410.27 -21.96,-132.45 -27.84,-226.53 -57.24,-311.78 -29.4,-85.25 -82.31,-161.69 -135.23,-255.76 -52.92,-94.07 -105.83,-205.79 -126.41,-285.16 -20.58,-79.38 -8.82,-126.41 20.58,-146.99 29.4,-20.58 76.43,-14.71 82.31,-105.84 5.88,-91.14 -29.39,-279.28 -94.07,-540.92 -64.67,-261.65 -158.75,-596.79 -211.67,-849.61 -52.91,-252.83 -64.67,-423.34 -129.34,-564.45 -64.68,-141.11 -182.28,-252.83 -288.11,-308.68 -105.83,-55.86 -199.91,-55.86 -323.38,-38.22 -123.47,17.64 -276.34,52.92 -490.94,149.94 -214.61,97.01 -490.96,255.76 -746.72,438.03 -255.77,182.27 -490.95,388.05 -652.64,561.5 -161.69,173.45 -249.89,314.56 -320.44,488.01 -70.56,173.45 -123.47,379.24 -155.81,532.11 -32.34,152.87 -44.1,252.83 -44.1,346.9 0,94.07 11.76,182.27 35.28,264.59 23.52,82.31 58.79,158.74 111.71,185.2 52.92,26.46 123.47,2.94 173.45,-35.28 49.98,-38.22 79.38,-91.13 91.14,-61.73 11.76,29.39 5.88,141.11 -17.64,220.49 -23.52,79.37 -64.68,126.4 -114.65,161.68 -49.98,35.28 -108.78,58.8 -155.81,88.2 -47.04,29.4 -82.32,64.67 -91.14,102.89 -8.82,38.22 8.82,79.37 35.28,117.59 26.46,38.22 61.73,73.5 120.53,97.02 58.8,23.52 141.11,35.27 188.15,73.49 47.04,38.22 58.79,102.89 64.67,161.69 5.88,58.8 5.88,111.71 41.16,132.29 35.28,20.58 105.83,8.82 155.81,0 49.98,-8.82 79.38,-14.69 102.9,-64.67 23.52,-49.98 41.15,-144.05 82.31,-188.15 41.16,-44.1 105.83,-38.22 161.69,-8.82 55.86,29.4 102.89,82.31 167.57,102.89 64.68,20.58 146.99,8.82 244.01,-8.82z"/>
   <path class="fil18" d="M10275.7 7780.24c-2.94,-8.82 -73.49,-17.63 -122,-61.73 -48.51,-44.1 -74.96,-123.47 -72.02,-186.68 2.94,-63.21 35.27,-110.24 4.41,-135.23 -30.87,-24.99 -124.95,-27.93 -213.14,-39.69 -88.19,-11.76 -170.51,-32.34 -216.07,-55.86 -45.57,-23.52 -54.39,-49.97 -88.2,-63.2 -33.81,-13.23 -92.6,-13.23 -122,2.94 -29.4,16.17 -29.4,48.5 -19.11,85.25 10.29,36.75 30.86,77.9 66.14,110.24 35.28,32.34 85.26,55.86 120.54,86.73 35.28,30.87 55.85,69.08 94.07,104.36 38.22,35.28 94.07,67.62 102.89,95.55 8.82,27.93 -29.39,51.44 -72.02,88.19 -42.63,36.75 -89.66,86.72 -132.29,136.7 -42.63,49.98 -80.85,99.96 -92.61,138.18 -11.76,38.22 2.94,64.67 -1.47,17.64 -4.41,-47.04 -27.92,-167.58 -58.79,-249.89 -30.87,-82.32 -69.09,-126.41 -88.2,-173.45 -19.11,-47.04 -19.11,-97.01 -4.41,-139.64 14.7,-42.63 44.1,-77.9 49.98,-99.95 5.88,-22.05 -11.76,-30.87 -36.75,-33.81 -24.99,-2.94 -57.32,0 -82.31,-14.7 -24.99,-14.7 -42.63,-47.04 -49.98,-79.38 -7.35,-32.34 -4.41,-64.67 -4.41,-91.13 0,-26.46 -2.94,-47.04 20.58,-60.27 23.52,-13.23 73.49,-19.11 97.01,-52.92 23.52,-33.81 20.58,-95.54 55.86,-132.29 35.28,-36.75 108.77,-48.5 149.93,-55.85 41.16,-7.35 49.98,-10.29 32.34,20.58 -17.64,30.87 -61.74,95.54 -79.38,152.87 -17.64,57.33 -8.82,107.3 17.64,110.24 26.46,2.94 70.55,-41.16 99.95,-35.28 29.4,5.88 44.1,61.73 64.68,89.66 20.58,27.93 47.04,27.93 69.09,13.23 22.05,-14.7 39.68,-44.09 88.19,-49.97 48.51,-5.88 127.88,11.76 186.68,24.99 58.8,13.23 97.01,22.04 133.76,10.28 36.75,-11.76 72.03,-44.09 101.43,-76.43 29.4,-32.34 52.91,-64.67 82.31,-104.36 29.4,-39.69 64.68,-86.73 91.14,-123.48 26.46,-36.75 44.09,-63.2 82.31,-63.2 38.22,0 97.01,26.45 157.28,55.85 60.27,29.39 122.02,61.73 165.05,98.76 43.04,37.02 67.38,78.73 95.57,147.16 28.19,68.43 60.25,163.56 100.99,245.6 40.75,82.04 90.19,150.98 116.38,222.2 26.19,71.22 29.13,144.71 26.89,209.07 -2.23,64.35 -9.65,119.56 -11.12,168.07 -1.47,48.5 3.01,90.31 -6.52,118.56 -9.52,28.25 -33.03,42.95 -58.02,54.71 -24.99,11.76 -51.45,20.58 -67.43,50.9 -15.98,30.32 -21.47,82.14 -42.05,90.96 -20.58,8.82 -56.24,-25.37 -95.29,-42.25 -39.05,-16.88 -81.5,-16.45 -115.86,-21.34 -34.36,-4.89 -60.63,-15.08 -100.65,-29.5 -40.02,-14.43 -93.79,-33.08 -130.73,-45.43 -36.93,-12.35 -57.05,-18.41 -54.61,-46.82 2.45,-28.42 27.46,-79.19 26.73,-113.4 -0.73,-34.21 -27.19,-51.85 -71.29,-73.9 -44.1,-22.05 -105.83,-48.5 -161.69,-61.73 -55.86,-13.23 -105.83,-13.23 -130.82,-29.4 -24.99,-16.17 -24.99,-48.51 7.35,-69.09 32.34,-20.58 97.01,-29.4 94.07,-38.22z"/>
   <path class="fil19" d="M10475.58 5425.47c14.7,126.41 29.4,208.72 32.34,267.52 2.94,58.8 -5.88,94.07 -38.22,130.82 -32.34,36.75 -88.19,74.97 -124.94,110.25 -36.75,35.28 -54.39,67.61 -82.32,58.79 -27.93,-8.82 -66.14,-58.79 -104.36,-99.95 -38.22,-41.16 -76.44,-73.49 -104.37,-110.24 -27.93,-36.75 -45.56,-77.91 -86.72,-95.55 -41.16,-17.64 -105.83,-11.76 -141.11,13.23 -35.28,24.99 -41.16,69.08 -79.38,110.24 -38.22,41.16 -108.77,79.38 -179.32,110.25 -70.56,30.87 -141.12,54.38 -207.26,70.55 -66.15,16.17 -127.88,24.99 -189.62,-8.81 -61.74,-33.81 -123.47,-110.25 -136.7,-211.67 -13.23,-101.42 22.04,-227.84 124.94,-343.96 102.89,-116.12 273.4,-221.96 367.48,-338.08 94.07,-116.12 111.71,-242.54 36.75,-317.5 -74.97,-74.97 -242.54,-98.49 -334.74,-142.92 -92.21,-44.43 -109.04,-109.77 -54.65,-161.21 54.38,-51.45 179.99,-89.01 296.7,-131.31 116.71,-42.3 224.53,-89.35 359.76,-40.84 135.23,48.5 297.88,192.57 402.73,318.99 104.84,126.41 151.87,235.19 182.74,374.83 30.87,139.64 45.57,310.15 60.27,436.57z"/>
   <path class="fil20" d="M8542.63 5678.31c86.72,11.76 198.44,47.03 267.53,88.19 69.08,41.16 95.53,88.19 130.81,127.88 35.28,39.69 79.37,72.03 123.47,113.19 44.1,41.16 88.19,91.13 121.42,92.29 33.23,1.16 55.59,-46.49 65.88,-106.76 10.29,-60.27 8.51,-133.14 26.73,-200.45 18.22,-67.31 56.43,-129.04 100.53,-174.61 44.1,-45.57 94.07,-74.96 149.93,-95.54 55.86,-20.58 117.59,-32.34 168.07,-1.23 50.47,31.11 89.67,105.09 141.01,146.86 51.33,41.76 114.8,51.3 173.1,12.84 58.3,-38.46 111.44,-124.92 132.13,-204.9 20.69,-79.98 8.93,-153.48 -2.83,-224.03 -11.76,-70.56 -23.51,-138.17 -26.45,-204.32 -2.94,-66.15 2.94,-130.82 -17.64,-145.52 -20.58,-14.7 -67.62,20.57 -124.94,47.03 -57.33,26.46 -124.95,44.1 -194.76,12.99 -69.82,-31.12 -141.83,-110.99 -171.07,-139.24 -29.24,-28.25 -15.71,-4.87 24.71,21.84 40.42,26.7 107.72,56.74 151.66,37.95 43.94,-18.79 64.51,-86.4 58.63,-137.85 -5.88,-51.45 -38.21,-86.72 -99.95,-113.18 -61.74,-26.46 -152.87,-44.1 -252.31,-70.05 -99.44,-25.95 -207.17,-60.2 -301.91,-63.3 -94.74,-3.1 -176.49,24.97 -292.97,89.34 -116.49,64.36 -267.73,165.04 -437.06,297.97 -169.34,132.92 -356.79,298.11 -496.32,445.02 -139.53,146.91 -231.16,275.56 -306.64,428.3 -75.48,152.73 -134.83,329.57 -168.39,435.27 -33.56,105.69 -41.35,140.26 14.52,87 55.87,-53.27 175.4,-194.37 266.03,-281.08 90.63,-86.72 152.36,-119.05 217.04,-141.1 64.68,-22.05 132.29,-33.81 191.09,-60.27 58.8,-26.46 108.77,-67.61 164.63,-94.07 55.86,-26.46 117.59,-38.22 204.32,-26.46z"/>
   <path class="fil21" d="M7569.99 6734.39c53.95,-47.73 103.92,-109.46 140.67,-187.36 36.75,-77.91 60.26,-171.99 67.21,-265.82 6.94,-93.83 -2.69,-187.41 14.95,-271.19 17.64,-83.79 62.54,-157.78 95.29,-227.11 32.74,-69.33 53.32,-134 82.72,-189.86 29.4,-55.86 67.61,-102.89 107.3,-130.82 39.69,-27.93 80.85,-36.74 130.83,-41.15 49.97,-4.41 108.77,-4.41 130.82,-27.93 22.04,-23.52 7.35,-70.56 2.94,-108.78 -4.41,-38.22 1.47,-67.61 29.4,-97.01 27.93,-29.4 77.9,-58.79 107.3,-99.95 29.4,-41.16 38.22,-94.07 64.68,-113.18 26.46,-19.11 70.55,-4.42 116.12,-19.12 45.57,-14.7 92.6,-58.79 136.7,-101.42 44.1,-42.63 85.25,-83.78 95.54,-105.83 10.29,-22.05 -10.29,-24.99 -37.5,-35.14 -27.21,-10.16 -61.06,-27.53 -128.6,0.1 -67.54,27.63 -168.77,100.25 -209.17,154.51 -40.41,54.25 -19.98,90.12 -22.99,111 -3.02,20.88 -29.48,26.76 -55.94,32.64 -26.46,5.88 -52.91,11.76 -72.02,35.28 -19.11,23.52 -30.87,64.67 -41.16,91.13 -10.29,26.46 -19.11,38.22 -39.61,29.5 -20.51,-8.72 -52.69,-37.91 -76.21,-34.97 -23.52,2.94 -38.37,38.01 -57.55,71.72 -19.19,33.71 -42.71,66.04 -90.74,104.12 -48.04,38.07 -120.59,81.87 -173.5,142.14 -52.92,60.27 -86.21,136.99 -104.32,201.82 -18.11,64.82 -21.05,117.73 -21.45,173.83 -0.41,56.1 1.72,115.39 -41.04,161.62 -42.77,46.23 -130.42,79.4 -185.37,140.89 -54.95,61.48 -77.18,151.27 -92.02,215.49 -14.85,64.21 -22.29,102.85 -29.64,160.67 -7.35,57.81 -14.61,134.81 -16.83,195.56 -2.23,60.75 0.57,105.27 9.9,159.67 9.32,54.4 25.17,118.69 33.1,150.84 7.92,32.14 7.92,32.14 0,0 -7.93,-32.15 -23.78,-96.44 -2.74,-145.44 21.04,-49.01 78.97,-82.72 132.93,-130.45z"/>
   <path class="fil22" d="M8508.07 7686.22c41.16,-41.16 79.38,-88.19 88.2,-141.11 8.82,-52.92 -11.76,-111.71 -49.98,-149.93 -38.22,-38.22 -94.07,-55.86 -139.64,-89.67 -45.57,-33.81 -80.84,-83.78 -104.36,-127.88 -23.52,-44.1 -35.28,-82.31 -32.34,-119.06 2.94,-36.75 20.58,-72.03 51.45,-61.74 30.87,10.29 74.96,66.14 119.06,122 44.1,55.86 88.19,111.71 133.76,144.05 45.57,32.34 92.6,41.16 133.76,38.22 41.16,-2.94 76.43,-17.64 119.06,-17.64 42.63,0 92.6,14.7 141.11,-24.98 48.51,-39.69 95.54,-133.77 133.76,-211.67 38.22,-77.91 67.62,-139.64 86.73,-188.15 19.11,-48.51 27.93,-83.78 29.4,-119.06 1.47,-35.28 -4.41,-70.56 7.35,-88.2 11.76,-17.64 41.15,-17.64 55.85,-33.81 14.7,-16.17 14.7,-48.5 -14.7,-57.32 -29.4,-8.82 -88.19,5.88 -141.11,4.41 -52.92,-1.47 -99.95,-19.11 -141.11,-72.02 -41.16,-52.92 -76.43,-141.12 -117.59,-179.33 -41.16,-38.22 -88.19,-26.46 -129.35,-4.41 -41.16,22.05 -76.43,54.38 -136.7,92.6 -60.27,38.22 -145.52,82.31 -219.02,99.95 -73.5,17.64 -135.23,8.82 -169.04,-10.29 -33.81,-19.11 -39.69,-48.5 -24.99,-74.96 14.7,-26.46 49.98,-49.98 51.45,-70.56 1.47,-20.58 -30.87,-38.21 -77.91,-54.38 -47.04,-16.17 -108.77,-30.87 -174.73,-39.81 -65.96,-8.95 -136.15,-12.14 -171.24,-13.73 -35.09,-1.6 -35.09,-1.6 -39.08,28.57 -3.99,30.17 -11.97,90.51 -23.54,142.33 -11.58,51.81 -26.75,95.1 -49.61,139.84 -22.86,44.73 -53.4,90.92 -88.95,132.07 -35.56,41.14 -76.13,77.26 -106.45,107.14 -30.33,29.87 -50.42,53.51 -62.13,84.63 -11.72,31.11 -15.05,69.69 -10.15,106.23 4.89,36.54 18.03,71.03 36.65,101.9 18.61,30.86 42.72,58.11 54.77,71.73 12.05,13.62 12.05,13.62 40.96,7.74 28.91,-5.88 86.72,-17.64 123.13,-30.4 36.4,-12.77 51.4,-26.54 66.59,-36.83 15.19,-10.29 30.57,-17.09 38.73,-2.01 8.15,15.08 9.06,52.06 -1.02,104 -10.09,51.93 -31.18,118.83 -53.68,164.04 -22.51,45.21 -46.44,68.72 -71.26,88.04 -24.82,19.32 -50.55,34.43 -85.73,56.35 -35.19,21.91 -79.85,50.63 -102.17,64.99 -22.33,14.35 -22.33,14.35 -27.37,34.63 -5.05,20.27 -15.15,60.83 -6.44,100 8.7,39.17 36.2,76.97 61.25,102.4 25.04,25.42 47.63,38.47 75.05,50.12 27.42,11.64 59.66,21.87 99.03,46.45 39.37,24.58 85.86,63.5 111.88,97.59 26.01,34.08 31.54,63.31 41.17,99.98 9.63,36.67 23.35,80.76 56.18,102.81 32.83,22.05 84.76,22.05 101.29,-6.35 16.52,-28.41 -2.38,-85.23 -0.06,-126.86 2.31,-41.64 25.82,-68.09 50.81,-91.61 24.99,-23.52 51.45,-44.1 80.01,-44.6 28.55,-0.5 59.21,19.07 87.6,23.53 28.39,4.46 54.51,-6.2 67.58,-11.53 13.06,-5.33 13.06,-5.33 27.3,-28.89 14.23,-23.57 42.71,-70.71 79,-111.91 36.28,-41.21 80.37,-76.48 121.53,-117.64z"/>
   <path class="fil23" d="M11197.91 12210.67c30.87,13.23 89.66,-10.28 149.93,-44.09 60.27,-33.81 122,-77.9 185.2,-144.05 63.21,-66.15 127.89,-154.34 177.86,-244 49.98,-89.67 85.26,-180.81 107.31,-269 22.05,-88.2 30.87,-173.45 30.87,-238.13 0,-64.68 -8.82,-108.77 -44.1,-161.69 -35.28,-52.92 -97.01,-114.65 -202.85,-164.63 -105.83,-49.98 -255.76,-88.19 -383.65,-105.83 -127.88,-17.64 -233.71,-14.7 -323.38,2.94 -89.66,17.64 -163.16,49.97 -236.66,80.84 -73.49,30.87 -146.98,60.27 -189.61,74.97 -42.63,14.7 -54.39,14.7 -73.5,57.33 -19.11,42.62 -45.56,127.88 -51.44,195.5 -5.88,67.61 8.82,117.58 76.44,152.86 67.61,35.28 188.14,55.86 288.09,89.67 99.96,33.81 179.33,80.84 241.07,146.99 61.74,66.15 105.83,151.4 138.17,230.78 32.34,79.37 52.92,152.87 64.68,214.61 11.76,61.73 14.7,111.7 45.57,124.93z"/>
   <path class="fil23" d="M14246.5 11990.19c39.69,-27.93 86.72,-101.42 129.35,-183.73 42.63,-82.32 80.85,-173.46 105.84,-266.06 24.99,-92.61 36.74,-186.68 41.15,-248.42 4.41,-61.74 1.47,-91.13 -11.76,-122 -13.23,-30.87 -36.74,-63.21 -48.5,-79.38 -11.76,-16.17 -11.76,-16.17 -49.98,7.35 -38.22,23.52 -114.65,70.56 -160.22,133.77 -45.57,63.2 -60.26,142.58 -66.14,217.55 -5.88,74.96 -2.94,145.51 1.47,201.37 4.41,55.86 10.28,97.01 2.93,149.93 -7.35,52.92 -27.92,117.59 -22.04,158.75 5.88,41.16 38.21,58.8 77.9,30.87z"/>
   <path class="fil24" d="M10410.05 11753.53c27.93,73.5 54.38,138.17 89.66,195.5 35.28,57.33 79.38,107.3 124.95,145.52 45.57,38.22 92.6,64.67 144.05,88.19 51.45,23.52 107.3,44.1 179.57,48.27 72.27,4.16 160.95,-8.09 218.26,-15.77 57.32,-7.68 83.26,-10.78 131.52,-57.57 48.27,-46.8 118.85,-137.27 168.84,-238.36 49.99,-101.1 79.39,-212.82 107.32,-302.48 27.93,-89.67 54.38,-157.28 58.79,-163.16 4.41,-5.88 -13.22,49.97 -39.68,74.96 -26.46,24.99 -61.74,19.11 -85.26,-19.1 -23.52,-38.22 -35.27,-108.78 -45.56,-173.45 -10.29,-64.68 -19.11,-123.47 -41.16,-169.04 -22.05,-45.57 -57.33,-77.91 -124.95,-99.96 -67.61,-22.05 -167.57,-33.81 -291.04,-23.52 -123.47,10.29 -270.46,42.63 -383.45,72.63 -112.98,30 -191.95,57.67 -231.49,71.76 -39.54,14.09 -39.63,14.61 -44.24,66.93 -4.61,52.31 -13.74,156.41 -3.6,249.63 10.14,93.21 39.54,175.52 67.47,249.02z"/>
   <path class="fil24" d="M14083.94 12237.88c41.31,-18.36 79.52,-41.87 127.66,-114.63 48.14,-72.77 106.19,-194.78 152.86,-300.13 46.67,-105.35 81.95,-194.03 103.97,-258.92 22.03,-64.89 30.79,-105.97 37.65,-147.37 6.86,-41.41 11.81,-83.13 -18.53,-126.45 -30.34,-43.33 -95.97,-88.25 -128.79,-110.71 -32.81,-22.47 -32.81,-22.47 -45.07,-10.05 -12.26,12.42 -36.79,37.26 -60.61,102.73 -23.82,65.46 -46.94,171.54 -89.2,269.54 -42.26,98 -103.65,187.91 -135.82,246.1 -32.17,58.18 -35.11,84.63 -43.6,160.7 -8.49,76.06 -22.53,201.74 -28.56,265.66 -6.03,63.92 -4.04,66.08 19.15,60.57 23.19,-5.51 67.58,-18.69 108.89,-37.04z"/>
   <path class="fil25" d="M10582.72 11825.61c49.98,61.73 123.48,138.17 192.56,182.27 69.09,44.09 133.76,55.85 191.35,45.29 57.6,-10.56 108.12,-43.43 171.32,-72.83 63.21,-29.4 139.11,-55.32 177.06,-68.28 37.95,-12.96 37.95,-12.96 4.51,18.15 -33.43,31.1 -100.31,93.32 -149.52,148.14 -49.2,54.82 -80.74,102.26 -130.11,123.92 -49.36,21.66 -116.54,17.54 -188.72,-4.7 -72.18,-22.25 -149.34,-62.64 -208.75,-107.08 -59.41,-44.45 -101.06,-92.95 -143.81,-170.18 -42.76,-77.23 -86.62,-183.18 -112.81,-257.26 -26.19,-74.09 -34.7,-116.32 -36.84,-164.67 -2.14,-48.36 2.1,-102.86 4.22,-130.1 2.12,-27.25 2.12,-27.25 22.88,27.55 20.75,54.79 62.26,164.38 96.25,242.7 33.98,78.31 60.44,125.34 110.41,187.08z"/>
   <path class="fil25" d="M14067.69 12012.57c31.8,-8.12 66.35,-30.68 95.01,-54.93 28.67,-24.26 51.44,-50.2 71.64,-75.66 20.21,-25.47 37.85,-50.46 51.08,-91.62 13.23,-41.16 22.05,-98.48 23.52,-138.17 1.47,-39.69 -4.41,-61.73 -5.15,-117.59 -0.73,-55.86 3.68,-145.52 10.29,-200.64 6.62,-55.13 15.44,-75.7 36.75,-72.02 21.32,3.67 55.12,31.59 73.49,55.85 18.38,24.25 21.32,44.83 18.38,72.03 -2.94,27.19 -11.76,60.99 -27.2,94.8 -15.43,33.81 -37.47,67.61 -56.58,94.07 -19.11,26.46 -35.28,45.57 -50.72,83.79 -15.43,38.22 -30.13,95.54 -53.28,148.2 -23.14,52.66 -54.73,100.65 -73.11,150.63 -18.37,49.97 -23.52,101.94 -43.01,139.68 -19.48,37.74 -53.29,61.26 -86.16,77.79 -32.87,16.52 -64.81,26.04 -78.92,12.8 -14.1,-13.25 -10.38,-49.26 -6.72,-83.65 3.66,-34.39 7.25,-67.14 23.56,-80.35 16.32,-13.22 45.34,-6.89 77.13,-15.01z"/>
   <path class="fil26" d="M10780.42 11786.71c41.9,11.02 97.75,33.07 147.34,39.96 49.59,6.88 92.92,-1.4 132.6,-36.68 39.69,-35.28 75.74,-97.55 104.05,-110.31 28.32,-12.77 48.9,23.98 37.67,71.56 -11.22,47.57 -54.24,105.98 -96.14,142.73 -41.89,36.74 -82.64,51.83 -129.48,60.11 -46.84,8.28 -99.76,9.75 -143.86,-2.01 -44.1,-11.76 -79.37,-36.74 -103.63,-58.79 -24.25,-22.05 -37.48,-41.16 -43.36,-60.27 -5.88,-19.11 -4.41,-38.22 10.29,-47.77 14.7,-9.56 42.63,-9.56 84.52,1.47z"/>
   <path class="fil26" d="M14119.6 11966.48c44.06,-36.15 89.69,-95.98 121.13,-162.1 31.45,-66.13 48.72,-138.55 57.26,-201.31 8.54,-62.76 8.37,-115.84 -0.57,-169.35 -8.94,-53.51 -26.64,-107.44 -47.04,-97.85 -20.4,9.59 -43.5,82.71 -68.99,170.65 -25.48,87.94 -53.35,190.7 -84.58,253.01 -31.22,62.31 -65.79,84.16 -84.06,122.09 -18.27,37.93 -20.23,91.95 -21.21,118.96 -0.98,27 -0.98,27 20.26,20.76 21.25,-6.24 63.74,-18.71 107.8,-54.86z"/>
   <path class="fil27" d="M10950.14 11126.84c-23.52,73.49 -44.09,163.89 -57.32,264.95 -13.23,101.05 -19.11,212.77 -17.64,293.62 1.47,80.84 10.29,130.81 14.7,155.8 4.41,24.99 4.41,24.99 47.04,11.76 42.63,-13.23 127.88,-39.69 198.44,-94.07 70.56,-54.39 126.41,-136.71 167.57,-211.67 41.16,-74.97 67.61,-142.58 83.78,-211.67 16.17,-69.09 22.05,-139.64 27.93,-196.97 5.88,-57.33 11.76,-101.42 0,-151.4 -11.76,-49.98 -41.16,-105.83 -66.15,-133.76 -24.99,-27.93 -45.56,-27.93 -85.25,-23.52 -39.69,4.41 -98.48,13.23 -141.11,32.34 -42.63,19.11 -69.09,48.5 -95.55,91.5 -26.46,42.99 -52.92,99.59 -76.44,173.09z"/>
   <path class="fil6" d="M14039.86 11529.59c23.52,-61.74 52.92,-142.59 88.2,-207.26 35.28,-64.68 76.43,-113.18 97.01,-137.43 20.58,-24.26 20.58,-24.26 23.52,20.57 2.94,44.83 8.82,134.5 8.08,205.06 -0.73,70.55 -8.08,121.99 -24.25,180.79 -16.17,58.8 -41.16,124.94 -68.36,178.6 -27.19,53.65 -56.58,94.8 -91.86,124.2 -35.28,29.4 -76.43,47.04 -97.01,55.86 -20.58,8.82 -20.58,8.82 -16.17,-38.22 4.41,-47.04 13.23,-141.11 26.46,-209.46 13.23,-68.36 30.86,-110.98 54.38,-172.71z"/>
   <path class="fil28" d="M11304.3 11020.28c-14.7,15.43 -20.58,40.42 -23.15,63.57 -2.57,23.15 -1.84,44.47 4.77,61.37 6.62,16.9 19.12,29.4 40.56,37.21 21.45,7.81 51.86,10.93 74.64,5.79 22.78,-5.15 37.95,-18.56 49.2,-36.29 11.26,-17.74 18.61,-39.78 18.24,-64.03 -0.36,-24.26 -8.45,-50.72 -26.82,-66.89 -18.37,-16.17 -47.04,-22.05 -73.13,-22.05 -26.09,0 -49.61,5.88 -64.31,21.32z"/>
  </g>
 </g>
</svg>
