<?xml version="1.0" encoding="UTF-8"?>
<!DOCTYPE svg PUBLIC "-//W3C//DTD SVG 1.1//EN" "http://www.w3.org/Graphics/SVG/1.1/DTD/svg11.dtd">
<!-- Creator: CorelDRAW 2018 (64-Bit) -->
<svg xmlns="http://www.w3.org/2000/svg" xml:space="preserve" width="210mm" height="297mm" version="1.1" style="shape-rendering:geometricPrecision; text-rendering:geometricPrecision; image-rendering:optimizeQuality; fill-rule:evenodd; clip-rule:evenodd"
viewBox="0 0 21000 29700"
 xmlns:xlink="http://www.w3.org/1999/xlink">
 <defs>
  <style type="text/css">
   <![CDATA[
    .fil0 {fill:none}
    .fil4 {fill:#FEFEFE;fill-opacity:0.301961}
    .fil2 {fill:#FEFEFE;fill-opacity:0.321569}
    .fil3 {fill:#FEFEFE;fill-opacity:0.321569}
    .fil1 {fill:url(#id0)}
   ]]>
  </style>
  <radialGradient id="id0" gradientUnits="userSpaceOnUse" gradientTransform="matrix(-0.00881938 -2.49222 2.50472 -0.00877537 -56709 52047)" cx="10076.7" cy="26699.55" r="64417.23" fx="10076.7" fy="26699.55">
   <stop offset="0" style="stop-opacity:1; stop-color:#F5F0A2"/>
   <stop offset="0.329412" style="stop-opacity:0.447059; stop-color:#F5F0A2"/>
   <stop offset="0.65098" style="stop-opacity:0.517647; stop-color:#95C671"/>
   <stop offset="1" style="stop-opacity:1; stop-color:#95C671"/>
  </radialGradient>
 </defs>
 <g id="Слой_x0020_1">
  <metadata id="CorelCorpID_0Corel-Layer"/>
  <g id="_2171549988640">
   <rect class="fil0" x="-32.83" y="9175.51" width="20631.69" height="11605.33"/>
   <rect class="fil1" x="-32.83" y="9175.51" width="20631.69" height="11605.33"/>
   <g>
    <path class="fil2" d="M12406.03 20061.1c-20.12,-10.32 -44.03,-24.35 -66.84,-42.36 -22.82,-18 -44.54,-39.97 -61.71,-62.03 -17.16,-22.05 -29.77,-44.19 -38.72,-65.06 -8.95,-20.87 -14.25,-40.47 -16.03,-61.24 -1.77,-20.77 -0.02,-42.7 12.16,-64.71 12.17,-22.02 34.78,-44.1 64.68,-54.84 29.9,-10.75 67.1,-10.15 100.44,-2.33 33.35,7.81 62.85,22.84 90.68,43.02 27.82,20.17 53.96,45.49 75.68,70.4 21.73,24.91 39.02,49.4 50.4,78.94 11.38,29.54 16.83,64.13 9.29,93.55 -7.54,29.42 -28.07,53.68 -58.11,67.85 -30.04,14.18 -69.59,18.27 -97.53,17.01 -27.94,-1.26 -44.28,-7.88 -64.39,-18.2z"/>
    <path class="fil3" d="M12371.55 19502.97c14.52,25.87 36.22,59.58 60.29,88.6 24.06,29.01 50.48,53.34 82.5,69.87 32.03,16.52 69.66,25.25 98.33,21.9 28.68,-3.34 48.38,-18.75 64.07,-33.12 15.68,-14.38 27.35,-27.73 32.68,-55.89 5.32,-28.16 4.3,-71.14 -5.75,-109.39 -10.06,-38.25 -29.15,-71.77 -52.03,-103.14 -22.89,-31.36 -49.57,-60.56 -86.28,-79.44 -36.72,-18.88 -83.48,-27.44 -115.62,-25.05 -32.15,2.39 -49.68,15.72 -64.31,30.12 -14.62,14.4 -26.34,29.87 -33.03,52.32 -6.69,22.45 -8.36,51.88 -5.53,75.6 2.83,23.73 10.16,41.75 24.68,67.62z"/>
    <path class="fil3" d="M12724.86 19294.88c7.27,23.08 18.97,52.44 33.64,79.68 14.68,27.25 32.33,52.37 58.3,74.44 25.97,22.07 60.25,41.08 92.75,45.19 32.5,4.12 63.21,-6.67 86.8,-25.55 23.59,-18.88 40.07,-45.85 47.61,-78.21 7.54,-32.35 6.16,-70.09 -2.86,-110.19 -9.01,-40.1 -25.65,-82.56 -46.9,-116.95 -21.26,-34.39 -47.13,-60.7 -75,-78.75 -27.87,-18.06 -57.74,-27.85 -85.37,-26.36 -27.63,1.49 -53.02,14.28 -71.51,31.09 -18.49,16.81 -30.08,37.64 -37.34,63.14 -7.26,25.49 -10.2,55.64 -10.23,79.12 -0.04,23.47 2.83,40.27 10.11,63.35z"/>
    <path class="fil2" d="M13298.57 19622.81c12.65,-1.34 28.9,-2.21 48.28,-14.51 19.39,-12.29 41.91,-36 60.28,-66.99 18.38,-30.98 32.61,-69.24 34.98,-112.89 2.37,-43.65 -7.13,-92.69 -21.92,-131.18 -14.8,-38.48 -34.89,-66.41 -59.46,-86.76 -24.57,-20.35 -53.62,-33.13 -77.68,-37.86 -24.05,-4.73 -43.11,-1.42 -66.06,14.17 -22.96,15.58 -49.82,43.44 -64.86,78.81 -15.04,35.37 -18.26,78.25 -16.43,118.25 1.84,40 8.73,77.12 19.52,107.83 10.79,30.71 25.47,55.02 44.89,76.63 19.42,21.61 43.59,40.51 60.19,49.07 16.6,8.56 25.63,6.76 38.27,5.43z"/>
    <path class="fil2" d="M12671.24 20236.34c4.03,20.32 11.75,48.59 26.57,75.34 14.81,26.75 36.71,51.97 62.41,69.16 25.71,17.2 55.22,26.36 87.5,23.48 32.28,-2.89 67.34,-17.82 100.19,-43.23 32.86,-25.42 63.52,-61.3 92.05,-91.37 28.53,-30.07 54.93,-54.31 86.7,-75.75 31.77,-21.44 68.9,-40.08 101.79,-52.94 32.88,-12.86 61.51,-19.95 94.11,-25.95 32.61,-6 69.18,-10.91 102.65,-24.94 33.47,-14.03 63.84,-37.19 81.95,-70.12 18.11,-32.92 23.95,-75.62 13.45,-113.2 -10.51,-37.57 -37.37,-70.02 -65.77,-94.89 -28.4,-24.88 -58.35,-42.17 -84.06,-53.49 -25.72,-11.33 -47.2,-16.69 -69.17,-22.18 -21.98,-5.5 -44.45,-11.13 -70.43,-24.39 -25.99,-13.27 -55.48,-34.17 -87.63,-56.07 -32.16,-21.9 -66.97,-44.79 -107.04,-59.25 -40.06,-14.46 -85.38,-20.49 -129.04,-14.06 -43.66,6.44 -85.67,25.33 -115.86,48.81 -30.19,23.47 -48.56,51.52 -60.71,83.15 -12.15,31.62 -18.07,66.83 -20.25,104.92 -2.18,38.1 -0.61,79.09 -1.99,120.08 -1.37,40.99 -5.67,81.97 -9.64,111.04 -3.98,29.06 -7.61,46.21 -12.97,67.69 -5.36,21.48 -12.44,47.29 -15.81,66.38 -3.37,19.09 -3.03,31.46 1,51.78z"/>
   </g>
   <g>
    <path class="fil2" d="M14691.79 18427.16c-10.24,41.55 -25.64,91.68 -48.84,141.54 -23.2,49.86 -54.18,99.45 -87.3,140.67 -33.13,41.23 -68.4,74.1 -102.92,99.68 -34.52,25.59 -68.3,43.89 -105.77,56.21 -37.47,12.33 -78.62,18.67 -124.46,5.85 -45.84,-12.82 -96.37,-44.81 -129.19,-95.18 -32.82,-50.37 -47.94,-119.12 -48.1,-183.94 -0.15,-64.81 14.66,-125.69 39.68,-185.72 25.01,-60.03 60.23,-119.21 96.62,-170.07 36.39,-50.85 73.94,-93.38 123.38,-127.22 49.43,-33.83 110.74,-58.95 168.2,-57.91 57.46,1.05 111.08,28.28 150.28,77.41 39.2,49.14 63.99,120.18 73.85,172.18 9.86,52 4.8,84.95 -5.43,126.5z"/>
    <path class="fil3" d="M13679.14 18734.05c41.29,-38.01 93.9,-92.68 136.83,-149.64 42.94,-56.97 76.21,-116.22 92.68,-182.39 16.46,-66.18 16.11,-139.29 -2.55,-190.62 -18.66,-51.33 -55.62,-80.9 -88.94,-103.51 -33.31,-22.62 -62.97,-38.28 -117.15,-35.8 -54.17,2.48 -132.86,23.1 -198.91,58.29 -66.05,35.19 -119.45,84.97 -167.22,140.78 -47.77,55.82 -89.91,117.68 -108.66,193.52 -18.75,75.85 -14.12,165.67 4.3,223.82 18.42,58.14 50.62,84.62 83.52,105.27 32.89,20.65 66.48,35.47 110.73,38.01 44.26,2.53 99.18,-7.23 141.63,-22.79 42.45,-15.56 72.44,-36.92 113.74,-74.94z"/>
    <path class="fil3" d="M13141.89 18174.26c39.32,-23.47 88.29,-57.8 132.05,-96.71 43.76,-38.9 82.33,-82.37 111.64,-139.81 29.31,-57.45 49.37,-128.86 42.76,-190.49 -6.6,-61.63 -39.85,-113.47 -84.91,-148.68 -45.05,-35.21 -101.89,-53.78 -164.76,-53.56 -62.87,0.22 -131.75,19.24 -201.66,53.32 -69.91,34.09 -140.83,83.24 -194.88,137.37 -54.04,54.14 -91.21,113.25 -112.3,172.44 -21.09,59.2 -26.1,118.47 -11.3,168.69 14.8,50.22 49.41,91.4 88.43,118.11 39.01,26.72 82.43,38.97 132.54,41.22 50.11,2.25 106.91,-5.5 150.15,-15.67 43.24,-10.17 72.92,-22.77 112.24,-46.23z"/>
    <path class="fil2" d="M13495.51 16974.84c-7.98,-22.69 -16.68,-52.24 -47.77,-82.57 -31.1,-30.33 -84.58,-61.45 -149.64,-81.77 -65.07,-20.32 -141.72,-29.84 -223.13,-15.17 -81.4,14.68 -167.56,53.55 -231.97,97.57 -64.41,44.03 -107.07,93.2 -133.83,147.32 -26.76,54.12 -37.61,113.19 -35.83,159.54 1.78,46.36 16.19,80 54.89,115.47 38.71,35.47 101.72,72.78 173.41,85.05 71.68,12.27 152.04,-0.5 224.89,-21.32 72.85,-20.82 138.19,-49.71 190.04,-82.97 51.85,-33.25 90.21,-70.89 121.52,-116.08 31.32,-45.18 55.59,-97.93 64.11,-132.23 8.52,-34.29 1.28,-50.14 -6.69,-72.84z"/>
    <path class="fil2" d="M14898.8 17862.39c35.66,-16.29 84.35,-42.84 127.14,-81.77 42.79,-38.94 79.68,-90.27 100.13,-145.1 20.45,-54.83 24.45,-113.16 5.06,-171.34 -19.39,-58.18 -62.18,-116.21 -123.3,-165.63 -61.12,-49.42 -140.57,-90.23 -208.37,-129.65 -67.81,-39.42 -123.97,-77.46 -177.3,-126.6 -53.33,-49.15 -103.84,-109.4 -141.86,-164.34 -38.02,-54.94 -63.56,-104.57 -88.83,-161.98 -25.26,-57.41 -50.25,-122.61 -90.69,-178.13 -40.44,-55.51 -96.33,-101.33 -164.85,-120.31 -68.53,-18.98 -149.69,-11.12 -214.3,24.61 -64.6,35.73 -112.64,99.34 -146.05,162.48 -33.41,63.15 -52.19,125.83 -61.83,178.12 -9.63,52.28 -10.14,94.17 -10.67,137.03 -0.54,42.87 -1.1,86.7 -14.2,140.33 -13.1,53.62 -38.72,117.04 -65.02,185.8 -26.3,68.75 -53.27,142.84 -62.42,222.92 -9.16,80.08 -0.5,166.15 30.39,243.74 30.89,77.59 84.01,146.7 140.4,192.06 56.39,45.35 116.05,66.94 179.58,75.52 63.53,8.57 130.94,4.12 202.03,-8.48 71.1,-12.6 145.9,-33.36 221.97,-48.71 76.07,-15.35 153.41,-25.29 208.66,-30.66 55.25,-5.36 88.41,-6.14 130.3,-5.64 41.89,0.5 92.51,2.28 129.13,0.16 36.62,-2.12 59.24,-8.15 94.9,-24.43z"/>
   </g>
   <g>
    <path class="fil2" d="M19290.62 12843.18c-13.55,39.53 -32.88,86.96 -59.76,133.46 -26.87,46.49 -61.3,92.05 -97.09,129.28 -35.79,37.24 -72.94,66.16 -108.73,88.06 -35.8,21.91 -70.24,36.79 -107.75,45.53 -37.51,8.75 -78.1,11.37 -121.58,-5.07 -43.48,-16.44 -89.86,-51.93 -117.43,-103.77 -27.57,-51.83 -36.33,-120.02 -30.88,-183.08 5.46,-63.06 25.13,-121 54.66,-177.22 29.53,-56.23 68.91,-110.76 108.7,-157.08 39.8,-46.33 80.01,-84.45 131.02,-113.08 51.01,-28.64 112.82,-47.78 168.63,-41.79 55.8,6 105.6,37.12 139.48,88.3 33.89,51.19 51.85,122.44 56.95,173.87 5.1,51.44 -2.68,83.06 -16.22,122.59z"/>
    <path class="fil3" d="M18279.02 13054.12c43.46,-33.41 99.35,-82.04 146.05,-133.74 46.69,-51.69 84.18,-106.45 105.92,-169.4 21.74,-62.95 27.72,-134.09 14.01,-185.64 -13.71,-51.55 -47.11,-83.51 -77.56,-108.39 -30.45,-24.87 -57.94,-42.68 -110.86,-44.95 -52.91,-2.28 -131.24,10.97 -198.53,39.5 -67.29,28.52 -123.55,72.31 -174.84,122.48 -51.3,50.16 -97.64,106.69 -122.44,178.85 -24.8,72.15 -28.06,159.92 -15.17,218.08 12.88,58.16 41.92,86.69 72.13,109.62 30.21,22.94 61.6,40.27 104.43,46.56 42.83,6.29 97.09,1.55 139.74,-9.92 42.64,-11.46 73.66,-29.65 117.12,-63.05z"/>
    <path class="fil3" d="M17804.83 12463.1c40.28,-19.42 90.88,-48.58 136.82,-82.64 45.93,-34.06 87.21,-73.01 120.69,-126.35 33.48,-53.34 59.16,-121.07 58.07,-181.59 -1.09,-60.52 -28.95,-113.84 -69.73,-151.98 -40.78,-38.15 -94.47,-61.13 -155.64,-66.35 -61.18,-5.22 -129.83,7.32 -200.78,34.43 -70.95,27.1 -144.19,68.78 -201.45,116.77 -57.25,47.98 -98.52,102.27 -124.15,158.02 -25.64,55.76 -35.64,112.98 -25.59,163.12 10.05,50.13 40.16,93.18 75.8,122.54 35.64,29.36 76.82,45.03 125.37,51.55 48.55,6.53 104.47,3.91 147.41,-2.25 42.94,-6.15 72.9,-15.84 113.18,-35.27z"/>
    <path class="fil2" d="M18252.56 11326.97c-5.8,-22.77 -11.71,-52.26 -39.33,-84.46 -27.62,-32.19 -76.95,-67.09 -138.49,-92.48 -61.53,-25.4 -135.28,-41.29 -215.73,-34.06 -80.46,7.24 -167.63,37.6 -234.09,74.85 -66.46,37.25 -112.22,81.4 -142.93,131.73 -30.7,50.33 -46.37,106.85 -48.65,152.09 -2.28,45.25 8.83,79.22 43.41,117.07 34.59,37.85 92.65,79.59 161.32,97.73 68.67,18.13 147.95,12.67 220.61,-1.28 72.67,-13.96 138.73,-36.41 192.04,-64.27 53.31,-27.87 93.88,-61.16 128.25,-102.41 34.37,-41.25 62.54,-90.45 73.8,-123.08 11.25,-32.62 5.58,-48.67 -0.21,-71.43z"/>
    <path class="fil2" d="M19540.84 12311.7c36.09,-12.76 85.75,-34.37 130.74,-68.54 44.99,-34.18 85.32,-80.92 109.95,-132.48 24.64,-51.57 33.58,-107.97 19.75,-166.24 -13.84,-58.27 -50.44,-118.42 -105.61,-171.78 -55.18,-53.36 -128.94,-99.92 -191.49,-144.14 -62.54,-44.21 -113.88,-86.07 -161.51,-138.49 -47.63,-52.41 -91.54,-115.39 -123.78,-172.12 -32.23,-56.73 -52.78,-107.22 -72.39,-165.25 -19.62,-58.04 -38.29,-123.62 -72.82,-181.12 -34.54,-57.5 -84.93,-106.91 -149.95,-131.3 -65.02,-24.39 -144.65,-23.76 -210.58,5.41 -65.94,29.17 -118.17,86.89 -156.13,145.42 -37.97,58.53 -61.65,117.89 -75.55,167.91 -13.9,50.03 -18.01,90.74 -22.24,132.38 -4.22,41.65 -8.57,84.24 -25.95,135.27 -17.37,51.04 -47.78,110.51 -79.31,175.12 -31.53,64.6 -64.18,134.34 -80.01,211.45 -15.83,77.1 -14.85,161.57 8.49,239.72 23.33,78.15 69.02,149.97 119.95,198.97 50.93,48.99 107.1,75.16 168.16,88.99 61.06,13.84 127.01,15.34 197.26,9.23 70.25,-6.11 144.81,-19.83 220.13,-28.18 75.32,-8.35 151.42,-11.34 205.63,-11.78 54.21,-0.43 86.53,1.67 127.24,5.78 40.7,4.12 89.78,10.23 125.59,11.33 35.8,1.1 58.33,-2.8 94.43,-15.56z"/>
   </g>
   <g>
    <path class="fil2" d="M15920.49 16997.22c5.84,-79.58 18.5,-176.57 45.56,-275.49 27.07,-98.91 68.53,-199.76 116.54,-285.91 48.02,-86.15 102.59,-157.6 158.06,-215.42 55.48,-57.83 111.86,-102.04 176.9,-136.4 65.03,-34.37 138.71,-58.9 226.99,-49.66 88.29,9.25 191.18,52.28 267.26,134.63 76.09,82.35 125.38,204.02 145.92,323.13 20.54,119.11 12.33,235.67 -14.9,353.85 -27.23,118.18 -73.49,237.99 -124.5,342.87 -51,104.87 -106.76,194.8 -187.07,272.45 -80.3,77.65 -185.16,143.01 -291.13,159.04 -105.98,16.03 -213.06,-17.27 -300.49,-95.36 -87.42,-78.08 -155.2,-200.94 -189.58,-293.46 -34.39,-92.52 -35.39,-154.69 -29.56,-234.27z"/>
    <path class="fil3" d="M17686.35 16116.51c-64.04,82.8 -143.67,199.75 -204.81,317.89 -61.14,118.15 -103.79,237.48 -113.37,364.29 -9.58,126.81 13.9,261.11 64.25,349.66 50.35,88.54 127.55,131.34 195.86,162.51 68.32,31.16 127.74,50.69 226.57,29.2 98.83,-21.48 237.06,-83.99 347.49,-169.33 110.43,-85.35 193.06,-193.54 263.44,-311.09 70.38,-117.55 128.51,-244.45 139.28,-389.75 10.77,-145.3 -25.82,-308.99 -77.85,-410.14 -52.04,-101.15 -119.51,-139.75 -186.44,-167.44 -66.93,-27.68 -133.32,-44.44 -215.47,-35.27 -82.15,9.17 -180.07,44.28 -253.26,86.16 -73.19,41.87 -121.65,90.51 -185.69,173.31z"/>
    <path class="fil3" d="M18849.03 16977.8c-64.96,55.43 -144.24,133.86 -212.55,219.06 -68.3,85.2 -125.61,177.18 -161.55,291.94 -35.93,114.77 -50.49,252.33 -19.09,363.57 31.39,111.25 108.74,196.17 202.57,246.83 93.84,50.65 204.15,67.02 319.66,46.97 115.51,-20.06 236.22,-76.55 354.09,-161.06 117.88,-84.51 232.91,-197.05 315.35,-313.46 82.45,-116.42 132.31,-236.72 152.58,-352.13 20.27,-115.42 10.96,-225.96 -31.95,-313.67 -42.9,-87.71 -119.4,-152.6 -199.48,-189.51 -80.08,-36.92 -163.74,-45.87 -256.57,-34.35 -92.83,11.52 -194.84,43.51 -271.15,75.72 -76.32,32.22 -126.95,64.66 -191.91,120.09z"/>
    <path class="fil2" d="M18573.76 19293.44c21.75,39.24 46.99,90.83 113.63,136.88 66.64,46.05 174.69,86.55 300.67,103.58 125.98,17.02 269.88,10.57 414.96,-41.85 145.08,-52.42 291.33,-150.82 395.99,-251.88 104.66,-101.07 167.73,-204.81 200,-312.67 32.28,-107.87 33.77,-219.85 16.01,-304.52 -17.75,-84.67 -54.75,-142.02 -137,-195.14 -82.25,-53.11 -209.75,-102.01 -345.38,-102.16 -135.63,-0.16 -279.39,48.43 -406.82,109.48 -127.43,61.05 -238.53,134.58 -323.46,211.92 -84.92,77.35 -143.69,158.53 -187.14,251.39 -43.45,92.87 -71.59,197.43 -76.53,263.15 -4.94,65.71 13.32,92.59 35.07,131.82z"/>
    <path class="fil2" d="M15716.41 18100.26c-60.47,41.08 -141.69,105.11 -208.19,190.07 -66.5,84.96 -118.28,190.85 -138.74,298.05 -20.46,107.19 -9.59,215.69 44.25,316.6 53.83,100.9 150.63,194.22 278.44,265.98 127.81,71.75 286.64,121.94 423.62,173.23 136.98,51.28 252.12,103.66 365.53,177.35 113.41,73.68 225.09,168.67 312.16,257.8 87.08,89.12 149.54,172.38 213.94,270.04 64.39,97.66 130.72,209.72 222.41,299.14 91.7,89.42 208.77,156.2 340.68,169.68 131.92,13.48 278.68,-26.33 386.29,-112.22 107.61,-85.89 176.06,-217.84 217.75,-344.37 41.69,-126.53 56.62,-247.65 58,-346.79 1.38,-99.14 -10.79,-176.31 -23.21,-255.28 -12.41,-78.97 -25.06,-159.74 -17.75,-262.42 7.32,-102.69 34.61,-227.29 61.47,-361.91 26.86,-134.63 53.3,-279.28 45.1,-429.36 -8.19,-150.09 -51.02,-305.62 -132.06,-438.62 -81.04,-132.99 -200.3,-243.46 -318.14,-309.22 -117.85,-65.76 -234.29,-86.81 -353.77,-82.72 -119.48,4.1 -242.01,33.34 -368.79,78.73 -126.77,45.39 -257.8,106.92 -392.86,158.92 -135.05,52 -274.14,94.45 -374.04,121.58 -99.91,27.13 -160.63,38.93 -237.8,51.1 -77.17,12.17 -170.78,24.71 -237.45,40.06 -66.66,15.34 -106.38,33.49 -166.84,74.58z"/>
   </g>
   <g>
    <path class="fil2" d="M4170.18 18352.31c5.01,-37.33 13.73,-82.67 29.29,-128.5 15.56,-45.84 37.96,-92.18 63.03,-131.4 25.07,-39.23 52.8,-71.34 80.58,-97.01 27.78,-25.67 55.6,-44.89 87.22,-59.24 31.61,-14.35 67.02,-23.81 108.35,-16.95 41.34,6.87 88.59,30.06 122.1,71.02 33.51,40.96 53.28,99.68 59.57,156.38 6.3,56.71 -0.88,111.39 -17.07,166.29 -16.18,54.91 -41.38,110.05 -68.39,158.01 -27,47.96 -55.83,88.75 -95.87,123.05 -40.04,34.31 -91.3,62.12 -141.68,66.67 -50.39,4.54 -99.89,-14.19 -138.87,-53.46 -38.97,-39.27 -67.41,-99.08 -80.99,-143.65 -13.57,-44.56 -12.27,-73.88 -7.27,-111.21z"/>
    <path class="fil3" d="M5027.16 17987.51c-32.52,37.19 -73.36,90.03 -105.52,143.95 -32.16,53.93 -55.64,108.94 -63.76,168.42 -8.11,59.47 -0.86,123.41 20.35,166.56 21.2,43.15 56.36,65.51 87.66,82.13 31.3,16.62 58.75,27.51 105.92,20.19 47.17,-7.32 114.07,-32.84 168.52,-69.91 54.46,-37.08 96.46,-85.71 132.96,-139.09 36.49,-53.39 67.49,-111.53 76.69,-179.68 9.2,-68.15 -3.4,-146.31 -25.04,-195.44 -21.64,-49.13 -52.34,-69.24 -83.09,-84.18 -30.74,-14.95 -61.55,-24.73 -100.51,-22.74 -38.97,1.99 -86.1,15.75 -121.77,33.4 -35.67,17.65 -59.88,39.19 -92.41,76.39z"/>
    <path class="fil3" d="M5550.5 18426.31c-32.18,24.27 -71.76,58.97 -106.36,97.17 -34.6,38.21 -64.22,79.91 -84.41,132.97 -20.18,53.05 -30.95,117.44 -19.32,170.75 11.64,53.3 45.67,95.51 88.44,122.04 42.77,26.53 94.28,37.37 149.27,31.21 54.99,-6.17 113.47,-29.36 171.4,-65.83 57.94,-36.47 115.33,-86.23 157.48,-138.73 42.15,-52.51 69.05,-107.77 81.88,-161.58 12.83,-53.8 11.58,-106.14 -6.14,-148.68 -17.73,-42.55 -51.93,-75.29 -88.61,-94.96 -36.68,-19.67 -75.84,-26.26 -119.91,-23.47 -44.06,2.8 -93.03,14.97 -129.9,27.98 -36.87,13.01 -61.64,26.86 -93.82,51.13z"/>
    <path class="fil2" d="M5355.06 19509.5c9.13,19.1 19.55,44.13 49.64,67.71 30.1,23.59 79.85,45.74 138.72,57.34 58.87,11.6 126.86,12.64 196.7,-7.93 69.84,-20.58 141.54,-62.79 193.72,-107.43 52.17,-44.65 84.84,-91.73 103.11,-141.64 18.27,-49.9 22.15,-102.62 16.19,-143.01 -5.97,-40.4 -21.77,-68.47 -59.01,-95.83 -37.25,-27.36 -95.93,-54.02 -159.83,-57.94 -63.89,-3.93 -133,14.88 -194.77,40.03 -61.78,25.14 -116.21,56.63 -158.42,90.66 -42.21,34.03 -72.2,70.61 -95.31,113.13 -23.1,42.52 -39.33,90.98 -43.53,121.8 -4.19,30.83 3.65,44.01 12.79,63.11z"/>
    <path class="fil2" d="M4042.71 18866.2c-29.66,17.64 -69.74,45.5 -103.48,83.64 -33.75,38.14 -61.15,86.56 -73.84,136.49 -12.68,49.92 -10.64,101.35 11.86,150.42 22.5,49.07 65.46,95.78 123.64,133.22 58.18,37.43 131.58,65.59 194.66,93.64 63.09,28.06 115.85,56 167.18,93.94 51.35,37.94 101.27,85.86 139.76,130.32 38.5,44.47 65.56,85.47 93.13,133.31 27.56,47.84 55.63,102.52 96.29,147.25 40.67,44.74 93.92,79.52 155.69,89.62 61.77,10.1 132.05,-4.5 185.19,-41.9 53.14,-37.41 89.13,-97.64 112.37,-156.07 23.23,-58.43 33.71,-115.07 37.17,-161.74 3.46,-46.67 -0.08,-83.37 -3.69,-120.93 -3.6,-37.56 -7.27,-75.97 -0.91,-124.15 6.37,-48.17 22.76,-106.1 39.24,-168.76 16.48,-62.67 33.04,-130.07 33.44,-201.01 0.4,-70.95 -15.36,-145.44 -49.77,-210.4 -34.4,-64.96 -87.45,-120.4 -141.11,-154.73 -53.65,-34.33 -107.91,-47.55 -164.32,-49.01 -56.41,-1.47 -114.97,8.83 -175.99,26.62 -61.02,17.78 -124.5,43.05 -189.61,63.72 -65.1,20.66 -131.84,36.71 -179.68,46.66 -47.84,9.94 -76.78,13.78 -113.49,17.32 -36.7,3.54 -81.16,6.79 -113,12.13 -31.85,5.34 -51.08,12.76 -80.73,30.4z"/>
   </g>
   <g>
    <path class="fil2" d="M9531.57 15003.09c28.29,-24.02 64.58,-51.46 106.21,-74.75 41.63,-23.29 88.6,-42.43 132.83,-54.61 44.23,-12.18 85.73,-17.39 123,-17.85 37.27,-0.46 70.32,3.82 102.93,14.17 32.61,10.36 64.78,26.79 90.5,59.08 25.73,32.3 45.03,80.45 42.53,132.54 -2.49,52.1 -26.76,108.13 -59.56,153.79 -32.8,45.66 -74.13,80.96 -122.2,110.47 -48.08,29.52 -102.9,53.26 -154.31,70.56 -51.42,17.29 -99.43,28.13 -151.37,26.83 -51.95,-1.31 -107.82,-14.76 -147.7,-44.68 -39.89,-29.91 -63.77,-76.28 -66.39,-130.75 -2.63,-54.46 16.01,-117.01 35.48,-158.59 19.46,-41.58 39.75,-62.19 68.05,-86.21z"/>
    <path class="fil3" d="M10399.61 15301.42c-48.35,5.77 -113.1,17.51 -172.23,35.77 -59.12,18.26 -112.6,43.04 -157.78,81.22 -45.18,38.19 -82.05,89.78 -95,135.36 -12.94,45.58 -1.95,85.14 10,117.96 11.94,32.82 24.85,58.9 64.21,84.66 39.36,25.77 105.18,51.22 169.5,60 64.32,8.78 127.15,0.9 189.09,-14.11 61.94,-15 122.99,-37.11 174.68,-80.93 51.7,-43.82 94.05,-109.35 110.62,-159.6 16.57,-50.25 7.36,-85.21 -5.29,-116.44 -12.65,-31.23 -28.74,-58.71 -58.58,-82.96 -29.84,-24.25 -73.42,-45.27 -111.18,-55.88 -37.76,-10.62 -69.7,-10.82 -118.04,-5.05z"/>
    <path class="fil3" d="M10493.22 15967.92c-39.57,-3.46 -91.43,-4.17 -141.97,0.97 -50.53,5.14 -99.73,16.13 -149.51,41.65 -49.78,25.52 -100.14,65.56 -126.79,112.25 -26.65,46.7 -29.59,100.05 -15.78,147.69 13.81,47.64 44.36,89.56 88.69,121.33 44.33,31.76 102.43,53.37 168.91,64.89 66.47,11.52 141.31,12.96 206.81,2.33 65.49,-10.63 121.65,-33.33 166.54,-64.26 44.88,-30.92 78.5,-70.06 93.6,-112.9 15.09,-42.84 11.65,-89.37 -2.22,-127.97 -13.88,-38.6 -38.2,-69.26 -72.3,-96.29 -34.1,-27.03 -77.98,-50.42 -113.56,-65.22 -35.57,-14.8 -62.84,-21.01 -102.42,-24.47z"/>
    <path class="fil2" d="M9635.52 16631.94c-5.92,20.01 -14.79,45.21 -8.33,82.33 6.47,37.12 28.28,86.16 63.73,133.49 35.44,47.33 84.52,92.95 149.22,123.96 64.71,31.02 145.04,47.42 212.69,49.16 67.66,1.74 122.63,-11.18 168.93,-35.66 46.3,-24.47 83.92,-60.51 106.21,-94.01 22.28,-33.51 29.23,-64.48 20.02,-109.09 -9.21,-44.6 -34.59,-102.83 -78.78,-147.85 -44.18,-45.03 -107.18,-76.86 -168.99,-99.21 -61.81,-22.34 -122.43,-35.2 -175.79,-38.13 -53.35,-2.94 -99.44,4.05 -144.41,19.93 -44.96,15.89 -88.82,40.66 -112.22,60.45 -23.41,19.8 -26.36,34.62 -32.28,54.63z"/>
    <path class="fil2" d="M9099.21 15295.19c-33.35,-6.65 -81.07,-12.7 -130.94,-7.04 -49.86,5.66 -101.87,23.03 -144.09,51.21 -42.22,28.18 -74.66,67.17 -90.56,117.94 -15.9,50.76 -15.28,113.3 2.61,179.09 17.9,65.79 53.06,134.83 80.73,196.99 27.67,62.15 47.86,117.42 60.41,179.06 12.56,61.65 17.49,129.67 16.34,187.61 -1.16,57.95 -8.39,105.82 -19.78,159.03 -11.38,53.21 -26.91,111.75 -26.65,171.33 0.25,59.57 16.29,120.18 54.85,168.32 38.56,48.14 99.63,83.83 163.21,91.5 63.58,7.67 129.67,-12.67 185.23,-40.12 55.56,-27.44 100.59,-62 133.92,-93.88 33.32,-31.88 54.95,-61.08 77.08,-90.96 22.14,-29.87 44.8,-60.41 81.24,-91.48 36.44,-31.07 86.66,-62.66 140.07,-97.66 53.4,-35.01 110,-73.42 157.09,-125.09 47.1,-51.68 84.71,-116.61 102.38,-186.86 17.67,-70.26 15.41,-145.84 -1.22,-206.37 -16.63,-60.53 -47.63,-106.01 -87.96,-144.29 -40.33,-38.29 -90,-69.39 -146.4,-96.62 -56.4,-27.24 -119.55,-50.62 -180.84,-78.45 -61.3,-27.83 -120.74,-60.1 -162.33,-84.38 -41.58,-24.29 -65.3,-40.58 -94.51,-62.2 -29.2,-21.62 -63.89,-48.57 -90.73,-65.67 -26.83,-17.1 -45.8,-24.36 -79.15,-31.01z"/>
   </g>
   <g>
    <path class="fil2" d="M14494.7 11728.67c32.26,23.35 70.12,54.16 105.03,91.6 34.9,37.43 66.85,81.49 90.83,124.47 23.99,42.98 40.02,84.89 50.02,123.61 10.01,38.72 13.99,74.25 11.53,110.88 -2.47,36.63 -11.37,74.35 -38.45,109.41 -27.08,35.06 -72.34,67.47 -127.26,78.17 -54.92,10.72 -119.51,-0.27 -175.47,-22.79 -55.97,-22.51 -103.3,-56.57 -146.34,-99.12 -43.04,-42.56 -81.78,-93.62 -112.94,-142.79 -31.15,-49.16 -54.72,-96.42 -66.62,-150.88 -11.91,-54.47 -12.16,-116.13 8.82,-165.33 20.99,-49.2 63.21,-85.94 119.3,-102.59 56.08,-16.64 126.02,-13.19 174.33,-3.53 48.3,9.66 74.96,25.55 107.22,48.89z"/>
    <path class="fil3" d="M14405.54 12709.45c-18.36,-48.9 -47.14,-113.39 -81.27,-170.33 -34.13,-56.95 -73.61,-106.35 -124.94,-143.68 -51.34,-37.33 -114.52,-62.58 -165.32,-64.42 -50.81,-1.85 -89.23,19.71 -120.38,40.54 -31.14,20.84 -55.02,40.95 -71.82,88.55 -16.79,47.6 -26.5,122.68 -19.23,191.95 7.28,69.28 31.55,132.74 63,193.45 31.46,60.71 70.1,118.68 128.97,161.36 58.87,42.68 137.97,70.07 194.56,74.51 56.6,4.43 90.69,-14.1 120,-35.26 29.31,-21.15 53.83,-44.95 71.48,-82.23 17.65,-37.29 28.43,-88.08 29.84,-130.14 1.42,-42.06 -6.53,-75.39 -24.89,-124.3z"/>
    <path class="fil3" d="M13734.9 12977.26c-6.5,-42.12 -19.01,-96.36 -37.27,-147.7 -18.27,-51.35 -42.29,-99.81 -81.6,-145.17 -39.3,-45.35 -93.9,-87.61 -149.36,-103.46 -55.48,-15.84 -111.82,-5.27 -157.94,21.29 -46.11,26.55 -82,69.1 -103.78,123.41 -21.78,54.31 -29.45,120.38 -24.48,192.59 4.98,72.21 22.59,150.57 50.4,216.11 27.81,65.54 65.81,118.26 109.5,157.14 43.69,38.87 93.07,63.91 141.57,68.7 48.49,4.78 96.11,-10.68 132.78,-35 36.68,-24.32 62.42,-57.5 81.88,-99.94 19.45,-42.44 32.62,-94.14 38.96,-134.99 6.33,-40.86 5.84,-70.86 -0.66,-112.98z"/>
    <path class="fil2" d="M12823.84 12253.06c-22.36,-1.05 -50.89,-3.87 -87.92,12.35 -37.03,16.23 -82.56,51.48 -122.83,100.51 -40.27,49.02 -75.27,111.82 -91.06,187.17 -15.79,75.35 -12.37,163.26 3.1,234.2 15.46,70.95 42.97,124.93 80.31,166.93 37.33,41.99 84.49,71.99 125.1,86.66 40.6,14.67 74.66,13.99 118.79,-7 44.12,-20.99 98.32,-62.31 133.96,-119.86 35.63,-57.54 52.71,-131.33 60.21,-201.45 7.49,-70.12 5.41,-136.57 -5.16,-192.92 -10.57,-56.35 -29.63,-102.59 -57.66,-145.39 -28.04,-42.81 -65.06,-82.18 -91.67,-101.51 -26.6,-19.34 -42.81,-18.63 -65.17,-19.69z"/>
    <path class="fil2" d="M14079.86 11352.73c-1.59,-36.45 -7.47,-87.73 -26.1,-138.25 -18.64,-50.52 -50.02,-100.28 -90.17,-137.08 -40.15,-36.8 -89.07,-60.64 -146.04,-64.24 -56.96,-3.61 -121.98,13.02 -185.96,48.47 -63.99,35.45 -126.96,89.73 -184.66,134.44 -57.7,44.72 -110.14,79.87 -171.17,108.7 -61.03,28.83 -130.65,51.34 -191.33,64.94 -60.68,13.6 -112.42,18.28 -170.77,20.01 -58.36,1.73 -123.34,0.51 -185.35,15.99 -62.02,15.48 -121.08,47.68 -161.4,100.15 -40.32,52.48 -61.91,125.24 -53.66,193.46 8.25,68.22 46.32,131.89 89.12,182.77 42.79,50.89 90.3,88.99 132.04,115.58 41.73,26.59 77.69,41.66 114.48,57.1 36.78,15.44 74.4,31.25 116.08,61.28 41.68,30.04 87.43,74.31 137.55,121.02 50.12,46.71 104.61,95.87 170.49,131.76 65.87,35.88 143.14,58.48 220.87,58.95 77.73,0.47 155.91,-21.19 214.74,-53.99 58.83,-32.79 98.3,-76.71 127.9,-128.52 29.6,-51.8 49.31,-111.5 63.29,-177.23 13.98,-65.74 22.21,-137.51 35.56,-208.5 13.34,-70.98 31.79,-141.17 46.47,-190.71 14.68,-49.53 25.6,-78.41 40.67,-114.37 15.07,-35.96 34.29,-79 45.26,-111.33 10.97,-32.33 13.68,-53.95 12.09,-90.4z"/>
   </g>
   <g>
    <path class="fil2" d="M8138.44 19263.41c-23.84,-36.47 -50.49,-82.75 -71.53,-134.64 -21.03,-51.89 -36.46,-109.4 -44.18,-162.69 -7.71,-53.29 -7.71,-102.38 -2.8,-145.86 4.91,-43.48 14.73,-81.34 31.56,-117.81 16.83,-36.46 40.67,-71.53 82.04,-96.77 41.38,-25.25 100.28,-40.67 160.59,-30.15 60.31,10.51 122.01,46.98 170.4,91.86 48.39,44.88 83.45,98.17 110.8,158.48 27.35,60.31 46.98,127.63 59.6,190.04 12.63,62.41 18.24,119.91 9.12,180.22 -9.12,60.31 -32.96,123.42 -73.63,165.49 -40.67,42.08 -98.17,63.12 -161.99,58.21 -63.81,-4.91 -133.94,-35.77 -179.52,-64.52 -45.58,-28.75 -66.62,-55.4 -90.46,-91.86z"/>
    <path class="fil3" d="M8612.83 18296.04c-0.35,57.15 3.86,134.29 16.48,205.82 12.62,71.52 33.66,137.44 71.53,195.64 37.87,58.21 92.56,108.7 143.75,130.44 51.2,21.74 98.88,14.72 138.85,5.61 39.97,-9.12 72.23,-20.34 107.99,-62.41 35.77,-42.08 75.04,-115.01 94.67,-188.64 19.64,-73.63 19.64,-147.96 11.22,-222.29 -8.41,-74.34 -25.24,-148.67 -68.72,-215.29 -43.48,-66.62 -113.6,-125.52 -169.7,-152.17 -56.1,-26.64 -98.18,-21.04 -136.4,-10.87 -38.21,10.17 -72.58,24.9 -105.18,56.1 -32.61,31.21 -63.47,78.89 -81.35,121.32 -17.88,42.42 -22.79,79.59 -23.14,136.74z"/>
    <path class="fil3" d="M9402.78 18284.47c-9.81,45.58 -18.23,105.89 -19.63,165.49 -1.4,59.61 4.21,118.51 26.65,180.22 22.44,61.71 61.71,126.23 112.2,164.1 50.49,37.86 112.2,49.08 169.7,39.97 57.5,-9.12 110.8,-38.57 154.27,-85.55 43.48,-46.99 77.14,-111.5 100.28,-187.24 23.14,-75.73 35.77,-162.69 32.96,-240.53 -2.81,-77.83 -21.04,-146.56 -50.49,-203.36 -29.45,-56.8 -70.12,-101.68 -117.81,-125.52 -47.68,-23.84 -102.38,-26.65 -149.37,-16.13 -46.98,10.52 -86.25,34.36 -122.71,70.13 -36.47,35.76 -70.13,83.44 -92.57,122.71 -22.44,39.27 -33.66,70.13 -43.48,115.71z"/>
    <path class="fil2" d="M10050.74 19380.52c22.44,9.82 50.49,23.84 94.67,21.74 44.17,-2.1 104.48,-20.34 164.79,-54.7 60.31,-34.36 120.61,-84.85 166.19,-155.68 45.59,-70.82 76.44,-161.98 88.36,-240.52 11.92,-78.54 4.91,-144.46 -16.83,-201.96 -21.74,-57.5 -58.2,-106.59 -93.97,-137.45 -35.76,-30.85 -70.82,-43.47 -124.12,-39.27 -53.29,4.21 -124.82,25.25 -183.72,70.13 -58.91,44.88 -105.19,113.6 -140.25,182.32 -35.07,68.72 -58.91,137.45 -70.13,199.16 -11.22,61.71 -9.81,116.4 2.11,171.1 11.92,54.7 34.36,109.4 53.99,139.55 19.64,30.15 36.47,35.76 58.91,45.58z"/>
    <path class="fil2" d="M8415.43 19809.68c-12.63,37.87 -26.65,92.57 -27.35,151.47 -0.7,58.91 11.92,122.02 38.57,175.32 26.64,53.29 67.32,96.77 124.12,122.71 56.8,25.95 129.73,34.36 208.97,23.14 79.24,-11.22 164.79,-42.07 241.23,-65.21 76.43,-23.14 143.75,-38.57 217.38,-44.18 73.63,-5.61 153.58,-1.4 220.9,8.41 67.32,9.82 122.01,25.25 182.32,46.29 60.31,21.03 126.22,47.68 195.65,56.1 69.42,8.41 142.35,-1.41 204.06,-39.27 61.71,-37.87 112.2,-103.79 130.43,-176.72 18.24,-72.93 4.21,-152.87 -19.63,-221.59 -23.84,-68.72 -57.5,-126.23 -89.76,-169.7 -32.26,-43.48 -63.11,-72.93 -94.67,-103.09 -31.56,-30.15 -63.81,-61.01 -94.67,-107.99 -30.85,-46.98 -60.3,-110.09 -93.26,-177.41 -32.96,-67.32 -69.43,-138.85 -122.72,-201.26 -53.3,-62.41 -123.42,-115.71 -202.66,-146.56 -79.24,-30.86 -167.6,-39.27 -240.53,-28.75 -72.93,10.51 -130.43,39.97 -180.92,81.34 -50.49,41.37 -93.97,94.67 -133.94,156.38 -39.97,61.71 -76.44,131.83 -117.81,199.15 -41.37,67.32 -87.65,131.84 -122.02,176.72 -34.36,44.88 -56.8,70.12 -86.25,100.98 -29.45,30.85 -65.92,67.32 -89.76,96.07 -23.84,28.75 -35.06,49.79 -47.68,87.65z"/>
   </g>
   <g>
    <path class="fil2" d="M539.7 20056.55c-28.78,-11.44 -63.21,-27.44 -96.67,-49 -33.46,-21.55 -65.96,-48.67 -92.25,-76.49 -26.29,-27.82 -46.37,-56.36 -61.31,-83.64 -14.94,-27.28 -24.72,-53.31 -29.86,-81.39 -5.14,-28.08 -5.63,-58.22 8.1,-89.82 13.72,-31.61 41.64,-64.67 81,-83.24 39.36,-18.56 90.15,-22.61 136.64,-16.32 46.49,6.29 88.68,22.92 129.25,46.79 40.58,23.86 79.54,54.96 112.41,86.07 32.87,31.12 59.66,62.25 79.04,101.03 19.38,38.79 31.34,85.23 24.91,126.33 -6.42,41.1 -31.24,76.85 -70.34,100.11 -39.1,23.26 -92.49,34.02 -130.75,35.95 -38.26,1.94 -61.39,-4.94 -90.17,-16.38z"/>
    <path class="fil3" d="M419.64 19300.13c23.18,33.36 57.18,76.48 93.79,112.9 36.6,36.41 75.8,66.12 121.63,84.45 45.83,18.34 98.28,25.31 136.93,17 38.65,-8.31 63.5,-31.89 83.01,-53.55 19.5,-21.65 33.66,-41.37 37.23,-80.46 3.58,-39.09 -3.44,-97.56 -22.15,-148.39 -18.72,-50.83 -49.13,-94.04 -84.44,-133.81 -35.3,-39.76 -75.5,-76.08 -128.03,-97.02 -52.53,-20.93 -117.4,-26.48 -160.91,-19.02 -43.51,7.47 -65.67,27.94 -83.73,49.49 -18.05,21.55 -32,44.17 -38.19,75.65 -6.18,31.48 -4.61,71.83 2.36,103.8 6.96,31.98 19.32,55.59 42.5,88.96z"/>
    <path class="fil3" d="M874.09 18970.18c12.94,30.51 32.73,69.01 56.3,104.23 23.57,35.22 50.94,67.17 89.23,93.86 38.29,26.69 87.52,48.12 132.36,49.47 44.84,1.36 85.3,-17.37 115,-46.2 29.69,-28.83 48.62,-67.75 54.67,-112.85 6.05,-45.1 -0.78,-96.38 -18.32,-149.87 -17.54,-53.49 -45.78,-109.2 -79.26,-153.3 -33.48,-44.1 -72.19,-76.59 -112.55,-97.55 -40.37,-20.97 -82.37,-30.41 -119.84,-24.76 -37.48,5.65 -70.42,26.4 -93.43,51.74 -23,25.34 -36.08,55.26 -42.64,90.97 -6.56,35.71 -6.62,77.2 -3.59,109.21 3.02,32.01 9.12,54.54 22.07,85.05z"/>
    <path class="fil2" d="M1699.2 19342.17c17.06,-3.47 39.11,-6.8 63.92,-26.1 24.82,-19.3 52.42,-54.57 73.42,-99.22 20.99,-44.65 35.39,-98.67 32.9,-158.49 -2.48,-59.82 -21.85,-125.44 -47.05,-175.97 -25.21,-50.53 -56.26,-85.98 -92.42,-110.51 -36.16,-24.53 -77.45,-38.14 -110.86,-41.44 -33.41,-3.31 -58.96,3.7 -88.22,27.95 -29.25,24.26 -62.22,65.75 -78.1,115.94 -15.88,50.19 -14.66,109.08 -6.92,163.37 7.73,54.29 21.99,103.99 40.72,144.46 18.73,40.46 41.92,71.68 71.23,98.6 29.31,26.91 64.74,49.53 88.49,59.02 23.75,9.49 35.83,5.87 52.89,2.39z"/>
    <path class="fil2" d="M924.22 20260.76c8.16,27.17 22.39,64.71 46.08,99.23 23.7,34.53 56.86,66.05 94.15,86.13 37.3,20.07 78.73,28.7 122.37,20.54 43.63,-8.15 89.46,-33.1 130.94,-72.05 41.47,-38.94 78.57,-91.88 113.53,-136.61 34.96,-44.73 67.78,-81.24 108.29,-114.63 40.5,-33.39 88.69,-63.65 131.84,-85.49 43.15,-21.84 81.26,-35.25 124.92,-47.7 43.67,-12.45 92.89,-23.93 136.68,-47.44 43.8,-23.52 82.18,-59.06 102.55,-106.32 20.38,-47.27 22.76,-106.24 3.52,-156.09 -19.25,-49.86 -60.11,-90.59 -102.09,-120.78 -41.98,-30.19 -85.07,-49.84 -121.61,-61.92 -36.54,-12.07 -66.53,-16.57 -97.21,-21.18 -30.68,-4.62 -62.05,-9.35 -99.21,-24.04 -37.16,-14.69 -80.11,-39.32 -126.81,-64.97 -46.7,-25.64 -97.17,-52.3 -153.68,-66.77 -56.52,-14.47 -119.09,-16.76 -177.77,-2.27 -58.69,14.48 -113.49,45.75 -151.58,81.7 -38.09,35.96 -59.46,76.6 -71.88,121.31 -12.42,44.71 -15.89,93.48 -13.87,145.71 2.01,52.22 9.51,107.9 13,163.96 3.5,56.07 2.99,112.5 1.38,152.65 -1.61,40.15 -4.32,64 -8.82,93.99 -4.49,29.99 -10.77,66.1 -12.87,92.57 -2.09,26.47 0,43.29 8.15,70.47z"/>
   </g>
   <g>
    <path class="fil2" d="M4685.92 17056.23c2.3,34.61 2.71,77.13 -2.97,121.34 -5.67,44.22 -17.43,90.13 -32.9,130.12 -15.46,39.98 -34.64,74.04 -55.02,102.28 -20.39,28.24 -41.99,50.68 -67.91,69.4 -25.92,18.72 -56.15,33.74 -94.72,35.09 -38.56,1.35 -85.45,-10.96 -123.18,-41.81 -37.72,-30.85 -66.29,-80.25 -82.33,-130.28 -16.03,-50.04 -19.54,-100.71 -14.96,-153.22 4.59,-52.52 17.26,-106.89 32.88,-155.12 15.62,-48.23 34.19,-90.31 64.07,-128.58 29.88,-38.28 71.07,-72.75 115.72,-86.05 44.65,-13.3 92.76,-5.44 135.11,22.89 42.35,28.34 78.95,77.13 99.34,114.88 20.39,37.75 24.57,64.45 26.87,99.06z"/>
    <path class="fil3" d="M3978.97 17542.02c22.57,-39.51 49.78,-94.67 68.96,-149.22 19.19,-54.55 30.34,-108.49 26.8,-163.66 -3.53,-55.17 -21.76,-111.56 -48.78,-146.63 -27.02,-35.08 -62.84,-48.84 -94.13,-58.13 -31.29,-9.29 -58.05,-14.1 -99.29,1.11 -41.25,15.22 -96.97,50.48 -139.35,93.89 -42.39,43.41 -71.42,94.98 -94.62,149.83 -23.19,54.85 -40.55,112.99 -36.41,176.19 4.14,63.19 29.78,131.45 58.29,171.85 28.51,40.39 59.89,52.94 90.37,60.81 30.48,7.87 60.07,11.08 94.88,2.17 34.81,-8.91 74.84,-29.94 103.82,-52.39 28.98,-22.44 46.9,-46.31 69.46,-85.82z"/>
    <path class="fil3" d="M3426.45 17241.49c24.61,-27.78 54,-66.33 78.26,-107.13 24.25,-40.81 43.37,-83.86 51.91,-135.44 8.53,-51.57 6.49,-111.66 -13.74,-157.65 -20.24,-45.99 -58.67,-77.88 -102.12,-94.02 -43.45,-16.13 -91.93,-16.52 -140.44,-0.91 -48.51,15.61 -97.06,47.22 -142.69,90.72 -45.64,43.5 -88.36,98.89 -116.82,153.99 -28.46,55.09 -42.65,109.89 -44.41,160.8 -1.75,50.9 8.93,97.92 32.7,133.09 23.77,35.16 60.62,58.47 97.32,69.53 36.7,11.05 73.26,9.85 112.52,-0.71 39.27,-10.57 81.25,-30.5 112.15,-48.98 30.91,-18.48 50.74,-35.5 75.36,-63.29z"/>
    <path class="fil2" d="M3405.06 16228.05c-11.73,-15.57 -25.71,-36.26 -57.18,-52.06 -31.47,-15.79 -80.43,-26.7 -135.69,-26.42 -55.25,0.28 -116.81,11.75 -176.1,43.08 -59.28,31.33 -116.29,82.52 -155.24,132.35 -38.95,49.83 -59.83,98.29 -67.21,146.68 -7.38,48.38 -1.26,96.67 11.5,132.05 12.76,35.37 32.15,57.82 70.77,75.72 38.61,17.9 96.45,31.24 154.84,23.12 58.4,-8.13 117.35,-37.73 168.51,-71.7 51.17,-33.98 94.55,-72.35 126.44,-110.77 31.89,-38.43 52.28,-76.92 65.37,-119.52 13.1,-42.6 18.9,-89.31 17.05,-117.9 -1.84,-28.59 -11.33,-39.05 -23.06,-54.63z"/>
    <path class="fil2" d="M4707.14 16569.08c23.55,-21.34 54.65,-53.81 78.14,-94.4 23.49,-40.59 39.39,-89.3 41.72,-136.68 2.33,-47.38 -8.9,-93.43 -38.17,-133.61 -29.27,-40.19 -76.58,-74.51 -135.93,-97.68 -59.36,-23.17 -130.76,-35.18 -192.82,-48.98 -62.06,-13.8 -114.79,-29.4 -168.06,-54.26 -53.27,-24.87 -107.09,-59.02 -149.95,-92.12 -42.87,-33.11 -74.79,-65.17 -108.41,-103.32 -33.62,-38.15 -68.94,-82.39 -113.81,-115.34 -44.87,-32.96 -99.3,-54.63 -156.9,-52.46 -57.6,2.16 -118.38,28.17 -159.51,71.64 -41.13,43.47 -62.63,104.41 -72.93,161.39 -10.31,56.99 -9.42,110.03 -4.02,152.79 5.4,42.76 15.3,75.24 25.41,108.49 10.11,33.24 20.44,67.25 23.49,111.89 3.06,44.65 -1.16,99.93 -4.59,159.51 -3.44,59.57 -6.08,123.43 6.52,187.55 12.59,64.11 40.42,128.47 83.34,180.83 42.92,52.35 100.93,92.7 155.63,113.89 54.7,21.19 106.1,23.22 157.28,14.24 51.19,-8.98 102.17,-28.97 154,-56.17 51.83,-27.19 104.52,-61.6 159.51,-92.14 55,-30.54 112.31,-57.22 153.67,-74.93 41.37,-17.71 66.8,-26.46 99.28,-36.36 32.49,-9.9 72.03,-20.95 99.8,-31.59 27.77,-10.63 43.77,-20.84 67.31,-42.18z"/>
   </g>
   <path class="fil4" d="M994.17 16570.45c55.31,-95.85 139.58,-244.69 230.15,-388.61 90.58,-143.94 187.46,-283 237.48,-358.59 50.02,-75.6 53.19,-87.75 42.05,-115.52 -11.12,-27.78 -36.54,-71.18 -55.95,-108.69 -19.39,-37.51 -32.76,-69.11 -42.09,-99.66 -9.32,-30.55 -14.6,-60.03 -14.58,-109.76 0.01,-49.74 5.33,-119.72 28.23,-174.29 22.91,-54.57 63.39,-93.72 107.33,-121.17 43.93,-27.46 91.3,-43.2 138.52,-46.01 47.23,-2.8 94.31,7.34 137.57,19.72 43.27,12.38 82.7,27 114.33,59.05 31.64,32.05 55.47,81.53 68,120.49 12.54,38.95 13.76,67.39 14.37,81.61 0.62,14.21 0.62,14.21 30.06,13.25 29.45,-0.96 88.34,-2.88 148.9,5.38 60.56,8.24 122.78,26.65 176.68,64.52 53.92,37.87 99.49,95.17 118.61,158.55 19.13,63.39 11.81,132.83 -7.4,198.11 -19.21,65.26 -50.3,126.34 -88.52,165.02 -38.21,38.68 -83.53,54.94 -135.87,60.73 -52.33,5.8 -111.66,1.11 -154.01,-2.37 -42.33,-3.49 -67.67,-5.79 -87.27,-1.17 -19.58,4.62 -33.4,16.14 -63.31,60.24 -29.89,44.09 -75.86,120.74 -167.42,284.97 -91.54,164.23 -228.66,416.03 -304.93,550.73 -76.27,134.7 -91.68,152.3 -84.26,194.25 7.43,41.94 37.69,108.22 53.87,162.19 16.18,53.97 18.28,95.59 8.8,152.59 -9.47,56.99 -30.53,129.35 -58.07,189.2 -27.52,59.85 -61.49,107.19 -108.77,139.18 -47.28,31.98 -107.85,48.6 -173.75,40.04 -65.88,-8.56 -137.07,-42.29 -194.24,-84.25 -57.16,-41.96 -100.26,-92.15 -121.43,-131.19 -21.15,-39.05 -20.35,-66.96 -19.96,-80.9 0.41,-13.96 0.41,-13.96 -18.7,-7.05 -19.1,6.9 -57.31,20.71 -99.21,23.83 -41.9,3.1 -87.49,-4.48 -135.55,-31.62 -48.06,-27.15 -98.58,-73.86 -130.2,-120.5 -31.61,-46.64 -44.33,-93.21 -45.45,-142.7 -1.12,-49.49 9.34,-101.91 26.67,-145.49 17.34,-43.59 41.56,-78.36 78.4,-107.66 36.86,-29.3 86.33,-53.15 148.43,-71.53 62.11,-18.38 136.84,-31.29 188.02,-49.27 51.21,-17.99 78.85,-41.05 105.84,-74 26.99,-32.97 53.32,-75.82 108.63,-171.65z"/>
   <path class="fil4" d="M15887.82 12649.54c-8.74,-79.53 -23.25,-202.33 -31.99,-324.97 -8.73,-122.65 -11.71,-245.14 -14.87,-310.6 -3.17,-65.47 -6.51,-73.9 -24.88,-85.33 -18.36,-11.45 -51.75,-25.88 -79.1,-39.45 -27.34,-13.57 -48.65,-26.28 -67.15,-40.1 -18.5,-13.83 -34.18,-28.76 -55.43,-57.76 -21.26,-29 -48.09,-72.07 -58.07,-113.68 -9.98,-41.61 -3.12,-81.75 10.76,-116.54 13.88,-34.79 34.76,-64.22 61.09,-86.05 26.34,-21.83 58.12,-36.05 88.63,-47.33 30.52,-11.28 59.77,-19.62 91.91,-14.46 32.16,5.16 67.2,23.81 91.16,41.17 23.97,17.35 36.84,33.4 43.28,41.44 6.43,8.02 6.43,8.02 23.19,-5.13 16.76,-13.15 50.27,-39.45 89.11,-60.54 38.83,-21.09 82.98,-36.96 130.59,-37.93 47.63,-0.97 98.7,12.95 136.95,41.73 38.26,28.77 63.68,72.39 80.39,118.66 16.71,46.26 24.7,95.16 18.96,134.06 -5.74,38.88 -25.21,67.74 -53.25,93.5 -28.03,25.76 -64.62,48.4 -90.8,64.47 -26.18,16.07 -41.93,25.56 -51.38,36.64 -9.44,11.06 -12.57,23.69 -11.15,62.18 1.42,38.49 7.4,102.83 24.24,237.73 16.85,134.89 44.58,340.32 57.71,451.47 13.13,111.14 11.67,127.99 33.94,149.28 22.26,21.27 68.24,46.98 100.75,71.52 32.51,24.54 51.54,47.91 70.38,85.2 18.84,37.28 37.5,88.46 47.04,135.13 9.55,46.66 9.99,88.79 -3.9,127.66 -13.89,38.86 -42.1,74.45 -84.17,97.63 -42.07,23.18 -98,33.96 -149.27,33.94 -51.27,-0.03 -97.86,-10.85 -126.89,-24.56 -29.03,-13.73 -40.5,-30.34 -46.23,-38.64 -5.73,-8.31 -5.73,-8.31 -13.92,3.89 -8.18,12.19 -24.55,36.58 -47.65,56.32 -23.1,19.72 -52.92,34.79 -92.55,39.52 -39.63,4.72 -89.05,-0.91 -127.43,-14.58 -38.37,-13.67 -65.7,-35.39 -87.51,-63.76 -21.82,-28.37 -38.13,-63.41 -46.66,-96.23 -8.53,-32.83 -9.28,-63.45 -0.33,-96.29 8.96,-32.84 27.6,-67.89 55.95,-105.17 28.35,-37.27 66.4,-76.75 88.55,-109.12 22.16,-32.38 28.42,-57.64 30.06,-88.39 1.64,-30.77 -1.33,-67.01 -10.06,-146.53z"/>
   <path class="fil4" d="M16513.77 10488.85c-110.59,3.91 -281.47,11.34 -451.52,10.84 -170.07,-0.52 -339.33,-8.95 -429.94,-11.3 -90.63,-2.34 -102.61,1.41 -120.25,25.57 -17.67,24.16 -40.99,68.72 -62.51,105.06 -21.52,36.33 -41.24,64.42 -62.2,88.52 -20.96,24.09 -43.16,44.19 -85.34,70.54 -42.19,26.36 -104.34,58.94 -162.76,68.45 -58.41,9.5 -113.07,-4.08 -159.64,-26.78 -46.56,-22.7 -85.02,-54.52 -112.43,-93.07 -27.41,-38.57 -43.77,-83.86 -56.2,-127.11 -12.44,-43.25 -20.94,-84.44 -10.53,-128.25 10.4,-43.82 39.73,-90.25 66.13,-121.52 26.38,-31.29 49.84,-47.4 61.58,-55.45 11.72,-8.06 11.72,-8.06 -4.7,-32.51 -16.42,-24.47 -49.27,-73.39 -74.37,-129.11 -25.11,-55.73 -42.48,-118.25 -38.94,-184.02 3.53,-65.79 27.97,-134.81 71.58,-184.62 43.6,-49.83 106.37,-80.42 171.9,-98.74 65.52,-18.3 133.8,-24.31 186.86,-12.41 53.05,11.9 90.86,41.71 123.52,83.03 32.65,41.3 60.13,94.09 79.62,131.84 19.48,37.75 30.96,60.45 45.27,74.62 14.29,14.16 31.39,19.77 84.63,21.76 53.24,1.97 142.6,0.32 330.39,-9.09 187.78,-9.43 473.98,-26.63 628.63,-33.36 154.64,-6.72 177.74,-2.99 209.38,-31.51 31.62,-28.54 71.79,-89.33 108.97,-131.65 37.19,-42.33 71.37,-66.18 124.73,-88.35 53.35,-22.18 125.86,-42.67 191.21,-51.05 65.34,-8.39 123.49,-4.67 175.68,18.46 52.18,23.14 98.38,65.69 126.05,126.11 27.66,60.39 36.79,138.64 31.52,209.36 -5.29,70.71 -25,133.87 -46.88,172.51 -21.9,38.64 -45.99,52.75 -58.02,59.81 -12.06,7.05 -12.06,7.05 3.93,19.59 15.98,12.54 47.94,37.62 72.8,71.5 24.84,33.88 42.58,76.55 45.03,131.7 2.46,55.14 -10.37,122.74 -33.16,174.27 -22.79,51.53 -55.54,87 -96.91,114.18 -41.37,27.19 -91.37,46.1 -137.51,54.51 -46.15,8.4 -88.47,6.29 -132.85,-9.42 -44.38,-15.72 -90.82,-45.02 -139.33,-87.94 -48.51,-42.93 -99.06,-99.45 -141.44,-133.32 -42.4,-33.88 -76.6,-45.1 -118.85,-50.51 -42.26,-5.43 -92.55,-5.04 -203.13,-1.14z"/>
   <path class="fil4" d="M4809.72 14909.82c-95.57,-55.79 -243.98,-140.82 -387.45,-232.11 -143.47,-91.31 -282.04,-188.88 -357.38,-239.28 -75.35,-50.4 -87.48,-53.64 -115.3,-42.64 -27.84,10.98 -71.37,36.19 -108.98,55.4 -37.6,19.21 -69.27,32.42 -99.87,41.59 -30.6,9.17 -60.1,14.29 -109.84,14.03 -49.73,-0.27 -119.68,-5.94 -174.14,-29.11 -54.45,-23.18 -93.4,-63.87 -120.63,-107.94 -27.23,-44.07 -42.73,-91.51 -45.3,-138.75 -2.56,-47.25 7.81,-94.28 20.41,-137.47 12.59,-43.2 27.42,-82.56 59.63,-114.03 32.21,-31.48 81.8,-55.06 120.83,-67.39 39.01,-12.34 67.45,-13.43 81.68,-13.96 14.21,-0.55 14.21,-0.55 13.4,-29.99 -0.81,-29.46 -2.43,-88.36 6.13,-148.88 8.54,-60.52 27.27,-122.64 65.41,-176.35 38.14,-53.72 95.67,-99 159.15,-117.8 63.48,-18.82 132.89,-11.15 198.06,8.39 65.17,19.54 126.09,50.94 164.58,89.35 38.48,38.41 54.51,83.81 60.04,136.18 5.54,52.36 0.55,111.67 -3.14,153.99 -3.71,42.32 -6.13,67.65 -1.61,87.27 4.51,19.6 15.97,33.48 59.91,63.61 43.95,30.11 120.36,76.47 284.13,168.86 163.76,92.37 414.87,230.75 549.18,307.7 134.31,76.95 151.84,92.45 193.83,85.24 41.98,-7.22 108.41,-37.14 162.45,-53.05 54.05,-15.91 95.69,-17.8 152.64,-8.03 56.94,9.76 129.19,31.19 188.9,59.02 59.71,27.82 106.88,62.04 138.63,109.48 31.74,47.44 48.06,108.09 39.16,173.94 -8.88,65.84 -42.97,136.86 -85.22,193.82 -42.26,56.94 -92.66,99.79 -131.81,120.76 -39.15,20.96 -67.05,20.02 -81,19.55 -13.96,-0.48 -13.96,-0.48 -7.14,18.67 6.8,19.13 20.42,57.41 23.33,99.33 2.89,41.92 -4.92,87.46 -32.31,135.39 -27.39,47.92 -74.35,98.2 -121.15,129.58 -46.8,31.38 -93.43,43.86 -142.93,44.74 -49.49,0.87 -101.86,-9.86 -145.35,-27.41 -43.51,-17.56 -78.15,-41.95 -107.27,-78.94 -29.11,-37.01 -52.71,-86.59 -70.78,-148.79 -18.06,-62.21 -30.59,-136.99 -48.32,-188.27 -17.73,-51.29 -40.65,-79.05 -73.46,-106.2 -32.83,-27.17 -75.55,-53.71 -171.1,-109.5z"/>
   <path class="fil4" d="M18315.01 14517.72c-108.52,21.67 -275.96,56.54 -443.87,83.43 -167.93,26.89 -336.35,45.84 -426.15,58.12 -89.82,12.28 -101.04,17.91 -114.56,44.6 -13.54,26.69 -29.38,74.43 -44.77,113.76 -15.39,39.32 -30.32,70.22 -47.12,97.38 -16.81,27.16 -35.48,50.57 -72.87,83.38 -37.38,32.8 -93.48,74.97 -149.6,93.76 -56.12,18.8 -112.25,14.2 -161.87,-0.7 -49.61,-14.91 -92.69,-40.11 -125.95,-73.75 -33.27,-33.65 -56.72,-75.71 -75.95,-116.39 -19.25,-40.68 -34.27,-79.96 -31.05,-124.88 3.21,-44.93 24.67,-95.47 45.68,-130.59 21,-35.12 41.56,-54.8 51.85,-64.65 10.27,-9.83 10.27,-9.83 -9.88,-31.32 -20.15,-21.5 -60.44,-64.49 -94.19,-115.45 -33.77,-50.95 -60.98,-109.85 -68.08,-175.34 -7.11,-65.5 5.88,-137.55 40.9,-193.74 35.01,-56.2 92.03,-96.51 153.75,-125.14 61.72,-28.62 128.13,-45.55 182.42,-42.35 54.27,3.2 96.39,26.53 135.28,62.04 38.88,35.5 74.5,83.18 99.82,117.3 25.31,34.12 40.3,54.67 56.7,66.35 16.38,11.67 34.17,14.46 87.03,7.84 52.86,-6.63 140.79,-22.65 324.62,-62.2 183.8,-39.55 463.49,-102.63 615.04,-134.19 151.54,-31.55 174.93,-31.58 201.57,-64.83 26.61,-33.26 56.46,-99.72 86.34,-147.49 29.88,-47.76 59.77,-76.8 108.86,-107.28 49.08,-30.48 117.35,-62.39 180.49,-81.19 63.14,-18.81 121.13,-24.51 176.36,-10.08 55.22,14.43 107.67,48.98 144.72,104.15 37.03,55.15 58.65,130.91 64.84,201.55 6.17,70.64 -3.11,136.14 -18.48,177.81 -15.39,41.66 -36.89,59.47 -47.63,68.38 -10.76,8.9 -10.76,8.9 7.04,18.7 17.79,9.8 53.37,29.4 83.36,58.83 29.98,29.44 54.36,68.7 65.67,122.73 11.31,54.03 9.54,122.81 -4.66,177.34 -14.19,54.53 -40.8,94.81 -77.25,128.3 -36.45,33.5 -82.75,60.21 -126.93,75.95 -44.2,15.72 -86.3,20.46 -132.63,12.11 -46.34,-8.37 -96.89,-29.81 -151.68,-64.35 -54.79,-34.56 -113.79,-82.19 -161.07,-108.8 -47.3,-26.6 -82.87,-32.17 -125.43,-30.7 -42.59,1.45 -92.16,9.94 -200.67,31.6z"/>
   <path class="fil4" d="M13503.45 14920.83c-165.98,-43.04 -423.04,-107.48 -675.37,-183.34 -252.35,-75.88 -500,-163.17 -633.54,-206.67 -133.55,-43.51 -153,-43.23 -189.88,-15.14 -36.9,28.07 -91.23,83.96 -139.24,128.43 -48.01,44.44 -89.69,77.45 -131.47,103.98 -41.78,26.53 -83.62,46.58 -157.91,67.08 -74.29,20.51 -180.99,41.45 -271.94,29.76 -90.96,-11.68 -166.14,-55.99 -225.27,-110.27 -59.13,-54.29 -102.19,-118.53 -125.87,-187.89 -23.67,-69.39 -27.97,-143.89 -27.32,-213.6 0.62,-69.73 6.19,-134.65 41,-195.12 34.81,-60.49 98.87,-116.49 151.89,-151.28 52.99,-34.8 94.95,-48.37 115.94,-55.15 20.97,-6.78 20.97,-6.78 7.39,-50.35 -13.59,-43.59 -40.76,-130.75 -53.43,-224.6 -12.68,-93.85 -10.86,-194.37 23.44,-290.5 34.31,-96.15 101.08,-187.86 187.86,-242.57 86.77,-54.74 193.49,-72.46 298.91,-70.71 105.39,1.75 209.45,22.98 283,64.09 73.52,41.11 116.51,102.09 146.77,177.87 30.25,75.75 47.74,166.29 60.02,230.97 12.25,64.68 19.28,103.46 34.27,130.82 14.97,27.34 37.89,43.23 116.08,69.69 78.19,26.45 211.63,63.47 494.7,132.43 283.04,68.94 715.69,169.8 948.34,228.12 232.65,58.32 265.29,74.07 324.89,45.67 59.57,-28.41 146.07,-100.94 219.99,-147.38 73.91,-46.44 135.21,-66.76 224.26,-76.12 89.02,-9.37 205.77,-7.78 306.52,8.64 100.74,16.39 185.47,47.6 252.76,105.01 67.27,57.41 117.09,141.01 131.5,242.95 14.41,101.93 -6.59,222.17 -45.65,324.87 -39.09,102.68 -96.25,187.77 -145.82,235.5 -49.6,47.7 -91.6,58.02 -112.6,63.19 -21.01,5.15 -21.01,5.15 -2.8,30.84 18.18,25.68 54.58,77.04 76.53,138.34 21.93,61.29 29.42,132.5 8.72,215.48 -20.71,82.99 -69.62,177.71 -126.23,244.18 -56.6,66.46 -120.91,104.67 -194.36,126.77 -73.45,22.11 -156.05,28.11 -228.29,20.22 -72.26,-7.91 -134.18,-29.74 -193.15,-72.66 -58.97,-42.95 -115,-106.99 -168.08,-192.15 -53.08,-85.19 -103.2,-191.45 -151.18,-260.48 -48,-69.04 -93.85,-100.82 -154.2,-127.51 -60.37,-26.72 -135.23,-48.36 -301.18,-91.41z"/>
   <path class="fil4" d="M11555.38 16238.71c30.28,-67.91 76.22,-173.26 126.7,-275.77 50.49,-102.51 105.53,-202.2 133.68,-256.2 28.16,-54.02 29.43,-62.36 20.05,-80.14 -9.37,-17.79 -29.39,-45.03 -44.98,-68.74 -15.57,-23.71 -26.71,-43.9 -35.07,-63.66 -8.37,-19.77 -13.95,-39.1 -17.41,-72.34 -3.46,-33.24 -4.79,-80.38 6.71,-118.44 11.5,-38.07 35.82,-67.06 63.27,-88.47 27.44,-21.42 58,-35.24 89.36,-40.41 31.37,-5.17 63.54,-1.68 93.31,3.58 29.79,5.25 57.16,12.27 80.53,31.48 23.39,19.22 42.76,50.62 53.85,75.78 11.1,25.16 13.9,44.08 15.3,53.54 1.4,9.45 1.4,9.45 21.01,6.76 19.62,-2.7 58.84,-8.09 99.89,-6.8 41.05,1.28 83.91,9.25 122.58,30.79 38.67,21.55 73.12,56.66 90.32,97.69 17.21,41.03 17.17,87.94 8.88,132.91 -8.28,44.95 -24.8,87.94 -47.64,116.46 -22.84,28.51 -51.99,42.54 -86.57,50.06 -34.57,7.53 -74.54,8.54 -103.08,9.17 -28.54,0.61 -45.64,0.85 -58.41,5.31 -12.76,4.44 -21.2,13.11 -38.11,44.66 -16.9,31.56 -42.27,85.99 -92,202.13 -49.72,116.14 -123.79,293.99 -165.36,389.33 -41.57,95.34 -50.64,108.18 -42.76,135.7 7.9,27.51 32.74,69.69 47.32,104.63 14.58,34.93 18.89,62.6 16.52,101.36 -2.35,38.75 -11.38,88.57 -25.6,130.49 -14.22,41.92 -33.62,75.93 -62.98,100.6 -29.37,24.67 -68.69,40.01 -113.32,38.88 -44.63,-1.12 -94.56,-18.69 -135.69,-42.74 -41.13,-24.06 -73.44,-54.59 -90.31,-79.21 -16.86,-24.62 -18.27,-43.33 -18.98,-52.67 -0.7,-9.36 -0.7,-9.36 -12.99,-3.41 -12.28,5.94 -36.85,17.84 -64.64,22.85 -27.79,5 -58.78,3.11 -92.79,-11.68 -34.02,-14.79 -71.04,-42.48 -95.42,-71.44 -24.38,-28.96 -36.13,-59.2 -40.33,-92.2 -4.21,-32.99 -0.87,-68.75 7.67,-99.09 8.55,-30.34 22.31,-55.26 44.89,-77.42 22.58,-22.15 53.98,-41.54 94.2,-58.16 40.23,-16.61 89.26,-30.45 122.22,-46.04 32.96,-15.6 49.83,-32.93 65.56,-56.84 15.74,-23.91 30.35,-54.39 60.62,-122.29z"/>
   <path class="fil4" d="M11070.68 19331.3c21.28,-108.59 52.81,-276.7 91.88,-442.2 39.08,-165.52 85.69,-328.46 108.53,-416.17 22.84,-87.73 21.91,-100.25 2.38,-122.92 -19.52,-22.68 -57.63,-55.51 -88.14,-84.71 -30.5,-29.2 -53.38,-54.77 -72.1,-80.66 -18.71,-25.88 -33.25,-52.06 -49.35,-99.12 -16.09,-47.06 -33.73,-114.99 -29.73,-174.04 3.99,-59.04 29.62,-109.2 62.29,-149.4 32.67,-40.2 72.39,-70.44 116.15,-88.39 43.79,-17.95 91.61,-23.61 136.54,-25.9 44.95,-2.3 86.99,-1.24 127.3,18.84 40.32,20.07 78.89,59.17 103.36,91.97 24.48,32.79 34.85,59.3 40.03,72.55 5.18,13.25 5.18,13.25 32.72,2.81 27.56,-10.45 82.65,-31.34 142.62,-43.14 59.97,-11.82 124.8,-14.55 188.06,3.81 63.27,18.37 124.95,57.82 163.57,111.6 38.63,53.77 54.19,121.84 57.16,189.82 2.96,67.96 -6.67,135.82 -30.3,184.8 -23.63,48.96 -61.24,79.03 -108.88,101.46 -47.63,22.44 -105.28,37.22 -146.47,47.64 -41.19,10.41 -65.9,16.44 -82.95,27.16 -17.03,10.71 -26.37,26.09 -40.39,77.49 -13.99,51.4 -32.66,138.81 -66.09,323.84 -33.42,185.02 -81.59,467.66 -110.13,619.8 -28.53,152.14 -37.41,173.79 -16.8,211.08 20.62,37.27 70.71,90.18 103.49,135.99 32.79,45.82 48.27,84.52 57.75,141.52 9.5,56.99 13.01,132.26 6.34,197.81 -6.65,65.54 -23.46,121.33 -57.83,166.91 -34.37,45.57 -86.29,80.91 -151.41,94.15 -65.1,13.24 -143.38,4.39 -211.06,-16.79 -67.66,-21.19 -124.7,-54.71 -157.37,-84.79 -32.66,-30.1 -40.94,-56.76 -45.09,-70.08 -4.14,-13.34 -4.14,-13.34 -19.97,-0.61 -15.84,12.71 -47.52,38.15 -86.15,54.67 -38.64,16.51 -84.22,24.11 -138.49,13.99 -54.26,-10.12 -117.18,-37.95 -162.2,-71.83 -45.02,-33.89 -72.13,-73.83 -89.22,-120.29 -17.1,-46.46 -24.17,-99.44 -21.89,-146.29 2.29,-46.86 13.94,-87.59 39.31,-127.25 25.37,-39.66 64.45,-78.24 117.25,-115.74 52.82,-37.51 119.33,-73.93 161.93,-107.52 42.62,-33.6 61.31,-64.37 76.16,-104.29 14.87,-39.93 25.9,-89 47.19,-197.58z"/>
   <path class="fil4" d="M7239.38 16885.34c-106.69,29.36 -271.23,76.07 -436.79,114.87 -165.59,38.79 -332.22,69.7 -420.92,88.35 -88.71,18.66 -99.51,25.08 -111.09,52.66 -11.61,27.58 -24,76.34 -36.54,116.66 -12.55,40.32 -25.24,72.21 -40.07,100.49 -14.82,28.29 -31.78,52.98 -66.73,88.36 -34.95,35.39 -87.9,81.45 -142.53,104.2 -54.64,22.74 -110.96,22.16 -161.51,10.83 -50.55,-11.33 -95.32,-33.4 -130.9,-64.58 -35.58,-31.19 -61.96,-71.47 -84.04,-110.67 -22.1,-39.21 -39.89,-77.32 -39.89,-122.35 0,-45.04 17.8,-96.99 36.26,-133.52 18.44,-36.53 37.55,-57.62 47.11,-68.17 9.54,-10.55 9.54,-10.55 -12.08,-30.55 -21.64,-20.01 -64.9,-60.01 -102.19,-108.43 -37.31,-48.42 -68.66,-105.23 -80.41,-170.04 -11.76,-64.83 -3.94,-137.63 26.98,-196.17 30.92,-58.55 84.91,-102.82 144.44,-135.78 59.52,-32.95 124.56,-54.57 178.93,-55.25 54.37,-0.68 98.05,19.59 139.36,52.24 41.32,32.64 80.25,77.65 107.94,109.88 27.67,32.23 44.09,51.66 61.28,62.14 17.18,10.47 35.11,11.98 87.37,1.61 52.25,-10.38 138.81,-32.63 319.35,-85.18 180.52,-52.56 455,-135.42 603.91,-177.7 148.91,-42.28 172.24,-43.98 196.44,-79.04 24.17,-35.07 49.2,-103.49 75.6,-153.27 26.4,-49.77 54.14,-80.87 100.94,-114.77 46.78,-33.9 112.6,-70.6 174.24,-93.85 61.63,-23.26 119.07,-33.08 175.19,-22.63 56.12,10.46 110.89,41.18 151.78,93.57 40.87,52.37 67.83,126.39 79.04,196.41 11.19,70.02 6.61,136.02 -5.75,178.68 -12.38,42.65 -32.56,61.94 -42.64,71.59 -10.09,9.65 -10.09,9.65 8.36,18.15 18.44,8.51 55.33,25.53 87.35,52.75 32,27.23 59.11,64.64 74.24,117.73 15.14,53.09 18.27,121.81 8.01,177.22 -10.27,55.4 -33.94,97.47 -67.91,133.48 -33.97,36.01 -78.25,65.96 -121.19,84.8 -42.97,18.84 -84.63,26.57 -131.44,21.54 -46.81,-5.04 -98.76,-22.82 -155.87,-53.37 -57.12,-30.56 -119.36,-73.87 -168.42,-97.03 -49.08,-23.17 -84.95,-26.19 -127.31,-21.69 -42.37,4.49 -91.21,16.49 -197.9,45.83z"/>
   <path class="fil4" d="M2707.96 19400.98c-41.37,-102.64 -106.61,-260.75 -164.09,-420.79 -57.49,-160.06 -107.26,-322.06 -135.94,-408.04 -28.68,-85.99 -36.29,-95.98 -65.02,-104.33 -28.73,-8.38 -78.58,-15.11 -120.08,-22.96 -41.49,-7.85 -74.61,-16.81 -104.41,-28.3 -29.8,-11.49 -56.27,-25.51 -95.42,-56.18 -39.15,-30.68 -90.97,-78 -119.82,-129.68 -28.85,-51.68 -34.71,-107.69 -29.24,-159.21 5.47,-51.51 22.27,-98.51 49.18,-137.42 26.91,-38.92 63.91,-69.74 100.33,-96.16 36.42,-26.44 72.25,-48.48 116.98,-53.62 44.75,-5.16 98.39,6.58 136.79,20.74 38.4,14.14 61.54,30.71 73.12,39 11.56,8.27 11.56,8.27 28.96,-15.5 17.4,-23.78 52.19,-71.33 96.03,-113.93 43.82,-42.6 96.68,-80.24 159.72,-99.33 63.06,-19.1 136.27,-19.66 197.96,4.36 61.71,24.01 111.87,72.59 151.42,127.96 39.54,55.35 68.47,117.49 75.37,171.43 6.89,53.93 -8.25,99.64 -35.96,144.42 -27.69,44.78 -67.96,88.6 -96.8,119.8 -28.86,31.18 -46.28,49.71 -54.73,67.99 -8.44,18.26 -7.88,36.25 8.4,86.98 16.29,50.72 48.3,134.17 121.16,307.51 72.87,173.32 186.6,436.51 245.64,579.61 59.03,143.09 63.39,166.07 101,186.1 37.6,20 108.44,37.04 160.91,57.57 52.46,20.53 86.53,44.53 125.56,87.14 39.04,42.6 83.02,103.78 113.17,162.36 30.16,58.57 46.49,114.5 42.53,171.45 -3.97,56.94 -28.22,114.88 -75.59,161.48 -47.35,46.6 -117.8,81.86 -186.08,101.01 -68.28,19.13 -134.36,22.13 -178.15,14.73 -43.79,-7.43 -65.27,-25.26 -76.01,-34.17 -10.74,-8.92 -10.74,-8.92 -17.07,10.38 -6.35,19.29 -19.03,57.89 -42.41,92.81 -23.39,34.9 -57.46,66.12 -108.46,87.23 -51.01,21.11 -118.93,32.09 -175.14,28.23 -56.21,-3.86 -100.72,-22.57 -140.38,-52.19 -39.66,-29.63 -74.48,-70.18 -98.11,-110.69 -23.63,-40.53 -36.07,-81.03 -36.43,-128.11 -0.35,-47.08 11.37,-100.73 35.18,-160.96 23.82,-60.24 59.73,-127.03 77.12,-178.42 17.4,-51.4 16.3,-87.39 6.98,-128.95 -9.31,-41.58 -26.81,-88.72 -68.17,-191.35z"/>
   <path class="fil4" d="M6412.71 19252.56c45.24,-100.99 113.89,-257.65 189.29,-410.07 75.43,-152.43 157.6,-300.65 199.65,-380.95 42.04,-80.31 43.96,-92.72 30.05,-119.2 -13.9,-26.51 -43.62,-67.09 -66.76,-102.42 -23.12,-35.33 -39.64,-65.41 -52.03,-94.85 -12.39,-29.43 -20.65,-58.22 -25.71,-107.7 -5.06,-49.48 -6.92,-119.63 10.3,-176.26 17.21,-56.62 53.49,-99.7 94.4,-131.49 40.9,-31.79 86.41,-52.29 133.1,-59.9 46.7,-7.6 94.57,-2.33 138.86,5.58 44.31,7.89 85.03,18.42 119.76,47.07 34.75,28.66 63.51,75.45 79.94,112.93 16.45,37.46 20.57,65.62 22.63,79.71 2.06,14.07 2.06,14.07 31.25,10.11 29.2,-3.95 87.59,-11.87 148.68,-9.84 61.08,2.02 124.86,13.98 182.34,46.15 57.5,32.17 108.68,84.52 134.17,145.63 25.5,61.1 25.3,130.93 12.85,197.82 -12.44,66.88 -37.14,130.82 -71.21,173.2 -34.07,42.37 -77.5,63.17 -128.97,74.28 -51.47,11.1 -110.97,12.5 -153.44,13.36 -42.48,0.84 -67.92,1.14 -86.94,7.74 -19.01,6.58 -31.58,19.46 -56.83,66.38 -25.24,46.91 -63.14,127.85 -137.47,300.57 -74.3,172.71 -185.01,437.19 -247.14,578.97 -62.12,141.78 -75.66,160.86 -64,201.84 11.68,40.96 48.54,103.81 70.14,155.84 21.61,52.03 27.95,93.23 24.33,150.9 -3.61,57.66 -17.17,131.78 -38.46,194.13 -21.26,62.35 -50.23,112.91 -94,149.56 -43.77,36.64 -102.33,59.35 -168.75,57.56 -66.41,-1.79 -140.67,-28.08 -201.83,-63.98 -61.14,-35.92 -109.14,-81.45 -134.18,-118.12 -25.03,-36.69 -27.08,-64.53 -28.11,-78.45 -1.02,-13.92 -1.02,-13.92 -19.32,-5.1 -18.3,8.81 -54.9,26.45 -96.27,33.83 -41.36,7.36 -87.48,4.48 -138.06,-17.63 -50.59,-22.1 -105.61,-63.4 -141.82,-106.57 -36.21,-43.17 -53.61,-88.21 -59.78,-137.32 -6.16,-49.12 -1.1,-102.33 11.69,-147.46 12.8,-45.13 33.35,-82.19 67.01,-115.1 33.67,-32.91 80.44,-61.68 140.35,-86.3 59.91,-24.62 132.93,-45.09 182.01,-68.2 49.1,-23.12 74.25,-48.88 97.73,-84.41 23.49,-35.55 45.31,-80.86 90.55,-181.84z"/>
   <path class="fil4" d="M7474.8 11060.42c-41.37,-102.64 -106.6,-260.75 -164.09,-420.79 -57.49,-160.06 -107.25,-322.06 -135.93,-408.04 -28.69,-86 -36.3,-95.98 -65.03,-104.33 -28.73,-8.38 -78.58,-15.12 -120.08,-22.96 -41.48,-7.85 -74.61,-16.81 -104.41,-28.3 -29.8,-11.49 -56.26,-25.51 -95.42,-56.19 -39.15,-30.67 -90.97,-78 -119.82,-129.67 -28.84,-51.68 -34.71,-107.69 -29.24,-159.21 5.47,-51.51 22.28,-98.51 49.18,-137.42 26.91,-38.92 63.92,-69.74 100.33,-96.16 36.42,-26.44 72.25,-48.48 116.98,-53.62 44.75,-5.16 98.39,6.58 136.79,20.74 38.4,14.14 61.54,30.71 73.12,38.99 11.57,8.28 11.57,8.28 28.96,-15.49 17.4,-23.78 52.2,-71.33 96.03,-113.93 43.83,-42.6 96.68,-80.24 159.72,-99.33 63.06,-19.11 136.27,-19.66 197.97,4.36 61.7,24.01 111.86,72.59 151.41,127.95 39.55,55.36 68.47,117.5 75.37,171.44 6.89,53.93 -8.25,99.64 -35.95,144.42 -27.7,44.78 -67.96,88.6 -96.81,119.8 -28.85,31.18 -46.28,49.71 -54.72,67.99 -8.44,18.26 -7.89,36.25 8.39,86.98 16.29,50.72 48.3,134.17 121.17,307.51 72.86,173.32 186.59,436.51 245.63,579.61 59.03,143.09 63.39,166.07 101,186.1 37.61,20 108.44,37.04 160.91,57.57 52.46,20.53 86.54,44.53 125.57,87.14 39.03,42.6 83.02,103.78 113.17,162.36 30.16,58.57 46.48,114.5 42.52,171.45 -3.97,56.94 -28.22,114.88 -75.58,161.48 -47.35,46.6 -117.8,81.86 -186.08,101.01 -68.28,19.13 -134.37,22.13 -178.16,14.72 -43.79,-7.42 -65.27,-25.25 -76.01,-34.16 -10.74,-8.92 -10.74,-8.92 -17.07,10.38 -6.35,19.29 -19.03,57.89 -42.41,92.81 -23.38,34.9 -57.45,66.12 -108.46,87.23 -51,21.11 -118.92,32.09 -175.14,28.23 -56.21,-3.86 -100.72,-22.57 -140.38,-52.19 -39.66,-29.63 -74.47,-70.18 -98.11,-110.69 -23.63,-40.53 -36.07,-81.04 -36.43,-128.11 -0.35,-47.08 11.37,-100.73 35.18,-160.96 23.83,-60.24 59.73,-127.03 77.13,-178.42 17.4,-51.4 16.29,-87.39 6.98,-128.95 -9.31,-41.58 -26.82,-88.72 -68.18,-191.35z"/>
   <path class="fil4" d="M3601.2 12988.56c-91.83,8.83 -233.65,23.64 -375.19,31.8 -141.54,8.16 -282.82,9.68 -358.34,12.3 -75.53,2.62 -85.31,6.35 -98.78,27.35 -13.48,20.99 -30.64,59.25 -46.71,90.58 -16.08,31.31 -31.07,55.68 -47.29,76.79 -16.23,21.11 -33.69,38.96 -67.46,63.02 -33.77,24.05 -83.85,54.31 -131.98,65.16 -48.13,10.86 -94.3,2.32 -134.2,-14.22 -39.89,-16.54 -73.5,-41.08 -98.25,-71.78 -24.76,-30.71 -40.66,-67.58 -53.19,-102.93 -12.53,-35.37 -21.69,-69.21 -15.23,-106.2 6.44,-36.99 28.5,-77.11 48.89,-104.46 20.38,-27.36 39.09,-41.95 48.45,-49.25 9.35,-7.29 9.35,-7.29 -5.55,-26.81 -14.9,-19.53 -44.7,-58.59 -68.4,-103.69 -23.71,-45.11 -41.32,-96.25 -41.69,-151.17 -0.38,-54.92 16.47,-113.59 50.24,-157.24 33.78,-43.66 84.46,-72.29 138.07,-90.84 53.6,-18.54 110.11,-26.99 154.87,-19.76 44.74,7.23 77.71,30.13 106.97,62.86 29.26,32.72 54.79,75.26 72.91,105.69 18.12,30.44 28.82,48.75 41.44,59.82 12.61,11.06 27.12,14.86 71.52,13.83 44.4,-1.04 118.68,-6.92 274.48,-24.24 155.79,-17.32 393.08,-46.07 521.43,-59.47 128.35,-13.41 147.75,-11.46 172.65,-36.8 24.87,-25.34 55.23,-77.95 84.03,-115.05 28.81,-37.1 56.05,-58.67 99.34,-79.81 43.27,-21.15 102.58,-41.86 156.53,-52.13 53.95,-10.28 102.53,-10.12 147.13,6.5 44.59,16.62 85.18,49.7 111.25,98.57 26.07,48.87 37.62,113.52 36.8,172.64 -0.83,59.1 -14.04,112.65 -30.31,145.92 -16.27,33.25 -35.6,46.21 -45.26,52.69 -9.68,6.48 -9.68,6.48 4.26,16.11 13.93,9.63 41.79,28.88 64.19,55.82 22.38,26.94 39.29,61.56 44.12,107.32 4.83,45.77 -2.44,102.66 -18.8,146.7 -16.37,44.03 -41.83,75.19 -74.88,99.9 -33.06,24.71 -73.71,42.97 -111.68,52.3 -37.99,9.32 -73.31,9.7 -111.03,-1.13 -37.72,-10.84 -77.85,-32.89 -120.38,-66.15 -42.53,-33.28 -87.45,-77.76 -124.43,-103.81 -36.99,-26.05 -66.02,-33.66 -101.45,-36.04 -35.44,-2.37 -77.27,0.49 -169.09,9.31z"/>
   <path class="fil4" d="M6472.78 13130.81c64.24,-53.26 162.84,-136.39 264.61,-214.4 101.78,-78.01 206.73,-150.92 261.91,-191.24 55.19,-40.34 60.62,-48.09 60.03,-70.65 -0.58,-22.55 -7.17,-59.91 -11.06,-91.51 -3.88,-31.6 -5.04,-57.45 -3.62,-81.5 1.42,-24.04 5.42,-46.26 18.47,-81.42 13.05,-35.16 35.16,-83.24 65.66,-115.81 30.5,-32.58 69.39,-49.64 107.65,-57.53 38.25,-7.89 75.87,-6.6 109.99,3.8 34.13,10.4 64.76,29.91 92.09,50.01 27.34,20.09 51.39,40.77 65.35,71.72 13.96,30.96 17.84,72.19 16.48,103.02 -1.35,30.82 -7.94,51.25 -11.24,61.46 -3.29,10.21 -3.29,10.21 17.77,17.25 21.08,7.05 63.22,21.13 103.87,42.85 40.65,21.7 79.81,51.03 107.99,91.94 28.19,40.91 45.38,93.37 42.28,143.19 -3.09,49.83 -26.48,97.01 -57.17,138.12 -30.7,41.1 -68.69,76.13 -105.86,93.46 -37.15,17.32 -73.46,16.93 -111.98,7.31 -38.52,-9.63 -79.23,-28.49 -108.26,-42.06 -29.01,-13.57 -46.33,-21.84 -61.39,-23.71 -15.05,-1.87 -27.85,2.65 -60.55,25.98 -32.7,23.34 -85.29,65.48 -193.09,157.58 -107.78,92.1 -270.74,234.17 -359.98,309.4 -89.24,75.23 -104.75,83.63 -110.51,115.24 -5.74,31.6 -1.73,86.39 -4.44,128.79 -2.71,42.39 -12.14,72.37 -33.79,110.18 -21.64,37.81 -55.5,83.44 -90.66,118.54 -35.15,35.1 -71.58,59.66 -113.4,69.88 -41.81,10.21 -88.99,6.08 -133.33,-17.25 -44.33,-23.33 -85.82,-65.84 -115.24,-110.49 -29.4,-44.66 -46.72,-91.44 -51.44,-124.6 -4.72,-33.15 3.16,-52.67 7.1,-62.43 3.95,-9.76 3.95,-9.76 -11.37,-9.88 -15.32,-0.13 -45.95,-0.39 -76.39,-9.17 -30.44,-8.79 -60.68,-26.1 -87.54,-57.9 -26.87,-31.79 -50.33,-78.06 -60.46,-119.32 -10.12,-41.27 -6.89,-77.53 5.29,-112.81 12.18,-35.28 33.33,-69.6 57,-95.87 23.69,-26.27 49.93,-44.49 83.66,-55.55 33.74,-11.05 74.96,-14.94 123.69,-11.65 48.73,3.29 104.95,13.76 145.85,14.46 40.92,0.71 66.51,-8.34 94.22,-24.56 27.73,-16.23 57.58,-39.62 121.81,-92.87z"/>
   <path class="fil4" d="M11048.09 11280.26c-36.12,-89.64 -93.09,-227.72 -143.3,-367.49 -50.2,-139.78 -93.67,-281.26 -118.71,-356.35 -25.06,-75.1 -31.7,-83.82 -56.79,-91.12 -25.09,-7.31 -68.63,-13.19 -104.87,-20.04 -36.23,-6.86 -65.16,-14.68 -91.19,-24.72 -26.02,-10.04 -49.13,-22.28 -83.32,-49.07 -34.19,-26.78 -79.45,-68.12 -104.64,-113.25 -25.2,-45.13 -30.32,-94.04 -25.54,-139.03 4.77,-45 19.45,-86.04 42.95,-120.02 23.5,-33.99 55.82,-60.91 87.62,-83.98 31.81,-23.09 63.09,-42.33 102.16,-46.83 39.08,-4.5 85.93,5.76 119.46,18.12 33.54,12.35 53.75,26.81 63.86,34.05 10.1,7.23 10.1,7.23 25.29,-13.53 15.2,-20.77 45.58,-62.3 83.87,-99.49 38.27,-37.21 84.43,-70.08 139.48,-86.76 55.07,-16.68 119.01,-17.16 172.89,3.81 53.89,20.98 97.69,63.4 132.24,111.75 34.53,48.34 59.79,102.61 65.81,149.72 6.02,47.09 -7.2,87.01 -31.4,126.12 -24.18,39.11 -59.35,77.38 -84.54,104.62 -25.2,27.23 -40.42,43.42 -47.79,59.39 -7.37,15.94 -6.89,31.65 7.33,75.96 14.23,44.29 42.18,117.17 105.82,268.55 63.63,151.36 162.95,381.22 214.51,506.18 51.56,124.97 55.37,145.04 88.21,162.53 32.84,17.47 94.7,32.35 140.53,50.28 45.82,17.93 75.57,38.89 109.66,76.1 34.09,37.2 72.5,90.64 98.83,141.79 26.34,51.15 40.6,100 37.14,149.74 -3.47,49.72 -24.65,100.32 -66.01,141.02 -41.35,40.7 -102.88,71.49 -162.51,88.21 -59.63,16.71 -117.35,19.33 -155.59,12.86 -38.24,-6.48 -57,-22.05 -66.38,-29.83 -9.37,-7.8 -9.37,-7.8 -14.91,9.06 -5.54,16.85 -16.61,50.56 -37.03,81.05 -20.42,30.49 -50.18,57.75 -94.72,76.18 -44.55,18.44 -103.86,28.03 -152.95,24.65 -49.1,-3.37 -87.97,-19.7 -122.6,-45.57 -34.64,-25.87 -65.04,-61.3 -85.68,-96.67 -20.64,-35.4 -31.51,-70.77 -31.82,-111.88 -0.31,-41.12 9.93,-87.97 30.72,-140.57 20.81,-52.61 52.17,-110.94 67.36,-155.82 15.19,-44.89 14.23,-76.31 6.09,-112.61 -8.13,-36.31 -23.41,-77.49 -59.54,-167.11z"/>
   <path class="fil4" d="M9608.32 12994.73c62.99,-67.76 159.49,-173.27 260.21,-273.61 100.73,-100.34 205.67,-195.53 260.56,-247.77 54.9,-52.24 59.75,-61.55 55.87,-86.26 -3.86,-24.71 -16.46,-64.84 -25.26,-99.03 -8.79,-34.19 -13.77,-62.44 -15.65,-89.07 -1.89,-26.64 -0.67,-51.65 8.64,-92.17 9.31,-40.52 26.73,-96.55 55.6,-136.73 28.87,-40.18 69.18,-64.51 110.11,-78.66 40.94,-14.15 82.47,-18.12 121.47,-11.58 39.02,6.55 75.48,23.61 108.41,41.8 32.94,18.17 62.34,37.46 82.12,69.49 19.79,32.04 29.95,76.81 32.87,110.9 2.93,34.08 -1.39,57.48 -3.55,69.18 -2.16,11.7 -2.16,11.7 22.01,16.42 24.18,4.73 72.52,14.18 120.32,32.23 47.81,18.04 95.06,44.68 131.9,85.61 36.85,40.94 63.26,96.16 66.99,151.38 3.74,55.23 -15.22,110.44 -43.08,160.03 -27.85,49.59 -64.61,93.54 -102.99,117.92 -38.37,24.36 -78.34,29.13 -122.07,24.07 -43.72,-5.07 -91.19,-19.98 -125.04,-30.74 -33.84,-10.76 -54.06,-17.37 -70.89,-17.27 -16.82,0.1 -30.24,6.9 -62.85,37.24 -32.61,30.34 -84.4,84.19 -189.72,200.89 -105.3,116.69 -264.12,296.22 -351.46,391.71 -87.33,95.49 -103.18,106.95 -104.98,142.52 -1.79,35.57 10.46,95.23 13.56,142.23 3.09,47 -2.98,81.31 -21.37,125.98 -18.38,44.67 -49.07,99.68 -82.7,143.3 -33.61,43.63 -70.15,75.84 -114.66,93.07 -44.51,17.21 -96.97,19.43 -149.06,0.13 -52.08,-19.29 -103.78,-60.09 -142.52,-104.97 -38.72,-44.89 -64.45,-93.84 -74.4,-129.61 -9.93,-35.78 -4.06,-58.37 -1.13,-69.66 2.94,-11.29 2.94,-11.29 -13.92,-9.23 -16.86,2.04 -50.57,6.15 -85.3,0.85 -34.72,-5.3 -70.45,-20 -104.53,-51.11 -34.09,-31.11 -66.52,-78.62 -83.55,-122.53 -17.04,-43.92 -18.69,-84.24 -10.35,-124.78 8.34,-40.53 26.67,-81.29 48.94,-113.56 22.28,-32.27 48.52,-56.07 84.02,-73.06 35.51,-16.98 80.28,-27.16 134.32,-30.52 54.05,-3.36 117.35,0.09 162.42,-4.99 45.08,-5.08 71.92,-18.7 100.07,-40.5 28.16,-21.81 57.63,-51.8 120.62,-119.54z"/>
   <g>
    <path class="fil2" d="M998.12 14016c19.58,-2.5 43.71,-4.2 69.03,-2.51 25.31,1.7 51.8,6.79 75.05,14.2 23.24,7.4 43.25,17.12 60,27.73 16.75,10.6 30.24,22.1 41.77,36.17 11.53,14.08 21.1,30.74 23.2,52.6 2.1,21.86 -3.27,48.92 -19.5,71.41 -16.22,22.5 -43.3,40.43 -71.17,51.27 -27.86,10.84 -56.52,14.58 -86.52,13.79 -29.99,-0.79 -61.31,-6.11 -89.25,-13.32 -27.93,-7.21 -52.48,-16.31 -75.25,-31.96 -22.78,-15.65 -43.78,-37.86 -52.88,-62.76 -9.09,-24.91 -6.29,-52.51 8.35,-77.54 14.63,-25.04 41.08,-47.51 61.82,-60.4 20.74,-12.88 35.76,-16.18 55.35,-18.68z"/>
    <path class="fil3" d="M1298.48 14400.81c-23.22,-11.46 -55.49,-25.01 -87.14,-34.02 -31.65,-9.02 -62.68,-13.49 -93.9,-9.57 -31.22,3.91 -62.62,16.21 -81.61,32.77 -18.99,16.56 -25.57,37.38 -29.77,55.48 -4.2,18.09 -6.01,33.46 4.06,56.36 10.07,22.91 32.02,53.35 58.14,75.92 26.13,22.58 56.42,37.29 88.38,48.57 31.96,11.29 65.59,19.14 101.34,14.6 35.76,-4.53 73.65,-21.45 95.61,-39.04 21.97,-17.59 28.01,-35.85 31.43,-53.44 3.42,-17.58 4.22,-34.5 -2.05,-53.97 -6.26,-19.47 -19.59,-41.48 -33.34,-57.16 -13.75,-15.69 -27.93,-25.05 -51.15,-36.5z"/>
    <path class="fil3" d="M1146.84 14725.05c-16.63,-13.02 -39.55,-28.39 -63.56,-40.76 -24.02,-12.37 -49.13,-21.74 -78.73,-24.81 -29.59,-3.06 -63.65,0.17 -89.08,13.25 -25.43,13.09 -42.21,36.02 -49.88,61.26 -7.67,25.24 -6.21,52.79 4.33,79.8 10.55,27.02 30.18,53.51 56.46,77.93 26.29,24.42 59.23,46.78 91.51,61.04 32.28,14.27 63.9,20.44 92.88,19.68 28.97,-0.76 55.32,-8.46 74.47,-23.17 19.16,-14.72 31.13,-36.46 36.14,-57.69 5.01,-21.23 3.07,-41.95 -4.29,-63.89 -7.36,-21.94 -20.13,-45.1 -31.7,-62.02 -11.56,-16.91 -21.91,-27.59 -38.55,-40.62z"/>
    <path class="fil2" d="M571.89 14772.19c-8.45,7.2 -19.71,15.86 -27.6,34.28 -7.89,18.42 -12.39,46.61 -10.33,77.99 2.07,31.38 10.71,65.95 30.56,98.55 19.84,32.59 50.89,63.21 80.54,83.62 29.65,20.4 57.9,30.59 85.64,33.11 27.74,2.52 54.96,-2.62 74.62,-11.09 19.65,-8.47 31.73,-20.26 40.57,-42.82 8.83,-22.55 14.41,-55.86 7.78,-88.76 -6.63,-32.89 -25.48,-65.35 -46.55,-93.24 -21.06,-27.89 -44.35,-51.21 -67.28,-68 -22.93,-16.79 -45.5,-27.04 -70.16,-33.01 -24.65,-5.97 -51.38,-7.65 -67.56,-5.61 -16.17,2.03 -21.79,7.78 -30.23,14.98z"/>
    <path class="fil2" d="M720.65 14020.76c-12.93,-12.64 -32.45,-29.18 -56.32,-41.13 -23.87,-11.94 -52.09,-19.29 -79.08,-18.98 -27,0.32 -52.77,8.29 -74.58,26.3 -21.82,18.02 -39.68,46.07 -50.8,80.59 -11.11,34.52 -15.47,75.49 -21.16,111.22 -5.7,35.74 -12.74,66.23 -25.02,97.34 -12.29,31.12 -29.83,62.87 -47.16,88.37 -17.32,25.49 -34.43,44.73 -54.95,65.14 -20.51,20.42 -44.41,42.01 -61.58,68.64 -17.17,26.63 -27.61,58.29 -24.39,90.94 3.22,32.64 20.09,66.27 46.21,88.13 26.11,21.87 61.47,31.98 94.2,35.86 32.72,3.89 62.82,1.55 86.93,-2.99 24.1,-4.54 42.21,-11.29 60.75,-18.18 18.53,-6.89 37.49,-13.93 62.75,-17.21 25.25,-3.28 56.8,-2.79 90.76,-2.9 33.96,-0.1 70.33,-0.81 106.32,-10.18 35.98,-9.36 71.58,-27.4 99.84,-53.58 28.26,-26.19 49.18,-60.54 59.33,-92.34 10.15,-31.81 9.52,-61.07 2.65,-89.84 -6.86,-28.77 -19.98,-57.03 -37.22,-85.54 -17.24,-28.5 -38.6,-57.24 -57.85,-87.43 -19.25,-30.19 -36.38,-61.82 -47.87,-84.71 -11.49,-22.88 -17.34,-37.03 -24.08,-55.14 -6.75,-18.11 -14.39,-40.19 -21.39,-55.6 -7,-15.4 -13.35,-24.14 -26.29,-36.78z"/>
   </g>
   <g>
    <path class="fil2" d="M524.75 11598.44c-41.58,-24.25 -90.79,-56.82 -137.22,-97.71 -46.44,-40.88 -90.1,-90.09 -124.06,-138.94 -33.96,-48.86 -58.22,-97.37 -74.85,-142.76 -16.64,-45.39 -25.65,-87.67 -27.04,-132.02 -1.39,-44.36 4.85,-90.79 33.26,-136.18 28.41,-45.4 79,-89.76 143.8,-109.16 64.8,-19.41 143.8,-13.87 213.8,6.57 69.99,20.44 130.98,55.78 187.81,101.87 56.83,46.08 109.51,102.91 152.82,158.35 43.32,55.44 77.28,109.49 98.07,173.6 20.8,64.1 28.43,138.25 9.02,199.93 -19.4,61.68 -65.83,110.89 -131.32,137.58 -65.49,26.68 -150.04,30.84 -209.29,24.96 -59.26,-5.89 -93.22,-21.83 -134.8,-46.09z"/>
    <path class="fil3" d="M515.51 10408c27.9,56.65 70.18,130.81 118,195.26 47.82,64.45 101.19,119.19 167.37,158 66.19,38.81 145.2,61.67 206.53,57.86 61.33,-3.82 104.99,-34.31 139.99,-63.07 34.99,-28.77 61.33,-55.8 75.88,-115.05 14.55,-59.25 17.32,-150.74 0.33,-233.2 -16.98,-82.47 -53.71,-155.93 -98.76,-225.23 -45.05,-69.3 -98.42,-134.45 -174.31,-178.8 -75.89,-44.35 -174.3,-67.91 -242.91,-66.52 -68.61,1.39 -107.41,27.73 -140.16,56.66 -32.74,28.94 -59.42,60.47 -76.23,107.43 -16.8,46.95 -23.73,109.32 -20.44,160.09 3.3,50.76 16.82,89.92 44.71,146.57z"/>
    <path class="fil3" d="M1290.47 10006.18c12.82,49.9 34.31,113.66 62.38,173.26 28.07,59.59 62.73,115.04 115.4,164.93 52.67,49.9 123.36,94.25 191.97,106.72 68.61,12.47 135.14,-6.94 187.46,-44.36 52.32,-37.43 90.44,-92.87 110.19,-160.79 19.75,-67.92 21.13,-148.31 6.57,-234.59 -14.56,-86.28 -45.05,-178.45 -86.29,-253.99 -41.24,-75.54 -93.22,-134.45 -150.4,-176.02 -57.18,-41.58 -119.55,-65.84 -178.46,-65.83 -58.9,0 -114.34,24.26 -155.58,57.87 -41.23,33.62 -68.26,76.58 -86.62,129.95 -18.36,53.36 -28.06,117.12 -30.83,167.02 -2.77,49.9 1.39,85.94 14.21,135.83z"/>
    <path class="fil2" d="M2472.46 10769.15c27.03,-1.38 61.69,-1.39 104.3,-25.3 42.62,-23.91 93.21,-71.73 135.83,-135.49 42.62,-63.76 77.27,-143.46 87.31,-235.98 10.05,-92.52 -4.51,-197.86 -31.54,-281.37 -27.03,-83.51 -66.54,-145.18 -116.44,-191.27 -49.9,-46.08 -110.2,-76.57 -160.79,-89.39 -50.59,-12.82 -91.48,-7.97 -142.07,22.53 -50.59,30.49 -110.88,86.63 -146.91,160.1 -36.04,73.46 -47.81,164.24 -48.5,249.49 -0.69,85.24 9.71,164.94 29.12,231.47 19.4,66.53 47.82,119.89 86.63,168.05 38.81,48.17 88.02,91.13 122.33,111.23 34.3,20.09 53.71,17.32 80.73,15.93z"/>
    <path class="fil2" d="M1068.44 12001.42c6.24,43.66 19.41,104.65 47.83,163.21 28.42,58.56 72.08,114.69 124.75,154.19 52.67,39.5 114.35,62.37 183.31,59.94 68.96,-2.43 145.19,-30.15 217.95,-80.4 72.77,-50.25 142.07,-123.02 206.17,-183.66 64.1,-60.65 123.01,-109.16 193,-151.09 70,-41.93 151.08,-77.28 222.46,-100.85 71.38,-23.56 133.06,-35.35 203.06,-44.36 69.99,-9.01 148.3,-15.25 221.07,-41.25 72.77,-25.99 139.99,-71.73 182.26,-139.65 42.27,-67.92 59.59,-158.01 41.57,-239.1 -18.02,-81.08 -71.39,-153.15 -128.91,-209.28 -57.53,-56.14 -119.21,-96.33 -172.57,-123.35 -53.37,-27.03 -98.41,-40.89 -144.5,-55.09 -46.09,-14.21 -93.21,-28.76 -146.93,-59.94 -53.71,-31.19 -114,-79 -179.84,-129.24 -65.84,-50.25 -137.23,-102.91 -220.74,-138.25 -83.51,-35.35 -179.15,-53.36 -272.71,-44.69 -93.55,8.66 -185.03,44.01 -251.91,90.45 -66.87,46.43 -109.14,103.96 -138.6,169.8 -29.45,65.84 -46.07,139.99 -55.08,220.73 -9.01,80.74 -10.39,168.06 -18.01,255.03 -7.62,86.98 -21.47,173.61 -33.25,234.94 -11.78,61.34 -21.48,97.37 -35.34,142.42 -13.86,45.05 -31.88,99.1 -41.23,139.3 -9.35,40.2 -10.05,66.53 -3.81,110.19z"/>
   </g>
   <g>
    <path class="fil2" d="M6614.25 11244.55c7.32,47.64 12.97,106.45 10.41,168.34 -2.57,61.9 -13.35,126.87 -29.98,184.08 -16.63,57.21 -39.1,106.64 -63.94,148.19 -24.85,41.54 -52.07,75.18 -85.71,104.2 -33.65,29.02 -73.71,53.42 -126.94,59.91 -53.22,6.49 -119.61,-4.94 -175.53,-43.14 -55.93,-38.2 -101.38,-103.18 -129.57,-170.53 -28.19,-67.35 -39.11,-137.07 -39.04,-210.33 0.06,-73.26 11.1,-150.05 26.95,-218.68 15.86,-68.64 36.53,-129.12 73.32,-185.68 36.79,-56.57 89.69,-109.22 149.92,-132.98 60.22,-23.76 127.76,-18.62 189.79,15.53 62.02,34.16 118.52,97.34 151.27,147.16 32.74,49.82 41.73,86.29 49.05,133.93z"/>
    <path class="fil3" d="M5693.64 12001.68c26.52,-57.4 57.59,-137.02 77.62,-214.84 20.03,-77.81 29.02,-153.83 17.52,-229.78 -11.49,-75.96 -43.47,-151.85 -85.07,-197.18 -41.61,-45.32 -92.84,-60.09 -137.27,-69.21 -44.43,-9.11 -82.06,-12.58 -137.34,13.43 -55.28,26 -128.21,81.48 -181.69,146.65 -53.48,65.17 -87.51,140.03 -113.06,218.75 -25.55,78.71 -42.63,161.28 -29.34,248.28 13.3,86.99 56.96,178.42 101.26,230.94 44.3,52.52 89.25,66.13 132.39,73.38 43.15,7.26 84.5,8.15 131.62,-8.35 47.13,-16.5 100.03,-50.4 137.46,-84.95 37.43,-34.54 59.39,-69.72 85.9,-127.12z"/>
    <path class="fil3" d="M4892.74 11651.72c30.76,-41.41 66.84,-98.3 95.54,-157.69 28.69,-59.39 50.01,-121.28 55.66,-193.71 5.64,-72.42 -4.37,-155.37 -37.89,-216.62 -33.52,-61.25 -90.53,-100.8 -152.62,-117.94 -62.08,-17.14 -129.24,-11.88 -194.54,15.54 -65.29,27.42 -128.73,76.98 -186.7,142.67 -57.98,65.68 -110.49,147.48 -143.3,227.16 -32.81,79.68 -45.9,157.24 -42.24,227.93 3.66,70.69 24.08,134.5 61.19,180.35 37.11,45.84 90.92,73.7 143.05,84.61 52.14,10.92 102.6,4.88 155.7,-14.45 53.09,-19.32 108.82,-51.94 149.4,-81.22 40.58,-29.28 66,-55.22 96.75,-96.63z"/>
    <path class="fil2" d="M4741.89 10251.22c-18.11,-20.16 -39.94,-47.12 -85.39,-65.23 -45.46,-18.1 -114.55,-27.35 -191.02,-20.35 -76.46,7 -160.31,30.25 -238.64,80.72 -78.33,50.46 -151.14,128.15 -199.1,201.8 -47.96,73.64 -71.07,143.24 -75.5,211.1 -4.42,67.87 9.83,134 31.73,181.45 21.89,47.44 51.43,76.21 107.03,96.37 55.6,20.15 137.27,31.71 217.14,13.47 79.87,-18.23 157.94,-66.26 224.71,-119.42 66.78,-53.17 122.25,-111.47 161.8,-168.48 39.54,-57.02 63.17,-112.75 76.2,-173.29 13.03,-60.55 15.47,-125.91 9.5,-165.27 -5.97,-39.35 -20.36,-52.71 -38.46,-72.87z"/>
    <path class="fil2" d="M6585.35 10567.57c30.05,-32.36 69.21,-81.02 96.88,-140.03 27.67,-59 43.85,-128.35 41.41,-194.22 -2.44,-65.88 -23.5,-128.28 -68.83,-180.42 -45.33,-52.13 -114.93,-93.99 -199.88,-118.96 -84.94,-24.97 -185.23,-33.06 -272.8,-44.74 -87.58,-11.69 -162.44,-26.97 -239.17,-55.02 -76.72,-28.06 -155.31,-68.89 -218.62,-109.59 -63.31,-40.71 -111.33,-81.28 -162.44,-130.08 -51.11,-48.79 -105.3,-105.8 -171.37,-146.06 -66.07,-40.25 -144.01,-63.75 -223.5,-53.86 -79.48,9.89 -160.51,53.17 -212.25,118.27 -51.75,65.11 -74.22,152.04 -81.67,232.17 -7.44,80.13 0.14,153.45 12.72,212 12.59,58.56 30.18,102.34 48.16,147.16 17.98,44.81 36.34,90.65 45.91,152.1 9.57,61.44 10.34,138.49 12.72,221.38 2.38,82.88 6.36,171.62 31.47,258.87 25.1,87.25 71.33,173.03 137.02,240.38 65.68,67.35 150.82,116.27 229.08,139.06 78.27,22.79 149.67,19.45 219.46,0.89 69.79,-18.55 137.97,-52.33 206.48,-96.18 68.5,-43.86 137.33,-97.79 209.81,-146.65 72.49,-48.86 148.63,-92.65 203.79,-122.12 55.15,-29.48 89.3,-44.63 133.09,-62.22 43.79,-17.6 97.21,-37.63 134.38,-55.67 37.17,-18.04 58.1,-34.1 88.15,-66.46z"/>
   </g>
   <g>
    <path class="fil2" d="M9798.35 11918.45c-20.52,18.41 -46.91,39.52 -77.34,57.65 -30.44,18.14 -64.92,33.3 -97.51,43.24 -32.59,9.94 -63.29,14.65 -90.95,15.75 -27.66,1.1 -52.28,-1.4 -76.7,-8.43 -24.42,-7.03 -48.64,-18.57 -68.39,-42.03 -19.76,-23.45 -35.06,-58.81 -34.27,-97.53 0.79,-38.73 17.68,-80.82 41.1,-115.38 23.42,-34.57 53.39,-61.61 88.48,-84.5 35.09,-22.89 75.31,-41.63 113.13,-55.51 37.82,-13.89 73.24,-22.91 111.83,-23 38.59,-0.08 80.35,8.77 110.57,30.17 30.21,21.4 48.89,55.34 51.94,95.72 3.05,40.38 -9.51,87.2 -23.12,118.46 -13.61,31.27 -28.26,46.98 -48.77,65.39z"/>
    <path class="fil3" d="M9147.85 11714.59c35.77,-5.26 83.61,-15.3 127.13,-30.05 43.52,-14.76 82.73,-34.24 115.49,-63.51 32.77,-29.26 59.1,-68.32 67.78,-102.42 8.69,-34.1 -0.27,-63.24 -9.81,-87.37 -9.54,-24.12 -19.65,-43.22 -49.39,-61.55 -29.75,-18.33 -79.13,-35.89 -127.06,-41.1 -47.93,-5.22 -94.42,1.92 -140.1,14.31 -45.68,12.4 -90.55,30.05 -128.04,63.64 -37.49,33.58 -67.6,83.09 -78.88,120.73 -11.28,37.64 -3.74,63.41 6.29,86.34 10.02,22.92 22.53,43 45.17,60.4 22.65,17.4 55.43,32.12 83.68,39.23 28.25,7.11 51.96,6.62 87.74,1.35z"/>
    <path class="fil3" d="M9064.81 11221.67c29.45,1.77 67.98,1.25 105.39,-3.6 37.41,-4.84 73.71,-14 110.15,-33.95 36.44,-19.96 73.02,-50.71 91.85,-85.92 18.84,-35.21 19.94,-74.88 8.72,-109.96 -11.22,-35.09 -34.75,-65.59 -68.31,-88.28 -33.55,-22.68 -77.13,-37.54 -126.71,-44.74 -49.59,-7.21 -105.18,-6.76 -153.59,2.46 -48.41,9.23 -89.64,27.22 -122.33,51.09 -32.7,23.87 -56.87,53.61 -67.2,85.72 -10.34,32.11 -6.84,66.59 4.24,94.96 11.09,28.38 29.77,50.65 55.63,70.02 25.87,19.37 58.92,35.85 85.63,46.11 26.71,10.27 47.09,14.33 76.53,16.09z"/>
    <path class="fil2" d="M9688.1 10711.28c3.99,-14.97 10.07,-33.86 4.52,-61.29 -5.56,-27.42 -22.75,-63.39 -50.02,-97.81 -27.28,-34.42 -64.64,-67.29 -113.31,-89 -48.67,-21.71 -108.64,-32.26 -158.9,-32.18 -50.26,0.08 -90.81,10.79 -124.69,29.91 -33.87,19.11 -61.07,46.62 -76.94,71.95 -15.86,25.33 -20.39,48.47 -12.65,81.39 7.75,32.93 27.77,75.64 61.49,108.17 33.71,32.54 81.13,54.89 127.48,70.22 46.34,15.33 91.6,23.65 131.27,24.75 39.67,1.09 73.74,-5.03 106.81,-17.74 33.06,-12.7 65.12,-31.98 82.09,-47.15 16.97,-15.18 18.87,-26.24 22.85,-41.22z"/>
    <path class="fil2" d="M10113.4 11692.81c24.9,4.26 60.45,7.79 97.36,2.57 36.9,-5.21 75.16,-19.16 105.93,-40.94 30.78,-21.78 54.07,-51.38 64.84,-89.4 10.78,-38.01 9.04,-84.43 -5.58,-132.91 -14.62,-48.48 -42.12,-99.02 -63.93,-144.6 -21.8,-45.58 -37.91,-86.2 -48.48,-131.71 -10.58,-45.51 -15.62,-95.91 -15.94,-138.95 -0.32,-43.05 4.08,-78.74 11.45,-118.47 7.37,-39.73 17.71,-83.51 16.32,-127.74 -1.4,-44.22 -14.54,-88.89 -44.14,-123.85 -29.61,-34.96 -75.67,-60.21 -123.03,-64.61 -47.36,-4.41 -96.01,12.03 -136.7,33.54 -40.69,21.5 -73.42,48.07 -97.52,72.42 -24.09,24.34 -39.55,46.46 -55.38,69.09 -15.83,22.63 -32.03,45.76 -58.46,69.57 -26.42,23.8 -63.06,48.28 -102,75.35 -38.94,27.07 -80.17,56.74 -114.09,96.05 -33.92,39.32 -60.52,88.29 -72.21,140.81 -11.7,52.52 -8.48,108.58 5.09,153.18 13.58,44.6 37.52,77.74 68.24,105.34 30.71,27.61 68.22,49.68 110.64,68.76 42.43,19.08 89.79,35.15 135.86,54.57 46.07,19.42 90.85,42.17 122.22,59.35 31.36,17.19 49.3,28.8 71.43,44.26 22.12,15.45 48.42,34.76 68.69,46.91 20.27,12.15 34.5,17.15 59.39,21.41z"/>
   </g>
   <g>
    <path class="fil2" d="M13410.02 10571.9c-9.28,23.1 -22.25,50.73 -39.67,77.56 -17.43,26.83 -39.33,52.87 -61.77,73.92 -22.45,21.05 -45.44,37.11 -67.42,49.03 -21.97,11.92 -42.93,19.71 -65.51,23.75 -22.59,4.05 -46.82,4.35 -72.18,-6.78 -25.36,-11.12 -51.86,-33.67 -66.66,-65.37 -14.8,-31.69 -17.91,-72.53 -12.71,-109.88 5.2,-37.35 18.69,-71.21 38,-103.75 19.31,-32.55 44.42,-63.77 69.53,-90.1 25.11,-26.33 50.22,-47.77 81.45,-63.23 31.24,-15.45 68.61,-24.93 101.62,-19.64 33.02,5.29 61.69,25.35 80.26,56.85 18.58,31.5 27.07,74.45 28.51,105.21 1.44,30.76 -4.16,49.33 -13.45,72.43z"/>
    <path class="fil3" d="M12801.62 10666.12c26.89,-18.54 61.66,-45.74 91.04,-75.05 29.38,-29.32 53.38,-60.74 68.26,-97.52 14.88,-36.78 20.64,-78.92 14.08,-110.02 -6.56,-31.09 -25.45,-51.14 -42.8,-66.88 -17.34,-15.75 -33.15,-27.19 -64.56,-30.18 -31.42,-2.99 -78.43,2.47 -119.35,17.36 -40.92,14.89 -75.74,39.21 -107.81,67.47 -32.07,28.25 -61.39,60.46 -78.38,102.62 -16.99,42.16 -21.64,94.28 -15.78,129.28 5.87,35 22.26,52.88 39.53,67.46 17.27,14.58 35.41,25.86 60.69,30.93 25.29,5.06 57.73,3.92 83.45,-1.58 25.73,-5.5 44.74,-15.36 71.63,-33.89z"/>
    <path class="fil3" d="M12537.78 10299.81c24.57,-10.31 55.57,-26.1 83.96,-44.94 28.38,-18.84 54.14,-40.74 75.71,-71.44 21.57,-30.7 38.95,-70.2 40.17,-106.25 1.23,-36.04 -13.71,-68.62 -36.79,-92.58 -23.08,-23.95 -54.31,-39.29 -90.55,-44.29 -36.23,-4.99 -77.47,0.34 -120.52,14.28 -43.05,13.93 -87.92,36.46 -123.47,63.24 -35.55,26.78 -61.78,57.8 -78.75,90.18 -16.98,32.38 -24.7,66.12 -20.27,96.26 4.43,30.14 21.01,56.68 41.31,75.25 20.29,18.57 44.31,29.17 72.99,34.56 28.69,5.38 62.04,5.55 87.78,3.22 25.74,-2.34 43.86,-7.18 68.43,-17.49z"/>
    <path class="fil2" d="M12839.3 9637.69c-2.74,-13.73 -5.34,-31.45 -20.78,-51.46 -15.44,-20.01 -43.71,-42.3 -79.54,-59.32 -35.82,-17.01 -79.21,-28.74 -127.3,-26.93 -48.09,1.82 -100.9,17.18 -141.59,37.29 -40.7,20.11 -69.28,44.96 -89.11,73.95 -19.83,29 -30.9,62.14 -33.65,88.99 -2.76,26.85 2.8,47.41 22.2,71 19.41,23.59 52.66,50.22 92.96,63.13 40.3,12.92 87.63,12.12 131.3,6.06 43.67,-6.05 83.66,-17.36 116.24,-32.29 32.58,-14.93 57.75,-33.49 79.48,-56.96 21.72,-23.48 40.01,-51.89 47.71,-70.95 7.7,-19.07 4.83,-28.79 2.08,-42.51z"/>
    <path class="fil2" d="M13575.34 10263.43c21.87,-6.48 52.08,-17.8 79.91,-36.74 27.82,-18.94 53.26,-45.5 69.51,-75.42 16.25,-29.92 23.32,-63.2 16.89,-98.3 -6.43,-35.09 -26.34,-72.01 -57.52,-105.47 -31.18,-33.45 -73.62,-63.44 -109.47,-91.68 -35.85,-28.24 -65.1,-54.73 -91.81,-87.39 -26.72,-32.66 -50.9,-71.49 -68.32,-106.24 -17.43,-34.75 -28.09,-65.42 -37.96,-100.56 -9.88,-35.14 -18.96,-74.73 -37.72,-110.01 -18.77,-35.28 -47.23,-66.23 -85.16,-82.76 -37.93,-16.52 -85.33,-18.61 -125.46,-3.29 -40.13,15.31 -72.99,48.04 -97.39,81.69 -24.4,33.65 -40.33,68.23 -50.14,97.56 -9.82,29.34 -13.52,53.43 -17.33,78.08 -3.8,24.65 -7.7,49.85 -19.62,79.68 -11.92,29.82 -31.85,64.27 -52.61,101.73 -20.75,37.47 -42.34,77.95 -54.14,123.33 -11.8,45.39 -13.83,95.68 -2.37,142.9 11.47,47.21 36.43,91.36 65.22,122.09 28.79,30.72 61.4,48.03 97.3,58.15 35.9,10.12 75.09,13.05 117.08,11.59 41.98,-1.46 86.76,-7.32 131.84,-9.96 45.07,-2.64 90.44,-2.06 122.7,-0.64 32.27,1.41 51.44,3.67 75.53,7.37 24.09,3.71 53.1,8.86 74.37,10.62 21.27,1.77 34.8,0.14 56.67,-6.33z"/>
   </g>
   <g>
    <path class="fil2" d="M2803.7 13995.79c14.66,8.75 31.98,20.48 48.3,35.14 16.31,14.67 31.61,32.27 43.47,49.72 11.86,17.44 20.29,34.73 26.02,50.88 5.73,16.16 8.77,31.18 9.1,46.91 0.33,15.73 -2.05,32.17 -12.29,48.16 -10.24,15.99 -28.33,31.53 -51.38,38.17 -23.04,6.64 -51.03,4.39 -75.77,-3.11 -24.74,-7.5 -46.23,-20.26 -66.21,-36.8 -19.98,-16.55 -38.45,-36.89 -53.6,-56.7 -15.16,-19.81 -27,-39.1 -34.14,-61.9 -7.14,-22.8 -9.57,-49.12 -2.47,-70.92 7.11,-21.79 23.75,-39.07 47.06,-48.29 23.32,-9.22 53.31,-10.39 74.29,-8.09 20.99,2.31 32.97,8.08 47.62,16.83z"/>
    <path class="fil3" d="M2802.63 14417.87c-9.68,-20.19 -24.4,-46.63 -41.12,-69.65 -16.72,-23.03 -35.44,-42.63 -58.76,-56.63 -23.32,-14 -51.25,-22.4 -73.01,-21.27 -21.75,1.13 -37.34,11.78 -49.86,21.85 -12.51,10.07 -21.94,19.56 -27.32,40.51 -5.37,20.96 -6.69,53.38 -0.97,82.68 5.72,29.3 18.48,55.48 34.2,80.21 15.71,24.73 34.4,48.02 61.14,64.02 26.74,16 61.54,24.71 85.87,24.47 24.33,-0.24 38.19,-9.44 49.9,-19.57 11.72,-10.14 21.29,-21.23 27.42,-37.81 6.13,-16.59 8.81,-38.67 7.83,-56.68 -0.98,-18.01 -5.63,-31.94 -15.32,-52.13z"/>
    <path class="fil3" d="M2526.42 14557.5c-4.36,-17.74 -11.75,-40.42 -21.48,-61.65 -9.73,-21.24 -21.82,-41.02 -40.31,-58.9 -18.49,-17.88 -43.39,-33.86 -67.67,-38.53 -24.28,-4.68 -47.94,1.96 -66.62,15.04 -18.69,13.08 -32.4,32.59 -39.65,56.6 -7.25,24.01 -8.03,52.5 -3.19,83.14 4.85,30.65 15.32,63.44 29.67,90.37 14.34,26.93 32.56,48 52.67,62.95 20.12,14.95 42.15,23.78 63.03,23.99 20.89,0.21 40.63,-8.18 55.37,-19.95 14.74,-11.77 24.48,-26.9 31.19,-45.75 6.7,-18.86 10.37,-41.42 11.54,-59.1 1.16,-17.68 -0.18,-30.48 -4.55,-48.21z"/>
    <path class="fil2" d="M2110.16 14282.69c-9.59,0.39 -21.87,0.27 -37.07,8.59 -15.2,8.32 -33.31,25.09 -48.65,47.54 -15.34,22.45 -27.92,50.58 -31.81,83.34 -3.9,32.76 0.87,70.16 10.15,99.87 9.28,29.7 23.06,51.71 40.58,68.23 17.53,16.52 38.79,27.55 56.68,32.28 17.89,4.73 32.4,3.16 50.45,-7.47 18.05,-10.62 39.63,-30.31 52.67,-56.22 13.04,-25.91 17.55,-58.06 18.11,-88.27 0.55,-30.22 -2.84,-58.51 -9.48,-82.17 -6.64,-23.66 -16.52,-42.68 -30.1,-59.9 -13.59,-17.22 -30.88,-32.63 -42.96,-39.88 -12.09,-7.25 -18.98,-6.33 -28.57,-5.94z"/>
    <path class="fil2" d="M2612.42 13850.94c-2.05,-15.5 -6.5,-37.17 -16.36,-58.03 -9.86,-20.87 -25.13,-40.93 -43.66,-55.13 -18.53,-14.19 -40.32,-22.52 -64.77,-21.91 -24.46,0.61 -51.59,10.16 -77.57,27.7 -25.98,17.55 -50.81,43.1 -73.76,64.36 -22.95,21.27 -44.01,38.26 -68.97,52.86 -24.97,14.62 -53.85,26.85 -79.24,34.95 -25.39,8.09 -47.3,12.04 -72.15,14.98 -24.85,2.94 -52.63,4.87 -78.53,13.82 -25.89,8.95 -49.89,24.92 -65.12,48.84 -15.24,23.93 -21.71,55.81 -15.61,84.62 6.09,28.81 24.75,54.56 44.94,74.67 20.18,20.11 41.9,34.58 60.73,44.36 18.82,9.77 34.74,14.85 51.02,20.06 16.29,5.2 32.94,10.53 51.87,21.78 18.93,11.25 40.13,28.43 63.29,46.48 23.16,18.05 48.28,36.98 77.75,49.82 29.48,12.83 63.32,19.57 96.52,16.84 33.2,-2.74 65.76,-14.93 89.64,-31.15 23.88,-16.22 39.08,-36.46 49.76,-59.69 10.68,-23.24 16.85,-49.47 20.33,-78.06 3.49,-28.59 4.3,-59.54 7.32,-90.35 3.02,-30.81 8.25,-61.47 12.65,-83.17 4.4,-21.7 7.97,-34.44 13.04,-50.36 5.08,-15.92 11.67,-35.02 15.13,-49.24 3.46,-14.21 3.8,-23.55 1.75,-39.05z"/>
   </g>
   <g>
    <path class="fil2" d="M6941.16 14733.45c-27.37,-15.96 -59.75,-37.4 -90.31,-64.31 -30.56,-26.9 -59.3,-59.29 -81.65,-91.44 -22.35,-32.15 -38.32,-64.08 -49.26,-93.95 -10.95,-29.88 -16.88,-57.7 -17.79,-86.89 -0.92,-29.19 3.19,-59.75 21.88,-89.62 18.7,-29.88 52,-59.07 94.64,-71.84 42.65,-12.77 94.64,-9.13 140.71,4.32 46.06,13.46 86.2,36.72 123.6,67.05 37.4,30.32 72.07,67.72 100.58,104.21 28.5,36.48 50.85,72.06 64.54,114.25 13.68,42.19 18.7,90.99 5.93,131.58 -12.76,40.59 -43.32,72.98 -86.42,90.54 -43.1,17.56 -98.75,20.3 -137.74,16.43 -39,-3.88 -61.35,-14.37 -88.71,-30.33z"/>
    <path class="fil3" d="M6935.08 13949.99c18.36,37.29 46.18,86.09 77.65,128.51 31.47,42.41 66.6,78.44 110.15,103.98 43.56,25.54 95.56,40.59 135.92,38.08 40.37,-2.51 69.1,-22.58 92.13,-41.51 23.03,-18.93 40.36,-36.72 49.94,-75.72 9.58,-38.99 11.4,-99.2 0.22,-153.47 -11.18,-54.28 -35.35,-102.62 -65,-148.23 -29.65,-45.61 -64.77,-88.48 -114.71,-117.67 -49.95,-29.19 -114.71,-44.69 -159.87,-43.78 -45.15,0.92 -70.69,18.25 -92.24,37.29 -21.55,19.05 -39.11,39.8 -50.17,70.7 -11.06,30.9 -15.62,71.95 -13.45,105.36 2.17,33.41 11.07,59.18 29.43,96.46z"/>
    <path class="fil3" d="M7445.09 13685.55c8.44,32.84 22.58,74.8 41.06,114.02 18.47,39.22 41.28,75.71 75.94,108.55 34.67,32.83 81.19,62.02 126.34,70.23 45.16,8.21 88.94,-4.57 123.38,-29.2 34.43,-24.63 59.51,-61.12 72.51,-105.81 13,-44.7 13.91,-97.61 4.32,-154.39 -9.58,-56.79 -29.65,-117.45 -56.79,-167.16 -27.14,-49.71 -61.35,-88.48 -98.98,-115.84 -37.62,-27.37 -78.67,-43.33 -117.44,-43.33 -38.77,0 -75.26,15.97 -102.39,38.09 -27.14,22.12 -44.93,50.4 -57.01,85.52 -12.09,35.12 -18.47,77.08 -20.29,109.92 -1.83,32.84 0.91,56.56 9.35,89.4z"/>
    <path class="fil2" d="M8222.99 14187.67c17.78,-0.91 40.59,-0.91 68.64,-16.65 28.05,-15.73 61.34,-47.2 89.39,-89.17 28.05,-41.96 50.85,-94.41 57.46,-155.3 6.61,-60.89 -2.97,-130.22 -20.76,-185.17 -17.79,-54.96 -43.79,-95.55 -76.63,-125.88 -32.84,-30.33 -72.52,-50.4 -105.82,-58.83 -33.29,-8.44 -60.2,-5.25 -93.5,14.82 -33.29,20.07 -72.97,57.02 -96.68,105.37 -23.72,48.34 -31.47,108.09 -31.92,164.19 -0.46,56.1 6.39,108.55 19.16,152.34 12.77,43.78 31.47,78.9 57.02,110.6 25.54,31.69 57.92,59.97 80.5,73.2 22.58,13.22 35.35,11.4 53.14,10.48z"/>
    <path class="fil2" d="M7298.97 14998.66c4.11,28.73 12.77,68.87 31.48,107.41 18.7,38.54 47.43,75.48 82.1,101.47 34.66,26 75.26,41.05 120.64,39.45 45.38,-1.6 95.55,-19.84 143.44,-52.91 47.89,-33.07 93.49,-80.96 135.68,-120.87 42.19,-39.91 80.96,-71.84 127.02,-99.44 46.06,-27.59 99.43,-50.86 146.4,-66.37 46.98,-15.51 87.57,-23.26 133.64,-29.19 46.06,-5.94 97.6,-10.04 145.49,-27.15 47.89,-17.1 92.13,-47.21 119.95,-91.91 27.82,-44.7 39.22,-103.99 27.36,-157.35 -11.86,-53.37 -46.98,-100.8 -84.84,-137.74 -37.86,-36.94 -78.45,-63.39 -113.57,-81.18 -35.12,-17.78 -64.77,-26.91 -95.1,-36.25 -30.33,-9.35 -61.35,-18.93 -96.69,-39.45 -35.35,-20.52 -75.03,-51.99 -118.37,-85.06 -43.33,-33.06 -90.31,-67.72 -145.27,-90.98 -54.96,-23.26 -117.9,-35.12 -179.47,-29.41 -61.57,5.7 -121.78,28.96 -165.79,59.53 -44.01,30.56 -71.83,68.41 -91.21,111.74 -19.39,43.33 -30.33,92.14 -36.26,145.27 -5.92,53.14 -6.83,110.6 -11.85,167.85 -5.01,57.24 -14.13,114.25 -21.88,154.61 -7.76,40.37 -14.14,64.08 -23.26,93.73 -9.12,29.65 -20.98,65.22 -27.13,91.68 -6.16,26.45 -6.62,43.78 -2.51,72.52z"/>
   </g>
   <g>
    <path class="fil2" d="M19108.44 9752.1c0.86,-22.17 3.46,-49.23 10.04,-76.96 6.58,-27.74 17.15,-56.14 29.67,-80.53 12.52,-24.38 27,-44.75 41.86,-61.34 14.86,-16.59 30.11,-29.4 47.85,-39.56 17.74,-10.17 37.97,-17.68 62.58,-15.95 24.61,1.73 53.6,12.71 75.52,34.87 21.91,22.15 36.76,55.48 43.59,88.37 6.84,32.9 5.66,65.35 -0.78,98.44 -6.45,33.08 -18.16,66.81 -31.34,96.42 -13.17,29.62 -27.81,55.13 -49.38,77.46 -21.57,22.33 -50.08,41.48 -79.36,46.93 -29.29,5.46 -59.35,-2.77 -84.38,-23.64 -25.02,-20.86 -45.01,-54.34 -55.44,-79.72 -10.43,-25.37 -11.3,-42.63 -10.43,-64.79z"/>
    <path class="fil3" d="M19590.62 9490.71c-17.01,23.61 -38.02,56.85 -53.88,90.25 -15.87,33.4 -26.58,66.95 -28.04,102.27 -1.46,35.32 6.33,72.4 21.16,96.52 14.82,24.12 36.67,35.27 55.95,43.28 19.27,8.01 35.96,12.87 63.21,5.97 27.25,-6.91 65.05,-25.58 94.92,-50.33 29.87,-24.76 51.79,-55.59 70.23,-88.91 18.44,-33.32 33.38,-69.13 35,-109.59 1.61,-40.46 -10.1,-85.59 -25.52,-113.19 -15.41,-27.61 -34.52,-37.69 -53.37,-44.75 -18.86,-7.05 -37.46,-11.08 -60.19,-7.75 -22.73,3.32 -49.6,14 -69.54,26.33 -19.93,12.33 -32.93,26.3 -49.93,49.9z"/>
    <path class="fil3" d="M19921.75 9718.95c-17.52,16.01 -38.8,38.55 -56.96,62.86 -18.17,24.32 -33.22,50.41 -42.11,82.63 -8.9,32.22 -11.64,70.57 -1.86,101.17 9.77,30.61 32.06,53.47 58.61,66.65 26.54,13.18 57.34,16.68 89.24,10.02 31.9,-6.67 64.89,-23.51 96.83,-48.1 31.95,-24.59 62.83,-56.94 84.63,-90.06 21.8,-33.12 34.51,-67.01 39.05,-99.26 4.54,-32.26 0.9,-62.87 -11.85,-86.83 -12.75,-23.96 -34.61,-41.26 -57.21,-50.76 -22.59,-9.49 -45.92,-11.18 -71.59,-7.1 -25.68,4.08 -53.71,13.93 -74.61,23.6 -20.89,9.67 -34.65,19.16 -52.17,35.18z"/>
    <path class="fil2" d="M19867.23 10364.8c6.42,10.69 13.92,24.79 32.86,36.95 18.95,12.16 49.35,22.38 84.51,25.92 35.15,3.53 75.07,0.38 114.87,-15.56 39.8,-15.93 79.5,-44.65 107.61,-73.72 28.11,-29.07 44.65,-58.48 52.6,-88.75 7.94,-30.27 7.29,-61.39 1.56,-84.74 -5.74,-23.35 -16.56,-38.93 -39.91,-52.91 -23.35,-13.97 -59.23,-26.35 -96.91,-25.1 -37.68,1.24 -77.15,16.1 -111.97,34.26 -34.82,18.17 -64.98,39.65 -87.84,61.94 -22.86,22.29 -38.41,45.4 -49.6,71.6 -11.19,26.21 -18.02,55.52 -18.77,73.83 -0.75,18.3 4.58,25.59 10.99,36.28z"/>
    <path class="fil2" d="M19062.2 10060.43c-16.41,11.99 -38.36,30.54 -56.03,54.78 -17.67,24.23 -31.05,54.13 -35.72,84.1 -4.66,29.98 -0.61,60.01 15.3,87.53 15.91,27.52 43.68,52.53 79.86,71.25 36.19,18.72 80.78,31.15 119.32,44.1 38.54,12.95 71.02,26.41 103.22,45.8 32.2,19.4 64.12,44.72 89.16,68.66 25.03,23.93 43.17,46.46 61.98,72.98 18.82,26.52 38.3,57.02 64.62,80.99 26.32,23.97 59.47,41.41 96.24,43.91 36.78,2.49 77.17,-9.96 106.25,-34.84 29.07,-24.87 46.84,-62.18 57.22,-97.72 10.38,-35.54 13.38,-69.33 12.82,-96.88 -0.55,-27.56 -4.67,-48.88 -8.86,-70.69 -4.2,-21.82 -8.48,-44.14 -7.42,-72.73 1.06,-28.6 7.46,-63.47 13.64,-101.12 6.19,-37.65 12.16,-78.08 8.46,-119.7 -3.7,-41.61 -17.07,-84.41 -40.84,-120.58 -23.77,-36.18 -57.94,-65.74 -91.3,-82.89 -33.36,-17.15 -65.91,-21.89 -99.06,-19.62 -33.15,2.27 -66.91,11.56 -101.69,25.37 -34.79,13.8 -70.6,32.14 -107.63,47.86 -37.02,15.73 -75.25,28.84 -102.75,37.32 -27.49,8.48 -44.25,12.34 -65.57,16.45 -21.32,4.11 -47.21,8.48 -65.58,13.38 -18.37,4.89 -29.23,10.31 -45.64,22.29z"/>
   </g>
  </g>
 </g>
</svg>
