<?xml version="1.0" encoding="UTF-8"?>
<!DOCTYPE svg PUBLIC "-//W3C//DTD SVG 1.1//EN" "http://www.w3.org/Graphics/SVG/1.1/DTD/svg11.dtd">
<!-- Creator: CorelDRAW 2018 (64-Bit) -->
<svg xmlns="http://www.w3.org/2000/svg" xml:space="preserve" width="210mm" height="297mm" version="1.1" style="shape-rendering:geometricPrecision; text-rendering:geometricPrecision; image-rendering:optimizeQuality; fill-rule:evenodd; clip-rule:evenodd"
viewBox="0 0 21000 29700"
 xmlns:xlink="http://www.w3.org/1999/xlink">
 <defs>
  <style type="text/css">
   <![CDATA[
    .fil0 {fill:#FEFEFE}
    .fil2 {fill:#FEFEFE;fill-opacity:0.301961}
    .fil1 {fill:url(#id0)}
   ]]>
  </style>
  <radialGradient id="id0" gradientUnits="userSpaceOnUse" gradientTransform="matrix(-0.00881937 -2.49222 2.50472 -0.00877537 -56233 52449)" cx="10281.51" cy="26591.73" r="64417.23" fx="10281.51" fy="26591.73">
   <stop offset="0" style="stop-opacity:1; stop-color:#F5F0A2"/>
   <stop offset="0.329412" style="stop-opacity:0.447059; stop-color:#F5F0A2"/>
   <stop offset="0.65098" style="stop-opacity:0.517647; stop-color:#95C671"/>
   <stop offset="1" style="stop-opacity:1; stop-color:#95C671"/>
  </radialGradient>
 </defs>
 <g id="Слой_x0020_1">
  <metadata id="CorelCorpID_0Corel-Layer"/>
  <g id="_2240551883600">
   <rect class="fil0" x="5.25" y="8778.69" width="20971.93" height="11796.71"/>
   <g>
    <rect class="fil1" x="5.26" y="8778.7" width="20971.92" height="11796.71"/>
    <path class="fil2" d="M2529.36 16775.01c43.58,-63.2 110.13,-161.44 180.76,-255.93 70.65,-94.5 145.37,-185.28 184.16,-234.77 38.8,-49.5 41.66,-57.72 35.51,-77.54 -6.15,-19.83 -21.32,-51.26 -32.65,-78.28 -11.33,-27.01 -18.82,-49.61 -23.56,-71.25 -4.75,-21.65 -6.76,-42.33 -3.99,-76.72 2.78,-34.39 10.35,-82.49 29.22,-118.95 18.87,-36.46 49.05,-61.29 80.95,-77.83 31.91,-16.54 65.54,-24.79 98.35,-24.11 32.82,0.69 64.81,10.32 94.03,21.29 29.24,10.96 55.7,23.27 75.79,47.19 20.1,23.92 33.82,59.46 40.32,87.1 6.5,27.63 5.77,47.36 5.4,57.23 -0.36,9.86 -0.36,9.86 20.05,10.84 20.42,0.97 61.25,2.92 102.67,11.99 41.42,9.07 83.42,25.26 118.59,54.45 35.17,29.18 63.5,71.34 73.2,116.24 9.71,44.89 0.78,92.5 -16.13,136.58 -16.91,44.06 -41.81,84.57 -70.39,109.19 -28.57,24.62 -60.82,33.35 -97.34,34.44 -36.5,1.1 -77.27,-5.44 -106.36,-10.2 -29.08,-4.77 -46.48,-7.76 -60.28,-5.66 -13.8,2.1 -24,9.3 -47.13,38.13 -23.13,28.83 -59.18,79.28 -131.62,187.76 -72.44,108.47 -181.26,274.97 -241.49,363.88 -60.23,88.91 -71.87,100.22 -69.07,129.65 2.81,29.41 20.05,76.93 28.23,115.15 8.19,38.21 7.33,67.12 -2.4,106.01 -9.71,38.88 -28.3,87.74 -50.67,127.6 -22.36,39.86 -48.48,70.71 -82.96,90.2 -34.47,19.48 -77.28,27.61 -122.37,18.03 -45.08,-9.58 -92.44,-36.87 -129.64,-69.06 -37.19,-32.2 -64.21,-69.3 -76.67,-97.48 -12.46,-28.18 -10.35,-47.43 -9.31,-57.05 1.06,-9.63 1.06,-9.63 -12.54,-5.92 -13.59,3.71 -40.78,11.14 -69.93,10.97 -29.15,-0.19 -60.25,-7.96 -91.98,-29.41 -31.72,-21.44 -64.06,-56.55 -83.33,-90.56 -19.27,-34.01 -25.47,-66.92 -23.5,-101.21 1.98,-34.28 12.13,-69.95 26.54,-99.13 14.41,-29.18 33.09,-51.87 60.2,-70.09 27.12,-18.21 62.65,-31.95 106.61,-41.21 43.98,-9.25 96.37,-14.02 132.77,-23.61 36.41,-9.6 56.81,-24 77.3,-45.29 20.5,-21.3 41.09,-49.46 84.66,-112.66z"/>
    <path class="fil2" d="M7482.8 13305.75c75.38,-14.55 191.7,-37.98 308.3,-55.89 116.62,-17.91 233.54,-30.3 295.89,-38.41 62.37,-8.13 70.18,-11.98 79.68,-30.44 9.51,-18.45 20.72,-51.5 31.56,-78.72 10.85,-27.2 21.35,-48.57 33.13,-67.34 11.78,-18.77 24.84,-34.93 50.92,-57.52 26.08,-22.59 65.19,-51.59 104.2,-64.38 39.02,-12.78 77.94,-9.34 112.29,1.22 34.36,10.56 64.13,28.24 87.06,51.72 22.93,23.49 39,52.78 52.16,81.08 13.17,28.31 23.42,55.63 20.99,86.77 -2.43,31.16 -17.54,66.13 -32.28,90.4 -14.72,24.27 -29.08,37.83 -36.26,44.61 -7.17,6.78 -7.17,6.78 6.71,21.78 13.89,15 41.65,45.01 64.84,80.51 23.19,35.49 41.81,76.48 46.44,121.94 4.64,45.47 -4.7,95.4 -29.24,134.22 -24.54,38.83 -64.27,66.54 -107.22,86.13 -42.94,19.58 -89.1,31.03 -126.74,28.57 -37.64,-2.47 -66.75,-18.84 -93.57,-43.65 -26.82,-24.8 -51.32,-58.03 -68.73,-81.82 -17.4,-23.78 -27.71,-38.11 -39.04,-46.28 -11.31,-8.17 -23.63,-10.18 -60.34,-5.83 -36.7,4.36 -97.77,15.09 -225.47,41.7 -127.69,26.62 -322,69.13 -427.27,90.34 -105.28,21.21 -121.51,21.13 -140.13,44.08 -18.61,22.95 -39.62,68.93 -60.56,101.93 -20.94,33 -41.81,53.02 -76,73.94 -34.19,20.93 -81.69,42.76 -125.57,55.52 -43.89,12.76 -84.14,16.46 -122.4,6.2 -38.24,-10.26 -74.48,-34.46 -99.93,-72.9 -25.44,-38.42 -40.1,-91.07 -44.08,-140.11 -3.96,-49.03 2.76,-94.43 13.61,-123.27 10.87,-28.83 25.86,-41.09 33.35,-47.22 7.51,-6.13 7.51,-6.13 -4.8,-13 -12.29,-6.89 -36.89,-20.64 -57.57,-41.2 -20.66,-20.55 -37.4,-47.89 -45,-85.43 -7.61,-37.53 -6.07,-85.24 4.02,-123 10.09,-37.77 28.73,-65.59 54.16,-88.67 25.44,-23.07 57.68,-41.4 88.4,-52.11 30.73,-10.72 59.96,-13.81 92.07,-7.81 32.1,6.01 67.08,21.11 104.93,45.31 37.86,24.22 78.57,57.53 111.26,76.2 32.69,18.67 57.34,22.69 86.88,21.86 29.55,-0.82 63.97,-6.48 139.35,-21.03z"/>
    <path class="fil2" d="M8802.27 12609.13c-53.08,-32.01 -135.52,-80.8 -215.14,-133.07 -79.62,-52.28 -156.45,-108.03 -198.24,-136.86 -41.79,-28.83 -48.56,-30.74 -64.23,-24.8 -15.68,5.93 -40.26,19.7 -61.48,30.16 -21.21,10.46 -39.05,17.6 -56.26,22.49 -17.21,4.89 -33.77,7.53 -61.62,6.99 -27.86,-0.55 -66.99,-4.28 -97.3,-17.69 -30.31,-13.42 -51.8,-36.51 -66.7,-61.41 -14.9,-24.9 -23.2,-51.6 -24.26,-78.07 -1.06,-26.48 5.12,-52.74 12.53,-76.83 7.39,-24.09 16.01,-46.02 34.3,-63.38 18.29,-17.38 46.25,-30.19 68.2,-36.78 21.95,-6.6 37.89,-6.98 45.86,-7.17 7.96,-0.19 7.96,-0.19 7.74,-16.69 -0.22,-16.5 -0.65,-49.5 4.62,-83.32 5.27,-33.83 16.25,-68.47 38.04,-98.25 21.79,-29.78 54.37,-54.68 90.07,-64.71 35.7,-10.03 74.51,-5.18 110.86,6.29 36.33,11.46 70.21,29.53 91.46,51.35 21.24,21.81 29.86,47.37 32.54,76.74 2.68,29.37 -0.59,62.54 -2.99,86.22 -2.42,23.67 -3.98,37.83 -1.6,48.86 2.37,11.01 8.68,18.88 33.05,36.1 24.37,17.21 66.79,43.78 157.77,96.83 90.98,53.03 230.51,132.54 305.11,176.7 74.61,44.17 84.3,52.99 107.88,49.28 23.56,-3.71 61,-19.93 91.4,-28.41 30.4,-8.48 53.73,-9.21 85.55,-3.28 31.81,5.92 72.1,18.49 105.32,34.56 33.22,16.05 59.36,35.59 76.77,62.41 17.39,26.82 26.05,60.92 20.54,97.73 -5.5,36.8 -25.16,76.3 -49.27,107.87 -24.12,31.55 -52.69,55.15 -74.78,66.58 -22.1,11.42 -37.72,10.67 -45.52,10.3 -7.81,-0.38 -7.81,-0.38 -4.15,10.4 3.66,10.77 10.98,32.31 12.27,55.81 1.29,23.5 -3.45,48.95 -19.17,75.57 -15.72,26.62 -42.42,54.41 -68.88,71.61 -26.46,17.2 -52.68,23.81 -80.4,23.91 -27.73,0.09 -56.97,-6.33 -81.19,-16.51 -24.22,-10.18 -43.43,-24.12 -59.44,-45.06 -16.01,-20.96 -28.83,-48.92 -38.45,-83.89 -9.63,-34.99 -16.05,-76.97 -25.57,-105.83 -9.52,-28.86 -22.13,-44.6 -40.29,-60.06 -18.17,-15.48 -41.88,-30.68 -94.95,-62.69z"/>
    <path class="fil2" d="M7636.7 10694.7c-42.05,-104.34 -108.36,-265.05 -166.8,-427.73 -58.43,-162.7 -109.02,-327.37 -138.17,-414.77 -29.16,-87.42 -36.9,-97.57 -66.1,-106.06 -29.2,-8.51 -79.88,-15.36 -122.06,-23.33 -42.17,-7.98 -75.84,-17.09 -106.13,-28.77 -30.3,-11.68 -57.19,-25.93 -96.99,-57.11 -39.8,-31.18 -92.47,-79.29 -121.8,-131.81 -29.32,-52.53 -35.28,-109.47 -29.72,-161.84 5.56,-52.36 22.64,-100.14 49.98,-139.69 27.36,-39.56 64.98,-70.89 101.99,-97.74 37.03,-26.88 73.44,-49.28 118.91,-54.51 45.49,-5.24 100.02,6.7 139.05,21.09 39.03,14.37 62.56,31.21 74.32,39.64 11.76,8.41 11.76,8.41 29.44,-15.76 17.69,-24.17 53.06,-72.5 97.61,-115.8 44.55,-43.31 98.28,-81.56 162.36,-100.97 64.1,-19.42 138.52,-19.99 201.23,4.43 62.72,24.41 113.71,73.78 153.91,130.07 40.2,56.26 69.6,119.43 76.61,174.26 7.01,54.81 -8.38,101.28 -36.55,146.8 -28.15,45.51 -69.08,90.06 -98.4,121.77 -29.33,31.7 -47.04,50.54 -55.62,69.12 -8.58,18.56 -8.02,36.84 8.53,88.41 16.56,51.56 49.1,136.38 123.16,312.58 74.07,176.18 189.67,443.71 249.68,589.17 60.02,145.45 64.45,168.81 102.67,189.17 38.23,20.33 110.23,37.65 163.56,58.52 53.34,20.86 87.97,45.27 127.64,88.58 39.68,43.29 84.39,105.49 115.04,165.03 30.66,59.53 47.25,116.39 43.23,174.28 -4.04,57.88 -28.69,116.77 -76.84,164.15 -48.13,47.36 -119.74,83.2 -189.15,102.67 -69.4,19.44 -136.58,22.49 -181.09,14.97 -44.51,-7.55 -66.34,-25.68 -77.26,-34.73 -10.91,-9.07 -10.91,-9.07 -17.36,10.55 -6.45,19.61 -19.34,58.84 -43.1,94.34 -23.77,35.48 -58.4,67.21 -110.25,88.67 -51.85,21.45 -120.89,32.61 -178.03,28.69 -57.14,-3.92 -102.38,-22.93 -142.69,-53.05 -40.31,-30.11 -75.71,-71.34 -99.73,-112.52 -24.02,-41.2 -36.67,-82.36 -37.03,-130.21 -0.36,-47.86 11.55,-102.4 35.76,-163.62 24.22,-61.23 60.71,-129.12 78.39,-181.36 17.69,-52.25 16.56,-88.83 7.1,-131.07 -9.46,-42.27 -27.26,-90.19 -69.3,-194.51z"/>
    <path class="fil2" d="M5029.61 14640.19c154.67,12.81 393.88,30.67 630.62,59.45 236.77,28.8 471.11,68.49 596.92,86.71 125.82,18.23 143.13,14.98 171.69,-15.76 28.59,-30.72 68.43,-88.94 104.4,-135.99 35.97,-47.04 68.07,-82.91 101.24,-113.01 33.17,-30.1 67.41,-54.43 130.5,-84.16 63.1,-29.74 155.04,-64.86 237.97,-68.45 82.92,-3.6 156.8,24.34 217.91,63.64 61.1,39.31 109.41,89.97 141.21,148.19 31.82,58.24 47.13,124.02 57.29,186.3 10.19,62.29 15.23,121.06 -6.5,180.35 -21.73,59.31 -70.23,119.14 -112.16,158.33 -41.91,39.21 -77.24,57.77 -94.92,67.06 -17.66,9.28 -17.66,9.28 1.17,46.04 18.84,36.79 56.5,110.34 82.26,192.1 25.78,81.75 39.64,171.69 23.86,262.71 -15.79,91.04 -61.21,183.13 -130.17,245.3 -68.96,62.2 -161.42,94.45 -255.71,109.13 -94.27,14.68 -190.35,11.78 -262.29,-13.56 -71.91,-25.33 -119.65,-73.1 -158.31,-136.02 -38.66,-62.91 -68.21,-140.97 -89.13,-196.76 -20.89,-55.8 -33.14,-89.31 -50.72,-111.41 -17.57,-22.07 -40.46,-32.71 -114.28,-44.27 -73.81,-11.53 -198.54,-23.99 -461.63,-41.88 -263.08,-17.88 -664.51,-41.17 -880.99,-57.33 -216.49,-16.17 -248.04,-25.18 -296.81,9.32 -48.76,34.52 -114.73,112.55 -173.5,165.36 -58.78,52.81 -110.32,80.38 -188.3,102.44 -77.95,22.08 -182.33,38.65 -274.72,39.53 -92.38,0.9 -172.76,-13.87 -241.62,-54.71 -68.85,-40.84 -126.17,-107.73 -154.73,-196.43 -28.56,-88.69 -28.36,-199.17 -9.34,-296.79 19.04,-97.6 56.91,-182.31 93.77,-232.51 36.89,-50.19 72.76,-65.87 90.69,-73.72 17.95,-7.83 17.95,-7.83 -2.25,-27.93 -20.18,-20.11 -60.55,-60.31 -89.58,-111.6 -29.01,-51.29 -46.66,-113.64 -40.98,-190.85 5.68,-77.21 34.71,-169.23 74.96,-237.23 40.24,-68.01 91.71,-111.99 153.82,-143.03 62.1,-31.03 134.85,-49.11 200.5,-53.2 65.67,-4.08 124.26,5.84 183.47,35.04 59.21,29.22 119.05,77.7 179.52,145.48 60.47,67.8 121.55,154.86 174.98,209.03 53.45,54.18 99.24,75.46 157.18,89.97 57.96,14.53 128.07,22.29 282.71,35.12z"/>
    <path class="fil2" d="M1607.74 15121.46c-64.07,-92.23 -164.26,-233.97 -257.22,-379.36 -92.96,-145.41 -178.72,-294.48 -226.48,-373.09 -47.77,-78.62 -57.55,-86.79 -87.86,-88.58 -30.32,-1.8 -81.16,2.77 -123.99,4.36 -42.82,1.58 -77.61,0.19 -109.69,-4.46 -32.08,-4.66 -61.42,-12.56 -107.07,-34.09 -45.66,-21.52 -107.6,-56.67 -147.79,-101.29 -40.2,-44.63 -58.63,-98.73 -64.83,-150.94 -6.2,-52.21 -0.17,-102.5 17.68,-147.06 17.86,-44.58 47.52,-83.41 77.6,-117.77 30.07,-34.37 60.55,-64.24 103.66,-79.42 43.11,-15.19 98.83,-15.66 140.02,-10.31 41.18,5.33 67.82,16.51 81.14,22.1 13.31,5.58 13.31,5.58 25.16,-21.86 11.86,-27.46 35.56,-82.35 69.33,-134.38 33.76,-52.03 77.58,-101.19 135.65,-134.29 58.08,-33.12 130.4,-50.17 196.86,-40.31 66.47,9.85 127.05,46.6 178.66,92.47 51.61,45.86 94.24,100.82 113.22,152.63 18.98,51.81 14.3,100.45 -3.02,151.01 -17.31,50.55 -47.27,102.99 -68.78,140.35 -21.52,37.36 -34.58,59.63 -38.81,79.62 -4.24,19.97 0.37,37.64 27.91,84.17 27.55,46.51 78.04,121.86 189.21,276.95 111.17,155.06 283.03,389.84 373.7,518.12 90.67,128.27 100.17,150.03 141.89,161.37 41.72,11.31 115.65,12.21 172.19,20.69 56.54,8.48 95.67,24.56 143.89,57.92 48.22,33.34 105.54,83.97 148.58,135.13 43.04,51.15 71.81,102.81 80.73,160.06 8.91,57.23 -2.03,120.02 -38.39,176.82 -36.35,56.78 -98.1,107.54 -161.35,141.88 -63.25,34.32 -127.96,52.19 -172.96,54.74 -45,2.52 -70.27,-10.28 -82.9,-16.67 -12.64,-6.41 -12.64,-6.41 -14.56,14.12 -1.93,20.52 -5.77,61.57 -21.03,101.38 -15.27,39.81 -41.95,78.38 -87.66,110.77 -45.71,32.38 -110.43,58.56 -166.92,67.41 -56.49,8.85 -104.75,0.38 -150.67,-19.99 -45.92,-20.37 -89.51,-52.66 -122.03,-87.41 -32.52,-34.78 -53.96,-72.05 -64.93,-118.54 -10.96,-46.51 -11.45,-102.23 -1.47,-167.2 9.99,-64.97 30.46,-139.15 36.09,-193.92 5.63,-54.79 -3.58,-90.14 -22.16,-129.16 -18.59,-39.04 -46.54,-81.75 -110.6,-173.97z"/>
    <path class="fil2" d="M3069.31 13721.71c65.77,-39.6 166.91,-101.65 270.23,-158.6 103.33,-56.95 208.84,-108.82 264.59,-137.91 55.76,-29.09 61.76,-35.4 64.33,-56 2.58,-20.6 1.73,-55.48 2.54,-84.77 0.83,-29.28 3.33,-52.96 7.93,-74.63 4.6,-21.68 11.3,-41.34 28.01,-71.53 16.71,-30.19 43.44,-70.88 75.67,-96.31 32.24,-25.44 69.96,-35.6 105.85,-37.51 35.89,-1.91 69.93,4.44 99.54,18.6 29.61,14.16 54.79,36.12 76.88,58.17 22.11,22.05 41.14,44.17 49.58,74.25 8.44,30.08 6.29,68.12 0.8,95.98 -5.47,27.85 -14.27,45.52 -18.68,54.36 -4.4,8.83 -4.4,8.83 13.79,18.14 18.2,9.31 54.6,27.92 88.59,53.27 33.99,25.35 65.58,57.42 85.58,98.51 20,41.1 28.42,91.19 18.74,136.09 -9.67,44.9 -37.44,84.59 -71.03,117.76 -33.57,33.17 -72.96,59.81 -109.16,70.45 -36.18,10.64 -69.16,5.29 -102.87,-8.77 -33.72,-14.06 -68.16,-36.83 -92.69,-53.16 -24.53,-16.35 -39.14,-26.25 -52.59,-30.02 -13.43,-3.78 -25.69,-1.43 -58.66,15.29 -32.95,16.73 -86.6,47.82 -197.34,116.76 -110.73,68.94 -278.53,175.74 -370.07,231.89 -91.54,56.15 -106.81,61.66 -116.39,89.62 -9.58,27.96 -13.47,78.35 -21.78,116.54 -8.3,38.2 -21,64.17 -45.91,95.59 -24.89,31.41 -61.97,68.26 -98.79,95.34 -36.8,27.09 -73.33,44.42 -112.77,47.96 -39.44,3.53 -81.79,-6.73 -118.92,-34.05 -37.12,-27.32 -69,-71.71 -89.62,-116.38 -20.59,-44.67 -29.9,-89.62 -29.64,-120.43 0.28,-30.81 10.13,-47.48 15.06,-55.81 4.93,-8.34 4.93,-8.34 -8.99,-10.56 -13.91,-2.23 -41.74,-6.68 -68.23,-18.86 -26.48,-12.18 -51.6,-32.1 -71.66,-64.72 -20.06,-32.62 -35.03,-77.94 -38.56,-116.87 -3.53,-38.93 4.4,-71.47 20.34,-101.89 15.94,-30.42 39.9,-58.72 65.05,-79.36 25.17,-20.64 51.55,-33.6 83.75,-39.02 32.22,-5.41 70.25,-3.27 114.13,6.43 43.88,9.71 93.57,26.97 130.68,33.24 37.12,6.28 61.65,1.57 89.1,-9.37 27.46,-10.94 57.83,-28.11 123.59,-67.71z"/>
    <path class="fil2" d="M5849.94 12983.96c25.3,-92.18 63.24,-234.96 107.52,-375.01 44.28,-140.06 94.89,-277.42 120.19,-351.51 25.3,-74.1 25.3,-84.95 9.94,-105.72 -15.36,-20.8 -46.09,-51.52 -70.49,-78.63 -24.39,-27.11 -42.47,-50.61 -56.93,-74.1 -14.46,-23.5 -25.3,-46.98 -36.14,-88.55 -10.85,-41.57 -21.68,-101.21 -14.45,-151.82 7.23,-50.6 32.52,-92.16 63.24,-124.69 30.73,-32.54 66.88,-56.03 105.73,-68.68 38.86,-12.65 80.42,-14.46 119.27,-13.55 38.87,0.9 75.01,4.51 108.44,24.39 33.45,19.88 64.16,56.03 83.13,85.86 18.98,29.81 26.21,53.31 29.83,65.06 3.61,11.74 3.61,11.74 28.01,4.51 24.4,-7.23 73.2,-21.68 125.61,-28 52.42,-6.34 108.43,-4.53 161.74,15.35 53.33,19.88 103.92,57.83 133.73,106.62 29.83,48.8 38.87,108.43 37.06,167.18 -1.81,58.73 -14.46,116.57 -37.95,157.24 -23.5,40.66 -57.83,64.14 -100.31,80.41 -42.46,16.26 -93.07,25.3 -129.22,31.63 -36.14,6.32 -57.82,9.94 -73.19,18.08 -15.35,8.12 -24.39,20.77 -39.76,64.15 -15.36,43.38 -37.04,117.47 -77.71,274.71 -40.66,157.22 -100.29,397.59 -134.63,526.81 -34.34,129.22 -43.38,147.29 -28.02,180.74 15.36,33.43 55.11,82.21 80.42,123.78 25.3,41.57 36.14,75.9 40.66,125.61 4.52,49.69 2.71,114.76 -7.23,170.79 -9.94,56.02 -28,103 -60.53,140.06 -32.53,37.04 -79.53,64.15 -136.46,71.38 -56.93,7.23 -123.79,-5.42 -180.73,-28 -56.92,-22.6 -103.9,-55.13 -130.11,-83.14 -26.2,-28.02 -31.63,-51.52 -34.34,-63.26 -2.71,-11.75 -2.71,-11.75 -17.17,-1.81 -14.46,9.94 -43.37,29.82 -77.71,41.57 -34.34,11.74 -74.09,15.36 -120.19,3.16 -46.09,-12.2 -98.5,-40.2 -135.11,-72.28 -36.6,-32.08 -57.39,-68.23 -69.13,-109.34 -11.74,-41.11 -14.43,-87.21 -9.47,-127.41 4.98,-40.22 17.63,-74.56 42.03,-107.09 24.4,-32.53 60.54,-63.26 108.43,-92.18 47.9,-28.91 107.53,-56.01 146.38,-82.21 38.86,-26.21 56.94,-51.52 72.29,-84.95 15.37,-33.44 28.02,-75 53.33,-167.16z"/>
    <path class="fil2" d="M5613.17 10473.66c-101,-19.09 -257.35,-47.31 -411.32,-82.57 -153.99,-35.26 -305.62,-77.53 -387.24,-98.2 -81.63,-20.66 -93.25,-19.72 -114.19,-1.43 -20.94,18.27 -51.2,53.88 -78.13,82.4 -26.93,28.51 -50.54,49.93 -74.47,67.47 -23.92,17.55 -48.14,31.22 -91.76,46.46 -43.61,15.25 -106.59,32.05 -161.46,28.71 -54.87,-3.33 -101.62,-26.82 -139.17,-56.92 -37.55,-30.1 -65.88,-66.79 -82.82,-107.34 -16.95,-40.55 -22.51,-84.93 -24.92,-126.66 -2.42,-41.73 -1.7,-80.79 16.7,-118.36 18.39,-37.57 54.46,-73.64 84.78,-96.58 30.3,-22.94 54.85,-32.74 67.14,-37.64 12.27,-4.89 12.27,-4.89 2.39,-30.41 -9.87,-25.53 -29.62,-76.57 -40.96,-132.2 -11.36,-55.63 -14.3,-115.83 2.36,-174.7 16.67,-58.89 52.93,-116.42 102.63,-152.63 49.71,-36.22 112.84,-51.11 175.96,-54.29 63.11,-3.18 126.2,5.34 171.85,26.98 45.62,21.64 73.79,56.39 94.92,100.51 21.14,44.1 35.23,97.55 45.17,135.74 9.92,38.2 15.69,61.11 25.75,76.88 10.05,15.75 24.4,24.33 72.23,37.03 47.83,12.68 129.13,29.47 301.21,59.36 172.07,29.88 434.9,72.85 576.4,98.4 141.5,25.55 161.65,33.66 196.16,14.28 34.49,-19.38 83.32,-66.24 125.67,-96.98 42.35,-30.74 78.2,-45.36 131.09,-54.53 52.87,-9.18 122.77,-12.91 183.69,-7.13 60.92,5.77 112.85,21.03 155.4,52.67 42.54,31.64 75.7,79.65 88.41,140.05 12.71,60.38 4.97,133.15 -14.28,196.15 -19.26,62.98 -50.03,116.17 -77.77,146.71 -27.75,30.52 -52.46,38.38 -64.81,42.32 -12.36,3.92 -12.36,3.92 -0.44,18.55 11.91,14.63 35.73,43.9 51.33,79.68 15.57,35.78 22.91,78.07 13.85,128.54 -9.05,50.47 -34.51,109.09 -65.7,151.12 -31.19,42.02 -68.12,67.46 -111.17,83.63 -43.04,16.16 -92.22,23.07 -135.74,21.25 -43.54,-1.84 -81.45,-12.41 -118.45,-35.72 -36.99,-23.32 -73.07,-59.38 -108.24,-108.18 -35.17,-48.83 -69.41,-110.38 -100.88,-149.74 -31.48,-39.37 -60.18,-56.54 -97.35,-70.09 -37.18,-13.56 -82.83,-23.5 -183.82,-42.59z"/>
    <path class="fil2" d="M4371.33 12508.44c-57.68,-57.29 -147.54,-145.12 -232.74,-236.5 -85.19,-91.39 -165.75,-186.32 -210.03,-236.06 -44.29,-49.73 -52.32,-54.27 -74.14,-51.58 -21.82,2.68 -57.43,12.58 -87.71,19.31 -30.28,6.72 -55.24,10.28 -78.69,11.16 -23.45,0.87 -45.38,-0.92 -80.7,-10.28 -35.32,-9.36 -84.02,-26.28 -118.47,-52.81 -34.45,-26.52 -54.65,-62.64 -65.89,-99 -11.24,-36.36 -13.51,-72.96 -6.63,-107.02 6.89,-34.08 22.93,-65.61 39.86,-94 16.92,-28.41 34.72,-53.66 63.43,-70.1 28.71,-16.45 68.33,-24.07 98.35,-25.65 30.02,-1.58 50.45,2.89 60.67,5.13 10.2,2.24 10.2,2.24 15.05,-18.85 4.86,-21.1 14.57,-63.28 31.81,-104.74 17.24,-41.47 42.01,-82.19 79.03,-113.36 37.03,-31.17 86.3,-52.76 134.91,-54.43 48.61,-1.68 96.55,16.58 139.3,42.49 42.74,25.91 80.28,59.47 100.57,93.89 20.28,34.4 23.31,69.65 17.59,107.91 -5.72,38.26 -20.2,79.51 -30.63,108.93 -10.44,29.41 -16.83,46.98 -17.24,61.76 -0.4,14.78 5.19,26.76 30.88,56.29 25.7,29.52 71.49,76.57 170.92,172.47 99.43,95.88 252.49,240.59 333.82,320.08 81.33,79.49 90.93,93.74 122.12,96.36 31.19,2.6 83.95,-6.43 125.32,-7.78 41.37,-1.35 71.32,4.98 110.02,22.44 38.7,17.43 86.13,45.99 123.46,76.8 37.33,30.79 64.57,63.82 78.4,103.41 13.83,39.59 14.25,85.73 -4.22,130.92 -18.46,45.18 -55.8,89.4 -96.34,122.12 -40.55,32.7 -84.3,53.89 -116,61.58 -31.71,7.68 -51.38,1.87 -61.21,-1.03 -9.84,-2.91 -9.84,-2.91 -8.52,11.95 1.31,14.87 3.93,44.6 -1.73,74.95 -5.67,30.34 -19.62,61.29 -47.93,90.32 -28.32,29.03 -70.99,56.13 -110.05,69.82 -39.07,13.69 -74.54,13.96 -109.9,5.46 -35.36,-8.51 -70.62,-25.79 -98.31,-46.29 -27.7,-20.51 -47.84,-44.25 -61.73,-75.92 -13.88,-31.68 -21.52,-71.3 -22.9,-118.86 -1.38,-47.57 3.5,-103.06 0.35,-142.8 -3.15,-39.74 -14.33,-63.71 -32.66,-89.07 -18.34,-25.37 -43.82,-52.12 -101.49,-109.42z"/>
    <path class="fil2" d="M1600.87 11511.56c40.27,-146.73 100.67,-374.02 171.15,-596.96 70.5,-222.97 151.06,-441.62 191.34,-559.56 40.27,-117.96 40.27,-135.22 15.81,-168.3 -24.45,-33.09 -73.36,-82 -112.21,-125.16 -38.83,-43.16 -67.6,-80.56 -90.61,-117.96 -23.02,-37.4 -40.28,-74.78 -57.54,-140.96 -17.27,-66.17 -34.51,-161.11 -23,-241.67 11.51,-80.56 51.77,-146.71 100.68,-198.49 48.91,-51.79 106.45,-89.19 168.29,-109.33 61.87,-20.14 128.02,-23.02 189.87,-21.57 61.87,1.43 119.41,7.18 172.62,38.83 53.24,31.65 102.13,89.19 132.33,136.67 30.22,47.46 41.73,84.86 47.48,103.57 5.75,18.69 5.75,18.69 44.58,7.19 38.85,-11.51 116.53,-34.53 199.97,-44.59 83.43,-10.08 172.6,-7.2 257.47,24.45 84.88,31.64 165.42,92.04 212.88,169.72 47.48,77.68 61.86,172.61 58.99,266.12 -2.88,93.5 -23.02,185.56 -60.42,250.3 -37.4,64.73 -92.05,102.11 -159.67,128 -67.6,25.9 -148.16,40.28 -205.7,50.36 -57.54,10.06 -92.04,15.82 -116.51,28.77 -24.44,12.94 -38.83,33.08 -63.29,102.13 -24.45,69.05 -58.97,186.99 -123.72,437.29 -64.72,250.28 -159.64,632.91 -214.31,838.61 -54.66,205.7 -69.05,234.47 -44.6,287.71 24.46,53.21 87.74,130.87 128.02,197.05 40.28,66.17 57.54,120.81 64.72,199.94 7.2,79.11 4.33,182.69 -11.51,271.87 -15.81,89.19 -44.56,163.98 -96.35,222.97 -51.79,58.97 -126.59,102.12 -217.23,113.63 -90.61,11.51 -197.04,-8.63 -287.68,-44.58 -90.62,-35.98 -165.4,-87.76 -207.13,-132.35 -41.71,-44.6 -50.34,-82.01 -54.66,-100.7 -4.31,-18.71 -4.31,-18.71 -27.33,-2.87 -23.01,15.81 -69.05,47.46 -123.71,66.17 -54.66,18.69 -117.94,24.44 -191.31,5.03 -73.38,-19.42 -156.81,-64 -215.08,-115.06 -58.26,-51.07 -91.36,-108.61 -110.05,-174.06 -18.69,-65.44 -22.98,-138.82 -15.07,-202.82 7.93,-64.02 28.07,-118.68 66.9,-170.47 38.85,-51.79 96.37,-100.7 172.6,-146.73 76.25,-46.03 171.17,-89.17 233.02,-130.87 61.87,-41.73 90.64,-82.01 115.08,-135.23 24.47,-53.23 44.61,-119.38 84.89,-266.09z"/>
    <path class="fil2" d="M11304.53 9964.47c180.68,52.63 460.59,131.67 734.94,223.1 274.37,91.46 543.22,195.27 688.29,247.34 145.1,52.07 166.45,52.4 207.82,22.78 41.4,-29.59 102.82,-89.14 156.93,-136.35 54.11,-47.2 100.91,-82.06 147.61,-109.8 46.69,-27.75 93.25,-48.38 175.41,-68.46 82.16,-20.08 199.9,-39.58 299.3,-23.8 99.4,15.77 180.43,66.83 243.54,128.3 63.1,61.48 108.25,133.35 131.97,210.22 23.72,76.89 26,158.75 23.03,235.21 -2.95,76.48 -11.17,147.52 -51.33,212.72 -40.16,65.23 -112.25,124.58 -171.55,161.02 -59.27,36.46 -105.74,49.97 -128.99,56.73 -23.22,6.76 -23.22,6.76 -9.74,55 13.49,48.26 40.46,144.76 51.3,248.13 10.87,103.37 5.6,213.59 -35.16,317.92 -40.76,104.36 -117,202.8 -213.97,260.01 -96.97,57.22 -214.63,73.19 -330.22,67.84 -115.56,-5.35 -229.03,-32.02 -308.37,-79.51 -79.32,-47.5 -124.5,-115.79 -155.23,-199.9 -30.72,-84.1 -46.97,-183.99 -58.33,-255.34 -11.34,-71.35 -17.79,-114.13 -33.34,-144.63 -15.53,-30.48 -40.16,-48.66 -125.08,-80.23 -84.92,-31.56 -230.11,-76.51 -538.4,-161.37 -308.26,-84.84 -779.61,-209.56 -1032.94,-281.1 -253.32,-71.55 -288.62,-89.89 -354.92,-60.68 -66.28,29.23 -163.53,105.99 -246.13,154.53 -82.61,48.55 -150.51,68.85 -248.5,76.21 -97.97,7.39 -225.99,1.85 -335.98,-19.44 -109.99,-21.27 -201.92,-58.26 -273.88,-123.43 -71.93,-65.17 -123.86,-158.5 -136.35,-270.81 -12.5,-112.28 14.45,-243.51 60.65,-354.9 46.22,-111.37 111.69,-202.86 167.63,-253.6 55.95,-50.72 102.37,-60.68 125.57,-65.67 23.22,-4.97 23.22,-4.97 4.08,-33.73 -19.11,-28.77 -57.37,-86.3 -79.46,-154.26 -22.06,-67.96 -27.97,-146.31 -2.55,-236.68 25.42,-90.36 82.15,-192.69 146.41,-263.76 64.26,-71.07 136.06,-110.9 217.35,-132.76 81.29,-21.85 172.11,-25.75 251.1,-14.74 79.02,11.03 146.23,36.98 209.53,85.99 63.29,49.04 122.67,121.11 178.14,216.26 55.46,95.18 106.99,213.39 157.38,290.67 50.41,77.3 99.67,113.65 165.01,144.9 65.36,31.28 146.78,57.45 327.43,110.07z"/>
    <path class="fil2" d="M753.77 10662.04c-10.17,-49.17 -26.52,-125.02 -39.25,-201.11 -12.72,-76.1 -21.85,-152.45 -27.7,-193.15 -5.86,-40.71 -8.45,-45.78 -20.6,-51.83 -12.15,-6.06 -33.86,-13.1 -51.75,-19.95 -17.89,-6.86 -31.95,-13.53 -44.33,-21.07 -12.37,-7.54 -23.05,-15.94 -38.05,-32.8 -15,-16.85 -34.31,-42.17 -43.01,-67.57 -8.71,-25.4 -6.8,-50.88 -0.19,-73.44 6.6,-22.55 17.9,-42.18 33.06,-57.37 15.16,-15.2 34.17,-25.97 52.56,-34.82 18.4,-8.86 36.17,-15.8 56.56,-14.48 20.39,1.31 43.39,10.89 59.38,20.31 16,9.42 25,18.68 29.5,23.32 4.49,4.63 4.49,4.63 14.18,-4.58 9.69,-9.21 29.06,-27.63 52.07,-43.1 23.01,-15.48 49.65,-28.01 79.33,-31.44 29.7,-3.43 62.43,2.24 88.03,17.95 25.6,15.71 44.07,41.44 57.25,69.36 13.18,27.91 21.07,57.98 19.79,82.62 -1.28,24.63 -11.73,43.81 -27.72,61.57 -15.98,17.75 -37.5,34.06 -52.9,45.65 -15.4,11.59 -24.67,18.46 -29.92,25.94 -5.24,7.46 -6.45,15.54 -3.28,39.5 3.17,23.96 10.72,63.8 29.24,147.07 18.52,83.27 48.02,209.95 62.81,278.6 14.79,68.65 14.88,79.27 30.05,91.24 15.17,11.97 45.42,25.31 67.18,38.71 21.77,13.4 35.04,26.87 49.02,49.05 13.98,22.17 28.67,53.04 37.4,81.63 8.73,28.58 11.5,54.87 5.13,79.97 -6.38,25.1 -21.89,49 -46.8,65.98 -24.9,16.98 -59.2,27.02 -91.23,30.06 -32.03,3.02 -61.77,-0.98 -80.72,-7.83 -18.95,-6.85 -27.1,-16.55 -31.17,-21.39 -4.08,-4.85 -4.08,-4.85 -8.46,3.25 -4.4,8.1 -13.18,24.31 -26.43,38.01 -13.27,13.69 -31,24.87 -55.47,30.17 -24.48,5.3 -55.69,4.72 -80.47,-1.55 -24.78,-6.27 -43.14,-18.21 -58.45,-34.64 -15.31,-16.43 -27.58,-37.35 -34.85,-57.35 -7.28,-20 -9.56,-39.08 -5.92,-60.13 3.65,-21.05 13.22,-44.05 28.72,-69.01 15.5,-24.97 36.93,-51.88 48.85,-73.42 11.92,-21.54 14.33,-37.69 13.53,-57 -0.79,-19.31 -4.8,-41.78 -14.97,-90.93z"/>
    <path class="fil2" d="M7104.15 16914.23c89.92,-38.31 228.41,-98.67 368.74,-152.21 140.35,-53.55 282.55,-100.31 357.98,-127.13 75.44,-26.83 84.13,-33.73 91.01,-59.24 6.89,-25.52 11.97,-69.66 18.18,-106.44 6.21,-36.77 13.55,-66.18 23.18,-92.7 9.63,-26.52 21.55,-50.13 47.96,-85.24 26.4,-35.1 67.3,-81.69 112.43,-108.06 45.14,-26.37 94.5,-32.53 140.09,-28.59 45.59,3.93 87.38,17.96 122.21,41.04 34.84,23.09 62.7,55.23 86.66,86.93 23.99,31.71 44.06,62.96 49.39,102.38 5.32,39.42 -4.11,87 -15.95,121.15 -11.82,34.16 -26.04,54.88 -33.16,65.25 -7.11,10.36 -7.11,10.36 14.19,25.31 21.3,14.95 63.9,44.85 102.27,82.82 38.39,37.96 72.54,83.98 90.5,139.33 17.97,55.35 19.73,119.99 -0.41,174.89 -20.14,54.91 -62.16,100.05 -110.37,135.94 -48.2,35.88 -102.57,62.5 -150.08,69.53 -47.5,7.02 -88.13,-5.55 -128.16,-29.24 -40.02,-23.68 -79.43,-58.47 -107.47,-83.41 -28.04,-24.93 -44.71,-40 -61,-47.14 -16.27,-7.14 -32.15,-6.33 -76.67,8.92 -44.5,15.27 -117.64,44.99 -269.45,112.35 -151.79,67.36 -382.24,172.36 -507.58,226.98 -125.34,54.62 -145.56,58.87 -162.59,92.43 -17.01,33.56 -30.83,96.41 -48.04,143.1 -17.22,46.69 -37.83,77.19 -74.78,112.4 -36.93,35.21 -90.2,75.12 -141.41,102.76 -51.19,27.65 -100.31,43.04 -150.67,40.53 -50.35,-2.51 -101.93,-22.92 -143.91,-63.94 -41.98,-41.01 -74.34,-102.61 -92.43,-162.57 -18.08,-59.97 -21.88,-118.28 -16.1,-157.08 5.79,-38.79 21.17,-58.07 28.84,-67.71 7.7,-9.64 7.7,-9.64 -9.46,-14.9 -17.14,-5.27 -51.45,-15.79 -82.69,-35.83 -31.23,-20.05 -59.39,-49.59 -78.92,-94.27 -19.53,-44.67 -30.4,-104.46 -27.97,-154.17 2.43,-49.71 18.18,-89.34 43.65,-124.88 25.47,-35.53 60.68,-66.99 96.05,-88.56 35.38,-21.57 70.93,-33.26 112.49,-34.4 41.57,-1.13 89.15,8.29 142.75,28.27 53.61,20 113.22,50.54 158.9,65.01 45.7,14.47 77.46,12.87 114,3.92 36.56,-8.94 77.89,-25.22 167.8,-63.53z"/>
    <path class="fil2" d="M7064.09 19287.32c20.32,-74.04 50.79,-188.71 86.35,-301.2 35.57,-112.5 76.22,-222.82 96.54,-282.33 20.32,-59.51 20.32,-68.22 7.98,-84.91 -12.34,-16.7 -37.01,-41.38 -56.61,-63.15 -19.6,-21.77 -34.11,-40.65 -45.73,-59.52 -11.61,-18.87 -20.32,-37.73 -29.03,-71.12 -8.71,-33.38 -17.41,-81.29 -11.6,-121.93 5.81,-40.65 26.12,-74.03 50.8,-100.15 24.67,-26.13 53.71,-45 84.91,-55.17 31.22,-10.16 64.59,-11.61 95.8,-10.88 31.21,0.72 60.24,3.63 87.09,19.59 26.86,15.97 51.53,45 66.77,68.96 15.25,23.95 21.05,42.82 23.96,52.26 2.9,9.43 2.9,9.43 22.49,3.62 19.6,-5.8 58.8,-17.42 100.89,-22.49 42.1,-5.09 87.09,-3.64 129.91,12.33 42.83,15.97 83.46,46.44 107.41,85.64 23.96,39.19 31.21,87.08 29.76,134.27 -1.45,47.17 -11.61,93.62 -30.48,126.29 -18.87,32.65 -46.44,51.52 -80.56,64.58 -34.11,13.07 -74.75,20.32 -103.79,25.41 -29.03,5.07 -46.44,7.98 -58.78,14.52 -12.34,6.52 -19.6,16.68 -31.94,51.52 -12.33,34.84 -29.75,94.35 -62.42,220.64 -32.66,126.28 -80.55,319.34 -108.13,423.12 -27.58,103.79 -34.84,118.3 -22.5,145.16 12.34,26.85 44.26,66.04 64.59,99.43 20.32,33.38 29.03,60.95 32.65,100.88 3.64,39.91 2.19,92.17 -5.8,137.17 -7.98,45 -22.49,82.73 -48.62,112.5 -26.13,29.75 -63.87,51.52 -109.6,57.33 -45.72,5.81 -99.42,-4.35 -145.15,-22.49 -45.72,-18.15 -83.45,-44.28 -104.51,-66.78 -21.04,-22.5 -25.4,-41.37 -27.58,-50.81 -2.17,-9.44 -2.17,-9.44 -13.78,-1.45 -11.62,7.98 -34.84,23.95 -62.42,33.39 -27.58,9.43 -59.51,12.33 -96.53,2.54 -37.02,-9.8 -79.12,-32.29 -108.52,-58.06 -29.4,-25.76 -46.09,-54.79 -55.53,-87.81 -9.43,-33.03 -11.59,-70.05 -7.6,-102.34 4,-32.3 14.16,-59.88 33.75,-86.01 19.61,-26.13 48.63,-50.81 87.09,-74.03 38.47,-23.23 86.37,-44.99 117.57,-66.04 31.22,-21.05 45.73,-41.37 58.07,-68.22 12.34,-26.86 22.5,-60.24 42.83,-134.26z"/>
    <path class="fil2" d="M5368.39 16601.65c27.07,-46.26 68.32,-118.1 112.61,-187.54 44.29,-69.44 91.62,-136.51 116.06,-172.97 24.45,-36.47 26.02,-42.34 20.71,-55.83 -5.3,-13.48 -17.49,-34.58 -26.78,-52.8 -9.28,-18.22 -15.66,-33.57 -20.09,-48.39 -4.42,-14.83 -6.89,-29.12 -6.74,-53.21 0.15,-24.08 2.93,-57.96 14.18,-84.32 11.26,-26.37 30.98,-45.21 52.34,-58.38 21.36,-13.16 44.34,-20.65 67.22,-21.87 22.89,-1.22 45.66,3.83 66.57,9.95 20.92,6.12 39.98,13.32 55.2,28.94 15.23,15.61 26.63,39.65 32.58,58.55 5.96,18.9 6.47,32.68 6.72,39.57 0.26,6.88 0.26,6.88 14.52,6.5 14.27,-0.37 42.8,-1.13 72.1,3.05 29.31,4.16 59.39,13.26 85.38,31.76 26,18.5 47.91,46.39 56.98,77.14 9.08,30.76 5.33,64.37 -4.16,95.93 -9.5,31.55 -24.73,61.04 -43.36,79.66 -18.62,18.62 -40.62,26.36 -65.98,29.02 -25.36,2.65 -54.08,0.21 -74.58,-1.6 -20.5,-1.82 -32.76,-3.01 -42.27,-0.82 -9.49,2.17 -16.22,7.71 -30.83,28.98 -14.61,21.27 -37.1,58.26 -81.93,137.53 -44.81,79.27 -111.96,200.82 -149.29,265.83 -37.34,65.02 -44.85,73.5 -41.38,93.84 3.47,20.33 17.93,52.52 25.61,78.71 7.68,26.18 8.58,46.35 3.81,73.93 -4.75,27.57 -15.16,62.55 -28.67,91.46 -13.51,28.9 -30.1,51.73 -53.09,67.09 -23,15.35 -52.38,23.22 -84.27,18.88 -31.88,-4.34 -66.26,-20.88 -93.83,-41.37 -27.56,-20.5 -48.29,-44.93 -58.42,-63.9 -10.13,-18.97 -9.66,-32.49 -9.43,-39.24 0.24,-6.76 0.24,-6.76 -9.04,-3.47 -9.27,3.29 -27.82,9.86 -48.12,11.25 -20.3,1.38 -42.36,-2.42 -65.56,-15.71 -23.19,-13.29 -47.52,-36.06 -62.7,-58.74 -15.17,-22.68 -21.2,-45.28 -21.59,-69.25 -0.4,-23.97 4.82,-49.33 13.34,-70.38 8.53,-21.07 20.36,-37.83 38.29,-51.92 17.93,-14.08 41.96,-25.48 72.09,-34.2 30.14,-8.72 66.37,-14.76 91.21,-23.31 24.85,-8.57 38.31,-19.65 51.47,-35.54 13.18,-15.88 26.06,-36.56 53.12,-82.81z"/>
    <path class="fil2" d="M5044.3 18698.51c-106.49,-93.79 -272.27,-237.39 -430.29,-387.67 -158.02,-150.3 -308.32,-307.27 -390.69,-389.28 -82.38,-82.02 -96.85,-89.08 -134.58,-82.11 -37.74,6.95 -98.74,27.93 -150.8,42.84 -52.05,14.88 -95.17,23.69 -135.93,27.68 -40.77,3.99 -79.16,3.17 -141.68,-9.44 -62.52,-12.6 -149.15,-37 -211.96,-79.6 -62.8,-42.6 -101.77,-103.41 -125.17,-165.58 -23.39,-62.18 -31.2,-125.71 -22.77,-185.78 8.43,-60.09 33.08,-116.71 59.6,-167.95 26.51,-51.27 54.87,-97.14 103.17,-128.79 48.3,-31.67 116.53,-49.11 168.68,-54.99 52.14,-5.91 88.19,-0.25 106.23,2.58 18.02,2.82 18.02,2.82 24.26,-34.43 6.25,-37.27 18.74,-111.79 44.44,-185.83 25.69,-74.05 64.58,-147.6 125.82,-205.78 61.25,-58.19 144.82,-100.98 229.34,-108.98 84.53,-8.01 169.97,18.76 247.17,59.43 77.18,40.66 146.1,95.21 185.06,153.04 38.94,57.83 47.92,118.92 41.95,186.19 -5.95,67.25 -26.85,140.65 -41.95,193 -15.11,52.34 -24.4,83.61 -23.55,109.41 0.84,25.78 11.84,46.08 59.7,94.83 47.87,48.74 132.59,125.93 315.88,282.59 183.28,156.64 465.13,392.74 615.16,522.7 150.04,129.97 168.26,153.8 222.88,155.09 54.61,1.27 145.58,-19.99 217.52,-26.68 71.94,-6.68 124.8,1.21 194.06,27.56 69.24,26.33 154.87,71.11 223.14,120.87 68.28,49.74 119.2,104.44 147.45,171.97 28.23,67.53 33.8,147.88 6.36,228.55 -27.42,80.65 -87.85,161.62 -155.06,222.87 -67.22,61.23 -141.22,102.72 -195.66,119.45 -54.44,16.71 -89.32,8.64 -106.75,4.62 -17.45,-4.05 -17.45,-4.05 -13.59,21.72 3.83,25.76 11.52,77.29 4.84,130.75 -6.7,53.47 -27.76,108.85 -74.05,162.4 -46.29,53.56 -117.79,105.24 -184.43,133.18 -66.63,27.94 -128.39,32.14 -190.89,21.03 -62.5,-11.11 -125.75,-37.54 -176.15,-70.35 -50.42,-32.83 -87.99,-72.07 -115.51,-125.8 -27.51,-53.75 -44.96,-121.97 -52.36,-204.69 -7.38,-82.74 -4.7,-179.95 -14.35,-248.84 -9.66,-68.92 -31.65,-109.52 -66.25,-151.77 -34.61,-42.29 -81.81,-86.23 -188.29,-180.01z"/>
    <path class="fil2" d="M813.84 19332.53c48.74,0.12 124.07,-0.32 198.9,2.72 74.85,3.04 149.2,9.56 189.04,12.09 39.85,2.54 45.18,1.09 53.35,-9.26 8.17,-10.33 19.18,-29.56 29.25,-45.2 10.08,-15.63 19.22,-27.67 28.84,-37.92 9.63,-10.26 19.73,-18.74 38.73,-29.64 19,-10.9 46.9,-24.21 72.77,-27.43 25.86,-3.21 49.69,3.67 69.81,14.43 20.12,10.77 36.52,25.41 47.94,42.83 11.43,17.43 17.88,37.63 22.63,56.87 4.76,19.24 7.82,37.51 2.51,56.62 -5.3,19.12 -18.98,39.07 -31.12,52.39 -12.12,13.33 -22.72,20.03 -28.02,23.39 -5.29,3.35 -5.29,3.35 1.53,14.38 6.82,11.04 20.47,33.11 30.59,58.06 10.13,24.94 16.74,52.74 14.09,81.63 -2.64,28.9 -14.54,58.87 -34.56,80.07 -20.02,21.21 -48.15,33.63 -77.29,40.61 -29.14,6.97 -59.29,8.48 -82.45,2.36 -23.15,-6.11 -39.3,-19.86 -52.98,-38.59 -13.69,-18.71 -24.91,-42.4 -32.86,-59.34 -7.95,-16.94 -12.63,-27.12 -18.69,-33.59 -6.05,-6.47 -13.49,-9.22 -36.89,-10.98 -23.39,-1.75 -62.75,-2.51 -145.56,-1.48 -82.8,1.04 -209.04,3.87 -277.22,4.27 -68.17,0.39 -78.27,-1.63 -92.67,10.4 -14.39,12.03 -33.08,38.12 -50.15,56.13 -17.06,18.02 -32.5,27.95 -56.35,36.82 -23.85,8.87 -56.11,16.69 -85,19.3 -28.9,2.61 -54.43,0.01 -77.02,-11.04 -22.58,-11.05 -42.21,-30.54 -53.38,-57.59 -11.18,-27.04 -13.9,-61.63 -10.41,-92.67 3.5,-31.03 13.22,-58.5 23.49,-75.14 10.28,-16.64 21.12,-22.45 26.53,-25.36 5.42,-2.91 5.42,-2.91 -1.41,-8.69 -6.82,-5.78 -20.47,-17.35 -30.85,-32.67 -10.37,-15.33 -17.47,-34.4 -17.64,-58.71 -0.17,-24.32 6.6,-53.85 17.48,-76.15 10.89,-22.31 25.89,-37.37 44.55,-48.65 18.66,-11.28 40.98,-18.78 61.42,-21.71 20.46,-2.93 39.04,-1.3 58.32,6.34 19.27,7.66 39.22,21.32 59.86,41.02 20.64,19.7 41.95,45.41 60.04,61.02 18.1,15.61 32.97,21.12 51.47,24.2 18.51,3.09 40.65,3.75 89.38,3.86z"/>
    <path class="fil2" d="M2644.36 19153.54c-94.56,-60 -241.45,-151.53 -383.12,-249.22 -141.67,-97.71 -278.15,-201.56 -352.44,-255.35 -74.31,-53.79 -86.46,-57.51 -115.01,-47.43 -28.56,10.06 -73.53,33.92 -112.28,51.95 -38.74,18.01 -71.27,30.18 -102.55,38.31 -31.28,8.12 -61.31,12.21 -111.59,10.08 -50.29,-2.13 -120.81,-10.48 -175.01,-35.96 -54.2,-25.48 -92.07,-68.08 -117.95,-113.66 -25.89,-45.59 -39.79,-94.15 -40.62,-142.01 -0.83,-47.88 11.42,-95.04 25.78,-138.25 14.36,-43.22 30.82,-82.47 64.57,-113.09 33.75,-30.63 84.79,-52.61 124.71,-63.62 39.92,-11.02 68.72,-11.05 83.12,-11.06 14.4,-0.02 14.4,-0.02 14.68,-29.83 0.28,-29.81 0.84,-89.44 11.76,-150.32 10.91,-60.88 32.17,-123 72.75,-175.89 40.58,-52.89 100.46,-96.53 165.35,-113.17 64.91,-16.65 134.8,-6.29 199.98,15.9 65.16,22.2 125.6,56.23 163.09,96.52 37.47,40.28 51.98,86.79 55.62,139.96 3.63,53.15 -3.63,112.94 -8.95,155.6 -5.33,42.66 -8.73,68.18 -4.89,88.19 3.83,19.99 14.9,34.46 58.2,66.57 43.32,32.09 118.85,81.83 281.01,181.39 162.14,99.54 410.9,248.87 543.84,331.72 132.94,82.84 150.08,99.17 192.82,93.45 42.72,-5.73 111.01,-33.5 166.27,-47.57 55.25,-14.06 97.42,-14.42 154.65,-2.4 57.21,12 129.47,36.36 188.81,66.75 59.35,30.37 105.77,66.73 136.1,115.9 30.32,49.16 44.55,111.1 33.09,177.36 -11.45,66.24 -48.58,136.79 -93.43,192.81 -44.87,56 -97.44,97.45 -137.81,117.19 -40.39,19.72 -68.56,17.73 -82.65,16.74 -14.09,-1.01 -14.09,-1.01 -7.92,18.6 6.16,19.61 18.5,58.83 19.87,101.33 1.36,42.49 -8.24,88.26 -37.73,135.7 -29.49,47.44 -78.86,96.53 -127.36,126.51 -48.5,29.98 -96.13,40.85 -146.22,39.88 -50.08,-0.96 -102.63,-13.78 -145.96,-33.15 -43.34,-19.39 -77.45,-45.35 -105.52,-83.85 -28.05,-38.51 -50.06,-89.53 -66,-153.1 -15.94,-63.59 -25.82,-139.68 -41.82,-192.2 -16.01,-52.53 -38.15,-81.47 -70.32,-110.15 -32.18,-28.7 -74.38,-57.14 -168.92,-117.13z"/>
    <path class="fil2" d="M693.64 16822.65c20.32,-74.04 50.79,-188.72 86.35,-301.2 35.57,-112.5 76.22,-222.82 96.54,-282.33 20.32,-59.51 20.32,-68.22 7.98,-84.91 -12.33,-16.7 -37.01,-41.38 -56.61,-63.15 -19.59,-21.78 -34.11,-40.65 -45.72,-59.52 -11.62,-18.87 -20.33,-37.73 -29.04,-71.12 -8.71,-33.39 -17.41,-81.29 -11.6,-121.93 5.81,-40.65 26.12,-74.03 50.8,-100.16 24.68,-26.13 53.71,-45 84.91,-55.16 31.22,-10.16 64.59,-11.61 95.8,-10.88 31.21,0.72 60.25,3.62 87.1,19.59 26.86,15.97 51.52,45 66.76,68.96 15.25,23.95 21.06,42.82 23.96,52.26 2.9,9.43 2.9,9.43 22.49,3.62 19.61,-5.8 58.8,-17.42 100.9,-22.49 42.09,-5.09 87.08,-3.64 129.9,12.33 42.83,15.97 83.46,46.44 107.41,85.64 23.96,39.19 31.22,87.08 29.76,134.27 -1.45,47.17 -11.61,93.62 -30.48,126.29 -18.87,32.65 -46.44,51.51 -80.56,64.58 -34.11,13.06 -74.75,20.32 -103.79,25.41 -29.03,5.07 -46.44,7.98 -58.78,14.51 -12.33,6.53 -19.59,16.69 -31.94,51.53 -12.33,34.84 -29.75,94.35 -62.42,220.64 -32.65,126.28 -80.55,319.34 -108.13,423.12 -27.58,103.79 -34.84,118.3 -22.5,145.16 12.34,26.85 44.27,66.04 64.59,99.42 20.32,33.39 29.03,60.96 32.66,100.89 3.63,39.91 2.18,92.17 -5.81,137.17 -7.98,45 -22.49,82.73 -48.61,112.5 -26.13,29.75 -63.88,51.52 -109.61,57.33 -45.72,5.81 -99.42,-4.35 -145.15,-22.5 -45.72,-18.15 -83.45,-44.27 -104.51,-66.77 -21.04,-22.5 -25.39,-41.38 -27.58,-50.81 -2.17,-9.44 -2.17,-9.44 -13.78,-1.45 -11.62,7.98 -34.84,23.95 -62.42,33.39 -27.58,9.43 -59.51,12.33 -96.53,2.54 -37.02,-9.8 -79.12,-32.29 -108.52,-58.06 -29.39,-25.76 -46.09,-54.79 -55.52,-87.82 -9.43,-33.02 -11.6,-70.04 -7.61,-102.33 4,-32.3 14.16,-59.88 33.76,-86.01 19.6,-26.13 48.62,-50.81 87.08,-74.03 38.48,-23.23 86.37,-44.99 117.57,-66.04 31.22,-21.05 45.74,-41.37 58.07,-68.22 12.34,-26.86 22.5,-60.24 42.83,-134.26z"/>
    <path class="fil2" d="M17102.8 9445.94c76.7,-3.17 195.22,-9.05 313.19,-9.42 117.98,-0.36 235.44,4.78 298.31,6.03 62.88,1.24 71.18,-1.41 83.32,-18.25 12.15,-16.83 28.14,-47.85 42.92,-73.15 14.78,-25.29 28.33,-44.86 42.77,-61.66 14.45,-16.81 29.76,-30.85 58.91,-49.31 29.16,-18.45 72.14,-41.32 112.62,-48.16 40.49,-6.84 78.46,2.35 110.86,17.9 32.4,15.55 59.22,37.46 78.39,64.1 19.18,26.64 30.73,57.99 39.53,87.94 8.81,29.95 14.88,58.49 7.85,88.92 -7.04,30.45 -27.19,62.78 -45.37,84.59 -18.17,21.81 -34.38,33.09 -42.48,38.73 -8.1,5.63 -8.1,5.63 3.39,22.53 11.5,16.9 34.49,50.7 52.14,89.25 17.66,38.56 29.97,81.85 27.79,127.5 -2.18,45.66 -18.83,93.64 -48.88,128.38 -30.04,34.75 -73.45,56.24 -118.84,69.22 -45.38,12.97 -92.72,17.43 -129.58,9.4 -36.85,-8.03 -63.21,-28.56 -86.04,-57.08 -22.82,-28.51 -42.11,-65.02 -55.79,-91.13 -13.67,-26.11 -21.74,-41.81 -31.72,-51.57 -9.97,-9.77 -21.86,-13.59 -58.8,-14.74 -36.94,-1.15 -98.93,0.37 -229.17,7.7 -130.23,7.33 -328.7,20.47 -435.96,25.79 -107.25,5.31 -123.29,2.82 -145.12,22.74 -21.82,19.93 -49.43,62.27 -75.05,91.79 -25.61,29.52 -49.23,46.21 -86.15,61.81 -36.92,15.62 -87.14,30.14 -132.43,36.23 -45.3,6.09 -85.66,3.76 -121.96,-12.07 -36.29,-15.83 -68.52,-45.16 -87.97,-86.95 -19.45,-41.79 -26.12,-96.03 -22.76,-145.11 3.38,-49.08 16.78,-92.97 31.8,-119.88 15.03,-26.89 31.68,-36.78 40,-41.73 8.33,-4.95 8.33,-4.95 -2.81,-13.58 -11.14,-8.63 -33.42,-25.89 -50.8,-49.29 -17.38,-23.4 -29.87,-52.93 -31.8,-91.18 -1.94,-38.24 6.67,-85.19 22.27,-121.03 15.59,-35.85 38.16,-60.59 66.75,-79.63 28.58,-19.03 63.19,-32.36 95.16,-38.39 31.99,-6.02 61.35,-4.74 92.21,5.97 30.85,10.72 63.19,30.86 97.02,60.42 33.84,29.58 69.15,68.58 98.69,91.9 29.56,23.32 53.33,30.97 82.66,34.54 29.35,3.58 64.23,3.1 140.93,-0.07z"/>
    <path class="fil2" d="M18449.95 15697.6c-25.39,-72.45 -65.54,-184.11 -100.26,-296.86 -34.71,-112.76 -64.02,-226.62 -81.14,-287.13 -17.13,-60.51 -22.08,-67.67 -41.73,-74.38 -19.64,-6.72 -53.97,-12.99 -82.48,-19.75 -28.49,-6.77 -51.17,-14.04 -71.45,-22.96 -20.28,-8.91 -38.17,-19.48 -64.33,-41.99 -26.15,-22.51 -60.54,-56.96 -78.88,-93.7 -18.34,-36.73 -20.61,-75.74 -15.17,-111.27 5.44,-35.52 18.59,-67.55 38.47,-93.66 19.9,-26.11 46.53,-46.28 72.62,-63.43 26.08,-17.16 51.61,-31.28 82.78,-33.41 31.17,-2.14 67.97,7.71 94.13,18.75 26.16,11.03 41.67,23.25 49.43,29.36 7.75,6.11 7.75,6.11 20.56,-9.81 12.82,-15.92 38.46,-47.76 70.2,-75.88 31.73,-28.12 69.57,-52.51 113.87,-63.73 44.31,-11.22 95.06,-9.26 137.05,9.36 41.99,18.62 75.2,53.88 100.84,93.52 25.63,39.63 43.69,83.62 46.74,121.22 3.05,37.59 -8.9,68.79 -29.54,98.93 -20.63,30.15 -49.93,59.23 -70.92,79.92 -20.99,20.69 -33.66,32.98 -40.1,45.38 -6.43,12.38 -6.62,24.86 3.03,60.54 9.67,35.67 29.18,94.53 74.13,216.98 44.95,122.45 115.35,308.49 151.68,409.54 36.33,101.05 38.62,117.12 64.04,132.2 25.42,15.07 73.97,29.14 109.67,45.05 35.7,15.91 58.54,33.63 84.23,64.41 25.69,30.77 54.21,74.58 73.23,116.14 19.03,41.55 28.55,80.84 23.99,120.18 -4.58,39.33 -23.24,78.7 -57.55,109.49 -34.31,30.77 -84.26,52.95 -132.19,64.04 -47.93,11.07 -93.83,11.03 -123.94,4.5 -30.11,-6.54 -44.42,-19.59 -51.58,-26.1 -7.15,-6.53 -7.15,-6.53 -12.16,6.64 -5.02,13.17 -15.04,39.51 -32.36,62.96 -17.32,23.44 -41.93,43.99 -77.96,56.98 -36.02,13 -83.44,18.43 -122.27,13.96 -38.83,-4.48 -69.08,-18.86 -95.62,-40.66 -26.53,-21.8 -49.36,-51.02 -64.45,-79.85 -15.08,-28.85 -22.4,-57.31 -21.15,-89.94 1.27,-32.64 11.11,-69.45 29.54,-110.43 18.44,-40.98 45.45,-86.12 59.16,-121.17 13.7,-35.07 14.08,-60.04 8.96,-89.14 -5.12,-29.12 -15.75,-62.35 -41.12,-134.8z"/>
    <path class="fil2" d="M19992.42 16836.27c4.09,-86.21 9.32,-219.49 20.67,-351.62 11.36,-132.15 28.82,-263.15 36.48,-333.42 7.66,-70.29 5.51,-79.84 -12.13,-95.11 -17.63,-15.28 -50.77,-36.29 -77.63,-55.35 -26.84,-19.07 -47.4,-36.2 -64.78,-54.04 -17.38,-17.85 -31.57,-36.4 -49.33,-70.88 -17.77,-34.48 -39.09,-84.88 -42.71,-130.9 -3.63,-46.01 10.45,-87.61 31.09,-122.34 20.65,-34.73 47.85,-62.57 79.58,-81.39 31.74,-18.82 68,-28.62 102.41,-35.49 34.41,-6.89 66.97,-10.84 100.35,0.07 33.39,10.92 67.59,36.7 90.19,59.23 22.62,22.52 33.62,41.79 39.13,51.43 5.5,9.63 5.5,9.63 25.57,-1.56 20.07,-11.18 60.21,-33.56 105.14,-49.48 44.92,-15.93 94.63,-25.4 145.52,-18.41 50.91,6.99 102.97,30.42 138.88,67.53 35.91,37.1 55.65,87.85 65.66,139.96 10,52.1 10.28,105.55 -2.39,146.02 -12.67,40.47 -38.27,67.93 -72.49,90.65 -34.2,22.72 -77,40.68 -107.59,53.39 -30.6,12.71 -48.98,20.17 -60.92,30.38 -11.92,10.19 -17.38,23.12 -22.36,64.37 -4.96,41.25 -9.44,110.81 -14.22,257.37 -4.77,146.55 -9.83,370.09 -14.57,490.71 -4.73,120.63 -9.13,138.34 11.01,164.77 20.14,26.41 64.79,61.54 95.29,93.17 30.5,31.63 46.84,59.73 60.63,102.63 13.8,42.89 25.06,100.57 27.36,151.89 2.31,51.33 -4.32,96.28 -25.67,135.36 -21.34,39.06 -57.39,72.22 -106.12,89.83 -48.73,17.62 -110.13,19.67 -164.75,11.02 -54.62,-8.67 -102.43,-28.05 -131.06,-47.55 -28.61,-19.51 -38.03,-39.14 -42.74,-48.95 -4.71,-9.82 -4.71,-9.82 -15.48,1.8 -10.78,11.6 -32.33,34.83 -60.26,51.97 -27.94,17.12 -62.24,28.16 -105.26,26.52 -43.02,-1.65 -94.72,-15.97 -133.31,-37 -38.58,-21.04 -64.03,-48.78 -82.5,-82.68 -18.46,-33.9 -29.93,-73.98 -33.5,-110.38 -3.55,-36.42 0.81,-69.17 15.88,-102.65 15.07,-33.48 40.84,-67.68 77.32,-102.62 36.49,-34.93 83.68,-70.58 112.73,-101.34 29.06,-30.77 39.99,-56.63 46.92,-89.11 6.93,-32.5 9.87,-71.61 13.96,-157.8z"/>
    <path class="fil2" d="M13064.69 14471.56c92.74,-112.24 234.66,-286.89 383.67,-453.8 149.03,-166.91 305.15,-326.12 386.59,-413.24 81.45,-87.13 88.22,-102.2 79.86,-140.67 -8.35,-38.47 -31.84,-100.35 -48.8,-153.26 -16.95,-52.91 -27.38,-96.84 -32.79,-138.51 -5.41,-41.68 -5.8,-81.08 5.1,-145.6 10.91,-64.53 33.13,-154.15 74.79,-219.94 41.66,-65.78 102.76,-107.72 165.76,-133.72 63.01,-25.99 127.91,-36.05 189.79,-29.35 61.9,6.7 120.76,30.15 174.16,55.69 53.43,25.53 101.39,53.13 135.41,101.64 34.04,48.51 54.13,117.92 61.85,171.21 7.74,53.28 3.1,90.44 0.78,109.02 -2.31,18.57 -2.31,18.57 36.09,23.77 38.42,5.21 115.25,15.61 192.01,39.57 76.77,23.95 153.46,61.46 215.1,122.39 61.66,60.93 108.24,145.25 119.18,231.67 10.94,86.43 -13.76,174.92 -52.97,255.4 -39.2,80.46 -92.91,152.91 -150.97,194.73 -58.04,41.81 -120.4,52.98 -189.58,49.04 -69.16,-3.93 -145.1,-23 -199.28,-36.78 -54.16,-13.81 -86.53,-22.33 -112.97,-20.62 -26.41,1.69 -46.87,13.62 -95.32,64.28 -48.43,50.67 -124.85,140.04 -279.59,333.08 -154.72,193.02 -387.74,489.69 -516.17,647.75 -128.44,158.06 -152.29,177.53 -151.85,233.58 0.47,56.04 25.21,148.65 34.39,222.21 9.18,73.56 2.8,128.02 -21.99,199.9 -24.76,71.87 -67.93,161.13 -116.75,232.75 -48.8,71.63 -103.25,125.61 -171.59,156.77 -68.34,31.13 -150.56,39.44 -234.18,13.91 -83.6,-25.52 -168.58,-84.87 -233.57,-151.82 -64.96,-66.96 -109.9,-141.51 -128.82,-196.79 -18.89,-55.3 -11.75,-91.33 -8.18,-109.34 3.58,-18.02 3.58,-18.02 -22.72,-13.23 -26.29,4.77 -78.89,14.32 -133.94,9.19 -55.04,-5.14 -112.52,-24.95 -168.93,-70.69 -56.42,-45.75 -111.74,-117.4 -142.54,-184.83 -30.81,-67.43 -37.11,-130.64 -27.74,-195.09 9.38,-64.46 34.44,-130.17 66.46,-182.92 32.04,-52.76 71.07,-92.57 125.28,-122.52 54.23,-29.95 123.63,-50.06 208.23,-60.31 84.61,-10.25 184.38,-10.64 254.72,-22.76 70.37,-12.14 111.29,-36 153.51,-72.84 42.24,-36.86 85.78,-86.69 178.51,-198.92z"/>
    <path class="fil2" d="M17119.69 17986.99c-112.97,-207.85 -290.2,-527.67 -451.45,-853.48 -161.25,-325.85 -306.59,-657.72 -388.54,-833.3 -81.96,-175.61 -100.57,-194.96 -163.63,-205.66 -63.06,-10.75 -170.58,-12.87 -260.62,-19.37 -90.03,-6.52 -162.58,-17.44 -228.68,-34.55 -66.1,-17.12 -125.72,-40.41 -216.38,-95.98 -90.65,-55.56 -212.28,-143.38 -286.19,-246.07 -73.91,-102.69 -100.08,-220.21 -101.07,-330.96 -0.99,-110.74 23.2,-214.67 70.81,-303.88 47.64,-89.24 118.68,-163.75 189.55,-228.77 70.88,-65.07 141.57,-120.62 235.32,-142.5 93.76,-21.89 210.56,-10.09 295.57,10.58 85.02,20.63 138.22,50.15 164.83,64.92 26.59,14.75 26.59,14.75 57.71,-39.99 31.14,-54.77 93.4,-164.27 176.07,-265.45 82.64,-101.21 185.68,-194.07 314.89,-250.05 129.24,-56 284.59,-75.09 421.49,-39.17 136.92,35.89 255.33,126.78 352.88,234.68 97.52,107.89 174.16,232.77 202.01,345.64 27.82,112.84 6.86,213.62 -41.02,315.51 -47.86,101.86 -122.65,204.79 -176.27,278.1 -53.65,73.28 -86.12,116.91 -99.58,157.79 -13.46,40.84 -7.88,78.92 39.11,182.67 47.01,103.72 135.41,273.11 332.57,623.41 197.16,350.25 503.09,881.37 663.48,1170.81 160.4,289.45 175.28,337.19 260.04,370.52 84.76,33.28 239.37,52.13 355.82,82.89 116.45,30.76 194.68,73.4 287.99,154.34 93.32,80.9 201.71,200.09 280.07,317.11 78.39,117 126.75,231.79 132.28,353.71 5.5,121.9 -31.83,250.87 -121.01,361.44 -89.16,110.54 -230.15,202.66 -370.47,260.03 -140.33,57.34 -279.95,79.88 -374.75,74.88 -94.81,-5.05 -144.79,-37.67 -169.78,-53.95 -24.99,-16.33 -24.99,-16.33 -33.72,26.21 -8.76,42.53 -26.24,127.6 -67.35,207.48 -41.12,79.85 -105.84,154.49 -208.99,211.79 -103.16,57.31 -244.71,97.25 -365.04,102.81 -120.33,5.55 -219.42,-23.27 -310.9,-76.48 -91.47,-53.21 -175.34,-130.83 -235.45,-211.08 -60.1,-80.29 -96.43,-163.25 -108.72,-263.14 -12.26,-99.9 -0.5,-216.7 35.33,-350.44 35.86,-133.76 95.76,-284.39 120.13,-397.78 24.38,-113.44 13.22,-189.58 -16.73,-275.57 -29.95,-86.02 -78.66,-181.87 -191.61,-389.7z"/>
    <path class="fil2" d="M18500.58 11996.85c50.29,-183.2 125.7,-466.98 213.7,-745.34 88.02,-278.39 188.6,-551.4 238.89,-698.65 50.29,-147.28 50.29,-168.84 19.75,-210.13 -30.53,-41.33 -91.59,-102.39 -140.1,-156.28 -48.48,-53.88 -84.41,-100.58 -113.14,-147.28 -28.74,-46.7 -50.29,-93.37 -71.85,-175.99 -21.55,-82.62 -43.08,-201.17 -28.71,-301.75 14.37,-100.58 64.64,-183.18 125.7,-247.84 61.07,-64.66 132.91,-111.36 210.13,-136.5 77.25,-25.15 159.85,-28.74 237.07,-26.93 77.24,1.78 149.09,8.97 215.53,48.48 66.47,39.52 127.51,111.36 165.22,170.64 37.73,59.26 52.1,105.96 59.28,129.32 7.19,23.34 7.19,23.34 55.67,8.97 48.5,-14.37 145.49,-43.1 249.67,-55.66 104.17,-12.59 215.51,-9 321.47,30.52 105.98,39.51 206.54,114.92 265.79,211.91 59.29,96.99 77.25,215.51 73.66,332.27 -3.59,116.74 -28.74,231.69 -75.44,312.52 -46.7,80.82 -114.93,127.49 -199.35,159.82 -84.41,32.33 -184.99,50.29 -256.84,62.88 -71.84,12.56 -114.92,19.74 -145.47,35.92 -30.52,16.15 -48.48,41.3 -79.03,127.51 -30.52,86.21 -73.63,233.47 -154.46,545.99 -80.81,312.5 -199.33,790.24 -267.59,1047.07 -68.25,256.83 -86.21,292.75 -55.69,359.22 30.55,66.45 109.55,163.41 159.84,246.03 50.3,82.62 71.85,150.85 80.82,249.65 8.99,98.77 5.4,228.09 -14.37,339.45 -19.75,111.36 -55.64,204.73 -120.3,278.39 -64.66,73.62 -158.06,127.51 -271.23,141.88 -113.14,14.36 -246.03,-10.78 -359.2,-55.67 -113.14,-44.92 -206.51,-109.58 -258.61,-165.24 -52.08,-55.69 -62.85,-102.39 -68.25,-125.73 -5.38,-23.36 -5.38,-23.36 -34.12,-3.59 -28.73,19.74 -86.21,59.26 -154.46,82.62 -68.25,23.34 -147.26,30.52 -238.87,6.28 -91.62,-24.24 -195.79,-79.91 -268.54,-143.67 -72.75,-63.75 -114.07,-135.6 -137.41,-217.31 -23.33,-81.72 -28.69,-173.33 -18.81,-253.24 9.89,-79.93 35.04,-148.19 83.52,-212.85 48.51,-64.66 120.33,-125.72 215.51,-183.2 95.21,-57.47 213.73,-111.33 290.95,-163.41 77.24,-52.1 113.16,-102.39 143.68,-168.83 30.55,-66.47 55.7,-149.07 105.99,-332.25z"/>
    <path class="fil2" d="M9405.53 18954.63c108.86,0.06 277.11,-1.21 444.27,5.29 167.18,6.51 333.29,20.78 422.28,26.29 89.01,5.5 100.92,2.24 119.13,-20.89 18.21,-23.13 42.72,-66.12 65.16,-101.08 22.44,-34.95 42.81,-61.88 64.27,-84.83 21.46,-22.95 44,-41.92 86.4,-66.34 42.4,-24.42 104.65,-54.26 162.42,-61.54 57.76,-7.28 111.02,8 155.99,31.96 44.98,23.97 81.67,56.6 107.25,95.48 25.59,38.88 40.08,83.99 50.76,126.94 10.71,42.96 17.61,83.75 5.83,126.45 -11.78,42.72 -42.25,87.33 -69.3,117.14 -27.04,29.82 -50.68,44.83 -62.5,52.34 -11.81,7.5 -11.81,7.5 3.47,32.12 15.28,24.64 45.84,73.89 68.55,129.56 22.72,55.67 37.59,117.75 31.79,182.29 -5.8,64.55 -32.26,131.54 -76.89,178.97 -44.63,47.44 -107.42,75.31 -172.49,91 -65.06,15.68 -132.39,19.18 -184.14,5.61 -51.73,-13.58 -87.85,-44.22 -118.5,-85.99 -30.64,-41.76 -55.79,-94.63 -73.62,-132.43 -17.81,-37.8 -28.31,-60.53 -41.87,-74.96 -13.55,-14.42 -30.16,-20.55 -82.43,-24.38 -52.27,-3.82 -140.18,-5.35 -325.14,-2.73 -184.94,2.64 -466.91,9.44 -619.18,10.59 -152.27,1.15 -174.84,-3.34 -206.96,23.59 -32.1,26.94 -73.73,85.28 -111.78,125.58 -38.05,40.3 -72.5,62.54 -125.74,82.45 -53.23,19.92 -125.25,37.51 -189.78,43.43 -64.54,5.95 -121.57,0.24 -172.07,-24.35 -50.47,-24.59 -94.39,-68.05 -119.46,-128.42 -25.06,-60.36 -31.28,-137.61 -23.6,-206.95 7.7,-69.32 29.3,-130.72 52.18,-167.94 22.9,-37.2 47.08,-50.23 59.16,-56.75 12.1,-6.5 12.1,-6.5 -3.18,-19.39 -15.26,-12.9 -45.8,-38.68 -69.04,-72.87 -23.23,-34.18 -39.16,-76.76 -39.62,-131.06 -0.47,-54.3 14.53,-120.3 38.75,-170.16 24.23,-49.85 57.68,-83.57 99.31,-108.83 41.63,-25.27 91.45,-42.09 137.11,-48.73 45.67,-6.63 87.2,-3.06 130.27,13.95 43.08,17.02 87.7,47.47 133.87,91.37 46.18,43.92 93.88,101.27 134.35,136.07 40.48,34.8 73.71,47.05 115.06,53.86 41.35,6.82 90.81,8.22 199.66,8.29z"/>
    <path class="fil2" d="M11764.89 18810.24c-174.79,-100.66 -446.21,-254.03 -708.69,-418.87 -262.5,-164.88 -516.12,-341.23 -653.97,-432.28 -137.89,-91.05 -160.03,-96.82 -210.63,-76.47 -50.62,20.31 -129.7,66.72 -198.03,102.16 -68.33,35.4 -125.92,59.83 -181.58,76.87 -55.67,17.04 -109.39,26.7 -200.05,26.76 -90.65,0.05 -218.21,-9.53 -317.71,-51.19 -99.51,-41.66 -170.93,-115.39 -221.04,-195.43 -50.11,-80.03 -78.88,-166.34 -84.07,-252.4 -5.18,-86.1 13.21,-171.92 35.72,-250.78 22.49,-78.89 49.08,-150.79 107.45,-208.49 58.37,-57.73 148.51,-101.24 219.51,-124.13 70.97,-22.93 122.8,-25.2 148.72,-26.34 25.9,-1.14 25.9,-1.14 24.1,-54.8 -1.79,-53.68 -5.38,-161.02 9.57,-271.42 14.92,-110.4 48.38,-223.83 117.32,-322.14 68.94,-98.33 173.31,-181.48 288.81,-216.44 115.51,-34.98 242.09,-21.74 361.09,13.17 118.99,34.91 230.37,91.48 300.94,161.08 70.55,69.59 100.27,152.17 110.91,247.57 10.65,95.37 2.21,203.52 -4.07,280.7 -6.31,77.18 -10.45,123.37 -1.99,159.08 8.43,35.68 29.47,60.86 109.88,115.29 80.42,54.42 220.2,138.08 519.7,304.71 299.48,166.59 758.66,416.11 1004.3,554.92 245.64,138.8 277.74,166.86 354.2,153.27 76.44,-13.62 197.19,-68.86 295.53,-98.45 98.34,-29.58 174.21,-33.48 278.12,-16.28 103.89,17.18 235.81,55.45 344.94,105.54 109.14,50.06 195.48,111.91 253.87,198.04 58.36,86.13 88.75,196.5 73.25,316.62 -15.49,120.09 -76.86,249.91 -153.24,354.18 -76.4,104.25 -167.81,182.9 -238.94,221.54 -71.14,38.62 -122.01,37.2 -147.43,36.51 -25.44,-0.72 -25.44,-0.72 -12.81,34.09 12.6,34.81 37.83,104.43 43.59,180.81 5.72,76.36 -8.02,159.46 -57.42,247.11 -49.41,87.65 -134.46,179.8 -219.42,237.5 -84.96,57.7 -169.83,80.95 -260.03,83.08 -90.21,2.13 -185.77,-16.87 -265.23,-48.38 -79.49,-31.54 -142.89,-75.63 -196.36,-142.74 -53.47,-67.13 -97.01,-157.25 -130.62,-270.42 -33.6,-113.19 -57.24,-249.36 -90.1,-342.63 -32.88,-93.3 -74.95,-143.66 -135.05,-192.78 -60.13,-49.16 -138.27,-97.09 -313.04,-197.74z"/>
    <path class="fil2" d="M8505.71 14615.07c64.03,-59.9 162.23,-153.28 264.07,-241.49 101.86,-88.21 207.36,-171.28 262.7,-217.04 55.36,-45.77 60.56,-54.24 58.53,-77.86 -2.03,-23.62 -11.29,-62.39 -17.35,-95.3 -6.05,-32.9 -8.9,-59.94 -8.92,-85.24 -0.02,-25.31 2.78,-48.87 14.26,-86.57 11.48,-37.69 31.65,-89.51 61.6,-125.59 29.94,-36.09 69.66,-56.42 109.29,-67.1 39.64,-10.68 79.17,-11.69 115.61,-2.92 36.45,8.77 69.8,27.31 99.73,46.67 29.94,19.36 56.46,39.54 73.05,71.13 16.59,31.59 23.24,74.59 23.75,107.01 0.52,32.42 -5.11,54.25 -7.93,65.17 -2.81,10.92 -2.81,10.92 19.73,16.98 22.54,6.06 67.63,18.19 111.63,38.41 44,20.22 86.92,48.52 119.04,89.66 32.13,41.13 53.46,95.08 53.34,147.53 -0.12,52.47 -21.68,103.41 -51.3,148.46 -29.61,45.04 -67.26,84.17 -105.15,104.67 -37.89,20.5 -75.99,22.38 -117,14.7 -41,-7.68 -84.9,-24.91 -116.19,-37.31 -31.28,-12.42 -49.96,-20 -65.88,-21.02 -15.91,-1.02 -29.04,4.53 -61.88,31.06 -32.83,26.53 -85.35,74.02 -192.63,177.4 -107.26,103.37 -269.26,262.61 -358.14,347.12 -88.88,84.51 -104.62,94.3 -108.67,127.81 -4.04,33.51 3.61,90.72 3.43,135.36 -0.18,44.64 -8.19,76.67 -28.52,117.69 -20.33,41.02 -52.98,91 -87.65,130.02 -34.66,39.02 -71.33,67.07 -114.55,80.41 -43.21,13.34 -92.96,11.97 -140.93,-9.72 -47.96,-21.68 -94.15,-63.66 -127.81,-108.65 -33.64,-44.99 -54.74,-92.97 -61.78,-127.45 -7.03,-34.48 0.01,-55.45 3.53,-65.93 3.53,-10.48 3.53,-10.48 -12.55,-9.65 -16.07,0.82 -48.22,2.48 -80.7,-4.82 -32.48,-7.31 -65.28,-23.57 -95.45,-55.23 -30.17,-31.66 -57.69,-78.72 -70.9,-121.36 -13.21,-42.64 -12.1,-80.88 -1.54,-118.65 10.56,-37.77 30.58,-75.09 53.77,-104.13 23.2,-29.04 49.57,-49.81 84.26,-63.52 34.69,-13.72 77.68,-20.38 129,-19.99 51.32,0.39 110.93,7.84 153.88,6.01 42.96,-1.83 69.23,-12.93 97.29,-31.68 28.06,-18.76 57.9,-45.17 121.93,-105.05z"/>
    <path class="fil2" d="M10479.92 13145.22c29.44,-107.26 73.6,-273.42 125.12,-436.39 51.53,-162.99 110.42,-322.83 139.87,-409.05 29.44,-86.23 29.44,-98.85 11.56,-123.03 -17.87,-24.19 -53.63,-59.95 -82.03,-91.49 -28.38,-31.55 -49.42,-58.89 -66.24,-86.23 -16.83,-27.35 -29.45,-54.67 -42.06,-103.05 -12.62,-48.37 -25.23,-117.77 -16.82,-176.66 8.42,-58.89 37.85,-107.25 73.6,-145.11 35.76,-37.86 77.82,-65.2 123.03,-79.92 45.23,-14.72 93.59,-16.83 138.8,-15.77 45.22,1.05 87.29,5.25 126.19,28.39 38.91,23.13 74.65,65.2 96.73,99.91 22.09,34.69 30.5,62.03 34.71,75.71 4.21,13.67 4.21,13.67 32.59,5.25 28.4,-8.41 85.19,-25.24 146.18,-32.59 60.99,-7.37 126.18,-5.26 188.21,17.87 62.06,23.14 120.93,67.29 155.63,124.07 34.71,56.79 45.22,126.18 43.12,194.54 -2.1,68.35 -16.83,135.65 -44.17,182.98 -27.34,47.31 -67.29,74.64 -116.72,93.57 -49.42,18.93 -108.31,29.44 -150.37,36.81 -42.06,7.36 -67.29,11.56 -85.17,21.03 -17.87,9.46 -28.39,24.18 -46.27,74.66 -17.87,50.48 -43.11,136.69 -90.44,319.67 -47.31,182.96 -116.7,462.67 -156.66,613.04 -39.96,150.37 -50.48,171.41 -32.61,210.32 17.88,38.9 64.14,95.67 93.58,144.05 29.45,48.37 42.07,88.32 47.32,146.16 5.26,57.83 3.16,133.55 -8.41,198.75 -11.56,65.2 -32.58,119.86 -70.44,162.99 -37.86,43.1 -92.54,74.65 -158.8,83.06 -66.24,8.42 -144.04,-6.3 -210.3,-32.59 -66.24,-26.29 -120.91,-64.15 -151.42,-96.74 -30.49,-32.61 -36.79,-59.95 -39.96,-73.62 -3.14,-13.67 -3.14,-13.67 -19.97,-2.1 -16.83,11.56 -50.48,34.7 -90.44,48.37 -39.96,13.67 -86.21,17.87 -139.85,3.68 -53.64,-14.19 -114.63,-46.78 -157.23,-84.11 -42.59,-37.33 -66.78,-79.39 -80.45,-127.24 -13.66,-47.84 -16.79,-101.48 -11.01,-148.26 5.79,-46.8 20.51,-86.76 48.9,-124.62 28.4,-37.86 70.45,-73.61 126.18,-107.26 55.74,-33.66 125.13,-65.19 170.34,-95.68 45.23,-30.5 66.26,-59.95 84.13,-98.85 17.88,-38.91 32.6,-87.27 62.05,-194.52z"/>
    <path class="fil2" d="M12818.73 9687.51c-32.74,-27.48 -83.7,-69.54 -132.37,-113.66 -48.67,-44.13 -95.07,-90.33 -120.46,-114.43 -25.4,-24.11 -29.81,-26.13 -41.13,-23.76 -11.31,2.36 -29.53,9.12 -45.1,13.98 -15.57,4.86 -28.5,7.82 -40.74,9.32 -12.25,1.49 -23.82,1.52 -42.74,-1.83 -18.92,-3.35 -45.18,-10.07 -64.41,-22.45 -19.22,-12.38 -31.39,-30.41 -38.88,-48.97 -7.5,-18.55 -10.3,-37.63 -8.2,-55.78 2.11,-18.16 9.13,-35.39 16.74,-51.01 7.62,-15.63 15.83,-29.65 30.15,-39.53 14.32,-9.89 34.74,-15.63 50.4,-17.78 15.66,-2.15 26.56,-0.71 32.02,0.02 5.44,0.72 5.44,0.72 7.05,-10.54 1.62,-11.27 4.84,-33.81 12.05,-56.29 7.21,-22.49 18.39,-44.92 36.42,-62.88 18.03,-17.97 42.89,-31.45 68.28,-34.47 25.4,-3.02 51.33,4.43 74.87,16.12 23.54,11.69 44.68,27.63 56.83,44.76 12.15,17.14 15.29,35.47 13.98,55.77 -1.31,20.3 -7.08,42.56 -11.25,58.43 -4.17,15.87 -6.75,25.36 -6.31,33.12 0.44,7.76 3.9,13.79 18.66,28.13 14.77,14.34 40.84,36.97 97.17,82.84 56.32,45.86 142.9,114.93 189.02,153 46.12,38.06 51.78,45.11 68.24,45.1 16.46,-0.01 43.7,-7.07 65.32,-9.6 21.62,-2.53 37.59,-0.53 58.64,6.91 21.05,7.43 47.16,20.3 68.07,34.8 20.93,14.49 36.65,30.59 45.65,50.73 8.99,20.13 11.24,44.29 3.56,68.78 -7.68,24.49 -25.3,49.31 -45.1,68.24 -19.81,18.92 -41.79,31.95 -58.07,37.38 -16.27,5.42 -26.84,3.24 -32.12,2.16 -5.28,-1.1 -5.28,-1.1 -3.93,6.64 1.34,7.73 4.02,23.19 2.4,39.34 -1.64,16.15 -7.58,32.98 -21.14,49.44 -13.55,16.46 -34.72,32.54 -54.58,41.44 -19.87,8.89 -38.44,10.6 -57.34,7.7 -18.91,-2.89 -38.15,-10.4 -53.56,-19.92 -15.42,-9.52 -27.02,-21.07 -35.69,-37.05 -8.67,-15.99 -14.42,-36.41 -17.24,-61.27 -2.82,-24.87 -2.71,-54.16 -6.11,-74.84 -3.41,-20.69 -10.32,-32.76 -21.05,-45.24 -10.72,-12.48 -25.25,-25.38 -58,-52.85z"/>
    <path class="fil2" d="M19645.08 19595.15c53.23,1.19 135.51,2.35 217.18,7.31 81.68,4.96 162.74,13.7 206.2,17.33 43.47,3.64 49.33,2.17 58.47,-8.95 9.16,-11.11 21.6,-31.87 32.94,-48.73 11.34,-16.85 21.59,-29.8 32.33,-40.79 10.73,-11 21.95,-20.04 42.94,-31.52 21,-11.49 51.75,-25.42 80.08,-28.37 28.32,-2.95 54.2,5.09 75.93,17.28 21.74,12.2 39.33,28.55 51.43,47.83 12.1,19.28 18.7,41.49 23.47,62.61 4.78,21.12 7.72,41.14 1.51,61.89 -6.21,20.76 -21.58,42.25 -35.13,56.54 -13.54,14.3 -25.25,21.38 -31.12,24.93 -5.85,3.54 -5.85,3.54 1.36,15.74 7.21,12.21 21.63,36.62 32.14,64.08 10.52,27.46 17.13,57.97 13.61,89.47 -3.52,31.5 -17.17,63.98 -39.5,86.7 -22.32,22.72 -53.32,35.68 -85.3,42.66 -31.98,6.98 -64.94,7.97 -90.1,0.79 -25.15,-7.19 -42.49,-22.56 -57.03,-43.31 -14.54,-20.74 -26.28,-46.86 -34.59,-65.53 -8.31,-18.68 -13.2,-29.9 -19.68,-37.1 -6.47,-7.2 -14.53,-10.37 -40.05,-12.8 -25.51,-2.42 -68.48,-4.1 -158.95,-4.78 -90.46,-0.68 -228.4,-0.35 -302.87,-1.4 -74.47,-1.05 -85.46,-3.49 -101.45,9.34 -15.98,12.83 -36.96,40.91 -55.99,60.21 -19.03,19.3 -36.11,29.81 -62.36,38.98 -26.24,9.18 -61.64,17.01 -93.26,19.23 -31.62,2.22 -59.44,-1.18 -83.87,-13.74 -24.42,-12.56 -45.44,-34.28 -57.05,-64.06 -11.62,-29.78 -13.84,-67.62 -9.34,-101.44 4.5,-33.82 15.71,-63.61 27.29,-81.56 11.6,-17.96 23.56,-24.07 29.53,-27.13 5.99,-3.05 5.99,-3.05 -1.35,-9.51 -7.32,-6.47 -21.98,-19.4 -32.98,-36.37 -11,-16.96 -18.33,-37.95 -17.98,-64.5 0.34,-26.56 8.38,-58.67 20.75,-82.79 12.38,-24.12 29.09,-40.25 49.72,-52.16 20.62,-11.92 45.16,-19.61 67.56,-22.37 22.4,-2.76 42.67,-0.57 63.55,8.2 20.88,8.78 42.38,24.14 64.49,46.1 22.11,21.97 44.82,50.52 64.24,67.96 19.43,17.45 35.55,23.79 55.69,27.56 20.15,3.77 44.32,4.98 97.54,6.17z"/>
    <path class="fil2" d="M10414.01 15068.32c73.82,-21.09 187.64,-54.61 302.24,-82.64 114.6,-28.04 229.99,-50.6 291.39,-64.14 61.42,-13.55 68.86,-18.07 76.71,-37.29 7.87,-19.21 16.14,-53.12 24.56,-81.18 8.43,-28.05 17.02,-50.26 27.11,-69.98 10.1,-19.73 21.69,-36.97 45.7,-61.75 24.01,-24.78 60.42,-57.1 98.17,-73.25 37.75,-16.15 76.82,-16.12 111.97,-8.61 35.14,7.52 66.35,22.53 91.24,43.92 24.9,21.39 43.47,49.16 59.06,76.21 15.59,27.04 28.19,53.36 28.49,84.6 0.31,31.25 -11.69,67.4 -24.25,92.87 -12.54,25.47 -25.65,40.23 -32.21,47.61 -6.55,7.38 -6.55,7.38 8.58,21.11 15.15,13.73 45.43,41.19 71.63,74.53 26.21,33.33 48.34,72.53 56.93,117.42 8.6,44.89 3.67,95.44 -17.39,136.26 -21.05,40.83 -58.21,71.91 -99.28,95.17 -41.06,23.26 -86.04,38.71 -123.75,39.55 -37.71,0.83 -68.15,-12.93 -97.03,-35.3 -28.88,-22.36 -56.2,-53.33 -75.62,-75.49 -19.42,-22.18 -30.94,-35.55 -42.94,-42.7 -11.98,-7.15 -24.44,-8.07 -60.62,-0.53 -36.17,7.56 -96.07,23.58 -220.96,61.26 -124.87,37.68 -314.72,97.03 -417.74,127.36 -103.01,30.34 -119.19,31.68 -135.73,56.17 -16.54,24.49 -33.44,72.13 -51.41,106.83 -17.98,34.71 -37.01,56.47 -69.25,80.31 -32.22,23.83 -77.63,49.74 -120.23,66.28 -42.6,16.56 -82.38,23.76 -121.39,16.89 -38.99,-6.88 -77.2,-27.82 -105.92,-63.88 -28.71,-36.06 -47.91,-87.22 -56.16,-135.73 -8.24,-48.49 -5.51,-94.31 2.78,-123.98 8.3,-29.67 22.16,-43.2 29.09,-49.96 6.94,-6.76 6.94,-6.76 -5.92,-12.53 -12.85,-5.78 -38.56,-17.34 -60.95,-36 -22.39,-18.67 -41.45,-44.45 -52.31,-81.17 -10.85,-36.73 -13.5,-84.38 -6.75,-122.89 6.75,-38.5 22.89,-67.85 46.21,-93.06 23.32,-25.21 53.83,-46.28 83.49,-59.65 29.68,-13.36 58.53,-19 91.04,-15.83 32.5,3.18 68.67,15.17 108.49,35.97 39.83,20.81 83.3,50.44 117.5,66.17 34.2,15.74 59.1,17.59 88.46,14.19 29.36,-3.41 63.16,-12.06 136.97,-33.14z"/>
    <path class="fil2" d="M12397 17019.23c-24.49,-42.65 -62.88,-108.25 -97.98,-175.18 -35.09,-66.94 -66.91,-135.2 -84.8,-171.29 -17.89,-36.1 -21.85,-40.03 -35.01,-41.95 -13.16,-1.93 -35.51,-1.84 -54.26,-2.76 -18.74,-0.91 -33.87,-2.83 -47.69,-6.06 -13.82,-3.24 -26.33,-7.79 -45.44,-18.9 -19.11,-11.1 -44.81,-28.76 -60.67,-49.75 -15.86,-20.98 -21.87,-45.27 -22.62,-68.28 -0.74,-23.02 3.78,-44.73 13.24,-63.51 9.47,-18.77 23.87,-34.6 38.28,-48.46 14.41,-13.87 28.84,-25.76 48.21,-30.76 19.38,-5.01 43.71,-3.12 61.48,0.76 17.77,3.87 28.97,9.75 34.57,12.69 5.6,2.93 5.6,2.93 11.8,-8.6 6.21,-11.53 18.61,-34.59 35.3,-56.02 16.69,-21.43 37.65,-41.24 64.23,-53.5 26.59,-12.27 58.78,-16.99 87.41,-10.19 28.63,6.79 53.68,25.1 74.48,47.06 20.79,21.94 37.32,47.52 43.66,70.85 6.33,23.31 2.47,44.36 -6.99,65.77 -9.45,21.4 -24.49,43.16 -35.28,58.65 -10.79,15.49 -17.33,24.72 -19.93,33.28 -2.59,8.55 -1.25,16.44 9.02,37.77 10.28,21.33 29.47,56.1 72.15,127.95 42.68,71.83 108.85,180.72 143.59,240.1 34.74,59.37 38.07,69.22 55.85,75.73 17.77,6.51 50,9.67 74.35,15.5 24.35,5.82 40.81,14.31 60.6,30.67 19.79,16.36 42.9,40.6 59.75,64.54 16.86,23.94 27.47,47.56 29.21,72.87 1.74,25.31 -5.39,52.29 -23.39,75.71 -17.99,23.41 -46.84,43.24 -75.73,55.84 -28.88,12.6 -57.79,17.97 -77.51,17.39 -19.73,-0.59 -30.28,-7.13 -35.55,-10.39 -5.27,-3.27 -5.27,-3.27 -6.88,5.61 -1.61,8.88 -4.84,26.65 -12.99,43.45 -8.16,16.8 -21.24,32.62 -42.4,45.03 -21.16,12.42 -50.39,21.41 -75.37,23.15 -24.98,1.74 -45.71,-3.77 -64.98,-14.39 -19.27,-10.61 -37.08,-26.33 -49.96,-42.72 -12.88,-16.39 -20.84,-33.46 -23.88,-54.16 -3.03,-20.7 -1.16,-45.03 5.64,-73 6.8,-27.97 18.52,-59.57 23.03,-83.25 4.51,-23.7 1.82,-39.47 -4.82,-57.19 -6.64,-17.74 -17.23,-37.42 -41.72,-80.06z"/>
    <path class="fil2" d="M14410.87 17830.29c-44.23,-100.51 -113.85,-255.29 -175.85,-412.23 -61.99,-156.96 -116.39,-316.08 -147.51,-400.47 -31.13,-84.39 -38.99,-94.06 -67.75,-101.45 -28.75,-7.41 -78.4,-12.54 -119.8,-19.03 -41.39,-6.5 -74.53,-14.35 -104.44,-24.82 -29.91,-10.47 -56.6,-23.55 -96.38,-52.76 -39.79,-29.2 -92.66,-74.53 -122.88,-124.88 -30.22,-50.35 -37.78,-105.73 -33.95,-156.99 3.82,-51.27 19.02,-98.4 44.49,-137.83 25.49,-39.44 61.23,-71.16 96.52,-98.5 35.3,-27.35 70.15,-50.32 114.35,-56.82 44.22,-6.5 97.79,3.47 136.32,16.32 38.52,12.83 61.99,28.54 73.73,36.4 11.73,7.85 11.73,7.85 28.24,-16.27 16.52,-24.13 49.55,-72.37 91.7,-115.98 42.14,-43.62 93.39,-82.59 155.32,-103.49 61.95,-20.91 134.54,-23.74 196.48,-1.84 61.95,21.9 113.2,68.51 154.16,122.19 40.94,53.68 71.56,114.4 80.08,167.69 8.51,53.27 -5.08,99.08 -31.16,144.36 -26.08,45.26 -64.65,89.99 -92.29,121.82 -27.65,31.82 -44.35,50.75 -52.16,69.14 -7.8,18.37 -6.69,36.2 11.04,86.01 17.73,49.79 52.07,131.56 129.74,301.21 77.66,169.63 198.65,427.13 261.65,567.21 63.01,140.09 68.05,162.75 105.97,181.44 37.92,18.67 108.71,33.36 161.38,52.09 52.68,18.73 87.22,41.48 127.25,82.52 40.04,41.03 85.57,100.35 117.3,157.5 31.73,57.15 49.67,112.12 47.51,168.73 -2.16,56.6 -24.41,114.81 -69.94,162.51 -45.51,47.69 -114.28,84.85 -181.41,105.97 -67.12,21.09 -132.58,26.13 -176.24,20.15 -43.66,-6 -65.52,-23.02 -76.45,-31.52 -10.92,-8.52 -10.92,-8.52 -16.61,10.83 -5.69,19.33 -17.07,58 -39.17,93.36 -22.1,35.35 -54.92,67.37 -104.85,89.89 -49.93,22.53 -116.95,35.53 -172.83,33.45 -55.87,-2.08 -100.59,-19.24 -140.85,-47.39 -40.26,-28.15 -76.05,-67.29 -100.75,-106.73 -24.7,-39.47 -38.3,-79.25 -40.12,-125.92 -1.82,-46.69 8.14,-100.26 29.88,-160.74 21.76,-60.49 55.28,-127.85 70.94,-179.35 15.66,-51.53 13.44,-87.18 2.91,-128.11 -10.53,-40.95 -29.36,-87.17 -73.57,-187.67z"/>
    <path class="fil2" d="M15802.63 19204c20.32,-74.03 50.8,-188.71 86.36,-301.2 35.57,-112.49 76.21,-222.82 96.54,-282.32 20.32,-59.52 20.32,-68.23 7.98,-84.92 -12.34,-16.7 -37.02,-41.38 -56.62,-63.15 -19.59,-21.77 -34.11,-40.65 -45.72,-59.52 -11.61,-18.87 -20.32,-37.73 -29.03,-71.12 -8.71,-33.38 -17.41,-81.29 -11.6,-121.93 5.8,-40.65 26.11,-74.02 50.79,-100.15 24.68,-26.13 53.71,-45 84.92,-55.17 31.21,-10.16 64.59,-11.61 95.79,-10.88 31.22,0.72 60.25,3.63 87.1,19.59 26.86,15.97 51.53,45 66.77,68.96 15.24,23.95 21.05,42.82 23.95,52.26 2.91,9.43 2.91,9.43 22.5,3.62 19.6,-5.8 58.79,-17.42 100.89,-22.49 42.1,-5.09 87.09,-3.64 129.91,12.33 42.82,15.97 83.46,46.44 107.41,85.64 23.95,39.19 31.21,87.09 29.76,134.27 -1.45,47.17 -11.61,93.62 -30.48,126.29 -18.88,32.66 -46.45,51.52 -80.56,64.58 -34.11,13.07 -74.76,20.32 -103.79,25.41 -29.03,5.08 -46.44,7.98 -58.79,14.52 -12.33,6.52 -19.59,16.68 -31.93,51.52 -12.34,34.84 -29.76,94.35 -62.42,220.64 -32.66,126.28 -80.55,319.34 -108.13,423.12 -27.58,103.79 -34.84,118.31 -22.51,145.17 12.35,26.85 44.27,66.03 64.59,99.42 20.33,33.38 29.04,60.95 32.66,100.88 3.63,39.91 2.18,92.17 -5.81,137.17 -7.97,45 -22.48,82.73 -48.61,112.5 -26.13,29.75 -63.87,51.53 -109.6,57.33 -45.72,5.81 -99.42,-4.35 -145.15,-22.49 -45.73,-18.15 -83.46,-44.28 -104.51,-66.78 -21.05,-22.5 -25.4,-41.37 -27.58,-50.8 -2.17,-9.44 -2.17,-9.44 -13.79,-1.46 -11.61,7.98 -34.84,23.95 -62.42,33.39 -27.58,9.43 -59.5,12.34 -96.53,2.54 -37.02,-9.8 -79.11,-32.29 -108.51,-58.06 -29.4,-25.76 -46.1,-54.79 -55.53,-87.81 -9.43,-33.03 -11.59,-70.05 -7.6,-102.34 4,-32.3 14.16,-59.88 33.75,-86.01 19.6,-26.13 48.62,-50.81 87.09,-74.03 38.47,-23.23 86.36,-44.99 117.57,-66.04 31.21,-21.05 45.73,-41.37 58.06,-68.22 12.35,-26.86 22.51,-60.24 42.83,-134.26z"/>
    <path class="fil2" d="M12171.96 13025.12c45.22,-13.36 114.93,-34.59 185.14,-52.46 70.23,-17.86 140.96,-32.37 178.59,-41.03 37.64,-8.67 42.19,-11.49 46.9,-23.33 4.72,-11.85 9.61,-32.71 14.62,-49.99 5.02,-17.28 10.17,-30.96 16.26,-43.13 6.09,-12.18 13.11,-22.83 27.71,-38.18 14.61,-15.36 36.79,-35.41 59.88,-45.54 23.09,-10.13 47.08,-10.34 68.71,-5.92 21.63,4.42 40.87,13.46 56.28,26.45 15.41,13 26.97,29.95 36.7,46.47 9.73,16.52 17.61,32.61 17.97,51.8 0.37,19.18 -6.79,41.46 -14.36,57.16 -7.56,15.71 -15.53,24.86 -19.52,29.43 -3.98,4.57 -3.98,4.57 5.4,12.91 9.37,8.35 28.12,25.04 44.4,45.37 16.29,20.32 30.1,44.27 35.63,71.78 5.53,27.52 2.79,58.59 -9.91,83.78 -12.7,25.19 -35.34,44.49 -60.43,59.01 -25.09,14.51 -52.62,24.25 -75.78,24.98 -23.15,0.73 -41.92,-7.55 -59.79,-21.13 -17.86,-13.57 -34.81,-32.43 -46.86,-45.93 -12.05,-13.51 -19.2,-21.65 -26.61,-25.98 -7.4,-4.32 -15.05,-4.82 -37.23,0.02 -22.17,4.84 -58.87,15.02 -135.35,38.87 -76.47,23.84 -192.73,61.36 -255.82,80.57 -63.09,19.21 -73.01,20.13 -83.04,35.26 -10.01,15.13 -20.12,44.48 -30.97,65.9 -10.84,21.41 -22.41,34.89 -42.07,49.7 -19.65,14.82 -47.39,30.99 -73.46,41.39 -26.07,10.41 -50.46,15.05 -74.45,11.05 -23.99,-4 -47.57,-16.64 -65.41,-38.63 -17.83,-21.98 -29.92,-53.29 -35.26,-83.03 -5.33,-29.73 -3.91,-57.89 1.01,-76.16 4.93,-18.26 13.37,-26.65 17.58,-30.84 4.23,-4.19 4.23,-4.19 -3.7,-7.66 -7.93,-3.48 -23.78,-10.43 -37.64,-21.77 -13.85,-11.34 -25.7,-27.06 -32.57,-49.55 -6.88,-22.49 -8.77,-51.74 -4.85,-75.42 3.93,-23.69 13.67,-41.8 27.85,-57.42 14.18,-15.61 32.8,-28.73 50.94,-37.1 18.16,-8.37 35.84,-12 55.82,-10.23 19.98,1.76 42.26,8.92 66.83,21.47 24.58,12.56 51.44,30.5 72.53,39.97 21.09,9.48 36.4,10.47 54.4,8.21 18.02,-2.25 38.72,-7.76 83.93,-21.12z"/>
    <path class="fil2" d="M14942.28 10819.09c-53.46,-109.52 -137.48,-278.13 -213.14,-449.45 -75.65,-171.35 -142.98,-345.44 -181.21,-437.66 -38.23,-92.23 -47.37,-102.61 -79.59,-109.54 -32.21,-6.95 -87.51,-10.46 -133.71,-15.84 -46.19,-5.38 -83.28,-12.64 -116.92,-22.93 -33.63,-10.3 -63.8,-23.64 -109.21,-54.27 -45.41,-30.64 -106.04,-78.59 -141.76,-133.11 -35.73,-54.51 -46.55,-115.59 -44.57,-172.62 1.99,-57.02 16.78,-109.97 43.29,-154.81 26.53,-44.86 64.77,-81.61 102.72,-113.48 37.94,-31.9 75.58,-58.9 124.32,-68.05 48.76,-9.16 108.61,-0.45 151.9,12.11 43.29,12.53 70.01,28.92 83.37,37.12 13.36,8.19 13.36,8.19 30.61,-19.28 17.26,-27.49 51.77,-82.45 96.6,-132.67 44.82,-50.22 99.94,-95.7 167.71,-121.6 67.78,-25.91 148.17,-32.24 217.82,-10.67 69.67,21.56 128.57,71 176.34,128.74 47.77,57.72 84.4,123.73 96.2,182.45 11.78,58.7 -1.28,110.1 -28.22,161.47 -26.93,51.35 -67.74,102.65 -96.99,139.17 -29.27,36.51 -46.96,58.23 -54.81,78.97 -7.85,20.72 -5.83,40.44 16.02,94.9 21.86,54.45 63.54,143.62 157.13,328.36 93.59,184.72 239.09,464.98 315.13,617.57 76.04,152.59 82.62,177.5 125.5,196.56 42.87,19.04 122.02,32.23 181.27,50.68 59.24,18.45 98.55,42.16 144.76,85.93 46.21,43.74 99.31,107.52 137.01,169.52 37.71,61.99 60.01,122.16 60.11,185.04 0.09,62.86 -22.03,128.4 -70.42,183.3 -48.38,54.9 -123.02,99.13 -196.54,125.5 -73.52,26.35 -145.89,34.81 -194.57,30.1 -48.69,-4.73 -73.68,-22.65 -86.17,-31.59 -12.5,-8.97 -12.5,-8.97 -17.95,12.73 -5.46,21.69 -16.38,65.09 -39.34,105.27 -22.96,40.18 -57.95,77.14 -112.34,104.31 -54.38,27.17 -128.14,44.54 -190.2,44.69 -62.06,0.15 -112.41,-16.92 -158.3,-46.36 -45.88,-29.45 -87.3,-71.29 -116.43,-113.95 -29.13,-42.68 -45.96,-86.2 -50.03,-137.89 -4.06,-51.7 4.62,-111.55 26.08,-179.58 21.46,-68.04 55.69,-144.22 70.79,-202.03 15.1,-57.84 11.07,-97.28 -2.41,-142.21 -13.48,-44.95 -36.39,-95.38 -89.85,-204.9z"/>
    <path class="fil2" d="M16471.54 13046.69c-67.57,-43.7 -172.54,-110.39 -273.71,-181.46 -101.19,-71.09 -198.59,-146.56 -251.64,-185.67 -53.05,-39.11 -61.76,-41.86 -82.34,-34.8 -20.58,7.05 -53.04,23.91 -80.99,36.62 -27.95,12.7 -51.39,21.25 -73.92,26.89 -22.53,5.64 -44.13,8.39 -80.24,6.54 -36.12,-1.84 -86.74,-8.28 -125.52,-26.93 -38.79,-18.64 -65.72,-49.48 -84.04,-82.4 -18.31,-32.92 -28,-67.89 -28.3,-102.28 -0.29,-34.41 8.81,-68.22 19.4,-99.17 10.58,-30.97 22.65,-59.07 47.09,-80.85 24.44,-21.8 61.25,-37.28 90,-44.94 28.75,-7.67 49.45,-7.51 59.8,-7.43 10.34,0.08 10.34,0.08 10.73,-21.33 0.39,-21.42 1.16,-64.26 9.39,-107.93 8.22,-43.68 23.88,-88.18 53.37,-125.92 29.49,-37.76 72.78,-68.74 119.51,-80.29 46.74,-11.55 96.89,-3.68 143.58,12.68 46.69,16.36 89.9,41.19 116.58,70.37 26.67,29.17 36.81,62.68 39.08,100.9 2.28,38.22 -3.3,81.13 -7.39,111.75 -4.1,30.61 -6.7,48.93 -4.07,63.33 2.63,14.39 10.49,24.85 41.4,48.19 30.92,23.34 84.88,59.54 200.77,132.09 115.88,72.53 293.67,181.38 388.67,241.74 95,60.35 107.22,72.19 137.96,68.35 30.73,-3.85 79.97,-23.38 119.76,-33.14 39.78,-9.76 70.09,-9.75 111.13,-0.76 41.04,8.98 92.8,26.94 135.25,49.14 42.44,22.19 75.57,48.61 97.06,84.12 21.47,35.51 31.31,80.11 22.66,127.64 -8.64,47.53 -35.76,97.98 -68.34,137.95 -32.58,39.96 -70.61,69.41 -99.74,83.34 -29.14,13.92 -49.37,12.31 -59.49,11.51 -10.12,-0.81 -10.12,-0.81 -5.8,13.32 4.3,14.12 12.92,42.38 13.64,72.92 0.71,30.55 -6.47,63.37 -27.96,97.27 -21.49,33.9 -57.27,68.86 -92.3,90.1 -35.03,21.24 -69.32,28.75 -105.3,27.74 -35.98,-1.01 -73.66,-10.54 -104.67,-24.73 -31.02,-14.2 -55.37,-33.07 -75.29,-60.9 -19.92,-27.85 -35.41,-64.65 -46.47,-110.42 -11.05,-45.79 -17.67,-100.52 -28.84,-138.36 -11.18,-37.84 -26.9,-58.77 -49.84,-79.58 -22.94,-20.82 -53.08,-41.52 -120.63,-85.21z"/>
    <path class="fil2" d="M17090.01 10895.58c49.12,-19.18 124.8,-49.43 201.35,-75.99 76.57,-26.55 154.02,-49.41 195.13,-62.63 41.13,-13.22 45.92,-16.79 50.05,-30.44 4.14,-13.64 7.62,-37.36 11.57,-57.09 3.96,-19.72 8.4,-35.46 14.03,-49.6 5.63,-14.14 12.45,-26.68 27.27,-45.17 14.82,-18.49 37.64,-42.94 62.41,-56.41 24.78,-13.48 51.5,-15.98 76.01,-13.1 24.52,2.87 46.83,11.13 65.22,24.15 18.41,13.03 32.9,30.82 45.3,48.31 12.4,17.49 22.71,34.67 24.93,56.02 2.22,21.34 -3.65,46.84 -10.6,65.06 -6.94,18.22 -14.95,29.16 -18.96,34.64 -4,5.46 -4,5.46 7.23,13.88 11.24,8.41 33.72,25.24 53.78,46.35 20.07,21.1 37.73,46.48 46.5,76.62 8.77,30.14 8.65,65.03 -3.12,94.3 -11.76,29.28 -35.17,52.92 -61.76,71.48 -26.58,18.55 -56.34,32 -82.07,35.01 -25.73,3 -47.43,-4.45 -68.63,-17.89 -21.19,-13.43 -41.86,-32.84 -56.57,-46.75 -14.7,-13.91 -23.44,-22.31 -32.11,-26.43 -8.66,-4.12 -17.23,-3.95 -41.49,3.55 -24.25,7.49 -64.17,22.31 -147.15,56.12 -82.96,33.81 -208.96,86.62 -277.45,114 -68.48,27.38 -79.46,29.34 -89.19,47.15 -9.73,17.81 -18.22,51.48 -28.28,76.37 -10.05,24.89 -21.67,41 -42.18,59.37 -20.49,18.38 -49.88,39.01 -77.95,53.07 -28.06,14.07 -54.8,21.55 -81.91,19.37 -27.11,-2.19 -54.59,-14.05 -76.54,-36.86 -21.96,-22.81 -38.39,-56.56 -47.16,-89.19 -8.75,-32.63 -9.84,-64.14 -6.08,-84.96 3.76,-20.83 12.37,-30.97 16.67,-36.04 4.31,-5.07 4.31,-5.07 -4.85,-8.19 -9.16,-3.12 -27.48,-9.37 -44,-20.69 -16.51,-11.32 -31.2,-27.72 -40.99,-52.13 -9.79,-24.42 -14.67,-56.83 -12.54,-83.6 2.14,-26.76 11.28,-47.87 25.6,-66.61 14.32,-18.74 33.83,-35.12 53.26,-46.17 19.43,-11.05 38.79,-16.76 61.23,-16.69 22.43,0.08 47.93,5.95 76.5,17.61 28.58,11.66 60.22,29.12 84.61,37.68 24.4,8.56 41.55,8.22 61.4,4 19.86,-4.22 42.42,-12.31 91.53,-31.48z"/>
   </g>
  </g>
 </g>
</svg>
