<?xml version="1.0" encoding="UTF-8"?>
<!DOCTYPE svg PUBLIC "-//W3C//DTD SVG 1.1//EN" "http://www.w3.org/Graphics/SVG/1.1/DTD/svg11.dtd">
<!-- Creator: CorelDRAW 2018 (64-Bit) -->
<svg xmlns="http://www.w3.org/2000/svg" xml:space="preserve" width="210mm" height="297mm" version="1.1" style="shape-rendering:geometricPrecision; text-rendering:geometricPrecision; image-rendering:optimizeQuality; fill-rule:evenodd; clip-rule:evenodd"
viewBox="0 0 21000 29700"
 xmlns:xlink="http://www.w3.org/1999/xlink">
 <defs>
  <style type="text/css">
   <![CDATA[
    .fil1 {fill:none}
    .fil0 {fill:#FEFEFE}
    .fil4 {fill:#FEFEFE;fill-opacity:0.321569}
    .fil3 {fill:#FEFEFE;fill-opacity:0.321569}
    .fil2 {fill:url(#id0)}
   ]]>
  </style>
  <radialGradient id="id0" gradientUnits="userSpaceOnUse" gradientTransform="matrix(-0.00881938 -2.49222 2.50472 -0.00877537 -55967 52793)" cx="10437.15" cy="26548.14" r="64417.23" fx="10437.15" fy="26548.14">
   <stop offset="0" style="stop-opacity:1; stop-color:#F5F0A2"/>
   <stop offset="0.329412" style="stop-opacity:0.447059; stop-color:#F5F0A2"/>
   <stop offset="0.65098" style="stop-opacity:0.517647; stop-color:#95C671"/>
   <stop offset="1" style="stop-opacity:1; stop-color:#95C671"/>
  </radialGradient>
 </defs>
 <g id="Слой_x0020_1">
  <metadata id="CorelCorpID_0Corel-Layer"/>
  <g id="_2240821669792">
   <rect class="fil0" x="272.91" y="8929.26" width="20743.35" height="11668.14"/>
   <g>
    <rect class="fil1" x="272.91" y="8929.26" width="20743.35" height="11668.14"/>
    <rect class="fil2" x="272.91" y="8929.26" width="20743.35" height="11668.14"/>
    <g>
     <path class="fil3" d="M13066.15 14096.26c-20.23,-10.38 -44.26,-24.48 -67.2,-42.58 -22.94,-18.1 -44.78,-40.19 -62.04,-62.37 -17.26,-22.17 -29.93,-44.43 -38.93,-65.41 -9,-20.99 -14.33,-40.69 -16.11,-61.57 -1.79,-20.88 -0.03,-42.94 12.21,-65.07 12.25,-22.13 34.97,-44.34 65.04,-55.14 30.06,-10.8 67.46,-10.2 100.99,-2.34 33.53,7.86 63.19,22.97 91.16,43.26 27.97,20.28 54.26,45.74 76.1,70.78 21.84,25.04 39.23,49.67 50.66,79.37 11.44,29.7 16.93,64.47 9.35,94.05 -7.58,29.58 -28.22,53.97 -58.43,68.22 -30.2,14.25 -69.97,18.37 -98.06,17.1 -28.09,-1.27 -44.51,-7.92 -64.74,-18.3z"/>
     <path class="fil4" d="M13031.49 13535.11c14.59,26.01 36.42,59.9 60.61,89.08 24.19,29.17 50.75,53.63 82.95,70.25 32.2,16.61 70.04,25.38 98.87,22.02 28.82,-3.36 48.64,-18.85 64.41,-33.3 15.77,-14.46 27.5,-27.88 32.85,-56.19 5.36,-28.31 4.33,-71.52 -5.78,-109.98 -10.11,-38.46 -29.3,-72.17 -52.31,-103.7 -23.01,-31.53 -49.83,-60.89 -86.75,-79.88 -36.91,-18.98 -83.92,-27.58 -116.24,-25.18 -32.32,2.4 -49.95,15.81 -64.65,30.29 -14.71,14.48 -26.49,30.03 -33.22,52.6 -6.73,22.57 -8.41,52.16 -5.56,76.01 2.85,23.86 10.22,41.98 24.82,67.98z"/>
     <path class="fil4" d="M13386.71 13325.9c7.31,23.2 19.07,52.72 33.82,80.11 14.76,27.39 32.51,52.65 58.62,74.84 26.11,22.19 60.58,41.3 93.25,45.44 32.67,4.13 63.55,-6.71 87.27,-25.69 23.72,-18.99 40.28,-46.1 47.87,-78.63 7.58,-32.53 6.19,-70.48 -2.88,-110.8 -9.06,-40.31 -25.78,-83 -47.16,-117.58 -21.37,-34.57 -47.38,-61.02 -75.4,-79.17 -28.02,-18.16 -58.05,-28.01 -85.83,-26.5 -27.78,1.5 -53.31,14.35 -71.9,31.25 -18.59,16.9 -30.24,37.85 -37.54,63.48 -7.3,25.64 -10.25,55.95 -10.29,79.55 -0.03,23.6 2.85,40.49 10.17,63.7z"/>
     <path class="fil3" d="M13963.53 13655.6c12.71,-1.34 29.05,-2.22 48.54,-14.59 19.49,-12.36 42.13,-36.2 60.6,-67.35 18.48,-31.15 32.79,-69.62 35.17,-113.5 2.38,-43.89 -7.17,-93.19 -22.04,-131.89 -14.87,-38.69 -35.07,-66.77 -59.78,-87.23 -24.7,-20.46 -53.91,-33.31 -78.1,-38.06 -24.18,-4.76 -43.34,-1.43 -66.42,14.24 -23.08,15.67 -50.08,43.68 -65.21,79.24 -15.12,35.56 -18.36,78.67 -16.52,118.89 1.85,40.21 8.78,77.53 19.63,108.41 10.85,30.88 25.6,55.32 45.13,77.05 19.53,21.72 43.83,40.73 60.52,49.33 16.69,8.61 25.77,6.8 38.48,5.46z"/>
     <path class="fil3" d="M13332.8 14272.45c4.06,20.43 11.82,48.86 26.71,75.75 14.89,26.89 36.91,52.25 62.76,69.54 25.84,17.28 55.51,26.5 87.97,23.6 32.45,-2.9 67.7,-17.92 100.73,-43.47 33.04,-25.55 63.86,-61.63 92.55,-91.86 28.68,-30.23 55.23,-54.6 87.17,-76.16 31.94,-21.56 69.27,-40.29 102.33,-53.22 33.07,-12.93 61.85,-20.06 94.63,-26.09 32.78,-6.03 69.55,-10.97 103.2,-25.08 33.66,-14.11 64.19,-37.39 82.4,-70.5 18.2,-33.1 24.08,-76.03 13.51,-113.81 -10.56,-37.78 -37.56,-70.4 -66.12,-95.41 -28.55,-25.01 -58.66,-42.39 -84.52,-53.78 -25.85,-11.38 -47.45,-16.77 -69.54,-22.3 -22.1,-5.52 -44.69,-11.18 -70.81,-24.52 -26.13,-13.34 -55.78,-34.35 -88.11,-56.37 -32.32,-22.02 -67.33,-45.03 -107.61,-59.57 -40.28,-14.54 -85.84,-20.6 -129.74,-14.14 -43.9,6.47 -86.14,25.47 -116.49,49.07 -30.36,23.6 -48.83,51.81 -61.04,83.6 -12.21,31.8 -18.16,67.2 -20.35,105.5 -2.2,38.3 -0.62,79.52 -2,120.73 -1.38,41.2 -5.71,82.41 -9.7,111.63 -4,29.23 -7.65,46.47 -13.04,68.06 -5.39,21.6 -12.51,47.55 -15.9,66.74 -3.39,19.2 -3.04,31.63 1.01,52.06z"/>
    </g>
    <g>
     <path class="fil3" d="M15785.71 13880.7c-12,-18.35 -25.41,-41.65 -36,-67.77 -10.59,-26.12 -18.35,-55.06 -22.24,-81.89 -3.88,-26.82 -3.88,-51.53 -1.41,-73.42 2.47,-21.88 7.41,-40.94 15.89,-59.3 8.47,-18.35 20.47,-36 41.29,-48.71 20.83,-12.7 50.48,-20.47 80.84,-15.17 30.35,5.29 61.41,23.64 85.77,46.23 24.35,22.59 42,49.42 55.77,79.78 13.76,30.35 23.65,64.24 30,95.65 6.35,31.42 9.18,60.36 4.59,90.72 -4.59,30.35 -16.59,62.12 -37.06,83.3 -20.48,21.18 -49.42,31.77 -81.54,29.3 -32.12,-2.47 -67.42,-18.01 -90.36,-32.48 -22.94,-14.47 -33.53,-27.88 -45.54,-46.24z"/>
     <path class="fil4" d="M16024.5 13393.78c-0.18,28.76 1.94,67.59 8.3,103.59 6.35,36.01 16.94,69.19 36,98.48 19.06,29.3 46.59,54.72 72.36,65.66 25.77,10.94 49.77,7.41 69.89,2.82 20.12,-4.59 36.35,-10.24 54.36,-31.41 18,-21.18 37.76,-57.89 47.65,-94.95 9.88,-37.07 9.88,-74.48 5.64,-111.9 -4.23,-37.41 -12.7,-74.83 -34.59,-108.36 -21.88,-33.53 -57.18,-63.18 -85.42,-76.6 -28.23,-13.41 -49.41,-10.58 -68.65,-5.47 -19.24,5.12 -36.53,12.53 -52.95,28.24 -16.41,15.71 -31.94,39.71 -40.94,61.07 -9,21.35 -11.47,40.06 -11.65,68.83z"/>
     <path class="fil4" d="M16422.13 13387.95c-4.95,22.94 -9.18,53.3 -9.89,83.3 -0.7,30.01 2.12,59.66 13.42,90.72 11.29,31.06 31.06,63.53 56.47,82.59 25.42,19.06 56.48,24.71 85.42,20.12 28.95,-4.59 55.77,-19.41 77.66,-43.06 21.88,-23.65 38.82,-56.12 50.47,-94.24 11.65,-38.13 18,-81.89 16.59,-121.07 -1.41,-39.18 -10.59,-73.78 -25.41,-102.37 -14.83,-28.59 -35.3,-51.18 -59.3,-63.18 -24.01,-12 -51.54,-13.41 -75.19,-8.12 -23.65,5.3 -43.41,17.3 -61.77,35.3 -18.35,18 -35.3,42 -46.59,61.77 -11.3,19.77 -16.94,35.3 -21.88,58.24z"/>
     <path class="fil3" d="M16748.27 13939.65c11.3,4.94 25.42,12 47.66,10.94 22.23,-1.06 52.59,-10.23 82.94,-27.53 30.36,-17.29 60.72,-42.71 83.66,-78.36 22.94,-35.65 38.47,-81.54 44.47,-121.07 6.01,-39.53 2.48,-72.71 -8.47,-101.66 -10.94,-28.94 -29.29,-53.65 -47.3,-69.18 -18,-15.53 -35.65,-21.88 -62.47,-19.77 -26.83,2.12 -62.83,12.71 -92.48,35.3 -29.65,22.59 -52.95,57.18 -70.6,91.78 -17.65,34.59 -29.65,69.18 -35.29,100.24 -5.65,31.06 -4.95,58.59 1.06,86.13 6,27.53 17.29,55.06 27.17,70.24 9.89,15.18 18.36,18 29.65,22.94z"/>
     <path class="fil3" d="M15925.14 14155.67c-6.36,19.06 -13.42,46.59 -13.77,76.24 -0.35,29.65 6,61.42 19.41,88.25 13.42,26.82 33.89,48.71 62.48,61.77 28.59,13.06 65.3,17.29 105.19,11.65 39.88,-5.65 82.95,-21.18 121.42,-32.83 38.47,-11.65 72.36,-19.41 109.42,-22.24 37.06,-2.82 77.3,-0.7 111.19,4.24 33.88,4.94 61.42,12.71 91.77,23.29 30.36,10.59 63.54,24.01 98.48,28.24 34.95,4.24 71.66,-0.7 102.72,-19.76 31.06,-19.07 56.47,-52.24 65.65,-88.95 9.18,-36.71 2.12,-76.95 -9.88,-111.54 -12,-34.6 -28.95,-63.54 -45.18,-85.42 -16.24,-21.89 -31.77,-36.71 -47.66,-51.89 -15.88,-15.18 -32.12,-30.71 -47.65,-54.36 -15.53,-23.65 -30.35,-55.42 -46.94,-89.3 -16.59,-33.89 -34.95,-69.89 -61.77,-101.3 -26.83,-31.42 -62.13,-58.25 -102.01,-73.78 -39.89,-15.53 -84.36,-19.76 -121.07,-14.47 -36.71,5.3 -65.66,20.12 -91.07,40.95 -25.41,20.82 -47.3,47.65 -67.42,78.71 -20.12,31.06 -38.47,66.36 -59.3,100.24 -20.82,33.89 -44.12,66.36 -61.42,88.95 -17.29,22.59 -28.59,35.3 -43.41,50.83 -14.83,15.53 -33.18,33.89 -45.18,48.36 -12,14.47 -17.65,25.06 -24,44.12z"/>
    </g>
    <g>
     <path class="fil3" d="M18738.57 16805.08c-36.65,5.87 -81.92,10.5 -129.6,8.83 -47.68,-1.68 -97.77,-9.67 -141.91,-22.2 -44.13,-12.53 -82.32,-29.6 -114.43,-48.53 -32.11,-18.93 -58.16,-39.74 -80.67,-65.5 -22.51,-25.77 -41.5,-56.51 -46.75,-97.47 -5.25,-40.96 3.23,-92.14 32.37,-135.4 29.15,-43.25 78.97,-78.58 130.71,-100.61 51.73,-22.04 105.38,-30.78 161.79,-31.09 56.42,-0.3 115.62,7.83 168.55,19.71 52.94,11.88 99.62,27.51 143.36,55.56 43.74,28.06 84.54,68.55 103.13,114.81 18.59,46.27 14.96,98.31 -11.04,146.25 -26.01,47.93 -74.39,91.75 -112.6,117.21 -38.21,25.46 -66.25,32.56 -102.91,38.43z"/>
     <path class="fil4" d="M18151.02 16099.74c44.33,20.14 105.8,43.69 165.83,58.74 60.02,15.05 118.61,21.6 177.05,12.38 58.44,-9.22 116.73,-34.21 151.44,-66.47 34.71,-32.27 45.83,-71.8 52.64,-106.06 6.8,-34.26 9.29,-63.25 -11,-105.7 -20.3,-42.45 -63.38,-98.35 -113.83,-139.22 -50.44,-40.87 -108.26,-66.72 -169.01,-86.01 -60.75,-19.3 -124.42,-32.05 -191.35,-21.4 -66.94,10.66 -137.14,44.73 -177.37,79.11 -40.23,34.37 -50.5,69.05 -55.88,102.31 -5.37,33.26 -5.87,65.11 7.07,101.33 12.94,36.21 39.3,76.79 66.09,105.45 26.78,28.66 53.99,45.4 98.32,65.54z"/>
     <path class="fil4" d="M18416.66 15481.24c32.04,23.48 76.03,51 121.91,72.81 45.88,21.81 93.65,37.93 149.45,41.93 55.8,4 119.64,-4.12 166.65,-30.23 47.01,-26.11 77.19,-70.21 90.09,-118.11 12.9,-47.89 8.52,-99.59 -12.91,-149.74 -21.43,-50.16 -59.91,-98.77 -110.78,-143.1 -50.87,-44.33 -114.12,-84.38 -175.64,-109.26 -61.52,-24.88 -121.32,-34.59 -175.74,-31.43 -54.42,3.16 -103.47,19.19 -138.6,48 -35.12,28.8 -56.32,70.37 -64.48,110.58 -8.15,40.2 -3.26,79.04 11.89,119.83 15.14,40.8 40.53,83.57 63.27,114.67 22.75,31.11 42.85,50.57 74.89,74.05z"/>
     <path class="fil3" d="M19494.51 15358.28c15.44,-14.04 36.11,-30.98 49.83,-66.08 13.72,-35.1 20.51,-88.35 14.74,-147.2 -5.76,-58.86 -24.07,-123.32 -63.31,-183.4 -39.25,-60.08 -99.43,-115.78 -156.38,-152.36 -56.95,-36.58 -110.66,-54.04 -162.95,-57.12 -52.29,-3.08 -103.15,8.22 -139.58,25.31 -36.44,17.09 -58.45,39.97 -73.7,82.89 -15.26,42.92 -23.76,105.87 -9.33,167.3 14.43,61.42 51.8,121.32 93.06,172.48 41.27,51.17 86.44,93.61 130.54,123.79 44.1,30.18 87.14,48.11 133.83,57.85 46.69,9.74 97.04,11.31 127.32,6.52 30.28,-4.79 40.5,-15.94 55.93,-29.98z"/>
     <path class="fil3" d="M19259.8 16779.54c25.07,22.99 62.74,52.91 108.31,73.94 45.58,21.02 99.06,33.14 149.78,30.95 50.72,-2.2 98.68,-18.73 138.61,-53.89 39.93,-35.16 71.84,-88.96 90.66,-154.5 18.82,-65.54 24.56,-142.82 33.14,-210.32 8.57,-67.5 19.97,-125.23 41.21,-184.46 21.24,-59.22 52.3,-119.95 83.34,-168.9 31.04,-48.95 62.06,-86.13 99.39,-125.73 37.33,-39.6 80.98,-81.61 111.66,-132.68 30.68,-51.08 48.4,-111.22 40.4,-172.39 -8,-61.17 -41.72,-123.36 -92.11,-162.9 -50.39,-39.54 -117.45,-56.42 -179.2,-61.77 -61.75,-5.34 -118.18,0.85 -163.21,10.83 -45.04,9.97 -78.67,23.73 -113.1,37.8 -34.43,14.06 -69.64,28.42 -116.92,36.09 -47.27,7.67 -106.6,8.63 -170.43,10.87 -63.82,2.23 -132.14,5.73 -199.21,25.48 -67.08,19.76 -132.92,55.78 -184.47,106.69 -51.55,50.91 -88.81,116.72 -105.99,177.1 -17.17,60.39 -14.25,115.36 0.38,169.02 14.63,53.66 40.97,106 75.08,158.55 34.1,52.55 75.97,105.29 113.95,160.88 37.98,55.59 72.07,114.02 95.04,156.35 22.96,42.33 34.8,68.57 48.56,102.2 13.76,33.64 29.45,74.68 43.52,103.22 14.08,28.55 26.54,44.59 51.61,67.57z"/>
    </g>
    <g>
     <path class="fil3" d="M17439.77 18735.07c-23.55,-36.01 -49.86,-81.7 -70.63,-132.94 -20.77,-51.24 -36.01,-108.02 -43.62,-160.64 -7.62,-52.63 -7.62,-101.1 -2.77,-144.03 4.84,-42.93 14.54,-80.32 31.16,-116.32 16.61,-36.01 40.16,-70.63 81.01,-95.56 40.85,-24.92 99.01,-40.16 158.56,-29.77 59.55,10.38 120.48,46.39 168.26,90.71 47.78,44.31 82.4,96.93 109.4,156.48 27.01,59.55 46.39,126.02 58.86,187.65 12.46,61.62 18,118.4 9,177.95 -9,59.55 -32.54,121.86 -72.7,163.41 -40.16,41.54 -96.94,62.32 -159.95,57.47 -63.01,-4.85 -132.25,-35.31 -177.26,-63.7 -45.01,-28.39 -65.78,-54.7 -89.32,-90.71z"/>
     <path class="fil4" d="M17908.18 17779.88c-0.34,56.43 3.81,132.6 16.27,203.23 12.47,70.62 33.24,135.71 70.63,193.18 37.39,57.47 91.4,107.33 141.95,128.79 50.54,21.47 97.63,14.54 137.1,5.54 39.46,-9 71.32,-20.08 106.63,-61.62 35.31,-41.55 74.09,-113.56 93.47,-186.27 19.39,-72.7 19.39,-146.1 11.08,-219.49 -8.31,-73.4 -24.92,-146.79 -67.85,-212.57 -42.93,-65.78 -112.18,-123.95 -167.57,-150.26 -55.39,-26.31 -96.94,-20.77 -134.67,-10.73 -37.74,10.04 -71.67,24.58 -103.87,55.39 -32.19,30.82 -62.66,77.9 -80.32,119.79 -17.65,41.89 -22.5,78.59 -22.85,135.02z"/>
     <path class="fil4" d="M18688.19 17768.46c-9.69,45 -18,104.55 -19.39,163.41 -1.38,58.85 4.16,117.02 26.32,177.95 22.15,60.93 60.93,124.63 110.78,162.02 49.86,37.39 110.79,48.47 167.57,39.47 56.78,-9 109.4,-38.08 152.33,-84.47 42.93,-46.4 76.17,-110.1 99.01,-184.88 22.85,-74.78 35.32,-160.64 32.55,-237.5 -2.77,-76.86 -20.77,-144.71 -49.86,-200.8 -29.08,-56.09 -69.24,-100.4 -116.32,-123.94 -47.09,-23.54 -101.09,-26.31 -147.49,-15.93 -46.39,10.39 -85.16,33.93 -121.17,69.24 -36.01,35.32 -69.24,82.4 -91.4,121.18 -22.16,38.77 -33.24,69.24 -42.93,114.25z"/>
     <path class="fil3" d="M19327.98 18850.71c22.16,9.69 49.86,23.54 93.48,21.46 43.62,-2.08 103.17,-20.08 162.72,-54.01 59.55,-33.92 119.1,-83.78 164.1,-153.71 45.01,-69.94 75.48,-159.95 87.25,-237.5 11.77,-77.55 4.85,-142.64 -16.62,-199.42 -21.46,-56.78 -57.47,-105.25 -92.78,-135.71 -35.32,-30.47 -69.94,-42.93 -122.56,-38.78 -52.63,4.16 -123.25,24.93 -181.42,69.24 -58.16,44.32 -103.86,112.18 -138.48,180.03 -34.62,67.86 -58.16,135.72 -69.24,196.65 -11.08,60.93 -9.69,114.94 2.08,168.95 11.77,54.01 33.92,108.02 53.31,137.79 19.39,29.77 36.01,35.31 58.16,45.01z"/>
     <path class="fil3" d="M17713.26 19274.47c-12.46,37.39 -26.31,91.4 -27,149.56 -0.69,58.16 11.77,120.48 38.08,173.1 26.31,52.63 66.47,95.56 122.56,121.18 56.09,25.62 128.1,33.92 206.34,22.85 78.24,-11.08 162.72,-41.55 238.19,-64.4 75.48,-22.85 141.95,-38.08 214.65,-43.62 72.71,-5.54 151.64,-1.39 218.11,8.31 66.48,9.69 120.48,24.93 180.03,45.7 59.55,20.77 124.64,47.08 193.19,55.39 68.55,8.31 140.56,-1.38 201.49,-38.77 60.93,-37.4 110.79,-102.48 128.79,-174.49 18,-72.02 4.15,-150.95 -19.39,-218.81 -23.54,-67.85 -56.78,-124.63 -88.63,-167.56 -31.85,-42.93 -62.31,-72.01 -93.47,-101.79 -31.16,-29.77 -63.01,-60.24 -93.48,-106.63 -30.47,-46.39 -59.55,-108.71 -92.09,-175.18 -32.55,-66.47 -68.55,-137.1 -121.17,-198.73 -52.63,-61.62 -121.87,-114.25 -200.11,-144.71 -78.25,-30.47 -165.49,-38.78 -237.5,-28.39 -72.01,10.39 -128.79,39.47 -178.65,80.32 -49.85,40.85 -92.78,93.48 -132.25,154.41 -39.47,60.93 -75.47,130.17 -116.32,196.65 -40.86,66.47 -86.56,130.17 -120.49,174.48 -33.92,44.32 -56.08,69.25 -85.16,99.71 -29.08,30.47 -65.09,66.47 -88.63,94.86 -23.54,28.39 -34.62,49.17 -47.09,86.56z"/>
    </g>
    <g>
     <path class="fil3" d="M15550.13 11365.61c-13.62,39.74 -33.05,87.43 -60.07,134.18 -27.03,46.75 -61.64,92.55 -97.62,129.99 -35.98,37.44 -73.33,66.52 -109.32,88.54 -35.99,22.01 -70.62,36.98 -108.34,45.77 -37.71,8.8 -78.51,11.43 -122.23,-5.1 -43.72,-16.53 -90.35,-52.21 -118.07,-104.33 -27.72,-52.12 -36.53,-120.67 -31.04,-184.07 5.48,-63.4 25.26,-121.65 54.95,-178.19 29.69,-56.53 69.28,-111.35 109.29,-157.92 40.01,-46.58 80.44,-84.91 131.73,-113.7 51.28,-28.78 113.43,-48.03 169.54,-42.01 56.1,6.03 106.17,37.32 140.24,88.78 34.06,51.46 52.13,123.1 57.25,174.81 5.13,51.72 -2.69,83.51 -16.31,123.25z"/>
     <path class="fil4" d="M14533.06 11577.69c43.69,-33.59 99.89,-82.48 146.84,-134.46 46.95,-51.97 84.64,-107.03 106.49,-170.32 21.86,-63.29 27.88,-134.81 14.09,-186.64 -13.78,-51.83 -47.36,-83.96 -77.98,-108.97 -30.61,-25.02 -58.26,-42.91 -111.46,-45.2 -53.2,-2.29 -131.95,11.03 -199.61,39.71 -67.65,28.68 -124.21,72.71 -175.78,123.14 -51.58,50.44 -98.17,107.28 -123.1,179.82 -24.94,72.54 -28.22,160.79 -15.26,219.26 12.96,58.48 42.15,87.17 72.52,110.22 30.38,23.06 61.94,40.48 105,46.81 43.06,6.32 97.62,1.55 140.49,-9.97 42.88,-11.53 74.06,-29.81 117.76,-63.4z"/>
     <path class="fil4" d="M14056.31 10983.48c40.5,-19.53 91.37,-48.85 137.55,-83.09 46.19,-34.25 87.68,-73.41 121.34,-127.04 33.67,-53.63 59.49,-121.72 58.4,-182.57 -1.1,-60.85 -29.12,-114.45 -70.12,-152.8 -41,-38.35 -94.98,-61.46 -156.48,-66.71 -61.5,-5.25 -130.53,7.36 -201.86,34.61 -71.34,27.26 -144.98,69.16 -202.54,117.4 -57.57,48.25 -99.06,102.83 -124.83,158.89 -25.77,56.06 -35.83,113.59 -25.72,163.99 10.1,50.41 40.37,93.69 76.21,123.21 35.83,29.52 77.23,45.27 126.05,51.83 48.81,6.56 105.03,3.93 148.2,-2.26 43.18,-6.19 73.3,-15.93 113.8,-35.46z"/>
     <path class="fil3" d="M14506.45 9841.19c-5.82,-22.89 -11.76,-52.54 -39.54,-84.91 -27.77,-32.36 -77.36,-67.45 -139.23,-92.98 -61.87,-25.54 -136.01,-41.51 -216.9,-34.24 -80.9,7.27 -168.54,37.8 -235.36,75.25 -66.82,37.45 -112.82,81.84 -143.7,132.44 -30.87,50.6 -46.62,107.43 -48.91,152.92 -2.3,45.49 8.87,79.64 43.64,117.7 34.77,38.06 93.15,80.02 162.19,98.26 69.04,18.23 148.75,12.74 221.81,-1.29 73.06,-14.03 139.47,-36.6 193.07,-64.62 53.6,-28.02 94.39,-61.49 128.95,-102.96 34.56,-41.47 62.88,-90.94 74.19,-123.75 11.32,-32.8 5.61,-48.93 -0.21,-71.82z"/>
     <path class="fil3" d="M15801.71 10831.26c36.29,-12.83 86.21,-34.56 131.45,-68.92 45.23,-34.36 85.78,-81.35 110.55,-133.19 24.76,-51.85 33.75,-108.55 19.84,-167.14 -13.9,-58.59 -50.7,-119.07 -106.18,-172.71 -55.47,-53.65 -129.63,-100.47 -192.51,-144.92 -62.89,-44.45 -114.51,-86.53 -162.39,-139.24 -47.89,-52.7 -92.04,-116.02 -124.45,-173.05 -32.41,-57.04 -53.07,-107.8 -72.79,-166.15 -19.72,-58.35 -38.49,-124.29 -73.21,-182.1 -34.72,-57.81 -85.39,-107.48 -150.76,-132 -65.37,-24.53 -145.43,-23.9 -211.72,5.43 -66.3,29.33 -118.81,87.36 -156.98,146.21 -38.17,58.85 -61.98,118.52 -75.95,168.82 -13.98,50.3 -18.11,91.22 -22.36,133.1 -4.25,41.87 -8.62,84.69 -26.09,136 -17.47,51.31 -48.05,111.1 -79.75,176.06 -31.69,64.96 -64.52,135.07 -80.44,212.59 -15.91,77.53 -14.93,162.45 8.54,241.02 23.46,78.57 69.4,150.79 120.6,200.05 51.21,49.26 107.68,75.57 169.07,89.48 61.39,13.9 127.69,15.41 198.33,9.27 70.63,-6.14 145.59,-19.93 221.32,-28.33 75.73,-8.4 152.23,-11.4 206.74,-11.84 54.5,-0.44 87,1.68 127.92,5.81 40.93,4.14 90.27,10.28 126.27,11.39 36,1.11 58.66,-2.81 94.95,-15.64z"/>
    </g>
    <g>
     <path class="fil3" d="M16758.51 10516.01c5.86,-80.02 18.59,-177.53 45.8,-276.98 27.21,-99.45 68.9,-200.85 117.17,-287.46 48.28,-86.62 103.14,-158.45 158.92,-216.59 55.77,-58.14 112.46,-102.59 177.85,-137.14 65.38,-34.55 139.46,-59.22 228.22,-49.92 88.77,9.3 192.21,52.55 268.71,135.35 76.5,82.79 126.05,205.13 146.7,324.88 20.65,119.76 12.4,236.94 -14.98,355.76 -27.38,118.82 -73.88,239.29 -125.17,344.73 -51.27,105.44 -107.33,195.86 -188.08,273.93 -80.74,78.07 -186.17,143.78 -292.71,159.9 -106.55,16.11 -214.21,-17.37 -302.11,-95.87 -87.9,-78.51 -156.04,-202.04 -190.61,-295.05 -34.57,-93.02 -35.58,-155.53 -29.71,-235.54z"/>
     <path class="fil4" d="M18533.92 9630.53c-64.39,83.24 -144.45,200.83 -205.92,319.61 -61.47,118.79 -104.35,238.76 -113.99,366.26 -9.63,127.5 13.98,262.52 64.6,351.55 50.62,89.03 128.24,132.06 196.93,163.39 68.68,31.33 128.43,50.97 227.79,29.37 99.36,-21.61 238.34,-84.45 349.37,-170.26 111.02,-85.81 194.1,-194.59 264.86,-312.77 70.76,-118.19 129.21,-245.77 140.04,-391.86 10.83,-146.08 -25.96,-310.66 -78.27,-412.36 -52.32,-101.69 -120.16,-140.51 -187.45,-168.34 -67.3,-27.83 -134.04,-44.69 -216.64,-35.46 -82.59,9.22 -181.04,44.52 -254.63,86.62 -73.58,42.1 -122.31,91 -186.69,174.25z"/>
     <path class="fil4" d="M19702.89 10496.48c-65.31,55.74 -145.03,134.58 -213.7,220.25 -68.67,85.66 -126.29,178.13 -162.42,293.52 -36.13,115.39 -50.77,253.69 -19.2,365.54 31.57,111.84 109.33,197.23 203.67,248.16 94.34,50.92 205.25,67.39 321.39,47.22 116.14,-20.16 237.5,-76.96 356.01,-161.93 118.51,-84.97 234.17,-198.11 317.06,-315.16 82.89,-117.04 133.01,-237.99 153.39,-354.03 20.39,-116.05 11.03,-227.18 -32.11,-315.37 -43.14,-88.18 -120.05,-153.42 -200.56,-190.54 -80.52,-37.11 -164.63,-46.11 -257.97,-34.53 -93.33,11.58 -195.89,43.75 -272.62,76.13 -76.72,32.4 -127.63,65.01 -192.94,120.74z"/>
     <path class="fil3" d="M19426.13 12824.66c21.87,39.44 47.24,91.32 114.25,137.62 67,46.29 175.63,87.01 302.29,104.13 126.66,17.12 271.35,10.63 417.21,-42.07 145.86,-52.71 292.9,-151.64 398.13,-253.25 105.22,-101.61 168.63,-205.91 201.09,-314.36 32.45,-108.45 33.95,-221.04 16.09,-306.16 -17.85,-85.13 -55.05,-142.79 -137.75,-196.2 -82.69,-53.4 -210.88,-102.56 -347.24,-102.71 -136.37,-0.16 -280.9,48.68 -409.02,110.06 -128.12,61.39 -239.82,135.31 -325.21,213.08 -85.39,77.77 -144.47,159.38 -188.15,252.75 -43.69,93.37 -71.98,198.5 -76.95,264.57 -4.97,66.07 13.4,93.09 35.26,132.54z"/>
     <path class="fil3" d="M16553.31 11625.01c-60.79,41.31 -142.45,105.68 -209.31,191.1 -66.86,85.42 -118.92,191.89 -139.49,299.67 -20.57,107.77 -9.64,216.85 44.48,318.31 54.13,101.45 151.45,195.27 279.96,267.42 128.5,72.14 288.19,122.6 425.91,174.17 137.72,51.56 253.48,104.22 367.5,178.31 114.03,74.08 226.32,169.58 313.86,259.19 87.55,89.61 150.35,173.32 215.09,271.51 64.75,98.18 131.43,210.85 223.62,300.76 92.19,89.9 209.89,157.04 342.52,170.6 132.63,13.55 280.19,-26.48 388.38,-112.83 108.2,-86.36 177.02,-219.02 218.93,-346.24 41.92,-127.22 56.93,-248.99 58.31,-348.66 1.39,-99.68 -10.85,-177.27 -23.33,-256.67 -12.48,-79.39 -25.2,-160.6 -17.84,-263.84 7.35,-103.24 34.79,-228.52 61.79,-363.87 27.01,-135.36 53.59,-280.79 45.35,-431.68 -8.24,-150.9 -51.3,-307.27 -132.78,-440.99 -81.47,-133.71 -201.38,-244.78 -319.86,-310.9 -118.48,-66.11 -235.55,-87.28 -355.68,-83.16 -120.13,4.12 -243.32,33.52 -370.78,79.15 -127.47,45.64 -259.21,107.5 -394.99,159.78 -135.79,52.28 -275.62,94.96 -376.07,122.24 -100.45,27.27 -161.5,39.14 -239.09,51.37 -77.58,12.24 -171.7,24.85 -238.73,40.28 -67.02,15.43 -106.95,33.67 -167.75,74.98z"/>
    </g>
    <g>
     <path class="fil3" d="M12242.78 18689.38c-75.48,-37.83 -165.22,-89.37 -251.03,-155.77 -85.82,-66.41 -167.71,-147.67 -232.58,-229.41 -64.86,-81.74 -112.71,-163.95 -146.87,-241.55 -34.16,-77.6 -54.63,-150.59 -61.99,-228.07 -7.35,-77.47 -1.6,-159.44 43.09,-242.05 44.68,-82.61 128.3,-165.86 239.55,-207.03 111.26,-41.17 250.15,-40.25 374.94,-12.25 124.78,28 235.45,83.08 340.04,157.43 104.59,74.34 203.09,167.95 285.07,260.17 81.98,92.22 147.42,183.06 190.94,292.95 43.51,109.89 65.1,238.83 38,348.94 -27.11,110.11 -102.91,201.4 -214.57,255.38 -111.65,53.98 -259.18,70.66 -363.54,66.94 -104.36,-3.73 -165.57,-27.85 -241.05,-65.68z"/>
     <path class="fil4" d="M12094.34 16606.82c55.13,96.06 137.36,221.15 228.22,328.64 90.86,107.49 190.35,197.38 310.51,257.95 120.15,60.56 260.97,91.81 367.9,78.32 106.92,-13.5 179.95,-71.72 238.01,-125.95 58.05,-54.23 101.14,-104.46 120.03,-209.79 18.88,-105.33 13.56,-265.75 -25.33,-408.21 -38.89,-142.45 -111.34,-266.94 -197.89,-383.23 -86.55,-116.29 -187.19,-224.38 -324.94,-293.57 -137.76,-69.19 -312.62,-99.49 -432.55,-89.44 -119.93,10.06 -184.93,60.46 -239.02,114.75 -54.1,54.28 -97.3,112.44 -121.49,196.49 -24.19,84.04 -29.39,193.98 -17.98,282.46 11.4,88.49 39.41,155.52 94.53,251.58z"/>
     <path class="fil4" d="M13406.08 15817.43c27.99,85.91 72.68,195.11 128.43,296.31 55.75,101.19 122.56,194.38 220.3,275.86 97.73,81.47 226.39,151.24 347.86,165.45 121.47,14.2 235.76,-27.16 323.18,-98.48 87.42,-71.31 147.97,-172.59 174.98,-293.66 27.02,-121.07 20.51,-261.93 -14.56,-411.32 -35.06,-149.4 -98.68,-307.33 -179.25,-434.96 -80.57,-127.63 -178.1,-224.96 -282.79,-291.38 -104.7,-66.42 -216.56,-101.94 -319.66,-95.39 -103.1,6.55 -197.45,55.17 -265.88,118.59 -68.44,63.41 -110.97,141.62 -137.18,237.06 -26.21,95.44 -36.1,208.11 -35.4,295.76 0.69,87.64 11.98,150.25 39.97,236.16z"/>
     <path class="fil3" d="M15559.65 17021.5c47.15,-5.43 107.8,-9.29 179.74,-55.87 71.94,-46.59 155.17,-135.91 222.68,-252.24 67.51,-116.33 119.29,-259.68 126.59,-422.73 7.31,-163.05 -29.88,-345.8 -86.47,-488.96 -56.59,-143.16 -132.59,-246.72 -225.05,-321.84 -92.46,-75.11 -201.38,-121.78 -291.35,-138.59 -89.97,-16.82 -161,-3.78 -246.15,55.21 -85.16,59 -184.45,163.95 -239.36,296.54 -54.9,132.58 -65.43,292.79 -57.17,442.06 8.27,149.27 35.33,287.61 76.69,401.9 41.36,114.29 97.02,204.53 170.31,284.52 73.28,79.98 164.18,149.71 226.45,181.08 62.28,31.36 95.94,24.35 143.09,18.92z"/>
     <path class="fil3" d="M13239.16 19334.29c15.77,75.72 45.6,181 101.84,280.34 56.24,99.33 138.9,192.73 235.48,256.02 96.58,63.28 207.08,96.45 327.5,84.53 120.42,-11.91 250.76,-68.9 372.54,-164.93 121.78,-96.04 234.98,-231.11 340.44,-344.37 105.46,-113.26 203.17,-204.72 321.02,-285.89 117.85,-81.16 255.83,-152.04 378.15,-201.22 122.32,-49.18 228.96,-76.66 350.47,-100.21 121.51,-23.55 257.88,-43.17 382.35,-96.75 124.48,-53.58 237.05,-141.11 303.49,-264.68 66.44,-123.57 86.75,-283.19 46.19,-423.1 -40.55,-139.92 -141.96,-260.13 -248.88,-351.98 -106.92,-91.86 -219.34,-155.36 -315.75,-196.73 -96.4,-41.37 -176.79,-60.62 -259.03,-80.36 -82.24,-19.75 -166.34,-39.98 -263.81,-88.59 -97.48,-48.61 -208.32,-125.6 -329.14,-206.22 -120.82,-80.62 -251.61,-164.87 -401.71,-217.45 -150.09,-52.58 -319.49,-73.48 -482.27,-47.92 -162.79,25.57 -318.98,97.6 -430.86,186.31 -111.89,88.7 -179.49,194.08 -223.72,312.59 -44.23,118.5 -65.1,250.14 -71.89,392.46 -6.79,142.31 0.49,295.3 -3.18,448.37 -3.67,153.08 -18.3,306.24 -32.1,414.9 -13.8,108.66 -26.78,172.81 -46.03,253.2 -19.25,80.38 -44.78,177 -56.68,248.39 -11.91,71.39 -10.19,117.56 5.58,193.29z"/>
    </g>
    <g>
     <path class="fil3" d="M9360.91 11483.87c-35.01,-47.74 -74.54,-108.59 -106.86,-177.47 -32.33,-68.87 -57.46,-145.77 -71.81,-217.52 -14.35,-71.74 -17.93,-138.35 -14.44,-197.7 3.49,-59.34 14.05,-111.44 34.22,-162.14 20.18,-50.71 49.97,-100.02 104.27,-137.29 54.29,-37.27 133.09,-62.5 215.68,-52.62 82.6,9.87 168.98,54.85 237.91,112.22 68.92,57.36 120.38,127.12 161.89,206.95 41.5,79.83 73.05,169.74 94.73,253.5 21.68,83.76 33.48,161.37 25.51,243.86 -7.97,82.49 -35.72,169.86 -87.84,229.91 -52.11,60.06 -128.6,92.79 -215.54,90.79 -86.94,-2.01 -184.34,-38.76 -248.28,-74.45 -63.94,-35.68 -94.43,-70.3 -129.44,-118.04z"/>
     <path class="fil4" d="M9934.03 10136.73c3.7,77.57 15.03,181.93 37.37,278.06 22.34,96.13 55.69,184.03 111.32,260.24 55.62,76.21 133.52,140.73 204.56,166.49 71.04,25.76 135.23,12.77 188.8,-2.51 53.57,-15.29 96.52,-32.86 141.97,-92.56 45.46,-59.69 93.42,-161.51 114.69,-262.85 21.28,-101.33 15.85,-202.19 -0.98,-302.43 -16.84,-100.24 -45.1,-199.87 -108.95,-287.09 -63.84,-87.22 -163.29,-162.03 -241.35,-194.09 -78.06,-32.07 -134.73,-21.39 -185.85,-4.8 -51.11,16.58 -96.66,39.07 -138.63,83.78 -41.96,44.72 -80.35,111.67 -101.52,170.54 -21.17,58.87 -25.12,109.65 -21.43,187.22z"/>
     <path class="fil4" d="M11005.01 10063.43c-9.99,62.56 -17.01,145 -14.57,225.97 2.44,80.98 14.35,160.5 49.3,242.59 34.94,82.09 92.93,166.76 164.2,214.46 71.27,47.7 155.81,58.42 233.17,41.86 77.35,-16.56 147.52,-60.41 203.08,-127.33 55.57,-66.92 96.53,-156.91 122.41,-261.35 25.87,-104.45 36.66,-223.35 27.18,-328.76 -9.49,-105.41 -39.24,-197.32 -83.34,-272.24 -44.1,-74.92 -102.56,-132.85 -169,-161.72 -66.44,-28.88 -140.86,-28.69 -203.84,-10.99 -62.98,17.69 -114.52,52.91 -161.39,104.09 -46.87,51.18 -89.06,118.34 -116.65,173.26 -27.58,54.91 -40.55,97.6 -50.55,160.16z"/>
     <path class="fil3" d="M11964.09 11503.32c31.16,11.68 70.25,28.67 130.03,22.59 59.79,-6.07 140.29,-35.21 219.61,-86.23 79.32,-51.02 157.46,-123.92 214.15,-223.34 56.68,-99.42 91.89,-225.37 102.34,-332.8 10.45,-107.43 -3.87,-196.36 -37.56,-272.79 -33.69,-76.44 -86.75,-140.38 -137.52,-179.64 -50.78,-39.25 -99.27,-53.83 -171.27,-44.23 -72.01,9.6 -167.52,43.36 -244.17,108.55 -76.65,65.18 -134.44,161.8 -177,257.6 -42.56,95.8 -69.9,190.79 -80.63,275.33 -10.72,84.55 -4.83,158.66 15.34,232.01 20.16,73.34 54.59,145.92 83.43,185.4 28.84,39.48 52.09,45.87 83.25,57.55z"/>
     <path class="fil3" d="M9776.57 12204.87c-14.37,52.29 -29.41,127.53 -26.07,207.51 3.35,79.97 25.08,164.68 65.12,235.05 40.04,70.37 98.4,126.39 177.36,157.46 78.96,31.06 178.52,37.16 285.22,16.16 106.7,-21.01 220.53,-69.11 322.55,-106.08 102.02,-36.97 192.24,-62.81 291.73,-75.79 99.5,-12.99 208.27,-13.11 300.33,-4.7 92.05,8.41 167.39,25.36 250.75,49.51 83.36,24.14 174.74,55.49 269.55,61.85 94.81,6.35 193.05,-12.29 274.01,-68.17 80.97,-55.88 144.67,-149 164.09,-249.28 19.42,-100.28 -5.44,-207.72 -42.8,-299.23 -37.36,-91.5 -87.22,-167.07 -134.16,-223.71 -46.94,-56.64 -90.95,-94.35 -135.97,-132.96 -45.01,-38.61 -91.03,-78.12 -136.32,-139.62 -45.29,-61.5 -89.85,-144.98 -139.48,-233.92 -49.63,-88.94 -104.32,-183.33 -181.18,-264.12 -76.87,-80.8 -175.9,-148 -285.67,-184.08 -109.76,-36.09 -230.26,-41.06 -328.44,-21.47 -98.19,19.59 -174.06,63.74 -239.55,123.56 -65.49,59.82 -120.59,135.3 -170.33,221.95 -49.73,86.64 -94.09,184.44 -145.32,278.8 -51.23,94.36 -109.32,185.27 -152.67,248.67 -43.35,63.4 -71.95,99.29 -109.67,143.3 -37.71,44.01 -84.52,96.15 -114.78,136.9 -30.25,40.74 -43.94,70.11 -58.3,122.41z"/>
    </g>
    <g>
     <path class="fil3" d="M4419.34 14837.1c-11.93,-72.06 -21.54,-161.08 -18.74,-254.92 2.8,-93.85 17.99,-192.5 42.18,-279.49 24.19,-86.98 57.37,-162.3 94.29,-225.69 36.92,-63.39 77.58,-114.86 128.05,-159.43 50.47,-44.58 110.76,-82.26 191.3,-93.03 80.55,-10.76 181.35,5.38 266.78,62.29 85.42,56.9 155.45,154.56 199.36,256.13 43.9,101.56 61.68,207.04 62.87,318.05 1.2,111.02 -14.17,227.59 -36.99,331.88 -22.82,104.29 -53.08,196.31 -107.84,282.68 -54.75,86.37 -133.99,167.09 -224.83,204.15 -90.85,37.07 -193.3,30.48 -287.89,-20.19 -94.59,-50.66 -181.33,-145.4 -231.84,-220.33 -50.5,-74.92 -64.77,-130.03 -76.7,-202.1z"/>
     <path class="fil4" d="M5801.1 13673.49c-39.17,87.46 -84.85,208.65 -113.84,326.93 -28.98,118.28 -41.25,233.64 -22.49,348.54 18.76,114.9 68.55,229.34 132.4,297.3 63.85,67.96 141.76,89.43 209.25,102.46 67.49,13.03 124.57,17.62 207.88,-22.76 83.31,-40.39 192.86,-125.74 272.76,-225.45 79.9,-99.7 130.14,-213.75 167.47,-333.49 37.34,-119.74 61.76,-245.16 40.08,-376.77 -21.68,-131.6 -89.46,-269.38 -157.52,-348.19 -68.07,-78.8 -136.42,-98.64 -201.93,-108.87 -65.51,-10.23 -128.19,-10.86 -199.31,14.98 -71.13,25.84 -150.7,78.14 -206.81,131.15 -56.12,53.01 -88.77,106.72 -127.94,194.17z"/>
     <path class="fil4" d="M7020.98 14189.7c-45.87,63.3 -99.55,150.14 -141.99,240.65 -42.44,90.51 -73.65,184.68 -80.93,294.53 -7.28,109.85 9.36,235.39 61.23,327.62 51.88,92.23 138.98,151.15 233.36,176.03 94.4,24.88 196.08,15.72 294.54,-26.98 98.47,-42.7 193.72,-118.94 280.42,-219.5 86.7,-100.56 164.84,-225.45 213.15,-346.77 48.31,-121.33 66.79,-239.1 59.99,-346.16 -6.79,-107.06 -38.86,-203.41 -95.91,-272.23 -57.05,-68.81 -139.08,-110.08 -218.28,-125.7 -79.19,-15.62 -155.56,-5.59 -235.69,24.64 -80.12,30.23 -164,80.64 -224.97,125.72 -60.98,45.09 -99.05,84.85 -144.92,148.15z"/>
     <path class="fil3" d="M7274.29 16309.39c27.8,30.23 61.36,70.71 130.56,97.35 69.21,26.63 174.07,39.42 289.83,27.46 115.75,-11.95 242.41,-48.66 360.22,-126.52 117.82,-77.86 226.78,-196.88 298.16,-309.33 71.38,-112.45 105.17,-218.33 110.69,-321.25 5.51,-102.92 -17.26,-202.89 -51.28,-274.4 -34.02,-71.52 -79.28,-114.59 -163.9,-144.15 -84.61,-29.57 -208.58,-45.64 -329.3,-16.6 -120.71,29.05 -238.18,103.21 -338.43,184.95 -100.25,81.74 -183.28,171.07 -242.21,258.17 -58.93,87.1 -93.75,171.97 -112.43,263.96 -18.68,91.98 -21.22,191.07 -11.48,250.61 9.75,59.54 31.78,79.52 59.57,109.75z"/>
     <path class="fil3" d="M4475.08 15862.5c-44.96,49.57 -103.45,124.01 -144.35,213.92 -40.89,89.91 -64.18,195.28 -59.32,295.06 4.86,99.79 37.88,193.99 107.49,272.19 69.62,78.2 175.83,140.41 305,176.76 129.16,36.34 281.29,46.83 414.21,62.99 132.92,16.16 246.64,37.99 363.4,79.16 116.77,41.16 236.59,101.65 333.24,162.22 96.66,60.56 170.15,121.21 248.46,194.25 78.32,73.04 161.44,158.49 262.27,218.32 100.84,59.84 219.37,94.07 339.65,77.68 120.28,-16.39 242.31,-83.4 319.58,-182.97 77.27,-99.58 109.78,-231.72 119.65,-353.27 9.87,-121.56 -2.9,-232.54 -23.01,-321.06 -20.11,-88.51 -47.54,-154.56 -75.58,-222.15 -28.03,-67.6 -56.67,-136.74 -72.25,-229.69 -15.59,-92.94 -18.12,-209.69 -23.18,-335.26 -5.07,-125.57 -12.67,-259.96 -52.26,-391.74 -39.58,-131.79 -111.15,-260.96 -211.88,-361.87 -100.73,-100.9 -230.61,-173.54 -349.62,-206.69 -119.01,-33.16 -227.14,-26.84 -332.58,2.52 -105.43,29.35 -208.17,81.74 -311.21,149.4 -103.04,67.67 -206.39,150.61 -315.37,225.94 -108.99,75.32 -223.61,143.03 -306.67,188.66 -83.05,45.64 -134.55,69.2 -200.6,96.64 -66.04,27.43 -146.64,58.73 -202.66,86.73 -56.01,28 -87.45,52.69 -132.41,102.26z"/>
    </g>
    <g>
     <path class="fil3" d="M1236.65 11998.58c-51.13,-29.82 -111.64,-69.88 -168.75,-120.15 -57.1,-50.29 -110.79,-110.79 -152.56,-170.87 -41.76,-60.08 -71.59,-119.74 -92.05,-175.56 -20.45,-55.82 -31.53,-107.81 -33.24,-162.35 -1.71,-54.55 5.96,-111.65 40.9,-167.47 34.94,-55.82 97.15,-110.37 176.83,-134.24 79.69,-23.86 176.84,-17.05 262.92,8.09 86.08,25.13 161.08,68.6 230.97,125.27 69.88,56.67 134.66,126.55 187.92,194.73 53.27,68.17 95.04,134.65 120.61,213.48 25.57,78.83 34.95,170.02 11.09,245.87 -23.86,75.85 -80.96,136.36 -161.5,169.18 -80.53,32.81 -184.5,37.93 -257.37,30.69 -72.87,-7.24 -114.63,-26.84 -165.77,-56.67z"/>
     <path class="fil4" d="M1225.29 10534.65c34.31,69.67 86.3,160.85 145.11,240.11 58.81,79.26 124.43,146.58 205.82,194.3 81.4,47.72 178.55,75.84 253.98,71.15 75.42,-4.69 129.11,-42.19 172.15,-77.56 43.03,-35.37 75.42,-68.61 93.31,-141.48 17.89,-72.86 21.3,-185.36 0.41,-286.78 -20.88,-101.41 -66.06,-191.75 -121.46,-276.97 -55.39,-85.22 -121.02,-165.33 -214.34,-219.87 -93.33,-54.54 -214.35,-83.51 -298.72,-81.8 -84.37,1.71 -132.1,34.09 -172.36,69.68 -40.27,35.58 -73.08,74.36 -93.74,132.1 -20.67,57.74 -29.19,134.44 -25.14,196.87 4.05,62.43 20.68,110.58 54.98,180.25z"/>
     <path class="fil4" d="M2178.29 10040.51c15.77,61.36 42.19,139.77 76.71,213.06 34.52,73.29 77.14,141.47 141.91,202.83 64.77,61.36 151.7,115.9 236.08,131.23 84.37,15.34 166.18,-8.53 230.53,-54.55 64.34,-46.03 111.21,-114.21 135.5,-197.73 24.28,-83.52 25.98,-182.38 8.08,-288.48 -17.91,-106.11 -55.41,-219.45 -106.12,-312.35 -50.71,-92.89 -114.64,-165.33 -184.95,-216.46 -70.31,-51.13 -147.01,-80.95 -219.45,-80.95 -72.44,0 -140.62,29.84 -191.33,71.17 -50.71,41.34 -83.94,94.18 -106.52,159.8 -22.59,65.62 -34.51,144.03 -37.92,205.39 -3.4,61.37 1.71,105.68 17.48,167.04z"/>
     <path class="fil3" d="M3631.84 10978.77c33.23,-1.71 75.85,-1.71 128.26,-31.11 52.41,-29.41 114.62,-88.22 167.03,-166.62 52.41,-78.41 95.02,-176.42 107.37,-290.2 12.35,-113.77 -5.55,-243.31 -38.79,-346.01 -33.24,-102.69 -81.83,-178.54 -143.19,-235.21 -61.36,-56.67 -135.51,-94.17 -197.73,-109.93 -62.21,-15.76 -112.49,-9.8 -174.71,27.7 -62.21,37.51 -136.35,106.54 -180.66,196.88 -44.32,90.34 -58.8,201.99 -59.65,306.81 -0.84,104.83 11.95,202.84 35.81,284.65 23.87,81.81 58.81,147.44 106.54,206.67 47.73,59.22 108.24,112.06 150.43,136.77 42.19,24.72 66.05,21.3 99.29,19.6z"/>
     <path class="fil3" d="M1905.25 12494.14c7.68,53.69 23.87,128.69 58.82,200.7 34.94,72.02 88.64,141.04 153.41,189.62 64.77,48.58 140.63,76.69 225.42,73.71 84.8,-2.99 178.55,-37.08 268.03,-98.87 89.48,-61.8 174.7,-151.29 253.53,-225.86 78.83,-74.58 151.27,-134.24 237.34,-185.8 86.08,-51.56 185.79,-95.04 273.57,-124.01 87.78,-28.99 163.63,-43.48 249.7,-54.56 86.08,-11.08 182.38,-18.76 271.87,-50.72 89.48,-31.96 172.15,-88.22 224.13,-171.74 51.98,-83.52 73.28,-194.31 51.12,-294.02 -22.16,-99.72 -87.79,-188.35 -158.53,-257.37 -70.74,-69.03 -146.59,-118.46 -212.21,-151.69 -65.63,-33.24 -121.03,-50.28 -177.7,-67.75 -56.68,-17.47 -114.63,-35.36 -180.68,-73.71 -66.05,-38.35 -140.2,-97.15 -221.16,-158.93 -80.97,-61.79 -168.75,-126.56 -271.45,-170.01 -102.7,-43.46 -220.31,-65.62 -335.36,-54.96 -115.05,10.66 -227.55,54.13 -309.79,111.23 -82.24,57.11 -134.22,127.85 -170.44,208.81 -36.21,80.97 -56.66,172.16 -67.74,271.44 -11.07,99.29 -12.77,206.67 -22.14,313.63 -9.37,106.96 -26.41,213.49 -40.9,288.91 -14.48,75.43 -26.41,119.74 -43.45,175.14 -17.05,55.4 -39.2,121.87 -50.7,171.3 -11.51,49.43 -12.36,81.82 -4.69,135.51z"/>
    </g>
    <g>
     <path class="fil3" d="M4683.32 18275.93c5.03,-37.53 13.8,-83.12 29.45,-129.2 15.64,-46.08 38.16,-92.67 63.36,-132.11 25.21,-39.44 53.1,-71.72 81.03,-97.53 27.93,-25.81 55.9,-45.14 87.68,-59.56 31.79,-14.43 67.39,-23.94 108.95,-17.04 41.55,6.9 89.06,30.22 122.75,71.4 33.7,41.18 53.57,100.22 59.9,157.23 6.33,57.01 -0.89,111.98 -17.16,167.19 -16.28,55.2 -41.61,110.64 -68.76,158.86 -27.16,48.22 -56.14,89.23 -96.39,123.72 -40.26,34.49 -91.8,62.46 -142.46,67.02 -50.65,4.57 -100.43,-14.26 -139.61,-53.74 -39.19,-39.49 -67.78,-99.62 -81.43,-144.43 -13.64,-44.8 -12.34,-74.28 -7.31,-111.81z"/>
     <path class="fil4" d="M5544.94 17909.15c-32.7,37.39 -73.76,90.52 -106.09,144.74 -32.34,54.22 -55.95,109.53 -64.11,169.32 -8.16,59.8 -0.86,124.09 20.46,167.47 21.32,43.38 56.67,65.86 88.14,82.57 31.47,16.71 59.06,27.66 106.49,20.3 47.42,-7.36 114.69,-33.02 169.43,-70.29 54.75,-37.28 96.98,-86.17 133.67,-139.84 36.7,-53.68 67.86,-112.13 77.11,-180.65 9.25,-68.52 -3.41,-147.1 -25.17,-196.5 -21.76,-49.4 -52.62,-69.61 -83.54,-84.64 -30.91,-15.02 -61.88,-24.86 -101.06,-22.86 -39.17,2 -86.56,15.84 -122.42,33.58 -35.87,17.75 -60.21,39.41 -92.91,76.8z"/>
     <path class="fil4" d="M6071.11 18350.33c-32.36,24.41 -72.15,59.29 -106.94,97.7 -34.78,38.41 -64.56,80.34 -84.86,133.68 -20.3,53.34 -31.12,118.08 -19.42,171.68 11.69,53.59 45.91,96.03 88.91,122.7 43,26.67 94.79,37.58 150.08,31.37 55.29,-6.2 114.08,-29.51 172.33,-66.18 58.25,-36.67 115.95,-86.69 158.33,-139.48 42.37,-52.79 69.42,-108.36 82.32,-162.45 12.9,-54.09 11.64,-106.72 -6.18,-149.49 -17.81,-42.78 -52.2,-75.7 -89.08,-95.47 -36.88,-19.77 -76.25,-26.4 -120.56,-23.59 -44.3,2.8 -93.53,15.04 -130.6,28.13 -37.07,13.08 -61.98,27 -94.33,51.4z"/>
     <path class="fil3" d="M5874.61 19439.38c9.18,19.21 19.66,44.37 49.91,68.08 30.26,23.72 80.28,45.99 139.47,57.65 59.19,11.66 127.54,12.71 197.76,-7.98 70.22,-20.69 142.31,-63.12 194.77,-108.01 52.46,-44.89 85.3,-92.23 103.67,-142.4 18.37,-50.17 22.27,-103.18 16.27,-143.79 -5.99,-40.61 -21.88,-68.83 -59.32,-96.35 -37.45,-27.51 -96.45,-54.3 -160.69,-58.25 -64.24,-3.95 -133.73,14.96 -195.83,40.24 -62.11,25.29 -116.83,56.94 -159.27,91.16 -42.44,34.21 -72.59,70.99 -95.83,113.74 -23.23,42.75 -39.55,91.48 -43.76,122.46 -4.22,30.99 3.66,44.24 12.85,63.45z"/>
     <path class="fil3" d="M4555.16 18792.6c-29.82,17.74 -70.12,45.75 -104.05,84.09 -33.92,38.35 -61.48,87.03 -74.23,137.23 -12.75,50.19 -10.7,101.9 11.92,151.23 22.63,49.34 65.81,96.31 124.31,133.95 58.5,37.63 132.3,65.94 195.72,94.15 63.42,28.2 116.47,56.3 168.08,94.44 51.62,38.14 101.82,86.33 140.52,131.03 38.7,44.7 65.91,85.93 93.63,134.03 27.71,48.1 55.93,103.07 96.81,148.05 40.89,44.98 94.43,79.95 156.54,90.1 62.1,10.15 132.76,-4.52 186.19,-42.13 53.42,-37.61 89.61,-98.16 112.97,-156.91 23.36,-58.75 33.89,-115.69 37.37,-162.62 3.49,-46.92 -0.07,-83.82 -3.7,-121.58 -3.62,-37.76 -7.31,-76.39 -0.91,-124.82 6.39,-48.43 22.88,-106.68 39.44,-169.68 16.57,-63 33.22,-130.77 33.63,-202.1 0.4,-71.33 -15.45,-146.22 -50.04,-211.54 -34.59,-65.31 -87.93,-121.04 -141.87,-155.56 -53.95,-34.51 -108.5,-47.81 -165.22,-49.28 -56.72,-1.47 -115.59,8.89 -176.94,26.77 -61.35,17.88 -125.17,43.29 -190.63,64.06 -65.46,20.77 -132.56,36.92 -180.66,46.91 -48.1,10 -77.2,13.86 -114.1,17.42 -36.9,3.56 -81.6,6.83 -113.62,12.2 -32.02,5.36 -51.35,12.83 -81.16,30.56z"/>
    </g>
    <g>
     <path class="fil3" d="M10533.97 13608.7c28.44,-24.16 64.93,-51.74 106.79,-75.16 41.86,-23.41 89.08,-42.66 133.55,-54.9 44.47,-12.24 86.19,-17.48 123.66,-17.95 37.47,-0.47 70.7,3.84 103.49,14.25 32.78,10.41 65.12,26.93 90.99,59.4 25.87,32.47 45.27,80.88 42.76,133.26 -2.5,52.37 -26.91,108.71 -59.88,154.62 -32.98,45.91 -74.53,81.39 -122.87,111.07 -48.33,29.68 -103.45,53.55 -155.14,70.93 -51.7,17.39 -99.97,28.29 -152.19,26.98 -52.23,-1.31 -108.41,-14.84 -148.5,-44.92 -40.1,-30.07 -64.12,-76.7 -66.75,-131.45 -2.64,-54.76 16.1,-117.65 35.67,-159.45 19.57,-41.81 39.97,-62.53 68.42,-86.68z"/>
     <path class="fil4" d="M11406.71 13908.64c-48.61,5.8 -113.72,17.61 -173.16,35.97 -59.44,18.36 -113.21,43.27 -158.64,81.66 -45.42,38.39 -82.49,90.26 -95.51,136.09 -13.01,45.82 -1.96,85.6 10.05,118.6 12.01,32.99 24.99,59.21 64.56,85.12 39.58,25.9 105.75,51.49 170.42,60.32 64.67,8.83 127.84,0.9 190.11,-14.18 62.28,-15.09 123.65,-37.32 175.63,-81.38 51.98,-44.05 94.56,-109.94 111.21,-160.46 16.67,-50.52 7.41,-85.67 -5.31,-117.07 -12.72,-31.39 -28.9,-59.03 -58.9,-83.41 -30,-24.38 -73.82,-45.51 -111.78,-56.18 -37.96,-10.67 -70.07,-10.88 -118.68,-5.08z"/>
     <path class="fil4" d="M11500.83 14578.75c-39.78,-3.48 -91.93,-4.2 -142.74,0.97 -50.81,5.17 -100.27,16.22 -150.32,41.88 -50.05,25.65 -100.68,65.91 -127.48,112.86 -26.79,46.95 -29.74,100.59 -15.86,148.49 13.88,47.89 44.6,90.04 89.17,121.98 44.57,31.94 102.99,53.66 169.82,65.24 66.83,11.59 142.08,13.04 207.93,2.35 65.85,-10.69 122.31,-33.52 167.44,-64.61 45.13,-31.09 78.93,-70.44 94.1,-113.51 15.18,-43.07 11.73,-89.86 -2.23,-128.66 -13.95,-38.81 -38.4,-69.64 -72.69,-96.81 -34.28,-27.18 -78.4,-50.7 -114.17,-65.58 -35.76,-14.88 -63.18,-21.12 -102.97,-24.6z"/>
     <path class="fil3" d="M10638.49 15246.37c-5.95,20.11 -14.88,45.45 -8.38,82.77 6.5,37.32 28.43,86.63 64.07,134.21 35.64,47.59 84.98,93.45 150.04,124.63 65.05,31.19 145.82,47.68 213.84,49.43 68.02,1.75 123.29,-11.24 169.84,-35.85 46.55,-24.61 84.37,-60.84 106.78,-94.53 22.41,-33.68 29.39,-64.83 20.13,-109.67 -9.26,-44.84 -34.77,-103.39 -79.2,-148.66 -44.43,-45.27 -107.77,-77.27 -169.91,-99.74 -62.15,-22.46 -123.1,-35.39 -176.74,-38.34 -53.64,-2.95 -99.98,4.08 -145.19,20.04 -45.21,15.97 -89.3,40.88 -112.83,60.78 -23.53,19.91 -26.5,34.81 -32.45,54.93z"/>
     <path class="fil3" d="M10099.27 13902.38c-33.53,-6.68 -81.51,-12.77 -131.65,-7.08 -50.13,5.69 -102.42,23.15 -144.87,51.49 -42.45,28.33 -75.06,67.53 -91.05,118.57 -15.99,51.05 -15.36,113.92 2.63,180.07 17.99,66.15 53.34,135.56 81.17,198.05 27.82,62.49 48.11,118.06 60.74,180.03 12.62,61.98 17.58,130.37 16.42,188.63 -1.16,58.26 -8.44,106.39 -19.88,159.88 -11.45,53.5 -27.06,112.36 -26.8,172.26 0.25,59.9 16.38,120.83 55.14,169.24 38.77,48.4 100.18,84.28 164.1,91.99 63.93,7.71 130.37,-12.74 186.23,-40.33 55.86,-27.6 101.14,-62.34 134.64,-94.39 33.51,-32.06 55.25,-61.42 77.51,-91.46 22.26,-30.03 45.04,-60.74 81.67,-91.97 36.64,-31.24 87.13,-63 140.83,-98.2 53.69,-35.19 110.59,-73.81 157.94,-125.76 47.36,-51.96 85.17,-117.24 102.94,-187.87 17.76,-70.64 15.49,-146.63 -1.23,-207.48 -16.72,-60.86 -47.89,-106.59 -88.44,-145.08 -40.55,-38.5 -90.48,-69.76 -147.19,-97.14 -56.71,-27.39 -120.2,-50.9 -181.82,-78.87 -61.63,-27.98 -121.39,-60.43 -163.2,-84.85 -41.81,-24.41 -65.66,-40.79 -95.02,-62.52 -29.37,-21.74 -64.25,-48.84 -91.23,-66.04 -26.98,-17.19 -46.05,-24.48 -79.58,-31.17z"/>
    </g>
    <g>
     <path class="fil3" d="M7389.59 12006.5c-16.82,36.34 -39.92,79.64 -70.12,121.3 -30.21,41.66 -67.52,81.68 -105.3,113.64 -37.79,31.96 -76.05,55.86 -112.32,73.2 -36.28,17.34 -70.58,28.12 -107.19,32.76 -36.62,4.63 -75.56,3.12 -115.38,-16.84 -39.82,-19.96 -80.52,-58.36 -101.68,-110.49 -21.16,-52.12 -22.78,-117.97 -11.36,-177.54 11.42,-59.56 35.89,-112.84 69.59,-163.52 33.69,-50.67 76.6,-98.75 119.1,-138.98 42.5,-40.22 84.59,-72.59 136.03,-94.84 51.45,-22.26 112.25,-34.4 164.84,-23.18 52.6,11.21 96.99,45.79 124.24,97.92 27.24,52.13 37.33,121.81 37.11,171.33 -0.22,49.53 -10.75,78.9 -27.56,115.24z"/>
     <path class="fil4" d="M6404.62 12107.7c44.72,-27.55 102.79,-68.38 152.4,-113.04 49.61,-44.66 90.74,-93.15 117.67,-151.01 26.93,-57.85 39.66,-125.06 31.68,-175.55 -7.98,-50.48 -36.66,-84.24 -63.23,-110.95 -26.56,-26.72 -51.01,-46.4 -101.22,-53.79 -50.21,-7.39 -126.17,-2.49 -193.12,18.05 -66.95,20.54 -124.89,56.73 -178.73,99.48 -53.84,42.75 -103.58,92.05 -134.34,158.37 -30.76,66.33 -42.53,149.66 -35.99,206.36 6.54,56.7 31.4,86.77 57.93,111.6 26.53,24.84 54.74,44.46 94.94,54.68 40.2,10.22 92.39,11.06 134.16,4.34 41.77,-6.72 73.13,-20.98 117.85,-48.54z"/>
     <path class="fil4" d="M6011.01 11497.61c40.31,-14.54 91.41,-37.34 138.55,-65.26 47.14,-27.93 90.33,-60.98 127.5,-108.52 37.17,-47.53 68.34,-109.55 73.27,-167.34 4.94,-57.79 -16.36,-111.35 -51.46,-151.73 -35.1,-40.38 -84,-67.58 -141.79,-78.6 -57.79,-11.01 -124.46,-5.84 -194.76,13 -70.3,18.83 -144.22,51.33 -203.52,91.41 -59.31,40.08 -104,87.75 -133.93,138.36 -29.94,50.61 -45.12,104.16 -40.49,152.94 4.64,48.77 29.08,92.77 60.15,124.27 31.08,31.5 68.78,50.5 114.41,61.51 45.63,11.01 99.18,14.04 140.72,12.41 41.53,-1.63 71.04,-7.91 111.35,-22.45z"/>
     <path class="fil3" d="M6549.86 10458.95c-3.27,-22.27 -6,-50.96 -29.14,-84.37 -23.15,-33.41 -66.73,-71.54 -122.87,-101.82 -56.14,-30.28 -124.86,-52.7 -202.25,-53.75 -77.4,-1.04 -163.48,19.29 -230.5,48.24 -67.02,28.94 -114.98,66.5 -149.22,111.44 -34.24,44.94 -54.74,97.26 -61.38,140.16 -6.64,42.89 0.59,76.37 29.82,115.86 29.22,39.49 80.44,85 144.1,109.07 63.66,24.06 139.76,26.67 210.4,20.55 70.63,-6.13 135.8,-21.01 189.37,-42.3 53.56,-21.3 95.51,-49.03 132.34,-84.95 36.83,-35.92 68.54,-80.04 82.48,-110.02 13.94,-29.99 10.12,-45.84 6.85,-68.11z"/>
     <path class="fil3" d="M7680.53 11524.65c35.66,-8.6 85.12,-24.3 131.37,-52.43 46.26,-28.13 89.31,-68.7 117.87,-115.41 28.57,-46.72 42.66,-99.59 35.23,-156.49 -7.43,-56.91 -36.38,-117.85 -83.7,-174.15 -47.33,-56.3 -113.03,-107.96 -168.28,-156.28 -55.25,-48.31 -100.05,-93.27 -140.27,-147.93 -40.22,-54.66 -75.86,-119.02 -100.98,-176.27 -25.13,-57.25 -39.73,-107.4 -52.69,-164.64 -12.97,-57.25 -24.29,-121.6 -51.53,-179.81 -27.24,-58.21 -70.4,-110.28 -129.96,-139.94 -59.56,-29.66 -135.52,-36.92 -201.24,-15.63 -65.72,21.3 -121.2,71.15 -163.16,123.19 -41.96,52.04 -70.39,106.27 -88.57,152.58 -18.19,46.31 -26.12,84.7 -34.26,123.98 -8.14,39.27 -16.49,79.44 -38.08,126.36 -21.6,46.93 -56.46,100.61 -92.88,159.07 -36.43,58.47 -74.43,121.71 -97.13,193.64 -22.7,71.92 -30.1,152.53 -15.57,229.32 14.53,76.78 50.99,149.75 94.7,201.47 43.7,51.72 94.65,82.2 151.48,101.42 56.83,19.21 119.54,27.15 187.1,28.26 67.56,1.11 139.97,-4.61 212.58,-5.13 72.62,-0.53 145.44,4.14 197.15,9.07 51.71,4.93 82.31,10.13 120.7,18.07 38.39,7.93 84.56,18.6 118.58,23.19 34.02,4.58 55.88,3.09 91.54,-5.51z"/>
    </g>
    <g>
     <path class="fil3" d="M8488.41 19071.76c-23.98,-36.67 -50.77,-83.2 -71.92,-135.37 -21.15,-52.18 -36.66,-109.99 -44.42,-163.57 -7.75,-53.58 -7.75,-102.94 -2.82,-146.65 4.94,-43.71 14.81,-81.79 31.73,-118.45 16.92,-36.66 40.89,-71.91 82.49,-97.29 41.6,-25.39 100.82,-40.9 161.46,-30.32 60.63,10.58 122.67,47.24 171.32,92.36 48.65,45.12 83.9,98.71 111.4,159.34 27.49,60.63 47.24,128.32 59.93,191.07 12.69,62.74 18.33,120.56 9.16,181.19 -9.16,60.64 -33.13,124.09 -74.03,166.39 -40.89,42.3 -98.7,63.46 -162.86,58.52 -64.16,-4.94 -134.67,-35.96 -180.49,-64.86 -45.83,-28.91 -66.98,-55.7 -90.95,-92.36z"/>
     <path class="fil4" d="M8965.36 18099.15c-0.35,57.46 3.88,135.02 16.57,206.93 12.69,71.92 33.84,138.19 71.92,196.71 38.07,58.52 93.06,109.28 144.53,131.14 51.47,21.85 99.41,14.8 139.6,5.64 40.19,-9.17 72.62,-20.45 108.58,-62.75 35.95,-42.3 75.43,-115.63 95.18,-189.66 19.74,-74.03 19.74,-148.76 11.28,-223.5 -8.46,-74.73 -25.39,-149.46 -69.1,-216.44 -43.71,-66.98 -114.22,-126.21 -170.62,-153 -56.4,-26.79 -98.7,-21.15 -137.13,-10.93 -38.42,10.23 -72.97,25.03 -105.76,56.41 -32.78,31.37 -63.8,79.31 -81.78,121.97 -17.98,42.65 -22.91,80.02 -23.27,137.48z"/>
     <path class="fil4" d="M9759.59 18087.52c-9.87,45.83 -18.33,106.46 -19.74,166.39 -1.41,59.93 4.23,119.15 26.79,181.19 22.56,62.05 62.05,126.91 112.81,164.98 50.76,38.08 112.81,49.36 170.62,40.19 57.81,-9.16 111.4,-38.78 155.11,-86.01 43.71,-47.24 77.55,-112.11 100.82,-188.25 23.27,-76.14 35.96,-163.57 33.14,-241.83 -2.82,-78.26 -21.15,-147.35 -50.77,-204.46 -29.61,-57.11 -70.5,-102.23 -118.44,-126.2 -47.95,-23.98 -102.94,-26.79 -150.18,-16.22 -47.23,10.58 -86.72,34.55 -123.38,70.5 -36.66,35.96 -70.5,83.9 -93.07,123.39 -22.56,39.48 -33.84,70.5 -43.71,116.33z"/>
     <path class="fil3" d="M10411.05 19189.5c22.56,9.87 50.76,23.97 95.18,21.86 44.42,-2.12 105.05,-20.45 165.69,-55 60.63,-34.54 121.26,-85.31 167.09,-156.51 45.83,-71.21 76.85,-162.87 88.84,-241.83 11.98,-78.97 4.93,-145.24 -16.92,-203.06 -21.86,-57.81 -58.52,-107.16 -94.48,-138.18 -35.96,-31.03 -71.21,-43.72 -124.79,-39.49 -53.58,4.23 -125.5,25.38 -184.72,70.51 -59.23,45.12 -105.76,114.21 -141.01,183.31 -35.25,69.09 -59.22,138.19 -70.51,200.23 -11.28,62.04 -9.87,117.04 2.12,172.03 11.99,54.99 34.55,109.99 54.29,140.3 19.74,30.32 36.66,35.96 59.22,45.83z"/>
     <path class="fil3" d="M8766.89 19620.99c-12.69,38.07 -26.79,93.06 -27.5,152.29 -0.7,59.22 11.99,122.67 38.78,176.26 26.79,53.58 67.68,97.29 124.79,123.38 57.11,26.08 130.44,34.55 210.11,23.27 79.67,-11.29 165.68,-42.31 242.53,-65.57 76.85,-23.27 144.53,-38.78 218.56,-44.42 74.03,-5.64 154.41,-1.41 222.09,8.46 67.69,9.87 122.68,25.38 183.31,46.53 60.64,21.15 126.91,47.94 196.71,56.41 69.8,8.46 143.12,-1.42 205.17,-39.49 62.04,-38.07 112.8,-104.34 131.13,-177.67 18.33,-73.32 4.23,-153.7 -19.74,-222.79 -23.97,-69.1 -57.81,-126.91 -90.24,-170.62 -32.44,-43.71 -63.46,-73.33 -95.18,-103.64 -31.73,-30.32 -64.16,-61.34 -95.18,-108.58 -31.03,-47.24 -60.64,-110.69 -93.78,-178.37 -33.13,-67.69 -69.79,-139.6 -123.38,-202.35 -53.58,-62.75 -124.08,-116.33 -203.75,-147.36 -79.67,-31.02 -168.51,-39.48 -241.83,-28.9 -73.33,10.57 -131.14,40.19 -181.91,81.78 -50.76,41.6 -94.47,95.18 -134.66,157.23 -40.18,62.04 -76.85,132.55 -118.44,200.23 -41.6,67.68 -88.13,132.55 -122.68,177.67 -34.55,45.12 -57.11,70.5 -86.72,101.53 -29.61,31.02 -66.28,67.68 -90.25,96.59 -23.97,28.9 -35.25,50.05 -47.94,88.13z"/>
    </g>
    <g>
     <path class="fil3" d="M1260.57 19674.98c-37.69,-14.98 -82.77,-35.93 -126.58,-64.16 -43.82,-28.23 -86.37,-63.73 -120.79,-100.16 -34.43,-36.43 -60.73,-73.8 -80.29,-109.52 -19.55,-35.72 -32.37,-69.8 -39.1,-106.58 -6.72,-36.77 -7.36,-76.23 10.6,-117.61 17.97,-41.38 54.54,-84.69 106.08,-108.99 51.54,-24.31 118.04,-29.61 178.92,-21.38 60.87,8.24 116.11,30.02 169.24,61.27 53.13,31.25 104.14,71.97 147.19,112.71 43.04,40.74 78.12,81.5 103.49,132.29 25.38,50.79 41.04,111.6 32.63,165.41 -8.42,53.82 -40.91,100.64 -92.11,131.09 -51.21,30.46 -121.11,44.54 -171.21,47.08 -50.1,2.54 -80.39,-6.47 -118.07,-21.45z"/>
     <path class="fil4" d="M1103.36 18684.5c30.35,43.69 74.88,100.15 122.81,147.83 47.93,47.68 99.26,86.58 159.27,110.59 60,24.02 128.69,33.14 179.3,22.26 50.61,-10.88 83.15,-41.77 108.69,-70.12 25.54,-28.35 44.08,-54.18 48.76,-105.36 4.67,-51.19 -4.51,-127.74 -29.02,-194.3 -24.5,-66.57 -64.33,-123.14 -110.56,-175.21 -46.23,-52.07 -98.86,-99.63 -167.65,-127.04 -68.78,-27.42 -153.72,-34.68 -210.69,-24.91 -56.98,9.78 -86,36.59 -109.64,64.81 -23.64,28.21 -41.91,57.83 -50.01,99.05 -8.1,41.22 -6.03,94.05 3.09,135.92 9.12,41.88 25.29,72.79 55.65,116.48z"/>
     <path class="fil4" d="M1698.43 18252.46c16.94,39.95 42.85,90.36 73.72,136.48 30.87,46.12 66.7,87.95 116.84,122.9 50.14,34.95 114.6,63.01 173.31,64.78 58.72,1.77 111.7,-22.75 150.59,-60.49 38.88,-37.75 63.67,-88.72 71.59,-147.78 7.92,-59.05 -1.03,-126.19 -23.99,-196.24 -22.97,-70.04 -59.95,-142.99 -103.78,-200.73 -43.84,-57.75 -94.54,-100.28 -147.39,-127.74 -52.85,-27.45 -107.85,-39.82 -156.92,-32.42 -49.07,7.4 -92.21,34.57 -122.33,67.75 -30.13,33.18 -47.24,72.37 -55.84,119.12 -8.59,46.76 -8.66,101.09 -4.7,143.01 3.96,41.91 11.95,71.4 28.9,111.36z"/>
     <path class="fil3" d="M2778.85 18739.55c22.34,-4.55 51.2,-8.9 83.7,-34.17 32.5,-25.27 68.64,-71.46 96.13,-129.92 27.49,-58.47 46.34,-129.21 43.09,-207.54 -3.25,-78.33 -28.61,-164.25 -61.62,-230.42 -33,-66.16 -73.66,-112.58 -121.01,-144.7 -47.36,-32.12 -101.41,-49.95 -145.16,-54.27 -43.76,-4.32 -77.21,4.85 -115.52,36.61 -38.31,31.76 -81.48,86.09 -102.27,151.81 -20.79,65.72 -19.2,142.83 -9.07,213.92 10.14,71.09 28.81,136.17 53.33,189.16 24.52,52.98 54.9,93.86 93.28,129.1 38.38,35.25 84.76,64.86 115.86,77.29 31.1,12.43 46.92,7.68 69.26,3.13z"/>
     <path class="fil3" d="M1764.07 19942.37c10.68,35.58 29.31,84.73 60.34,129.94 31.03,45.21 74.45,86.49 123.28,112.78 48.84,26.28 103.09,37.59 160.23,26.9 57.13,-10.68 117.15,-43.35 171.45,-94.35 54.31,-50.99 102.89,-120.31 148.67,-178.88 45.78,-58.57 88.76,-106.38 141.8,-150.1 53.03,-43.72 116.14,-83.35 172.64,-111.94 56.5,-28.6 106.39,-46.16 163.57,-62.46 57.17,-16.3 121.62,-31.33 178.97,-62.12 57.35,-30.79 107.6,-77.34 134.28,-139.22 26.68,-61.89 29.8,-139.11 4.6,-204.39 -25.19,-65.28 -78.7,-118.61 -133.67,-158.14 -54.97,-39.54 -111.39,-65.27 -159.24,-81.08 -47.85,-15.81 -87.11,-21.7 -127.29,-27.74 -40.17,-6.05 -81.25,-12.25 -129.91,-31.48 -48.66,-19.23 -104.89,-51.49 -166.04,-85.07 -61.16,-33.58 -127.24,-68.49 -201.24,-87.44 -74,-18.95 -155.93,-21.94 -232.78,-2.97 -76.84,18.97 -148.6,59.91 -198.48,106.99 -49.87,47.08 -77.86,100.3 -94.12,158.85 -16.27,58.54 -20.8,122.4 -18.17,190.78 2.64,68.39 12.46,141.3 17.04,214.71 4.57,73.4 3.91,147.3 1.8,199.87 -2.11,52.57 -5.66,83.81 -11.55,123.08 -5.88,39.26 -14.1,86.55 -16.85,121.21 -2.74,34.66 -0.01,56.68 10.67,92.27z"/>
    </g>
    <g>
     <path class="fil3" d="M1704.87 15401.09c-19.08,-29.19 -40.41,-66.23 -57.25,-107.77 -16.84,-41.53 -29.19,-87.56 -35.36,-130.22 -6.18,-42.66 -6.18,-81.95 -2.25,-116.75 3.93,-34.8 11.79,-65.11 25.26,-94.3 13.47,-29.19 32.56,-57.25 65.67,-77.46 33.12,-20.21 80.27,-32.55 128.54,-24.13 48.27,8.42 97.67,37.6 136.4,73.53 38.73,35.92 66.79,78.58 88.68,126.85 21.89,48.27 37.61,102.16 47.71,152.11 10.11,49.96 14.6,95.99 7.3,144.26 -7.3,48.27 -26.38,98.79 -58.94,132.46 -32.55,33.68 -78.58,50.52 -129.66,46.59 -51.07,-3.93 -107.21,-28.62 -143.69,-51.64 -36.48,-23.01 -53.32,-44.34 -72.41,-73.53z"/>
     <path class="fil4" d="M2084.59 14626.78c-0.28,45.74 3.09,107.49 13.19,164.74 10.1,57.25 26.94,110.02 57.25,156.6 30.31,46.59 74.1,87.01 115.07,104.41 40.98,17.4 79.14,11.78 111.14,4.49 31.99,-7.3 57.81,-16.28 86.44,-49.96 28.63,-33.68 60.06,-92.05 75.77,-150.99 15.72,-58.94 15.72,-118.43 8.99,-177.93 -6.74,-59.5 -20.21,-119 -55.01,-172.32 -34.8,-53.33 -90.93,-100.47 -135.84,-121.8 -44.9,-21.33 -78.58,-16.84 -109.17,-8.7 -30.59,8.13 -58.1,19.92 -84.2,44.9 -26.1,24.98 -50.79,63.15 -65.11,97.1 -14.31,33.96 -18.24,63.71 -18.52,109.46z"/>
     <path class="fil4" d="M2716.9 14617.52c-7.86,36.48 -14.6,84.75 -15.72,132.46 -1.12,47.71 3.37,94.86 21.33,144.26 17.96,49.39 49.39,101.03 89.81,131.34 40.41,30.31 89.81,39.29 135.83,32 46.03,-7.3 88.69,-30.87 123.49,-68.48 34.8,-37.61 61.74,-89.25 80.27,-149.87 18.52,-60.62 28.62,-130.22 26.38,-192.53 -2.25,-62.3 -16.84,-117.31 -40.42,-162.77 -23.57,-45.47 -56.13,-81.39 -94.3,-100.48 -38.16,-19.08 -81.95,-21.33 -119.55,-12.91 -37.61,8.42 -69.04,27.51 -98.23,56.13 -29.19,28.63 -56.13,66.8 -74.09,98.23 -17.96,31.43 -26.95,56.13 -34.8,92.62z"/>
     <path class="fil3" d="M3235.54 15494.83c17.96,7.86 40.41,19.09 75.78,17.4 35.36,-1.68 83.63,-16.27 131.9,-43.78 48.27,-27.5 96.55,-67.92 133.03,-124.61 36.49,-56.69 61.18,-129.66 70.72,-192.52 9.55,-62.87 3.93,-115.63 -13.47,-161.66 -17.4,-46.03 -46.59,-85.32 -75.21,-110.01 -28.63,-24.7 -56.69,-34.81 -99.35,-31.44 -42.66,3.37 -99.91,20.21 -147.06,56.13 -47.15,35.93 -84.2,90.93 -112.26,145.94 -28.07,55.01 -47.15,110.02 -56.13,159.41 -8.98,49.4 -7.86,93.18 1.68,136.96 9.54,43.78 27.5,87.56 43.22,111.7 15.72,24.13 29.19,28.62 47.15,36.48z"/>
     <path class="fil3" d="M1926.58 15838.35c-10.1,30.31 -21.33,74.09 -21.89,121.24 -0.56,47.15 9.54,97.67 30.87,140.33 21.33,42.66 53.89,77.46 99.35,98.22 45.47,20.77 103.84,27.51 167.27,18.53 63.43,-8.98 131.91,-33.68 193.09,-52.2 61.18,-18.53 115.06,-30.88 174,-35.36 58.94,-4.5 122.93,-1.13 176.81,6.73 53.89,7.86 97.67,20.21 145.94,37.05 48.27,16.83 101.03,38.16 156.6,44.9 55.57,6.74 113.95,-1.12 163.34,-31.43 49.4,-30.31 89.81,-83.08 104.4,-141.45 14.6,-58.38 3.37,-122.36 -15.71,-177.37 -19.09,-55.01 -46.03,-101.04 -71.85,-135.84 -25.82,-34.8 -50.52,-58.37 -75.78,-82.51 -25.25,-24.13 -51.07,-48.83 -75.77,-86.44 -24.7,-37.61 -48.27,-88.12 -74.65,-142.01 -26.38,-53.88 -55.57,-111.14 -98.23,-161.09 -42.66,-49.96 -98.79,-92.62 -162.22,-117.31 -63.42,-24.7 -134.15,-31.44 -192.52,-23.02 -58.38,8.42 -104.41,32 -144.82,65.11 -40.41,33.12 -75.21,75.78 -107.21,125.17 -31.99,49.4 -61.18,105.53 -94.3,159.41 -33.11,53.89 -70.16,105.53 -97.66,141.45 -27.51,35.92 -45.47,56.13 -69.05,80.83 -23.57,24.7 -52.76,53.88 -71.84,76.9 -19.09,23.01 -28.07,39.85 -38.17,70.16z"/>
    </g>
   </g>
  </g>
 </g>
</svg>
