<svg width="3840" height="2160" viewBox="0 0 3840 2160" fill="none" xmlns="http://www.w3.org/2000/svg">
<path fill-rule="evenodd" clip-rule="evenodd" d="M406.01 1284.93C411.285 1286.39 417.641 1288.57 423.951 1291.8C430.258 1295.03 436.519 1299.31 441.711 1303.86C446.903 1308.42 451.026 1313.25 454.223 1317.96C457.42 1322.68 459.691 1327.28 461.194 1332.37C462.697 1337.45 463.432 1343.03 461.717 1349.2C460.003 1355.37 455.837 1362.14 449.363 1366.48C442.891 1370.82 434.108 1372.74 425.852 1372.64C417.597 1372.53 409.871 1370.41 402.27 1366.92C394.669 1363.43 387.193 1358.55 380.781 1353.54C374.368 1348.53 369.018 1343.37 364.797 1336.62C360.578 1329.88 357.486 1321.54 357.722 1313.78C357.958 1306.01 361.522 1298.82 367.85 1293.61C374.177 1288.41 383.267 1285.19 389.909 1283.96C396.548 1282.72 400.736 1283.47 406.01 1284.93Z" fill="#FEFEFE" fill-opacity="0.321569"/>
<path fill-rule="evenodd" clip-rule="evenodd" d="M443.294 1422.39C438.525 1416.73 431.654 1409.52 424.478 1403.61C417.3 1397.69 409.813 1393.08 401.413 1390.74C393.015 1388.38 383.701 1388.29 377.131 1390.72C370.559 1393.14 366.73 1398.08 363.788 1402.55C360.85 1407 358.801 1410.99 359.022 1418.31C359.24 1425.64 361.725 1436.31 366.091 1445.31C370.457 1454.3 376.699 1461.61 383.721 1468.18C390.746 1474.74 398.549 1480.55 408.176 1483.23C417.803 1485.91 429.249 1485.45 436.69 1483.07C444.128 1480.69 447.557 1476.39 450.244 1471.98C452.934 1467.57 454.884 1463.06 455.285 1457.09C455.686 1451.11 454.539 1443.67 452.636 1437.9C450.727 1432.13 448.062 1428.04 443.294 1422.39Z" fill="#FEFEFE" fill-opacity="0.321569"/>
<path fill-rule="evenodd" clip-rule="evenodd" d="M371.038 1493.94C368.119 1488.59 363.835 1481.9 358.957 1475.91C354.081 1469.93 348.613 1464.63 341.348 1460.56C334.086 1456.49 325.027 1453.64 317.165 1454.42C309.304 1455.19 302.64 1459.59 298.076 1465.61C293.512 1471.64 291.045 1479.29 290.963 1487.78C290.878 1496.28 293.178 1505.63 297.392 1515.14C301.609 1524.66 307.745 1534.34 314.542 1541.75C321.342 1549.15 328.803 1554.29 336.306 1557.25C343.806 1560.21 351.347 1561 357.77 1559.1C364.191 1557.19 369.499 1552.59 372.97 1547.37C376.441 1542.14 378.078 1536.3 378.456 1529.53C378.832 1522.76 377.946 1515.07 376.726 1509.2C375.508 1503.34 373.959 1499.3 371.038 1493.94Z" fill="#FEFEFE" fill-opacity="0.321569"/>
<path fill-rule="evenodd" clip-rule="evenodd" d="M218.909 1443.88C216.004 1444.92 212.226 1446.04 208.307 1450.18C204.389 1454.33 200.33 1461.5 197.627 1470.25C194.922 1479.01 193.573 1489.35 195.296 1500.38C197.019 1511.42 201.819 1523.13 207.31 1531.92C212.802 1540.71 218.989 1546.57 225.836 1550.29C232.68 1554.01 240.185 1555.59 246.089 1555.43C251.996 1555.28 256.308 1553.4 260.895 1548.23C265.481 1543.07 270.344 1534.62 272.034 1524.96C273.723 1515.29 272.243 1504.4 269.72 1494.52C267.198 1484.63 263.636 1475.74 259.492 1468.67C255.349 1461.6 250.624 1456.35 244.925 1452.03C239.225 1447.71 232.55 1444.33 228.198 1443.11C223.845 1441.9 221.815 1442.85 218.909 1443.88Z" fill="#FEFEFE" fill-opacity="0.321569"/>
<path fill-rule="evenodd" clip-rule="evenodd" d="M334.449 1255.88C332.438 1251.03 329.143 1244.4 324.261 1238.54C319.378 1232.68 312.906 1227.6 305.959 1224.73C299.011 1221.86 291.59 1221.21 284.145 1223.72C276.7 1226.23 269.233 1231.91 262.829 1240.08C256.426 1248.24 251.087 1258.91 245.947 1268C240.806 1277.09 235.863 1284.61 229.507 1291.72C223.153 1298.84 215.389 1305.55 208.325 1310.59C201.258 1315.62 194.893 1318.98 187.534 1322.28C180.178 1325.59 171.829 1328.85 164.687 1334.21C157.545 1339.57 151.609 1347.03 149.069 1356.26C146.528 1365.49 147.388 1376.48 151.823 1385.27C156.258 1394.07 164.273 1400.69 172.257 1405.32C180.239 1409.96 188.189 1412.62 194.833 1414.02C201.474 1415.42 206.808 1415.56 212.265 1415.72C217.722 1415.87 223.306 1416.03 230.112 1417.9C236.921 1419.78 244.949 1423.36 253.661 1427.04C262.369 1430.73 271.76 1434.51 281.941 1435.9C292.125 1437.29 303.101 1436.28 313.037 1432.25C322.974 1428.23 331.873 1421.18 337.75 1413.64C343.626 1406.11 346.482 1398.08 347.689 1389.51C348.891 1380.94 348.446 1371.82 346.968 1362.19C345.489 1352.55 342.98 1342.4 341.161 1332.09C339.34 1321.78 338.211 1311.31 337.626 1303.83C337.042 1296.35 337.002 1291.87 337.14 1286.21C337.278 1280.54 337.597 1273.71 337.39 1268.75C337.187 1263.8 336.459 1260.73 334.449 1255.88Z" fill="#FEFEFE" fill-opacity="0.321569"/>
<path d="M4350.32 -232H-268V2525H4350.32V-232Z" fill="#FEFEFE"/>
<path d="M4350.32 -232H-268V2525H4350.32V-232Z" fill="url(#paint0_radial_1:5)"/>
<path fill-rule="evenodd" clip-rule="evenodd" d="M3843.21 1628.93C3835.05 1630.32 3824.97 1631.41 3814.36 1631.02C3803.74 1630.62 3792.59 1628.73 3782.76 1625.77C3772.94 1622.81 3764.44 1618.78 3757.29 1614.31C3750.14 1609.83 3744.34 1604.92 3739.33 1598.83C3734.31 1592.74 3730.09 1585.48 3728.92 1575.8C3727.75 1566.12 3729.64 1554.03 3736.12 1543.81C3742.61 1533.59 3753.71 1525.24 3765.23 1520.03C3776.74 1514.83 3788.69 1512.76 3801.25 1512.69C3813.81 1512.62 3826.99 1514.54 3838.77 1517.35C3850.56 1520.15 3860.95 1523.85 3870.69 1530.47C3880.43 1537.1 3889.51 1546.67 3893.65 1557.6C3897.79 1568.53 3896.98 1580.83 3891.19 1592.16C3885.4 1603.48 3874.63 1613.84 3866.12 1619.85C3857.62 1625.87 3851.37 1627.55 3843.21 1628.93Z" fill="#FEFEFE" fill-opacity="0.321569"/>
<path fill-rule="evenodd" clip-rule="evenodd" d="M3712.4 1462.27C3722.27 1467.03 3735.96 1472.6 3749.32 1476.15C3762.68 1479.71 3775.73 1481.26 3788.74 1479.08C3801.75 1476.9 3814.73 1470.99 3822.46 1463.37C3830.18 1455.75 3832.66 1446.41 3834.18 1438.31C3835.69 1430.22 3836.24 1423.37 3831.73 1413.34C3827.21 1403.3 3817.62 1390.1 3806.38 1380.44C3795.15 1370.78 3782.28 1364.67 3768.76 1360.12C3755.23 1355.56 3741.05 1352.54 3726.15 1355.06C3711.25 1357.58 3695.62 1365.63 3686.66 1373.75C3677.71 1381.87 3675.42 1390.07 3674.22 1397.93C3673.03 1405.79 3672.91 1413.31 3675.8 1421.87C3678.68 1430.43 3684.55 1440.01 3690.51 1446.79C3696.47 1453.56 3702.53 1457.51 3712.4 1462.27Z" fill="#FEFEFE" fill-opacity="0.321569"/>
<path fill-rule="evenodd" clip-rule="evenodd" d="M3771.54 1316.13C3778.68 1321.68 3788.47 1328.18 3798.68 1333.33C3808.9 1338.49 3819.53 1342.3 3831.96 1343.24C3844.38 1344.19 3858.59 1342.27 3869.06 1336.1C3879.53 1329.93 3886.25 1319.51 3889.12 1308.19C3891.99 1296.87 3891.02 1284.66 3886.24 1272.81C3881.47 1260.96 3872.91 1249.47 3861.58 1239C3850.25 1228.52 3836.17 1219.06 3822.48 1213.18C3808.78 1207.3 3795.46 1205.01 3783.35 1205.75C3771.23 1206.5 3760.31 1210.29 3752.49 1217.1C3744.67 1223.9 3739.95 1233.72 3738.13 1243.22C3736.32 1252.72 3737.41 1261.9 3740.78 1271.54C3744.15 1281.18 3749.81 1291.28 3754.87 1298.63C3759.93 1305.98 3764.41 1310.58 3771.54 1316.13Z" fill="#FEFEFE" fill-opacity="0.321569"/>
<path fill-rule="evenodd" clip-rule="evenodd" d="M3133.34 343.672C3130.3 353.062 3125.98 364.33 3119.96 375.376C3113.94 386.423 3106.24 397.245 3098.23 406.091C3090.22 414.938 3081.9 421.809 3073.89 427.012C3065.88 432.212 3058.17 435.749 3049.77 437.826C3041.37 439.906 3032.29 440.527 3022.55 436.621C3012.82 432.716 3002.44 424.285 2996.27 411.97C2990.09 399.655 2988.13 383.457 2989.36 368.477C2990.58 353.496 2994.98 339.733 3001.59 326.373C3008.2 313.016 3017.01 300.063 3025.92 289.059C3034.83 278.053 3043.83 268.996 3055.25 262.194C3066.67 255.394 3080.51 250.845 3093 252.267C3105.49 253.692 3116.64 261.086 3124.22 273.245C3131.8 285.404 3135.83 302.332 3136.97 314.55C3138.11 326.77 3136.37 334.282 3133.34 343.672Z" fill="#FEFEFE" fill-opacity="0.321569"/>
<path fill-rule="evenodd" clip-rule="evenodd" d="M2906.89 393.783C2916.62 385.846 2929.13 374.294 2939.59 362.012C2950.04 349.733 2958.43 336.723 2963.3 321.768C2968.16 306.814 2969.5 289.915 2966.43 277.668C2963.36 265.421 2955.89 257.83 2949.07 251.92C2942.26 246.008 2936.1 241.781 2924.26 241.24C2912.41 240.699 2894.88 243.846 2879.81 250.623C2864.75 257.399 2852.16 267.803 2840.68 279.719C2829.19 291.637 2818.82 305.068 2813.27 322.208C2807.72 339.348 2806.99 360.2 2809.87 374.016C2812.76 387.834 2819.26 394.612 2826.02 400.059C2832.78 405.508 2839.81 409.624 2849.4 411.119C2858.98 412.613 2871.13 411.486 2880.68 408.764C2890.22 406.039 2897.16 401.72 2906.89 393.783Z" fill="#FEFEFE" fill-opacity="0.321569"/>
<path fill-rule="evenodd" clip-rule="evenodd" d="M2800.75 253.381C2809.77 248.766 2821.09 241.838 2831.37 233.748C2841.66 225.655 2850.89 216.402 2858.39 203.73C2865.89 191.058 2871.63 174.97 2871.39 160.592C2871.15 146.214 2864.91 133.549 2855.78 124.488C2846.65 115.426 2834.63 109.966 2820.94 108.725C2807.25 107.485 2791.88 110.464 2776 116.903C2760.12 123.344 2743.72 133.244 2730.9 144.643C2718.09 156.043 2708.85 168.94 2703.11 182.186C2697.37 195.432 2695.14 209.025 2697.39 220.934C2699.63 232.845 2706.37 243.072 2714.35 250.047C2722.33 257.022 2731.55 260.743 2742.42 262.293C2753.28 263.843 2765.8 263.222 2775.41 261.759C2785.03 260.297 2791.73 257.995 2800.75 253.381Z" fill="#FEFEFE" fill-opacity="0.321569"/>
<path fill-rule="evenodd" clip-rule="evenodd" d="M2900.97 -16.5243C2899.67 -21.9328 2898.35 -28.9387 2892.17 -36.5872C2885.98 -44.2334 2874.94 -52.5247 2861.17 -58.5571C2847.39 -64.5918 2830.89 -68.3653 2812.88 -66.6475C2794.86 -64.9297 2775.35 -57.7159 2760.48 -48.8671C2745.6 -40.0182 2735.36 -29.5295 2728.48 -17.5735C2721.61 -5.61749 2718.1 7.81054 2717.59 18.5591C2717.08 29.3077 2719.57 37.3769 2727.31 46.3698C2735.05 55.3628 2748.05 65.2773 2763.42 69.5871C2778.79 73.8946 2796.54 72.5974 2812.8 69.2823C2829.07 65.9672 2843.85 60.6342 2855.79 54.0136C2867.72 47.3929 2876.8 39.4844 2884.5 29.6857C2892.19 19.887 2898.5 8.19801 2901.02 0.445518C2903.54 -7.30461 2902.26 -11.1157 2900.97 -16.5243Z" fill="#FEFEFE" fill-opacity="0.321569"/>
<path fill-rule="evenodd" clip-rule="evenodd" d="M3189.35 217.413C3197.43 214.382 3208.54 209.247 3218.61 201.129C3228.68 193.01 3237.71 181.907 3243.22 169.658C3248.74 157.407 3250.74 144.009 3247.64 130.165C3244.55 116.321 3236.35 102.031 3224 89.3566C3211.65 76.68 3195.14 65.6172 3181.14 55.1143C3167.14 44.6115 3155.65 34.6686 3144.99 22.2141C3134.32 9.76187 3124.5 -5.19962 3117.28 -18.6749C3110.06 -32.1526 3105.46 -44.1462 3101.07 -57.9334C3096.68 -71.7206 3092.5 -87.3013 3084.77 -100.961C3077.04 -114.621 3065.76 -126.357 3051.21 -132.15C3036.65 -137.947 3018.83 -137.798 3004.07 -130.868C2989.31 -123.937 2977.62 -110.225 2969.12 -96.3201C2960.62 -82.4148 2955.32 -68.3159 2952.21 -56.4308C2949.1 -44.5457 2948.18 -34.8768 2947.23 -24.9812C2946.29 -15.088 2945.31 -4.97029 2941.42 7.15347C2937.53 19.2772 2930.73 33.4046 2923.67 48.7536C2916.61 64.1026 2909.3 80.6685 2905.76 98.9852C2902.22 117.304 2902.44 137.37 2907.66 155.935C2912.88 174.499 2923.11 191.564 2934.51 203.203C2945.91 214.843 2958.49 221.059 2972.15 224.346C2985.82 227.63 3000.58 227.987 3016.31 226.536C3032.03 225.086 3048.72 221.827 3065.58 219.842C3082.44 217.858 3099.48 217.149 3111.61 217.045C3123.75 216.941 3130.98 217.442 3140.09 218.418C3149.21 219.396 3160.19 220.847 3168.21 221.109C3176.22 221.371 3181.27 220.445 3189.35 217.413Z" fill="#FEFEFE" fill-opacity="0.321569"/>
<path fill-rule="evenodd" clip-rule="evenodd" d="M3402.37 142.924C3403.68 124.017 3406.51 100.977 3412.57 77.4781C3418.63 53.9796 3427.91 30.0204 3438.65 9.5558C3449.4 -10.9112 3461.62 -27.8834 3474.04 -41.621C3486.45 -55.3586 3499.07 -65.8616 3513.63 -74.0252C3528.19 -82.1889 3544.68 -88.018 3564.44 -85.8205C3584.21 -83.6231 3607.24 -73.4039 3624.27 -53.8395C3641.3 -34.2775 3652.33 -5.37027 3656.93 22.9248C3661.53 51.2222 3659.69 78.91 3653.6 106.985C3647.5 135.061 3637.15 163.526 3625.73 188.44C3614.31 213.353 3601.83 234.718 3583.85 253.165C3565.88 271.612 3542.4 287.138 3518.68 290.947C3494.96 294.753 3470.99 286.843 3451.42 268.294C3431.85 249.744 3416.68 220.555 3408.99 198.579C3401.29 176.599 3401.06 161.829 3402.37 142.924Z" fill="#FEFEFE" fill-opacity="0.321569"/>
<path fill-rule="evenodd" clip-rule="evenodd" d="M3797.65 -66.3004C3783.31 -46.6322 3765.49 -18.8477 3751.8 9.21812C3738.12 37.2863 3728.57 65.6335 3726.42 95.7596C3724.28 125.886 3729.54 157.789 3740.81 178.825C3752.08 199.862 3769.36 210.029 3784.65 217.432C3799.94 224.834 3813.24 229.475 3835.37 224.371C3857.49 219.265 3888.43 204.417 3913.15 184.142C3937.87 163.866 3956.36 138.163 3972.12 110.239C3987.87 82.3126 4000.89 52.1676 4003.3 17.6489C4005.71 -16.8675 3997.52 -55.7551 3985.87 -79.7852C3974.22 -103.813 3959.12 -112.985 3944.14 -119.561C3929.15 -126.137 3914.29 -130.121 3895.9 -127.94C3877.52 -125.761 3855.6 -117.42 3839.21 -107.473C3822.83 -97.5254 3811.98 -85.9711 3797.65 -66.3004Z" fill="#FEFEFE" fill-opacity="0.321569"/>
<path fill-rule="evenodd" clip-rule="evenodd" d="M3356.68 404.964C3343.15 414.725 3324.97 429.934 3310.08 450.118C3295.2 470.301 3283.61 495.458 3279.03 520.925C3274.45 546.39 3276.88 572.163 3288.93 596.137C3300.98 620.108 3322.65 642.276 3351.26 659.324C3379.87 676.369 3415.42 688.292 3446.09 700.477C3476.75 712.66 3502.52 725.103 3527.91 742.609C3553.29 760.113 3578.29 782.678 3597.78 803.852C3617.28 825.025 3631.26 844.805 3645.67 868.005C3660.09 891.204 3674.93 917.826 3695.46 939.07C3715.98 960.312 3742.19 976.176 3771.72 979.38C3801.25 982.582 3834.1 973.123 3858.19 952.72C3882.28 932.315 3897.6 900.97 3906.93 870.909C3916.26 840.849 3919.61 812.077 3919.91 788.527C3920.22 764.974 3917.5 746.64 3914.72 727.879C3911.94 709.121 3909.11 689.932 3910.75 665.538C3912.38 641.144 3918.49 611.543 3924.5 579.562C3930.52 547.578 3936.43 513.215 3934.6 477.562C3932.77 441.907 3923.18 404.959 3905.04 373.363C3886.9 341.77 3860.2 315.526 3833.82 299.902C3807.45 284.282 3781.38 279.28 3754.64 280.253C3727.89 281.227 3700.46 288.173 3672.08 298.955C3643.7 309.739 3614.37 324.355 3584.14 336.708C3553.91 349.061 3522.78 359.146 3500.42 365.592C3478.05 372.035 3464.46 374.84 3447.18 377.73C3429.91 380.622 3408.96 383.601 3394.03 387.247C3379.11 390.893 3370.22 395.203 3356.68 404.964Z" fill="#FEFEFE" fill-opacity="0.321569"/>
<path fill-rule="evenodd" clip-rule="evenodd" d="M2562.98 1779.7C2563.07 1765.78 2564.1 1748.74 2567.47 1731.21C2570.85 1713.67 2576.56 1695.63 2583.51 1680.08C2590.45 1664.53 2598.64 1651.46 2607.11 1640.75C2615.59 1630.05 2624.36 1621.7 2634.67 1614.97C2644.96 1608.24 2656.79 1603.12 2671.38 1603.72C2685.96 1604.32 2703.31 1610.63 2716.69 1624.1C2730.06 1637.57 2739.46 1658.19 2744.12 1678.7C2748.78 1699.2 2748.69 1719.59 2745.5 1740.49C2742.31 1761.38 2736.01 1782.77 2728.78 1801.62C2721.54 1820.47 2713.36 1836.77 2701.03 1851.21C2688.69 1865.66 2672.19 1878.24 2654.97 1882.25C2637.76 1886.25 2619.83 1881.68 2604.64 1869.09C2589.45 1856.49 2577 1835.88 2570.36 1820.16C2563.72 1804.44 2562.88 1793.63 2562.98 1779.7Z" fill="#FEFEFE" fill-opacity="0.321569"/>
<path fill-rule="evenodd" clip-rule="evenodd" d="M2843.21 1606.08C2833.6 1621.23 2821.79 1642.51 2813.04 1663.79C2804.28 1685.06 2798.57 1706.33 2798.37 1728.53C2798.17 1750.72 2803.48 1773.84 2812.69 1788.68C2821.91 1803.52 2835.04 1810.09 2846.59 1814.73C2858.13 1819.37 2868.1 1822.09 2884.08 1817.22C2900.06 1812.34 2922.07 1799.87 2939.27 1783.74C2956.47 1767.61 2968.85 1747.83 2979.13 1726.55C2989.41 1705.27 2997.58 1682.51 2997.78 1657.08C2997.97 1631.65 2990.2 1603.57 2980.57 1586.55C2970.94 1569.53 2959.45 1563.58 2948.17 1559.53C2936.88 1555.48 2925.81 1553.32 2912.43 1555.86C2899.05 1558.4 2883.36 1565.64 2871.8 1573.77C2860.25 1581.9 2852.82 1590.93 2843.21 1606.08Z" fill="#FEFEFE" fill-opacity="0.321569"/>
<path fill-rule="evenodd" clip-rule="evenodd" d="M3043.3 1742.73C3033.24 1753.13 3021.07 1767.69 3010.79 1783.31C3000.5 1798.93 2992.09 1815.61 2987.44 1836.01C2982.78 1856.4 2981.88 1880.53 2988.23 1899.54C2994.59 1918.55 3008.2 1932.45 3024.14 1940.2C3040.08 1947.94 3058.36 1949.53 3077.1 1944.71C3095.84 1939.89 3115.03 1928.67 3133.46 1912.6C3151.89 1896.53 3169.55 1875.62 3181.81 1854.4C3194.08 1833.18 3200.97 1811.66 3203.05 1791.33C3205.12 1770.99 3202.4 1751.85 3194.41 1737.07C3186.43 1722.29 3173.17 1711.87 3159.63 1706.36C3146.09 1700.85 3132.27 1700.25 3117.16 1703.32C3102.05 1706.39 3085.66 1713.13 3073.49 1719.62C3061.31 1726.1 3053.36 1732.33 3043.3 1742.73Z" fill="#FEFEFE" fill-opacity="0.321569"/>
<path fill-rule="evenodd" clip-rule="evenodd" d="M3023.16 2149.13C3027.15 2155.72 3031.85 2164.41 3043.28 2171.67C3054.71 2178.92 3072.88 2184.74 3093.74 2186.26C3114.59 2187.77 3138.14 2185 3161.37 2174.21C3184.61 2163.42 3207.55 2144.6 3223.63 2125.8C3239.71 2107 3248.94 2088.21 3253.07 2069.06C3257.2 2049.9 3256.23 2030.39 3252.4 2015.85C3248.57 2001.31 3241.88 1991.75 3227.81 1983.44C3213.74 1975.13 3192.29 1968.08 3170.04 1969.61C3147.78 1971.14 3124.71 1981.25 3104.47 1993.34C3084.22 2005.43 3066.78 2019.51 3053.68 2033.96C3040.58 2048.4 3031.82 2063.21 3025.69 2079.88C3019.57 2096.55 3016.08 2115.08 3015.98 2126.58C3015.88 2138.08 3019.17 2142.55 3023.16 2149.13Z" fill="#FEFEFE" fill-opacity="0.321569"/>
<path fill-rule="evenodd" clip-rule="evenodd" d="M2541.41 1974.13C2531.93 1981.98 2519.3 1994.06 2509.3 2009.61C2499.31 2025.17 2491.96 2044.21 2489.76 2063.11C2487.56 2082.01 2490.52 2100.78 2500.44 2117.73C2510.37 2134.69 2527.26 2149.83 2549.01 2160.86C2570.75 2171.89 2597.36 2178.81 2620.39 2186.17C2643.42 2193.53 2662.88 2201.33 2682.28 2212.86C2701.69 2224.39 2721.04 2239.65 2736.29 2254.17C2751.54 2268.69 2762.69 2282.47 2774.31 2298.74C2785.94 2315.01 2798.03 2333.76 2814.04 2348.28C2830.05 2362.8 2849.98 2373.09 2871.78 2373.92C2893.57 2374.76 2917.22 2366.14 2933.95 2349.95C2950.68 2333.76 2960.48 2310 2965.95 2287.48C2971.43 2264.97 2972.57 2243.71 2971.72 2226.43C2970.88 2209.15 2968.05 2195.85 2965.16 2182.24C2962.27 2168.63 2959.32 2154.71 2959.41 2136.74C2959.5 2118.78 2962.63 2096.77 2965.58 2073.02C2968.53 2049.26 2971.31 2023.77 2968.34 1997.73C2965.38 1971.69 2956.67 1945.09 2941.93 1922.86C2927.2 1900.63 2906.44 1882.76 2886.39 1872.67C2866.34 1862.56 2847.01 1860.24 2827.44 1862.32C2807.89 1864.4 2788.1 1870.9 2767.78 1880.26C2747.47 1889.62 2726.64 1901.84 2705.04 1912.44C2683.44 1923.04 2661.08 1932.03 2644.98 1937.9C2628.88 1943.77 2619.04 1946.52 2606.51 1949.53C2593.98 1952.53 2578.75 1955.79 2567.98 1959.23C2557.21 1962.66 2550.89 1966.28 2541.41 1974.13Z" fill="#FEFEFE" fill-opacity="0.321569"/>
<path fill-rule="evenodd" clip-rule="evenodd" d="M1464.23 211.128C1461.27 197.494 1458.55 180.593 1458.01 162.626C1457.47 144.656 1459.11 125.621 1462.49 108.71C1465.88 91.7995 1471.02 77.0104 1476.96 64.459C1482.9 51.9076 1489.65 41.589 1498.24 32.4731C1506.83 23.3573 1517.27 15.4419 1531.66 12.4317C1546.04 9.42139 1564.37 11.3139 1580.39 21.1788C1596.41 31.0437 1610.11 48.8808 1619.15 67.7741C1628.19 86.6651 1632.56 106.615 1634.02 127.819C1635.47 149.023 1634 171.482 1631.05 191.686C1628.11 211.889 1623.68 229.832 1614.79 246.989C1605.89 264.143 1592.52 280.508 1576.57 288.665C1560.62 296.826 1542.1 296.776 1524.5 288.213C1506.9 279.648 1490.22 262.567 1480.29 248.844C1470.36 235.123 1467.18 224.759 1464.23 211.128Z" fill="#FEFEFE" fill-opacity="0.321569"/>
<path fill-rule="evenodd" clip-rule="evenodd" d="M1700.09 -27.6134C1694.02 -10.4355 1687.14 13.271 1683.24 36.2189C1679.34 59.1692 1678.41 81.361 1683.07 103.099C1687.73 124.837 1697.97 146.122 1710.23 158.354C1722.49 170.587 1736.76 173.769 1749.06 175.461C1761.36 177.153 1771.69 177.356 1786.24 168.651C1800.79 159.949 1819.57 142.339 1832.85 122.335C1846.12 102.336 1853.9 79.9434 1859.29 56.6174C1864.68 33.2914 1867.68 9.02956 1862.31 -15.8677C1856.94 -40.7627 1843.19 -66.2956 1830.06 -80.5506C1816.92 -94.808 1804.39 -97.79 1792.48 -98.969C1780.57 -100.15 1769.27 -99.529 1756.75 -93.7518C1744.23 -87.97 1730.49 -77.0323 1720.97 -66.2365C1711.46 -55.4406 1706.17 -44.7913 1700.09 -27.6134Z" fill="#FEFEFE" fill-opacity="0.321569"/>
<path fill-rule="evenodd" clip-rule="evenodd" d="M1925.53 56.6163C1917.98 69.2575 1909.28 86.4897 1902.65 104.289C1896.01 122.088 1891.44 140.459 1891.36 161.541C1891.27 182.62 1895.67 206.416 1906.04 223.431C1916.41 240.443 1932.75 250.675 1950.02 254.316C1967.3 257.954 1985.51 254.999 2002.76 245.672C2020.02 236.346 2036.33 220.647 2050.82 200.405C2065.31 180.158 2077.99 155.367 2085.34 131.606C2092.69 107.845 2094.7 85.1194 2092.28 64.7374C2089.87 44.3579 2083.02 26.3198 2071.98 13.844C2060.94 1.3634 2045.7 -5.55259 2031.27 -7.60118C2016.83 -9.64977 2003.19 -6.82606 1989.1 -0.10376C1975 6.6209 1960.46 17.249 1949.98 26.5869C1939.5 35.9249 1933.09 43.9751 1925.53 56.6163Z" fill="#FEFEFE" fill-opacity="0.321569"/>
<path fill-rule="evenodd" clip-rule="evenodd" d="M1994.78 458.742C2000.12 464.191 2006.62 471.532 2019.38 475.801C2032.14 480.076 2051.16 481.278 2071.88 477.623C2092.59 473.97 2114.99 465.457 2135.34 449.182C2155.69 432.909 2173.99 408.869 2185.59 386.533C2197.19 364.2 2202.1 343.563 2201.94 323.828C2201.79 304.091 2196.57 285.255 2189.65 271.987C2182.72 258.722 2174.09 251.024 2158.53 246.376C2142.95 241.726 2120.45 240.122 2099.04 247.102C2077.62 254.079 2057.29 269.641 2040.15 286.45C2023.01 303.26 2009.05 321.316 1999.41 338.66C1989.77 356.003 1984.44 372.635 1982.11 390.439C1979.77 408.238 1980.41 427.207 1982.83 438.471C1985.25 449.735 1989.44 453.295 1994.78 458.742Z" fill="#FEFEFE" fill-opacity="0.321569"/>
<path fill-rule="evenodd" clip-rule="evenodd" d="M1485.7 406.447C1478.15 416.449 1468.45 431.371 1462.08 449.038C1455.72 466.705 1452.7 487.117 1454.69 506.131C1456.68 525.147 1463.67 542.76 1477.08 556.883C1490.49 571.005 1510.31 581.638 1533.98 587.059C1557.64 592.477 1585.16 592.682 1609.28 594.197C1633.39 595.714 1654.12 598.542 1675.6 605.028C1697.09 611.512 1719.34 621.655 1737.42 632.087C1755.5 642.519 1769.41 653.242 1784.33 666.278C1799.25 679.309 1815.17 694.655 1834 704.901C1852.82 715.144 1874.55 720.285 1896.03 715.727C1917.51 711.172 1938.74 696.921 1951.54 676.976C1964.35 657.032 1968.73 631.393 1969.15 608.043C1969.57 584.693 1966.04 563.633 1961.43 546.954C1956.82 530.275 1951.15 517.976 1945.34 505.389C1939.54 492.802 1933.61 479.925 1929.77 462.345C1925.93 444.766 1924.17 422.484 1921.86 398.544C1919.55 374.603 1916.68 349.009 1908.08 324.291C1899.49 299.569 1885.16 275.728 1865.89 257.636C1846.63 239.541 1822.43 227.197 1800.63 222.268C1778.82 217.337 1759.42 219.825 1740.76 226.682C1722.1 233.539 1704.18 244.768 1686.38 258.919C1668.58 273.07 1650.89 290.146 1632.1 305.831C1613.32 321.517 1593.43 335.813 1578.98 345.517C1564.53 355.221 1555.52 360.337 1543.93 366.359C1532.34 372.385 1518.18 379.322 1508.4 385.336C1498.63 391.347 1493.24 396.441 1485.7 406.447Z" fill="#FEFEFE" fill-opacity="0.321569"/>
<path fill-rule="evenodd" clip-rule="evenodd" d="M692.161 1108.74C689.952 1094.57 688.171 1077.07 688.69 1058.63C689.209 1040.18 692.023 1020.79 696.502 1003.7C700.982 986.601 707.127 971.796 713.967 959.336C720.804 946.877 728.333 936.762 737.68 928C747.029 919.239 758.194 911.834 773.109 909.717C788.028 907.602 806.696 910.773 822.517 921.959C838.338 933.142 851.307 952.338 859.44 972.301C867.571 992.262 870.864 1013 871.084 1034.81C871.305 1056.64 868.459 1079.55 864.233 1100.05C860.006 1120.54 854.402 1138.63 844.26 1155.61C834.121 1172.58 819.445 1188.45 802.622 1195.73C785.795 1203.02 766.821 1201.72 749.304 1191.76C731.787 1181.81 715.721 1163.19 706.366 1148.46C697.015 1133.73 694.372 1122.9 692.161 1108.74Z" fill="#FEFEFE" fill-opacity="0.321569"/>
<path fill-rule="evenodd" clip-rule="evenodd" d="M948.067 880.028C940.811 897.218 932.353 921.037 926.983 944.285C921.615 967.533 919.344 990.207 922.817 1012.79C926.293 1035.38 935.515 1057.87 947.339 1071.23C959.163 1084.58 973.593 1088.8 986.092 1091.37C998.591 1093.93 1009.16 1094.83 1024.59 1086.89C1040.02 1078.95 1060.31 1062.18 1075.11 1042.58C1089.9 1022.98 1099.21 1000.57 1106.12 977.032C1113.04 953.496 1117.56 928.844 1113.55 902.976C1109.53 877.11 1096.98 850.029 1084.37 834.538C1071.77 819.052 1059.11 815.151 1046.98 813.14C1034.84 811.13 1023.24 811.007 1010.06 816.085C996.89 821.165 982.153 831.443 971.76 841.863C961.368 852.281 955.321 862.838 948.067 880.028Z" fill="#FEFEFE" fill-opacity="0.321569"/>
<path fill-rule="evenodd" clip-rule="evenodd" d="M1173.99 981.488C1165.5 993.931 1155.55 1011 1147.69 1028.79C1139.83 1046.58 1134.05 1065.09 1132.71 1086.68C1131.36 1108.27 1134.44 1132.94 1144.04 1151.07C1153.65 1169.2 1169.78 1180.78 1187.26 1185.67C1204.75 1190.56 1223.58 1188.76 1241.81 1180.37C1260.05 1171.98 1277.69 1156.99 1293.75 1137.23C1309.8 1117.46 1324.28 1092.91 1333.22 1069.07C1342.17 1045.22 1345.59 1022.07 1344.33 1001.03C1343.08 979.988 1337.14 961.05 1326.57 947.523C1316.01 933.998 1300.81 925.886 1286.14 922.817C1271.48 919.747 1257.34 921.718 1242.49 927.661C1227.66 933.601 1212.12 943.511 1200.83 952.369C1189.54 961.232 1182.49 969.048 1173.99 981.488Z" fill="#FEFEFE" fill-opacity="0.321569"/>
<path fill-rule="evenodd" clip-rule="evenodd" d="M1220.9 1398.12C1226.05 1404.06 1232.27 1412.02 1245.08 1417.25C1257.9 1422.49 1277.32 1425 1298.76 1422.65C1320.2 1420.3 1343.66 1413.08 1365.47 1397.78C1387.3 1382.48 1407.48 1359.08 1420.69 1336.98C1433.91 1314.88 1440.17 1294.07 1441.19 1273.84C1442.21 1253.61 1438 1233.96 1431.7 1219.91C1425.4 1205.85 1417.01 1197.38 1401.34 1191.57C1385.67 1185.76 1362.71 1182.6 1340.36 1188.31C1318 1194.02 1296.24 1208.6 1277.68 1224.66C1259.11 1240.73 1243.73 1258.29 1232.82 1275.4C1221.91 1292.53 1215.46 1309.21 1212 1327.29C1208.54 1345.37 1208.07 1364.84 1209.87 1376.54C1211.68 1388.25 1215.76 1392.17 1220.9 1398.12Z" fill="#FEFEFE" fill-opacity="0.321569"/>
<path fill-rule="evenodd" clip-rule="evenodd" d="M702.485 1310.28C694.158 1320.02 683.327 1334.65 675.75 1352.32C668.178 1370 663.866 1390.71 664.765 1410.32C665.665 1429.93 671.781 1448.45 684.672 1463.82C697.567 1479.19 717.237 1491.42 741.158 1498.56C765.081 1505.7 793.254 1507.77 817.871 1510.94C842.488 1514.12 863.55 1518.41 885.173 1526.5C906.801 1534.59 928.991 1546.48 946.891 1558.39C964.792 1570.29 978.402 1582.21 992.905 1596.56C1007.41 1610.92 1022.81 1627.72 1041.48 1639.48C1060.15 1651.24 1082.11 1657.97 1104.38 1654.74C1126.66 1651.52 1149.26 1638.35 1163.57 1618.78C1177.88 1599.21 1183.9 1573.24 1185.73 1549.35C1187.56 1525.45 1185.19 1503.64 1181.47 1486.24C1177.74 1468.85 1172.66 1455.86 1167.47 1442.58C1162.28 1429.29 1156.97 1415.7 1154.09 1397.43C1151.2 1379.16 1150.73 1356.22 1149.8 1331.54C1148.86 1306.86 1147.45 1280.44 1140.12 1254.54C1132.79 1228.64 1119.53 1203.25 1100.88 1183.41C1082.22 1163.58 1058.17 1149.3 1036.13 1142.79C1014.08 1136.27 994.06 1137.51 974.532 1143.28C955.007 1149.05 935.978 1159.35 916.895 1172.65C897.812 1185.95 878.672 1202.25 858.487 1217.06C838.303 1231.86 817.074 1245.17 801.692 1254.14C786.312 1263.11 776.774 1267.74 764.54 1273.13C752.31 1278.52 737.382 1284.68 727.007 1290.18C716.634 1295.68 710.812 1300.54 702.485 1310.28Z" fill="#FEFEFE" fill-opacity="0.321569"/>
<path fill-rule="evenodd" clip-rule="evenodd" d="M-73.4409 371.502C-82.5358 365.873 -93.2983 358.31 -103.455 348.821C-113.612 339.329 -123.161 327.91 -130.591 316.568C-138.018 305.229 -143.323 293.967 -146.961 283.429C-150.599 272.893 -152.57 263.08 -152.875 252.785C-153.178 242.488 -151.815 231.709 -145.599 221.173C-139.385 210.637 -128.32 200.339 -114.149 195.834C-99.9753 191.33 -82.6961 192.615 -67.3851 197.36C-52.0741 202.105 -38.7357 210.308 -26.3056 221.007C-13.8756 231.704 -2.35391 244.893 7.11946 257.764C16.5928 270.632 24.0224 283.181 28.5709 298.06C33.1195 312.941 34.787 330.154 30.5435 344.471C26.3 358.787 16.1431 370.209 1.81839 376.405C-12.5041 382.598 -30.9967 383.564 -43.9566 382.198C-56.9188 380.833 -64.3461 377.132 -73.4409 371.502Z" fill="#FEFEFE" fill-opacity="0.321569"/>
<path fill-rule="evenodd" clip-rule="evenodd" d="M-75.4626 95.1684C-69.36 108.32 -60.1115 125.531 -49.6518 140.492C-39.1922 155.454 -27.5213 168.161 -13.0452 177.169C1.43313 186.176 18.7123 191.483 32.1286 190.599C45.5427 189.713 55.0918 182.634 62.7462 175.959C70.4006 169.281 76.1603 163.008 79.3419 149.251C82.5256 135.5 83.1312 114.263 79.4153 95.1188C75.7017 75.9774 67.6666 58.9246 57.8125 42.8383C47.9606 26.7521 36.2876 11.63 19.6897 1.33512C3.08956 -8.95978 -18.4354 -14.4274 -33.4414 -14.1037C-48.4474 -13.7823 -56.9367 -7.66983 -64.0968 -0.952265C-71.2592 5.76294 -77.0946 13.0831 -80.7682 23.9829C-84.4462 34.8827 -85.9601 49.3599 -85.241 61.1434C-84.5196 72.9293 -81.563 82.0168 -75.4626 95.1684Z" fill="#FEFEFE" fill-opacity="0.321569"/>
<path fill-rule="evenodd" clip-rule="evenodd" d="M94.0407 1.89568C96.8438 13.4783 101.544 28.279 107.684 42.1111C113.822 55.9456 121.403 68.816 132.923 80.3987C144.444 91.9814 159.905 102.276 174.913 105.168C189.919 108.065 204.471 103.56 215.914 94.8737C227.358 86.1831 235.696 73.3151 240.015 57.5502C244.335 41.7829 244.637 23.1235 241.454 3.09602C238.268 -16.9338 231.597 -38.3271 222.578 -55.8642C213.559 -73.3988 202.189 -87.0726 189.683 -96.7225C177.177 -106.375 163.536 -112.003 150.652 -112.003C137.767 -112.003 125.64 -106.37 116.621 -98.568C107.602 -90.7659 101.691 -80.7922 97.6742 -68.4062C93.6578 -56.0178 91.5383 -41.2169 90.9305 -29.6366C90.3249 -18.0515 91.2355 -9.687 94.0407 1.89568Z" fill="#FEFEFE" fill-opacity="0.321569"/>
<path fill-rule="evenodd" clip-rule="evenodd" d="M352.569 179C358.48 178.679 366.061 178.678 375.381 173.128C384.703 167.578 395.768 156.477 405.09 141.676C414.412 126.876 421.991 108.377 424.186 86.8985C426.383 65.4225 423.2 40.9717 417.288 21.5869C411.375 2.2021 402.732 -12.1144 391.821 -22.8134C380.907 -33.51 367.717 -40.5892 356.652 -43.564C345.587 -46.5389 336.643 -45.4142 325.576 -38.3351C314.513 -31.2536 301.326 -18.2248 293.444 -1.17212C285.563 15.8806 282.987 36.9571 282.836 56.7412C282.686 76.5301 284.962 95.0313 289.205 110.472C293.451 125.916 299.665 138.304 308.154 149.483C316.644 160.662 327.406 170.638 334.909 175.302C342.414 179.966 346.658 179.321 352.569 179Z" fill="#FEFEFE" fill-opacity="0.321569"/>
<path fill-rule="evenodd" clip-rule="evenodd" d="M45.4756 465.044C46.8426 475.178 49.7214 489.334 55.9375 502.927C62.1514 516.521 71.7027 529.549 83.2244 538.719C94.7438 547.89 108.236 553.196 123.318 552.632C138.399 552.069 155.075 545.633 170.989 533.97C186.904 522.305 202.061 505.413 216.083 491.337C230.103 477.259 242.987 465.998 258.296 456.266C273.607 446.533 291.34 438.324 306.954 432.857C322.566 427.384 336.055 424.651 351.364 422.557C366.675 420.466 383.803 419.018 399.72 412.985C415.634 406.951 430.339 396.332 439.584 380.567C448.83 364.802 452.617 343.889 448.676 325.066C444.735 306.244 433.062 289.515 420.481 276.486C407.897 263.455 394.407 254.127 382.737 247.853C371.064 241.58 361.209 238.362 351.13 235.066C341.049 231.767 330.741 228.391 318.994 221.151C307.246 213.911 294.059 202.813 279.658 191.152C265.258 179.489 249.644 167.261 231.379 159.06C213.111 150.856 192.194 146.674 171.731 148.687C151.268 150.698 131.259 158.904 116.632 169.681C102.004 180.463 92.7579 193.815 86.3169 209.098C79.8759 224.381 76.2379 241.594 74.2675 260.334C72.2994 279.076 71.9966 299.344 70.3313 319.535C68.6637 339.725 65.6335 359.833 63.0553 374.069C60.4794 388.308 58.3576 396.672 55.3275 407.128C52.2951 417.586 48.3566 430.132 46.3105 439.463C44.2622 448.794 44.1108 454.907 45.4756 465.044Z" fill="#FEFEFE" fill-opacity="0.321569"/>
<path fill-rule="evenodd" clip-rule="evenodd" d="M564.911 2187.71C565.563 2182.53 566.703 2176.25 568.736 2169.9C570.766 2163.55 573.692 2157.13 576.962 2151.69C580.237 2146.26 583.86 2141.81 587.486 2138.25C591.113 2134.69 594.745 2132.03 598.872 2130.04C603 2128.05 607.624 2126.74 613.021 2127.69C618.416 2128.64 624.587 2131.86 628.962 2137.53C633.337 2143.21 635.918 2151.34 636.741 2159.2C637.563 2167.06 636.626 2174.64 634.513 2182.25C632.398 2189.85 629.109 2197.49 625.583 2204.14C622.056 2210.78 618.291 2216.44 613.066 2221.19C607.836 2225.94 601.143 2229.8 594.564 2230.43C587.987 2231.06 581.522 2228.46 576.435 2223.02C571.345 2217.58 567.634 2209.29 565.859 2203.11C564.089 2196.94 564.258 2192.88 564.911 2187.71Z" fill="#FEFEFE" fill-opacity="0.321569"/>
<path fill-rule="evenodd" clip-rule="evenodd" d="M676.804 2137.16C672.558 2142.31 667.226 2149.63 663.027 2157.1C658.828 2164.58 655.76 2172.2 654.702 2180.44C653.642 2188.68 654.589 2197.54 657.358 2203.52C660.126 2209.5 664.717 2212.6 668.804 2214.9C672.892 2217.2 676.474 2218.71 682.633 2217.7C688.791 2216.68 697.527 2213.15 704.636 2208.01C711.747 2202.87 717.231 2196.13 721.995 2188.74C726.76 2181.34 730.808 2173.28 732.01 2163.84C733.21 2154.4 731.567 2143.57 728.739 2136.76C725.914 2129.95 721.906 2127.17 717.892 2125.09C713.878 2123.02 709.855 2121.67 704.767 2121.94C699.68 2122.22 693.526 2124.12 688.869 2126.57C684.211 2129.02 681.05 2132 676.804 2137.16Z" fill="#FEFEFE" fill-opacity="0.321569"/>
<path fill-rule="evenodd" clip-rule="evenodd" d="M2016.53 873.679C2022.86 867.97 2030.99 861.453 2040.31 855.92C2049.63 850.388 2060.14 845.84 2070.04 842.947C2079.94 840.055 2089.23 838.817 2097.57 838.706C2105.92 838.595 2113.31 839.614 2120.61 842.073C2127.91 844.533 2135.11 848.436 2140.87 856.109C2146.63 863.781 2150.95 875.219 2150.39 887.596C2149.84 899.97 2144.4 913.282 2137.06 924.13C2129.72 934.978 2120.47 943.361 2109.71 950.374C2098.95 957.387 2086.67 963.027 2075.16 967.134C2063.65 971.243 2052.91 973.818 2041.28 973.509C2029.65 973.199 2017.14 970.002 2008.22 962.895C1999.29 955.79 1993.94 944.772 1993.36 931.835C1992.77 918.896 1996.94 904.036 2001.3 894.16C2005.66 884.281 2010.2 879.385 2016.53 873.679Z" fill="#FEFEFE" fill-opacity="0.321569"/>
<path fill-rule="evenodd" clip-rule="evenodd" d="M2210.84 944.549C2200.02 945.92 2185.52 948.71 2172.29 953.048C2159.05 957.387 2147.08 963.272 2136.97 972.343C2126.86 981.414 2118.6 993.671 2115.7 1004.5C2112.81 1015.33 2115.27 1024.73 2117.94 1032.52C2120.61 1040.32 2123.5 1046.51 2132.31 1052.64C2141.13 1058.76 2155.86 1064.8 2170.26 1066.89C2184.66 1068.97 2198.72 1067.1 2212.58 1063.54C2226.45 1059.97 2240.11 1054.72 2251.69 1044.31C2263.26 1033.9 2272.74 1018.33 2276.45 1006.39C2280.16 994.457 2278.1 986.152 2275.26 978.733C2272.43 971.316 2268.83 964.785 2262.15 959.024C2255.47 953.264 2245.71 948.271 2237.26 945.749C2228.81 943.228 2221.66 943.179 2210.84 944.549Z" fill="#FEFEFE" fill-opacity="0.321569"/>
<path fill-rule="evenodd" clip-rule="evenodd" d="M2231.8 1102.89C2222.94 1102.06 2211.33 1101.89 2200.02 1103.11C2188.7 1104.34 2177.69 1106.95 2166.55 1113.01C2155.41 1119.07 2144.13 1128.58 2138.17 1139.68C2132.2 1150.77 2131.54 1163.45 2134.63 1174.76C2137.73 1186.08 2144.56 1196.04 2154.49 1203.59C2164.41 1211.13 2177.42 1216.26 2192.3 1219C2207.18 1221.74 2223.93 1222.08 2238.59 1219.56C2253.25 1217.03 2265.82 1211.64 2275.87 1204.29C2285.92 1196.94 2293.44 1187.65 2296.82 1177.47C2300.2 1167.29 2299.43 1156.24 2296.32 1147.07C2293.22 1137.9 2287.77 1130.61 2280.14 1124.19C2272.51 1117.77 2262.68 1112.21 2254.72 1108.7C2246.76 1105.18 2240.65 1103.71 2231.8 1102.89Z" fill="#FEFEFE" fill-opacity="0.321569"/>
<path fill-rule="evenodd" clip-rule="evenodd" d="M2039.8 1260.63C2038.48 1265.39 2036.49 1271.37 2037.94 1280.19C2039.38 1289.01 2044.27 1300.66 2052.2 1311.9C2060.14 1323.15 2071.12 1333.98 2085.61 1341.35C2100.09 1348.72 2118.07 1352.62 2133.22 1353.03C2148.36 1353.44 2160.67 1350.37 2171.03 1344.56C2181.39 1338.74 2189.81 1330.18 2194.8 1322.22C2199.79 1314.27 2201.35 1306.91 2199.29 1296.31C2197.22 1285.72 2191.54 1271.88 2181.65 1261.18C2171.76 1250.49 2157.66 1242.93 2143.82 1237.62C2129.99 1232.31 2116.42 1229.26 2104.47 1228.56C2092.53 1227.86 2082.21 1229.52 2072.15 1233.29C2062.08 1237.07 2052.27 1242.95 2047.03 1247.66C2041.79 1252.36 2041.13 1255.88 2039.8 1260.63Z" fill="#FEFEFE" fill-opacity="0.321569"/>
<path fill-rule="evenodd" clip-rule="evenodd" d="M1919.75 943.07C1912.29 941.492 1901.6 940.053 1890.44 941.397C1879.28 942.742 1867.64 946.868 1858.19 953.564C1848.73 960.258 1841.47 969.52 1837.91 981.58C1834.35 993.642 1834.49 1008.5 1838.5 1024.13C1842.51 1039.76 1850.38 1056.16 1856.57 1070.92C1862.77 1085.69 1867.28 1098.82 1870.09 1113.46C1872.9 1128.11 1874.01 1144.27 1873.75 1158.03C1873.49 1171.8 1871.87 1183.17 1869.32 1195.81C1866.78 1208.45 1863.3 1222.36 1863.36 1236.51C1863.41 1250.67 1867 1265.06 1875.63 1276.5C1884.27 1287.94 1897.94 1296.41 1912.17 1298.24C1926.4 1300.06 1941.2 1295.23 1953.63 1288.71C1966.07 1282.19 1976.15 1273.98 1983.61 1266.4C1991.07 1258.83 1995.91 1251.89 2000.87 1244.79C2005.82 1237.7 2010.89 1230.44 2019.05 1223.06C2027.21 1215.68 2038.45 1208.18 2050.4 1199.86C2062.36 1191.54 2075.02 1182.42 2085.57 1170.14C2096.11 1157.87 2104.53 1142.44 2108.49 1125.75C2112.44 1109.06 2111.93 1091.11 2108.21 1076.73C2104.49 1062.35 2097.55 1051.54 2088.52 1042.45C2079.49 1033.35 2068.38 1025.97 2055.75 1019.5C2043.12 1013.02 2028.99 1007.47 2015.27 1000.86C2001.55 994.25 1988.24 986.582 1978.93 980.812C1969.63 975.044 1964.32 971.174 1957.78 966.04C1951.24 960.903 1943.47 954.499 1937.47 950.435C1931.46 946.374 1927.22 944.651 1919.75 943.07Z" fill="#FEFEFE" fill-opacity="0.321569"/>
<path fill-rule="evenodd" clip-rule="evenodd" d="M793.179 704.877C784.645 707.62 774.025 710.347 762.626 711.562C751.227 712.776 739.048 712.481 728.141 710.834C717.232 709.187 707.594 706.188 699.34 702.514C691.085 698.835 684.214 694.476 678.023 688.743C671.831 683.009 666.318 675.899 663.742 665.737C661.166 655.572 661.525 642.356 667.062 630.431C672.597 618.508 683.306 607.878 694.903 600.531C706.496 593.19 718.98 589.138 732.396 587.122C745.81 585.104 760.157 585.123 773.139 586.302C786.119 587.484 797.732 589.825 809.049 595.409C820.366 600.99 831.386 609.813 837.307 620.857C843.231 631.901 844.053 645.168 839.417 658.166C834.782 671.164 824.689 683.893 816.421 691.636C808.152 699.379 801.711 702.134 793.179 704.877Z" fill="#FEFEFE" fill-opacity="0.321569"/>
<path fill-rule="evenodd" clip-rule="evenodd" d="M630.528 546.953C641.729 550.516 657.116 554.349 671.888 556.088C686.658 557.824 700.811 557.465 714.419 553.127C728.025 548.791 741.087 540.477 748.301 531.136C755.514 521.796 756.881 511.43 757.389 502.546C757.901 493.659 757.554 486.252 751.349 476.231C745.144 466.208 733.083 453.574 719.756 444.985C706.429 436.398 691.834 431.859 676.753 429.074C661.673 426.29 646.113 425.258 630.53 430.25C614.948 435.243 599.347 446.258 590.887 456.322C582.427 466.383 581.106 475.496 580.906 484.078C580.703 492.662 581.616 500.724 585.869 509.424C590.121 518.124 597.709 527.467 605.009 533.783C612.312 540.099 619.325 543.392 630.528 546.953Z" fill="#FEFEFE" fill-opacity="0.321569"/>
<path fill-rule="evenodd" clip-rule="evenodd" d="M673.705 381.635C682.092 386.465 693.447 391.899 705.069 395.831C716.693 399.763 728.582 402.192 741.991 401.282C755.397 400.375 770.325 396.131 780.664 387.92C791.006 379.712 796.759 367.538 798.277 354.999C799.796 342.459 797.08 329.558 790.356 317.628C783.63 305.698 772.901 294.744 759.36 285.3C745.821 275.851 729.472 267.911 714.03 263.746C698.583 259.575 684.04 259.179 671.194 261.849C658.345 264.516 647.193 270.251 639.768 278.733C632.345 287.214 628.647 298.439 628.008 308.871C627.371 319.306 629.794 328.946 634.719 338.728C639.643 348.511 647.066 358.437 653.487 365.511C659.908 372.583 665.321 376.806 673.705 381.635Z" fill="#FEFEFE" fill-opacity="0.321569"/>
<path fill-rule="evenodd" clip-rule="evenodd" d="M926.196 313.536C929.415 309.46 933.781 304.469 935.912 295.139C938.04 285.803 937.929 272.12 934.652 257.456C931.377 242.79 924.931 227.141 913.648 213.318C902.362 199.495 886.238 187.499 871.502 180.219C856.767 172.939 843.42 170.378 830.879 171.396C818.337 172.415 806.602 177.015 798.484 182.585C790.369 188.151 785.874 194.689 783.634 206.052C781.392 217.413 781.408 233.603 786.831 248.619C792.255 263.632 803.086 277.474 814.561 288.979C826.038 300.479 838.161 309.642 849.632 315.752C861.102 321.858 871.925 324.903 883.351 325.759C894.777 326.614 906.806 325.279 913.857 323.03C920.906 320.778 922.976 317.612 926.196 313.536Z" fill="#FEFEFE" fill-opacity="0.321569"/>
<path fill-rule="evenodd" clip-rule="evenodd" d="M916.375 680.513C923.085 685.456 933.017 691.718 944.543 695.461C956.069 699.203 969.19 700.427 981.183 698.128C993.184 695.829 1004.06 690.01 1012.42 679.757C1020.79 669.505 1026.63 654.822 1028.99 637.625C1031.34 620.426 1030.21 600.715 1030.06 583.372C1029.92 566.031 1030.76 551.063 1033.9 535.376C1037.03 519.689 1042.46 503.288 1048.26 489.86C1054.06 476.43 1060.23 465.974 1067.84 454.694C1075.43 443.409 1084.46 431.302 1090.11 417.347C1095.75 403.394 1098.02 387.596 1094.14 372.427C1090.25 357.255 1080.21 342.709 1066.94 334.456C1053.67 326.205 1037.17 324.246 1022.3 325.016C1007.43 325.789 994.21 329.293 983.817 333.359C973.424 337.426 965.866 342.057 958.129 346.792C950.394 351.527 942.477 356.364 931.479 359.927C920.478 363.488 906.391 365.771 891.276 368.528C876.161 371.285 860.02 374.516 844.698 381.812C829.378 389.106 814.877 400.464 804.259 415.095C793.644 429.723 786.907 447.622 784.778 463.462C782.647 479.301 785.121 493.081 790.34 506.128C795.558 519.176 803.522 531.491 813.339 543.589C823.157 555.684 834.828 567.565 845.664 580.298C856.504 593.029 866.508 606.615 873.343 616.516C880.18 626.416 883.845 632.633 888.208 640.654C892.572 648.676 897.635 658.501 901.907 665.226C906.182 671.948 909.666 675.573 916.375 680.513Z" fill="#FEFEFE" fill-opacity="0.321569"/>
<path fill-rule="evenodd" clip-rule="evenodd" d="M1561.11 2164.51C1555.77 2155.85 1549.8 2144.86 1545.09 2132.53C1540.39 2120.2 1536.93 2106.54 1535.2 2093.88C1533.48 2081.22 1533.48 2069.56 1534.58 2059.23C1535.68 2048.9 1537.87 2039.9 1541.64 2031.24C1545.41 2022.58 1550.74 2014.25 1560.01 2008.25C1569.27 2002.25 1582.45 1998.59 1595.95 2001.09C1609.45 2003.59 1623.27 2012.25 1634.1 2022.91C1644.93 2033.57 1652.78 2046.24 1658.9 2060.56C1665.02 2074.89 1669.42 2090.88 1672.24 2105.71C1675.07 2120.53 1676.32 2134.19 1674.28 2148.52C1672.24 2162.85 1666.91 2177.84 1657.8 2187.84C1648.7 2197.83 1635.82 2202.83 1621.54 2201.66C1607.26 2200.5 1591.56 2193.17 1581.36 2186.34C1571.15 2179.51 1566.44 2173.18 1561.11 2164.51Z" fill="#FEFEFE" fill-opacity="0.321569"/>
<path fill-rule="evenodd" clip-rule="evenodd" d="M1667.3 1934.7C1667.22 1948.28 1668.16 1966.6 1670.98 1983.6C1673.81 2000.59 1678.52 2016.25 1687 2030.07C1695.47 2043.9 1707.72 2055.9 1719.17 2061.06C1730.63 2066.22 1741.31 2064.56 1750.26 2062.39C1759.2 2060.23 1766.42 2057.56 1774.43 2047.57C1782.43 2037.57 1791.22 2020.25 1795.62 2002.75C1800.02 1985.26 1800.02 1967.6 1798.13 1949.94C1796.25 1932.29 1792.48 1914.63 1782.75 1898.8C1773.02 1882.98 1757.32 1868.98 1744.76 1862.65C1732.2 1856.32 1722.79 1857.65 1714.23 1860.07C1705.68 1862.48 1697.98 1865.98 1690.68 1873.4C1683.39 1880.81 1676.48 1892.14 1672.48 1902.22C1668.47 1912.29 1667.38 1921.12 1667.3 1934.7Z" fill="#FEFEFE" fill-opacity="0.321569"/>
<path fill-rule="evenodd" clip-rule="evenodd" d="M1844.12 1931.95C1841.93 1942.78 1840.04 1957.11 1839.73 1971.27C1839.41 1985.43 1840.67 1999.42 1845.69 2014.08C1850.72 2028.74 1859.51 2044.07 1870.81 2053.06C1882.11 2062.06 1895.93 2064.73 1908.8 2062.56C1921.67 2060.4 1933.6 2053.4 1943.33 2042.24C1953.06 2031.07 1960.6 2015.75 1965.78 1997.76C1970.96 1979.77 1973.78 1959.11 1973.16 1940.62C1972.53 1922.12 1968.45 1905.8 1961.85 1892.31C1955.26 1878.81 1946.16 1868.15 1935.48 1862.49C1924.81 1856.82 1912.56 1856.16 1902.05 1858.65C1891.53 1861.15 1882.74 1866.82 1874.58 1875.31C1866.41 1883.81 1858.88 1895.14 1853.86 1904.47C1848.83 1913.79 1846.32 1921.12 1844.12 1931.95Z" fill="#FEFEFE" fill-opacity="0.321569"/>
<path fill-rule="evenodd" clip-rule="evenodd" d="M1989.16 2192.33C1994.19 2194.67 2000.47 2198 2010.36 2197.5C2020.25 2197 2033.74 2192.67 2047.25 2184.5C2060.74 2176.34 2074.24 2164.35 2084.45 2147.52C2094.65 2130.7 2101.56 2109.04 2104.23 2090.38C2106.89 2071.72 2105.32 2056.06 2100.46 2042.4C2095.59 2028.74 2087.43 2017.08 2079.42 2009.75C2071.42 2002.42 2063.57 1999.42 2051.64 2000.42C2039.71 2001.42 2023.7 2006.42 2010.51 2017.08C1997.33 2027.74 1986.97 2044.07 1979.12 2060.39C1971.27 2076.72 1965.93 2093.05 1963.42 2107.71C1960.91 2122.37 1961.22 2135.36 1963.89 2148.35C1966.56 2161.35 1971.59 2174.34 1975.98 2181.51C1980.38 2188.67 1984.14 2190 1989.16 2192.33Z" fill="#FEFEFE" fill-opacity="0.321569"/>
<path fill-rule="evenodd" clip-rule="evenodd" d="M1623.11 2294.29C1620.28 2303.28 1617.14 2316.28 1616.98 2330.27C1616.83 2344.26 1619.65 2359.26 1625.62 2371.92C1631.58 2384.58 1640.69 2394.91 1653.4 2401.07C1666.12 2407.23 1682.44 2409.23 1700.18 2406.57C1717.92 2403.9 1737.07 2396.57 1754.18 2391.08C1771.29 2385.58 1786.36 2381.91 1802.84 2380.58C1819.32 2379.25 1837.22 2380.25 1852.29 2382.58C1867.36 2384.91 1879.6 2388.58 1893.1 2393.57C1906.6 2398.57 1921.35 2404.9 1936.89 2406.9C1952.43 2408.9 1968.76 2406.57 1982.57 2397.57C1996.39 2388.58 2007.69 2372.92 2011.77 2355.59C2015.85 2338.27 2012.71 2319.27 2007.37 2302.95C2002.04 2286.62 1994.5 2272.96 1987.28 2262.63C1980.06 2252.31 1973.15 2245.31 1966.09 2238.15C1959.03 2230.98 1951.81 2223.65 1944.9 2212.49C1937.99 2201.33 1931.4 2186.34 1924.02 2170.34C1916.64 2154.35 1908.48 2137.36 1896.55 2122.53C1884.62 2107.71 1868.93 2095.05 1851.19 2087.71C1833.45 2080.38 1813.67 2078.39 1797.35 2080.89C1781.02 2083.38 1768.15 2090.38 1756.85 2100.21C1745.54 2110.04 1735.81 2122.7 1726.86 2137.36C1717.92 2152.02 1709.76 2168.68 1700.5 2184.67C1691.23 2200.66 1680.87 2215.99 1673.18 2226.65C1665.49 2237.31 1660.47 2243.31 1653.87 2250.64C1647.28 2257.97 1639.12 2266.63 1633.78 2273.46C1628.44 2280.29 1625.93 2285.29 1623.11 2294.29Z" fill="#FEFEFE" fill-opacity="0.321569"/>
<path fill-rule="evenodd" clip-rule="evenodd" d="M-48.1066 2307.05C-56.498 2303.51 -66.5346 2298.56 -76.2885 2291.89C-86.0446 2285.22 -95.518 2276.83 -103.181 2268.22C-110.847 2259.61 -116.702 2250.78 -121.057 2242.34C-125.41 2233.9 -128.264 2225.85 -129.762 2217.16C-131.259 2208.47 -131.401 2199.15 -127.402 2189.37C-123.402 2179.59 -115.26 2169.36 -103.785 2163.62C-92.3098 2157.87 -77.5041 2156.62 -63.9497 2158.57C-50.3976 2160.51 -38.0989 2165.66 -26.27 2173.04C-14.441 2180.43 -3.08413 2190.05 6.50056 2199.67C16.083 2209.3 23.8933 2218.93 29.5417 2230.93C35.1923 2242.93 38.6789 2257.3 36.8065 2270.02C34.9318 2282.73 27.6982 2293.8 16.299 2300.99C4.89755 2308.19 -10.6651 2311.51 -21.8194 2312.11C-32.9737 2312.71 -39.7175 2310.59 -48.1066 2307.05Z" fill="#FEFEFE" fill-opacity="0.321569"/>
<path fill-rule="evenodd" clip-rule="evenodd" d="M-83.1084 2073.01C-76.3512 2083.33 -66.437 2096.68 -55.7658 2107.94C-45.0946 2119.21 -33.6665 2128.4 -20.3058 2134.07C-6.94733 2139.75 8.34589 2141.9 19.6138 2139.33C30.8816 2136.76 38.1264 2129.46 43.8126 2122.76C49.4989 2116.06 53.6266 2109.96 54.6686 2097.87C55.7083 2085.77 53.6645 2067.69 48.2076 2051.96C42.7529 2036.23 33.885 2022.86 23.5923 2010.56C13.2997 1998.26 1.58205 1987.02 -13.7334 1980.54C-29.0467 1974.06 -47.9578 1972.35 -60.6417 1974.66C-73.3277 1976.97 -79.7888 1983.3 -85.052 1989.97C-90.3153 1996.63 -94.3829 2003.63 -96.1863 2013.37C-97.9897 2023.11 -97.5288 2035.6 -95.4983 2045.49C-93.4679 2055.38 -89.8677 2062.69 -83.1084 2073.01Z" fill="#FEFEFE" fill-opacity="0.321569"/>
<path fill-rule="evenodd" clip-rule="evenodd" d="M49.3787 1970.93C53.1503 1980.37 58.9189 1992.28 65.7918 2003.17C72.6647 2014.07 80.6419 2023.96 91.8052 2032.21C102.968 2040.47 117.32 2047.1 130.391 2047.52C143.465 2047.94 155.26 2042.15 163.919 2033.23C172.575 2024.31 178.094 2012.26 179.857 1998.31C181.621 1984.36 179.628 1968.49 174.516 1951.94C169.402 1935.39 161.169 1918.16 151.411 1904.51C141.65 1890.87 130.362 1880.82 118.596 1874.33C106.829 1867.84 94.5837 1864.92 83.6587 1866.67C72.7337 1868.42 63.129 1874.84 56.4231 1882.68C49.7149 1890.52 45.9055 1899.78 43.9908 1910.82C42.0783 1921.87 42.0627 1934.71 42.9444 1944.61C43.826 1954.52 45.605 1961.49 49.3787 1970.93Z" fill="#FEFEFE" fill-opacity="0.321569"/>
<path fill-rule="evenodd" clip-rule="evenodd" d="M289.924 2086.02C294.898 2084.94 301.324 2083.92 308.56 2077.95C315.795 2071.97 323.842 2061.06 329.962 2047.25C336.082 2033.43 340.279 2016.72 339.556 1998.21C338.832 1979.7 333.186 1959.4 325.836 1943.76C318.489 1928.13 309.437 1917.16 298.895 1909.57C288.35 1901.98 276.317 1897.77 266.576 1896.75C256.833 1895.73 249.386 1897.9 240.857 1905.4C232.327 1912.91 222.716 1925.74 218.087 1941.27C213.458 1956.8 213.812 1975.02 216.068 1991.82C218.325 2008.61 222.482 2023.99 227.941 2036.51C233.4 2049.03 240.164 2058.69 248.709 2067.02C257.254 2075.35 267.58 2082.34 274.504 2085.28C281.428 2088.22 284.951 2087.09 289.924 2086.02Z" fill="#FEFEFE" fill-opacity="0.321569"/>
<path fill-rule="evenodd" clip-rule="evenodd" d="M63.9925 2370.23C66.3704 2378.63 70.5182 2390.25 77.4267 2400.93C84.3353 2411.61 94.0023 2421.37 104.874 2427.58C115.748 2433.79 127.826 2436.46 140.548 2433.93C153.267 2431.41 166.63 2423.69 178.719 2411.64C190.811 2399.59 201.627 2383.21 211.819 2369.37C222.012 2355.53 231.581 2344.24 243.39 2333.91C255.197 2323.58 269.247 2314.21 281.827 2307.46C294.406 2300.7 305.513 2296.55 318.244 2292.7C330.972 2288.85 345.322 2285.3 358.09 2278.02C370.859 2270.75 382.046 2259.75 387.986 2245.13C393.926 2230.5 394.621 2212.26 389.01 2196.83C383.402 2181.41 371.489 2168.81 359.25 2159.47C347.012 2150.12 334.45 2144.04 323.797 2140.31C313.143 2136.57 304.402 2135.18 295.457 2133.75C286.513 2132.32 277.367 2130.86 266.533 2126.31C255.7 2121.77 243.181 2114.15 229.566 2106.21C215.949 2098.28 201.237 2090.03 184.762 2085.55C168.286 2081.08 150.046 2080.37 132.936 2084.85C115.828 2089.33 99.8511 2099.01 88.7458 2110.13C77.6427 2121.26 71.411 2133.83 67.7908 2147.66C64.1684 2161.5 63.1599 2176.59 63.7454 2192.74C64.3332 2208.9 66.5195 2226.13 67.5392 2243.48C68.5567 2260.82 68.4098 2278.28 67.94 2290.7C67.4702 2303.12 66.6798 2310.51 65.3685 2319.78C64.0594 2329.06 62.2292 2340.23 61.617 2348.42C61.007 2356.61 61.6147 2361.82 63.9925 2370.23Z" fill="#FEFEFE" fill-opacity="0.321569"/>
<path fill-rule="evenodd" clip-rule="evenodd" d="M-8.76811 891.944C-11.9986 898.711 -15.8392 908.124 -18.4218 917.368C-21.0067 926.611 -22.3359 935.689 -21.3473 944.848C-20.361 954.006 -17.0593 963.249 -12.5463 968.866C-8.03116 974.484 -2.30263 976.476 2.6823 977.764C7.66501 979.052 11.9019 979.631 18.2561 976.755C24.6102 973.877 33.0795 967.545 39.3892 959.96C45.701 952.38 49.8533 943.55 53.066 934.222C56.2765 924.893 58.5474 915.066 57.403 904.575C56.2587 894.084 51.7012 882.932 46.91 876.439C42.1209 869.948 37.0982 868.119 32.2513 867.061C27.4066 866 22.7378 865.712 17.3432 867.486C11.9509 869.261 5.8349 873.095 1.46223 877.072C-2.90821 881.051 -5.53536 885.177 -8.76811 891.944Z" fill="#FEFEFE" fill-opacity="0.321569"/>
<path fill-rule="evenodd" clip-rule="evenodd" d="M80.2934 937.409C76.6487 942.241 72.3362 948.904 68.8496 955.901C65.363 962.9 62.7003 970.229 61.763 978.889C60.8279 987.549 61.6182 997.541 65.1538 1005.03C68.6893 1012.52 74.97 1017.52 81.9142 1019.84C88.8584 1022.17 96.4704 1021.83 103.96 1018.83C111.452 1015.83 118.824 1010.16 125.645 1002.54C132.467 994.911 138.737 985.333 142.773 975.919C146.807 966.508 148.606 957.264 148.484 948.77C148.361 940.275 146.315 932.535 142.31 926.873C138.307 921.214 132.34 917.637 126.496 916.101C120.649 914.565 114.921 915.071 108.843 917.155C102.762 919.241 96.3302 922.909 91.6258 926.243C86.9192 929.577 83.938 932.577 80.2934 937.409Z" fill="#FEFEFE" fill-opacity="0.321569"/>
<path fill-rule="evenodd" clip-rule="evenodd" d="M91.5785 1106.02C93.54 1108.52 95.8955 1111.85 100.958 1114.22C106.021 1116.59 113.789 1118 122.459 1117.49C131.128 1116.99 140.7 1114.56 149.757 1108.85C158.818 1103.14 167.363 1094.14 173.085 1085.52C178.809 1076.9 181.706 1068.65 182.485 1060.54C183.264 1052.42 181.926 1044.42 179.646 1038.64C177.369 1032.85 174.149 1029.27 167.951 1026.61C161.75 1023.95 152.569 1022.21 143.469 1024.05C134.368 1025.89 125.349 1031.3 117.585 1037.39C109.819 1043.47 103.312 1050.22 98.6095 1056.89C93.9051 1063.55 91.0063 1070.13 89.2853 1077.34C87.5621 1084.54 87.0189 1092.37 87.5309 1097.11C88.0452 1101.86 89.6148 1103.52 91.5785 1106.02Z" fill="#FEFEFE" fill-opacity="0.321569"/>
<path fill-rule="evenodd" clip-rule="evenodd" d="M-115.43 1060.03C-118.957 1063.78 -123.584 1069.45 -126.954 1076.4C-130.323 1083.36 -132.438 1091.6 -132.431 1099.51C-132.427 1107.42 -130.303 1115 -125.396 1121.45C-120.489 1127.9 -112.797 1133.22 -103.301 1136.59C-93.8053 1139.96 -82.504 1141.36 -72.6566 1143.15C-62.8092 1144.93 -54.4134 1147.09 -45.8596 1150.79C-37.3035 1154.49 -28.5915 1159.73 -21.6051 1164.89C-14.6186 1170.04 -9.3598 1175.12 -3.78488 1181.19C1.79005 1187.27 7.67891 1194.34 14.9771 1199.46C22.2775 1204.58 30.9894 1207.73 40.0108 1206.89C49.0345 1206.05 58.3676 1201.22 64.4835 1193.64C70.5995 1186.06 73.496 1175.73 74.6671 1166.15C75.8382 1156.57 75.2838 1147.75 74.1016 1140.67C72.9216 1133.59 71.1115 1128.27 69.2658 1122.81C67.4179 1117.36 65.5322 1111.78 64.7039 1104.37C63.8757 1096.96 64.105 1087.72 64.1785 1077.77C64.2497 1067.82 64.1651 1057.16 61.6871 1046.59C59.2091 1036.01 54.3378 1025.52 47.191 1017.16C40.0487 1008.8 30.6287 1002.56 21.879 999.483C13.1292 996.409 5.04507 996.499 -2.91656 998.417C-10.8782 1000.34 -18.7219 1004.09 -26.6434 1009.05C-34.565 1014.01 -42.5645 1020.18 -50.9558 1025.72C-59.3471 1031.27 -68.1326 1036.19 -74.4845 1039.48C-80.8387 1042.77 -84.7616 1044.44 -89.7822 1046.36C-94.8027 1048.28 -100.921 1050.44 -105.196 1052.45C-109.47 1054.45 -111.902 1056.28 -115.43 1060.03Z" fill="#FEFEFE" fill-opacity="0.321569"/>
<path fill-rule="evenodd" clip-rule="evenodd" d="M525.218 980.302C509.141 979.617 484.281 978.773 459.631 976.718C434.975 974.662 410.525 971.396 397.413 969.981C384.298 968.568 382.519 969.005 379.696 972.517C376.87 976.03 372.999 982.618 369.481 987.958C365.961 993.298 362.797 997.393 359.493 1000.86C356.189 1004.32 352.749 1007.16 346.344 1010.72C339.939 1014.29 330.57 1018.58 321.996 1019.36C313.422 1020.14 305.645 1017.42 299.14 1013.38C292.636 1009.35 287.409 1004.01 283.858 997.754C280.304 991.5 278.43 984.34 277.1 977.54C275.771 970.74 274.99 964.303 276.98 957.683C278.968 951.06 283.728 944.257 287.899 939.751C292.066 935.243 295.646 933.036 297.437 931.932C299.224 930.831 299.224 930.831 297.111 926.876C294.996 922.921 290.771 915.012 287.74 906.142C284.71 897.277 282.878 887.452 284.111 877.372C285.345 867.29 289.644 856.952 296.513 849.793C303.383 842.634 312.819 838.654 322.521 836.599C332.222 834.543 342.187 834.413 349.75 836.861C357.314 839.309 362.468 844.337 366.751 851.074C371.035 857.81 374.439 866.253 376.853 872.29C379.264 878.324 380.68 881.951 382.599 884.297C384.516 886.644 386.934 887.705 394.633 888.631C402.329 889.553 415.305 890.337 442.641 891.074C469.97 891.807 511.657 892.487 534.155 893.25C556.653 894.014 559.961 894.855 564.862 890.835C569.76 886.809 576.25 877.925 582.105 871.843C587.961 865.761 593.18 862.489 601.159 859.698C609.136 856.905 619.876 854.594 629.443 854.065C639.01 853.533 647.401 854.781 654.715 858.949C662.027 863.115 668.261 870.201 671.612 879.82C674.96 889.437 675.428 901.582 673.887 912.406C672.346 923.225 668.797 932.714 665.199 938.407C661.599 944.096 657.953 945.989 656.131 946.934C654.306 947.882 654.306 947.882 656.487 949.996C658.667 952.111 663.026 956.343 666.259 961.844C669.49 967.347 671.594 974.121 671.347 982.637C671.099 991.15 668.499 1001.4 664.63 1009.07C660.76 1016.73 655.621 1021.81 649.325 1025.51C643.029 1029.22 635.573 1031.54 628.791 1032.3C622.005 1033.06 615.891 1032.24 609.628 1029.31C603.365 1026.37 596.953 1021.32 590.39 1014.15C583.826 1006.98 577.116 997.7 571.341 991.993C565.565 986.287 560.727 984.161 554.663 982.837C548.593 981.512 541.295 980.987 525.218 980.302Z" fill="#FEFEFE" fill-opacity="0.301961"/>
<path fill-rule="evenodd" clip-rule="evenodd" d="M229.567 684.89C244.21 675.533 266.728 660.872 289.731 647.416C312.737 633.959 336.228 621.703 348.64 614.83C361.055 607.956 362.39 606.465 362.962 601.598C363.537 596.73 363.348 588.489 363.528 581.568C363.713 574.649 364.269 569.054 365.294 563.934C366.318 558.811 367.809 554.166 371.53 547.032C375.25 539.899 381.201 530.285 388.377 524.276C395.555 518.265 403.953 515.864 411.944 515.413C419.934 514.962 427.513 516.462 434.105 519.808C440.698 523.154 446.304 528.342 451.222 533.553C456.144 538.763 460.381 543.989 462.26 551.097C464.139 558.204 463.661 567.192 462.438 573.775C461.221 580.356 459.261 584.531 458.28 586.62C457.3 588.706 457.3 588.706 461.35 590.906C465.402 593.106 473.506 597.503 481.073 603.493C488.641 609.482 495.674 617.06 500.127 626.769C504.58 636.481 506.455 648.316 504.299 658.925C502.146 669.534 495.964 678.912 488.485 686.75C481.011 694.587 472.241 700.882 464.182 703.396C456.127 705.91 448.784 704.646 441.279 701.324C433.771 698.002 426.103 692.621 420.642 688.763C415.181 684.9 411.928 682.561 408.933 681.67C405.943 680.777 403.214 681.332 395.873 685.283C388.537 689.236 376.593 696.582 351.937 712.871C327.284 729.161 289.925 754.396 269.545 767.663C249.164 780.93 245.764 782.232 243.631 788.839C241.499 795.445 240.632 807.352 238.782 816.375C236.934 825.401 234.107 831.538 228.561 838.962C223.019 846.383 214.764 855.091 206.566 861.489C198.373 867.89 190.24 871.985 181.459 872.821C172.678 873.656 163.249 871.231 154.983 864.776C146.718 858.321 139.62 847.832 135.029 837.277C130.445 826.722 128.372 816.101 128.43 808.821C128.493 801.542 130.686 797.603 131.783 795.634C132.881 793.664 132.881 793.664 129.782 793.139C126.685 792.612 120.489 791.561 114.591 788.683C108.695 785.805 103.103 781.098 98.6366 773.391C94.1704 765.683 90.8375 754.975 90.0515 745.776C89.2656 736.577 91.0312 728.889 94.58 721.701C98.1289 714.513 103.463 707.826 109.063 702.949C114.667 698.073 120.54 695.01 127.709 693.73C134.883 692.451 143.35 692.957 153.119 695.249C162.888 697.543 173.952 701.622 182.214 703.103C190.478 704.587 195.94 703.474 202.051 700.889C208.165 698.304 214.926 694.247 229.567 684.89Z" fill="#FEFEFE" fill-opacity="0.301961"/>
<path fill-rule="evenodd" clip-rule="evenodd" d="M1219.43 556.907C1225.06 535.126 1233.51 501.389 1243.37 468.298C1253.23 435.204 1264.49 402.748 1270.13 385.241C1275.76 367.733 1275.76 365.169 1272.34 360.262C1268.92 355.347 1262.08 348.088 1256.65 341.683C1251.21 335.277 1247.19 329.724 1243.97 324.174C1240.75 318.621 1238.34 313.073 1235.92 303.251C1233.51 293.428 1231.1 279.336 1232.71 267.378C1234.32 255.422 1239.95 245.602 1246.79 237.916C1253.63 230.227 1261.68 224.677 1270.33 221.688C1278.98 218.699 1288.23 218.271 1296.88 218.486C1305.53 218.699 1313.58 219.552 1321.02 224.249C1328.47 228.946 1335.31 237.488 1339.53 244.536C1343.76 251.58 1345.37 257.133 1346.17 259.909C1346.98 262.683 1346.98 262.683 1352.41 260.975C1357.84 259.266 1368.71 255.852 1380.38 254.359C1392.05 252.861 1404.52 253.288 1416.39 257.986C1428.26 262.683 1439.52 271.65 1446.16 283.178C1452.8 294.709 1454.81 308.799 1454.41 322.68C1454.01 336.557 1451.19 350.224 1445.96 359.834C1440.73 369.441 1433.09 374.989 1423.63 378.833C1414.17 382.675 1402.91 384.811 1394.86 386.307C1386.81 387.8 1381.99 388.656 1378.56 390.579C1375.15 392.498 1373.13 395.487 1369.71 405.737C1366.29 415.987 1361.46 433.493 1352.41 470.647C1343.36 507.795 1330.08 564.591 1322.44 595.124C1314.79 625.656 1312.78 629.926 1316.2 637.83C1319.62 645.729 1328.47 657.255 1334.1 667.077C1339.73 676.899 1342.15 685.011 1343.15 696.757C1344.16 708.498 1343.76 723.873 1341.54 737.112C1339.33 750.348 1335.31 761.449 1328.07 770.206C1320.83 778.958 1310.36 785.363 1297.69 787.072C1285.01 788.78 1270.13 785.791 1257.45 780.456C1244.78 775.116 1234.32 767.429 1228.48 760.811C1222.65 754.19 1221.44 748.638 1220.84 745.864C1220.23 743.087 1220.23 743.087 1217.01 745.436C1213.79 747.785 1207.36 752.482 1199.71 755.258C1192.07 758.032 1183.22 758.888 1172.95 756.005C1162.69 753.122 1151.02 746.506 1142.87 738.926C1134.72 731.346 1130.09 722.805 1127.48 713.091C1124.87 703.377 1124.27 692.485 1125.37 682.986C1126.48 673.483 1129.3 665.369 1134.73 657.682C1140.16 649.996 1148.21 642.735 1158.87 635.902C1169.53 629.071 1182.81 622.667 1191.46 616.477C1200.11 610.284 1204.14 604.303 1207.55 596.404C1210.98 588.503 1213.79 578.683 1219.43 556.907Z" fill="#FEFEFE" fill-opacity="0.301961"/>
<path fill-rule="evenodd" clip-rule="evenodd" d="M928.902 56.0284C906.415 51.5177 871.605 44.8497 837.325 36.5183C803.041 28.1869 769.282 18.1993 751.11 13.3153C732.935 8.43369 730.348 8.65564 725.686 12.9773C721.024 17.2942 714.287 25.7084 708.291 32.4472C702.296 39.1837 697.039 44.2448 691.711 48.3893C686.386 52.5361 680.993 55.7661 671.282 59.3671C661.572 62.9704 647.55 66.9399 635.334 66.1508C623.118 65.364 612.709 59.8136 604.349 52.7015C595.989 45.5893 589.682 36.9201 585.91 27.3387C582.136 17.7574 580.898 7.27104 580.362 -2.58911C579.823 -12.4493 579.983 -21.6786 584.08 -30.5558C588.174 -39.433 596.205 -47.9556 602.955 -53.376C609.701 -58.7963 615.167 -61.1121 617.904 -62.2699C620.635 -63.4253 620.635 -63.4253 618.436 -69.4553C616.238 -75.4877 611.841 -87.5474 609.316 -100.692C606.787 -113.836 606.133 -128.061 609.842 -141.971C613.553 -155.886 621.626 -169.479 632.691 -178.035C643.759 -186.593 657.814 -190.111 671.867 -190.863C685.918 -191.614 699.965 -189.601 710.128 -184.488C720.285 -179.375 726.557 -171.164 731.261 -160.739C735.968 -150.319 739.105 -137.69 741.318 -128.666C743.527 -119.64 744.811 -114.226 747.051 -110.5C749.288 -106.779 752.483 -104.751 763.132 -101.751C773.781 -98.7545 791.882 -94.7872 830.194 -87.7247C868.504 -80.6645 927.021 -70.5115 958.524 -64.4744C990.028 -58.4374 994.514 -56.521 1002.2 -61.1002C1009.88 -65.6794 1020.75 -76.7518 1030.18 -84.0152C1039.61 -91.2786 1047.59 -94.7329 1059.36 -96.8996C1071.13 -99.0687 1086.7 -99.95 1100.26 -98.5843C1113.82 -97.2209 1125.38 -93.6153 1134.86 -86.1392C1144.33 -78.6632 1151.71 -67.3192 1154.54 -53.0476C1157.37 -38.7808 1155.65 -21.5865 1151.36 -6.70056C1147.07 8.18063 1140.22 20.7488 1134.05 27.965C1127.87 35.1764 1122.37 37.0334 1119.62 37.9644C1116.87 38.8906 1116.87 38.8905 1119.52 42.3474C1122.17 45.8042 1127.48 52.7205 1130.95 61.1747C1134.42 69.629 1136.05 79.6215 1134.03 91.5467C1132.02 103.472 1126.35 117.323 1119.4 127.254C1112.46 137.183 1104.24 143.194 1094.65 147.015C1085.07 150.833 1074.12 152.466 1064.43 152.036C1054.74 151.601 1046.3 149.103 1038.06 143.595C1029.83 138.085 1021.79 129.565 1013.96 118.034C1006.13 106.496 998.508 91.953 991.502 82.6528C984.493 73.3503 978.103 69.2933 969.828 66.0917C961.55 62.8877 951.386 60.539 928.902 56.0284Z" fill="#FEFEFE" fill-opacity="0.301961"/>
<path fill-rule="evenodd" clip-rule="evenodd" d="M1454.79 1702.79C1469.76 1696.02 1492.82 1685.35 1516.19 1675.89C1539.56 1666.42 1563.24 1658.16 1575.81 1653.42C1588.37 1648.68 1589.82 1647.46 1590.96 1642.95C1592.11 1638.44 1592.95 1630.64 1593.99 1624.14C1595.02 1617.64 1596.24 1612.44 1597.85 1607.75C1599.45 1603.07 1601.44 1598.9 1605.84 1592.69C1610.23 1586.49 1617.04 1578.25 1624.56 1573.59C1632.08 1568.93 1640.3 1567.84 1647.89 1568.54C1655.48 1569.23 1662.44 1571.71 1668.24 1575.79C1674.04 1579.87 1678.68 1585.55 1682.67 1591.16C1686.67 1596.76 1690.01 1602.28 1690.9 1609.25C1691.78 1616.22 1690.21 1624.63 1688.24 1630.66C1686.27 1636.7 1683.9 1640.36 1682.72 1642.19C1681.53 1644.02 1681.53 1644.02 1685.08 1646.67C1688.63 1649.31 1695.72 1654.59 1702.11 1661.3C1708.5 1668.01 1714.19 1676.14 1717.18 1685.93C1720.17 1695.71 1720.47 1707.13 1717.11 1716.84C1713.76 1726.54 1706.76 1734.52 1698.73 1740.86C1690.71 1747.2 1681.65 1751.91 1673.74 1753.15C1665.83 1754.39 1659.06 1752.17 1652.4 1747.98C1645.74 1743.8 1639.17 1737.65 1634.5 1733.24C1629.83 1728.83 1627.06 1726.17 1624.34 1724.91C1621.63 1723.65 1618.99 1723.79 1611.58 1726.49C1604.17 1729.19 1591.99 1734.44 1566.7 1746.34C1541.43 1758.25 1503.05 1776.8 1482.18 1786.46C1461.31 1796.11 1457.94 1796.86 1455.1 1802.79C1452.27 1808.72 1449.97 1819.83 1447.1 1828.08C1444.23 1836.33 1440.8 1841.73 1434.65 1847.95C1428.5 1854.17 1419.63 1861.22 1411.1 1866.11C1402.58 1870.99 1394.4 1873.72 1386.01 1873.27C1377.63 1872.83 1369.03 1869.22 1362.05 1861.97C1355.06 1854.72 1349.67 1843.84 1346.65 1833.24C1343.64 1822.64 1343.01 1812.34 1343.97 1805.48C1344.94 1798.62 1347.5 1795.22 1348.77 1793.51C1350.06 1791.81 1350.06 1791.81 1347.2 1790.88C1344.34 1789.95 1338.63 1788.09 1333.43 1784.55C1328.23 1781 1323.54 1775.78 1320.29 1767.89C1317.03 1759.99 1315.22 1749.42 1315.63 1740.64C1316.03 1731.85 1318.66 1724.85 1322.9 1718.57C1327.14 1712.29 1333 1706.73 1338.89 1702.92C1344.78 1699.1 1350.7 1697.04 1357.62 1696.84C1364.55 1696.64 1372.47 1698.3 1381.4 1701.83C1390.33 1705.37 1400.25 1710.77 1407.86 1713.32C1415.47 1715.88 1420.76 1715.6 1426.84 1714.02C1432.93 1712.44 1439.81 1709.56 1454.79 1702.79Z" fill="#FEFEFE" fill-opacity="0.301961"/>
<path fill-rule="evenodd" clip-rule="evenodd" d="M1243.99 2215.45C1248.52 2197.95 1255.3 2170.86 1263.22 2144.28C1271.14 2117.7 1280.19 2091.63 1284.71 2077.57C1289.24 2063.51 1289.24 2061.45 1286.49 2057.51C1283.74 2053.56 1278.25 2047.73 1273.89 2042.59C1269.52 2037.44 1266.29 2032.98 1263.71 2028.52C1261.12 2024.06 1259.18 2019.61 1257.24 2011.72C1255.3 2003.83 1253.37 1992.51 1254.66 1982.91C1255.95 1973.3 1260.47 1965.41 1265.97 1959.24C1271.46 1953.07 1277.93 1948.61 1284.87 1946.21C1291.82 1943.81 1299.25 1943.46 1306.2 1943.64C1313.15 1943.81 1319.61 1944.49 1325.59 1948.27C1331.57 1952.04 1337.07 1958.9 1340.46 1964.56C1343.85 1970.22 1345.15 1974.68 1345.79 1976.91C1346.44 1979.14 1346.44 1979.14 1350.8 1977.76C1355.16 1976.39 1363.89 1973.65 1373.26 1972.45C1382.64 1971.25 1392.65 1971.59 1402.19 1975.36C1411.72 1979.14 1420.77 1986.34 1426.1 1995.6C1431.43 2004.86 1433.05 2016.17 1432.73 2027.32C1432.4 2038.47 1430.14 2049.44 1425.94 2057.16C1421.74 2064.88 1415.6 2069.34 1408 2072.42C1400.41 2075.51 1391.36 2077.22 1384.9 2078.43C1378.43 2079.63 1374.56 2080.31 1371.81 2081.86C1369.06 2083.4 1367.44 2085.8 1364.7 2094.03C1361.95 2102.26 1358.07 2116.32 1350.8 2146.17C1343.53 2176 1332.87 2221.62 1326.73 2246.14C1320.59 2270.67 1318.97 2274.09 1321.72 2280.44C1324.46 2286.79 1331.57 2296.05 1336.1 2303.93C1340.62 2311.82 1342.56 2318.34 1343.37 2327.77C1344.18 2337.2 1343.85 2349.55 1342.07 2360.18C1340.3 2370.81 1337.07 2379.73 1331.25 2386.76C1325.43 2393.79 1317.03 2398.94 1306.85 2400.31C1296.67 2401.68 1284.71 2399.28 1274.53 2395C1264.35 2390.71 1255.95 2384.53 1251.26 2379.22C1246.58 2373.9 1245.61 2369.44 1245.12 2367.21C1244.64 2364.98 1244.64 2364.98 1242.06 2366.87C1239.47 2368.75 1234.3 2372.53 1228.16 2374.76C1222.02 2376.99 1214.91 2377.67 1206.67 2375.36C1198.42 2373.04 1189.05 2367.73 1182.51 2361.64C1175.96 2355.55 1172.24 2348.69 1170.14 2340.89C1168.04 2333.09 1167.56 2324.34 1168.45 2316.71C1169.34 2309.08 1171.6 2302.56 1175.96 2296.39C1180.33 2290.21 1186.79 2284.38 1195.35 2278.9C1203.92 2273.41 1214.58 2268.27 1221.53 2263.29C1228.48 2258.32 1231.71 2253.52 1234.46 2247.17C1237.21 2240.83 1239.47 2232.94 1243.99 2215.45Z" fill="#FEFEFE" fill-opacity="0.301961"/>
<path fill-rule="evenodd" clip-rule="evenodd" d="M794.307 2076.32C770.598 2054.16 733.688 2020.23 698.506 1984.72C663.325 1949.21 629.862 1912.12 611.523 1892.74C593.182 1873.36 589.96 1871.69 581.56 1873.34C573.157 1874.98 559.576 1879.94 547.986 1883.46C536.397 1886.98 526.797 1889.06 517.722 1890C508.645 1890.94 500.098 1890.75 486.178 1887.77C472.259 1884.79 452.971 1879.03 438.987 1868.96C425.005 1858.9 416.329 1844.53 411.119 1829.84C405.912 1815.15 404.173 1800.14 406.05 1785.94C407.927 1771.74 413.415 1758.37 419.319 1746.26C425.221 1734.14 431.535 1723.31 442.289 1715.83C453.043 1708.34 468.233 1704.22 479.844 1702.83C491.453 1701.44 499.479 1702.77 503.495 1703.44C507.507 1704.11 507.507 1704.11 508.896 1695.31C510.288 1686.5 513.069 1668.89 518.791 1651.4C524.51 1633.9 533.169 1616.52 546.803 1602.78C560.44 1589.03 579.046 1578.92 597.864 1577.03C616.684 1575.13 635.706 1581.46 652.894 1591.07C670.077 1600.68 685.422 1613.57 694.096 1627.23C702.766 1640.89 704.765 1655.33 703.436 1671.22C702.111 1687.11 697.458 1704.46 694.096 1716.83C690.732 1729.19 688.663 1736.58 688.853 1742.68C689.04 1748.77 691.489 1753.57 702.144 1765.09C712.802 1776.6 731.664 1794.84 772.472 1831.86C813.278 1868.87 876.029 1924.66 909.432 1955.36C942.837 1986.07 946.894 1991.7 959.054 1992.01C971.213 1992.31 991.466 1987.28 1007.48 1985.7C1023.5 1984.13 1035.27 1985.99 1050.69 1992.22C1066.1 1998.44 1085.17 2009.02 1100.37 2020.78C1115.57 2032.53 1126.91 2045.45 1133.2 2061.41C1139.48 2077.37 1140.72 2096.35 1134.61 2115.41C1128.51 2134.47 1115.05 2153.6 1100.09 2168.07C1085.12 2182.54 1068.65 2192.34 1056.53 2196.3C1044.41 2200.25 1036.64 2198.34 1032.76 2197.39C1028.88 2196.43 1028.88 2196.43 1029.74 2202.52C1030.59 2208.61 1032.3 2220.78 1030.81 2233.42C1029.32 2246.05 1024.63 2259.13 1014.33 2271.79C1004.02 2284.44 988.102 2296.65 973.265 2303.26C958.431 2309.86 944.68 2310.85 930.765 2308.23C916.85 2305.6 902.768 2299.36 891.547 2291.6C880.322 2283.85 871.957 2274.57 865.83 2261.88C859.705 2249.18 855.82 2233.06 854.173 2213.51C852.529 2193.96 853.126 2170.99 850.978 2154.72C848.827 2138.43 843.931 2128.84 836.228 2118.86C828.522 2108.86 818.013 2098.48 794.307 2076.32Z" fill="#FEFEFE" fill-opacity="0.301961"/>
<path fill-rule="evenodd" clip-rule="evenodd" d="M-174.329 1633.09C-169.804 1615.59 -163.021 1588.49 -155.103 1561.92C-147.184 1535.33 -138.134 1509.27 -133.61 1495.21C-129.086 1481.14 -129.086 1479.09 -131.833 1475.14C-134.578 1471.2 -140.073 1465.37 -144.437 1460.22C-148.798 1455.08 -152.031 1450.62 -154.616 1446.16C-157.203 1441.7 -159.142 1437.24 -161.081 1429.35C-163.021 1421.46 -164.958 1410.15 -163.664 1400.54C-162.37 1390.94 -157.849 1383.05 -152.354 1376.88C-146.859 1370.7 -140.396 1366.24 -133.449 1363.84C-126.499 1361.44 -119.069 1361.1 -112.12 1361.27C-105.172 1361.44 -98.7063 1362.13 -92.7284 1365.9C-86.7482 1369.68 -81.2579 1376.53 -77.8649 1382.2C-74.4696 1387.86 -73.1761 1392.31 -72.5304 1394.54C-71.8847 1396.77 -71.8847 1396.77 -67.5232 1395.4C-63.1572 1394.03 -54.4319 1391.28 -45.0587 1390.09C-35.6878 1388.88 -25.6711 1389.23 -16.1377 1393C-6.60194 1396.77 2.44394 1403.97 7.77618 1413.23C13.1107 1422.49 14.7271 1433.81 14.402 1444.96C14.0792 1456.11 11.8171 1467.08 7.61591 1474.8C3.41466 1482.52 -2.72354 1486.97 -10.3201 1490.06C-17.9143 1493.15 -26.9625 1494.86 -33.428 1496.06C-39.8912 1497.26 -43.7674 1497.95 -46.5148 1499.49C-49.26 1501.04 -50.8763 1503.44 -53.6259 1511.67C-56.3711 1519.9 -60.2495 1533.96 -67.5232 1563.8C-74.7924 1593.64 -85.4569 1639.26 -91.5974 1663.78C-97.7378 1688.3 -99.3542 1691.73 -96.6068 1698.08C-93.8594 1704.42 -86.7505 1713.68 -82.2264 1721.57C-77.7023 1729.46 -75.7631 1735.97 -74.955 1745.41C-74.1468 1754.84 -74.4696 1767.19 -76.2485 1777.82C-78.0252 1788.45 -81.2557 1797.37 -87.0711 1804.4C-92.8887 1811.43 -101.293 1816.57 -111.475 1817.95C-121.654 1819.32 -133.61 1816.92 -143.791 1812.63C-153.97 1808.34 -162.37 1802.17 -167.059 1796.85C-171.744 1791.54 -172.712 1787.08 -173.2 1784.85C-173.683 1782.62 -173.683 1782.62 -176.268 1784.51C-178.855 1786.39 -184.025 1790.16 -190.165 1792.4C-196.305 1794.62 -203.414 1795.31 -211.656 1793C-219.899 1790.68 -229.272 1785.37 -235.817 1779.28C-242.361 1773.19 -246.079 1766.33 -248.179 1758.53C-250.278 1750.72 -250.761 1741.98 -249.873 1734.35C-248.982 1726.72 -246.72 1720.2 -242.356 1714.02C-237.993 1707.85 -231.532 1702.02 -222.969 1696.53C-214.402 1691.04 -203.739 1685.9 -196.793 1680.93C-189.842 1675.95 -186.609 1671.15 -183.864 1664.81C-181.117 1658.46 -178.855 1650.58 -174.329 1633.09Z" fill="#FEFEFE" fill-opacity="0.301961"/>
<path fill-rule="evenodd" clip-rule="evenodd" d="M2579.97 1077.56C2600.62 1051.04 2632.22 1009.77 2665.4 970.333C2698.58 930.895 2733.33 893.276 2751.47 872.691C2769.6 852.103 2771.11 848.543 2769.25 839.453C2767.39 830.363 2762.16 815.742 2758.38 803.24C2754.61 790.738 2752.29 780.358 2751.08 770.512C2749.88 760.664 2749.79 751.354 2752.22 736.109C2754.65 720.862 2759.59 699.686 2768.87 684.141C2778.14 668.598 2791.75 658.688 2805.77 652.545C2819.8 646.404 2834.25 644.027 2848.03 645.61C2861.81 647.193 2874.91 652.734 2886.8 658.769C2898.7 664.801 2909.38 671.322 2916.95 682.784C2924.53 694.247 2929 710.647 2930.72 723.239C2932.44 735.828 2931.41 744.608 2930.89 748.999C2930.38 753.386 2930.38 753.386 2938.93 754.615C2947.48 755.846 2964.59 758.303 2981.68 763.965C2998.77 769.624 3015.85 778.487 3029.57 792.884C3043.3 807.28 3053.67 827.204 3056.1 847.624C3058.54 868.046 3053.04 888.955 3044.31 907.971C3035.58 926.982 3023.62 944.101 3010.7 953.982C2997.78 963.861 2983.89 966.501 2968.49 965.57C2953.09 964.641 2936.18 960.135 2924.12 956.879C2912.06 953.616 2904.86 951.603 2898.97 952.007C2893.09 952.406 2888.53 955.225 2877.75 967.195C2866.97 979.168 2849.95 1000.28 2815.5 1045.9C2781.05 1091.5 2729.17 1161.6 2700.58 1198.95C2671.98 1236.3 2666.67 1240.9 2666.77 1254.14C2666.88 1267.38 2672.38 1289.27 2674.43 1306.65C2676.47 1324.03 2675.05 1336.9 2669.53 1353.88C2664.02 1370.86 2654.41 1391.95 2643.54 1408.87C2632.67 1425.8 2620.55 1438.55 2605.34 1445.92C2590.12 1453.27 2571.81 1455.24 2553.2 1449.2C2534.58 1443.17 2515.66 1429.15 2501.2 1413.33C2486.73 1397.51 2476.73 1379.89 2472.51 1366.83C2468.31 1353.77 2469.9 1345.25 2470.69 1341C2471.49 1336.74 2471.49 1336.74 2465.64 1337.87C2459.78 1339 2448.07 1341.26 2435.81 1340.04C2423.56 1338.83 2410.76 1334.15 2398.2 1323.34C2385.64 1312.53 2373.33 1295.6 2366.47 1279.67C2359.61 1263.73 2358.21 1248.8 2360.29 1233.57C2362.38 1218.34 2367.96 1202.81 2375.09 1190.35C2382.22 1177.88 2390.91 1168.48 2402.98 1161.4C2415.06 1154.32 2430.51 1149.57 2449.34 1147.15C2468.18 1144.73 2490.39 1144.64 2506.05 1141.77C2521.72 1138.9 2530.83 1133.27 2540.23 1124.56C2549.64 1115.85 2559.33 1104.08 2579.97 1077.56Z" fill="#FEFEFE" fill-opacity="0.301961"/>
<path fill-rule="evenodd" clip-rule="evenodd" d="M3482.78 1908.2C3457.63 1859.09 3418.17 1783.52 3382.27 1706.54C3346.37 1629.54 3314.01 1551.13 3295.77 1509.64C3277.52 1468.15 3273.38 1463.57 3259.34 1461.05C3245.3 1458.51 3221.36 1458 3201.31 1456.47C3181.27 1454.93 3165.11 1452.35 3150.4 1448.31C3135.68 1444.26 3122.41 1438.76 3102.22 1425.63C3082.04 1412.5 3054.96 1391.75 3038.51 1367.48C3022.05 1343.22 3016.22 1315.45 3016 1289.28C3015.78 1263.12 3021.17 1238.56 3031.77 1217.48C3042.38 1196.4 3058.19 1178.79 3073.97 1163.43C3089.75 1148.05 3105.49 1134.93 3126.36 1129.76C3147.24 1124.58 3173.24 1127.37 3192.17 1132.26C3211.1 1137.13 3222.94 1144.11 3228.87 1147.6C3234.79 1151.08 3234.79 1151.08 3241.71 1138.15C3248.65 1125.21 3262.51 1099.33 3280.91 1075.43C3299.31 1051.51 3322.26 1029.57 3351.02 1016.34C3379.8 1003.11 3414.38 998.6 3444.86 1007.09C3475.35 1015.57 3501.71 1037.04 3523.43 1062.54C3545.14 1088.03 3562.2 1117.54 3568.4 1144.21C3574.6 1170.87 3569.93 1194.68 3559.27 1218.76C3548.62 1242.83 3531.97 1267.15 3520.03 1284.47C3508.08 1301.78 3500.85 1312.09 3497.86 1321.75C3494.86 1331.4 3496.1 1340.4 3506.56 1364.91C3517.03 1389.42 3536.71 1429.45 3580.61 1512.22C3624.5 1594.97 3692.62 1720.47 3728.33 1788.86C3764.04 1857.25 3767.35 1868.53 3786.22 1876.41C3805.09 1884.27 3839.51 1888.73 3865.44 1895.99C3891.37 1903.26 3908.78 1913.34 3929.56 1932.46C3950.34 1951.58 3974.47 1979.74 3991.91 2007.39C4009.37 2035.03 4020.13 2062.16 4021.37 2090.97C4022.59 2119.77 4014.28 2150.24 3994.42 2176.37C3974.57 2202.49 3943.18 2224.25 3911.94 2237.81C3880.7 2251.36 3849.61 2256.68 3828.51 2255.5C3807.4 2254.31 3796.27 2246.6 3790.71 2242.75C3785.14 2238.9 3785.14 2238.9 3783.2 2248.95C3781.25 2259 3777.36 2279.1 3768.2 2297.97C3759.05 2316.84 3744.64 2334.48 3721.67 2348.01C3698.71 2361.56 3667.19 2370.99 3640.4 2372.31C3613.61 2373.62 3591.55 2366.81 3571.18 2354.24C3550.82 2341.66 3532.15 2323.32 3518.76 2304.36C3505.38 2285.39 3497.29 2265.79 3494.56 2242.19C3491.83 2218.58 3494.45 2190.98 3502.42 2159.38C3510.41 2127.78 3523.74 2092.18 3529.17 2065.39C3534.6 2038.59 3532.11 2020.6 3525.44 2000.28C3518.78 1979.95 3507.93 1957.31 3482.78 1908.2Z" fill="#FEFEFE" fill-opacity="0.301961"/>
<path fill-rule="evenodd" clip-rule="evenodd" d="M2012.71 1561.68C2036.94 1561.7 2074.4 1561.4 2111.62 1562.93C2148.84 1564.47 2185.82 1567.84 2205.64 1569.14C2225.45 1570.44 2228.11 1569.67 2232.16 1564.21C2236.21 1558.74 2241.67 1548.59 2246.67 1540.33C2251.66 1532.07 2256.2 1525.7 2260.98 1520.28C2265.75 1514.86 2270.77 1510.38 2280.21 1504.61C2289.65 1498.84 2303.51 1491.79 2316.37 1490.07C2329.23 1488.34 2341.09 1491.96 2351.1 1497.62C2361.12 1503.28 2369.29 1510.99 2374.98 1520.18C2380.68 1529.36 2383.91 1540.02 2386.28 1550.17C2388.67 1560.32 2390.2 1569.96 2387.58 1580.05C2384.96 1590.14 2378.18 1600.68 2372.15 1607.73C2366.13 1614.77 2360.87 1618.32 2358.24 1620.09C2355.61 1621.87 2355.61 1621.87 2359.01 1627.68C2362.41 1633.51 2369.22 1645.14 2374.27 1658.3C2379.33 1671.45 2382.64 1686.12 2381.35 1701.37C2380.06 1716.62 2374.17 1732.45 2364.23 1743.66C2354.29 1754.87 2340.32 1761.45 2325.83 1765.16C2311.34 1768.86 2296.35 1769.69 2284.83 1766.48C2273.31 1763.28 2265.27 1756.04 2258.45 1746.17C2251.63 1736.3 2246.03 1723.81 2242.06 1714.88C2238.09 1705.94 2235.75 1700.57 2232.73 1697.16C2229.72 1693.76 2226.02 1692.31 2214.38 1691.4C2202.75 1690.5 2183.17 1690.14 2141.99 1690.76C2100.82 1691.38 2038.04 1692.99 2004.14 1693.26C1970.24 1693.53 1965.21 1692.47 1958.06 1698.83C1950.91 1705.2 1941.65 1718.98 1933.17 1728.51C1924.7 1738.03 1917.03 1743.28 1905.18 1747.99C1893.33 1752.69 1877.29 1756.85 1862.93 1758.25C1848.56 1759.66 1835.86 1758.31 1824.62 1752.5C1813.38 1746.69 1803.6 1736.42 1798.02 1722.15C1792.44 1707.89 1791.06 1689.64 1792.77 1673.25C1794.48 1656.87 1799.29 1642.37 1804.38 1633.57C1809.48 1624.78 1814.86 1621.7 1817.55 1620.16C1820.25 1618.63 1820.25 1618.63 1816.85 1615.58C1813.45 1612.53 1806.65 1606.44 1801.48 1598.36C1796.3 1590.29 1792.76 1580.23 1792.65 1567.4C1792.55 1554.57 1795.89 1538.97 1801.28 1527.19C1806.68 1515.41 1814.12 1507.44 1823.39 1501.48C1832.66 1495.5 1843.75 1491.53 1853.92 1489.96C1864.09 1488.39 1873.33 1489.24 1882.92 1493.26C1892.51 1497.28 1902.45 1504.47 1912.73 1514.85C1923.01 1525.22 1933.63 1538.78 1942.64 1547C1951.65 1555.22 1959.05 1558.11 1968.26 1559.72C1977.46 1561.34 1988.47 1561.67 2012.71 1561.68Z" fill="#FEFEFE" fill-opacity="0.301961"/>
<path fill-rule="evenodd" clip-rule="evenodd" d="M1618.41 1087.91C1614.47 1070.37 1608.16 1043.32 1603.07 1016.14C1597.98 988.962 1594.11 961.654 1591.71 947.108C1589.31 932.556 1588.38 930.765 1584.21 928.726C1580.04 926.684 1572.62 924.394 1566.5 922.128C1560.38 919.86 1555.55 917.618 1551.29 915.047C1547.02 912.476 1543.32 909.577 1538.08 903.691C1532.83 897.803 1526.04 888.926 1522.83 879.902C1519.63 870.878 1520.01 861.711 1522.01 853.542C1524.02 845.369 1527.64 838.202 1532.61 832.581C1537.58 826.96 1543.9 822.887 1550.03 819.508C1556.16 816.127 1562.1 813.442 1569.01 813.69C1575.92 813.941 1583.8 817.128 1589.31 820.335C1594.82 823.541 1597.95 826.769 1599.52 828.385C1601.09 829.999 1601.09 829.999 1604.27 826.587C1607.45 823.175 1613.82 816.351 1621.45 810.545C1629.07 804.737 1637.95 799.948 1647.96 798.393C1657.97 796.836 1669.09 798.514 1677.92 803.873C1686.74 809.234 1693.25 818.272 1698 828.149C1702.74 838.023 1705.72 848.734 1705.54 857.592C1705.36 866.45 1702.02 873.451 1696.8 879.999C1691.57 886.544 1684.46 892.635 1679.37 896.966C1674.28 901.293 1671.22 903.859 1669.52 906.602C1667.82 909.341 1667.5 912.252 1668.82 920.822C1670.13 929.387 1673.1 943.607 1680.22 973.301C1687.34 1002.99 1698.63 1048.14 1704.33 1072.63C1710.04 1097.11 1710.18 1100.92 1715.44 1105.06C1720.69 1109.19 1731.06 1113.64 1738.56 1118.22C1746.06 1122.79 1750.69 1127.48 1755.64 1135.29C1760.6 1143.1 1765.89 1154.02 1769.14 1164.19C1772.38 1174.35 1773.59 1183.76 1771.69 1192.84C1769.8 1201.92 1764.79 1210.67 1756.54 1217.04C1748.3 1223.4 1736.8 1227.38 1725.99 1228.82C1715.19 1230.26 1705.09 1229.14 1698.61 1226.9C1692.12 1224.64 1689.27 1221.25 1687.84 1219.55C1686.42 1217.86 1686.42 1217.86 1685.01 1220.82C1683.61 1223.77 1680.81 1229.69 1676.46 1234.75C1672.12 1239.81 1666.24 1244.02 1658.01 1246.19C1649.79 1248.36 1639.22 1248.48 1630.78 1246.51C1622.33 1244.53 1616 1240.44 1610.65 1234.71C1605.3 1228.98 1600.94 1221.6 1598.27 1214.5C1595.6 1207.4 1594.63 1200.58 1595.65 1192.98C1596.67 1185.39 1599.67 1177.03 1604.65 1167.89C1609.64 1158.76 1616.61 1148.86 1620.42 1141C1624.23 1133.14 1624.88 1127.31 1624.42 1120.39C1623.95 1113.47 1622.36 1105.45 1618.41 1087.91Z" fill="#FEFEFE" fill-opacity="0.301961"/>
<path fill-rule="evenodd" clip-rule="evenodd" d="M2525.21 -52.8379C2517.92 -59.3309 2506.58 -69.2691 2495.74 -79.694C2484.91 -90.1212 2474.58 -101.037 2468.92 -106.732C2463.27 -112.429 2462.29 -112.906 2459.77 -112.346C2457.25 -111.788 2453.19 -110.191 2449.73 -109.043C2446.26 -107.895 2443.38 -107.195 2440.65 -106.841C2437.93 -106.489 2435.35 -106.481 2431.14 -107.273C2426.93 -108.065 2421.08 -109.652 2416.8 -112.578C2412.52 -115.503 2409.81 -119.763 2408.14 -124.148C2406.47 -128.532 2405.85 -133.04 2406.32 -137.328C2406.79 -141.619 2408.35 -145.69 2410.04 -149.381C2411.74 -153.074 2413.57 -156.387 2416.76 -158.722C2419.94 -161.058 2424.49 -162.415 2427.98 -162.923C2431.46 -163.431 2433.89 -163.09 2435.11 -162.918C2436.32 -162.748 2436.32 -162.748 2436.68 -165.408C2437.04 -168.071 2437.75 -173.397 2439.36 -178.709C2440.96 -184.023 2443.45 -189.323 2447.47 -193.566C2451.48 -197.812 2457.02 -200.998 2462.67 -201.711C2468.32 -202.425 2474.1 -200.664 2479.34 -197.902C2484.58 -195.14 2489.29 -191.374 2491.99 -187.326C2494.7 -183.276 2495.4 -178.945 2495.1 -174.149C2494.81 -169.352 2493.53 -164.092 2492.6 -160.342C2491.67 -156.593 2491.1 -154.35 2491.19 -152.517C2491.29 -150.683 2492.06 -149.258 2495.35 -145.87C2498.64 -142.482 2504.44 -137.135 2516.98 -126.296C2529.52 -115.46 2548.8 -99.1401 2559.07 -90.1447C2569.33 -81.1517 2570.59 -79.486 2574.26 -79.4884C2577.92 -79.4907 2583.99 -81.1588 2588.8 -81.7566C2593.62 -82.3544 2597.17 -81.8818 2601.86 -80.1239C2606.54 -78.3683 2612.36 -75.3273 2617.01 -71.9012C2621.67 -68.4774 2625.17 -64.6734 2627.18 -59.9146C2629.18 -55.1582 2629.68 -49.4495 2627.97 -43.6629C2626.26 -37.8763 2622.34 -32.0117 2617.93 -27.5388C2613.52 -23.0683 2608.62 -19.9896 2605 -18.7065C2601.38 -17.4259 2599.02 -17.9409 2597.85 -18.1961C2596.67 -18.456 2596.67 -18.4561 2596.97 -16.6273C2597.27 -14.8008 2597.87 -11.1479 2597.51 -7.33189C2597.14 -3.5159 2595.82 0.460876 2592.8 4.35011C2589.78 8.23935 2585.07 12.0389 2580.65 14.1418C2576.23 16.2424 2572.09 16.6463 2567.88 15.961C2563.67 15.2782 2559.39 13.5037 2555.96 11.2543C2552.53 9.00485 2549.94 6.27582 2548.01 2.49998C2546.08 -1.2782 2544.8 -6.10301 2544.17 -11.9771C2543.55 -17.8534 2543.57 -24.7744 2542.81 -29.6608C2542.05 -34.5495 2540.52 -37.4013 2538.13 -40.3501C2535.74 -43.2989 2532.51 -46.3471 2525.21 -52.8379Z" fill="#FEFEFE" fill-opacity="0.301961"/>
<path fill-rule="evenodd" clip-rule="evenodd" d="M2381.22 735.788C2391.28 732.631 2406.8 727.615 2422.44 723.393C2438.07 719.173 2453.82 715.744 2462.2 713.698C2470.58 711.649 2471.59 710.983 2472.64 708.185C2473.69 705.385 2474.78 700.457 2475.89 696.374C2477.01 692.291 2478.16 689.058 2479.51 686.183C2480.87 683.305 2482.43 680.788 2485.68 677.161C2488.94 673.532 2493.88 668.795 2499.02 666.401C2504.16 664.008 2509.5 663.958 2514.31 665.002C2519.13 666.047 2523.41 668.183 2526.84 671.252C2530.27 674.324 2532.85 678.329 2535.01 682.232C2537.18 686.136 2538.94 689.937 2539.02 694.472C2539.1 699.003 2537.5 704.268 2535.82 707.978C2534.14 711.69 2532.36 713.851 2531.47 714.931C2530.59 716.011 2530.59 716.011 2532.67 717.982C2534.76 719.955 2538.94 723.898 2542.56 728.702C2546.19 733.503 2549.26 739.162 2550.49 745.662C2551.72 752.165 2551.11 759.506 2548.29 765.458C2545.46 771.41 2540.42 775.971 2534.83 779.401C2529.25 782.83 2523.12 785.131 2517.96 785.304C2512.81 785.476 2508.63 783.52 2504.65 780.311C2500.67 777.105 2496.9 772.648 2494.22 769.459C2491.53 766.266 2489.94 764.343 2488.29 763.32C2486.64 762.299 2484.94 762.181 2480 763.325C2475.07 764.468 2466.9 766.874 2449.87 772.509C2432.84 778.142 2406.96 787.007 2392.91 791.546C2378.87 796.085 2376.66 796.303 2374.42 799.878C2372.2 803.453 2369.94 810.387 2367.53 815.449C2365.12 820.507 2362.54 823.693 2358.16 827.192C2353.79 830.694 2347.61 834.514 2341.81 836.972C2336 839.431 2330.57 840.528 2325.23 839.583C2319.89 838.638 2314.64 835.651 2310.67 830.455C2306.7 825.261 2304.01 817.864 2302.82 810.837C2301.63 803.812 2301.95 797.158 2303.04 792.841C2304.14 788.527 2306.02 786.544 2306.96 785.554C2307.9 784.564 2307.9 784.564 2306.13 783.744C2304.37 782.922 2300.84 781.28 2297.75 778.6C2294.67 775.921 2292.03 772.206 2290.5 766.892C2288.97 761.578 2288.55 754.667 2289.42 749.072C2290.3 743.474 2292.47 739.195 2295.62 735.505C2298.78 731.816 2302.93 728.716 2306.96 726.739C2311.01 724.761 2314.94 723.903 2319.39 724.321C2323.84 724.737 2328.8 726.429 2334.27 729.394C2339.74 732.362 2345.72 736.601 2350.42 738.839C2355.11 741.079 2358.52 741.312 2362.53 740.778C2366.54 740.247 2371.15 738.945 2381.22 735.788Z" fill="#FEFEFE" fill-opacity="0.301961"/>
<path fill-rule="evenodd" clip-rule="evenodd" d="M2385.31 385.792C2373.41 359.914 2354.7 320.074 2337.85 279.594C2321.01 239.107 2306.02 197.972 2297.51 176.182C2289 154.389 2286.96 151.937 2279.79 150.299C2272.62 148.657 2260.31 147.828 2250.02 146.556C2239.74 145.285 2231.48 143.57 2223.99 141.139C2216.5 138.705 2209.78 135.553 2199.67 128.315C2189.56 121.075 2176.07 109.746 2168.11 96.8636C2160.16 83.9837 2157.75 69.5514 2158.19 56.0761C2158.63 42.6032 2161.93 30.0918 2167.83 19.4968C2173.73 8.89706 2182.25 0.213722 2190.7 -7.31667C2199.14 -14.8541 2207.52 -21.2338 2218.38 -23.3958C2229.23 -25.5601 2242.56 -23.5023 2252.2 -20.5345C2261.83 -17.5739 2267.78 -13.7011 2270.76 -11.7636C2273.73 -9.82845 2273.73 -9.82851 2277.57 -16.3192C2281.42 -22.8147 2289.1 -35.8009 2299.08 -47.6671C2309.06 -59.5333 2321.33 -70.2794 2336.42 -76.3992C2351.51 -82.5213 2369.41 -84.017 2384.91 -78.9203C2400.43 -73.826 2413.54 -62.1441 2424.17 -48.501C2434.81 -34.8627 2442.97 -19.2657 2445.59 -5.39108C2448.22 8.47881 2445.31 20.624 2439.31 32.7619C2433.31 44.8951 2424.23 57.0165 2417.72 65.6456C2411.2 74.2724 2407.26 79.4044 2405.51 84.3049C2403.77 89.2008 2404.22 93.8604 2409.08 106.728C2413.95 119.594 2423.23 140.663 2444.06 184.315C2464.9 227.961 2497.29 294.182 2514.22 330.237C2531.15 366.292 2532.62 372.177 2542.17 376.681C2551.71 381.18 2569.33 384.296 2582.52 388.656C2595.71 393.015 2604.47 398.618 2614.75 408.96C2625.04 419.295 2636.86 434.365 2645.26 449.015C2653.65 463.662 2658.62 477.879 2658.64 492.737C2658.66 507.59 2653.74 523.076 2642.96 536.048C2632.19 549.02 2615.57 559.471 2599.2 565.702C2582.84 571.928 2566.72 573.927 2555.88 572.814C2545.04 571.696 2539.48 567.462 2536.7 565.349C2533.92 563.23 2533.92 563.23 2532.7 568.357C2531.49 573.482 2529.06 583.737 2523.94 593.231C2518.83 602.725 2511.04 611.458 2498.93 617.878C2486.83 624.298 2470.4 628.402 2456.59 628.437C2442.77 628.473 2431.56 624.439 2421.34 617.483C2411.13 610.525 2401.91 600.639 2395.42 590.559C2388.94 580.474 2385.19 570.191 2384.28 557.977C2383.38 545.761 2385.31 531.62 2390.09 515.545C2394.87 499.469 2402.49 481.469 2405.85 467.809C2409.21 454.142 2408.31 444.823 2405.31 434.207C2402.31 423.586 2397.21 411.67 2385.31 385.792Z" fill="#FEFEFE" fill-opacity="0.301961"/>
<path fill-rule="evenodd" clip-rule="evenodd" d="M403.614 1237.59C410.167 1236.86 418.233 1236.43 426.669 1237.22C435.105 1238.01 443.91 1240.01 451.616 1242.81C459.324 1245.6 465.932 1249.2 471.444 1253.08C476.959 1256.96 481.381 1261.13 485.13 1266.2C488.879 1271.27 491.956 1277.24 492.504 1285C493.051 1292.76 491.068 1302.3 485.495 1310.15C479.925 1318 470.763 1324.15 461.385 1327.78C452.01 1331.41 442.418 1332.52 432.415 1332.02C422.412 1331.51 411.995 1329.39 402.724 1326.63C393.451 1323.87 385.324 1320.47 377.832 1314.75C370.343 1309.04 363.49 1301.02 360.629 1292.13C357.768 1283.24 358.899 1273.49 363.958 1264.73C369.016 1255.97 378.002 1248.21 385.015 1243.8C392.026 1239.39 397.062 1238.33 403.614 1237.59Z" fill="#FEFEFE" fill-opacity="0.321569"/>
<path fill-rule="evenodd" clip-rule="evenodd" d="M501.151 1376.12C493.483 1371.89 482.808 1366.85 472.308 1363.43C461.81 1360 451.484 1358.18 441.042 1359.34C430.596 1360.49 420.027 1364.61 413.573 1370.33C407.119 1376.06 404.779 1383.39 403.249 1389.76C401.724 1396.14 401.012 1401.57 404.211 1409.76C407.41 1417.94 414.521 1428.89 423.082 1437.08C431.64 1445.27 441.646 1450.7 452.232 1454.94C462.821 1459.17 473.987 1462.21 485.951 1460.87C497.916 1459.53 510.678 1453.82 518.132 1447.75C525.586 1441.68 527.73 1435.26 528.994 1429.06C530.261 1422.85 530.647 1416.87 528.692 1409.93C526.737 1402.98 522.444 1395.09 517.967 1389.43C513.488 1383.77 508.821 1380.36 501.151 1376.12Z" fill="#FEFEFE" fill-opacity="0.321569"/>
<path fill-rule="evenodd" clip-rule="evenodd" d="M448.269 1489.83C442.81 1485.1 435.272 1479.48 427.343 1474.92C419.417 1470.37 411.1 1466.86 401.245 1465.55C391.391 1464.24 380.001 1465.13 371.423 1469.58C362.847 1474.02 357.082 1482.02 354.346 1490.9C351.612 1499.78 351.902 1509.55 355.232 1519.2C358.561 1528.85 364.926 1538.38 373.527 1547.22C382.127 1556.07 392.963 1564.23 403.637 1569.52C414.308 1574.81 424.816 1577.24 434.492 1577.18C444.168 1577.13 453.014 1574.6 459.511 1569.53C466.005 1564.46 470.155 1556.85 471.976 1549.37C473.797 1541.89 473.292 1534.53 470.992 1526.71C468.69 1518.88 464.589 1510.59 460.851 1504.51C457.111 1498.43 453.731 1494.57 448.269 1489.83Z" fill="#FEFEFE" fill-opacity="0.321569"/>
<path fill-rule="evenodd" clip-rule="evenodd" d="M256.064 1502.25C253.194 1504.73 249.374 1507.71 246.613 1514.18C243.85 1520.65 242.149 1530.59 242.619 1541.73C243.089 1552.85 245.729 1565.17 252.123 1576.86C258.518 1588.55 268.663 1599.63 278.415 1607.07C288.167 1614.52 297.524 1618.34 306.764 1619.44C316.003 1620.54 325.125 1618.92 331.742 1616.07C338.361 1613.21 342.475 1609.13 345.584 1601.2C348.689 1593.28 350.787 1581.53 348.803 1569.83C346.819 1558.13 340.759 1546.49 333.924 1536.45C327.089 1526.42 319.479 1517.98 311.945 1511.87C304.411 1505.75 296.95 1501.95 288.766 1499.66C280.581 1497.36 271.671 1496.56 266.259 1497.16C260.846 1497.76 258.932 1499.76 256.064 1502.25Z" fill="#FEFEFE" fill-opacity="0.321569"/>
<path fill-rule="evenodd" clip-rule="evenodd" d="M310.985 1237.21C306.757 1232.64 300.36 1226.64 292.479 1222.23C284.597 1217.82 275.231 1215.01 266.218 1214.92C257.208 1214.83 248.552 1217.46 241.147 1223.68C233.737 1229.89 227.579 1239.7 223.627 1251.84C219.678 1263.98 217.936 1278.46 215.784 1291.08C213.633 1303.69 211.07 1314.43 206.749 1325.36C202.432 1336.3 196.356 1347.41 190.394 1356.31C184.433 1365.21 178.587 1371.89 171.598 1378.97C164.612 1386.05 156.481 1393.52 150.563 1402.82C144.645 1412.12 140.941 1423.26 141.787 1434.85C142.63 1446.44 148.027 1458.47 156.588 1466.41C165.151 1474.35 176.877 1478.19 187.773 1479.81C198.667 1481.43 208.728 1480.83 216.805 1479.4C224.881 1477.97 230.972 1475.72 237.206 1473.41C243.438 1471.11 249.816 1468.76 258.268 1467.79C266.719 1466.81 277.246 1467.22 288.58 1467.44C299.913 1467.65 312.056 1467.67 324.129 1464.62C336.206 1461.57 348.213 1455.45 357.826 1446.39C367.442 1437.32 374.664 1425.31 378.273 1414.13C381.885 1402.94 381.883 1392.56 379.792 1382.33C377.701 1372.09 373.522 1361.98 367.97 1351.75C362.417 1341.53 355.488 1331.19 349.279 1320.36C343.065 1309.52 337.57 1298.19 333.897 1290C330.223 1281.81 328.371 1276.75 326.247 1270.29C324.123 1263.82 321.727 1255.95 319.499 1250.44C317.272 1244.93 315.213 1241.79 310.985 1237.21Z" fill="#FEFEFE" fill-opacity="0.321569"/>
<defs>
<radialGradient id="paint0_radial_1:5" cx="0" cy="0" r="1" gradientUnits="userSpaceOnUse" gradientTransform="translate(1995.27 3903.59) rotate(-90.191) scale(37933.6 35922.7)">
<stop stop-color="#F5F0A2"/>
<stop offset="0.329412" stop-color="#F5F0A2" stop-opacity="0.447059"/>
<stop offset="0.65098" stop-color="#95C671" stop-opacity="0.517647"/>
<stop offset="1" stop-color="#95C671"/>
</radialGradient>
</defs>
</svg>
