<?xml version="1.0" encoding="UTF-8"?>
<!DOCTYPE svg PUBLIC "-//W3C//DTD SVG 1.1//EN" "http://www.w3.org/Graphics/SVG/1.1/DTD/svg11.dtd">
<!-- Creator: CorelDRAW 2018 (64-Bit) -->
<svg xmlns="http://www.w3.org/2000/svg" xml:space="preserve" width="210mm" height="297mm" version="1.1" style="shape-rendering:geometricPrecision; text-rendering:geometricPrecision; image-rendering:optimizeQuality; fill-rule:evenodd; clip-rule:evenodd"
viewBox="0 0 21000 29700"
 xmlns:xlink="http://www.w3.org/1999/xlink">
 <defs>
  <style type="text/css">
   <![CDATA[
    .fil18 {fill:#FEFEFE}
    .fil0 {fill:#95C671}
    .fil7 {fill:#000908}
    .fil8 {fill:#000908}
    .fil2 {fill:#091211}
    .fil9 {fill:#101A11}
    .fil1 {fill:#263532}
    .fil3 {fill:#263634}
    .fil16 {fill:#362C26}
    .fil17 {fill:#362C26}
    .fil6 {fill:#393F32}
    .fil4 {fill:#545454}
    .fil5 {fill:#919191}
    .fil13 {fill:#9E7137}
    .fil12 {fill:#9E7137}
    .fil10 {fill:#D09D5C}
    .fil11 {fill:#D09D5C}
    .fil14 {fill:#F2B86D}
    .fil15 {fill:#F2B86D}
   ]]>
  </style>
 </defs>
 <g id="Слой_x0020_1">
  <metadata id="CorelCorpID_0Corel-Layer"/>
  <g id="_2152687989056">
   <circle class="fil0" cx="10519.41" cy="13092.58" r="9600.95"/>
   <path class="fil1" d="M8800.54 7112.39c95.08,274.45 186.57,500.74 282.87,664.45 96.29,163.7 197.41,264.82 269.64,370.74 72.22,105.93 115.54,216.68 132.4,312.97 16.85,96.3 7.22,178.15 16.85,245.57 9.63,67.4 38.52,120.36 113.16,178.14 74.62,57.78 194.99,120.37 363.52,168.52 168.51,48.15 385.19,81.85 601.85,113.14 216.67,31.3 433.34,60.19 606.67,62.6 173.34,2.41 303.34,-21.67 416.49,-77.03 113.15,-55.38 209.45,-142.05 303.34,-305.75 93.89,-163.71 185.37,-404.45 284.08,-645.19 98.7,-240.74 204.63,-481.49 351.48,-753.53 146.85,-272.04 334.64,-575.37 503.15,-806.49 168.52,-231.12 317.78,-390 416.49,-560.93 98.71,-170.93 146.85,-353.89 195,-507.97 48.16,-154.07 96.3,-279.26 139.64,-325 43.33,-45.74 81.84,-12.04 72.21,125.18 -9.63,137.23 -67.4,377.97 -144.44,635.56 -77.04,257.6 -173.34,532.05 -243.16,772.8 -69.81,240.74 -113.14,447.77 -178.14,635.56 -65,187.78 -151.67,356.29 -187.79,474.26 -36.1,117.96 -21.66,185.37 -14.44,274.45 7.23,89.07 7.23,199.82 -16.85,361.12 -24.07,161.29 -72.22,373.15 -101.11,577.78 -28.89,204.62 -38.52,402.04 -45.74,534.45 -7.23,132.4 -12.04,199.81 7.22,267.22 19.26,67.4 62.59,134.82 149.25,226.3 86.68,91.48 216.68,207.04 334.64,312.97 117.96,105.92 223.9,202.23 298.53,317.78 74.63,115.56 117.96,250.37 139.63,390 21.66,139.64 21.66,284.07 16.85,467.04 -4.82,182.96 -14.45,404.45 -14.45,560.94 0,156.47 9.63,247.96 84.26,339.44 74.64,91.48 214.27,182.97 332.23,293.71 117.96,110.74 214.27,240.74 329.82,361.11 115.56,120.37 250.38,231.12 375.56,322.6 125.19,91.48 240.74,163.71 320.19,252.78 79.45,89.07 122.77,195.01 154.07,286.49 31.3,91.48 50.56,168.52 52.97,247.96 2.41,79.44 -12.04,161.3 -36.11,247.97 -24.08,86.66 -57.78,178.15 -89.08,257.59 -31.29,79.44 -60.19,146.86 -105.93,219.08 -45.74,72.22 -108.33,149.26 -151.67,216.66 -43.33,67.41 -67.4,125.2 -103.52,235.94 -36.1,110.74 -84.25,274.44 -134.81,385.18 -50.55,110.75 -103.51,168.53 -175.74,216.67 -72.22,48.15 -163.71,86.67 -257.6,96.3 -93.88,9.63 -190.19,-9.63 -238.34,-19.26 -48.14,-9.63 -48.14,-9.63 -105.92,38.52 -57.78,48.15 -173.33,144.45 -267.23,199.82 -93.89,55.37 -166.11,69.81 -260,74.62 -93.89,4.82 -209.44,0.01 -322.59,-19.25 -113.15,-19.26 -223.9,-52.96 -320.19,-91.49 -96.3,-38.52 -178.16,-81.85 -262.41,-103.51 -84.26,-21.67 -170.93,-21.67 -286.49,-12.04 -115.56,9.63 -260,28.89 -339.45,60.19 -79.45,31.3 -93.88,74.62 -93.88,170.92 0,96.3 14.43,245.56 29.48,388.8 15.05,143.24 30.71,280.45 35.52,395.4 4.82,114.95 -1.2,207.64 15.05,371.35 16.26,163.71 54.78,398.45 112.56,710.83 57.78,312.37 134.83,702.37 234.73,1056.26 99.91,353.9 222.69,671.68 288.89,975.01 66.21,303.34 75.84,592.24 133.61,802.88 57.78,210.66 163.72,343.07 283.65,507.85 119.94,164.78 253.9,361.94 320.87,460.51 66.98,98.58 66.98,98.58 66.98,98.58 0,0 0,0 -66.79,20.09 -66.78,20.08 -200.34,60.26 -369.6,105.1 -169.25,44.85 -374.2,94.36 -540.51,130.95 -166.31,36.61 -293.98,60.31 -427.74,82.08 -133.76,21.77 -273.61,41.63 -431.15,59.6 -157.53,17.96 -332.76,34.05 -499.99,45.25 -167.23,11.2 -326.47,17.52 -473.35,20.31 -146.89,2.79 -281.41,2.04 -471.65,-6.24 -190.25,-8.27 -436.21,-24.09 -737,-60.46 -300.79,-36.38 -656.41,-93.33 -964.04,-155.99 -307.64,-62.66 -567.3,-131.06 -795.02,-199.05 -227.72,-67.99 -423.51,-135.59 -644.97,-222.71 -221.48,-87.12 -468.62,-193.78 -691.26,-299.28 -222.65,-105.51 -420.78,-209.87 -552.41,-281.21 -131.63,-71.33 -196.75,-109.63 -229.31,-128.79 -32.56,-19.15 -32.56,-19.15 2.32,-80.5 34.88,-61.35 104.65,-184.04 173.23,-324.83 68.59,-140.8 136,-299.69 174.52,-442.93 38.51,-143.24 48.14,-270.84 69.81,-575.38 21.67,-304.53 55.37,-786.03 84.26,-1374.65 28.89,-588.61 52.97,-1284.36 87.88,-1818.81 34.91,-534.45 80.64,-907.61 126.39,-1339.75 45.74,-432.13 91.48,-923.25 182.96,-1399.92 91.48,-476.67 228.71,-938.9 309.36,-1239.83 80.65,-300.93 104.71,-440.56 98.7,-562.13 -6.02,-121.58 -42.13,-225.11 -117.96,-421.31 -75.84,-196.21 -191.4,-485.1 -267.23,-698.15 -75.84,-213.07 -111.95,-350.29 -122.78,-572.98 -10.84,-222.69 3.61,-530.84 39.72,-749.91 36.12,-219.08 93.89,-349.08 148.06,-521.22 54.17,-172.13 104.72,-386.39 139.63,-656.02 34.91,-269.63 54.17,-594.64 95.09,-884.73 40.93,-290.1 103.52,-545.29 187.79,-837.8 84.26,-292.5 190.18,-622.32 293.7,-937.69 103.52,-315.38 204.63,-616.3 245.56,-855.84 40.92,-239.55 21.67,-417.69 20.47,-515.19 -1.21,-97.51 15.64,-114.36 72.22,-80.66 56.57,33.7 152.87,117.97 257.59,261.21 104.72,143.24 217.88,345.46 321.4,603.07 103.52,257.59 197.4,570.55 293.7,888.34 96.29,317.78 194.99,640.39 290.08,914.84z"/>
   <path class="fil2" d="M8140.69 21394.3c228.7,65 498.34,156.49 705.38,296.12 207.04,139.63 351.47,327.41 455,464.63 103.52,137.22 166.11,223.9 199.16,294.68 33.04,70.78 36.55,125.68 38.57,153.16 2.01,27.48 2.55,27.54 -46.38,24.14 -48.94,-3.4 -147.37,-10.26 -264.77,-24.23 -117.42,-13.96 -253.82,-35.04 -375.15,-87.98 -121.33,-52.93 -227.59,-137.74 -338.5,-225.89 -110.9,-88.14 -226.46,-179.62 -354.06,-256.67 -127.59,-77.03 -267.22,-139.62 -380.37,-228.7 -113.15,-89.07 -199.82,-204.63 -235.93,-300.92 -36.11,-96.3 -21.67,-173.34 79.45,-192.6 101.11,-19.25 288.89,19.26 517.6,84.26z"/>
   <path class="fil2" d="M12656.07 21347.37c-49.59,145.62 -92.92,415.25 -131.44,605.44 -38.52,190.19 -72.22,300.93 -109.08,383.19 -36.85,82.25 -76.86,136.02 -132.61,169.23 -55.75,33.22 -127.23,45.85 -198.84,57.57 -71.62,11.73 -143.36,22.54 -109.28,-17.89 34.08,-40.43 173.98,-132.1 284.85,-206.83 110.88,-74.71 192.74,-132.49 236.07,-221.57 43.33,-89.07 48.15,-209.44 28.89,-310.56 -19.26,-101.11 -62.59,-182.96 -98.71,-279.26 -36.11,-96.3 -64.99,-207.04 -55.36,-298.52 9.63,-91.48 57.77,-163.71 81.85,-267.22 24.07,-103.52 24.07,-238.34 12.04,-387.6 -12.04,-149.26 -36.12,-312.97 -65.01,-479.08 -28.89,-166.12 -62.59,-334.63 -74.45,-492.95 -11.85,-158.32 -1.86,-306.43 -8.11,-429.08 -6.25,-122.65 -28.74,-219.84 -39.99,-268.43 -11.24,-48.6 -11.24,-48.6 27.96,96.82 39.2,145.43 117.61,436.28 187.29,686.35 69.68,250.09 130.65,459.4 169,608.73 38.36,149.33 54.1,238.67 68.35,330.57 14.26,91.89 27.03,186.34 37.66,259.3 10.64,72.97 19.15,124.44 27.16,166.36 8.02,41.92 15.53,74.28 -8.63,101.25 -24.17,26.98 -80.02,48.57 -129.61,194.18z"/>
   <path class="fil2" d="M12011.84 20055.75c-64.99,-223.89 -190.18,-589.82 -279.26,-813.71 -89.07,-223.89 -142.03,-305.75 -163.7,-247.97 -21.67,57.78 -12.04,255.19 50.55,495.93 62.6,240.75 178.16,524.82 235.93,736.68 57.78,211.85 57.78,351.49 50.56,479.08 -7.22,127.59 -21.67,243.15 -89.08,173.33 -67.41,-69.81 -187.78,-325 -240.74,-380.37 -52.96,-55.37 -38.52,89.08 -2.41,235.93 36.11,146.86 93.89,296.11 117.96,423.7 24.08,127.6 14.46,233.53 -4.8,310.56 -19.27,77.05 -48.16,125.19 -122.79,52.96 -74.63,-72.22 -195,-264.81 -298.52,-428.51 -103.51,-163.71 -190.19,-298.53 -267.22,-387.61 -77.04,-89.07 -144.45,-132.4 -101.11,-57.77 43.33,74.63 197.4,267.22 327.4,462.22 130.01,195.01 235.94,392.42 300.94,522.42 65,130 89.07,192.59 120.37,187.78 31.3,-4.82 69.81,-77.04 101.11,-158.9 31.3,-81.85 55.37,-173.33 55.37,-274.44 0,-101.11 -24.07,-211.85 -14.44,-238.34 9.63,-26.47 52.95,31.3 103.51,52.97 50.56,21.67 108.34,7.22 115.56,-72.23 7.22,-79.44 -36.11,-223.89 -60.18,-329.81 -24.08,-105.93 -28.89,-173.34 -28.89,-243.16 0,-69.81 4.81,-142.03 24.07,-142.03 19.26,0 52.96,72.22 79.44,89.07 26.49,16.85 45.75,-21.66 52.97,-81.85 7.22,-60.18 2.41,-142.04 -62.6,-365.93z"/>
   <path class="fil2" d="M6879.17 10929.16c84.25,211.85 117.96,442.97 168.52,606.68 50.55,163.7 117.96,260 170.93,358.7 52.96,98.7 91.47,199.82 132.4,373.16 40.93,173.33 84.26,418.89 48.15,633.15 -36.11,214.26 -151.67,397.22 -243.15,633.16 -91.49,235.92 -158.89,524.81 -211.86,772.77 -52.96,247.98 -91.48,455.01 -81.85,695.75 9.63,240.75 67.41,515.2 221.48,938.91 154.08,423.71 404.45,996.67 640.38,1430.02 235.93,433.34 457.42,727.04 628.35,1061.67 170.92,334.63 291.3,710.19 467.04,1145.93 175.74,435.75 406.85,931.69 577.78,1266.31 170.92,334.64 281.67,507.97 416.49,604.27 134.82,96.3 293.7,115.56 409.26,43.33 115.56,-72.22 187.78,-235.91 247.97,-317.77 60.19,-81.85 108.33,-81.85 209.45,-9.63 101.11,72.22 255.18,216.66 334.63,322.59 79.44,105.93 84.26,173.34 62.59,235.93 -21.67,62.59 -69.81,120.37 -202.22,156.48 -132.41,36.11 -349.09,50.56 -493.52,67.41 -144.45,16.86 -216.68,36.12 -310.57,16.86 -93.88,-19.27 -209.45,-77.04 -346.67,-209.45 -137.23,-132.41 -296.11,-339.45 -450.19,-640.38 -154.07,-300.93 -303.34,-695.74 -445.38,-1066.5 -142.03,-370.74 -276.85,-717.41 -421.3,-1032.78 -144.44,-315.38 -298.51,-599.45 -471.85,-849.82 -173.34,-250.37 -365.93,-467.05 -532.04,-686.12 -166.12,-219.08 -305.75,-440.56 -397.23,-698.16 -91.49,-257.59 -134.82,-551.3 -199.81,-890.76 -65.01,-339.44 -151.68,-724.63 -117.97,-1179.64 33.7,-455 187.78,-979.82 296.11,-1331.3 108.33,-351.49 170.93,-529.64 178.15,-698.16 7.22,-168.52 -40.92,-327.4 -120.53,-499.33 -79.61,-171.92 -190.66,-356.86 -283.3,-546.61 -92.64,-189.75 -166.88,-384.31 -224.45,-577.08 -57.58,-192.78 -98.5,-383.76 -118.59,-541.91 -20.1,-158.15 -19.35,-283.46 -8.97,-427.65 10.38,-144.19 30.4,-307.28 51.65,-269.93 21.25,37.33 43.73,275.1 122.39,490.27 78.64,215.18 213.46,407.78 297.73,619.63z"/>
   <path class="fil3" d="M7071.75 7387.86c31.29,-74.64 89.07,-146.86 120.37,-243.15 31.29,-96.3 36.1,-216.67 55.37,-337.05 19.26,-120.37 52.96,-240.74 86.8,-463.27 33.83,-222.53 67.78,-547.21 102.94,-781.51 35.15,-234.3 71.5,-378.2 89.68,-450.14 18.17,-71.96 18.17,-71.96 86.54,-47.11 68.37,24.85 205.09,74.54 326.42,246.25 121.33,171.7 227.25,465.41 339.48,697.72 112.22,232.31 230.75,403.23 290.01,488.69 59.26,85.45 59.26,85.45 30.13,-10.01 -29.14,-95.47 -87.41,-286.4 -150.07,-483.44 -62.67,-197.04 -129.75,-400.18 -193.03,-569.01 -63.28,-168.84 -122.77,-303.35 -182.31,-419.24 -59.54,-115.9 -119.13,-213.18 -177.38,-294.19 -58.26,-81.01 -115.18,-145.76 -158.11,-189.29 -42.93,-43.54 -71.88,-65.86 -97.17,-76.41 -25.29,-10.55 -46.92,-9.33 -58.96,4.11 -12.04,13.44 -14.47,39.11 -14.9,95 -0.42,55.87 1.17,141.96 -4.76,240.93 -5.92,98.95 -19.35,210.78 -53.51,362.78 -34.17,151.99 -89.06,344.14 -148.52,538.64 -59.47,194.51 -123.5,391.36 -183.42,581.11 -59.92,189.75 -115.72,372.39 -174.92,603.35 -59.21,230.95 -121.8,510.23 -164.63,758.68 -42.83,248.45 -65.89,466.1 -90.98,668.74 -25.09,202.63 -52.2,390.26 -65.76,484.08 -13.55,93.81 -13.55,93.81 22.93,-7.34 36.48,-101.15 109.43,-303.46 126.34,-432.4 16.91,-128.94 -22.22,-184.51 1.86,-208.58 24.06,-24.08 111.35,-16.65 154.99,-41.83 43.64,-25.18 43.64,-82.96 43.64,-169.62 0,-86.68 0,-202.23 2.41,-298.53 2.4,-96.29 7.22,-173.33 38.52,-247.96z"/>
   <path class="fil2" d="M9194.35 8800.82c-73.88,91.69 -107.58,212.06 -124.43,286.69 -16.85,74.63 -16.85,103.51 -62.59,117.96 -45.74,14.44 -137.23,14.44 -199.82,19.26 -62.6,4.81 -96.3,14.45 -122.78,33.71 -26.48,19.26 -45.74,48.14 -84.26,40.92 -38.52,-7.23 -96.3,-50.55 -122.78,-132.4 -26.48,-81.86 -21.67,-202.23 -21.67,-298.53 0,-96.29 -4.81,-168.52 -2.4,-221.48 2.41,-52.97 12.03,-86.67 36.1,-132.41 24.08,-45.74 62.59,-103.52 115.56,-180.56 52.97,-77.03 120.37,-173.34 166.11,-223.89 45.75,-50.56 69.82,-55.37 108.34,-4.81 38.52,50.55 91.48,156.48 154.07,202.23 62.59,45.73 134.82,31.29 189.63,-5.39 54.81,-36.69 92.22,-95.62 124.68,-100.14 32.45,-4.52 59.97,45.36 82.04,97.53 22.06,52.15 38.68,106.6 48.8,154.25 10.12,47.66 13.74,88.53 -41.47,140.46 -55.21,51.93 -169.26,114.92 -243.13,206.6z"/>
   <path class="fil2" d="M12644.95 8916.6c-9.63,-163.71 -38.51,-370.75 4.81,-606.68 43.34,-235.92 158.9,-500.74 322.51,-802.47 163.62,-301.72 375.3,-640.37 503.69,-879.94 128.39,-239.59 173.49,-380.13 212.17,-506.38 38.67,-126.25 70.91,-238.21 100.05,-360.72 29.15,-122.51 55.17,-255.55 62.33,-366.84 7.16,-111.29 -4.57,-200.82 -30.28,-195.55 -25.69,5.27 -65.38,105.34 -127.33,268.07 -61.95,162.73 -146.16,388.12 -222.08,548.2 -75.92,160.07 -143.53,254.83 -247.7,373.78 -104.16,118.93 -244.87,262.05 -377.86,468.44 -132.99,206.38 -258.27,476.03 -375.13,733.16 -116.86,257.12 -225.31,501.71 -317.7,708.98 -92.4,207.25 -168.76,377.17 -257.48,513.09 -88.73,135.91 -189.85,237.83 -240.41,288.79 -50.55,50.96 -50.55,50.96 -50.55,50.96 0,0 0,0 63.55,13.81 63.56,13.82 190.66,41.45 289.3,15.1 98.64,-26.34 168.79,-106.66 225.53,-141.95 56.75,-35.31 100.08,-25.59 135.61,-7.83 35.52,17.75 63.23,43.55 85.93,69.22 22.71,25.66 40.39,51.21 63.68,128.99 23.29,77.77 52.17,207.78 81.06,231.85 28.89,24.08 57.78,-57.78 77.04,-158.89 19.26,-101.11 28.89,-221.49 19.26,-385.19z"/>
   <path class="fil2" d="M13727.74 11058.64c-74.07,-9.05 -189.63,15.01 -266.67,78.82 -77.03,63.79 -115.55,167.31 -132.4,272.04 -16.85,104.72 -12.04,210.64 14.44,317.77 26.48,107.13 74.63,215.47 138.42,318.99 63.81,103.52 143.25,202.23 224.54,280.3 81.29,78.06 164.44,135.49 206,164.21 41.57,28.71 41.57,28.71 29.36,1.88 -12.2,-26.85 -36.6,-80.52 -50.57,-128.52 -13.97,-48 -17.49,-90.32 -18.07,-176.34 -0.58,-86.02 1.78,-215.76 4.5,-338.5 2.73,-122.76 5.84,-238.54 6.24,-336.08 0.4,-97.54 -1.9,-176.83 -5.11,-233.99 -3.21,-57.15 -7.32,-92.16 -25.68,-130.74 -18.35,-38.6 -50.93,-80.79 -125,-89.84z"/>
   <path class="fil3" d="M11384.66 10889.51c119.17,90.27 280.47,246.75 391.21,417.68 110.74,170.93 170.93,356.3 190.18,470.66 19.26,114.35 -2.4,157.69 -43.33,164.91 -40.93,7.22 -101.11,-21.67 -154.07,-65.01 -52.97,-43.33 -98.71,-101.11 -133.62,-139.63 -34.91,-38.52 -58.97,-57.77 -75.83,-49.34 -16.85,8.42 -26.48,44.53 -19.26,74.62 7.22,30.1 31.29,54.17 63.79,92.69 32.51,38.52 73.43,91.48 105.93,132.41 32.5,40.92 56.58,69.81 50.56,86.67 -6.02,16.85 -42.12,21.67 -87.87,-7.23 -45.74,-28.89 -101.11,-91.48 -154.08,-145.65 -52.96,-54.17 -103.51,-99.9 -125.18,-130 -21.67,-30.09 -14.45,-44.54 14.44,-39.72 28.89,4.81 79.45,28.89 104.72,40.93 25.28,12.03 25.28,12.03 24.08,-2.41 -1.2,-14.45 -3.61,-43.34 -2.41,-65.01 1.21,-21.66 6.02,-36.1 8.43,-43.32 2.41,-7.23 2.41,-7.23 -15.65,-25.28 -18.06,-18.06 -54.16,-54.17 -95.09,-105.93 -40.93,-51.76 -86.67,-119.17 -127.59,-188.98 -40.93,-69.82 -77.05,-142.04 -115.57,-207.04 -38.52,-65.01 -79.44,-122.78 -136.01,-173.34 -56.58,-50.56 -128.81,-93.89 -195.01,-128.8 -66.2,-34.91 -126.39,-61.39 -201.01,-83.06 -74.64,-21.67 -163.72,-38.51 -229.92,-49.35 -66.21,-10.83 -109.54,-15.64 -169.72,-6.01 -60.19,9.63 -137.23,33.69 -179.35,36.1 -42.14,2.41 -49.36,-16.84 -22.88,-45.73 26.49,-28.9 86.67,-67.41 179.36,-109.54 92.68,-42.13 217.87,-87.87 318.98,-99.91 101.11,-12.04 178.15,9.62 267.23,57.78 89.07,48.14 190.19,122.77 279.26,172.13 89.07,49.35 166.11,73.42 285.28,163.71z"/>
   <path class="fil2" d="M10386.47 10985.79c56.27,-30.09 102.61,-52.96 148.95,-65 46.35,-12.04 92.7,-13.24 132.42,-10.53 39.72,2.71 72.83,9.33 118.57,28.59 45.74,19.26 104.12,51.15 154.37,118.26 50.26,67.1 92.38,169.43 126.09,243.45 33.7,74.03 58.98,119.77 73.43,149.27 14.45,29.49 18.06,42.73 -11.43,49.95 -29.5,7.22 -92.09,8.43 -141.44,19.87 -49.36,11.43 -85.46,33.09 -130,45.13 -44.54,12.03 -97.5,14.44 -151.07,12.64 -53.57,-1.81 -107.73,-7.83 -160.09,-18.66 -52.37,-10.84 -102.92,-26.48 -155.28,-55.97 -52.37,-29.49 -106.54,-72.82 -159.5,-108.33 -52.96,-35.52 -104.72,-63.2 -152.87,-84.26 -48.15,-21.08 -92.68,-35.51 -104.11,-51.16 -11.44,-15.65 10.22,-32.5 36.7,-47.55 26.48,-15.05 57.78,-28.29 89.69,-48.15 31.89,-19.87 64.39,-46.34 113.74,-78.24 49.35,-31.9 115.56,-69.21 171.83,-99.31z"/>
   <path class="fil4" d="M8008.79 12628.91c-55.38,166.11 -142.05,368.34 -163.71,609.08 -21.67,240.74 21.66,520 91.48,760.75 69.81,240.74 166.12,442.97 298.53,621.11 132.4,178.15 300.92,332.23 377.96,421.3 77.04,89.08 62.6,113.15 -52.96,45.74 -115.56,-67.41 -332.23,-226.29 -517.6,-445.37 -185.38,-219.07 -339.45,-498.34 -404.44,-777.6 -65.01,-279.26 -40.94,-558.52 12.03,-792.04 52.95,-233.53 134.81,-421.3 216.67,-558.52 81.85,-137.23 163.7,-223.9 192.59,-202.23 28.89,21.67 4.82,151.67 -50.55,317.78z"/>
   <path class="fil4" d="M10005.85 9185.11c155.11,89.06 347.71,161.28 463.27,296.1 115.55,134.82 154.07,332.22 180.55,459.82 26.48,127.6 40.93,185.37 45.74,240.75 4.82,55.36 0,108.33 -64.99,132.41 -65.01,24.06 -190.19,19.26 -327.42,60.18 -137.22,40.93 -286.48,127.6 -387.59,214.26 -101.11,86.67 -154.08,173.34 -125.19,198.67 28.89,25.32 139.62,-10.69 211.51,-44.88 71.9,-34.2 104.93,-66.57 148.29,-95.46 43.36,-28.9 97.04,-54.31 151.39,-76.13 54.35,-21.82 109.35,-40.05 174.44,-50.89 65.08,-10.83 140.23,-14.25 232.26,13.12 92.02,27.38 200.94,85.56 316.51,150.11 115.57,64.54 237.8,135.44 352.63,224.38 114.84,88.93 222.26,195.9 307.04,303.25 84.78,107.33 146.92,215.03 190.1,309.61 43.19,94.57 67.43,176 72.32,244.2 4.9,68.21 -9.54,123.18 1.77,213.87 11.31,90.69 48.4,217.1 100.63,323.64 52.24,106.53 119.65,193.2 218.36,243.76 98.7,50.55 228.7,64.99 349.07,67.4 120.37,2.41 231.12,-7.22 377.97,43.34 146.86,50.55 329.82,161.29 505.56,291.3 175.75,130 344.26,279.26 414.08,377.96 69.82,98.7 40.92,146.86 -24.08,209.45 -65,62.59 -166.11,139.63 -243.15,231.11 -77.03,91.48 -129.99,197.41 -134.81,291.3 -4.81,93.89 38.52,175.74 180.55,192.6 142.04,16.85 382.79,-31.29 640.38,-62.59 257.6,-31.3 532.04,-45.75 732.42,-26.88 200.39,18.88 326.7,71.07 387.01,76.18 60.31,5.11 54.6,-36.86 35.34,-103.38 -19.25,-66.53 -52.06,-157.61 -109.4,-247.99 -57.33,-90.38 -139.18,-180.06 -260.53,-288.63 -121.35,-108.57 -282.21,-236.05 -427.46,-369.85 -145.25,-133.79 -274.9,-273.9 -419.76,-410.67 -144.86,-136.76 -304.93,-270.18 -438.99,-398 -134.05,-127.83 -242.1,-250.05 -314.37,-348.48 -72.26,-98.44 -108.74,-173.08 -134.22,-279.21 -25.48,-106.13 -39.94,-243.74 -82.41,-398.8 -42.46,-155.05 -112.92,-327.57 -124.57,-514.03 -11.65,-186.47 35.51,-386.91 31.66,-513.68 -3.85,-126.78 -58.71,-179.9 -140.08,-262.65 -81.35,-82.75 -189.2,-195.12 -288.16,-326.95 -98.96,-131.83 -189.01,-283.11 -242.2,-396.45 -53.19,-113.34 -69.5,-188.74 -112.03,-254.98 -42.52,-66.24 -111.24,-123.34 -174.73,-127.05 -63.48,-3.72 -121.72,45.92 -194.22,86.74 -72.51,40.82 -159.3,72.81 -226.47,85.06 -67.18,12.25 -114.76,4.74 -169.2,6.24 -54.43,1.5 -115.73,11.99 -195.74,22.53 -80.01,10.53 -178.72,21.12 -278.77,22.68 -100.06,1.55 -201.46,-5.91 -375.96,-28.63 -174.5,-22.73 -422.11,-60.73 -604.4,-97.62 -182.31,-36.88 -299.3,-72.67 -386.8,-107.31 -87.51,-34.65 -145.53,-68.16 -115.72,-31.97 29.81,36.18 147.46,142.09 302.57,231.14z"/>
   <path class="fil4" d="M10196.38 11536.64c41.53,28.28 98.1,72.82 182.96,102.91 84.86,30.1 198.01,45.74 283.48,48.76 85.46,3 143.24,-6.63 172.13,-22.87 28.89,-16.26 28.89,-39.12 15.32,-55.05 -13.58,-15.93 -40.73,-24.91 -76.77,-29.87 -36.04,-4.95 -80.99,-5.87 -133.65,-12.45 -52.67,-6.59 -113.07,-18.84 -169.28,-39.45 -56.22,-20.62 -108.25,-49.59 -159.83,-80.93 -51.57,-31.35 -102.69,-65.05 -150.28,-92.11 -47.59,-27.06 -91.65,-47.46 -120.68,-50.78 -29.04,-3.33 -43.05,10.44 -30.19,43.2 12.85,32.76 52.57,84.52 85.68,116.42 33.1,31.9 59.58,43.93 101.11,72.22z"/>
   <path class="fil4" d="M8218.05 10795.8c-69.82,86.66 -185.37,178.15 -298.52,228.71 -113.15,50.55 -223.9,60.18 -365.94,60.18 -142.04,0 -315.37,-9.63 -423.58,-9.35 -108.22,0.28 -151.31,10.48 -160.94,-78.6 -9.63,-89.08 14.2,-277.42 -12.4,-458.26 -26.6,-180.84 -103.64,-354.17 -151.79,-546.76 -48.15,-192.59 -67.4,-404.45 -55.36,-597.04 12.04,-192.6 55.36,-365.93 96.29,-221.48 40.93,144.43 79.44,606.67 134.82,893.15 55.36,286.48 127.59,397.23 204.63,450.19 77.03,52.96 158.89,48.15 233.52,91.48 74.63,43.33 142.03,134.82 252.78,173.34 110.74,38.52 264.81,24.07 382.78,-24.07 117.96,-48.15 199.82,-130.01 228.71,-130.01 28.88,0 4.81,81.86 -65,168.52z"/>
   <path class="fil5" d="M12312.57 9478.11c110.25,66.56 275.36,163.58 385.42,246.15 110.06,82.56 165.07,150.69 193.25,200.89 28.19,50.19 29.55,82.45 -37.18,50.44 -66.72,-32.01 -201.54,-128.3 -348.39,-220.99 -146.86,-92.69 -305.74,-181.76 -439.35,-250.37 -133.61,-68.62 -241.96,-116.77 -392.42,-142.04 -150.47,-25.28 -343.06,-27.69 -507.97,-40.93 -164.91,-13.24 -302.13,-37.32 -424.04,-69.35 -121.91,-32.04 -228.49,-72.02 -183.31,-80.01 45.19,-7.98 242.15,16.04 395.33,28.09 153.18,12.04 262.57,12.1 363.62,2.02 101.05,-10.08 193.75,-30.3 321.37,-9.1 127.63,21.19 290.15,83.8 399.11,133.16 108.95,49.36 164.32,85.47 274.56,152.04z"/>
   <path class="fil5" d="M13766.09 13058.8c-42.32,-62.28 -121.81,-139.01 -158.17,-285.66 -36.35,-146.66 -29.55,-363.23 -125.83,-533.1 -96.27,-169.88 -295.61,-293.06 -312.88,-317.57 -17.27,-24.52 147.53,49.64 324.85,181.95 177.31,132.31 367.14,322.77 604.09,550.6 236.95,227.83 521.01,493 731.07,681.68 210.07,188.67 346.14,300.82 443.83,395.87 97.69,95.04 157,172.97 188.6,248.38 31.6,75.4 35.49,148.29 26.46,121.81 -9.02,-26.48 -30.97,-152.32 -109.36,-233.91 -78.38,-81.58 -213.19,-118.89 -417.83,-138.16 -204.64,-19.26 -479.08,-20.46 -683.72,-10.23 -204.64,10.22 -339.45,31.88 -447.88,64.05 -108.41,32.17 -190.42,74.84 -238.9,122.12 -48.47,47.3 -63.39,99.2 -40.76,157.25 22.63,58.06 82.82,122.25 90.43,145.04 7.62,22.79 -37.34,4.16 -67.44,-27.94 -30.08,-32.1 -45.31,-77.67 -30.46,-149 14.86,-71.34 59.8,-168.45 122.79,-255.51 62.99,-87.07 144.04,-164.1 195.21,-219.1 51.16,-55.01 72.45,-87.97 76.46,-122.88 4.01,-34.91 -9.25,-71.76 -31.79,-108.37 -22.55,-36.62 -54.37,-73 -72.85,-115.1 -18.48,-42.11 -23.61,-89.94 -65.92,-152.22z"/>
   <path class="fil6" d="M13635.93 14413.03c46.95,49.35 71.02,109.53 109.55,155.28 38.52,45.74 91.48,77.03 116.76,110.74 25.27,33.71 22.87,69.81 32.5,129.99 9.63,60.19 31.29,144.46 86.65,228.71 55.38,84.26 144.46,168.53 216.68,222.69 72.23,54.17 127.59,78.25 167.32,98.71 39.72,20.46 63.79,37.31 127.58,34.9 63.8,-2.41 167.33,-24.07 281.07,-55.38 113.74,-31.32 237.69,-72.28 322.02,-124.41 84.34,-52.12 129.06,-115.42 180.22,-176.8 51.17,-61.37 108.81,-120.81 137.35,-183.07 28.54,-62.26 28,-127.31 54.49,-216.39 26.48,-89.07 79.98,-202.16 90.03,-286.13 10.05,-83.96 -23.37,-138.8 -65.5,-166.49 -42.12,-27.69 -92.98,-28.21 -160.54,-39.32 -67.55,-11.09 -151.81,-32.76 -216.81,-48.41 -65,-15.65 -110.74,-25.27 -186.26,-13.98 -75.52,11.3 -180.81,43.53 -323.7,43.81 -142.87,0.29 -323.32,-31.36 -450.03,-40.25 -126.7,-8.89 -199.65,4.98 -246.89,36.22 -47.22,31.25 -68.72,79.89 -100.4,103.93 -31.67,24.05 -73.51,23.5 -103.19,16.32 -29.69,-7.17 -47.21,-20.98 -72.9,-44.24 -25.69,-23.26 -59.55,-55.98 -76.66,-99.79 -17.1,-43.8 -17.45,-98.7 -21.86,-107.53 -4.4,-8.84 -12.85,28.38 -27.53,85.14 -14.68,56.76 -35.61,133.06 -11.16,190.47 24.45,57.41 94.27,95.92 141.21,145.28z"/>
   <path class="fil7" d="M14628.4 14452.14c-23.47,36.71 -59.59,101.72 -83.66,139.63 -24.08,37.92 -36.11,48.75 -64.4,52.96 -28.29,4.22 -72.82,1.81 -108.93,14.44 -36.12,12.65 -63.8,40.33 -84.88,61.39 -21.06,21.07 -35.49,35.52 -57.16,39.13 -21.67,3.61 -50.56,-3.61 -79.45,-18.67 -28.89,-15.04 -57.78,-37.9 -72.22,-61.98 -14.45,-24.07 -14.45,-49.35 6.61,-75.24 21.07,-25.88 63.2,-52.35 82.46,-79.44 19.26,-27.08 15.65,-54.76 5.41,-89.07 -10.23,-34.31 -27.08,-75.23 -30.09,-105.32 -3.01,-30.1 7.83,-49.36 66.21,-61.4 58.38,-12.03 164.31,-16.85 246.76,-13.84 82.45,3.01 141.44,13.84 173.93,39.12 32.51,25.28 38.52,65 36.12,89.08 -2.41,24.07 -13.24,32.5 -36.71,69.21z"/>
   <path class="fil8" d="M15156.83 14401.58c-43.94,46.34 -99.3,120.98 -123.99,182.36 -24.67,61.4 -18.65,109.54 -4.2,138.43 14.44,28.89 37.3,38.52 60.77,42.13 23.48,3.61 47.56,1.21 80.06,-9.03 32.5,-10.23 73.42,-28.28 120.1,-45.16 46.68,-16.88 99.1,-32.59 123.77,-69.9 24.68,-37.32 21.61,-96.24 33.05,-138.35 11.44,-42.1 37.39,-67.37 51.76,-93.28 14.36,-25.91 17.14,-52.46 -23.52,-67.5 -40.66,-15.05 -124.76,-18.6 -183.07,-11.35 -58.3,7.26 -90.79,25.31 -134.73,71.65z"/>
   <path class="fil4" d="M14479.74 14839.14c-21.67,27.68 -63.79,66.2 -115.56,95.09 -51.76,28.89 -113.14,48.14 -175.14,45.73 -62,-2.4 -124.58,-26.47 -154.08,-69.81 -29.49,-43.33 -25.88,-105.92 -2.41,-129.4 23.48,-23.47 66.81,-7.82 109.54,4.22 42.74,12.03 84.86,20.46 126.39,10.83 41.53,-9.63 82.45,-37.32 116.76,-53.57 34.31,-16.25 62,-21.06 80.65,-13.24 18.66,7.83 28.29,28.29 32.5,46.94 4.22,18.67 3.02,35.52 -18.65,63.21z"/>
   <path class="fil4" d="M14949.18 14854.18c15.65,29.49 46.95,77.64 80.05,110.14 33.11,32.5 68.01,49.35 99.31,52.96 31.3,3.61 58.98,-6.02 82.45,-25.88 23.48,-19.86 42.74,-49.95 49.35,-72.82 6.63,-22.87 0.61,-38.52 -21.66,-45.15 -22.27,-6.61 -60.78,-4.21 -103.52,-17.45 -42.73,-13.24 -89.67,-42.12 -123.98,-53.56 -34.31,-11.43 -55.98,-5.42 -66.81,3.01 -10.83,8.43 -10.83,19.26 4.81,48.75z"/>
   <path class="fil9" d="M14805.5 14938.95c-38.96,121.49 -104.85,277.8 -184.3,409.01 -79.45,131.2 -172.44,237.3 -233.39,312.01 -60.94,74.71 -89.84,118.04 -93.45,140.91 -3.61,22.88 18.06,25.28 61.39,33.71 43.34,8.43 108.34,22.87 178.15,32.5 69.82,9.63 144.45,14.45 205.83,10.22 61.38,-4.22 109.5,-17.49 121.63,-3.84 12.13,13.66 -11.74,54.24 -23.67,74.52 -11.93,20.3 -11.93,20.3 -44.52,23.49 -32.6,3.2 -97.78,9.59 -171.3,4.36 -73.51,-5.23 -155.37,-22.08 -222.78,-34.12 -67.41,-12.04 -120.37,-19.25 -160.09,-22.86 -39.73,-3.62 -66.21,-3.62 -114.36,9.63 -48.15,13.24 -117.97,39.71 -223.89,62.59 -105.93,22.87 -247.97,42.13 -382.78,60.18 -134.82,18.06 -262.41,34.91 -388.8,51.76 -126.39,16.85 -251.58,33.71 -428.73,43.34 -177.15,9.63 -406.25,12.03 -675.89,-37.33 -269.64,-49.35 -579.79,-150.46 -804.69,-240.73 -224.89,-90.28 -364.51,-169.73 -454.79,-219.08 -90.29,-49.35 -131.21,-68.61 -133.62,-95.1 -2.41,-26.48 33.7,-60.18 146.85,-26.48 113.15,33.71 303.34,134.82 509.17,222.69 205.84,87.87 427.32,162.51 634.36,213.06 207.04,50.56 399.64,77.03 637.98,72.22 238.33,-4.82 522.41,-40.92 765.56,-69.81 243.16,-28.9 445.38,-50.56 586.21,-78.24 140.84,-27.69 220.29,-61.4 275.65,-104.73 55.38,-43.33 86.67,-96.3 142.04,-175.74 55.37,-79.44 134.82,-185.38 205.84,-299.73 71.02,-114.35 133.61,-237.13 175.74,-323.8 42.13,-86.67 63.79,-137.22 79.44,-192.59 15.65,-55.38 25.28,-115.56 44.54,-173.34 19.26,-57.78 48.15,-113.15 55.38,-108.33 7.22,4.81 -7.23,69.81 -20.47,145.64 -13.24,75.84 -25.28,162.51 -64.24,284.01z"/>
   <path class="fil10" d="M9291.09 13277.29c117.96,31.29 286.48,26.47 438.15,28.88 151.67,2.41 286.48,12.04 385.18,2.41 98.71,-9.63 161.3,-38.51 222.79,-77.72 61.47,-39.21 121.83,-88.75 206.1,-115.22 84.26,-26.49 192.42,-29.93 325.94,-48.49 133.52,-18.57 292.41,-52.27 441.67,15.14 149.26,67.4 288.89,235.92 406.86,329.81 117.96,93.89 214.26,113.15 293.7,81.85 79.45,-31.29 142.04,-113.14 209.45,-202.22 67.41,-89.08 139.63,-185.37 231.11,-233.52 91.49,-48.15 202.23,-48.15 269.63,4.82 67.41,52.96 91.49,158.88 154.08,231.11 62.6,72.22 163.71,110.73 235.93,129.99 72.22,19.26 115.55,19.26 132.4,91.49 16.86,72.22 7.24,216.67 14.46,332.22 7.22,115.56 31.29,202.23 67.4,305.75 36.12,103.52 84.26,223.89 122.78,337.04 38.52,113.15 67.4,219.08 93.89,303.34 26.48,84.26 50.56,146.85 31.3,214.25 -19.26,67.42 -81.85,139.64 -127.6,223.9 -45.74,84.26 -74.62,180.56 -115.55,267.23 -40.93,86.66 -93.89,163.7 -180.56,226.29 -86.67,62.6 -207.04,110.74 -382.78,132.41 -175.74,21.67 -406.86,16.86 -702.98,-60.19 -296.11,-77.03 -657.23,-226.29 -926.86,-320.19 -269.63,-93.89 -447.78,-132.4 -544.07,-115.55 -96.3,16.86 -110.75,89.08 -98.71,180.56 12.04,91.48 50.56,202.22 158.9,293.7 108.33,91.48 286.48,163.71 486.3,228.71 199.81,65 421.3,122.78 572.33,128.89 151.04,6.13 231.63,-39.41 278.06,-32.5 46.44,6.91 58.72,66.28 49.22,124.44 -9.5,58.17 -40.8,115.15 -48.12,241.34 -7.3,126.2 9.38,321.62 -23.82,510.11 -33.2,188.5 -116.27,370.06 -181.88,489.73 -65.61,119.68 -113.75,177.45 -145.05,228.01 -31.3,50.56 -45.74,93.89 -50.56,257.6 -4.81,163.7 0,447.77 -21.67,611.48 -21.66,163.71 -69.81,207.04 -137.22,219.08 -67.4,12.03 -154.08,-7.22 -195.01,21.66 -40.92,28.89 -36.1,105.94 -64.99,226.31 -28.89,120.37 -91.48,284.07 -146.86,377.96 -55.37,93.89 -103.51,117.97 -185.36,33.7 -81.86,-84.25 -197.42,-276.85 -320.2,-476.67 -122.78,-199.81 -252.78,-406.85 -382.78,-592.23 -130,-185.37 -260,-349.07 -394.82,-532.03 -134.81,-182.97 -274.44,-385.19 -370.74,-558.53 -96.3,-173.34 -149.26,-317.78 -139.63,-529.64 9.63,-211.85 81.85,-491.11 117.96,-719.82 36.12,-228.7 36.12,-406.85 -24.07,-577.78 -60.18,-170.93 -180.56,-334.64 -317.79,-613.9 -137.22,-279.26 -291.29,-674.08 -423.7,-970.2 -132.41,-296.11 -243.16,-493.52 -284.08,-671.66 -40.93,-178.16 -12.04,-337.05 65.01,-488.72 77.03,-151.67 202.22,-296.11 308.14,-390 105.93,-93.89 192.6,-137.22 252.79,-77.03 60.18,60.18 93.88,223.88 108.33,375.55 14.44,151.67 9.63,291.3 40.92,394.82 31.3,103.52 98.71,170.93 216.68,202.23z"/>
   <path class="fil11" d="M7738.28 8000.21c24.08,233.52 77.03,556.11 125.19,808.9 48.15,252.78 91.48,435.74 93.88,558.52 2.41,122.78 -36.1,185.37 -110.73,216.67 -74.63,31.29 -185.38,31.29 -269.64,31.29 -84.26,0 -142.04,0 -142.04,38.52 0,38.52 57.78,115.56 81.68,196.66 23.89,81.1 13.9,166.28 4.27,233.69 -9.64,67.4 -18.9,117.04 -45.2,151.5 -26.3,34.45 -69.63,53.72 -127.41,44.08 -57.79,-9.63 -130.01,-48.14 -193.68,-88.57 -63.69,-40.44 -118.83,-82.77 -184.04,-165.79 -65.2,-83.02 -140.47,-206.71 -151.48,-281.19 -11,-74.48 42.24,-99.75 62.48,-160.2 20.23,-60.46 7.45,-156.12 12.33,-248.25 4.87,-92.12 27.4,-180.74 29.04,-273.18 1.64,-92.46 -17.62,-188.76 -45.44,-270.99 -27.83,-82.23 -64.2,-150.4 -73.18,-255.73 -8.98,-105.34 9.45,-247.84 51.27,-339.07 41.82,-91.24 107.04,-131.22 140.2,-191.34 33.16,-60.12 34.26,-140.38 41.58,-246.72 7.32,-106.34 20.85,-238.74 38.25,-324.92 17.41,-86.19 38.66,-126.15 64.27,-194.58 25.6,-68.44 55.53,-165.37 74.19,-242.08 18.66,-76.72 26.04,-133.24 37.34,-200.03 11.3,-66.8 26.52,-143.88 96.28,-138.11 69.77,5.75 194.06,94.35 275.48,191.61 81.4,97.26 119.93,203.19 129.56,309.12 9.63,105.92 -9.63,211.85 -21.67,337.03 -12.04,125.19 -16.86,269.63 7.22,503.16z"/>
   <path class="fil12" d="M10434.29 16023.41c-115.28,63.4 -264.53,150.08 -360.83,270.45 -96.3,120.37 -139.63,274.44 -149.26,397.22 -9.63,122.77 14.44,214.26 52.96,317.78 38.52,103.52 91.48,219.08 142.04,344.27 50.56,125.18 98.7,260 149.26,377.96 50.56,117.97 103.52,219.08 142.04,233.52 38.52,14.45 62.59,-57.78 108.33,-175.74 45.75,-117.97 113.15,-281.66 187.79,-332.22 74.62,-50.56 156.48,12.03 221.49,-12.04 64.99,-24.08 113.14,-134.82 163.69,-235.93 50.56,-101.11 103.52,-192.6 154.07,-199.82 50.56,-7.22 98.71,69.82 130,190.19 31.3,120.37 45.75,284.07 78.65,426.9 32.91,142.84 84.29,264.8 111.45,303.67 27.16,38.88 30.1,-5.32 62.7,-86.25 32.61,-80.94 94.86,-198.61 144.38,-297.06 49.53,-98.46 86.31,-177.7 85.8,-254.05 -0.51,-76.34 -38.32,-149.78 -62.03,-241.86 -23.72,-92.09 -33.34,-202.84 1.27,-354.1 34.6,-151.26 113.46,-343.04 117.06,-430.31 3.61,-87.27 -68.02,-70.03 -182.83,-70.85 -114.8,-0.81 -272.79,-19.67 -408.05,-54.71 -135.27,-35.04 -247.83,-86.23 -346.06,-132.39 -98.24,-46.14 -182.16,-87.24 -264.76,-87.72 -82.61,-0.46 -163.89,39.68 -279.16,103.09z"/>
   <path class="fil13" d="M10281.87 15232.36c-96.51,-112.13 -231.33,-237.32 -342.07,-297.51 -110.74,-60.18 -197.41,-55.37 -260,-110.74 -62.6,-55.37 -101.11,-170.92 -86.67,-247.96 14.45,-77.04 81.85,-115.55 52.97,-170.93 -28.89,-55.37 -154.08,-127.59 -288.9,-211.86 -134.82,-84.25 -279.26,-180.56 -397.22,-284.07 -117.96,-103.52 -209.45,-214.26 -281.67,-312.96 -72.23,-98.71 -125.19,-185.38 -179.94,-308.36 -54.76,-122.97 -111.31,-282.25 -146.85,-334.59 -35.54,-52.35 -50.08,2.25 -50.6,87.44 -0.54,85.18 12.94,200.95 82.04,400.22 69.1,199.25 193.81,482 307.09,739.45 113.28,257.47 215.11,489.63 303.86,675.41 88.74,185.78 164.39,325.16 225.46,475.29 61.06,150.13 107.54,311.01 128.7,425.68 21.16,114.68 17,183.15 6.55,266.48 -10.45,83.32 -27.18,181.5 -9.34,244.51 17.84,63 70.25,90.85 113.32,6.06 43.05,-84.79 76.75,-282.2 139.35,-390.54 62.59,-108.33 154.08,-127.58 245.56,-139.62 91.48,-12.04 182.96,-16.86 300.04,-22.14 117.08,-5.27 259.77,-11.02 322.58,-40.93 62.8,-29.89 45.73,-83.95 8.1,-160.53 -37.64,-76.57 -95.85,-175.66 -192.36,-287.8z"/>
   <path class="fil12" d="M7602.85 7245.15c7.91,-132.78 14.12,-263.51 -45.39,-336.08 -59.52,-72.58 -184.75,-86.99 -242.8,-110.99 -58.06,-24.01 -48.95,-57.61 -30.6,-162.58 18.34,-104.98 45.91,-281.34 83.94,-526.62 38.03,-245.28 86.52,-559.48 117.78,-748.98 31.25,-189.51 45.28,-254.31 52.04,-296.98 6.76,-42.66 6.26,-63.18 48.24,-43.02 41.98,20.16 126.45,81 227.42,204.48 100.97,123.48 218.43,309.6 352.19,530.69 133.75,221.09 283.79,477.15 380.05,672.66 96.25,195.5 138.73,330.45 193.32,490.93 54.58,160.47 121.27,346.47 78.66,525.17 -42.63,178.7 -194.54,350.11 -267.42,527.34 -72.88,177.24 -66.72,360.31 -93.2,557.72 -26.48,197.4 -85.61,409.16 -107.95,577.63 -22.34,168.47 -7.9,293.65 -27.16,317.73 -19.26,24.07 -72.22,-52.97 -145.14,-125.98 -72.93,-73.02 -165.83,-142.03 -226,-247.96 -60.18,-105.93 -87.63,-248.79 -112.29,-387.78 -24.67,-139 -46.54,-274.12 -62.78,-383.87 -16.25,-109.74 -26.87,-194.09 -59.27,-295.05 -32.41,-100.95 -86.62,-218.5 -108.9,-344.68 -22.29,-126.19 -12.66,-261 -4.74,-393.78z"/>
   <path class="fil12" d="M12621.59 8848.76c-24.53,-97.58 -72.43,-262.99 -54.25,-493.76 18.19,-230.76 102.45,-526.88 202.36,-780.86 99.91,-253.99 215.47,-465.85 356.31,-680.11 140.83,-214.26 306.94,-430.93 407.01,-566.06 100.07,-135.15 134.09,-188.76 151.1,-215.56 17.02,-26.81 17.02,-26.81 -19.54,88.95 -36.56,115.76 -109.68,347.28 -173.22,560.85 -63.53,213.55 -117.49,409.14 -171.35,574.89 -53.87,165.73 -107.65,301.63 -144.03,398.03 -36.36,96.4 -55.33,153.29 -65.72,208.9 -10.38,55.59 -12.21,109.89 -11.92,176.59 0.31,66.68 2.73,145.75 -2.4,234.35 -5.13,88.59 -17.81,186.7 -43.73,372.43 -25.9,185.72 -65.03,459.07 -87.27,656.1 -22.22,197.02 -27.54,317.73 -26.17,443.01 1.38,125.28 9.44,255.13 11.58,268.98 2.15,13.84 -1.64,-88.32 -31.1,-161.11 -29.46,-72.8 -84.59,-116.22 -157.4,-167.58 -72.81,-51.36 -163.3,-110.64 -216.9,-165.44 -53.59,-54.81 -70.3,-105.12 -46.9,-203.63 23.39,-98.51 86.88,-245.21 118.05,-333.43 31.17,-88.22 30.01,-117.96 5.49,-215.54z"/>
   <path class="fil11" d="M8604.21 9940.09c-7.23,21.66 -24.08,98.71 -77.04,139.63 -52.96,40.92 -142.04,45.74 -215.47,58.98 -73.42,13.24 -131.2,34.9 -122.78,15.65 8.43,-19.26 83.07,-79.45 150.48,-155.28 67.4,-75.83 127.58,-167.32 173.33,-217.87 45.74,-50.56 77.03,-60.19 90.27,-19.26 13.24,40.92 8.43,132.41 7.23,161.3 -1.21,28.88 1.2,-4.82 -6.02,16.85z"/>
   <path class="fil14" d="M10737.15 14531.09c122.78,2.41 238.35,-7.22 373.16,40.92 134.82,48.15 288.89,154.09 428.52,216.67 139.63,62.6 264.82,81.85 349.07,130 84.27,48.15 127.6,125.19 180.56,235.93 52.97,110.74 115.56,255.19 158.9,351.48 43.33,96.31 67.4,144.45 53.23,188.93 -14.16,44.48 -66.58,85.29 -158.06,102.14 -91.48,16.85 -222.04,9.74 -435.95,-32.95 -213.89,-42.69 -511.14,-120.97 -741.59,-192.59 -230.45,-71.61 -394.08,-136.56 -520.01,-219.08 -125.94,-82.51 -214.16,-182.6 -288.74,-255.14 -74.58,-72.55 -135.51,-117.55 -212.43,-121.08 -76.93,-3.52 -169.85,34.42 -259.08,-16.4 -89.24,-50.82 -174.78,-190.4 -218.11,-298.73 -43.33,-108.33 -44.46,-185.43 -4.18,-222.88 40.28,-37.45 121.97,-35.26 230.31,-18.42 108.33,16.85 243.31,48.38 361.36,64.14 118.04,15.76 219.15,15.76 334.71,22.98 115.55,7.23 245.55,21.67 368.33,24.08z"/>
   <path class="fil15" d="M11661.61 14150.72c-103.52,12.03 -243.15,-7.23 -363.52,-67.42 -120.37,-60.18 -221.48,-161.3 -361.12,-187.78 -139.63,-26.47 -317.77,21.67 -510.37,26.48 -192.6,4.82 -399.63,-33.69 -491.11,-101.11 -91.49,-67.4 -67.42,-163.7 86.66,-267.22 154.08,-103.52 438.15,-214.26 650.01,-267.22 211.85,-52.97 351.48,-48.15 430.93,-2.41 79.44,45.74 98.7,132.41 144.44,233.52 45.74,101.11 117.97,216.67 231.12,308.15 113.15,91.49 267.21,158.89 310.55,214.27 43.34,55.37 -24.08,98.7 -127.59,110.74z"/>
   <path class="fil15" d="M11517.16 10498.05c75.84,92.08 126.39,183.57 146.25,260.61 19.87,77.04 9.03,139.63 -18.12,180.1 -27.15,40.46 -70.62,58.79 -118.02,49.9 -47.39,-8.89 -98.7,-45 -141.97,-89.68 -43.26,-44.68 -78.48,-97.91 -118.36,-143.8 -39.88,-45.88 -84.41,-84.39 -140.98,-121.11 -56.58,-36.72 -125.19,-71.62 -169.73,-112.55 -44.54,-40.93 -65,-87.86 -57.78,-134.81 7.23,-46.95 42.13,-93.89 103.52,-121.58 61.39,-27.68 149.26,-36.11 243.75,6.02 94.49,42.13 195.61,134.82 271.44,226.9z"/>
   <path class="fil15" d="M13543 10833.31c-16.85,46.94 -44.53,110.74 -59.99,164.24 -15.46,53.49 -18.71,96.7 -51.21,118.37 -32.49,21.67 -94.26,21.79 -147.42,-5.83 -53.14,-27.62 -97.68,-82.99 -119.34,-170.86 -21.67,-87.88 -20.47,-208.25 -2.41,-300.93 18.05,-92.68 52.96,-157.69 89.08,-188.38 36.11,-30.69 73.42,-27.08 117.96,-0.6 44.54,26.48 96.3,75.83 131.21,125.78 34.91,49.96 52.96,100.51 58.97,140.84 6.02,40.32 0,70.42 -16.85,117.37z"/>
   <path class="fil16" d="M10214.63 11148.08c42.13,-30.7 101.71,-65.61 153.77,-95.25 52.06,-29.64 96.6,-54.02 140.53,-70.26 43.94,-16.25 87.28,-24.38 133.02,-18.21 45.75,6.17 93.89,26.63 148.67,65.15 54.77,38.52 116.15,95.09 157.98,144.44 41.83,49.36 64.11,91.48 80.35,123.39 16.25,31.89 26.49,53.55 34.61,77.63 8.12,24.08 14.14,50.56 5.12,68.02 -9.03,17.45 -33.11,25.87 -62.6,39.11 -29.5,13.24 -64.4,31.3 -110.14,44.54 -45.75,13.24 -102.32,21.67 -157.68,27.09 -55.38,5.41 -109.55,7.82 -167.32,0 -57.78,-7.83 -119.17,-25.89 -183.57,-58.99 -64.4,-33.1 -131.81,-81.25 -181.76,-123.38 -49.96,-42.13 -82.46,-78.24 -93.29,-100.5 -10.83,-22.28 0,-30.71 17.75,-48.16 17.76,-17.46 42.43,-43.93 84.56,-74.62z"/>
   <path class="fil8" d="M10394.57 11247.7c17.76,39.42 44.23,71.32 82.46,91.79 38.22,20.45 88.17,29.49 129.4,32.79 41.23,3.31 73.73,0.91 106.23,-12.34 32.5,-13.24 65,-37.31 86.07,-64.39 21.06,-27.09 30.69,-57.18 36.71,-86.67 6.02,-29.5 8.42,-58.38 9.08,-81.42 0.65,-23.05 -0.46,-40.25 -9.73,-55.6 -9.28,-15.35 -26.73,-28.85 -51.7,-44.35 -24.97,-15.51 -57.45,-33.02 -82.23,-43.88 -24.78,-10.86 -41.84,-15.06 -72.54,-14.12 -30.71,0.92 -75.04,6.99 -115.3,18.73 -40.26,11.74 -76.44,29.15 -99.86,40.86 -23.42,11.71 -34.09,17.72 -41.03,30.99 -6.94,13.26 -10.15,33.78 -7.24,67.51 2.9,33.73 11.93,80.67 29.68,120.1z"/>
   <path class="fil2" d="M13714.43 11738.73c40.04,-33.12 61.41,-62.36 75.71,-119.11 14.31,-56.76 21.53,-141.03 22.13,-206.63 0.61,-65.61 -5.41,-112.55 -16.85,-152.87 -11.43,-40.33 -28.28,-74.03 -48.75,-99.31 -20.46,-25.28 -44.53,-42.13 -83.45,-50.7 -38.93,-8.56 -92.7,-8.83 -134.22,7.41 -41.53,16.25 -70.82,49.03 -95.09,91.9 -24.28,42.87 -43.54,95.83 -51.37,169.26 -7.82,73.42 -4.2,167.32 15.42,256.14 19.63,88.81 55.28,172.55 75.73,214.1 20.45,41.54 25.7,40.9 37.05,33.35 11.35,-7.55 28.81,-21.99 66.88,-47.7 38.08,-25.73 96.77,-62.72 136.81,-95.84z"/>
   <path class="fil17" d="M13773.94 11427.25c0.25,58.85 -0.44,134.43 -13.73,188.77 -13.29,54.34 -39.18,87.45 -82.29,120.21 -43.12,32.76 -103.48,65.18 -131.92,85.67 -28.43,20.49 -24.96,29.05 -41.68,5.44 -16.72,-23.61 -53.63,-79.37 -76.3,-157.21 -22.67,-77.85 -31.09,-177.75 -22.06,-257.8 9.03,-80.05 35.51,-140.23 65.6,-179.35 30.09,-39.13 63.79,-57.18 96.3,-65 32.5,-7.82 63.8,-5.42 97.5,15.65 33.71,21.07 69.81,60.78 88.47,101.71 18.66,40.93 19.87,83.05 20.11,141.91z"/>
   <path class="fil8" d="M13697.86 11409.93c-13.25,28.28 -27.68,55.96 -49.35,83.05 -21.67,27.08 -50.56,53.56 -80.06,67.41 -29.49,13.84 -59.57,15.04 -82.44,-3.61 -22.88,-18.67 -38.53,-57.18 -48.33,-96.61 -9.8,-39.43 -13.75,-79.77 -7.13,-117.78 6.62,-38.03 23.81,-73.71 41.44,-105.3 17.63,-31.59 35.68,-59.08 60.14,-70.36 24.46,-11.28 55.31,-6.36 87.1,6.63 31.8,12.99 64.53,34.05 84.01,60.48 19.48,26.43 25.71,58.22 22.8,88.57 -2.9,30.34 -14.94,59.23 -28.18,87.52z"/>
   <path class="fil18" d="M10633.17 11136.58c16.86,-11.32 44.54,-22.14 68.02,-31.77 23.47,-9.63 42.73,-18.06 40.93,-31.3 -1.81,-13.24 -24.68,-31.3 -68.61,-39.73 -43.95,-8.42 -108.94,-7.22 -148.06,-1.8 -39.13,5.41 -52.37,15.04 -66.82,27.08 -14.44,12.04 -30.09,26.48 -35.5,49.36 -5.42,22.87 -0.61,54.16 22.87,75.23 23.47,21.06 65.6,31.9 97.51,34.3 31.89,2.41 53.55,-3.61 61.97,-12.75 8.42,-9.15 3.6,-21.43 4.2,-33.47 0.6,-12.03 6.63,-23.83 23.49,-35.15z"/>
   <path class="fil18" d="M13580.11 11401.45c29.16,0.52 58.57,-0.86 71.36,-14.25 12.79,-13.39 8.95,-38.8 3.88,-59.18 -5.08,-20.37 -11.39,-35.72 -28.4,-48.21 -17,-12.48 -44.69,-22.11 -65.46,-25.28 -20.76,-3.16 -34.6,0.15 -44.83,24.83 -10.23,24.68 -16.86,70.72 -5.72,94.95 11.14,24.22 40.02,26.63 69.17,27.14z"/>
  </g>
 </g>
</svg>
