<?xml version="1.0" encoding="UTF-8"?>
<!DOCTYPE svg PUBLIC "-//W3C//DTD SVG 1.1//EN" "http://www.w3.org/Graphics/SVG/1.1/DTD/svg11.dtd">
<!-- Creator: CorelDRAW 2018 (64-Bit) -->
<svg xmlns="http://www.w3.org/2000/svg" xml:space="preserve" width="210mm" height="297mm" version="1.1" style="shape-rendering:geometricPrecision; text-rendering:geometricPrecision; image-rendering:optimizeQuality; fill-rule:evenodd; clip-rule:evenodd"
viewBox="0 0 21000 29700"
 xmlns:xlink="http://www.w3.org/1999/xlink">
 <defs>
  <style type="text/css">
   <![CDATA[
    .fil4 {fill:none}
    .fil26 {fill:#FEFEFE}
    .fil25 {fill:#FEFEFE}
    .fil2 {fill:#091112}
    .fil3 {fill:#091112}
    .fil21 {fill:#0D201C}
    .fil22 {fill:#0D201C}
    .fil1 {fill:#344444}
    .fil23 {fill:#4B403C}
    .fil24 {fill:#4B403C}
    .fil5 {fill:#61717E}
    .fil6 {fill:#61717E}
    .fil14 {fill:#6B441A}
    .fil15 {fill:#6B441A}
    .fil7 {fill:#90A4B0}
    .fil9 {fill:#90A4B0}
    .fil12 {fill:#9C6B30}
    .fil13 {fill:#9C6B30}
    .fil8 {fill:#C8D6DF}
    .fil10 {fill:#C8D6DF}
    .fil19 {fill:#DCCCB5}
    .fil11 {fill:#EDEDF5}
    .fil16 {fill:#F1D299}
    .fil20 {fill:#F1D299}
    .fil17 {fill:#FDEABF}
    .fil18 {fill:#FDEABF}
    .fil0 {fill:url(#id0)}
   ]]>
  </style>
  <radialGradient id="id0" gradientUnits="userSpaceOnUse" gradientTransform="matrix(-0.0133871 -3.08524 3.08524 -0.0133871 -77987 63210)" cx="10998.57" cy="28890.12" r="11500.55" fx="10998.57" fy="28890.12">
   <stop offset="0" style="stop-opacity:1; stop-color:#FEFEFE"/>
   <stop offset="0.329412" style="stop-opacity:1; stop-color:#F5F0A2"/>
   <stop offset="0.65098" style="stop-opacity:1; stop-color:#CEEBFF"/>
   <stop offset="1" style="stop-opacity:1; stop-color:#95C671"/>
  </radialGradient>
 </defs>
 <g id="Слой_x0020_1">
  <metadata id="CorelCorpID_0Corel-Layer"/>
  <g id="_2112758047040">
   <circle class="fil0" cx="10471.45" cy="10968.25" r="8785.23"/>
   <path class="fil1" d="M6763.8 18911.4c319.58,145.41 688.59,290.36 1030.95,403.14 342.37,112.79 658.08,193.4 1006.76,258.29 348.66,64.89 730.28,114.05 1157.15,134.63 426.87,20.6 899.01,12.61 1301.63,-17.28 402.63,-29.9 735.75,-81.69 1030.06,-141.23 294.31,-59.53 549.8,-126.82 677.55,-160.46 127.75,-33.63 127.75,-33.63 40.72,-142.36 -87.03,-108.73 -261.1,-326.18 -361.61,-547.19 -100.51,-221.02 -127.45,-445.59 -158.89,-670.16 -31.44,-224.57 -67.37,-449.14 -143.73,-633.3 -76.35,-184.14 -193.13,-327.87 -296.44,-516.51 -103.3,-188.64 -193.12,-422.19 -238.04,-794.98 -44.91,-372.79 -44.91,-884.81 -49.4,-1244.12 -4.49,-359.32 -13.48,-565.93 17.96,-718.64 31.44,-152.7 103.31,-251.52 229.07,-273.98 125.76,-22.45 305.41,31.44 498.54,94.32 193.14,62.88 399.75,134.75 574.91,175.17 175.17,40.42 318.89,49.41 431.17,4.49 112.29,-44.91 193.14,-143.72 247.03,-206.6 53.9,-62.88 80.85,-89.83 121.27,-80.85 40.43,8.99 94.33,53.9 202.12,40.42 107.79,-13.47 269.48,-85.33 395.24,-238.04 125.76,-152.71 215.59,-386.26 278.47,-574.91 62.88,-188.63 98.81,-332.36 152.71,-426.69 53.9,-94.31 125.76,-139.22 184.15,-197.62 58.39,-58.38 103.31,-130.25 112.28,-238.04 8.98,-107.8 -17.96,-251.51 -113.35,-402.86 -95.38,-151.34 -259.19,-310.3 -492.75,-525.89 -233.55,-215.59 -536.84,-487.81 -728.92,-673.32 -192.06,-185.52 -272.91,-284.33 -317.28,-386.51 -44.37,-102.18 -52.25,-207.74 -34.19,-360.51 18.06,-152.78 62.07,-352.77 48.05,-556 -14.02,-203.24 -86.08,-409.72 -238.88,-656.68 -152.8,-246.97 -386.36,-534.42 -525.59,-705.09 -139.24,-170.67 -184.15,-224.57 -175.16,-417.7 8.98,-193.13 71.86,-525.5 130.24,-821.93 58.39,-296.44 112.29,-556.94 229.07,-898.29 116.78,-341.35 296.43,-763.55 413.21,-1127.35 116.78,-363.81 170.67,-669.22 89.83,-610.83 -80.84,58.38 -296.44,480.58 -565.92,943.2 -269.48,462.62 -592.87,965.66 -808.46,1311.5 -215.59,345.83 -323.39,534.48 -422.2,673.71 -98.81,139.23 -188.64,229.07 -247.03,278.48 -58.39,49.4 -85.33,58.37 -282.96,35.92 -197.62,-22.46 -565.92,-76.36 -844.38,-116.78 -278.47,-40.42 -467.12,-67.37 -579.4,-116.77 -112.29,-49.41 -148.21,-121.28 -229.06,-282.97 -80.85,-161.69 -206.61,-413.21 -372.78,-803.97 -166.19,-390.75 -372.8,-920.74 -511.76,-1355.83 -138.97,-435.1 -210.3,-775.3 -348.42,-1063.3 -138.12,-288 -343.03,-523.79 -451.09,-641.14 -108.07,-117.35 -119.28,-116.26 -140.05,71.25 -20.78,187.52 -51.12,561.44 -84.82,890.45 -33.7,329 -70.76,613.08 -131.39,828.67 -60.64,215.59 -144.86,362.68 -211.66,612.71 -66.81,250.02 -116.21,602.97 -149.08,787.15 -32.88,184.17 -49.24,199.57 -46.18,318.44 3.05,118.86 25.51,341.19 -58.94,621.31 -84.45,280.12 -275.81,618.02 -353.52,894.78 -77.71,276.74 -41.78,492.34 16.61,716.91 58.38,224.57 139.23,458.12 233.55,678.2 94.32,220.08 202.12,426.69 260.51,588.38 58.39,161.69 67.36,278.47 17.96,453.64 -49.41,175.16 -157.2,408.71 -251.52,637.77 -94.32,229.07 -175.17,453.64 -264.99,952.19 -89.83,498.55 -188.65,1271.07 -238.05,2088.51 -49.41,817.44 -49.41,1679.8 -71.87,2268.17 -22.46,588.38 -67.37,902.78 -121.26,1145.32 -53.9,242.54 -116.78,413.21 -172.89,568.3 -56.12,155.09 -105.46,294.58 -130.13,364.34 -24.67,69.75 -24.67,69.75 110.41,142.68 135.09,72.94 405.27,218.82 724.86,364.24z"/>
   <path class="fil2" d="M8297.76 19421.16c-41.71,-51.23 -79.31,-142.42 -143.03,-219.46 -63.72,-77.03 -153.55,-139.91 -205.2,-231.99 -51.65,-92.07 -65.12,-213.34 -35.92,-264.99 29.19,-51.65 101.05,-33.68 163.94,-15.72 62.87,17.97 116.77,35.93 195.37,47.16 78.6,11.23 181.9,15.72 267.24,51.65 85.34,35.93 152.71,103.31 213.34,166.18 60.63,62.89 114.54,121.27 179.66,139.24 65.12,17.97 141.48,-4.49 204.36,44.92 62.88,49.4 112.28,170.67 132.49,242.53 20.22,71.87 11.24,94.32 24.33,132.63 13.1,38.31 48.27,92.47 65.85,119.55 17.59,27.08 17.59,27.08 -78.46,12.56 -96.04,-14.51 -288.13,-43.56 -445.92,-71.06 -157.78,-27.49 -281.25,-53.45 -365.89,-72.07 -84.64,-18.62 -130.45,-29.89 -172.16,-81.13z"/>
   <path class="fil3" d="M10653.98 19601.58c19.63,-32.24 46.57,-54.7 73.52,-60.32 26.95,-5.61 53.9,5.62 76.36,26.95 22.46,21.34 40.41,52.77 65.12,65.12 24.7,12.36 56.15,5.62 101.06,13.35 44.9,7.74 103.27,29.95 134.69,40.91 31.43,10.97 35.9,10.7 15.46,17.11 -20.43,6.41 -65.77,19.51 -152.23,28.53 -86.48,9.02 -214.06,13.96 -280.62,10.72 -66.56,-3.23 -72.09,-14.65 -68.7,-41.38 3.39,-26.72 15.71,-68.75 35.34,-100.99z"/>
   <path class="fil3" d="M8418.9 17002.47c110.04,103.31 208.86,251.52 215.6,332.37 6.73,80.85 -78.61,94.32 -51.66,123.52 26.95,29.2 166.19,74.1 208.86,112.28 42.66,38.18 -11.23,69.62 -67.38,69.62 -56.14,0 -114.53,-31.44 -125.76,-8.99 -11.23,22.46 24.71,98.82 22.46,159.45 -2.24,60.64 -42.66,105.55 -49.4,170.67 -6.74,65.13 20.21,150.48 71.86,213.35 51.65,62.89 128.01,103.3 204.36,112.29 76.35,8.98 152.71,-13.48 213.35,6.73 60.63,20.22 105.54,83.09 184.14,199.87 78.6,116.79 190.88,287.46 332.37,417.71 141.48,130.25 312.15,220.08 440.15,280.71 128.01,60.64 213.35,92.08 282.97,74.11 69.62,-17.96 123.51,-85.34 179.66,-105.55 56.14,-20.2 114.53,6.74 179.66,24.71 65.12,17.96 136.99,26.95 172.92,-24.71 35.93,-51.65 35.93,-163.94 33.68,-256.01 -2.24,-92.07 -6.74,-163.94 -67.37,-215.6 -60.64,-51.64 -177.41,-83.08 -247.03,-65.12 -69.62,17.97 -92.08,85.35 -107.8,128.01 -15.72,42.67 -24.69,60.64 -56.14,-22.46 -31.44,-83.09 -85.33,-267.23 -107.79,-381.77 -22.46,-114.53 -13.47,-159.44 0,-224.57 13.48,-65.13 31.43,-150.47 -2.25,-193.14 -33.68,-42.66 -119.03,-42.66 -161.69,-17.96 -42.67,24.71 -42.67,74.11 -76.35,105.55 -33.69,31.44 -101.06,44.92 -121.27,96.56 -20.21,51.66 6.73,141.49 -33.69,110.05 -40.42,-31.44 -148.22,-184.15 -213.34,-298.68 -65.13,-114.53 -87.59,-190.89 -60.64,-229.07 26.95,-38.17 103.31,-38.17 184.15,-44.91 80.84,-6.74 166.18,-20.21 235.81,-24.7 69.61,-4.49 123.5,-0.01 175.16,35.93 51.65,35.93 101.05,103.3 148.22,148.22 47.16,44.91 92.07,67.36 123.51,40.41 31.44,-26.94 49.4,-103.3 8.98,-161.69 -40.42,-58.39 -139.23,-98.8 -179.65,-145.97 -40.42,-47.16 -22.47,-101.05 -51.65,-150.46 -29.2,-49.4 -105.56,-94.32 -175.17,-107.79 -69.62,-13.47 -132.5,4.49 -132.5,29.19 0,24.71 62.88,56.14 107.8,80.85 44.91,24.7 71.86,42.67 71.86,65.13 0,22.45 -26.95,49.4 -92.07,78.59 -65.13,29.2 -168.43,60.63 -238.05,60.63 -69.62,0 -105.55,-31.43 -83.09,-78.59 22.45,-47.16 103.3,-110.04 105.55,-145.98 2.24,-35.92 -74.11,-44.91 -154.96,-24.69 -80.85,20.21 -166.18,69.61 -220.07,71.86 -53.91,2.24 -76.36,-42.67 -24.71,-101.06 51.65,-58.39 177.41,-130.25 276.22,-208.85 98.81,-78.6 170.68,-163.94 150.46,-206.61 -20.21,-42.66 -132.49,-42.66 -197.62,-78.6 -65.13,-35.93 -83.09,-107.79 -112.29,-150.46 -29.2,-42.67 -69.61,-56.14 -105.55,-80.85 -35.93,-24.7 -67.37,-60.63 -96.56,-96.56 -29.2,-35.93 -56.14,-71.86 -33.68,-128.01 22.45,-56.14 94.32,-132.49 177.41,-197.62 83.08,-65.13 177.41,-119.03 208.85,-213.35 31.44,-94.31 0,-229.06 -44.91,-332.36 -44.92,-103.3 -103.31,-175.17 -136.99,-253.77 -33.69,-78.59 -42.68,-163.94 -76.36,-318.89 -33.68,-154.95 -92.08,-379.53 -123.51,-633.3 -31.44,-253.76 -35.93,-536.72 -33.69,-741.08 2.25,-204.36 11.23,-330.12 -35.92,-514.27 -47.17,-184.15 -150.48,-426.69 -258.27,-637.79 -107.79,-211.09 -220.08,-390.75 -305.41,-529.98 -85.35,-139.24 -143.73,-238.05 -172.93,-287.46 -29.19,-49.4 -29.19,-49.4 -60.63,35.94 -31.44,85.34 -94.32,256.01 -177.41,386.26 -83.09,130.25 -186.4,220.08 -238.05,323.38 -51.65,103.3 -51.65,220.09 -17.97,316.65 33.69,96.57 101.06,172.93 179.67,265 78.59,92.07 168.42,199.86 175.16,273.97 6.74,74.11 -69.62,114.53 -145.98,150.46 -76.35,35.94 -152.71,67.37 -238.04,89.83 -85.34,22.46 -179.66,35.93 -211.1,83.09 -31.44,47.16 0,128.01 83.1,139.24 83.09,11.23 217.83,-47.16 294.18,-51.65 76.36,-4.49 94.32,44.92 92.08,98.81 -2.25,53.9 -24.71,112.28 -96.57,123.51 -71.86,11.23 -193.13,-24.69 -260.5,8.99 -67.38,33.68 -80.84,136.99 -33.68,177.4 47.15,40.43 154.95,17.98 256,20.22 101.06,2.25 195.39,29.19 244.79,71.86 49.41,42.68 53.9,101.06 49.41,152.71 -4.5,51.66 -17.97,96.57 -65.13,114.54 -47.16,17.96 -128.01,8.98 -136.99,13.47 -8.99,4.49 53.9,22.45 123.52,49.4 69.61,26.95 145.96,62.89 175.16,87.59 29.2,24.7 11.23,38.17 -31.43,44.91 -42.68,6.74 -110.05,6.74 -139.24,26.95 -29.2,20.21 -20.22,60.63 -4.5,114.53 15.72,53.9 38.18,121.27 65.13,168.43 26.95,47.17 58.38,74.11 40.43,71.86 -17.97,-2.24 -85.35,-33.68 -143.73,-71.86 -58.39,-38.18 -107.8,-83.09 -110.04,-123.51 -2.25,-40.43 42.66,-76.35 38.17,-112.29 -4.49,-35.93 -58.38,-71.86 -101.05,-89.82 -42.68,-17.97 -74.11,-17.97 -56.14,-38.18 17.96,-20.22 85.33,-60.63 83.09,-80.85 -2.25,-20.21 -74.12,-20.21 -60.64,-40.42 13.47,-20.21 112.29,-60.63 143.73,-116.78 31.44,-56.15 -4.49,-128 -49.41,-172.92 -44.91,-44.92 -98.81,-62.88 -159.45,-67.37 -60.63,-4.49 -128,4.48 -195.37,4.48 -67.38,0 -134.75,-8.97 -163.94,-49.4 -29.2,-40.42 -20.21,-112.28 -49.41,-175.17 -29.19,-62.87 -96.56,-116.77 -92.07,-159.44 4.49,-42.67 80.84,-74.1 69.62,-103.3 -11.23,-29.19 -110.05,-56.15 -163.94,-101.06 -53.9,-44.91 -62.88,-107.8 -62.88,-170.68 0,-62.88 8.98,-125.75 -20.21,-190.88 -29.19,-65.12 -96.57,-132.5 -132.5,-233.56 -35.93,-101.05 -40.42,-235.8 -49.4,-404.23 -8.99,-168.42 -22.46,-370.54 2.24,-577.14 24.71,-206.61 87.58,-417.71 161.7,-601.86 74.1,-184.15 159.44,-341.34 202.11,-419.94 42.66,-78.61 42.66,-78.61 -22.46,22.45 -65.13,101.06 -195.38,303.18 -300.92,556.94 -105.55,253.77 -186.4,559.18 -217.84,842.14 -31.44,282.97 -13.48,543.46 24.7,873.58 38.18,330.13 96.56,729.87 125.76,979.14 29.2,249.28 29.2,348.09 8.98,419.95 -20.21,71.86 -60.63,116.77 -33.68,148.22 26.95,31.44 121.26,49.4 168.43,98.81 47.15,49.4 47.15,130.26 74.1,206.61 26.95,76.35 80.85,148.22 60.64,213.34 -20.21,65.13 -114.54,123.51 -112.29,150.46 2.24,26.95 101.06,22.46 163.95,49.4 62.87,26.95 89.82,85.35 67.36,152.72 -22.45,67.36 -94.32,143.72 -125.76,211.09 -31.44,67.38 -22.45,125.76 -11.23,177.42 11.23,51.65 24.71,96.56 11.23,114.53 -13.47,17.96 -53.89,8.98 -42.66,29.19 11.22,20.22 74.11,69.62 85.34,121.27 11.22,51.66 -29.2,105.55 -42.68,168.43 -13.47,62.88 0,134.75 40.43,143.72 40.42,8.99 107.79,-44.91 145.97,-69.61 38.17,-24.71 47.16,-20.21 20.21,13.47 -26.95,33.69 -89.83,96.57 -96.57,136.99 -6.73,40.43 42.67,58.39 83.09,80.85 40.43,22.46 71.86,49.4 103.3,24.69 31.45,-24.69 62.89,-101.05 94.33,-96.56 31.44,4.49 62.88,89.83 71.86,139.23 8.98,49.41 -4.49,62.89 15.72,67.38 20.21,4.49 74.11,0 136.99,8.98 62.88,8.99 134.74,31.45 179.66,33.69 44.91,2.25 62.88,-15.72 29.2,-29.19 -33.69,-13.48 -119.03,-22.46 -152.71,-51.66 -33.69,-29.2 -15.73,-78.6 53.89,-74.1 69.61,4.49 190.88,62.87 300.92,166.17z"/>
   <path class="fil3" d="M12328.7 18182.58c2.25,75.24 8.99,189.77 0,288.58 -8.98,98.81 -33.68,181.91 -21.33,212.22 12.35,30.32 61.76,7.86 96.56,-38.18 34.81,-46.03 55.02,-115.65 75.72,-165.43 20.69,-49.79 41.86,-79.74 48.58,-115.67 6.72,-35.93 -1,-77.83 -7.48,-116.05 -6.49,-38.23 -11.73,-72.78 -18.96,-122.62 -7.22,-49.83 -16.43,-114.94 -24.23,-167.81 -7.81,-52.86 -14.22,-93.46 -31.68,-97.53 -17.47,-4.07 -45.99,28.4 -66.99,63.72 -20.99,35.33 -34.47,73.5 -42.33,110.56 -7.86,37.05 -10.1,72.98 -7.86,148.21z"/>
   <path class="fil3" d="M11933.45 17586.35c17.97,11.23 8.99,51.65 10.11,104.42 1.12,52.77 12.35,117.9 14.6,169.55 2.24,51.66 -4.49,89.84 -21.34,74.12 -16.84,-15.73 -43.78,-85.34 -64,-125.77 -20.21,-40.42 -33.68,-51.65 -40.42,-79.72 -6.74,-28.07 -6.74,-72.99 15.72,-104.43 22.46,-31.43 67.37,-49.4 85.33,-38.17z"/>
   <path class="fil3" d="M11593.23 18073.67c32.56,11.23 81.97,53.89 116.78,85.34 34.81,31.44 55.01,51.65 67.36,68.49 12.36,16.85 16.85,30.32 8.99,43.79 -7.86,13.48 -28.07,26.95 -39.3,40.43 -11.23,13.47 -13.47,26.95 0,33.68 13.48,6.74 42.67,6.74 55.02,20.22 12.35,13.47 7.86,40.41 -16.84,50.52 -24.71,10.11 -69.62,3.37 -95.45,13.48 -25.82,10.1 -32.56,37.05 -29.19,68.49 3.37,31.45 16.84,67.37 21.33,94.32 4.5,26.95 0,44.91 -21.33,31.44 -21.34,-13.48 -59.51,-58.39 -81.97,-103.3 -22.46,-44.91 -29.19,-89.83 -16.84,-120.15 12.35,-30.31 43.79,-46.03 43.79,-65.12 0,-19.09 -31.44,-41.55 -49.41,-80.85 -17.96,-39.3 -22.46,-95.44 -16.84,-133.62 5.61,-38.18 21.34,-58.39 53.9,-47.16z"/>
   <path class="fil3" d="M11139.59 18208.41c41.55,53.9 70.74,145.98 89.83,222.33 19.09,76.36 28.08,136.99 8.99,144.85 -19.09,7.86 -66.25,-37.05 -112.29,-90.95 -46.04,-53.9 -90.95,-116.78 -122.39,-160.57 -31.44,-43.8 -49.41,-68.49 -71.87,-95.44 -22.46,-26.95 -49.4,-56.15 -76.35,-94.33 -26.95,-38.18 -53.9,-85.33 -72.99,-128.01 -19.09,-42.67 -30.31,-80.84 -20.2,-93.19 10.1,-12.35 41.54,1.12 83.09,40.42 41.54,39.31 93.19,104.43 145.97,144.86 52.77,40.42 106.67,56.13 148.21,110.03z"/>
   <path class="fil3" d="M10776.86 13401.48c83.09,25.83 229.06,72.98 341.35,106.67 112.28,33.69 190.89,53.89 278.47,85.33 87.58,31.45 184.15,74.11 222.32,101.06 38.18,26.95 17.97,38.18 -69.62,22.46 -87.58,-15.72 -242.53,-58.39 -361.55,-90.95 -119.02,-32.57 -202.12,-55.02 -273.98,-81.97 -71.87,-26.95 -132.5,-58.39 -174.05,-88.71 -41.54,-30.32 -63.99,-59.51 -65.12,-71.86 -1.12,-12.35 19.08,-7.86 102.18,17.97z"/>
   <path class="fil3" d="M13347.06 13943.81c57.27,0 133.63,-22.45 197.63,-58.39 64.01,-35.93 115.65,-85.33 166.18,-117.9 50.54,-32.56 99.94,-48.28 139.24,-61.76 39.3,-13.47 68.49,-24.7 92.07,-16.84 23.58,7.86 41.55,34.81 59.52,55.02 17.96,20.21 35.92,33.68 49.41,54.27 13.48,20.59 22.47,48.29 44.93,42.68 22.46,-5.62 58.38,-44.55 76.34,-67.38 17.95,-22.83 17.95,-29.57 39.29,-37.43 21.34,-7.86 64,-16.84 102.34,-23.33 38.34,-6.48 72.34,-10.48 74.59,-32.94 2.24,-22.45 -27.27,-63.38 -67.85,-84.97 -40.59,-21.58 -92.24,-23.82 -130.42,-39.54 -38.18,-15.72 -62.87,-44.91 -90.95,-71.86 -28.07,-26.95 -59.5,-51.66 -88.7,-50.53 -29.19,1.12 -56.15,28.07 -89.83,46.04 -33.69,17.96 -74.11,26.95 -129.13,31.44 -55.02,4.49 -124.64,4.49 -251.52,14.6 -126.89,10.1 -311.03,30.31 -442.41,51.64 -131.37,21.34 -209.98,43.8 -267.25,74.12 -57.26,30.31 -93.18,68.49 -129.12,93.19 -35.93,24.71 -71.86,35.93 -116.77,41.54 -44.92,5.62 -98.81,5.62 -92.08,24.71 6.74,19.09 74.11,57.27 134.09,97.9 59.98,40.64 112.58,83.72 156.36,72.49 43.8,-11.23 78.78,-76.77 112,-103.93 33.22,-27.16 64.66,-15.93 87.12,7.65 22.46,23.58 35.93,59.51 61.75,79.72 25.83,20.21 64,24.7 94.32,11.23 30.32,-13.48 52.78,-44.91 83.1,-49.4 30.32,-4.49 68.49,17.96 125.75,17.96z"/>
   <path class="fil3" d="M13665.93 12829.94c3.37,44.92 28.07,112.29 29.19,154.95 1.13,42.68 -21.33,60.64 -44.91,69.63 -23.59,8.98 -48.28,8.98 -57.27,24.7 -8.98,15.72 -2.24,47.16 6.74,67.37 8.99,20.21 20.21,29.19 56.14,30.32 35.93,1.12 96.56,-5.62 151.59,-20.21 55.02,-14.6 104.42,-37.05 143.73,-55.02 39.3,-17.97 68.49,-31.44 95.44,-35.93 26.95,-4.5 51.64,0 53.89,32.56 2.25,32.57 -17.96,93.2 -24.7,134.74 -6.73,41.55 0,64 14.6,81.97 14.6,17.97 37.05,31.44 65.12,34.81 28.08,3.37 61.76,-3.37 78.6,-21.33 16.84,-17.97 16.84,-47.16 25.83,-61.76 8.98,-14.6 26.95,-14.6 41.55,-29.19 14.59,-14.6 25.82,-43.8 46.04,-62.89 20.21,-19.09 49.4,-28.07 81.96,-39.3 32.57,-11.23 68.49,-24.7 84.21,-49.4 15.73,-24.71 11.23,-60.63 -3.36,-78.6 -14.6,-17.97 -39.3,-17.97 -57.27,-7.86 -17.96,10.11 -29.19,30.31 -41.54,35.93 -12.36,5.61 -25.83,-3.37 -26.95,-16.85 -1.13,-13.47 10.1,-31.43 29.19,-35.92 19.09,-4.5 46.03,4.49 59.51,1.12 13.47,-3.37 13.47,-19.09 -6.74,-28.07 -20.21,-8.99 -60.63,-11.23 -89.83,-11.23 -29.19,0 -47.15,2.24 -65.12,13.47 -17.96,11.23 -35.93,31.44 -46.04,52.77 -10.1,21.34 -12.35,43.8 -39.3,59.52 -26.94,15.72 -78.6,24.7 -115.65,13.47 -37.05,-11.23 -59.51,-42.67 -72.99,-68.5 -13.47,-25.82 -17.96,-46.03 -34.81,-66.24 -16.84,-20.21 -46.03,-40.43 -74.1,-53.9 -28.08,-13.48 -55.02,-20.21 -75.23,-44.91 -20.21,-24.71 -33.69,-67.37 -58.39,-88.71 -24.71,-21.33 -60.63,-21.33 -87.58,-10.1 -26.96,11.23 -44.92,33.68 -41.55,78.59z"/>
   <path class="fil3" d="M11200.11 8941.47c77.48,68.49 169.56,165.06 215.59,231.31 46.04,66.25 46.04,102.18 65.13,142.61 19.09,40.42 57.26,85.33 92.07,125.76 34.81,40.42 66.25,76.35 71.86,121.26 5.62,44.91 -14.59,98.81 -35.92,151.59 -21.34,52.77 -43.79,104.42 -59.51,135.86 -15.72,31.44 -24.71,42.67 -52.78,41.55 -28.07,-1.12 -75.23,-14.6 -112.28,-48.28 -37.06,-33.69 -64.01,-87.59 -60.64,-119.02 3.37,-31.44 37.05,-40.43 65.13,-33.69 28.07,6.74 50.52,29.19 68.49,37.05 17.97,7.86 31.44,1.12 28.07,-37.05 -3.37,-38.18 -23.58,-107.8 -68.5,-184.15 -44.91,-76.35 -114.53,-159.45 -181.9,-245.91 -67.37,-86.46 -132.49,-176.29 -212.21,-256.01 -79.73,-79.72 -174.05,-149.34 -245.91,-195.37 -71.87,-46.04 -121.27,-68.5 -141.48,-95.45 -20.21,-26.95 -11.23,-58.39 13.47,-74.11 24.71,-15.72 65.13,-15.72 125.76,12.35 60.63,28.08 141.49,84.22 213.35,132.5 71.85,48.29 134.74,88.71 212.21,157.2z"/>
   <path class="fil3" d="M13389.32 8795.48c-26.95,33.68 -81.22,129.7 -120.71,192.31 -39.49,62.6 -64.18,91.79 -84.4,112 -20.21,20.21 -35.93,31.44 -49.41,68.5 -13.47,37.05 -24.7,99.93 -32.56,161.69 -7.86,61.76 -12.35,122.39 -2.25,202.12 10.11,79.72 34.81,178.53 79.72,271.73 44.92,93.19 110.05,180.78 163.94,248.16 53.9,67.37 96.57,114.52 132.51,138.86 35.95,24.33 65.17,25.83 68.54,-11.22 3.37,-37.06 -19.12,-112.68 -10.15,-204.37 8.98,-91.71 49.4,-199.5 72.98,-325.26 23.58,-125.76 30.32,-269.49 12.01,-400.02 -18.3,-130.53 -61.65,-247.86 -99.83,-317.47 -38.17,-69.63 -71.18,-91.53 -87.5,-116.8 -16.31,-25.28 -15.94,-53.92 -42.89,-20.23z"/>
   <path class="fil3" d="M6937.58 8496.09c72.03,53.52 116.94,269.11 157.37,421.83 40.42,152.7 76.35,242.53 96.56,361.56 20.21,119.02 24.71,267.23 44.92,397.48 20.21,130.25 56.14,242.54 107.79,296.44 51.65,53.89 119.02,49.41 179.66,29.2 60.63,-20.22 114.53,-56.15 110.03,-31.45 -4.49,24.7 -67.36,110.04 -74.1,204.36 -6.74,94.32 42.66,197.63 47.15,300.93 4.5,103.3 -35.92,206.6 -63.04,293.06 -27.12,86.46 -40.93,156.07 -58.9,117.89 -17.96,-38.18 -40.08,-184.14 -69.11,-302.03 -29.03,-117.9 -64.95,-207.74 -115.02,-329.32 -50.08,-121.59 -114.3,-274.93 -214.79,-519.66 -100.5,-244.74 -237.27,-580.86 -320.51,-808.66 -83.24,-227.81 -112.94,-347.3 -109.01,-434.94 3.93,-87.63 41.48,-143.4 48.86,-110.28 7.38,33.11 -15.42,155.14 22.76,161.88 38.18,6.73 137.33,-101.82 209.38,-48.29z"/>
   <path class="fil3" d="M7544.09 7728.83c38.18,34.81 96.57,77.48 135.87,94.32 39.3,16.85 59.51,7.86 103.3,21.34 43.79,13.47 111.17,49.4 156.08,75.23 44.91,25.82 67.36,41.54 81.96,69.62 14.6,28.07 21.34,68.49 24.71,97.68 3.36,29.2 3.36,47.16 13.47,34.81 10.11,-12.35 30.32,-55.02 44.92,-84.21 14.6,-29.2 23.58,-44.91 19.09,-58.39 -4.49,-13.47 -22.46,-24.7 -61.76,-44.92 -39.31,-20.21 -99.94,-49.4 -145.98,-69.61 -46.04,-20.21 -77.47,-31.44 -70.73,-48.29 6.73,-16.84 51.64,-39.3 95.44,-47.16 43.79,-7.86 86.46,-1.12 113.41,15.72 26.95,16.85 38.18,43.8 48.28,29.2 10.11,-14.6 19.09,-70.74 19.09,-108.92 0,-38.18 -8.98,-58.38 -32.56,-62.87 -23.58,-4.5 -61.76,6.73 -106.67,13.46 -44.92,6.74 -96.57,8.99 -138.12,16.85 -41.54,7.86 -72.98,21.33 -111.16,20.21 -38.18,-1.12 -83.09,-16.84 -128,-28.07 -44.92,-11.23 -89.83,-17.97 -103.31,-7.86 -13.47,10.1 4.5,37.05 42.67,71.86z"/>
   <path class="fil3" d="M9291.25 6829.44c-33.69,96.56 -78.6,211.1 -108.92,295.31 -30.32,84.21 -46.03,138.11 -61.75,181.91 -15.72,43.78 -31.44,77.47 -49.41,104.42 -17.97,26.95 -38.18,47.16 -48.29,76.35 -10.1,29.2 -10.1,67.37 -19.08,90.95 -8.99,23.59 -26.95,32.57 -66.25,38.18 -39.3,5.62 -99.93,7.86 -160.56,17.97 -60.64,10.11 -121.28,28.07 -158.33,39.29 -37.06,11.23 -50.53,15.73 -50.53,2.25 0,-13.47 13.47,-44.91 51.65,-60.63 38.18,-15.72 101.06,-15.72 156.08,-14.6 55.02,1.13 102.17,3.37 132.49,-5.61 30.32,-8.99 43.8,-29.19 39.31,-47.16 -4.5,-17.96 -26.95,-33.69 -42.68,-38.18 -15.72,-4.49 -24.7,2.25 -49.4,-5.61 -24.71,-7.86 -65.13,-30.32 -99.94,-50.53 -34.81,-20.22 -64,-38.18 -94.32,-76.36 -30.31,-38.17 -61.75,-96.56 -89.82,-168.42 -28.08,-71.87 -52.78,-157.21 -56.15,-230.19 -3.37,-72.99 14.6,-133.62 29.2,-190.88 14.6,-57.27 25.83,-111.17 47.16,-180.79 21.34,-69.61 52.77,-154.95 99.93,-206.6 47.17,-51.66 110.04,-69.62 160.57,-89.84 50.54,-20.21 88.71,-42.66 134.75,-32.55 46.03,10.1 99.93,52.77 145.97,96.56 46.03,43.79 84.21,88.7 122.39,122.39 38.18,33.69 76.35,56.14 84.22,106.67 7.86,50.53 -14.6,129.13 -48.29,225.7z"/>
   <path class="fil4" d="M7097.73 6276.74c6.22,6.99 37.65,-150.2 71.34,-296.18 33.69,-145.97 69.61,-280.71 103.3,-399.74 33.69,-119.02 65.12,-222.33 87.58,-309.91 22.46,-87.58 35.93,-159.45 47.16,-217.83 11.23,-58.39 20.22,-103.3 -6.73,-71.86 -26.95,31.43 -89.83,139.23 -140.96,309.66 -51.13,170.42 -90.51,403.47 -119.7,605.59 -29.2,202.11 -48.2,373.28 -41.99,380.27z"/>
   <path class="fil3" d="M7872.56 3223.46c10.66,97.07 33.11,213.85 35.36,283.47 2.24,69.61 -15.72,92.07 -15.72,125.76 0,33.69 17.96,78.6 49.4,112.28 31.45,33.69 76.36,56.14 112.29,119.03 35.93,62.87 62.88,166.18 60.63,229.07 -2.25,62.87 -33.68,85.32 -53.89,121.26 -20.22,35.93 -29.2,85.33 20.21,152.71 49.4,67.37 157.2,152.71 262.52,210.46 105.32,57.74 208.15,87.91 259.58,102.99 51.42,15.08 51.42,15.08 5.57,-141.71 -45.85,-156.79 -137.55,-470.35 -226.81,-708.59 -89.27,-238.23 -176.11,-401.13 -253.25,-522.59 -77.14,-121.46 -144.57,-201.47 -187.01,-250.55 -42.44,-49.08 -59.86,-67.23 -69.14,-37.63 -9.29,29.6 -10.41,106.97 0.26,204.04z"/>
   <path class="fil3" d="M12250.61 7114.71c41.55,23.58 88.7,64 116.78,101.05 28.07,37.06 37.05,70.74 53.9,17.97 16.84,-52.78 41.54,-192.01 56.14,-286.33 14.59,-94.33 19.09,-143.73 2.24,-171.8 -16.84,-28.08 -55.01,-34.81 -76.35,-78.6 -21.34,-43.79 -25.83,-124.64 -10.11,-177.42 15.72,-52.77 51.65,-77.47 65.13,-159.44 13.47,-81.97 4.49,-221.21 -8.98,-275.1 -13.48,-53.9 -31.44,-22.46 -65.13,61.76 -33.69,84.21 -83.09,221.2 -125.76,339.1 -42.67,117.9 -78.6,216.71 -119.02,304.29 -40.43,87.59 -85.34,163.94 -113.41,214.48 -28.07,50.52 -39.3,75.23 -17.97,83.09 21.34,7.86 75.23,-1.13 120.15,-2.25 44.91,-1.12 80.84,5.61 122.39,29.2z"/>
   <path class="fil3" d="M12878.24 5223.84c33.69,-68.49 74.11,-131.38 134.74,-184.15 60.64,-52.77 141.49,-95.44 200.53,-129.74 59.05,-34.29 96.3,-60.21 151.32,-139.93 55.02,-79.73 127.81,-213.26 179.92,-350.76 52.12,-137.5 83.55,-278.98 99.28,-387.89 15.72,-108.93 15.72,-185.28 15.72,-257.14 0,-71.87 0,-139.24 -30.32,-137 -30.31,2.25 -90.95,74.12 -174.78,234.08 -83.82,159.96 -190.85,408.02 -307.62,630.35 -116.78,222.32 -243.32,418.91 -334.59,584.64 -91.26,165.72 -147.26,300.56 -205.01,415.78 -57.75,115.22 -117.24,210.81 -146.99,258.61 -29.75,47.79 -29.75,47.79 30.24,-13.53 60,-61.32 179.99,-183.97 253.45,-282.34 73.47,-98.38 100.42,-172.49 134.11,-240.98z"/>
   <path class="fil3" d="M7846.64 10245.29c24.7,8.98 60.63,-44.91 80.84,-106.67 20.21,-61.76 24.7,-131.38 28.07,-200.99 3.37,-69.62 5.62,-139.24 6.74,-212.22 1.12,-72.99 1.12,-149.34 -31.43,-179.66 -32.57,-30.32 -97.7,-14.6 -140.36,-8.99 -42.67,5.62 -62.89,1.13 -57.27,19.09 5.61,17.97 37.05,58.39 52.77,113.41 15.72,55.02 15.72,124.64 -12.25,177.39 -27.96,52.74 -83.9,88.62 -90.63,116.7 -6.74,28.07 35.72,48.33 62.57,68.57 26.84,20.24 38.06,40.45 50.41,86.49 12.36,46.03 25.83,117.9 50.54,126.88z"/>
   <path class="fil3" d="M10470.76 10253.17c12.35,3.37 -14.59,-14.59 -52.77,-31.44 -38.18,-16.84 -87.58,-32.56 -128.01,-57.26 -40.42,-24.71 -71.86,-58.39 -112.28,-98.82 -40.43,-40.42 -89.83,-87.58 -153.83,-130.25 -64,-42.67 -142.61,-80.84 -140.36,-55.01 2.24,25.82 85.34,115.65 150.47,163.94 65.12,48.28 112.28,55.01 162.81,74.1 50.52,19.09 104.42,50.53 157.2,78.6 52.77,28.07 104.42,52.77 116.77,56.14z"/>
   <path class="fil3" d="M10629.09 10390.17c-22.46,-7.86 -47.16,-75.24 -73.92,-107.99 -26.77,-32.75 -55.59,-30.88 -73.71,-32.72 -18.13,-1.83 -25.55,-7.37 -50.44,-3.81 -24.89,3.55 -67.24,16.2 -112,28.14 -44.76,11.94 -91.91,23.17 -125.6,45.63 -33.69,22.46 -53.9,56.14 -46.04,80.84 7.86,24.71 43.79,40.43 57.26,71.87 13.48,31.44 4.5,78.6 25.84,112.29 21.32,33.69 72.98,53.89 145.96,68.49 72.98,14.6 167.31,23.58 235.81,33.69 68.49,10.1 111.15,21.33 133.61,41.54 22.46,20.22 24.71,49.41 47.17,55.02 22.45,5.62 65.12,-12.34 110.03,-28.07 44.92,-15.72 92.08,-29.19 94.32,-46.04 2.25,-16.84 -40.42,-37.05 -77.47,-70.73 -37.06,-33.69 -68.49,-80.85 -94.32,-102.18 -25.83,-21.34 -46.04,-16.85 -67.38,-52.78 -21.33,-35.93 -43.78,-112.29 -65.12,-124.64 -21.33,-12.35 -41.55,39.3 -64,31.45z"/>
   <path class="fil5" d="M10633.54 10049.95c94.32,17.97 211.09,40.42 303.17,89.83 92.08,49.4 159.44,125.76 240.29,213.34 80.85,87.59 175.17,186.4 269.49,247.04 94.32,60.63 188.64,83.08 269.48,87.57 80.85,4.5 148.22,-8.98 145.98,-60.63 -2.25,-51.65 -74.11,-141.49 -92.08,-204.36 -17.96,-62.89 17.96,-98.81 51.65,-101.06 33.69,-2.24 65.13,29.2 98.82,58.39 33.69,29.2 69.61,56.14 125.75,85.34 56.15,29.2 132.51,60.63 193.14,78.6 60.64,17.96 105.54,22.46 136.99,31.44 31.44,8.98 49.4,22.46 53.89,67.37 4.49,44.91 -4.48,121.27 0.01,222.33 4.49,101.06 22.45,226.82 74.1,350.33 51.65,123.51 136.99,244.78 267.24,332.36 130.26,87.59 305.42,141.49 377.28,294.2 71.87,152.71 40.42,404.22 80.84,323.38 40.43,-80.85 152.72,-494.06 208.86,-729.86 56.14,-235.8 56.14,-294.19 35.93,-379.52 -20.21,-85.34 -60.63,-197.63 -242.54,-541.22 -181.89,-343.59 -505.28,-918.5 -839.89,-1399.09 -334.61,-480.58 -680.46,-866.84 -1107.93,-1187.3 -427.46,-320.46 -936.56,-575.11 -1191.1,-702.43 -254.55,-127.33 -254.55,-127.33 -280.71,-112.29 -26.17,15.04 -78.51,45.12 -120.39,87.11 -41.9,41.98 -73.33,95.88 -129.47,161.01 -56.15,65.12 -137,141.48 -220.09,202.12 -83.08,60.63 -168.43,105.54 -253.76,163.93 -85.34,58.38 -170.68,130.25 -222.33,172.92 -51.65,42.67 -69.62,56.14 -101.06,40.42 -31.44,-15.72 -76.35,-60.63 -107.58,-108.73 -31.24,-48.09 -48.77,-99.36 -68.99,-74.65 -20.21,24.7 -43.09,125.38 -85.97,173.47 -42.87,48.09 -105.76,43.6 -172.27,42.83 -66.51,-0.78 -136.65,2.15 -145.64,26.85 -8.98,24.71 43.19,71.18 58.06,128.09 14.86,56.92 -7.59,124.3 -0.86,178.2 6.74,53.89 42.67,94.31 121.27,69.61 78.6,-24.7 199.87,-114.54 300.92,-188.64 101.06,-74.11 181.91,-132.5 260.51,-175.16 78.6,-42.67 154.95,-69.62 217.84,-98.81 62.88,-29.2 112.28,-60.64 130.24,-35.94 17.97,24.7 4.5,105.55 -26.94,143.73 -31.44,38.17 -80.85,33.68 -89.83,56.14 -8.98,22.46 22.45,71.86 49.41,112.28 26.95,40.43 49.4,71.86 33.68,105.55 -15.72,33.69 -69.62,69.62 -132.49,103.31 -62.89,33.69 -134.75,65.12 -161.7,114.53 -26.95,49.4 -8.98,116.78 31.44,136.99 40.42,20.21 103.3,-6.74 119.03,4.49 15.71,11.23 -15.73,60.63 -80.85,96.57 -65.13,35.93 -163.94,58.38 -213.34,94.32 -49.41,35.93 -49.41,85.33 -2.24,112.28 47.15,26.95 141.47,31.44 220.07,51.66 78.6,20.21 141.48,56.13 202.12,85.33 60.63,29.2 119.02,51.65 181.9,94.32 62.88,42.67 130.25,105.55 177.41,130.25 47.16,24.71 74.11,11.23 94.32,-33.68 20.21,-44.92 33.69,-121.27 71.87,-186.4 38.17,-65.13 101.05,-119.02 150.46,-166.18 49.4,-47.17 85.33,-87.58 110.03,-89.83 24.71,-2.25 38.18,33.68 65.13,22.46 26.95,-11.23 67.37,-69.62 76.35,-62.89 8.99,6.74 -13.47,78.61 6.74,94.33 20.21,15.71 83.09,-24.7 121.27,-26.95 38.18,-2.25 51.65,33.68 87.59,33.68 35.92,0 94.32,-35.93 114.53,-80.84 20.2,-44.92 2.25,-98.81 -29.2,-116.78 -31.44,-17.97 -76.35,0 -83.09,-2.25 -6.73,-2.24 24.7,-24.69 78.15,-38.95 53.44,-14.27 128.89,-20.32 153.6,-51.77 24.7,-31.44 -1.35,-88.26 93.43,-76.24 94.77,12.01 310.36,92.86 481.03,191.67 170.67,98.81 296.43,215.59 395.24,343.59 98.82,128.01 170.68,267.24 222.34,372.79 51.65,105.55 83.09,177.42 92.07,251.52 8.98,74.11 -4.49,150.47 -24.71,188.65 -20.21,38.17 -47.15,38.17 -76.35,69.61 -29.19,31.44 -60.63,94.32 -78.59,139.24 -17.97,44.91 -22.46,71.86 -44.92,60.63 -22.46,-11.23 -62.88,-60.63 -102.73,-113.5 -39.85,-52.86 -79.11,-109.19 -139.75,-120.42 -60.63,-11.23 -142.63,22.64 -201.6,21.61 -58.96,-1.03 -94.9,-36.96 -108.37,-97.59 -13.48,-60.64 -4.49,-145.98 6.74,-217.84 11.22,-71.87 24.7,-130.25 28.92,-189.27 4.22,-59.03 -0.82,-118.67 -21.03,-105.2 -20.21,13.48 -55.6,100.07 -104.73,145.62 -49.14,45.55 -112.01,50.03 -143.46,76.98 -31.44,26.95 -31.44,76.35 -53.89,80.84 -22.46,4.5 -67.37,-35.92 -145.97,-80.84 -78.6,-44.92 -190.89,-94.32 -303.18,-143.72 -112.28,-49.41 -224.57,-98.82 -287.44,-114.53 -62.89,-15.72 -76.36,2.24 -65.13,47.16 11.23,44.91 47.16,116.77 96.57,172.92 49.4,56.14 112.28,96.56 211.09,125.75 98.81,29.2 233.56,47.17 303.18,62.89 69.61,15.72 74.1,29.19 60.63,49.4 -13.48,20.22 -44.92,47.16 -96.57,74.11 -51.65,26.95 -123.52,53.89 -177.41,60.63 -53.9,6.74 -89.83,-6.73 -89.83,8.99 0,15.72 35.93,60.63 89.83,89.83 53.89,29.19 125.76,42.66 220.08,60.63z"/>
   <path class="fil6" d="M8021.76 11215.5c-11.23,-92.08 -11.23,-172.93 11.23,-193.13 22.46,-20.22 67.37,20.2 67.37,6.73 0,-13.47 -44.91,-80.85 -38.17,-179.66 6.73,-98.81 65.12,-229.06 51.64,-280.71 -13.47,-51.65 -98.81,-24.71 -157.19,65.13 -58.39,89.82 -89.84,242.53 -105.56,392.99 -15.72,150.47 -15.72,298.68 2.25,415.46 17.96,116.78 53.89,202.12 94.32,208.86 40.42,6.74 85.33,-65.13 96.56,-152.71 11.23,-87.58 -11.22,-190.89 -22.45,-282.96z"/>
   <path class="fil6" d="M6707.43 14260.7c-21.89,-96.56 -53.34,-141.48 -80.29,-116.77 -26.95,24.7 -49.4,119.02 -65.12,190.88 -15.72,71.87 -24.7,121.27 8.98,166.18 33.69,44.92 110.04,85.34 166.19,94.32 56.14,8.99 92.07,-13.47 98.8,17.97 6.74,31.44 -15.71,116.78 -51.64,177.41 -35.94,60.64 -85.34,96.57 -132.5,130.26 -47.16,33.68 -92.07,65.12 -137.66,143.51 -45.59,78.39 -91.86,203.73 -94.11,369.91 -2.24,166.18 39.53,373.22 71.65,503.67 32.11,130.47 54.57,184.36 88.26,209.07 33.69,24.7 78.6,20.21 87.58,85.33 8.98,65.13 -17.97,199.87 -38.18,282.96 -20.21,83.09 -33.68,114.54 -56.14,65.13 -22.46,-49.4 -53.9,-179.66 -58.39,-280.71 -4.49,-101.06 17.97,-172.93 -4.55,-163.61 -22.52,9.32 -90.01,99.81 -123.75,145.06 -33.75,45.25 -33.75,45.25 -31.26,-45.05 2.49,-90.3 7.48,-270.92 13.06,-495.93 5.57,-224.99 11.72,-494.39 20.17,-764.13 8.45,-269.73 19.18,-539.8 38.33,-845.84 19.14,-306.03 46.7,-648.04 92,-1038.4 45.29,-390.35 108.34,-829.07 179.44,-1182.84 71.1,-353.77 150.26,-622.6 227.76,-850.5 77.51,-227.92 153.36,-414.91 200.54,-559.27 47.19,-144.37 65.71,-246.1 72.05,-322.83 6.34,-76.73 0.49,-128.46 -2.43,-154.33 -2.92,-25.86 -2.92,-25.86 37.18,85.54 40.09,111.41 120.28,334.22 146.44,479.42 26.17,145.18 -1.71,212.74 -35.86,295.93 -34.14,83.19 -74.56,182.01 -81.35,269.55 -6.79,87.54 20.05,163.81 -33.84,267.12 -53.9,103.3 -188.54,233.63 -245.05,400.56 -56.52,166.94 -34.92,370.46 -41.66,496.22 -6.73,125.76 -41.81,173.76 -42.98,264.46 -1.17,90.7 31.57,224.12 24.83,349.88 -6.73,125.76 -52.94,243.86 -37.29,380.36 15.65,136.5 93.17,291.41 104.4,417.17 11.23,125.76 -43.84,222.38 -69.12,297.63 -25.29,75.26 -20.8,129.16 -32.58,166.78 -11.8,37.61 -39.87,58.95 -65.13,133.05 -25.27,74.12 -47.73,200.99 -65.13,190.32 -17.41,-10.66 -29.76,-158.87 -51.65,-255.44z"/>
   <path class="fil6" d="M7001.01 8113.04c62.88,114.53 130.24,280.71 170.67,406.47 40.43,125.76 53.89,211.11 48.32,311.43 -5.58,100.32 -30.22,215.63 -1.02,256.06 29.2,40.41 112.22,5.95 187.41,-13.52 75.2,-19.48 142.57,-23.98 223.41,-21.73 80.85,2.25 175.17,11.23 269.49,8.98 94.32,-2.24 188.65,-15.72 260.51,-71.86 71.86,-56.14 121.26,-154.96 112.28,-181.9 -8.98,-26.95 -76.35,17.96 -125.76,51.64 -49.41,33.69 -80.84,56.15 -121.27,56.15 -40.42,0 -89.82,-22.46 -143.72,-51.65 -53.9,-29.2 -112.29,-65.13 -166.18,-83.09 -53.9,-17.97 -103.31,-17.97 -139.24,8.98 -35.93,26.95 -58.39,80.84 -85.34,96.56 -26.95,15.73 -58.39,-6.73 -69.62,-60.63 -11.22,-53.9 -2.24,-139.24 33.69,-193.13 35.93,-53.9 98.81,-76.35 132.5,-141.48 33.68,-65.13 38.17,-172.92 70.59,-281.16 32.41,-108.23 92.75,-216.92 89.25,-288.4 -3.51,-71.48 -70.85,-105.74 -145.93,-105.3 -75.08,0.44 -157.91,35.6 -228.51,46.44 -70.61,10.84 -129,-2.63 -182.89,-63.26 -53.9,-60.64 -103.31,-168.43 -125.76,-312.16 -22.46,-143.73 -17.97,-323.38 -15.72,-413.21 2.24,-89.83 2.24,-89.83 -51.65,38.17 -53.9,128.01 -161.7,384.02 -238.28,559.12 -76.58,175.1 -121.96,269.27 -133.7,392.82 -11.74,123.55 10.15,276.48 10.39,265.06 0.23,-11.43 -21.21,-187.21 -7.22,-306.26 13.99,-119.06 63.39,-181.41 101.57,-196.86 38.17,-15.45 65.12,15.98 107.79,63.14 42.66,47.17 101.06,110.04 163.94,224.58z"/>
   <path class="fil4" d="M7001.01 8113.04c62.88,114.53 130.24,280.71 170.67,406.47 40.43,125.76 53.89,211.11 48.32,311.43 -5.58,100.32 -30.22,215.63 -1.02,256.06 29.2,40.41 112.22,5.95 187.41,-13.52 75.2,-19.48 142.57,-23.98 223.41,-21.73 80.85,2.25 175.17,11.23 269.49,8.98 94.32,-2.24 188.65,-15.72 260.51,-71.86 71.86,-56.14 121.26,-154.96 112.28,-181.9 -8.98,-26.95 -76.35,17.96 -125.76,51.64 -49.41,33.69 -80.84,56.15 -121.27,56.15 -40.42,0 -89.82,-22.46 -143.72,-51.65 -53.9,-29.2 -112.29,-65.13 -166.18,-83.09 -53.9,-17.97 -103.31,-17.97 -139.24,8.98 -35.93,26.95 -58.39,80.84 -85.34,96.56 -26.95,15.73 -58.39,-6.73 -69.62,-60.63 -11.22,-53.9 -2.24,-139.24 33.69,-193.13 35.93,-53.9 98.81,-76.35 132.5,-141.48 33.68,-65.13 38.17,-172.92 70.59,-281.16 32.41,-108.23 92.75,-216.92 89.25,-288.4 -3.51,-71.48 -70.85,-105.74 -145.93,-105.3 -75.08,0.44 -157.91,35.6 -228.51,46.44 -70.61,10.84 -129,-2.63 -182.89,-63.26 -53.9,-60.64 -103.31,-168.43 -125.76,-312.16 -22.46,-143.73 -17.97,-323.38 -15.72,-413.21 2.24,-89.83 2.24,-89.83 -51.65,38.17 -53.9,128.01 -161.7,384.02 -238.28,559.12 -76.58,175.1 -121.96,269.27 -133.7,392.82 -11.74,123.55 10.15,276.48 10.39,265.06 0.23,-11.43 -21.21,-187.21 -7.22,-306.26 13.99,-119.06 63.39,-181.41 101.57,-196.86 38.17,-15.45 65.12,15.98 107.79,63.14 42.66,47.17 101.06,110.04 163.94,224.58z"/>
   <path class="fil4" d="M7001.01 8113.04c62.88,114.53 130.24,280.71 170.67,406.47 40.43,125.76 53.89,211.11 48.32,311.43 -5.58,100.32 -30.22,215.63 -1.02,256.06 29.2,40.41 112.22,5.95 187.41,-13.52 75.2,-19.48 142.57,-23.98 223.41,-21.73 80.85,2.25 175.17,11.23 269.49,8.98 94.32,-2.24 188.65,-15.72 260.51,-71.86 71.86,-56.14 121.26,-154.96 112.28,-181.9 -8.98,-26.95 -76.35,17.96 -125.76,51.64 -49.41,33.69 -80.84,56.15 -121.27,56.15 -40.42,0 -89.82,-22.46 -143.72,-51.65 -53.9,-29.2 -112.29,-65.13 -166.18,-83.09 -53.9,-17.97 -103.31,-17.97 -139.24,8.98 -35.93,26.95 -58.39,80.84 -85.34,96.56 -26.95,15.73 -58.39,-6.73 -69.62,-60.63 -11.22,-53.9 -2.24,-139.24 33.69,-193.13 35.93,-53.9 98.81,-76.35 132.5,-141.48 33.68,-65.13 38.17,-172.92 70.59,-281.16 32.41,-108.23 92.75,-216.92 89.25,-288.4 -3.51,-71.48 -70.85,-105.74 -145.93,-105.3 -75.08,0.44 -157.91,35.6 -228.51,46.44 -70.61,10.84 -129,-2.63 -182.89,-63.26 -53.9,-60.64 -103.31,-168.43 -125.76,-312.16 -22.46,-143.73 -17.97,-323.38 -15.72,-413.21 2.24,-89.83 2.24,-89.83 -51.65,38.17 -53.9,128.01 -161.7,384.02 -238.28,559.12 -76.58,175.1 -121.96,269.27 -133.7,392.82 -11.74,123.55 10.15,276.48 10.39,265.06 0.23,-11.43 -21.21,-187.21 -7.22,-306.26 13.99,-119.06 63.39,-181.41 101.57,-196.86 38.17,-15.45 65.12,15.98 107.79,63.14 42.66,47.17 101.06,110.04 163.94,224.58z"/>
   <path class="fil6" d="M13536.53 12145.81c46.04,-46.04 115.65,-102.18 185.27,-130.25 69.62,-28.08 139.24,-28.08 202.12,-39.31 62.88,-11.23 119.02,-33.68 195.37,-40.42 76.36,-6.74 172.93,2.24 250.4,13.47 77.48,11.23 135.87,24.71 171.8,39.31 35.93,14.59 49.41,30.31 78.61,29.19 29.19,-1.12 74.1,-19.09 135.85,-29.19 61.77,-10.11 140.37,-12.36 218.01,9.05 77.64,21.42 154.31,66.5 189.09,68.86 34.79,2.36 27.68,-37.99 14.42,-84.81 -13.27,-46.81 -32.71,-100.08 -94.44,-163.08 -61.73,-62.99 -165.77,-135.71 -269.44,-185.54 -103.67,-49.84 -206.97,-76.79 -342.84,-81.28 -135.86,-4.49 -304.29,13.47 -462.61,26.95 -158.33,13.47 -306.55,22.46 -409.3,35.54 -102.75,13.09 -160.03,30.28 -216.18,72.94 -56.14,42.67 -111.14,110.83 -136.46,194.76 -25.33,83.95 -20.97,183.68 17.2,249.93 38.18,66.25 110.18,99.01 157.41,97.42 47.23,-1.58 69.68,-37.5 115.72,-83.54z"/>
   <path class="fil6" d="M14026.08 12689.85c51.66,2.81 80.84,3.93 113.97,-19.65 33.13,-23.58 70.18,-71.86 80.84,-103.3 10.67,-31.44 -5.04,-46.04 -26.38,-52.78 -21.33,-6.74 -48.28,-5.61 -71.31,1.12 -23.01,6.74 -42.1,19.09 -66.8,25.83 -24.7,6.74 -55.02,7.86 -81.42,8.42 -26.38,0.56 -48.83,0.56 -73.54,-6.17 -24.7,-6.74 -51.64,-20.22 -76.35,-25.27 -24.7,-5.05 -47.16,-1.68 -56.14,14.59 -8.99,16.29 -4.5,45.49 7.29,71.87 11.8,26.39 30.89,49.97 77.48,64 46.6,14.04 120.71,18.53 172.36,21.34z"/>
   <path class="fil6" d="M14675.65 12612.94c-5.05,23.58 0.57,59.51 17.41,88.14 16.85,28.63 44.91,49.96 69.05,62.87 24.15,12.92 44.36,17.41 59.95,12.81 15.59,-4.6 26.56,-18.3 46.16,-52.27 19.6,-33.96 47.84,-88.2 50.77,-116.72 2.94,-28.52 -19.42,-31.33 -58.11,-33.86 -38.69,-2.52 -93.71,-4.77 -129.08,-0.27 -35.37,4.49 -51.09,15.72 -56.15,39.3z"/>
   <path class="fil3" d="M13927.26 12058.23c59.51,-11.23 135.86,-22.46 202.11,-24.71 66.25,-2.24 122.4,4.49 158.32,12.35 35.94,7.86 51.66,16.85 62.89,44.92 11.23,28.07 17.96,75.23 15.72,126.88 -2.25,51.66 -13.48,107.8 -35.94,143.73 -22.45,35.94 -56.13,51.65 -105.54,62.88 -49.41,11.23 -114.53,17.97 -165.07,23.58 -50.53,5.61 -86.45,10.11 -126.88,7.86 -40.42,-2.25 -85.33,-11.23 -147.1,-16.84 -61.75,-5.62 -140.35,-7.86 -185.27,-17.97 -44.91,-10.11 -56.14,-28.07 -59.51,-55.02 -3.37,-26.95 1.12,-62.88 39.3,-78.6 38.18,-15.72 110.04,-11.23 163.94,-5.62 53.9,5.62 89.83,12.36 107.8,2.25 17.96,-10.11 17.96,-37.05 2.24,-56.14 -15.72,-19.09 -47.16,-30.32 -66.25,-43.79 -19.09,-13.48 -25.82,-29.2 -24.7,-44.92 1.13,-15.72 10.1,-31.43 35.93,-44.91 25.83,-13.47 68.49,-24.7 128.01,-35.93z"/>
   <path class="fil3" d="M14841.27 12177.25c-34.81,35.93 -81.97,89.83 -105.55,138.11 -23.58,48.29 -23.58,90.95 -6.74,120.15 16.85,29.19 50.53,44.91 86.46,48.28 35.93,3.37 74.1,-5.61 120.76,-15.48 46.66,-9.86 101.81,-20.62 134.37,-62.17 32.56,-41.54 42.55,-113.88 44.17,-162.4 1.63,-48.52 -5.11,-73.23 -38.8,-92.32 -33.68,-19.09 -94.32,-32.56 -135.86,-30.31 -41.55,2.25 -64,20.21 -98.81,56.14z"/>
   <path class="fil7" d="M13253.51 11427.19c-23.58,-29.19 -50.53,-49.4 -77.48,-57.26 -26.95,-7.86 -53.89,-3.37 -78.6,8.99 -24.7,12.35 -47.15,32.55 -60.63,64 -13.47,31.44 -17.96,74.1 -3.36,79.72 14.59,5.61 48.27,-25.82 61.75,-17.96 13.47,7.86 6.74,55.01 -29.2,67.36 -35.92,12.36 -101.05,-10.1 -129.13,-68.49 -28.06,-58.39 -19.09,-152.71 1.13,-226.81 20.21,-74.12 51.65,-128.01 83.09,-161.7 31.45,-33.68 62.88,-47.16 95.44,-35.93 32.57,11.23 66.25,47.15 107.8,61.75 41.55,14.6 90.95,7.87 117.9,-16.83 26.95,-24.71 31.44,-67.37 6.74,-126.89 -24.71,-59.51 -78.6,-135.86 -138.12,-190.89 -59.5,-55.02 -124.63,-88.7 -171.8,-105.54 -47.15,-16.85 -76.35,-16.85 -71.86,-38.18 4.49,-21.34 42.67,-64 41.54,-99.94 -1.12,-35.93 -41.54,-65.12 -58.38,-101.05 -16.85,-35.94 -10.11,-78.6 -5.62,-106.67 4.5,-28.08 6.74,-41.55 -13.47,-47.17 -20.21,-5.61 -62.88,-3.37 -103.3,5.62 -40.43,8.98 -78.6,24.7 -104.43,14.6 -25.82,-10.11 -39.3,-46.04 -61.76,-83.09 -22.46,-37.06 -53.89,-75.24 -90.95,-97.7 -37.05,-22.46 -79.72,-29.19 -113.41,-68.49 -33.68,-39.3 -58.38,-111.16 -78.59,-181.9 -20.22,-70.74 -35.94,-140.36 -80.85,-190.89 -44.91,-50.53 -119.03,-81.96 -185.28,-116.78 -66.25,-34.81 -124.63,-72.98 -158.32,-105.54 -33.69,-32.57 -42.67,-59.52 -25.83,-62.89 16.85,-3.37 59.51,16.85 56.14,-5.61 -3.36,-22.46 -52.77,-87.58 -116.77,-186.39 -64,-98.82 -142.6,-231.32 -199.87,-302.05 -57.27,-70.75 -93.19,-79.73 -189.77,-153.84 -96.56,-74.11 -253.76,-213.34 -380.64,-281.83 -126.88,-68.5 -223.45,-66.25 -248.15,-106.67 -24.71,-40.43 22.45,-123.52 65.12,-183.03 42.67,-59.52 80.84,-95.45 70.75,-132.51 -10.11,-37.05 -68.5,-75.22 -119.03,-90.95 -50.53,-15.72 -93.19,-8.98 -133.62,-20.21 -40.42,-11.23 -78.59,-40.42 -112.28,-72.98 -33.69,-32.57 -62.89,-68.49 -103.31,-94.32 -40.43,-25.83 -92.07,-41.55 -134.75,-67.38 -42.67,-25.82 -76.35,-61.75 -120.13,-70.73 -43.8,-8.99 -97.7,8.98 -132.5,20.21 -34.81,11.23 -50.53,15.71 -61.76,-26.95 -11.23,-42.67 -17.97,-132.51 -28.08,-203.24 -10.1,-70.74 -23.58,-122.39 -51.65,-166.18 -28.07,-43.79 -70.74,-79.72 -105.85,-110.22 -35.11,-30.51 -62.67,-55.6 -76.45,-68.13 -13.78,-12.55 -13.78,-12.55 195.6,20.73 209.38,33.27 628.14,99.83 892.7,136.13 264.55,36.3 374.92,42.36 452.25,28.45 77.35,-13.91 121.66,-47.78 179.76,-109.31 58.09,-61.53 129.95,-150.73 200.6,-230.54 70.66,-79.81 140.11,-150.25 174.83,-185.47 34.73,-35.21 34.73,-35.21 27.99,-15 -6.74,20.21 -20.21,60.63 -64.01,158.32 -43.79,97.69 -117.9,252.64 -159.45,341.35 -41.54,88.71 -50.52,111.16 -25.82,117.9 24.71,6.74 83.09,-2.24 141.48,-29.19 58.4,-26.95 116.78,-71.86 181.9,-78.6 65.13,-6.74 137,24.69 184.16,67.37 47.16,42.67 69.61,96.56 87.58,148.22 17.96,51.65 31.44,101.05 83.09,159.44 51.65,58.39 141.48,125.76 233.79,192.73 92.32,66.96 187.12,133.53 299.49,249.95 112.38,116.42 242.32,282.71 332.61,410.19 90.29,127.48 140.92,216.15 166.24,260.49 25.32,44.34 25.32,44.34 -9.01,-12.04 -34.32,-56.38 -102.98,-169.13 -157.83,-252.19 -54.85,-83.07 -95.89,-136.43 -61.57,-80.05 34.33,56.38 144.04,222.49 198.88,305.56 54.85,83.06 54.85,83.06 30.28,116.84 -24.57,33.77 -73.72,101.33 -148.53,168.51 -74.81,67.18 -175.28,133.98 -228.89,187.6 -53.6,53.62 -60.34,94.04 -38.21,151.35 22.14,57.32 73.15,131.52 105.77,198.87 32.62,67.36 46.84,127.86 97.78,226.78 50.95,98.93 138.6,236.27 225.13,346.4 86.54,110.12 171.95,193.04 279.34,293.86 107.38,100.82 236.74,219.57 410.64,399.18 173.9,179.61 392.33,420.1 548.36,565.01 156.03,144.91 249.66,194.26 316.55,250.61 66.9,56.36 107.05,119.73 138.94,183.34 31.88,63.61 55.5,127.45 69.08,167.68 13.57,40.24 17.11,56.87 1.36,29.69 -15.73,-27.18 -50.74,-98.17 -104.24,-148.75 -53.51,-50.58 -125.5,-80.75 -218.76,-101.45 -93.26,-20.7 -207.79,-31.92 -309.97,-20.7 -102.18,11.23 -192.01,44.91 -273.98,67.37 -81.96,22.46 -156.08,33.69 -231.31,51.66 -75.23,17.96 -151.58,42.67 -199.87,43.79 -48.28,1.12 -68.49,-21.33 -101.05,-52.78 -32.57,-31.44 -77.48,-71.86 -124.64,-90.95 -47.17,-19.09 -96.57,-16.84 -113.41,0 -16.84,16.85 -1.12,48.28 -1.12,85.34 0,37.06 -15.72,79.72 -25.83,122.39 -10.11,42.67 -14.6,85.34 -20.21,119.02 -5.62,33.69 -12.36,58.4 -28.08,51.66 -15.72,-6.74 -40.41,-44.91 -57.27,-90.47 -16.85,-45.55 -25.85,-98.47 -20.61,-155.82 5.24,-57.35 24.73,-119.1 37.5,-166.64 12.78,-47.54 18.83,-80.86 7.97,-106.61 -10.85,-25.75 -38.62,-43.93 -62.62,-72.11 -23.99,-28.17 -44.19,-66.35 -67.78,-95.55z"/>
   <path class="fil8" d="M10665.26 7399.56c41.54,24.7 102.17,56.13 157.2,60.63 55.01,4.49 104.42,-17.96 183.02,-13.47 78.6,4.49 186.4,35.92 303.18,70.74 116.77,34.81 242.53,72.98 353.7,93.19 111.16,20.21 207.73,22.46 267.24,33.69 59.51,11.23 81.96,31.43 85.33,67.37 3.37,35.93 -12.35,87.58 29.19,108.91 41.55,21.34 140.37,12.36 211.1,25.83 70.75,13.48 113.41,49.41 136.99,94.33 23.58,44.91 28.08,98.81 38.18,140.35 10.11,41.55 25.83,70.74 68.49,86.46 42.67,15.72 112.3,17.97 168.43,53.9 56.15,35.93 98.82,105.55 168.43,172.92 69.62,67.37 166.19,132.5 247.04,186.4 80.84,53.89 145.97,96.56 150.64,55.35 4.66,-41.22 -51.12,-166.33 -142.04,-296.71 -90.91,-130.39 -216.97,-266.05 -326.23,-368.65 -109.26,-102.6 -201.72,-172.13 -337.61,-252.84 -135.9,-80.73 -315.24,-172.61 -434.93,-234.95 -119.69,-62.33 -179.73,-95.11 -277.48,-123.53 -97.75,-28.42 -233.19,-52.48 -434.88,-75.92 -201.69,-23.45 -469.6,-46.28 -659.03,-65.75 -189.44,-19.47 -300.39,-35.58 -381.65,-36.81 -81.25,-1.22 -132.82,12.46 -116.25,32.29 16.57,19.81 101.28,45.77 188.55,67.74 87.27,21.96 177.09,39.92 233.24,57.89 56.14,17.96 78.6,35.93 120.15,60.64z"/>
   <path class="fil9" d="M10030.83 8649.29c51.65,-32.56 114.53,-61.76 179.1,-85.34 64.56,-23.58 130.81,-41.54 189.76,-50.53 58.95,-8.98 110.6,-8.98 158.02,-3.42 47.41,5.56 90.59,16.68 120.35,9.94 29.75,-6.74 46.08,-31.33 43.02,-50.36 -3.06,-19.04 -25.51,-32.52 -75.48,-40.93 -49.97,-8.43 -127.45,-11.79 -214.46,-1.68 -87.03,10.1 -183.6,33.68 -279.04,70.73 -95.44,37.06 -189.77,87.58 -244.78,127.45 -55.03,39.86 -70.74,69.05 -65.68,88.71 5.05,19.64 30.87,29.75 64,16.84 33.12,-12.92 73.54,-48.84 125.19,-81.41z"/>
   <path class="fil10" d="M10126.32 9387.47c11.18,33.24 44.86,80.41 96.52,119.14 51.65,38.74 121.27,69.06 194.26,88.15 72.98,19.09 149.34,26.94 197.78,21.85 48.45,-5.11 68.98,-23.17 69.37,-37.9 0.37,-14.74 -19.42,-26.15 -48.21,-33.4 -28.8,-7.26 -66.61,-10.34 -113.02,-21.99 -46.42,-11.66 -101.43,-31.86 -145.78,-53.76 -44.36,-21.9 -78.04,-45.48 -106.15,-67.54 -28.11,-22.07 -50.64,-42.62 -71.93,-56.77 -21.29,-14.15 -41.35,-21.91 -57.04,-16.12 -15.68,5.78 -26.99,25.1 -15.8,58.34z"/>
   <path class="fil10" d="M13603.45 9661.37c-8.76,42.71 -21.6,96.79 -48.05,137.19 -26.46,40.39 -66.52,67.08 -91.05,66.95 -24.53,-0.13 -33.51,-27.07 -32.39,-60.76 1.12,-33.68 12.35,-74.1 32.57,-104.42 20.21,-30.32 49.4,-50.53 77.06,-72.91 27.68,-22.37 53.84,-46.92 64.57,-43.51 10.73,3.4 6.05,34.74 -2.71,77.46z"/>
   <path class="fil10" d="M13691.33 11082.6c-42.67,-60.64 -105.54,-143.73 -144.85,-197.63 -39.3,-53.9 -55.01,-78.59 -71.86,-104.42 -16.84,-25.83 -34.81,-52.77 -59.45,-66.27 -24.64,-13.51 -55.96,-13.56 -62.7,-43.88 -6.74,-30.32 11.11,-90.89 -2.42,-149.26 -13.54,-58.37 -58.45,-114.5 -102.24,-163.91 -43.8,-49.41 -86.46,-92.08 -143.73,-130.26 -57.27,-38.17 -129.13,-71.86 -167.31,-106.67 -38.18,-34.81 -42.67,-70.73 -11.23,-64 31.44,6.74 98.81,56.14 143.73,71.86 44.92,15.73 67.37,-2.24 55.02,-42.66 -12.36,-40.42 -59.51,-103.31 -83.09,-161.69 -23.58,-58.4 -23.58,-112.29 -5,-153.65 18.59,-41.38 55.77,-70.21 120.44,-8.87 64.68,61.33 156.84,212.83 272.39,356.93 115.57,144.08 254.51,280.76 418.76,430.84 164.25,150.08 353.8,313.57 464.43,425.31 110.64,111.74 142.37,171.75 215.24,239.01 72.87,67.25 186.89,141.78 283.33,226.75 96.44,84.97 175.3,180.41 228.88,260.29 53.59,79.9 81.89,144.25 102.41,196.85 20.52,52.61 33.26,93.47 22.12,78.4 -11.14,-15.06 -46.15,-86.05 -108.57,-152.47 -62.41,-66.41 -152.23,-128.27 -224.95,-169.1 -72.72,-40.83 -128.37,-60.64 -185.51,-74.19 -57.14,-13.54 -115.77,-20.82 -170.57,-2.36 -54.8,18.47 -105.76,62.69 -225.55,81.43 -119.8,18.73 -308.44,12 -447.19,3.9 -138.74,-8.09 -227.59,-17.53 -295.67,5.64 -68.08,23.19 -115.4,79 -139.63,130.88 -24.24,51.88 -25.4,99.82 -9.57,38.53 15.83,-61.3 48.64,-231.83 95.96,-340.75 47.33,-108.91 109.17,-156.2 165.91,-192.19 56.75,-36 108.41,-60.7 123,-92.14 14.6,-31.44 -7.85,-69.61 -50.53,-130.25z"/>
   <path class="fil11" d="M14248.25 11225.26c-33.69,11.23 -76.36,24.7 -133.63,33.69 -57.26,8.98 -129.12,13.47 -196.5,29.19 -67.37,15.72 -130.24,42.67 -183.02,78.6 -52.78,35.93 -95.44,80.84 -116.47,123.6 -21.03,42.76 -20.41,83.36 -0.19,90.1 20.21,6.74 60.01,-20.39 99,-40.69 38.99,-20.3 77.17,-33.78 111.98,-33.78 34.81,0 66.25,13.48 88.71,4.5 22.46,-8.99 35.92,-40.42 71.86,-48.28 35.93,-7.86 94.32,7.85 139.58,27.94 45.27,20.1 77.43,44.58 95.38,41.21 17.97,-3.37 21.76,-34.59 79.79,-45.7 58.04,-11.11 170.32,-2.12 264.17,25.8 93.85,27.92 169.27,74.78 251.88,129.13 82.61,54.36 172.43,116.22 228.47,162.2 56.05,46 78.33,76.12 53.39,33.54 -24.94,-42.58 -97.11,-157.89 -164.92,-245.44 -67.8,-87.53 -131.25,-147.3 -198.91,-205.58 -67.65,-58.3 -139.51,-115.11 -193.33,-163.45 -53.83,-48.34 -89.62,-88.23 -131.9,-137.81 -42.28,-49.59 -91.06,-108.87 -154,-170.44 -62.94,-61.57 -140.05,-125.43 -211.05,-186.56 -71,-61.14 -135.87,-119.55 -200.19,-178.95 -64.32,-59.4 -128.09,-119.78 -192.35,-155.68 -64.26,-35.89 -129.01,-47.29 -147.91,-26.04 -18.9,21.25 8.05,75.14 48.47,109.95 40.43,34.81 94.33,50.53 131.37,58.39 37.06,7.86 57.27,7.86 46.04,15.72 -11.22,7.86 -53.89,23.58 -85.33,57.27 -31.44,33.68 -51.65,85.33 -37.06,117.9 14.6,32.56 64,46.04 103.31,52.77 39.3,6.74 68.49,6.74 120.42,17.96 51.92,11.22 126.57,33.64 173.72,58.35 47.16,24.7 66.83,51.68 91.26,80.89 24.44,29.2 53.64,60.64 92.93,104.43 39.3,43.79 88.71,99.93 101.06,132.5 12.35,32.56 -12.35,41.54 -46.03,52.77z"/>
   <path class="fil12" d="M10273.28 16177.07c58.39,76.36 188.64,161.7 256.02,168.43 67.37,6.74 71.86,-65.12 78.59,-62.88 6.74,2.25 15.73,78.6 29.2,157.2 13.48,78.6 31.44,159.45 83.09,233.56 51.65,74.1 136.99,141.48 233.55,199.86 96.57,58.4 204.37,107.8 240.3,83.09 35.93,-24.69 0,-123.51 -22.46,-195.38 -22.45,-71.86 -31.44,-116.77 6.73,-116.77 38.18,0 123.53,44.91 179.67,42.67 56.14,-2.25 83.08,-51.65 94.31,-110.04 11.23,-58.39 6.74,-125.76 20.22,-168.43 13.47,-42.67 44.91,-60.64 53.89,-163.94 8.98,-103.3 -4.49,-291.94 -8.98,-444.65 -4.49,-152.71 0,-269.48 13.48,-357.07 13.47,-87.58 35.92,-145.97 76.3,-188.64 40.37,-42.66 98.65,-69.61 127.19,-136.03 28.53,-66.41 27.34,-172.3 29.73,-345.02 2.39,-172.71 8.37,-412.26 49.54,-577.69 41.18,-165.43 117.53,-256.77 168.98,-303.25 51.46,-46.48 78.01,-48.12 120.21,-44.47 42.21,3.64 100.06,12.58 86.79,13.4 -13.28,0.81 -97.69,-6.47 -206.28,-30.64 -108.58,-24.16 -241.34,-65.2 -377.97,-102.06 -136.61,-36.87 -277.08,-69.57 -428.24,-119.67 -151.17,-50.09 -313.04,-117.59 -423.54,-187.97 -110.51,-70.38 -169.65,-143.66 -154.31,-187.04 15.34,-43.37 105.17,-56.85 221.95,-23.17 116.77,33.69 260.5,114.54 410.96,170.68 150.47,56.15 307.66,87.58 487.32,121.27 179.66,33.69 381.78,69.61 527.74,92.07 145.98,22.46 235.81,31.44 325.64,13.48 89.82,-17.97 179.66,-62.88 258.26,-103.3 78.59,-40.43 145.97,-76.36 206.6,-94.32 60.64,-17.97 114.53,-17.97 157.2,-33.69 42.67,-15.72 74.11,-47.16 53.89,-74.11 -20.2,-26.95 -92.07,-49.41 -96.56,-69.62 -4.48,-20.21 58.39,-38.17 92.08,-78.6 33.69,-40.42 38.17,-103.3 38.17,-152.71 0,-49.4 -4.48,-85.33 24.71,-130.25 29.19,-44.91 92.08,-98.81 123.51,-150.46 31.44,-51.65 31.44,-101.05 17.97,-154.95 -13.48,-53.9 -40.42,-112.29 -62.47,-173.9 -22.06,-61.61 -39.21,-126.45 -60.78,-174.19 -21.56,-47.73 -47.51,-78.37 -70.2,-108.42 -22.68,-30.03 -42.09,-59.48 -87.17,-132.59 -45.08,-73.1 -115.82,-189.86 -149.76,-266.61 -33.94,-76.75 -31.07,-113.47 -17.78,-157.61 13.3,-44.14 37.01,-95.68 54.9,-125.87 17.88,-30.19 29.92,-39.02 9.36,-60.47 -20.55,-21.45 -73.69,-55.5 -134.17,-97.2 -60.47,-41.71 -128.27,-91.06 -180.14,-129.21 -51.86,-38.15 -87.79,-65.09 -134.92,-79.27 -47.13,-14.18 -105.46,-15.6 -138.33,-64.58 -32.88,-48.98 -40.32,-145.53 -43.94,-175.27 -3.61,-29.74 -3.41,7.32 -71.59,49.56 -68.18,42.24 -204.73,89.67 -290.98,124.61 -86.24,34.94 -122.17,57.4 -151.37,95.58 -29.2,38.18 -51.65,92.07 -92.07,119.02 -40.43,26.96 -98.81,26.96 -150.47,-4.49 -51.65,-31.44 -96.56,-94.32 -163.94,-145.97 -67.36,-51.65 -157.19,-92.07 -282.95,-112.29 -125.76,-20.21 -287.45,-20.21 -419.85,-13.26 -132.41,6.94 -235.54,20.83 -336.59,56.76 -101.06,35.93 -200.06,93.91 -280.99,95.95 -80.94,2.04 -143.82,-51.86 -217.93,-69.82 -74.1,-17.97 -159.45,-0.01 -238.04,17.96 -78.6,17.96 -150.47,35.93 -238.05,44.91 -87.58,8.99 -190.89,8.99 -233.55,-20.21 -42.68,-29.2 -24.71,-87.58 -20.22,-177.41 4.5,-89.83 -4.49,-211.1 -56.14,-314.4 -51.65,-103.3 -145.98,-188.65 -235.8,-224.57 -89.83,-35.94 -175.17,-22.46 -262.75,35.93 -87.58,58.39 -177.41,161.69 -215.58,251.52 -38.18,89.83 -24.71,166.18 -38.19,249.28 -13.47,83.09 -53.89,172.91 -49.4,264.98 4.49,92.08 53.89,186.4 105.55,276.23 51.65,89.83 105.54,175.17 135.96,270.82 30.42,95.64 37.35,201.6 55.17,278.04 17.82,76.44 46.54,123.36 92.3,201.79 45.75,78.43 108.55,188.36 140.14,282.6 31.58,94.23 31.94,172.77 61.26,234.76 29.33,62 87.61,107.45 101.08,188.29 13.48,80.85 -17.85,197.09 7.14,293.89 24.99,96.8 106.29,174.17 147.06,239.23 40.76,65.07 40.98,117.83 25.03,184.69 -15.96,66.87 -48.08,147.85 -47.49,226.43 0.58,78.59 33.86,154.79 40.6,233.38 6.74,78.61 -13.07,159.61 -5.25,242.45 7.82,82.84 43.27,167.53 66.88,241.73 23.61,74.2 35.38,137.91 48.62,203.14 13.23,65.24 27.93,132 52.33,237.66 24.39,105.67 58.48,250.23 92.89,353.62 34.4,103.39 69.1,165.61 124.4,196.84 55.3,31.24 131.18,31.5 202.81,81.03 71.63,49.53 139,148.34 192.9,199.99 53.9,51.65 94.31,56.14 128,74.11 33.69,17.97 60.63,49.4 67.37,98.81 6.74,49.41 -6.74,116.78 51.65,193.13z"/>
   <path class="fil13" d="M7989.36 7061.72c42.66,-24.7 136.98,-6.74 206.61,67.37 69.61,74.11 114.52,204.36 154.95,285.21 40.42,80.84 76.35,112.28 107.87,-0.35 31.53,-112.64 58.64,-369.35 96.72,-562.26 38.07,-192.92 87.1,-322.05 134.18,-429.49 47.08,-107.45 92.19,-193.22 119.25,-305.72 27.05,-112.5 36.03,-251.73 51.76,-368 15.73,-116.28 38.2,-209.59 10.88,-362.93 -27.32,-153.35 -104.45,-366.72 -179.63,-501.61 -75.19,-134.89 -148.45,-191.29 -229.77,-244.79 -81.32,-53.49 -170.71,-104.07 -235.61,-148.93 -64.9,-44.88 -105.32,-84.03 -119.91,-149.27 -14.59,-65.24 -3.37,-156.56 -0.57,-221.89 2.78,-65.34 -2.85,-104.68 -31.67,-162.69 -28.83,-58.02 -80.82,-134.71 -115.05,-191.76 -34.24,-57.07 -50.71,-94.49 -63.42,-198.43 -12.73,-103.96 -21.71,-274.43 -79.25,-159.18 -57.55,115.25 -163.65,516.22 -240.01,838.19 -76.36,321.96 -122.96,564.92 -185.94,840.99 -62.98,276.06 -142.34,585.22 -177.41,809.58 -35.09,224.36 -25.91,363.92 -37.04,514.54 -11.13,150.63 -42.56,312.31 -67.46,459.16 -24.9,146.83 -43.25,278.82 -42.62,406.64 0.63,127.82 20.25,251.48 43.98,337.87 23.74,86.4 51.6,135.53 64.44,203.09 12.84,67.55 10.67,153.53 16.32,225.72 5.65,72.18 19.13,130.56 41.59,200.19 22.46,69.61 53.89,150.46 103.93,205.77 50.03,55.3 118.67,85.05 169.99,64.47 51.31,-20.58 85.32,-91.49 116.33,-174.28 31.01,-82.8 59.04,-177.46 68.07,-265.4 9.02,-87.95 -0.94,-169.16 -35.68,-237.47 -34.74,-68.31 -94.25,-123.7 -115.39,-151.83 -21.14,-28.14 -3.92,-29.01 76.19,-29.2 80.09,-0.19 223.05,0.31 312.31,-1.69 89.27,-1.99 124.82,-6.47 142.14,-54.22 17.32,-47.74 16.4,-138.74 -4.27,-208.95 -20.68,-70.2 -61.09,-119.6 -85.8,-177.98 -24.7,-58.4 -33.69,-125.77 8.99,-150.47z"/>
   <path class="fil13" d="M12543.33 5906.26c-4.39,79.18 -41.68,197.58 -72.19,306.34 -30.5,108.76 -54.22,207.88 -64.39,287 -10.17,79.13 -6.8,138.26 7.61,180.93 14.41,42.67 39.86,68.86 48.13,134.58 8.28,65.72 -0.61,170.96 -14.88,250.67 -14.27,79.7 -33.9,133.87 -49.64,223.23 -15.73,89.35 -27.56,213.89 5.49,308.28 33.06,94.39 110.99,158.62 184.97,209.39 74,50.77 144.05,88.07 173.14,99.03 29.11,10.94 17.27,-4.44 16.05,-72.39 -1.22,-67.96 8.18,-188.47 31.96,-377.85 23.79,-189.38 61.96,-447.64 102.8,-761.17 40.85,-313.54 84.37,-682.35 176.82,-1040.67 92.46,-358.33 233.87,-706.17 262.75,-828.36 28.88,-122.2 -54.79,-18.76 -142.83,68.78 -88.04,87.53 -180.45,159.16 -258.68,251.64 -78.23,92.47 -142.27,205.8 -216.54,309.52 -74.25,103.72 -158.73,197.84 -186.72,264.87 -27.98,67.03 0.54,106.99 -3.85,186.18z"/>
   <path class="fil14" d="M11183.9 14849.91c-38.18,-38.17 -74.11,-6.73 -112.29,65.13 -38.18,71.87 -78.6,184.15 -105.55,287.46 -26.95,103.3 -40.41,197.62 -60.63,296.43 -20.21,98.81 -47.16,202.11 -80.85,238.04 -33.69,35.93 -74.1,4.5 -132.49,-17.96 -58.39,-22.46 -134.75,-35.93 -208.86,-49.41 -74.1,-13.47 -145.97,-26.95 -193.12,-24.7 -47.17,2.24 -69.63,20.21 -80.47,69.68 -10.84,49.48 -10.06,130.47 -6.13,180.61 3.93,50.14 11.02,69.45 -17.99,50.27 -29.01,-19.16 -94.14,-76.8 -158.85,-138.96 -64.71,-62.15 -129.02,-128.81 -177.75,-169.64 -48.73,-40.83 -81.89,-55.83 -124.89,-74.23 -43.01,-18.38 -95.86,-40.18 -133.81,-78.99 -37.95,-38.81 -61.01,-94.65 -85.32,-168.85 -24.3,-74.21 -49.86,-166.78 -74.06,-265.33 -24.2,-98.54 -47.06,-203.06 -70.42,-336.24 -23.37,-133.18 -47.25,-295.03 -69.38,-428.97 -22.13,-133.95 -42.52,-240.01 -46.39,-366.16 -3.87,-126.16 8.77,-272.42 6.15,-414.93 -2.62,-142.5 -20.5,-281.25 -26.09,-296.15 -5.58,-14.89 1.12,94.08 -9.48,129.6 -10.61,35.53 -38.54,-2.39 -64.42,-66.71 -25.88,-64.32 -49.73,-155.04 -78.31,-256.31 -28.59,-101.28 -61.91,-213.11 -121.22,-371.46 -59.3,-158.34 -144.59,-363.21 -202.73,-529.41 -58.15,-166.2 -89.16,-293.73 -127.31,-402.63 -38.17,-108.9 -83.49,-199.18 -123.74,-290.35 -40.26,-91.17 -75.44,-183.25 -52.77,-138.11 22.66,45.13 103.16,227.48 205.15,343.89 101.99,116.42 225.46,166.9 311.9,223.58 86.44,56.68 135.84,119.56 191.99,200.4 56.14,80.85 119.02,179.66 172.92,267.24 53.9,87.59 98.81,163.94 163.94,238.05 65.12,74.11 150.46,145.97 224.57,175.17 74.11,29.2 136.99,15.72 172.92,2.25 35.93,-13.48 44.91,-26.95 56.14,17.95 11.23,44.92 24.7,148.23 71.87,222.34 47.15,74.11 128,119.02 193.13,150.46 65.12,31.44 114.53,49.4 145.97,74.11 31.44,24.7 44.92,56.14 47.16,94.32 2.25,38.18 -6.74,83.08 -71.86,114.53 -65.13,31.44 -186.4,49.41 -291.94,56.14 -105.55,6.74 -195.39,2.25 -271.74,58.39 -76.36,56.14 -139.23,172.92 -186.4,298.68 -47.16,125.76 -78.59,260.51 -85.33,377.28 -6.74,116.78 11.23,215.6 58.39,238.05 47.16,22.46 123.52,-31.44 197.62,-114.53 74.11,-83.09 145.97,-195.38 195.38,-276.23 49.4,-80.84 76.35,-130.24 139.24,-199.86 62.87,-69.62 161.68,-159.45 276.68,-227.57 115,-68.11 246.19,-114.5 363.48,-115.62 117.29,-1.13 220.68,43.04 361,87.47 140.32,44.44 317.58,89.15 473.14,129.57 155.56,40.43 289.43,76.56 356.36,94.63 66.94,18.06 66.94,18.06 49.02,51.51 -17.92,33.44 -53.77,100.32 -91.69,208.57 -37.91,108.26 -77.89,257.88 -97.04,410.54 -19.15,152.67 -17.45,308.36 -21.03,414.72 -3.58,106.37 -12.44,163.38 -38.07,214.56 -25.62,51.18 -68.02,96.52 -104.31,180.32 -36.29,83.82 -66.47,206.1 -79.96,334.1 -13.48,128 -10.27,261.73 -8.64,365.65 1.62,103.92 1.66,178.03 -7.31,242.41 -8.96,64.38 -26.92,119.03 -64.16,54.67 -37.24,-64.37 -93.77,-247.75 -131.02,-415.79 -37.24,-168.04 -55.21,-320.75 -55.21,-446.51 0,-125.76 17.97,-224.57 6.74,-327.88 -11.23,-103.3 -51.65,-211.1 -89.83,-249.28z"/>
   <path class="fil15" d="M12239.73 11322.88c-110.38,30.46 -254.11,52.92 -346.19,86.61 -92.07,33.69 -132.49,78.59 -179.65,76.35 -47.17,-2.25 -101.06,-51.65 -163.94,-105.55 -62.88,-53.9 -134.75,-112.28 -189.58,-185.28 -54.82,-73 -92.61,-160.61 -237.59,-197.16 -144.97,-36.56 -397.12,-22.06 -570.02,1.19 -172.9,23.24 -266.57,55.21 -343.93,116.47 -77.35,61.26 -138.4,151.79 -225.06,203.8 -86.67,52 -198.95,65.47 -279.79,83.44 -80.86,17.97 -130.26,40.42 -150.47,98.8 -20.21,58.39 -11.23,152.72 -26.95,226.83 -15.72,74.11 -56.14,128 -65.12,197.62 -8.99,69.62 13.47,154.96 9.05,243.14 -4.42,88.19 -35.7,179.21 -36.83,243.96 -1.12,64.76 27.92,103.22 1,60.32 -26.92,-42.89 -109.81,-167.16 -160.33,-288.06 -50.53,-120.88 -68.7,-238.41 -142.96,-310.42 -74.26,-72.01 -204.61,-98.5 -313.15,-160.02 -108.54,-61.51 -195.28,-158.04 -231.16,-257.08 -35.89,-99.03 -20.92,-200.57 13.52,-287.28 34.43,-86.7 88.32,-158.57 108.53,-156.32 20.22,2.25 6.74,78.6 4.5,152.71 -2.25,74.11 6.73,145.97 53.9,197.63 47.15,51.64 132.49,83.08 208.85,116.77 76.36,33.68 143.72,69.61 229.07,112.28 85.33,42.67 188.63,92.07 208.85,67.37 20.21,-24.7 -42.68,-123.51 -121.27,-172.92 -78.6,-49.4 -172.93,-49.4 -199.87,-71.86 -26.95,-22.45 13.47,-67.36 26.94,-116.77 13.48,-49.41 0,-103.3 16.29,-173.68 16.29,-70.38 62.33,-157.24 59.57,-275.2 -2.76,-117.96 -54.33,-267.01 -54.33,-267.01 0,0 51.57,149.05 99.86,257.34 48.3,108.28 93.31,175.79 135.61,208.73 42.3,32.93 81.86,31.3 161.04,19.3 79.18,-12 197.96,-34.37 277.32,-44.85 79.34,-10.48 119.25,-9.07 157.02,-1.26 37.78,7.8 73.41,22.02 109.74,33.66 36.31,11.63 73.32,20.7 138.66,9.24 65.33,-11.47 159,-43.44 245.04,-67.66 86.04,-24.22 164.47,-40.65 255.62,-50.72 91.14,-10.06 195.02,-13.74 281.88,-12.76 86.86,0.97 156.71,6.59 216.4,15.83 59.7,9.23 109.24,22.07 169.94,53.11 60.7,31.04 132.55,80.26 194.74,120.88 62.2,40.62 114.73,72.62 153.58,85.38 38.86,12.75 64.07,6.26 76.66,3.01 12.6,-3.25 12.6,-3.25 39.45,-32.7 26.85,-29.46 80.54,-88.38 145.71,-133.75 65.17,-45.38 141.81,-77.23 215.43,-105.18 73.62,-27.94 144.21,-51.97 179.51,-63.99 35.3,-12.02 35.3,-12.02 53.57,17.27 18.27,29.3 54.81,87.89 67.16,146.28 12.35,58.39 0.51,116.57 66.88,155.88 66.38,39.3 210.97,59.72 280.18,88.89 69.23,29.17 63.07,67.09 59.99,86.05 -3.07,18.96 -3.07,18.96 -72.29,-10.21 -69.22,-29.17 -207.65,-87.51 -315.4,-97.44 -107.74,-9.94 -184.79,28.52 -295.18,58.99z"/>
   <path class="fil15" d="M8496.28 5169.84c-49.91,102.09 -76.86,214.38 -65.63,322.17 11.23,107.8 60.63,211.11 98.81,229.07 38.18,17.96 65.13,-49.41 53.9,-17.96 -11.23,31.43 -60.63,161.68 -116.78,260.5 -56.14,98.81 -119.02,166.18 -202.02,157.69 -83.01,-8.49 -186.13,-92.83 -257.99,-175.92 -71.86,-83.09 -112.47,-164.93 -143.99,-261.99 -31.53,-97.06 -53.99,-209.35 -80.94,-335.11 -26.95,-125.76 -58.39,-264.99 -87.58,-370.54 -29.2,-105.55 -56.14,-177.42 -107.22,-141.02 -51.08,36.38 -126.28,181.03 -142.01,304.54 -15.72,123.51 28.05,225.9 94.84,299.55 66.8,73.65 156.63,118.57 176.84,161.24 20.21,42.66 -29.19,83.09 -87.58,105.55 -58.39,22.46 -125.76,26.94 -172.92,40.42 -47.16,13.47 -74.11,35.93 -114.31,87.19 -40.2,51.26 -93.65,131.32 -117.26,146.21 -23.6,14.89 -17.35,-35.39 10.21,-164.67 27.56,-129.28 76.43,-337.57 127.97,-573.31 51.54,-235.76 105.75,-498.96 165.16,-760.16 59.41,-261.19 124.02,-520.36 173.04,-699.4 49.02,-179.05 82.45,-277.97 99.17,-327.43 16.71,-49.46 16.71,-49.46 29.29,-11.84 12.58,37.61 37.75,112.84 71.39,188.26 33.64,75.42 75.76,151.03 102.71,189.58 26.94,38.55 38.73,40.05 45.74,99.18 7.02,59.13 9.26,175.91 10.38,234.3 1.13,58.39 1.13,58.39 4.5,83.84 3.36,25.45 10.1,76.35 37.76,122.34 27.66,45.98 76.23,87.04 150.56,140 74.32,52.97 174.38,117.84 235.58,160.45 61.2,42.61 83.53,62.96 111.06,96.15 27.53,33.18 60.26,79.2 40.19,148.16 -20.08,68.97 -92.95,160.86 -142.87,262.96z"/>
   <path class="fil15" d="M7667.11 6823.73c56.14,-38.18 87.58,-96.57 105.54,-166.19 17.97,-69.61 22.46,-150.46 38.18,-150.46 15.72,0 42.67,80.85 51.66,161.69 8.98,80.85 0,161.7 -22.46,224.58 -22.46,62.88 -58.39,107.79 -119.02,143.72 -60.63,35.93 -145.98,62.88 -197.62,96.57 -51.66,33.68 -69.63,74.1 -71.87,114.53 -2.25,40.42 11.23,80.84 62.88,98.81 51.65,17.96 141.48,13.47 123.52,22.45 -17.97,8.99 -143.73,31.45 -233.56,58.4 -89.83,26.95 -143.72,58.38 -157.2,96.56 -13.47,38.18 13.47,83.09 71.2,105.88 57.73,22.78 146.24,23.42 189,36.16 42.75,12.74 39.74,37.57 25.61,68.39 -14.14,30.83 -39.4,67.63 -67.99,89.81 -28.59,22.18 -60.52,29.73 -104.31,80.54 -43.8,50.82 -99.48,144.9 -87.05,177.57 12.43,32.66 92.96,3.92 133.23,-10.45 40.26,-14.38 40.26,-14.38 40.62,30.33 0.36,44.69 1.08,134.09 30.36,180.92 29.28,46.84 87.13,51.12 110.1,78.49 22.98,27.36 11.1,77.83 -16.93,126.64 -28.03,48.81 -72.19,95.97 -141.43,100.84 -69.25,4.86 -163.57,-32.57 -223.51,-85.76 -59.94,-53.2 -85.51,-122.16 -82.29,-201.61 3.21,-79.46 35.2,-169.41 48.48,-252 13.27,-82.6 7.83,-157.84 38.09,-187.98 30.27,-30.15 96.23,-15.21 152.56,-35.31 56.33,-20.11 103.02,-75.28 100.09,-112.44 -2.93,-37.16 -55.49,-56.32 -123.24,-63.85 -67.76,-7.54 -150.71,-3.43 -192.19,-1.37 -41.48,2.05 -41.48,2.05 -46.21,-32.08 -4.74,-34.14 -14.21,-102.41 7.06,-160.61 21.26,-58.19 73.27,-106.32 117.24,-137.11 43.97,-30.8 79.9,-44.27 100.11,-84.69 20.21,-40.43 24.7,-107.8 4.49,-154.96 -20.21,-47.16 -65.12,-74.11 -111.13,-72.04 -46.02,2.06 -93.14,33.14 -121.97,83.4 -28.83,50.27 -39.37,119.72 -37.03,102.46 2.33,-17.26 17.54,-121.24 27.81,-189.7 10.27,-68.47 15.59,-101.43 74.99,-113.19 59.4,-11.76 172.88,-2.29 270.04,-6.55 97.16,-4.25 178.01,-22.22 234.15,-60.39z"/>
   <path class="fil15" d="M8592.31 6169.3c10.3,128.59 4.86,283.2 -33.32,413.45 -38.18,130.25 -109.08,236.14 -175.04,323.14 -65.96,87 -126.97,155.1 -173.24,178.41 -46.28,23.3 -77.8,1.82 -93.57,-8.92 -15.77,-10.75 -15.77,-10.75 14.5,22.85 30.26,33.59 90.79,100.78 132.38,159.06 41.59,58.27 64.24,107.64 96.99,116.46 32.75,8.82 75.59,-22.91 104.25,-84.82 28.66,-61.92 43.14,-154.02 64.94,-268.36 21.8,-114.34 50.91,-250.92 89.84,-379.39 38.94,-128.46 87.69,-248.8 125.85,-365.45 38.15,-116.66 65.71,-229.62 86.82,-347.07 21.12,-117.45 35.79,-239.39 41.19,-330.65 5.4,-91.27 1.55,-151.86 -12.33,-225.04 -13.89,-73.18 -37.79,-158.94 -67.73,-242.54 -29.94,-83.6 -65.92,-165.05 -97.81,-263.29 -31.89,-98.25 -59.71,-213.31 -93.9,-214.51 -34.19,-1.21 -74.76,111.42 -81.09,194.91 -6.34,83.48 21.58,137.81 44.03,209.68 22.45,71.86 39.47,161.26 32.7,293.91 -6.78,132.65 -37.32,308.55 -39.56,447.79 -2.25,139.23 23.8,241.79 34.1,370.38z"/>
   <path class="fil15" d="M12666.07 6235.35c24.7,-110.04 65.12,-249.26 121.18,-327.67 56.05,-78.41 127.74,-95.98 176.92,-112.94 49.17,-16.97 75.84,-33.32 129.91,-172.72 54.08,-139.4 135.54,-401.86 185.5,-564.76 49.96,-162.9 68.41,-226.25 77.64,-257.93 9.23,-31.67 9.23,-31.67 -48.72,6.61 -57.95,38.29 -173.86,114.85 -245.56,174.38 -71.69,59.53 -99.19,102.02 -132.62,160.51 -33.42,58.49 -72.78,132.98 -125.21,213.8 -52.43,80.82 -117.94,167.98 -173.78,235.73 -55.84,67.76 -102,116.12 -129.13,184.07 -27.13,67.94 -35.22,155.46 -47.96,279.59 -12.73,124.13 -30.11,284.85 -37.54,395.37 -7.41,110.52 -4.88,170.83 4.41,223.42 9.29,52.58 25.34,97.44 30.88,161.65 5.54,64.21 0.58,147.76 -10.18,226.75 -10.75,78.98 -27.29,153.39 -37.3,230.79 -10.01,77.4 -13.47,157.79 0.01,229.05 13.48,71.24 43.92,133.36 67.5,173.94 23.59,40.59 40.32,59.63 53.18,-18.42 12.86,-78.07 21.84,-253.23 59.93,-433.44 38.09,-180.21 105.28,-365.47 116.51,-488.98 11.23,-123.52 -33.51,-185.29 -51.38,-256.6 -17.88,-71.31 -8.89,-152.16 15.81,-262.2z"/>
   <path class="fil16" d="M10312.54 11279.26c-92.08,60.63 -231.31,150.46 -303.17,217.83 -71.87,67.37 -76.36,112.29 -58.4,154.95 17.97,42.67 58.39,83.09 114.53,92.07 56.15,8.99 128.01,-13.47 213.35,-24.69 85.34,-11.23 184.15,-11.23 235.8,6.73 51.65,17.97 56.14,53.9 24.71,92.08 -31.44,38.18 -98.82,78.59 -148.22,116.77 -49.41,38.18 -80.84,74.11 -105.55,107.8 -24.7,33.68 -42.67,65.13 -67.37,53.9 -24.71,-11.23 -56.14,-65.13 -85.34,-103.31 -29.2,-38.17 -56.15,-60.63 -105.55,-71.86 -49.41,-11.23 -121.27,-11.23 -193.13,8.98 -71.86,20.21 -143.73,60.63 -184.15,125.75 -40.42,65.13 -49.41,154.97 -53.55,258.79 -4.16,103.82 -3.49,221.64 66.13,262.06 69.62,40.43 208.18,3.45 266.61,19.4 58.42,15.94 36.72,84.8 113.08,167.89 76.35,83.09 250.76,180.41 380.64,229.07 129.87,48.67 215.21,48.67 302.79,64.39 87.58,15.72 177.41,47.16 302.36,115.5 124.95,68.33 285.02,173.56 430.99,222.97 145.97,49.41 277.85,42.98 377.47,26.3 99.62,-16.68 166.99,-43.63 205.17,-90.79 38.18,-47.16 47.16,-114.53 2.24,-190.89 -44.91,-76.35 -143.72,-161.69 -215.59,-235.8 -71.86,-74.1 -116.77,-136.99 -154.95,-195.38 -38.18,-58.39 -69.61,-112.28 -58.39,-197.62 11.23,-85.34 65.13,-202.11 62.88,-267.24 -2.24,-65.12 -60.63,-78.6 -67.37,-136.99 -6.73,-58.39 38.17,-161.69 26.95,-240.29 -11.23,-78.6 -78.6,-132.49 -141.49,-190.89 -62.87,-58.38 -121.26,-121.26 -163.93,-152.71 -42.67,-31.43 -69.61,-31.43 -87.58,-80.83 -17.97,-49.41 -26.95,-148.23 -74.11,-215.6 -47.16,-67.37 -132.5,-103.3 -251.52,-110.04 -119.03,-6.73 -271.73,15.72 -370.54,42.67 -98.82,26.95 -143.73,58.39 -235.8,119.03z"/>
   <path class="fil16" d="M8975.19 10568.48c32.57,41.55 61.77,81.97 69.63,123.52 7.86,41.55 -5.62,84.21 -42.67,122.39 -37.06,38.18 -97.69,71.86 -143.73,92.07 -46.04,20.21 -77.48,26.95 -112.29,37.06 -34.81,10.1 -72.98,23.58 -107.79,32.56 -34.81,8.99 -66.25,13.48 -78.6,-42.66 -12.35,-56.15 -5.61,-172.92 32.57,-249.28 38.17,-76.36 107.79,-112.29 159.44,-145.98 51.65,-33.68 85.33,-65.12 120.14,-59.5 34.81,5.61 70.74,48.27 103.3,89.82z"/>
   <path class="fil13" d="M10856.56 12209.26c24.15,-15.96 73.55,-22.69 115.09,-2.49 41.55,20.22 75.23,67.38 101.06,71.86 25.83,4.5 43.79,-33.68 75.24,-61.75 31.44,-28.07 76.35,-46.03 103.3,-79.72 26.95,-33.69 35.93,-83.09 8.98,-88.7 -26.95,-5.62 -89.82,32.55 -134.74,53.89 -44.92,21.33 -71.86,25.83 -92.07,11.23 -20.22,-14.6 -33.69,-48.28 -37.06,-80.84 -3.37,-32.57 3.37,-64.01 15.72,-70.75 12.35,-6.74 30.31,11.23 58.38,15.72 28.08,4.49 66.26,-4.49 64.01,-24.7 -2.24,-20.22 -44.91,-51.65 -76.35,-101.06 -31.44,-49.41 -51.65,-116.78 -107.79,-123.51 -56.15,-6.74 -148.23,47.15 -218.97,94.32 -70.74,47.16 -120.14,87.58 -152.71,149.33 -32.56,61.76 -48.28,144.86 -32.55,202.12 15.72,57.27 62.87,88.71 95.44,86.46 32.56,-2.24 50.52,-38.17 76.35,-28.07 25.83,10.11 59.51,66.25 80.28,81.09 20.76,14.84 28.61,-11.63 32.54,-24.86 3.92,-13.23 3.92,-13.23 3.37,-25.83 -0.56,-12.58 -1.68,-37.78 22.48,-53.74z"/>
   <path class="fil17" d="M10833.53 11383.71c56.14,10.1 114.53,52.77 174.04,80.84 59.52,28.07 120.15,41.55 135.87,68.5 15.72,26.95 -13.48,67.37 -59.52,72.98 -46.03,5.61 -108.91,-23.58 -154.94,-25.83 -46.04,-2.24 -75.24,22.46 -103.04,19.84 -27.8,-2.61 -54.2,-32.54 -106.97,-48.26 -52.78,-15.72 -131.92,-17.23 -208.55,-16.86 -76.63,0.37 -150.74,2.61 -164.21,-17.6 -13.47,-20.21 33.68,-62.88 97.69,-83.09 64,-20.21 144.85,-17.97 212.22,-28.07 67.37,-10.11 121.27,-32.56 177.41,-22.45z"/>
   <path class="fil18" d="M10413.54 12380.87c42.67,32.56 98.81,84.21 157.2,111.16 58.38,26.95 119.02,29.19 183.03,32.56 64,3.37 131.37,7.86 158.32,38.18 26.95,30.31 13.47,86.46 25.82,125.76 12.36,39.3 50.53,61.76 47.16,89.83 -3.37,28.07 -48.28,61.75 -89.83,95.44 -41.55,33.69 -79.72,67.37 -123.51,72.98 -43.8,5.62 -93.2,-16.83 -136.99,-22.45 -43.8,-5.61 -81.97,5.61 -128.01,7.86 -46.04,2.24 -99.93,-4.49 -143.73,-42.67 -43.79,-38.18 -77.47,-107.79 -120.13,-161.69 -42.67,-53.9 -94.33,-92.07 -132.5,-136.99 -38.18,-44.91 -62.89,-96.57 -65.13,-143.73 -2.25,-47.15 17.97,-89.82 66.25,-110.03 48.28,-20.21 124.64,-17.97 177.42,-10.11 52.77,7.86 81.96,21.33 124.63,53.9z"/>
   <path class="fil18" d="M11241.08 12853.59c30.32,-51.66 52.78,-103.3 76.36,-104.43 23.58,-1.12 48.28,48.28 76.35,62.88 28.07,14.6 59.51,-5.61 116.77,4.5 57.27,10.11 140.37,50.52 194.26,85.33 53.9,34.82 78.6,64 106.67,105.55 28.07,41.55 59.52,95.44 68.5,144.84 8.98,49.41 -4.49,94.33 -30.32,126.89 -25.83,32.56 -64,52.78 -110.04,47.16 -46.04,-5.61 -99.93,-37.05 -151.59,-52.77 -51.64,-15.72 -101.05,-15.72 -135.86,-30.32 -34.81,-14.6 -55.02,-43.78 -87.58,-67.37 -32.57,-23.58 -77.48,-41.54 -117.9,-68.49 -40.43,-26.96 -76.36,-62.88 -75.23,-106.68 1.12,-43.79 39.29,-95.44 69.61,-147.09z"/>
   <path class="fil19" d="M12796.38 11616.31c-45.11,27.68 -65.29,123.82 -100.09,205.58 -34.8,81.76 -84.2,149.13 -151.57,214.25 -67.37,65.13 -152.71,128.02 -235.79,193.14 -83.09,65.12 -163.94,132.5 -224.58,184.14 -60.63,51.66 -101.05,87.58 -62.88,96.57 38.18,8.98 154.96,-8.98 235.8,-11.22 80.85,-2.25 125.76,11.23 132.5,44.91 6.74,33.68 -24.71,87.58 -62.89,119.02 -38.18,31.44 -83.08,40.42 -67.36,69.62 15.72,29.2 92.07,78.6 101.05,132.49 8.99,53.9 -49.4,112.29 -113.4,159.06 -63.99,46.77 -133.59,81.93 -124.61,129.08 8.99,47.17 96.55,106.34 115.63,156.13 19.08,49.8 -30.32,90.21 -72.65,130.89 -42.33,40.69 -77.57,81.62 13.58,102.51 91.17,20.9 308.73,21.75 472.9,-3.61 164.18,-25.37 274.96,-76.94 365.53,-120.7 90.57,-43.76 160.94,-79.68 187.42,-115.85 26.48,-36.17 9.06,-72.59 -15.48,-108.12 -24.53,-35.52 -56.18,-70.17 -41.61,-113.37 14.57,-43.19 75.36,-94.93 109.62,-131.27 34.27,-36.33 42.01,-57.26 27.33,-105.5 -14.67,-48.23 -51.77,-123.78 -68.07,-181.77 -16.29,-57.98 -11.8,-98.39 -36.5,-125.34 -24.7,-26.95 -78.6,-40.43 -116.78,-44.92 -38.17,-4.49 -60.63,0 -30.33,-52.94 30.31,-52.94 113.37,-163.31 154.9,-218.49 41.53,-55.18 41.53,-55.18 2.24,-92.08 -39.28,-36.89 -117.85,-110.67 -159.19,-193.2 -41.34,-82.53 -45.45,-173.81 -82.53,-239.85 -37.06,-66.03 -107.08,-106.83 -152.19,-79.16z"/>
   <path class="fil20" d="M11262.39 8372.26c74.11,44.91 134.74,119.03 173.25,194.22 38.51,75.18 54.91,151.45 60.52,208.72 5.62,57.27 0.45,95.52 -19.5,110.1 -19.95,14.58 -54.71,5.48 -113.1,-11.36 -58.39,-16.85 -140.42,-41.43 -215.11,-85.81 -74.69,-44.38 -142.05,-108.57 -188.08,-161.34 -46.04,-52.78 -70.75,-94.14 -85.68,-132.66 -14.93,-38.53 -20.08,-74.2 4.62,-106.76 24.71,-32.57 79.25,-62.02 150.32,-68.88 71.06,-6.86 158.65,8.86 232.76,53.77z"/>
   <path class="fil20" d="M12984.86 8828.15c0,-71.87 -2.25,-157.21 8.98,-227.95 11.23,-70.74 35.93,-126.88 70.97,-153.33 35.04,-26.45 80.42,-23.21 121.99,7.6 41.56,30.8 79.31,89.16 112.43,150.59 33.12,61.43 61.6,125.92 40.08,199.63 -21.52,73.7 -93.06,156.62 -148.47,213.49 -55.42,56.88 -94.72,87.71 -127.11,83.14 -32.39,-4.58 -57.88,-44.56 -69.5,-93.74 -11.62,-49.19 -9.37,-107.57 -9.37,-179.43z"/>
   <path class="fil18" d="M11178.32 8598.18c45.01,40.62 88.11,74.66 127.3,94.34 39.19,19.67 74.46,24.99 95.47,1.59 21.02,-23.4 27.78,-75.52 18.9,-119.72 -8.89,-44.2 -33.43,-80.48 -62.31,-112.84 -28.87,-32.38 -62.08,-60.83 -97.39,-82.57 -35.3,-21.75 -72.69,-36.79 -121.07,-25.76 -48.39,11.03 -107.77,48.12 -126.22,70.78 -18.45,22.67 4.02,30.89 38.71,58.62 34.69,27.73 81.6,74.93 126.61,115.56z"/>
   <path class="fil18" d="M13099.02 8891.03c31.81,13.46 54.26,15.71 77.84,1.11 23.59,-14.6 48.29,-46.03 68.5,-79.72 20.22,-33.69 35.93,-69.61 44.93,-109.24 9,-39.64 11.27,-82.98 -0.92,-121.36 -12.18,-38.39 -38.84,-71.83 -59.34,-99.24 -20.5,-27.42 -34.85,-48.82 -61.36,-53.77 -26.52,-4.95 -65.19,6.56 -91.11,20.65 -25.93,14.07 -39.11,30.74 -50.94,56.29 -11.82,25.56 -22.3,60.01 -29.03,115.22 -6.74,55.22 -9.74,131.19 9.35,181.54 19.09,50.34 60.26,75.04 92.08,88.52z"/>
   <path class="fil21" d="M10228.23 9079.69c48.28,-31.44 113.41,-74.1 170.68,-105.54 57.26,-31.45 106.66,-51.66 163.93,-60.64 57.26,-8.99 122.39,-6.74 167.31,5.61 44.91,12.35 69.61,34.81 90.95,66.25 21.33,31.45 39.29,71.86 61.75,117.9 22.46,46.04 49.41,97.69 66.25,136.99 16.85,39.31 23.59,66.25 16.85,94.32 -6.74,28.08 -26.95,57.26 -43.8,81.97 -16.84,24.7 -30.31,44.92 -50.53,59.51 -20.21,14.6 -47.15,23.59 -116.77,25.83 -69.62,2.25 -181.9,-2.24 -281.84,-25.83 -99.93,-23.58 -187.52,-66.24 -249.27,-106.67 -61.76,-40.42 -97.69,-78.59 -125.76,-102.18 -28.08,-23.58 -48.29,-32.56 -62.89,-43.79 -14.59,-11.23 -23.58,-24.7 -8.98,-37.06 14.6,-12.35 52.77,-23.57 87.58,-39.29 34.81,-15.72 66.25,-35.93 114.54,-67.38z"/>
   <path class="fil22" d="M13528.18 9156.08c24.09,34.4 48.04,89.05 55.71,150.62 7.68,61.57 -0.93,130.06 -31.25,214.28 -30.32,84.21 -82.34,184.15 -116.22,237.48 -33.87,53.34 -49.58,60.07 -78.78,49.97 -29.2,-10.11 -71.86,-37.05 -101.05,-71.86 -29.2,-34.81 -44.92,-77.48 -57.27,-156.07 -12.36,-78.61 -21.34,-193.14 -13.48,-270.61 7.86,-77.49 32.57,-117.9 58.39,-144.85 25.83,-26.95 52.77,-40.43 88.19,-50.13 35.43,-9.7 79.34,-15.64 113.4,-11.52 34.06,4.12 58.28,18.29 82.36,52.69z"/>
   <path class="fil23" d="M10230.66 9288.72c14.38,-9.15 14.38,-15.88 23.37,-19.24 8.98,-3.37 26.95,-3.37 31.44,-19.09 4.49,-15.73 -4.49,-47.17 -1.12,-73.55 3.36,-26.39 19.09,-47.72 43.79,-68.49 24.7,-20.78 58.38,-40.99 98.25,-60.08 39.86,-19.09 85.9,-37.05 128.57,-46.04 42.67,-8.98 81.96,-8.98 111.16,-5.61 29.19,3.37 48.28,10.1 61.76,26.38 13.48,16.28 21.33,42.11 25.82,71.87 4.49,29.76 5.61,63.44 3.37,92.63 -2.25,29.2 -7.85,53.9 -27.5,74.68 -19.66,20.77 -53.34,37.61 -53.34,42.1 0,4.49 33.68,-3.37 63.44,-16.85 29.76,-13.47 55.58,-32.55 69.05,-52.2 13.48,-19.65 14.6,-39.87 20.22,-43.79 5.61,-3.94 15.72,8.41 20.77,21.33 5.05,12.91 5.05,26.39 -1.12,44.35 -6.18,17.97 -18.53,40.42 -33.69,64 -15.16,23.58 -33.13,48.29 -49.41,69.07 -16.28,20.77 -30.87,37.6 -44.91,51.64 -14.04,14.04 -27.51,25.27 -45.32,34.1 -17.83,8.84 -39.99,15.29 -78.11,13.98 -38.13,-1.31 -92.23,-10.37 -146.73,-25.67 -54.51,-15.3 -109.45,-36.84 -147.29,-53.68 -37.85,-16.85 -58.62,-29.01 -79.84,-43.16 -21.22,-14.16 -42.9,-30.3 -39.34,-44.15 3.55,-13.85 32.32,-25.39 46.71,-34.53z"/>
   <path class="fil24" d="M13442.07 9183.59c16.84,11.79 28.06,28.63 44.34,58.39 16.29,29.76 37.62,72.42 49.5,121.07 11.88,48.66 14.31,103.3 -3.85,170.2 -18.16,66.89 -56.9,146.05 -89.4,193.96 -32.5,47.9 -58.76,64.56 -81.04,67.93 -22.28,3.37 -40.58,-6.54 -51.96,-34.04 -11.38,-27.5 -15.84,-72.6 -11.9,-109.19 3.95,-36.58 16.29,-64.65 21.91,-102.27 5.61,-37.61 4.5,-84.77 -4.49,-121.27 -8.98,-36.49 -25.82,-62.31 -38.18,-86.45 -12.35,-24.15 -20.21,-46.6 -18.19,-81.05 2.02,-34.45 13.93,-80.88 35.82,-99.97 21.9,-19.09 53.79,-10.84 80.96,-3.34 27.17,7.5 49.63,14.24 66.48,26.03z"/>
   <path class="fil25" d="M10662.96 9099.94c-15.72,15.72 -40.43,30.31 -60.64,41.54 -20.21,11.23 -35.93,19.09 -61.76,22.46 -25.82,3.36 -61.76,2.24 -87.02,-2.81 -25.27,-5.05 -39.86,-14.04 -42.66,-26.95 -2.81,-12.92 6.17,-29.75 31.44,-44.35 25.26,-14.6 66.8,-26.95 101.06,-35.37 34.24,-8.42 61.18,-12.92 84.77,-12.92 23.58,0 43.78,4.5 50.52,15.17 6.74,10.66 0.01,27.51 -15.71,43.23z"/>
   <path class="fil26" d="M13372.39 9379.53c14.6,8.98 24.7,16.84 40.98,19.66 16.28,2.8 38.74,0.55 51.09,-8.43 12.36,-8.98 14.6,-24.7 12.36,-42.1 -2.25,-17.41 -8.99,-36.5 -24.71,-56.71 -15.72,-20.21 -40.42,-41.54 -65.13,-53.33 -24.7,-11.79 -49.4,-14.04 -65.12,-9.55 -15.72,4.49 -22.46,15.72 -23.58,31.45 -1.12,15.72 3.37,35.92 7.86,51.64 4.49,15.72 8.98,26.95 20.77,37.62 11.79,10.67 30.88,20.77 45.48,29.75z"/>
  </g>
 </g>
</svg>
