<?xml version="1.0" encoding="UTF-8"?>
<!DOCTYPE svg PUBLIC "-//W3C//DTD SVG 1.1//EN" "http://www.w3.org/Graphics/SVG/1.1/DTD/svg11.dtd">
<!-- Creator: CorelDRAW 2018 (64-Bit) -->
<svg xmlns="http://www.w3.org/2000/svg" xml:space="preserve" width="210mm" height="297mm" version="1.1" style="shape-rendering:geometricPrecision; text-rendering:geometricPrecision; image-rendering:optimizeQuality; fill-rule:evenodd; clip-rule:evenodd"
viewBox="0 0 21000 29700"
 xmlns:xlink="http://www.w3.org/1999/xlink">
 <defs>
  <style type="text/css">
   <![CDATA[
    .fil3 {fill:#2B2A29}
    .fil8 {fill:#2E1F03}
    .fil5 {fill:#434242}
    .fil6 {fill:#523704}
    .fil10 {fill:#6A605E}
    .fil9 {fill:#6E4A06}
    .fil4 {fill:#727271}
    .fil11 {fill:#D6CCCA}
    .fil2 {fill:#D9DADA}
    .fil1 {fill:#EBECEC}
    .fil0 {fill:#FEFEFE}
    .fil7 {fill:#FEFEFE;fill-opacity:0.701961}
   ]]>
  </style>
 </defs>
 <g id="Слой_x0020_1">
  <metadata id="CorelCorpID_0Corel-Layer"/>
  <g id="_2752426349808">
   <path class="fil0" d="M9581.06 8132.97c144.05,-7.35 314.56,-27.92 479.19,-45.56 164.63,-17.64 323.38,-32.34 463.02,-35.28 139.64,-2.94 260.17,5.88 389.52,30.87 129.35,24.99 267.53,66.14 418.93,130.82 151.4,64.67 316.03,152.87 420.39,208.73 104.37,55.85 148.46,79.37 202.85,98.48 54.39,19.11 119.06,33.81 223.42,29.4 104.37,-4.41 248.42,-27.93 361.6,-16.17 113.19,11.76 195.5,58.79 323.38,144.05 127.89,85.25 301.34,208.73 439.51,286.64 138.17,77.9 241.07,110.23 320.44,141.1 79.38,30.87 135.23,60.27 173.45,95.55 38.22,35.28 58.8,76.43 110.24,127.88 51.45,51.45 133.77,113.18 202.85,180.8 69.09,67.62 124.94,141.11 149.93,242.54 24.99,101.42 19.11,230.78 -8.82,552.69 -27.93,321.91 -77.9,836.37 -196.97,1228.84 -119.06,392.47 -307.21,662.93 -488.01,796.7 -180.8,133.76 -354.24,130.82 -496.82,114.65 -142.58,-16.17 -254.3,-45.57 -304.28,-29.4 -49.97,16.17 -38.22,77.9 -27.93,166.1 10.29,88.19 19.11,202.85 1.47,410.11 -17.64,207.25 -61.73,507.12 -91.13,793.75 -29.4,286.63 -44.1,560.04 -51.45,793.75 -7.35,233.72 -7.35,427.74 26.46,624.71 33.81,196.97 101.42,396.88 174.92,582.09 73.5,185.21 152.87,355.72 224.9,520.35 72.03,164.63 136.7,323.38 183.74,489.48 47.04,166.1 76.43,339.55 127.88,561.5 51.45,221.96 124.94,492.43 195.49,754.07 70.56,261.64 138.18,514.47 205.79,801.1 67.62,286.63 135.23,607.08 179.33,884.89 44.1,277.82 64.68,513 57.33,859.9 -7.35,346.9 -42.63,805.51 -63.8,1074.64 -21.16,269.14 -28.22,348.8 -31.75,388.63 -3.52,39.83 -3.52,39.83 -7.77,41.87 -4.25,2.04 -12.74,6.12 -94.32,42.43 -81.58,36.31 -236.25,104.85 -372.53,161.76 -136.28,56.91 -254.19,102.19 -392.41,150.79 -138.21,48.61 -296.73,100.53 -453.35,147.12 -156.61,46.59 -311.3,87.84 -446.52,120.98 -135.22,33.14 -250.96,58.18 -378.57,82.57 -127.61,24.39 -267.09,48.15 -427.37,70.36 -160.27,22.21 -341.34,42.89 -518.6,57.88 -177.26,14.99 -350.72,24.3 -527.04,28.48 -176.31,4.18 -355.48,3.22 -558.83,-5.64 -203.35,-8.86 -430.87,-25.62 -621.93,-44.79 -191.06,-19.16 -345.66,-40.72 -538.5,-75.57 -192.84,-34.84 -423.92,-82.97 -612.31,-127.32 -188.38,-44.35 -334.08,-84.91 -485.85,-131.87 -151.77,-46.96 -309.63,-100.32 -512.08,-179.27 -202.45,-78.94 -449.5,-183.47 -678.49,-291.56 -228.99,-108.08 -439.93,-219.72 -556.22,-281.91 -116.3,-62.18 -137.96,-74.91 -148.79,-81.28 -10.83,-6.37 -10.83,-6.37 27.24,-102.13 38.06,-95.76 114.2,-287.27 196.37,-490.34 82.16,-203.06 170.35,-417.66 252.67,-610.22 82.32,-192.56 158.75,-363.07 207.26,-480.67 48.51,-117.59 69.08,-182.26 86.72,-263.11 17.64,-80.84 32.34,-177.86 55.86,-295.45 23.52,-117.59 55.85,-255.76 99.95,-354.25 44.1,-98.48 99.95,-157.27 136.7,-271.93 36.75,-114.65 54.39,-285.16 89.67,-486.54 35.28,-201.38 88.19,-433.62 148.46,-621.77 60.27,-188.15 127.88,-332.21 164.63,-452.74 36.75,-120.53 42.63,-217.55 70.56,-321.91 27.93,-104.36 77.9,-216.08 116.12,-304.28 38.22,-88.19 64.67,-152.86 76.43,-219.01 11.76,-66.14 8.82,-133.76 32.34,-189.62 23.52,-55.85 73.49,-99.95 92.6,-166.1 19.11,-66.14 7.36,-154.34 19.12,-241.07 11.76,-86.72 47.03,-171.97 89.66,-236.65 42.63,-64.68 92.6,-108.77 133.76,-151.4 41.16,-42.63 73.5,-83.78 120.53,-207.26 47.04,-123.47 108.78,-329.25 154.34,-458.61 45.57,-129.35 74.97,-182.26 104.37,-305.74 29.4,-123.47 58.79,-317.5 73.49,-449.8 14.7,-132.29 14.7,-202.84 8.82,-261.64 -5.88,-58.8 -17.63,-105.83 -38.21,-151.4 -20.58,-45.57 -49.98,-89.66 -66.15,-199.9 -16.17,-110.25 -19.11,-286.64 -1.47,-471.85 17.64,-185.21 55.85,-379.23 94.07,-551.21 38.22,-171.98 76.44,-321.92 86.73,-420.4 10.29,-98.49 -7.35,-145.52 -26.46,-196.97 -19.11,-51.45 -39.69,-107.3 -66.15,-205.78 -26.46,-98.49 -58.79,-239.6 -83.78,-342.49 -24.99,-102.9 -42.63,-167.57 -60.27,-182.27 -17.64,-14.7 -35.27,20.57 -42.62,70.55 -7.35,49.98 -4.41,114.65 -8.82,176.39 -4.41,61.74 -16.17,120.53 -42.63,176.39 -26.46,55.86 -67.61,108.77 -133.76,160.22 -66.15,51.45 -157.28,101.42 -238.13,127.88 -80.84,26.46 -151.4,29.4 -213.14,-13.22 -61.73,-42.63 -114.65,-130.83 -151.4,-199.91 -36.75,-69.09 -57.32,-119.07 -70.55,-182.27 -13.23,-63.21 -19.11,-139.65 -24.99,-291.05 -5.88,-151.4 -11.76,-377.76 26.46,-662.92 38.22,-285.17 120.53,-629.13 217.54,-893.71 97.02,-264.59 208.74,-449.8 367.49,-620.31 158.75,-170.51 364.53,-326.32 523.28,-430.68 158.75,-104.37 270.47,-157.28 361.6,-199.91 91.14,-42.63 161.69,-74.96 226.36,-105.83 64.68,-30.87 123.48,-60.27 199.91,-80.85 76.44,-20.58 170.51,-32.34 276.34,-35.28 105.84,-2.94 223.44,2.94 367.49,-4.41z"/>
   <path class="fil1" d="M10711.37 8295.9c-77.91,76.68 -171.99,161.94 -255.78,244.26 -83.78,82.31 -157.27,161.68 -220.48,248.41 -63.21,86.72 -116.12,180.8 -164.63,257.24 -48.51,76.43 -92.6,135.22 -102.89,110.24 -10.29,-24.99 13.22,-133.77 63.2,-263.12 49.98,-129.35 126.41,-279.28 202.85,-392.46 76.44,-113.19 152.87,-189.62 220.49,-246.95 67.62,-57.33 126.41,-95.54 201.38,-120.77 74.98,-25.24 166.13,-37.5 180.83,-9.57 14.7,27.93 -47.06,96.04 -124.97,172.72z"/>
   <path class="fil1" d="M11627.12 9774.87c-17.64,5.88 -97.01,-52.91 -182.27,-88.19 -85.25,-35.28 -176.39,-47.04 -208.73,-27.93 -32.33,19.11 -5.88,69.08 52.92,107.3 58.8,38.22 149.93,64.68 210.2,92.61 60.27,27.93 89.66,57.32 77.9,66.14 -11.76,8.82 -64.67,-2.94 -141.11,-20.58 -76.43,-17.64 -176.39,-41.15 -260.18,-57.32 -83.78,-16.17 -151.39,-24.99 -226.36,85.26 -74.96,110.24 -157.28,339.54 -211.67,492.41 -54.38,152.87 -80.84,229.31 -127.88,279.29 -47.04,49.97 -114.65,73.49 -158.75,72.02 -44.1,-1.47 -64.67,-27.93 -63.2,-82.31 1.47,-54.39 24.98,-136.71 76.43,-219.02 51.45,-82.32 130.82,-164.63 152.87,-246.94 22.05,-82.32 -13.22,-164.64 -52.91,-214.61 -39.69,-49.98 -83.79,-67.62 -85.26,-111.71 -1.47,-44.1 39.69,-114.66 86.73,-148.46 47.04,-33.81 99.95,-30.87 169.03,-22.05 69.09,8.82 154.35,23.51 221.96,22.04 67.62,-1.47 117.59,-19.1 130.82,-69.08 13.23,-49.98 -10.28,-132.29 10.29,-180.8 20.58,-48.51 85.26,-63.2 169.04,-36.74 83.78,26.45 186.68,94.07 260.17,163.16 73.5,69.08 117.6,139.63 99.96,145.51z"/>
   <path class="fil1" d="M11359.58 11009.63c85.26,-17.64 202.86,-55.86 282.23,-111.71 79.38,-55.86 120.53,-129.36 138.17,-269 17.64,-139.64 11.76,-345.42 27.93,-392.46 16.17,-47.04 54.39,64.68 73.5,182.27 19.11,117.59 19.11,241.06 -14.7,357.18 -33.81,116.12 -101.42,224.9 -185.21,324.85 -83.78,99.95 -183.74,191.09 -245.48,251.36 -61.73,60.26 -85.25,89.66 -67.61,102.89 17.64,13.23 76.43,10.29 155.8,-19.11 79.38,-29.4 179.34,-85.25 277.82,-149.93 98.48,-64.68 195.5,-138.17 277.81,-130.82 82.32,7.35 149.93,95.54 195.5,195.5 45.57,99.95 69.09,211.66 74.97,336.6 5.88,124.94 -5.88,263.12 -41.16,383.65 -35.28,120.53 -94.07,223.43 -122,335.14 -27.93,111.71 -24.99,232.25 -11.76,317.51 13.23,85.25 36.75,135.22 44.1,223.42 7.35,88.19 -1.47,214.6 10.29,323.37 11.76,108.77 44.09,199.91 42.62,367.48 -1.47,167.57 -36.74,411.57 -89.66,632.06 -52.92,220.49 -123.47,417.45 -223.43,530.63 -99.95,113.19 -229.3,142.58 -361.59,183.74 -132.29,41.16 -267.53,94.07 -330.74,67.61 -63.2,-26.45 -54.38,-132.29 -36.74,-257.23 17.64,-124.94 44.09,-268.99 20.57,-374.83 -23.51,-105.83 -97.01,-173.44 -171.98,-258.7 -74.96,-85.25 -151.39,-188.15 -180.79,-305.74 -29.4,-117.59 -11.76,-249.88 72.02,-370.41 83.79,-120.53 233.72,-229.31 327.79,-361.6 94.08,-132.29 132.29,-288.1 160.22,-461.55 27.93,-173.45 45.57,-364.53 19.11,-530.63 -26.46,-166.1 -97.01,-307.22 -145.52,-385.12 -48.51,-77.91 -74.96,-92.6 -114.65,-79.37 -39.69,13.23 -92.6,54.38 -136.7,45.56 -44.1,-8.82 -79.37,-67.61 -83.78,-167.56 -4.41,-99.96 22.04,-241.07 20.57,-329.26 -1.47,-88.2 -30.86,-123.48 -10.29,-147 20.58,-23.52 91.14,-35.27 152.87,-39.68 61.74,-4.41 114.65,-1.47 199.9,-19.11z"/>
   <path class="fil1" d="M13882.58 20953.23c-63.02,-249.71 -197.93,-614.9 -306.54,-818.08 -108.61,-203.17 -190.93,-244.32 -334.98,-188.47 -144.05,55.86 -349.83,208.73 -617.36,311.62 -267.52,102.9 -596.78,155.81 -943.68,117.59 -346.9,-38.21 -711.44,-167.57 -1073.04,-155.81 -361.6,11.76 -720.25,164.63 -1099.49,305.74 -379.24,141.11 -779.05,270.47 -1128.89,293.98 -349.84,23.52 -649.7,-58.79 -937.8,94.08 -288.1,152.87 -564.45,540.92 -704.88,814.64 -140.42,273.72 -144.92,433.1 -147.18,512.79 -2.25,79.69 -2.25,79.69 97.09,118.78 99.34,39.1 298.01,117.28 553.95,201.25 255.95,83.98 569.16,173.74 884.89,243.67 315.73,69.94 633.97,120.06 865.32,150.91 231.35,30.86 375.81,42.45 616.55,49.15 240.75,6.71 577.8,8.51 930.73,-11.84 352.94,-20.34 721.77,-62.84 1060.83,-121.18 339.06,-58.34 648.36,-132.53 911.45,-206.22 263.1,-73.68 480,-146.86 700.06,-237.53 220.07,-90.66 443.29,-198.79 554.9,-252.86 111.62,-54.07 111.62,-54.07 120.24,-162.4 8.62,-108.32 25.87,-324.98 38.92,-500.42 13.06,-175.44 21.93,-309.68 -41.09,-559.39z"/>
   <path class="fil1" d="M12547.19 17319.92c-14.69,229.31 -114.65,552.69 -282.22,773.17 -167.57,220.49 -402.75,338.09 -614.42,502.72 -211.67,164.63 -399.82,376.29 -502.72,452.72 -102.89,76.44 -120.52,17.65 -117.58,-179.32 2.94,-196.97 26.45,-532.1 41.15,-787.87 14.7,-255.76 20.58,-432.15 0,-614.42 -20.58,-182.27 -67.61,-370.42 -99.95,-567.39 -32.34,-196.97 -49.98,-402.75 -164.64,-485.07 -114.65,-82.31 -326.31,-41.16 -411.57,32.33 -85.25,73.5 -44.1,179.34 11.76,361.61 55.86,182.27 126.41,440.97 176.39,635 49.98,194.03 79.38,323.38 61.74,370.41 -17.64,47.04 -82.31,11.77 -144.05,-144.04 -61.74,-155.81 -120.53,-432.16 -161.69,-596.79 -41.16,-164.63 -64.68,-217.54 -94.08,-164.63 -29.4,52.92 -64.67,211.67 -120.53,364.54 -55.86,152.87 -132.29,299.86 -173.45,308.68 -41.16,8.82 -47.04,-120.53 -47.04,-311.62 0,-191.09 5.88,-443.91 73.49,-690.86 67.62,-246.94 196.98,-488.01 440.98,-652.64 244.01,-164.63 602.66,-252.82 873.12,-311.62 270.47,-58.8 452.74,-88.19 552.69,14.7 99.96,102.9 117.6,338.08 199.91,558.57 82.32,220.49 229.31,426.27 338.08,596.78 108.78,170.51 179.33,305.74 164.63,535.04z"/>
   <path class="fil2" d="M9297.19 14211.06c51.45,95.55 92.6,236.66 149.93,379.24 57.33,142.58 130.82,286.63 221.95,396.87 91.14,110.25 199.91,186.68 335.14,236.66 135.23,49.98 296.92,73.49 463.02,91.13 166.1,17.64 336.61,29.4 471.84,20.58 135.23,-8.82 235.19,-38.21 354.25,-77.9 119.06,-39.69 257.24,-89.66 364.54,-149.93 107.3,-60.27 183.74,-130.82 217.54,-202.85 33.81,-72.03 25,-145.52 -13.22,-170.51 -38.22,-24.99 -105.83,-1.47 -217.66,29.67 -111.82,31.14 -267.84,69.89 -340.83,13.79 -72.99,-56.1 -62.93,-207.05 -95.51,-336.4 -32.58,-129.35 -107.8,-237.09 -166.6,-331.17 -58.79,-94.07 -101.16,-174.47 -153.73,-249.71 -52.57,-75.24 -115.32,-145.31 -186.39,-181.82 -71.07,-36.5 -150.44,-39.44 -257.75,-33.56 -107.3,5.88 -242.53,20.58 -339.55,0 -97.01,-20.58 -155.8,-76.43 -211.66,-139.64 -55.86,-63.21 -108.77,-133.76 -183.74,-198.44 -74.96,-64.68 -171.98,-123.47 -342.49,-176.39 -170.51,-52.92 -414.51,-99.95 -583.55,-161.68 -169.04,-61.74 -263.12,-138.18 -327.8,-163.16 -64.67,-24.99 -99.94,1.46 -172.75,66.34 -72.8,64.88 -183.14,168.19 -249.29,269.61 -66.14,101.42 -88.1,200.97 -75.53,295.82 12.57,94.84 59.66,185 133.16,237.91 73.5,52.92 173.39,68.6 235.1,124.94 61.71,56.35 85.22,153.37 127.85,222.45 42.63,69.09 104.36,110.25 173.45,92.61 69.09,-17.64 145.52,-94.07 205.79,-144.05 60.27,-49.98 104.36,-73.49 149.93,-61.73 45.57,11.76 92.6,58.79 146.99,107.3 54.39,48.51 116.12,98.48 167.57,194.02z"/>
   <path class="fil3" d="M7392.18 10162.93c48.51,-7.35 113.19,-13.23 154.34,-63.2 41.16,-49.98 58.8,-144.06 80.85,-227.84 22.05,-83.79 48.51,-157.28 82.32,-207.26 33.81,-49.98 74.96,-76.44 89.66,-133.76 14.7,-57.33 2.94,-145.53 24.99,-204.32 22.05,-58.8 77.9,-88.19 105.83,-136.7 27.93,-48.51 27.93,-116.12 54.39,-189.61 26.46,-73.5 79.37,-152.88 132.29,-220.49 52.92,-67.62 105.83,-123.47 153.34,-182.8 47.51,-59.34 89.62,-122.14 110.67,-153.54 21.05,-31.41 21.05,-31.41 -70.56,-2.94 -91.6,28.46 -274.82,85.38 -400.24,141.78 -125.41,56.39 -193.02,112.24 -259.17,175.45 -66.15,63.2 -130.82,133.76 -207.26,205.79 -76.43,72.02 -164.63,145.51 -244.01,207.25 -79.37,61.74 -149.92,111.71 -211.66,176.39 -61.74,64.67 -114.65,144.05 -157.28,207.26 -42.63,63.2 -74.96,110.24 -91.13,163.16 -16.17,52.91 -16.17,111.71 -4.41,166.1 11.76,54.38 35.27,104.35 44.09,174.91 8.82,70.56 2.94,161.69 10.29,248.42 7.35,86.72 27.93,169.04 39.69,255.76 11.76,86.72 14.7,177.86 27.93,244.01 13.23,66.14 36.74,107.3 65.06,172.03 28.33,64.72 61.47,153.01 79.94,224.77 18.48,71.76 22.31,127 26.1,166.64 3.8,39.64 7.57,63.68 43.48,28.67 35.91,-35.02 103.95,-129.09 145.32,-226.1 41.38,-97.02 56.08,-196.98 66.37,-295.46 10.29,-98.48 16.17,-195.5 14.7,-279.28 -1.47,-83.79 -10.29,-154.34 -14.7,-220.49 -4.41,-66.15 -4.41,-127.88 11.76,-163.16 16.17,-35.28 48.51,-44.09 97.01,-51.44z"/>
   <path class="fil3" d="M7395.12 11609.31c30.87,48.51 54.39,98.48 106.11,118.08 51.72,19.6 131.65,8.83 166.92,-36.74 35.28,-45.57 25.92,-125.92 53.15,-166.98 27.23,-41.06 91.05,-42.83 122.96,-43.71 31.92,-0.88 31.92,-0.88 22.05,42.63 -9.86,43.51 -29.59,130.53 -65.92,207.85 -36.32,77.31 -89.23,144.93 -165.67,212.55 -76.43,67.61 -176.39,135.22 -248.42,173.44 -72.02,38.22 -116.11,47.04 -176.38,32.34 -60.27,-14.7 -136.7,-52.91 -182.27,-83.78 -45.57,-30.87 -60.27,-54.39 -73.5,-86.73 -13.23,-32.34 -24.99,-73.49 -22.05,-132.29 2.94,-58.8 20.58,-135.23 45.67,-187.22 25.09,-51.99 57.64,-79.53 74.54,-118.77 16.9,-39.24 18.15,-90.18 54.79,-104.34 36.65,-14.16 108.69,8.47 163.81,43.3 55.13,34.83 93.34,81.86 124.21,130.37z"/>
   <path class="fil3" d="M8269.72 9507.37c61.74,-101.43 144.05,-239.6 242.53,-395.41 98.49,-155.81 213.15,-329.26 311.63,-464.49 98.48,-135.24 180.8,-232.25 238.12,-296.93 57.33,-64.68 89.67,-97.01 110.76,-127.15 21.1,-30.14 30.96,-58.07 23.7,-71.44 -7.25,-13.38 -31.62,-12.19 -77.68,-6.31 -46.05,5.88 -113.8,16.45 -181,35.21 -67.19,18.76 -133.82,45.71 -194.54,72.01 -60.71,26.29 -115.5,51.93 -180.7,127.39 -65.19,75.46 -140.78,200.73 -215.33,311.88 -74.55,111.14 -148.04,208.16 -217.38,288.76 -69.33,80.59 -134.49,144.78 -168.3,230.04 -33.81,85.25 -36.26,191.57 -52.19,293.25 -15.92,101.67 -45.31,198.68 -70.3,283.94 -24.99,85.25 -45.57,158.75 -54.39,251.35 -8.82,92.6 -5.88,204.32 4.41,305.75 10.29,101.42 27.93,192.55 48.51,261.64 20.58,69.09 44.09,116.12 54.65,213.38 10.57,97.25 8.18,244.73 6.05,333.15 -2.13,88.42 -4.01,117.79 9.15,120.8 13.17,3.01 41.38,-20.33 56.74,-146.97 15.36,-126.64 17.88,-356.58 44.13,-490.65 26.25,-134.08 76.22,-172.29 98.27,-241.37 22.05,-69.09 16.17,-169.05 11.76,-267.53 -4.41,-98.49 -7.35,-195.5 -5.88,-260.18 1.47,-64.68 7.35,-97.01 30.87,-145.52 23.52,-48.51 64.67,-113.18 126.41,-214.6z"/>
   <path class="fil3" d="M8867.98 10104.15c1.47,145.52 4.41,348.37 2.94,455.68 -1.47,107.3 -7.35,119.05 -29.4,113.17 -22.05,-5.88 -60.27,-29.39 -83.79,-51.44 -23.52,-22.05 -32.33,-42.63 -44.09,-49.98 -11.76,-7.35 -26.46,-1.47 -36.75,19.11 -10.29,20.58 -16.17,55.85 -24.99,82.31 -8.82,26.46 -20.58,44.1 -54.39,51.45 -33.81,7.35 -89.66,4.41 -136.7,-2.94 -47.04,-7.35 -85.25,-19.11 -113.18,-60.26 -27.93,-41.16 -45.57,-111.72 -81.38,-183.14 -35.81,-71.42 -89.8,-143.7 -88.33,-215.73 1.47,-72.03 58.4,-143.79 114.79,-198.78 56.39,-55 112.24,-93.21 160.75,-147.6 48.51,-54.39 89.66,-124.94 139.64,-164.63 49.98,-39.69 108.77,-48.51 155.81,-38.22 47.04,10.29 82.32,39.69 99.96,98.49 17.64,58.79 17.64,146.99 19.11,292.51z"/>
   <path class="fil3" d="M11149.98 10902.34c56.6,-17.64 112.45,-44.09 170.51,-61.73 58.07,-17.64 118.33,-26.46 170.51,-25.72 52.19,0.73 96.28,11.01 136.66,6.77 40.38,-4.24 77.05,-23.02 103.73,-83.17 26.68,-60.16 43.39,-161.71 30.93,-261.09 -12.45,-99.39 -54.05,-196.61 -93.23,-268.74 -39.18,-72.14 -75.93,-119.17 -142.08,-165.47 -66.14,-46.31 -161.69,-91.88 -250.62,-116.87 -88.93,-24.99 -171.24,-29.39 -231.51,-35.27 -60.27,-5.88 -98.48,-13.23 -144.79,4.41 -46.3,17.64 -100.68,60.26 -134.49,130.82 -33.81,70.55 -47.04,169.04 -64.68,251.36 -17.64,82.31 -39.68,148.45 -55.58,216.8 -15.9,68.34 -25.65,138.88 -27.86,199.88 -2.2,61 3.14,112.46 35.94,144.81 32.81,32.34 93.07,45.57 151.87,58.8 58.8,13.23 116.12,26.46 173.45,28.67 57.33,2.2 114.65,-6.62 171.24,-24.26z"/>
   <path class="fil3" d="M12179.61 9160.53c64.68,113.18 170.52,310.14 235.19,486.53 64.68,176.39 88.2,332.2 105.84,449.8 17.64,117.59 29.4,196.96 38.22,254.29 8.82,57.33 14.69,92.6 41.15,74.96 26.46,-17.64 73.5,-88.19 101.43,-85.25 27.93,2.94 36.74,79.37 48.5,132.29 11.76,52.92 26.46,82.31 36.75,39.69 10.29,-42.63 16.17,-157.29 39.69,-244.01 23.52,-86.72 64.67,-145.52 89.66,-196.96 24.99,-51.45 33.81,-95.55 49.98,-144.06 16.17,-48.51 39.69,-101.42 88.19,-122 48.51,-20.58 122.01,-8.82 173.45,-4.41 51.45,4.41 80.85,1.47 98.49,-32.34 17.64,-33.81 23.52,-98.48 35.28,-141.11 11.76,-42.63 29.39,-63.2 54.38,-102.89 24.99,-39.69 57.33,-98.48 74.37,-178.61 17.05,-80.13 18.8,-181.58 19.17,-232.51 0.38,-50.93 -0.62,-51.32 -18.53,-59.04 -17.9,-7.73 -52.71,-22.79 -100.1,-46.86 -47.39,-24.08 -107.36,-57.18 -173.84,-97.71 -66.47,-40.53 -139.44,-88.48 -199.45,-128.39 -60,-39.91 -107.04,-71.77 -156.06,-103.15 -49.01,-31.38 -100.01,-62.27 -153.91,-86.28 -53.89,-24.01 -110.69,-41.13 -157.33,-50.1 -46.63,-8.98 -83.11,-9.81 -143.38,-7.11 -60.26,2.69 -144.32,8.91 -205.22,11.43 -60.9,2.52 -98.65,1.34 -145.36,-7.41 -46.71,-8.75 -102.38,-25.08 -137.92,-37.01 -35.54,-11.93 -50.95,-19.47 -41.48,-15.62 9.48,3.85 43.83,19.1 79.83,62.01 36.01,42.91 73.66,113.5 92.48,191.42 18.83,77.91 18.83,163.17 30.59,220.5 11.76,57.32 35.27,86.72 99.94,199.91z"/>
   <path class="fil3" d="M13763.81 9297.86c-45.21,8.2 -114.29,12.61 -152.51,43.48 -38.22,30.87 -45.57,88.19 -45.57,141.11 0,52.92 7.35,101.42 14.7,139.64 7.35,38.22 14.7,66.14 34.54,80.11 19.85,13.96 52.19,13.96 86.73,12.49 34.55,-1.47 71.29,-4.41 105.1,-19.11 33.81,-14.7 64.67,-41.15 94.07,-74.22 29.4,-33.08 57.33,-72.76 71.81,-110.24 14.48,-37.48 15.5,-72.76 2.31,-102.66 -13.18,-29.91 -40.59,-54.44 -63.51,-77.35 -22.91,-22.91 -41.34,-44.18 -61.23,-48.82 -19.88,-4.64 -41.22,7.36 -86.44,15.57z"/>
   <path class="fil3" d="M13416.53 10199.04c-2.2,41.89 -0.73,108.03 -14.7,161.69 -13.96,53.65 -43.35,94.8 -76.43,115.38 -33.07,20.58 -69.82,20.58 -94.81,9.56 -24.99,-11.03 -38.21,-33.08 -52.18,-63.21 -13.96,-30.14 -28.66,-68.35 -43.36,-112.45 -14.7,-44.1 -29.4,-94.07 -30.14,-135.96 -0.73,-41.9 12.5,-75.71 53.66,-97.76 41.16,-22.05 110.24,-32.33 160.22,-22.77 49.98,9.55 80.84,38.94 93.33,62.46 12.5,23.52 6.62,41.16 4.41,83.06z"/>
   <path class="fil3" d="M14854.82 10609.89c-36.75,69.08 -86.72,163.16 -158.75,304.27 -72.02,141.11 -166.1,329.25 -268.99,520.34 -102.89,191.09 -214.61,385.12 -310.16,536.52 -95.54,151.4 -174.91,260.18 -280.75,368.95 -105.83,108.77 -238.12,217.54 -363.06,288.1 -124.94,70.55 -242.54,102.89 -338.08,117.59 -95.54,14.7 -169.04,11.76 -254.3,-26.46 -85.25,-38.22 -182.26,-111.71 -236.65,-158.75 -54.39,-47.04 -66.14,-67.61 -66.14,-20.57 0,47.03 11.75,161.68 -7.36,276.33 -19.11,114.65 -69.08,229.31 -105.83,320.45 -36.75,91.13 -60.26,158.74 -82.31,98.48 -22.05,-60.27 -42.63,-248.41 -63.21,-371.88 -20.58,-123.48 -41.15,-182.27 -42.62,-248.42 -1.47,-66.15 16.16,-139.64 47.03,-217.54 30.87,-77.91 74.96,-160.23 97.01,-252.83 22.05,-92.6 22.05,-195.5 3.09,-302.08 -18.96,-106.58 -56.88,-216.85 -65.7,-285.93 -8.82,-69.09 11.47,-97 30.43,-128.59 18.96,-31.59 36.59,-66.86 48.35,-119.78 11.76,-52.92 17.64,-123.47 42.63,-161.69 24.99,-38.22 69.08,-44.1 122,-52.92 52.92,-8.82 114.65,-20.57 146.99,7.36 32.34,27.92 35.28,95.54 30.87,170.51 -4.41,74.96 -16.17,157.27 -24.99,229.3 -8.82,72.03 -14.69,133.76 -16.16,198.44 -1.47,64.67 1.46,132.29 23.51,164.63 22.05,32.33 63.21,29.39 98.49,23.51 35.28,-5.88 64.67,-14.69 92.6,25 27.93,39.68 54.39,127.88 73.54,224.88 19.16,96.99 31.01,202.79 45.71,242.48 14.7,39.68 32.24,13.26 60.12,-17.59 27.89,-30.86 66.1,-66.13 86.68,-114.64 20.58,-48.51 23.52,-110.24 39.69,-135.23 16.17,-24.99 45.57,-13.23 69.09,-13.23 23.52,0 41.15,-11.76 61.73,-36.75 20.58,-24.99 44.1,-63.2 88.2,-49.97 44.1,13.23 108.77,77.9 146.99,64.67 38.22,-13.23 49.98,-104.36 54.39,-188.14 4.41,-83.79 1.47,-160.23 17.64,-213.14 16.17,-52.92 51.44,-82.32 97.01,-99.96 45.57,-17.64 101.42,-23.51 139.64,-58.79 38.22,-35.28 58.8,-99.95 61.74,-182.26 2.94,-82.32 -11.76,-182.28 -30.87,-266.06 -19.11,-83.79 -42.63,-151.4 -76.44,-211.67 -33.81,-60.27 -77.9,-113.18 -110.24,-179.32 -32.34,-66.15 -52.92,-145.53 -52.92,-192.56 0,-47.04 20.58,-61.74 36.75,-101.43 16.17,-39.69 27.93,-104.36 30.87,-173.44 2.94,-69.09 -2.94,-142.59 41.15,-196.97 44.1,-54.39 138.18,-89.67 182.27,-130.83 44.1,-41.16 38.22,-88.19 55.58,-140.32 17.37,-52.13 57.98,-109.34 68.31,-148.8 10.34,-39.47 -9.6,-61.17 30.36,-36.97 39.96,24.19 139.83,94.3 251.49,185.21 111.67,90.9 235.15,202.62 307.17,302.57 72.03,99.95 92.6,188.15 119.06,254.3 26.46,66.14 58.8,110.24 63.21,154.34 4.41,44.1 -19.11,88.19 -55.86,157.28z"/>
   <path class="fil3" d="M12712.43 10712.78c-2.2,69.08 -12.49,169.04 -36.01,219.75 -23.52,50.71 -60.27,52.18 -87.47,41.16 -27.19,-11.03 -44.82,-34.55 -59.52,-29.4 -14.7,5.14 -26.46,38.95 -34.3,77.42 -7.84,38.46 -11.76,81.57 -18.23,116.31 -6.47,34.74 -15.48,61.11 -18.67,32.2 -3.18,-28.91 -0.54,-113.09 7.4,-263.22 7.94,-150.13 21.17,-366.2 27.91,-532.85 6.74,-166.65 7,-283.86 5.79,-349.61 -1.21,-65.75 -3.88,-80.04 7.31,-8.65 11.19,71.39 36.23,228.45 49.2,339.03 12.97,110.58 13.86,174.69 20.92,211.15 7.06,36.46 20.28,45.28 42.33,40.87 22.05,-4.41 52.92,-22.04 71.29,-11.75 18.38,10.29 24.26,48.5 22.05,117.59z"/>
   <path class="fil3" d="M8716.42 11449.97c11.76,-37.49 19.11,-78.64 52.18,-130.09 33.08,-51.45 91.87,-113.18 125.68,-149.93 33.81,-36.75 42.63,-48.51 18.37,-46.3 -24.25,2.2 -81.57,18.37 -152.86,88.93 -71.29,70.55 -156.55,195.5 -216.08,284.43 -59.53,88.93 -93.34,141.84 -88.93,156.54 4.41,14.7 47.03,-8.82 89.66,-31.6 42.63,-22.79 85.26,-44.84 114.66,-72.77 29.4,-27.93 45.56,-61.73 57.32,-99.21z"/>
   <path class="fil3" d="M9823.26 11808.65c49.98,50.71 95.55,125.67 119.07,180.8 23.52,55.12 24.99,90.39 47.77,91.13 22.79,0.73 66.88,-33.07 94.07,-90.4 27.2,-57.33 37.49,-138.17 33.81,-206.52 -3.67,-68.36 -21.31,-124.21 -51.45,-188.88 -30.13,-64.68 -72.75,-138.18 -108.03,-188.89 -35.28,-50.71 -63.21,-78.64 -89.67,-90.4 -26.46,-11.76 -51.44,-7.35 -77.17,11.76 -25.72,19.11 -52.18,52.92 -72.76,94.08 -20.58,41.16 -35.28,89.66 -48.51,126.41 -13.23,36.75 -24.98,61.73 -25.72,85.99 -0.73,24.25 9.55,47.77 41.89,72.76 32.34,24.99 86.72,51.44 136.7,102.16z"/>
   <path class="fil3" d="M8338.46 11859.43c41.29,-62.69 101.52,-138.55 175.75,-181.18 74.23,-42.63 162.46,-52.02 274.19,-50.83 111.73,1.18 246.97,12.94 360.15,32.05 113.18,19.11 204.32,45.56 273.4,73.49 69.09,27.93 116.12,57.33 166.1,92.61 49.98,35.28 102.89,76.43 148.46,130.82 45.57,54.39 83.79,122 97.02,195.5 13.23,73.49 1.47,152.87 -26.46,230.78 -27.93,77.9 -72.02,154.33 -102.89,205.78 -30.87,51.45 -48.51,77.91 -66.15,101.43 -17.64,23.52 -35.28,44.09 -124.95,85.25 -89.66,41.16 -251.35,102.89 -392.65,135.7 -141.3,32.8 -262.22,36.68 -369.74,14.36 -107.52,-22.32 -201.64,-70.84 -280.83,-158.03 -79.18,-87.19 -143.43,-213.06 -177.17,-343.85 -33.74,-130.79 -36.98,-266.5 -27.43,-359.1 9.56,-92.61 31.91,-142.1 73.2,-204.78z"/>
   <path class="fil3" d="M11701.06 12605.75c-27.14,8.47 -54.97,22.46 -43.21,54.8 11.76,32.34 63.11,83.02 68.2,136.29 5.09,53.27 -36.07,109.12 -81.64,150.28 -45.57,41.16 -95.54,67.62 -154.04,94.54 -58.49,26.92 -125.51,54.31 -143.15,77.83 -17.63,23.51 14.1,43.17 88.76,33.89 74.67,-9.29 192.27,-47.51 271.64,-62.21 79.38,-14.7 120.53,-5.88 139.64,41.16 19.11,47.04 16.17,132.29 -35.28,236.66 -51.44,104.36 -151.4,227.83 -232.25,295.44 -80.84,67.62 -142.57,79.38 -185.2,45.57 -42.63,-33.8 -66.14,-113.18 -101.42,-130.82 -35.28,-17.63 -82.32,26.46 -130.83,41.16 -48.51,14.7 -98.48,0 -114.28,-46.71 -15.8,-46.71 2.59,-125.42 42.43,-196.26 39.85,-70.85 101.15,-133.83 139.3,-174.85 38.15,-41.02 53.13,-60.1 50.03,-120.07 -3.09,-59.98 -24.27,-160.86 23.93,-270.09 48.21,-109.24 165.81,-226.84 252.53,-285.63 86.73,-58.8 142.58,-58.8 174.92,-38.22 32.34,20.58 41.16,61.73 32.34,83.78 -8.82,22.05 -35.28,24.99 -62.42,33.46z"/>
   <path class="fil4" d="M8409.19 13542.04c70.5,-59.86 146.93,-112.77 239.53,-142.17 92.61,-29.4 201.39,-35.28 308.69,-8.82 107.3,26.46 213.14,85.25 333.67,152.86 120.53,67.62 255.77,144.06 402.76,227.84 146.99,83.79 305.74,174.92 424.8,220.49 119.06,45.57 198.44,45.57 320.02,16.02 121.59,-29.54 285.39,-88.64 345.65,-142.32 60.27,-53.67 17.01,-101.92 -61.95,-116.48 -78.96,-14.55 -193.62,4.61 -340.61,-0.52 -146.99,-5.12 -326.31,-34.51 -455.67,-75.67 -129.35,-41.16 -208.72,-94.07 -235.18,-177.85 -26.46,-83.79 0,-198.45 17.64,-283.7 17.64,-85.26 26.45,-141.11 13.23,-223.18 -13.22,-82.08 -48.48,-190.37 -86.94,-230.3 -38.45,-39.94 -80.1,-11.53 -133.14,15.47 -53.03,27 -117.46,52.57 -225.92,81.76 -108.46,29.19 -260.95,61.98 -381.38,64.87 -120.42,2.89 -208.76,-24.13 -274.17,-54.64 -65.41,-30.52 -107.89,-64.53 -131.41,-49.09 -23.51,15.44 -28.08,80.33 -24.48,134.83 3.6,54.49 15.36,98.58 6.54,126.51 -8.82,27.93 -38.22,39.69 -101.43,67.62 -63.2,27.93 -160.22,72.02 -227.77,135.93 -67.54,63.91 -105.63,147.64 -109.25,216.61 -3.61,68.97 27.24,123.19 62.51,160.29 35.27,37.11 74.97,57.11 127.09,33.7 52.12,-23.4 116.68,-90.2 187.17,-150.06z"/>
   <path class="fil3" d="M8581.09 13360.95c83.79,-28.67 195.51,-46.31 307.95,-31.61 112.45,14.7 225.64,61.74 324.12,108.05 98.48,46.3 182.27,91.86 294.75,166.98 112.49,75.13 253.68,179.8 324.27,232.14 70.6,52.34 70.6,52.34 29.4,13.96 -41.19,-38.37 -123.58,-115.12 -203.65,-199.33 -80.07,-84.21 -157.82,-175.88 -241.61,-242.02 -83.78,-66.15 -173.6,-106.78 -255.26,-138.85 -81.66,-32.07 -155.15,-55.58 -236,-62.93 -80.84,-7.35 -169.04,1.47 -254.3,23.52 -85.25,22.05 -167.56,57.32 -246.94,95.54 -79.38,38.22 -155.81,79.37 -218.16,122.92 -62.34,43.55 -110.6,89.48 -117.05,131.35 -6.45,41.88 28.91,79.69 50.83,83.18 21.92,3.49 30.41,-27.34 69.2,-65.54 38.79,-38.2 107.87,-83.76 170.34,-126.39 62.48,-42.63 118.33,-82.31 202.11,-110.97z"/>
   <path class="fil5" d="M8716.29 12068.17c120.54,2.94 298.4,2.94 443.18,18.38 144.79,15.43 256.51,46.29 343.96,93.33 87.46,47.04 150.67,110.24 189.62,152.14 38.95,41.89 53.65,62.47 73.83,35.96 20.19,-26.52 45.87,-100.14 53.85,-157.2 7.98,-57.07 -1.73,-97.59 -30.37,-148.94 -28.63,-51.36 -76.19,-113.54 -126.43,-163.3 -50.23,-49.77 -103.14,-87.12 -166.37,-119.97 -63.23,-32.85 -136.79,-61.21 -213.26,-82.69 -76.46,-21.48 -155.84,-36.09 -262.45,-45.12 -106.6,-9.04 -240.43,-12.5 -341.03,1.57 -100.59,14.07 -167.96,45.67 -217.02,79.49 -49.06,33.81 -79.82,69.84 -108.58,116.84 -28.76,46.99 -55.53,104.95 -70.43,172.83 -14.9,67.87 -17.94,145.65 -14.65,214.27 3.3,68.62 12.92,128.09 29.16,188.22 16.24,60.12 39.08,120.91 92.78,156.29 53.7,35.37 138.24,45.32 206.97,37.81 68.74,-7.52 121.65,-32.5 145.17,-62.63 23.52,-30.14 17.64,-65.42 -7.35,-76.44 -24.99,-11.03 -69.08,2.2 -117.59,2.2 -48.51,0 -101.42,-13.23 -144.79,-31.6 -43.36,-18.38 -77.16,-41.89 -101.42,-67.61 -24.25,-25.73 -38.95,-53.66 -44.83,-92.61 -5.88,-38.96 -2.94,-88.93 22.05,-130.09 24.99,-41.16 72.02,-73.49 127.14,-86.72 55.13,-13.23 118.33,-7.35 238.86,-4.41z"/>
   <path class="fil5" d="M9449.04 12578.23c-55.12,4.41 -118.32,8.82 -155.81,23.52 -37.48,14.7 -49.24,39.68 -16.17,56.59 33.08,16.9 110.98,25.72 169.78,28.66 58.8,2.94 98.48,0 138.18,-17.4 39.71,-17.41 79.44,-49.28 108.7,-81.95 29.26,-32.68 48.06,-66.15 51.78,-103.02 3.72,-36.87 -7.64,-77.12 -18.9,-103.12 -11.25,-26 -22.4,-37.75 -23.2,-26.84 -0.8,10.91 8.76,44.48 6.18,80.37 -2.57,35.89 -17.26,74.1 -37.84,96.15 -20.58,22.05 -47.04,27.93 -83.79,33.08 -36.75,5.14 -83.78,9.55 -138.91,13.96z"/>
   <path class="fil3" d="M10458.11 14634.67c-33.81,-60.27 -63.21,-127.88 -86.73,-192.56 -23.52,-64.68 -41.15,-126.41 -77.9,-132.29 -36.75,-5.88 -92.6,44.1 -136.7,80.85 -44.1,36.75 -76.44,60.26 -129.36,44.09 -52.92,-16.17 -126.41,-72.02 -167.57,-108.77 -41.16,-36.75 -49.97,-54.39 -32.33,14.69 17.64,69.09 61.73,224.91 127.87,338.09 66.15,113.18 154.35,183.74 198.44,249.88 44.1,66.15 44.1,127.88 49.92,186.22 5.83,58.35 17.48,113.29 64.52,179.44 47.04,66.15 129.46,143.49 203.01,188.04 73.55,44.56 138.23,56.32 177.91,44.56 39.69,-11.76 54.39,-47.04 19.9,-86.29 -34.49,-39.24 -118.18,-82.45 -190.21,-129.49 -72.02,-47.03 -132.38,-97.9 -161.1,-151.26 -28.71,-53.36 -25.77,-109.21 -6.66,-150.37 19.11,-41.16 54.38,-67.61 98.48,-92.6 44.1,-24.99 97.01,-48.51 124.94,-67.62 27.93,-19.11 30.87,-33.81 13.23,-67.62 -17.64,-33.81 -55.85,-86.72 -89.66,-146.99z"/>
   <path class="fil3" d="M11262.33 14611.56c19.72,-104.16 46.51,-204.42 45.21,-278.07 -1.3,-73.65 -30.69,-120.68 -79.7,-153.46 -49.01,-32.77 -117.64,-51.28 -151.45,-27.76 -33.8,23.52 -32.8,89.06 -36.71,142.41 -3.9,53.36 -12.72,94.51 -31.83,88.63 -19.11,-5.88 -48.5,-58.79 -56.48,-127.41 -7.98,-68.62 5.47,-152.93 1.9,-216.35 -3.57,-63.41 -24.16,-105.91 -60.28,-104.91 -36.12,1 -87.77,45.51 -109.19,101.57 -21.42,56.07 -12.6,123.68 -18.48,173.66 -5.88,49.98 -26.46,82.31 -74.97,105.83 -48.51,23.52 -124.94,38.22 -163.16,63.21 -38.22,24.99 -38.22,60.26 -22.05,101.42 16.17,41.16 48.51,88.19 76.44,114.65 27.93,26.46 51.44,32.34 66.14,61.74 14.7,29.4 20.58,82.31 30.87,160.21 10.29,77.91 24.99,180.81 49.98,258.71 24.99,77.91 60.26,130.82 98.48,144.05 38.22,13.23 79.38,-13.22 144.92,-67.81 65.54,-54.59 155.46,-137.32 206.73,-232.71 51.28,-95.39 63.92,-203.45 83.63,-307.61z"/>
   <path class="fil3" d="M12709.32 13080.86c-18.11,-11.82 -65.31,64.71 -75.92,156.4 -10.6,91.68 15.39,198.52 25.88,273.34 10.5,74.82 5.48,117.63 -16.34,186.21 -21.81,68.58 -60.43,162.94 -115.02,270.38 -54.59,107.45 -125.14,227.99 -183.94,373.51 -58.8,145.52 -105.83,316.03 -119.06,482.13 -13.23,166.1 7.34,327.79 35.27,489.48 27.93,161.69 63.21,323.38 74.97,490.95 11.76,167.57 0,341.02 5.88,445.38 5.88,104.37 29.4,139.65 99.95,173.46 70.56,33.81 188.16,66.14 302.81,158.74 114.65,92.61 226.36,245.48 315.96,347.53 89.61,102.06 157.12,153.31 190.87,178.93 33.75,25.62 33.75,25.62 6.75,-71.74 -27,-97.35 -81,-292.06 -136.82,-457 -55.81,-164.93 -113.43,-300.09 -167.63,-427.09 -54.19,-126.99 -104.95,-245.83 -147.39,-353.02 -42.44,-107.19 -76.55,-202.73 -110.55,-351.68 -34,-148.94 -67.87,-351.28 -83.4,-530.89 -15.52,-179.6 -12.68,-336.48 -7.15,-482.66 5.54,-146.17 13.78,-281.64 22.41,-397.54 8.63,-115.9 17.66,-212.22 30.82,-332.74 13.17,-120.51 30.49,-265.23 44.63,-387.66 14.15,-122.44 25.14,-222.61 7.02,-234.42z"/>
   <path class="fil3" d="M8388.43 15500.43c16.17,61.74 22.04,152.88 17.63,258.71 -4.41,105.83 -19.1,226.37 -57.32,310.15 -38.22,83.79 -99.95,130.82 -154.34,161.69 -54.39,30.87 -101.42,45.57 -148.46,49.98 -47.04,4.41 -94.08,-1.47 -127.89,-14.7 -33.81,-13.23 -54.38,-33.81 -66.14,-79.38 -11.76,-45.57 -14.7,-116.12 -2.94,-232.25 11.76,-116.12 38.21,-277.81 54.38,-410.1 16.17,-132.29 22.05,-235.19 47.04,-329.26 24.99,-94.07 69.09,-179.33 102.9,-246.95 33.81,-67.61 57.32,-117.59 89.66,-183.74 32.34,-66.14 73.49,-148.46 122,-182.27 48.51,-33.8 104.36,-19.1 198.43,45.57 94.08,64.68 226.38,179.34 302.81,304.28 76.44,124.94 97.02,260.17 85.26,368.94 -11.76,108.78 -55.86,191.09 -105.84,235.19 -49.98,44.1 -105.83,49.98 -144.05,27.93 -38.22,-22.05 -58.79,-72.02 -69.08,-145.52 -10.29,-73.5 -10.29,-170.51 -44.1,-185.21 -33.81,-14.7 -101.42,52.91 -122,102.89 -20.58,49.98 5.88,82.32 22.05,144.05z"/>
   <path class="fil1" d="M8652.76 16154.05c110.49,245.97 263.36,663.42 425.05,954.46 161.69,291.05 332.2,455.68 661.98,662.38 329.79,206.7 818.85,455.47 1397.99,614.22 579.15,158.75 1248.37,227.48 1679.66,233.61 431.29,6.13 624.65,-50.35 709.35,-123.91 84.7,-73.56 60.76,-164.21 -44.74,-185.95 -105.49,-21.74 -292.54,25.43 -509.54,51.95 -216.99,26.53 -463.93,32.4 -787.68,14.02 -323.74,-18.38 -724.28,-61.03 -1085.88,-178.62 -361.59,-117.59 -684.25,-310.13 -992.57,-500.48 -308.31,-190.34 -602.3,-378.49 -805.15,-598.98 -202.84,-220.48 -314.56,-473.31 -415.98,-730.79 -101.42,-257.47 -192.56,-519.61 -246.42,-661.46 -53.86,-141.85 -70.44,-163.43 -103.03,-134.28 -32.58,29.16 -81.16,109.04 -71.4,186.21 9.77,77.18 77.87,151.66 188.36,397.62z"/>
   <path class="fil3" d="M9577.58 16789.54c-32.34,83.79 -58.8,180.8 -82.32,239.6 -23.52,58.8 -44.09,79.37 -61.73,126.41 -17.64,47.04 -32.34,120.53 -38.22,202.84 -5.88,82.32 -2.94,173.46 -7.15,196.28 -4.2,22.82 -15.54,-22.68 -46.41,-110.88 -30.87,-88.19 -81.26,-219.08 -107.93,-359.5 -26.66,-140.41 -29.6,-290.34 -23.72,-407.93 5.88,-117.59 20.58,-202.85 61.74,-282.23 41.16,-79.37 108.77,-152.86 198.43,-196.96 89.67,-44.1 201.39,-58.79 263.12,-42.62 61.74,16.17 73.49,63.2 57.32,136.69 -16.17,73.5 -60.26,173.46 -101.42,258.71 -41.16,85.25 -79.37,155.81 -111.71,239.59z"/>
   <path class="fil3" d="M10935.77 16454.4c29.4,98.49 64.68,201.39 92.61,263.12 27.93,61.74 48.5,82.31 58.79,36.74 10.29,-45.56 10.29,-157.28 -5.88,-286.63 -16.17,-129.35 -48.5,-276.34 -80.84,-373.36 -32.34,-97.01 -64.67,-144.04 -88.19,-123.47 -23.52,20.58 -38.22,108.78 -33.81,199.91 4.41,91.14 27.92,185.21 57.32,283.69z"/>
   <path class="fil3" d="M7147.79 17711.16c45.57,-158.75 83.78,-317.5 123.47,-448.32 39.69,-130.82 80.84,-233.72 113.18,-329.26 32.34,-95.54 55.86,-183.74 45.57,-207.26 -10.29,-23.51 -54.38,17.64 -105.83,111.71 -51.45,94.08 -110.24,241.07 -157.28,392.47 -47.04,151.4 -82.31,307.21 -132.29,438.03 -49.98,130.82 -114.65,236.66 -146.99,343.96 -32.34,107.3 -32.34,216.08 -8.82,245.47 23.52,29.4 70.55,-20.57 120.53,-124.94 49.98,-104.36 102.89,-263.11 148.46,-421.86z"/>
   <path class="fil3" d="M8109.09 18168.29c-22.05,-89.66 -60.26,-207.26 -97.01,-276.35 -36.75,-69.08 -72.02,-89.65 -144.05,-61.73 -72.02,27.93 -180.8,104.37 -236.66,192.56 -55.85,88.19 -58.79,188.15 -70.55,271.93 -11.76,83.79 -32.34,151.4 -35.28,224.9 -2.94,73.5 11.76,152.87 51.45,196.97 39.69,44.1 104.36,52.92 169.04,13.23 64.68,-39.69 129.35,-127.88 195.49,-194.03 66.15,-66.15 133.77,-110.24 164.63,-163.16 30.87,-52.92 24.99,-114.65 2.94,-204.32z"/>
   <path class="fil3" d="M6580.36 19768.99c19.11,-79.37 63.2,-182.27 76.43,-270.47 13.23,-88.19 -4.41,-161.68 -30.87,-174.91 -26.46,-13.23 -61.73,33.81 -115.04,133.24 -53.3,99.43 -124.64,251.26 -139.34,365.91 -14.69,114.65 27.24,192.13 55.56,255.86 28.32,63.73 43.01,113.71 65.06,91.66 22.05,-22.05 51.45,-116.12 63.21,-191.09 11.76,-74.97 5.88,-130.82 24.99,-210.2z"/>
   <path class="fil3" d="M5716.42 21715.99c18.71,-68.44 53.99,-153.7 80.45,-218.38 26.46,-64.67 44.09,-108.76 60.26,-142.57 16.17,-33.81 30.87,-57.33 44.1,-101.43 13.23,-44.1 24.99,-108.77 38.22,-155.81 13.23,-47.04 27.93,-76.43 44.1,-74.96 16.17,1.47 33.8,33.8 42.62,79.37 8.82,45.57 8.82,104.36 -17.64,138.17 -26.46,33.81 -79.37,42.63 -111.71,58.8 -32.34,16.17 -44.09,39.68 -44.09,66.14 0,26.46 11.75,55.86 19.1,94.08 7.35,38.22 10.29,85.25 8.82,164.62 -1.47,79.38 -7.35,191.1 -10.2,257.27 -2.85,66.18 -2.67,86.83 -2.58,97.15 0.09,10.32 0.09,10.32 17.07,17.54 16.97,7.23 50.91,21.69 67.88,28.91 16.98,7.23 16.98,7.23 14.61,-50.01 -2.36,-57.23 -7.08,-171.71 -5.04,-259.81 2.05,-88.1 10.87,-149.84 19.69,-201.29 8.82,-51.44 17.63,-92.6 27.92,-120.53 10.29,-27.93 22.05,-42.62 52.92,-42.62 30.87,0 80.84,14.69 86.72,101.41 5.88,86.73 -32.33,245.48 -41.5,368.2 -9.17,122.72 10.72,209.4 22.79,255.74 12.07,46.35 16.33,52.36 18.46,55.36 2.13,3 2.13,3 -28.16,-14.04 -30.28,-17.03 -90.86,-51.11 -167.21,-92.22 -76.34,-41.11 -168.46,-89.25 -214.52,-113.33 -46.06,-24.07 -46.06,-24.07 -46.06,-24.07 0,0 0,0 1.07,-25.82 1.07,-25.81 3.2,-77.43 21.91,-145.87z"/>
   <path class="fil3" d="M7410.81 21252.14c-8.82,-63.21 -17.64,-122 -42.99,-156.48 -25.35,-34.48 -67.22,-44.63 -96.62,-31.4 -29.4,13.23 -46.32,49.84 -54.78,112.24 -8.46,62.41 -8.46,150.61 7.71,204.99 16.17,54.39 48.51,74.97 86.73,80.85 38.22,5.88 82.31,-2.94 99.95,-41.16 17.64,-38.22 8.82,-105.83 0,-169.04z"/>
   <path class="fil3" d="M8535.24 21654.9c69.09,-30.86 124.94,-95.54 163.16,-151.4 38.22,-55.85 58.8,-102.89 70.56,-148.46 11.76,-45.57 14.7,-89.66 35.28,-88.19 20.58,1.47 58.79,48.5 89.66,85.25 30.87,36.75 54.39,63.21 77.91,44.1 23.52,-19.11 47.03,-83.78 72.02,-151.4 24.99,-67.62 51.45,-138.17 35.28,-179.33 -16.17,-41.16 -74.96,-52.91 -103.16,-107.06 -28.19,-54.15 -25.78,-150.7 -58.12,-203.62 -32.34,-52.91 -99.42,-62.21 -168.25,-63.92 -68.82,-1.7 -139.37,4.18 -214.34,48.28 -74.96,44.1 -154.34,126.41 -221.96,196.97 -67.61,70.56 -123.46,129.35 -160.21,188.15 -36.75,58.8 -54.39,117.59 -58.8,161.69 -4.41,44.1 4.41,73.49 2.94,119.06 -1.47,45.57 -13.23,107.3 5.88,152.87 19.11,45.57 69.08,74.97 107.3,92.61 38.22,17.64 64.68,23.51 119.06,27.92 54.39,4.41 136.71,7.35 205.79,-23.52z"/>
   <path class="fil3" d="M8571.96 19929.21c-5.88,-48.51 -5.88,-92.6 -35.28,-117.59 -29.39,-24.99 -88.19,-30.87 -129.35,-2.94 -41.15,27.93 -64.67,89.66 -105.83,135.23 -41.16,45.57 -99.95,74.97 -133.76,111.72 -33.81,36.75 -42.63,80.84 -55.86,129.35 -13.23,48.51 -30.87,101.42 -42.63,132.29 -11.76,30.87 -17.63,39.69 -8.81,54.39 8.82,14.7 32.33,35.27 63.2,51.44 30.87,16.17 69.08,27.93 110.24,67.62 41.16,39.69 85.26,107.3 132.3,119.06 47.04,11.76 97.01,-32.33 146.99,-63.2 49.98,-30.87 99.95,-48.51 138.17,-70.56 38.22,-22.05 64.67,-48.51 105.83,-44.1 41.16,4.41 97.01,39.69 150.06,86.06 53.05,46.38 103.28,103.86 151.55,125.19 48.28,21.33 94.59,6.51 135.62,27.75 41.03,21.24 76.77,78.54 134.33,92.48 57.57,13.95 136.94,-15.44 184.45,-67.55 47.51,-52.1 63.16,-126.91 75.66,-166.09 12.51,-39.17 21.89,-42.72 34.64,-68.52 12.76,-25.8 28.9,-73.86 42.85,-102.3 13.95,-28.44 25.71,-37.26 33.06,-76.95 7.35,-39.69 10.29,-110.24 5.88,-182.27 -4.41,-72.02 -16.17,-145.52 4.41,-185.21 20.58,-39.68 73.49,-45.56 111.71,-63.2 38.22,-17.64 61.73,-47.04 70.55,-145.53 8.82,-98.48 2.94,-266.05 -10.29,-483.6 -13.23,-217.54 -33.8,-485.07 -69.08,-658.52 -35.28,-173.45 -85.25,-252.82 -139.64,-348.37 -54.39,-95.54 -113.18,-207.26 -149.93,-279.29 -36.75,-72.02 -51.45,-104.35 -42.63,-41.15 8.82,63.21 41.15,221.96 61.73,329.26 20.58,107.31 29.4,163.16 27.93,224.9 -1.47,61.74 -13.22,129.35 -38.21,191.09 -24.99,61.74 -63.21,117.59 -101.43,173.45 -38.22,55.86 -76.43,111.71 -108.77,179.32 -32.34,67.62 -58.8,147 -80.85,230.78 -22.05,83.79 -39.68,171.98 -39.68,244.01 0,72.03 17.63,127.88 69.08,163.16 51.45,35.28 136.7,49.98 188.15,70.56 51.45,20.58 69.09,47.03 52.92,55.85 -16.17,8.82 -66.15,0 -116.13,-10.29 -49.98,-10.29 -99.95,-22.04 -152.87,-42.62 -52.92,-20.58 -108.77,-49.98 -171.98,-35.28 -63.2,14.7 -133.76,73.49 -182.27,120.53 -48.5,47.04 -74.96,82.31 -92.6,130.82 -17.64,48.51 -26.46,110.24 -57.33,139.64 -30.87,29.4 -83.78,26.46 -116.12,-1.47 -32.34,-27.93 -44.1,-80.84 -49.98,-129.35z"/>
   <path class="fil3" d="M10060.97 21879.79c-22.05,-70.56 -74.96,-126.41 -141.11,-149.93 -66.14,-23.52 -145.52,-14.7 -191.09,22.05 -45.56,36.75 -57.32,101.42 -49.97,179.32 7.35,77.91 33.81,169.05 35.28,223.43 1.47,54.39 -22.05,72.03 11.75,67.62 33.81,-4.41 124.95,-30.87 191.09,-51.45 66.15,-20.58 107.31,-35.27 132.3,-85.25 24.99,-49.98 33.8,-135.23 11.75,-205.79z"/>
   <path class="fil3" d="M10560.01 22605.8c2.2,-129.22 -3.67,-258.58 -30.13,-343.84 -26.46,-85.25 -73.5,-126.4 -97.02,-97.01 -23.52,29.4 -23.52,129.36 -41.16,208.73 -17.64,79.38 -52.91,138.17 -85.25,205.78 -32.34,67.62 -61.73,144.06 -64.67,196.97 -2.94,52.92 20.57,82.32 74.23,114.53 53.66,32.22 137.46,67.24 179.36,84.75 41.9,17.52 41.9,17.52 47.03,-47.03 5.14,-64.55 15.42,-193.65 17.61,-322.88z"/>
   <path class="fil3" d="M13131.61 21188.92c5.88,-97.01 52.92,-226.36 66.15,-343.96 13.23,-117.59 -7.35,-223.42 -57.33,-276.34 -49.98,-52.92 -129.35,-52.92 -198.44,7.34 -69.09,60.27 -127.88,180.81 -163.16,293.99 -35.28,113.18 -47.03,219.02 -48.5,339.55 -1.47,120.53 7.34,255.77 23.51,342.49 16.17,86.73 39.69,124.94 114.65,94.07 74.97,-30.86 201.39,-130.82 246.95,-213.14 45.57,-82.31 10.29,-146.98 16.17,-244z"/>
   <path class="fil3" d="M13707.81 19935.1c2.94,-33.8 -11.76,-13.23 -26.46,-116.13 -14.7,-102.89 -29.4,-329.25 -61.74,-458.61 -32.34,-129.35 -82.31,-161.68 -148.46,-158.74 -66.14,2.94 -148.46,41.15 -167.57,142.57 -19.1,101.43 24.99,266.06 45.57,418.93 20.58,152.87 17.64,293.98 14.7,440.97 -2.94,146.99 -5.88,299.87 1.47,415.99 7.35,116.12 24.99,195.5 72.02,227.83 47.04,32.34 123.48,17.64 177.86,27.93 54.39,10.29 86.73,45.57 98.49,105.83 11.76,60.27 2.94,145.53 35.54,191.23 32.61,45.7 106.65,51.86 143.39,-76.03 36.75,-127.88 36.22,-389.79 41.89,-557.16 5.68,-167.36 17.58,-240.16 -19.17,-268.09 -36.75,-27.93 -122.14,-10.98 -172.19,-24.56 -50.04,-13.57 -64.74,-57.66 -61.8,-123.81 2.94,-66.14 23.52,-154.34 26.46,-188.15z"/>
   <path class="fil3" d="M11258.54 19152.57c38.61,60.79 79.76,160.75 92.99,240.12 13.23,79.38 -1.47,138.17 -42.63,169.04 -41.16,30.87 -108.77,33.81 -174.92,-24.99 -66.14,-58.79 -130.82,-179.33 -166.1,-302.8 -35.27,-123.47 -41.15,-249.89 -22.95,-376.85 18.2,-126.95 60.49,-254.46 80.01,-288.39 19.52,-33.93 16.27,25.71 32.96,121.27 16.69,95.57 53.31,227.07 89.64,303.63 36.34,76.56 72.4,98.18 111,158.97z"/>
   <path class="fil3" d="M10312.3 17661.13c14.7,67.62 20.58,155.81 1.37,220.69 -19.21,64.89 -63.5,106.45 -97.31,104.98 -33.81,-1.47 -57.13,-45.97 -73.71,-101.66 -16.58,-55.68 -26.43,-122.55 -7.32,-188.7 19.11,-66.14 67.18,-131.57 102.97,-140.77 35.79,-9.19 59.3,37.84 74,105.46z"/>
   <path class="fil3" d="M12987.54 17943.35c52.92,58.8 91.14,138.18 104.58,208.64 13.44,70.46 2.09,132.01 20.38,159.03 18.3,27.03 66.22,19.52 121.87,-18.6 55.65,-38.12 119.02,-106.87 157.78,-185.37 38.77,-78.49 52.93,-166.75 8.83,-277 -44.1,-110.24 -146.45,-242.47 -238.79,-307.12 -92.33,-64.65 -174.65,-61.71 -215.81,-36.72 -41.15,24.99 -41.15,72.03 -72.02,97.02 -30.87,24.99 -92.6,27.93 -110.24,61.73 -17.64,33.81 8.81,98.49 55.85,149.93 47.04,51.45 114.65,89.67 167.57,148.46z"/>
   <path class="fil6" d="M8789.38 9997.75c7.35,55.12 8.82,140.37 -12.5,221.22 -21.31,80.84 -65.4,157.28 -97.01,192.56 -31.6,35.27 -50.71,29.39 -83.79,-5.15 -33.07,-34.55 -80.1,-97.75 -107.3,-148.46 -27.19,-50.72 -34.54,-88.93 -33.07,-123.47 1.47,-34.55 11.76,-65.41 42.63,-97.75 30.87,-32.34 82.31,-66.15 128.61,-90.4 46.31,-24.26 87.46,-38.95 114.65,-33.8 27.2,5.14 40.43,30.12 47.78,85.25z"/>
   <path class="fil6" d="M11232.7 10163.14c80.85,38.22 161.69,99.95 208.73,142.58 47.04,42.63 60.27,66.14 44.83,98.85 -15.43,32.7 -59.52,74.6 -113.91,112.82 -54.39,38.21 -119.06,72.76 -185.95,98.12 -66.88,25.35 -135.96,41.52 -180.8,48.87 -44.83,7.35 -65.41,5.88 -82.32,-22.78 -16.9,-28.67 -30.13,-84.52 -36.01,-144.79 -5.88,-60.27 -4.41,-124.94 2.57,-188.51 6.99,-63.58 19.48,-126.06 37.12,-161.33 17.64,-35.28 40.43,-43.37 92.24,-40.06 51.81,3.31 132.66,18.01 213.5,56.23z"/>
   <path class="fil3" d="M8769.93 10133.09c-12.28,-30.06 -48.06,-35.99 -76.15,-25.25 -28.08,10.74 -48.48,38.14 -61.71,62.4 -13.22,24.25 -19.29,45.35 -14.97,68.4 4.32,23.04 19.01,48.02 40.95,61.97 21.94,13.94 51.12,16.83 69.28,10.14 18.17,-6.69 25.33,-22.98 34.51,-58.21 9.18,-35.23 20.38,-89.4 8.09,-119.45z"/>
   <path class="fil3" d="M11238.59 10355.02c3.68,22.78 6.62,53.64 -5.88,79.37 -12.49,25.72 -40.42,46.3 -72.03,52.18 -31.6,5.88 -66.87,-2.94 -88.19,-27.93 -21.31,-24.99 -28.66,-66.14 -27.93,-99.21 0.74,-33.08 9.56,-58.07 25.73,-72.03 16.17,-13.97 39.68,-16.91 66.87,-12.5 27.2,4.41 58.07,16.17 75.71,29.4 17.64,13.23 22.05,27.93 25.72,50.72z"/>
   <path class="fil7" d="M8736.87 10065.59c-3.06,-14.07 -10.41,-29.51 -30.99,-35.75 -20.58,-6.25 -54.39,-3.31 -80.85,5.51 -26.46,8.82 -45.56,23.51 -58.43,42.62 -12.86,19.11 -19.47,42.63 -10.29,55.13 9.19,12.49 34.18,13.96 57.63,8.94 23.45,-5.02 45.35,-16.52 65.68,-23.76 20.34,-7.25 39.1,-10.22 49.09,-18.06 10,-7.85 11.22,-20.56 8.16,-34.63z"/>
   <path class="fil7" d="M11172.02 10257.72c-11.39,15.06 -30.5,37.85 -59.9,48.14 -29.4,10.28 -69.09,8.08 -92.98,8.45 -23.88,0.36 -31.97,3.3 -37.11,-12.5 -5.14,-15.8 -7.35,-50.35 -1.47,-73.5 5.88,-23.15 19.85,-34.91 52.92,-40.79 33.07,-5.88 85.26,-5.88 114.65,1.84 29.4,7.72 36.02,23.15 37.49,34.55 1.47,11.39 -2.21,18.74 -13.6,33.81z"/>
   <path class="fil3" d="M9140.92 13716.81c60.27,-23.52 154.34,-35.27 211.67,-23.51 57.33,11.76 77.9,47.03 42.62,77.9 -35.27,30.87 -126.41,57.32 -196.97,63.2 -70.55,5.88 -120.52,-8.81 -132.28,-33.8 -11.76,-24.99 14.69,-60.27 74.96,-83.79z"/>
   <path class="fil6" d="M9209.96 14853.11c217.55,145.52 493.9,301.34 761.42,398.35 267.52,97.02 526.23,135.23 849.61,97.01 323.38,-38.21 711.43,-152.87 948.09,-267.52 236.66,-114.65 321.91,-229.31 374.82,-290.29 52.92,-60.97 73.5,-68.26 97.01,-56.5 23.52,11.76 49.99,42.57 53.69,142.1 3.7,99.54 -15.35,267.8 -21.45,371 -6.1,103.2 0.76,141.36 -29.4,214.51 -30.16,73.15 -97.34,181.31 -186.79,278.01 -89.44,96.7 -201.16,181.96 -320.22,239.28 -119.06,57.33 -245.47,86.73 -345.43,111.72 -99.95,24.99 -173.44,45.57 -266.05,70.56 -92.6,24.99 -204.32,54.38 -352.78,91.13 -148.46,36.75 -333.67,80.84 -480.66,123.47 -146.99,42.63 -255.77,83.78 -376.3,120.53 -120.53,36.75 -252.82,69.09 -317.5,102.9 -64.67,33.81 -61.73,69.08 -84.89,212.19 -23.16,143.11 -72.41,394.05 -97.2,529.09 -24.78,135.04 -25.09,154.19 -55.3,58.27 -30.2,-95.92 -90.31,-306.9 -121.39,-516.17 -31.07,-209.27 -33.11,-416.84 31.65,-537.76 64.77,-120.92 196.34,-155.19 286,-210.32 89.67,-55.12 137.43,-131.08 162.77,-169.07 25.35,-37.98 28.29,-37.98 -48.15,-49.74 -76.43,-11.76 -232.24,-35.28 -415.98,-129.36 -183.74,-94.07 -395.4,-258.7 -576.88,-453.76 -181.48,-195.05 -332.78,-420.52 -416.57,-599.85 -83.78,-179.33 -100.05,-312.51 -115.43,-449.61 -15.38,-137.09 -29.85,-278.11 -37.09,-348.62 -7.24,-70.5 -7.24,-70.5 88.19,24.99 95.44,95.5 286.3,286.49 461.11,449.6 174.81,163.11 333.56,298.34 551.1,443.86z"/>
   <path class="fil6" d="M12166.42 14793.35c70.56,-135.23 163.65,-267.77 242.58,-376.57 78.94,-108.79 143.73,-193.84 176.12,-236.37 32.4,-42.52 32.4,-42.52 30.52,116.16 -1.88,158.69 -5.64,476.06 -4.85,653.86 0.8,177.81 6.16,216.05 -67.94,302.43 -74.1,86.38 -227.66,220.89 -343.53,317.48 -115.87,96.6 -194.07,155.28 -231.33,136.48 -37.26,-18.8 -33.58,-115.08 -21.46,-211.72 12.13,-96.64 32.71,-193.66 67.01,-311.13 34.31,-117.46 82.33,-255.39 152.88,-390.62z"/>
   <path class="fil8" d="M10028.57 15884.95c189.62,-69.08 489.49,-180.8 709.97,-263.12 220.49,-82.31 361.6,-135.22 520.35,-191.08 158.75,-55.86 335.14,-114.65 476.25,-166.1 141.11,-51.45 246.95,-95.54 326.32,-182.27 79.38,-86.72 132.29,-216.08 218.42,-343.92 86.14,-127.84 205.49,-254.16 265.16,-317.33 59.68,-63.16 59.68,-63.16 58.59,43.62 -1.09,106.78 -3.26,320.34 -68.82,515.79 -65.55,195.46 -194.48,372.81 -303.05,526.16 -108.56,153.35 -196.75,282.71 -333.46,369.43 -136.7,86.73 -321.91,130.82 -502.71,183.74 -180.8,52.92 -357.18,114.65 -530.63,164.63 -173.45,49.98 -343.96,88.2 -485.07,126.42 -141.11,38.22 -252.83,76.43 -346.91,111.71 -94.07,35.28 -170.5,67.61 -236.65,101.42 -66.15,33.81 -122,69.09 -173.45,130.82 -51.45,61.74 -98.48,149.94 -127.88,257.24 -29.4,107.3 -41.16,233.72 -55.86,351.31 -14.7,117.59 -32.33,226.37 -54.38,257.23 -22.05,30.87 -48.51,-16.16 -80.85,-136.7 -32.34,-120.53 -70.55,-314.56 -82.31,-486.54 -11.76,-171.98 2.93,-321.91 33.8,-433.63 30.87,-111.71 77.91,-185.2 151.4,-261.64 73.5,-76.43 173.46,-155.81 263.12,-208.73 89.66,-52.91 169.04,-79.37 358.65,-148.46z"/>
   <path class="fil9" d="M8839.4 14612c158.75,133.76 367.47,283.69 512.99,382.17 145.53,98.49 227.84,145.52 269,169.04 41.16,23.52 41.16,23.52 -4.41,-35.28 -45.57,-58.79 -136.7,-176.39 -202.85,-244.01 -66.15,-67.61 -107.3,-85.24 -185.21,-136.69 -77.9,-51.45 -192.56,-136.7 -326.32,-245.48 -133.76,-108.77 -286.63,-241.06 -393.94,-338.08 -107.3,-97.01 -169.03,-158.74 -231.29,-215.67 -62.26,-56.93 -125.04,-109.05 -156.43,-135.11 -31.39,-26.06 -31.39,-26.06 30.87,49.97 62.26,76.04 186.77,228.12 303.41,362.95 116.65,134.83 225.43,252.43 384.18,386.19z"/>
   <path class="fil9" d="M8899.66 14975.07c151.4,117.59 316.04,217.55 449.8,289.57 133.76,72.03 236.66,116.12 355.72,148.46 119.06,32.34 254.29,52.92 342.48,63.21 88.2,10.29 129.35,10.29 145.52,5.88 16.17,-4.41 7.36,-13.23 -32.33,-29.4 -39.69,-16.17 -110.24,-39.69 -195.5,-63.21 -85.25,-23.52 -185.21,-47.03 -310.15,-92.6 -124.94,-45.57 -274.88,-113.18 -405.7,-192.56 -130.82,-79.38 -242.54,-170.51 -351.31,-270.47 -108.77,-99.95 -214.61,-208.73 -308.68,-308.68 -94.07,-99.95 -176.39,-191.09 -222.3,-269.61 -45.9,-78.51 -55.4,-144.42 -90.38,-216.11 -34.98,-71.69 -95.43,-149.18 -125.66,-187.92 -30.23,-38.74 -30.23,-38.74 -12.89,22.66 17.34,61.41 52.01,184.21 110.51,313.23 58.5,129.02 140.81,264.26 251.05,399.49 110.25,135.23 248.42,270.47 399.82,388.06z"/>
   <path class="fil9" d="M8777.66 15227.89c120.53,114.65 238.13,199.91 398.35,285.16 160.22,85.26 363.06,170.51 479.18,223.43 116.13,52.92 145.53,73.5 126.42,94.08 -19.11,20.58 -86.72,41.15 -174.92,22.04 -88.19,-19.11 -196.97,-77.9 -351.31,-171.98 -154.34,-94.07 -354.24,-223.42 -499.77,-361.59 -145.52,-138.17 -236.65,-285.17 -310.15,-405.7 -73.5,-120.53 -129.35,-214.61 -163.16,-299.87 -33.81,-85.25 -45.57,-161.68 -51.45,-199.9 -5.88,-38.22 -5.88,-38.22 24.99,36.74 30.87,74.97 92.6,224.91 185.2,371.9 92.61,146.99 216.09,291.04 336.62,405.69z"/>
   <path class="fil10" d="M10278.23 16074.99c-0.02,97.77 -1.72,201.84 -1.36,253.51 0.37,51.68 2.79,50.96 26.02,44.43 23.24,-6.52 67.27,-18.84 92.58,-25.86 25.32,-7.02 31.9,-8.74 33.14,-9.06 1.25,-0.32 -2.86,0.76 -2.08,-63.01 0.79,-63.76 6.46,-192.36 4.88,-315.46 -1.57,-123.1 -10.39,-240.7 -11.85,-340.3 -1.46,-99.6 4.45,-181.2 7.2,-222.02 2.76,-40.82 2.37,-40.86 -22.35,-48.24 -24.71,-7.37 -73.76,-22.09 -97.57,-28.55 -23.8,-6.45 -22.37,-4.65 -19.72,33.24 2.66,37.89 6.55,111.87 4.72,191.32 -1.82,79.46 -9.34,164.39 -12.28,252.58 -2.94,88.2 -1.3,179.66 -1.33,277.42z"/>
   <path class="fil11" d="M10423.72 15789.57c-3.27,-45.56 -8.13,-99.31 -31.41,-118.43 -23.27,-19.11 -64.95,-3.61 -86.79,22.39 -21.83,26.01 -23.81,62.52 -25.11,110.62 -1.29,48.11 -1.9,107.83 15.03,145.76 16.94,37.94 51.41,54.11 76.82,43.81 25.42,-10.3 41.78,-47.05 49.11,-84.13 7.33,-37.07 5.63,-74.45 2.35,-120.02z"/>
   <path class="fil10" d="M11572.61 15767.32c13.93,-104.37 41.79,-267.53 56.82,-352.42 15.04,-84.89 17.24,-91.51 11.74,-117.6 -5.5,-26.09 -18.7,-71.67 -24.94,-97.4 -6.23,-25.72 -5.5,-31.59 -31.8,-28.02 -26.29,3.58 -79.63,16.62 -104.94,23.36 -25.31,6.74 -22.61,7.2 -14.99,31.65 7.63,24.46 20.17,72.91 21.25,111.37 1.08,38.47 -9.29,66.93 -18.89,137.02 -9.6,70.09 -18.42,181.81 -30.17,286.17 -11.75,104.37 -26.42,201.4 -40.39,268.28 -13.96,66.88 -27.21,103.61 -11.79,113.16 15.43,9.55 59.52,-8.09 93.33,-42.64 33.81,-34.54 57.32,-85.98 69.08,-134.49 11.76,-48.51 11.76,-94.07 25.69,-198.44z"/>
   <path class="fil11" d="M11585.38 15443.87c28.05,-15.41 38.91,-38.22 45.37,-63.74 6.46,-25.52 8.53,-53.73 -15.53,-67.93 -24.05,-14.19 -74.23,-14.36 -100.94,0.97 -26.7,15.34 -29.92,46.19 -33.92,75.79 -3.99,29.6 -8.74,57.96 11.5,68.14 20.24,10.18 65.48,2.18 93.52,-13.23z"/>
   <path class="fil10" d="M12402.47 15245.48c44.55,-72.36 70.54,-122.66 83.36,-158.18 12.83,-35.51 12.48,-56.24 9.36,-89.39 -3.11,-33.15 -8.99,-78.72 -21.64,-154.46 -12.65,-75.73 -32.06,-181.64 -63.67,-237.5 -31.6,-55.85 -75.39,-61.65 -127.42,-46.18 -52.03,15.47 -112.29,52.21 -178.44,90.43 -66.15,38.22 -138.17,77.9 -191.83,119.79 -53.65,41.9 -88.92,85.99 -105.09,121.27 -16.17,35.28 -13.23,61.74 -9.56,89.67 3.68,27.93 8.09,57.32 24.26,55.11 16.17,-2.2 44.09,-36 87.45,-70.55 43.37,-34.54 102.16,-69.82 166.5,-107.78 64.35,-37.96 134.24,-78.61 178.37,-111.65 44.14,-33.04 62.53,-58.48 75.35,-55.8 12.83,2.69 20.11,33.49 28.15,99.6 8.05,66.12 16.86,167.55 21.27,235.9 4.41,68.35 4.41,103.63 -10.29,146.26 -14.7,42.63 -44.09,92.6 -80.11,138.17 -36.01,45.57 -78.63,86.72 -110.97,120.53 -32.34,33.81 -54.39,60.26 -61.74,86.72 -7.35,26.46 0,52.92 21.78,51.13 21.78,-1.79 57.99,-31.83 107.64,-94.07 49.65,-62.23 112.73,-156.65 157.27,-229.02z"/>
  </g>
 </g>
</svg>
