<?xml version="1.0" encoding="UTF-8"?>
<!DOCTYPE svg PUBLIC "-//W3C//DTD SVG 1.1//EN" "http://www.w3.org/Graphics/SVG/1.1/DTD/svg11.dtd">
<!-- Creator: CorelDRAW 2018 (64-Bit) -->
<svg xmlns="http://www.w3.org/2000/svg" xml:space="preserve" width="210mm" height="297mm" version="1.1" style="shape-rendering:geometricPrecision; text-rendering:geometricPrecision; image-rendering:optimizeQuality; fill-rule:evenodd; clip-rule:evenodd"
viewBox="0 0 21000 29700"
 xmlns:xlink="http://www.w3.org/1999/xlink">
 <defs>
  <style type="text/css">
   <![CDATA[
    .fil1 {fill:#FEFEFE}
    .fil0 {fill:#1F1B20}
   ]]>
  </style>
 </defs>
 <g id="Слой_x0020_1">
  <metadata id="CorelCorpID_0Corel-Layer"/>
  <g id="_2240552077424">
   <path class="fil0" d="M10772.29 10528.76c63.21,-158.75 104.36,-279.29 161.69,-399.82 57.33,-120.53 130.82,-241.06 188.15,-383.64 57.33,-142.58 98.48,-307.21 127.88,-420.39 29.4,-113.19 47.04,-174.92 82.32,-205.79 35.28,-30.87 88.19,-30.87 136.7,13.23 48.51,44.09 92.6,132.29 139.64,285.16 47.04,152.87 97.01,370.41 122,479.19 24.99,108.77 24.99,108.77 57.33,52.92 32.34,-55.86 97.01,-167.58 157.28,-286.64 60.27,-119.06 116.12,-245.47 173.44,-383.64 57.33,-138.17 116.13,-288.1 163.16,-374.82 47.04,-86.73 82.32,-110.25 104.37,-54.39 22.05,55.85 30.87,191.09 30.87,392.47 0,201.37 -8.82,468.89 -26.46,665.86 -17.64,196.96 -44.1,323.38 -52.92,417.46 -8.82,94.07 0,155.8 23.52,202.84 23.52,47.04 61.73,79.37 132.28,132.29 70.56,52.92 173.46,126.41 293.99,208.73 120.53,82.31 258.71,173.45 396.88,277.81 138.17,104.36 276.34,221.96 364.53,305.75 88.2,83.78 126.42,133.75 145.53,204.31 19.11,70.55 19.11,161.69 22.05,241.07 2.94,79.37 8.81,146.98 52.91,229.3 44.1,82.31 126.41,179.33 248.41,273.4 122.01,94.07 283.7,185.21 448.33,301.33 164.63,116.12 332.2,257.23 471.84,380.7 139.64,123.47 251.36,229.31 335.14,308.69 83.79,79.37 139.64,132.28 157.28,179.32 17.64,47.04 -2.94,88.2 -36.75,139.65 -33.81,51.44 -80.84,113.18 -133.76,158.75 -52.92,45.56 -111.71,74.96 -166.1,95.54 -54.39,20.58 -104.36,32.34 -136.7,52.92 -32.34,20.58 -47.04,49.97 -120.54,107.3 -73.49,57.32 -205.78,142.58 -317.5,201.38 -111.71,58.79 -202.84,91.13 -289.57,108.77 -86.72,17.64 -169.04,20.58 -254.29,11.76 -85.25,-8.82 -173.45,-29.4 -244.01,-24.99 -70.55,4.41 -123.46,33.81 -171.97,61.74 -48.51,27.93 -92.61,54.38 -144.06,72.02 -51.44,17.64 -110.24,26.46 -179.33,8.82 -69.08,-17.64 -148.45,-61.73 -202.84,-79.37 -54.39,-17.64 -83.78,-8.82 -74.96,51.45 8.82,60.26 55.85,171.97 113.17,261.64 57.33,89.66 124.95,157.27 213.14,245.46 88.19,88.2 196.97,196.98 194.03,298.4 -2.94,101.42 -117.59,195.5 -230.77,255.76 -113.18,60.27 -224.9,86.73 -299.87,144.05 -74.96,57.33 -113.18,145.53 -104.36,233.72 8.82,88.19 64.67,176.39 154.33,264.58 89.67,88.2 213.15,176.39 332.21,296.92 119.06,120.54 233.72,273.41 289.57,486.54 55.86,213.14 52.92,486.54 -26.46,889.29 -79.37,402.76 -235.18,934.86 -420.39,1403.76 -185.21,468.9 -399.81,874.6 -579.14,1168.58 -179.33,293.98 -323.38,476.25 -411.58,595.31 -88.19,119.07 -120.53,174.92 -138.17,252.82 -17.64,77.91 -20.58,177.87 -20.58,389.53 0,211.67 2.94,535.05 5.88,820.21 2.94,285.16 5.88,532.11 39.69,834.91 33.81,302.8 98.48,661.45 152.87,914.27 54.39,252.83 98.48,399.82 154.34,476.25 55.86,76.44 123.47,82.32 201.37,80.85 77.91,-1.47 166.11,-10.29 249.89,-7.35 83.79,2.94 163.16,17.64 251.35,49.98 88.2,32.34 185.22,82.31 266.06,139.64 80.85,57.33 145.52,122 189.62,185.21 44.1,63.21 67.61,124.94 79.37,170.51 11.76,45.57 11.76,74.96 -8.82,111.71 -20.58,36.75 -61.73,80.84 -120.53,101.42 -58.8,20.58 -135.23,17.64 -188.15,32.34 -52.92,14.7 -82.31,47.04 -122,64.68 -39.69,17.64 -89.66,20.58 -130.82,27.93 -41.16,7.35 -73.5,19.1 -123.48,33.8 -49.97,14.7 -117.59,32.34 -151.4,41.16 -33.8,8.82 -33.8,8.82 2.94,57.32 36.75,48.51 110.25,145.53 163.16,195.5 52.92,49.98 85.26,52.92 135.23,58.8 49.98,5.88 117.6,14.7 202.85,29.4 85.26,14.7 188.15,35.28 311.62,89.66 123.48,54.39 267.53,142.59 382.18,229.31 114.65,86.72 199.91,171.98 236.65,238.12 36.75,66.15 24.99,113.18 -13.23,160.22 -38.21,47.04 -102.89,94.07 -180.8,123.47 -77.9,29.4 -169.03,41.16 -238.12,61.74 -69.09,20.58 -116.12,49.98 -221.96,80.85 -105.83,30.87 -270.46,63.2 -415.98,61.73 -145.52,-1.47 -271.93,-36.74 -385.11,-77.9 -113.18,-41.16 -213.14,-88.19 -301.34,-126.41 -88.19,-38.22 -164.62,-67.62 -217.54,-119.07 -52.92,-51.44 -82.31,-124.94 -107.3,-210.19 -24.99,-85.25 -45.57,-182.27 -66.15,-263.12 -20.58,-80.84 -41.16,-145.51 -105.84,-224.89 -64.67,-79.37 -173.45,-173.45 -285.16,-260.18 -111.71,-86.72 -226.36,-166.09 -301.33,-242.53 -74.96,-76.44 -110.24,-149.93 -171.98,-348.37 -61.73,-198.44 -149.93,-521.81 -217.55,-759.94 -67.61,-238.12 -114.64,-390.99 -160.21,-615.89 -45.57,-224.89 -89.66,-521.82 -145.52,-787.87 -55.86,-266.05 -123.47,-501.24 -161.69,-626.18 -38.22,-124.94 -47.04,-139.64 -135.23,-41.16 -88.2,98.49 -255.77,310.15 -501.24,514.47 -245.48,204.32 -568.86,401.28 -801.1,536.51 -232.25,135.24 -373.36,208.73 -451.26,280.76 -77.91,72.03 -92.61,142.58 -91.14,210.19 1.47,67.62 19.11,132.3 64.68,211.67 45.56,79.37 119.06,173.45 105.83,291.04 -13.23,117.59 -113.19,258.71 -255.77,357.19 -142.58,98.49 -327.78,154.34 -460.07,183.74 -132.3,29.4 -211.67,32.34 -295.45,7.35 -83.79,-24.99 -171.99,-77.9 -248.42,-64.68 -76.44,13.23 -141.11,92.61 -191.09,177.86 -49.98,85.25 -85.25,176.39 -101.42,224.89 -16.17,48.51 -13.23,54.39 107.3,58.8 120.53,4.41 358.66,7.35 558.57,-8.82 199.9,-16.17 361.59,-51.44 543.86,-20.58 182.27,30.87 385.11,127.89 480.66,239.6 95.54,111.71 83.79,238.13 17.65,349.84 -66.15,111.71 -186.69,208.73 -333.68,274.87 -146.99,66.15 -320.44,101.42 -554.15,94.07 -233.72,-7.35 -527.7,-57.32 -789.34,-95.54 -261.65,-38.22 -490.95,-64.67 -686.45,-88.19 -195.5,-23.52 -357.19,-44.1 -480.66,-26.46 -123.47,17.64 -208.73,73.49 -355.72,120.53 -146.99,47.04 -355.71,85.25 -573.26,79.37 -217.55,-5.88 -443.91,-55.85 -627.65,-146.99 -183.74,-91.13 -324.86,-223.42 -423.34,-324.85 -98.48,-101.42 -154.34,-171.97 -277.81,-204.31 -123.47,-32.34 -314.56,-26.46 -546.8,-27.93 -232.25,-1.47 -505.66,-10.29 -780.53,-27.93 -274.87,-17.64 -551.22,-44.09 -801.1,-76.43 -249.88,-32.34 -473.31,-70.56 -684.97,-185.22 -211.67,-114.65 -411.58,-305.73 -526.23,-486.53 -114.66,-180.8 -144.05,-351.31 -145.52,-517.41 -1.47,-166.1 24.98,-327.79 102.89,-471.84 77.9,-144.05 207.26,-270.46 388.06,-390.99 180.8,-120.53 413.04,-235.19 696.74,-321.92 283.69,-86.72 618.82,-145.51 902.52,-180.79 283.69,-35.28 515.93,-47.04 657.05,-41.16 141.11,5.88 191.08,29.4 216.07,41.16 24.99,11.76 24.99,11.76 41.16,-38.22 16.17,-49.97 48.5,-149.93 108.77,-304.27 60.27,-154.34 148.46,-363.06 248.42,-560.03 99.95,-196.97 211.67,-382.18 332.2,-565.92 120.53,-183.74 249.88,-366 413.04,-592.37 163.16,-226.36 360.13,-496.83 524.76,-732.02 164.63,-235.18 296.92,-435.08 480.66,-667.33 183.74,-232.24 418.92,-496.83 585.02,-683.51 166.1,-186.67 263.12,-295.45 352.78,-392.46 89.66,-97.01 171.98,-182.27 249.89,-271.94 77.9,-89.66 151.39,-183.73 219.01,-252.82 67.62,-69.09 129.35,-113.18 204.32,-183.74 74.96,-70.55 163.16,-167.57 292.51,-307.21 129.35,-139.64 299.86,-321.9 486.54,-526.22 186.68,-204.32 389.52,-430.68 601.19,-673.22 211.67,-242.53 432.15,-501.24 574.74,-682.04 142.58,-180.79 207.25,-283.69 291.04,-421.86 83.78,-138.17 186.68,-311.62 238.13,-439.5 51.44,-127.88 51.44,-210.2 49.97,-395.4 -1.47,-185.21 -4.41,-473.32 8.82,-723.2 13.23,-249.89 42.62,-461.55 111.71,-683.5 69.08,-221.96 177.86,-454.21 288.1,-652.64 110.24,-198.44 221.96,-363.07 323.38,-557.1 101.42,-194.03 192.56,-417.45 280.75,-627.65 88.2,-210.2 173.45,-407.16 236.66,-565.91z"/>
   <path class="fil1" d="M12373.02 25224.92c-23.52,-64.67 -55.85,-167.57 -82.56,-329.27 -26.7,-161.69 -47.77,-382.2 -58.31,-492.45 -10.53,-110.25 -10.53,-110.25 5.88,-8.82 16.42,101.43 49.25,304.3 81.83,451.29 32.59,147 64.92,238.14 111.96,338.09 47.04,99.95 108.77,208.73 167.32,313.08 58.55,104.36 113.92,204.3 141.6,254.27 27.68,49.97 27.68,49.97 24.15,53.93 -3.52,3.96 -10.57,11.88 -14.1,15.84 -3.52,3.96 -3.52,3.96 -57.08,-76.43 -53.55,-80.39 -160.66,-241.16 -221.57,-334.78 -60.9,-93.62 -75.6,-120.07 -99.12,-184.75z"/>
   <path class="fil1" d="M6344.92 25260.19c-19.11,0 -24.99,-38.22 11.76,-83.79 36.74,-45.57 116.12,-98.48 219.01,-160.22 102.89,-61.73 229.31,-132.29 318.98,-208.73 89.66,-76.43 142.57,-158.74 188.14,-255.76 45.57,-97.01 83.78,-208.73 113.18,-291.05 29.4,-82.31 49.98,-135.22 72.03,-219.01 22.05,-83.78 45.57,-198.43 66.15,-349.83 20.58,-151.4 38.21,-339.55 23.51,-517.41 -14.7,-177.86 -61.73,-345.42 -123.46,-483.59 -61.74,-138.17 -138.18,-246.95 -130.83,-241.07 7.35,5.88 98.49,126.41 163.17,246.94 64.67,120.53 102.88,241.07 126.4,358.66 23.52,117.59 32.34,232.25 23.52,385.12 -8.82,152.87 -35.28,343.95 -73.5,514.46 -38.22,170.51 -88.19,320.44 -144.04,458.61 -55.86,138.17 -117.6,264.59 -205.79,360.13 -88.19,95.55 -202.85,160.22 -301.33,223.42 -98.49,63.21 -180.8,124.95 -238.13,174.92 -57.33,49.98 -89.66,88.2 -108.77,88.2z"/>
   <path class="fil1" d="M6307.43 25355c12.49,23.52 33.8,36.38 61.37,47.95 27.56,11.58 61.36,21.87 147.35,34.36 85.99,12.5 224.17,27.2 347.06,33.15 122.89,5.95 230.49,3.14 284.3,1.74 53.8,-1.4 53.8,-1.4 7.35,-6.62 -46.46,-5.21 -139.36,-15.63 -260.78,-29.67 -121.42,-14.03 -271.36,-31.67 -361.76,-47.84 -90.4,-16.17 -121.26,-30.87 -142.57,-51.94 -21.32,-21.07 -33.07,-48.5 -20.82,-76.92 12.25,-28.42 48.5,-57.82 57.93,-79.06 9.43,-21.24 -7.98,-34.32 -28.12,-26.47 -20.14,7.85 -43.03,36.64 -62.01,58.37 -18.98,21.73 -34.07,36.4 -39.77,60.83 -5.71,24.43 -2.03,58.6 10.47,82.12z"/>
   <path class="fil1" d="M2630.09 24371.96c-116.12,24.99 -257.24,57.33 -370.42,73.5 -113.18,16.17 -198.44,16.17 -249.88,10.29 -51.45,-5.88 -69.09,-17.64 -36.75,-48.51 32.34,-30.87 114.65,-80.84 214.61,-122 99.95,-41.16 217.55,-73.49 326.32,-95.54 108.77,-22.05 208.73,-33.81 280.76,-49.98 72.02,-16.17 116.11,-36.75 146.98,-29.4 30.87,7.35 48.51,42.62 57.33,60.26 8.82,17.64 8.82,17.64 -5.88,11.76 -14.7,-5.88 -44.1,-17.63 -122,-13.22 -77.91,4.41 -204.32,24.98 -327.79,51.44 -123.47,26.46 -244.01,58.8 -330.73,91.14 -86.73,32.34 -139.64,64.67 -149.93,83.78 -10.29,19.11 22.04,24.99 97.01,17.64 74.96,-7.35 192.56,-27.93 311.62,-52.92 119.06,-24.99 239.6,-54.38 324.86,-79.37 85.25,-24.99 135.22,-45.57 177.85,-110.25 42.63,-64.67 77.9,-173.45 98.48,-292.51 20.58,-119.06 26.46,-248.41 48.51,-373.35 22.05,-124.94 60.27,-245.48 91.1,-340.55 30.82,-95.06 54.25,-164.66 65.97,-199.46 11.71,-34.8 11.71,-34.8 -7.35,58.79 -19.07,93.6 -57.2,280.8 -79.2,425.84 -22.01,145.04 -27.89,247.94 -44.06,355.24 -16.17,107.3 -42.63,219.02 -80.85,304.27 -38.22,85.26 -88.19,144.05 -158.74,182.27 -70.56,38.22 -161.7,55.85 -277.82,80.84z"/>
   <path class="fil0" d="M9160.93 24704.15c-47.04,83.79 -132.29,216.09 -236.65,305.75 -104.37,89.67 -227.84,136.7 -345.43,167.57 -117.59,30.87 -229.31,45.56 -333.67,54.38 -104.36,8.82 -201.38,11.76 -291.04,2.94 -89.67,-8.82 -171.98,-29.39 -235.81,-65.22 -63.84,-35.82 -109.18,-86.88 -151.81,-130.98 -42.63,-44.1 -82.53,-81.23 28.34,-120.38 110.86,-39.14 372.51,-80.29 553.31,-156.73 180.79,-76.43 280.75,-188.15 321.17,-284.43 40.42,-96.28 21.31,-177.12 43.55,-203.58 22.23,-26.46 85.8,1.46 147.98,12.49 62.18,11.03 122.96,5.16 190.39,38.97 67.43,33.81 141.52,107.3 205.02,151.39 63.5,44.1 116.41,58.8 138.46,83.79 22.05,24.99 13.23,60.26 -33.81,144.04z"/>
   <path class="fil1" d="M7885.06 24459.02c129.35,-144.05 311.61,-364.53 464.06,-500.13 152.44,-135.59 275.05,-186.29 373.22,-233.18 98.16,-46.88 171.88,-89.95 98.81,-60.19 -73.07,29.76 -292.91,132.35 -479.27,265.96 -186.36,133.61 -339.23,298.24 -470.05,452.58 -130.82,154.34 -239.6,298.39 -327.13,412.82 -87.54,114.43 -153.83,199.25 -216.98,297.24 -63.15,98 -123.16,209.19 -153.16,264.78 -30,55.59 -30,55.59 46.38,-57.11 76.38,-112.69 229.13,-338.09 343.73,-484.6 114.6,-146.5 191.03,-214.11 320.39,-358.17z"/>
  </g>
 </g>
</svg>
