<?xml version="1.0" encoding="UTF-8"?>
<!DOCTYPE svg PUBLIC "-//W3C//DTD SVG 1.1//EN" "http://www.w3.org/Graphics/SVG/1.1/DTD/svg11.dtd">
<!-- Creator: CorelDRAW 2018 (64-Bit) -->
<svg xmlns="http://www.w3.org/2000/svg" xml:space="preserve" width="210mm" height="297mm" version="1.1" style="shape-rendering:geometricPrecision; text-rendering:geometricPrecision; image-rendering:optimizeQuality; fill-rule:evenodd; clip-rule:evenodd"
viewBox="0 0 21000 29700"
 xmlns:xlink="http://www.w3.org/1999/xlink">
 <defs>
  <style type="text/css">
   <![CDATA[
    .fil1 {fill:#FEFEFE}
    .fil0 {fill:#1F1B20}
   ]]>
  </style>
 </defs>
 <g id="Слой_x0020_1">
  <metadata id="CorelCorpID_0Corel-Layer"/>
  <g id="_2241584733152">
   <path class="fil0" d="M10701.38 2774.86c108.78,117.59 238.13,258.7 364.54,414.51 126.41,155.81 249.89,326.32 338.08,435.1 88.2,108.77 141.11,155.8 202.84,173.44 61.74,17.64 132.3,5.88 199.91,11.76 67.62,5.88 132.29,29.4 170.51,55.86 38.22,26.46 49.98,55.85 141.11,52.91 91.14,-2.94 261.65,-38.21 408.64,-64.67 146.99,-26.46 270.47,-44.1 335.14,-82.32 64.68,-38.22 70.55,-97.01 94.07,-170.5 23.52,-73.5 64.68,-161.7 114.66,-261.65 49.98,-99.95 108.77,-211.67 155.81,-361.6 47.04,-149.93 82.31,-338.07 167.56,-523.28 85.26,-185.21 220.49,-367.48 320.44,-485.07 99.96,-117.6 164.63,-170.51 232.25,-135.23 67.62,35.27 138.17,158.75 208.72,308.68 70.56,149.93 141.12,326.31 188.15,446.85 47.04,120.53 70.56,185.2 73.5,341.02 2.94,155.81 -14.7,402.75 -38.22,646.76 -23.52,244 -52.91,485.07 -41.15,640.88 11.76,155.81 64.67,226.36 97.01,288.1 32.34,61.74 44.1,114.65 61.74,152.87 17.64,38.22 41.15,61.73 129.34,91.13 88.2,29.4 241.07,64.68 391,82.32 149.93,17.64 296.93,17.64 452.74,29.4 155.81,11.76 320.44,35.27 426.27,111.71 105.84,76.43 152.87,205.79 158.75,323.38 5.88,117.59 -29.4,223.43 -67.62,343.96 -38.22,120.53 -79.37,255.77 -99.95,376.3 -20.58,120.53 -20.58,226.37 -41.16,317.5 -20.58,91.13 -61.73,167.57 -117.59,235.19 -55.86,67.61 -126.41,126.4 -191.09,211.66 -64.68,85.25 -123.47,196.97 -188.15,276.35 -64.67,79.37 -135.23,126.4 -241.06,158.74 -105.83,32.34 -246.95,49.98 -361.6,82.32 -114.65,32.34 -202.85,79.37 -244.01,158.75 -41.15,79.37 -35.27,191.09 -23.51,376.3 11.76,185.2 29.39,443.91 47.03,687.92 17.64,244 35.28,473.3 23.52,664.39 -11.76,191.09 -52.91,343.96 -61.73,452.74 -8.82,108.77 14.69,173.44 35.27,388.05 20.58,214.61 38.22,579.14 76.44,867.25 38.22,288.1 97.01,499.76 179.32,646.76 82.32,146.99 188.16,229.3 229.31,385.11 41.16,155.81 17.64,385.12 -23.52,714.38 -41.15,329.25 -99.95,758.47 -249.88,1146.53 -149.93,388.05 -390.99,734.95 -532.11,978.96 -141.11,244 -182.26,385.11 -223.42,676.15 -41.16,291.04 -82.31,732.02 -82.31,1149.47 0,417.46 41.15,811.39 141.1,1275.88 99.96,464.5 258.71,999.54 343.96,1334.68 85.26,335.14 97.02,470.38 97.02,602.67 0,132.29 -11.76,261.64 0,393.93 11.76,132.29 47.03,267.53 170.5,490.95 123.48,223.43 335.14,535.05 452.73,705.56 117.6,170.51 141.12,199.9 249.89,211.66 108.78,11.76 302.8,5.88 461.55,2.94 158.75,-2.94 282.23,-2.94 385.12,44.1 102.89,47.04 185.21,141.11 258.7,235.18 73.5,94.08 138.17,188.16 161.69,279.29 23.52,91.13 5.88,179.33 -20.58,246.94 -26.46,67.62 -61.73,114.65 -79.37,138.17 -17.64,23.52 -17.64,23.52 -129.36,20.58 -111.71,-2.94 -335.13,-8.81 -635,0.01 -299.86,8.82 -676.15,32.33 -893.7,11.75 -217.55,-20.58 -276.34,-85.25 -352.78,-191.09 -76.43,-105.83 -170.51,-252.82 -235.19,-355.72 -64.67,-102.89 -99.94,-161.68 -135.22,-229.3 -35.28,-67.61 -70.55,-144.05 -126.41,-244 -55.86,-99.95 -132.29,-223.43 -214.61,-341.02 -82.31,-117.59 -170.51,-229.31 -249.89,-273.41 -79.37,-44.09 -149.92,-20.58 -226.36,-58.8 -76.43,-38.21 -158.75,-138.17 -199.91,-241.06 -41.15,-102.89 -41.15,-208.73 -76.43,-396.88 -35.28,-188.14 -105.83,-458.61 -176.39,-676.16 -70.56,-217.54 -141.11,-382.17 -229.31,-652.64 -88.19,-270.46 -194.03,-646.75 -246.95,-834.9 -52.91,-188.15 -52.91,-188.15 -8.82,73.49 44.1,261.65 132.3,784.94 176.39,1117.14 44.1,332.2 44.1,473.31 17.64,593.84 -26.46,120.53 -79.37,220.49 -73.49,391 5.88,170.51 70.55,411.57 170.5,652.63 99.96,241.07 235.2,482.14 338.09,623.25 102.89,141.11 173.45,182.26 238.12,199.9 64.68,17.64 123.47,11.77 196.97,8.83 73.5,-2.94 161.69,-2.94 241.06,73.49 79.38,76.44 149.94,229.31 211.67,376.3 61.74,146.99 114.65,288.1 132.29,379.23 17.64,91.14 0.01,132.29 -38.21,170.51 -38.22,38.22 -97.01,73.5 -226.37,79.38 -129.35,5.88 -329.25,-17.64 -570.32,-26.46 -241.06,-8.82 -523.29,-2.94 -746.72,-2.94 -223.42,0 -388.05,-5.88 -482.13,-58.8 -94.07,-52.91 -117.59,-152.87 -164.63,-320.44 -47.03,-167.57 -117.59,-402.75 -152.87,-520.35 -35.27,-117.59 -35.27,-117.59 -73.49,-249.88 -38.22,-132.29 -114.65,-396.88 -185.21,-587.97 -70.56,-191.08 -135.23,-308.68 -182.27,-467.43 -47.04,-158.75 -76.43,-358.65 -108.77,-546.8 -32.34,-188.15 -67.61,-364.54 -105.83,-520.35 -38.22,-155.81 -79.38,-291.04 -117.6,-499.77 -38.22,-208.72 -73.49,-490.95 -99.95,-679.1 -26.46,-188.14 -44.1,-282.22 -52.92,-329.26 -8.82,-47.03 -8.82,-47.03 -167.57,-2.94 -158.75,44.1 -476.25,132.3 -711.43,261.65 -235.19,129.35 -388.06,299.86 -555.63,508.58 -167.57,208.73 -349.83,455.68 -485.06,673.22 -135.24,217.55 -223.43,405.7 -320.44,587.97 -97.02,182.27 -202.86,358.66 -261.65,520.35 -58.8,161.69 -70.56,308.68 -76.44,385.11 -5.88,76.44 -5.88,82.32 108.78,52.92 114.65,-29.4 343.95,-94.07 564.44,-138.17 220.49,-44.1 432.15,-67.61 682.04,-44.1 249.88,23.52 537.99,94.08 749.66,155.81 211.66,61.74 346.89,114.65 514.46,158.75 167.57,44.1 367.47,79.38 505.64,144.05 138.18,64.68 214.61,158.76 264.59,267.53 49.98,108.77 73.5,232.25 67.62,338.08 -5.88,105.83 -41.16,194.03 -132.3,267.52 -91.13,73.5 -238.12,132.29 -311.62,161.69 -73.49,29.4 -73.49,29.4 -167.57,35.28 -94.07,5.88 -282.21,17.64 -596.77,23.52 -314.56,5.88 -755.54,5.88 -1355.26,-11.76 -599.72,-17.64 -1358.2,-52.92 -1755.07,-70.56 -396.88,-17.64 -432.15,-17.64 -461.55,14.7 -29.4,32.34 -52.92,97.01 -91.14,155.81 -38.22,58.8 -91.13,111.71 -305.74,99.95 -214.61,-11.75 -590.9,-88.19 -1070.09,-149.93 -479.19,-61.73 -1061.28,-108.77 -1514.01,-141.11 -452.73,-32.34 -776.11,-49.97 -973.07,-64.67 -196.97,-14.7 -267.53,-26.46 -320.44,-91.14 -52.92,-64.67 -88.2,-182.27 -55.86,-355.72 32.33,-173.45 132.29,-402.75 167.57,-561.5 35.27,-158.75 5.88,-246.95 -41.16,-317.51 -47.04,-70.55 -111.71,-123.46 -138.17,-226.36 -26.46,-102.89 -14.7,-255.76 23.52,-388.05 38.22,-132.29 102.89,-244.01 138.17,-302.81 35.28,-58.79 41.16,-64.67 17.64,-249.88 -23.52,-185.21 -76.43,-549.74 -79.37,-805.51 -2.94,-255.76 44.09,-402.76 129.35,-611.49 85.25,-208.72 208.72,-479.19 411.57,-896.64 202.84,-417.45 485.07,-981.9 752.59,-1437.57 267.52,-455.67 520.35,-802.57 843.73,-1184.74 323.38,-382.18 717.31,-799.64 1014.24,-1090.68 296.92,-291.04 496.82,-455.67 667.33,-590.9 170.51,-135.23 311.62,-241.07 464.49,-402.76 152.87,-161.69 317.5,-379.23 426.28,-526.22 108.77,-146.99 161.68,-223.43 279.28,-338.08 117.59,-114.65 299.86,-267.53 508.59,-440.98 208.73,-173.45 443.91,-367.47 573.27,-526.22 129.35,-158.75 152.86,-282.23 146.98,-402.76 -5.88,-120.53 -41.15,-238.13 29.41,-367.48 70.55,-129.35 246.93,-270.46 405.68,-370.41 158.75,-99.96 299.87,-158.75 438.04,-291.04 138.17,-132.3 273.4,-338.08 364.54,-490.95 91.13,-152.87 138.16,-252.83 155.8,-349.84 17.64,-97.01 5.89,-191.09 0.01,-308.68 -5.88,-117.59 -5.88,-258.71 2.94,-376.3 8.82,-117.59 26.45,-211.67 38.21,-364.54 11.76,-152.87 17.64,-364.53 61.74,-582.08 44.1,-217.55 126.41,-440.97 167.57,-585.02 41.16,-144.06 41.16,-208.73 -8.81,-302.8 -49.98,-94.08 -149.94,-217.56 -238.13,-358.67 -88.2,-141.11 -164.63,-299.86 -241.07,-449.79 -76.44,-149.93 -152.87,-291.04 -205.79,-485.06 -52.92,-194.03 -82.31,-440.98 -102.89,-690.86 -20.58,-249.89 -32.34,-502.71 -61.74,-781.99 -29.4,-279.29 -76.43,-585.03 -105.83,-796.69 -29.4,-211.67 -41.16,-329.27 32.34,-393.94 73.49,-64.68 232.24,-76.44 393.93,-8.82 161.69,67.61 326.32,214.61 452.74,335.14 126.41,120.53 214.6,214.61 323.37,332.2z"/>
   <path class="fil1" d="M13668.04 15473.68c-147.35,165.83 -323.74,389.25 -470.73,568.58 -146.99,179.33 -264.59,314.57 -358.67,440.98 -94.07,126.41 -164.62,244.01 -238.12,382.18 -73.49,138.17 -149.93,296.92 -191.41,488.22 -41.47,191.3 -47.98,415.15 -51.24,527.07 -3.26,111.93 -3.26,111.93 -8.82,-32.34 -5.56,-144.26 -16.69,-432.78 30.66,-671.12 47.36,-238.34 153.2,-426.49 288.43,-632.28 135.23,-205.78 299.86,-429.21 505.64,-667.34 205.79,-238.12 452.74,-490.94 631.08,-678.6 178.35,-187.66 288.09,-310.16 420.69,-508.58 132.61,-198.43 288.06,-472.79 365.79,-609.97 77.73,-137.18 77.73,-137.18 -25.11,54.18 -102.84,191.35 -308.52,574.05 -470.52,819.51 -162,245.47 -280.31,353.69 -427.67,519.51z"/>
   <path class="fil1" d="M10452.97 17173.12c-89.66,-298.87 -177.86,-622.25 -289.57,-830.98 -111.71,-208.72 -246.95,-302.8 -332.2,-408.63 -85.26,-105.83 -120.53,-223.43 -79.37,-408.64 41.15,-185.21 158.75,-438.03 217.55,-564.45 58.79,-126.41 58.79,-126.41 5.87,-38.22 -52.92,88.2 -158.75,264.59 -220.49,391 -61.74,126.42 -79.37,202.85 -88.19,305.74 -8.82,102.9 -8.82,232.25 38.22,326.32 47.03,94.08 141.11,152.87 226.37,246.94 85.25,94.08 161.68,223.44 246.94,429.22 85.25,205.79 179.33,488.02 271.93,733.98 92.6,245.96 183.74,455.65 229.3,560.5 45.57,104.85 45.57,104.85 0,-32.34 -45.56,-137.18 -136.7,-411.56 -226.36,-710.44z"/>
   <path class="fil1" d="M6118.21 16985.96c299.86,-5.88 570.33,41.15 831.97,179.32 261.64,138.18 514.47,367.48 679.1,590.91 164.63,223.43 241.06,440.97 276.34,655.58 35.28,214.61 29.4,426.27 -114.65,734.95 -144.05,308.68 -426.28,714.38 -831.97,1043.64 -405.7,329.26 -934.86,582.08 -1343.49,752.59 -408.64,170.51 -696.75,258.71 -840.8,302.8 -144.05,44.1 -144.05,44.1 76.44,32.34 220.48,-11.76 661.46,-35.27 993.66,-17.64 332.2,17.64 555.62,76.44 693.8,167.57 138.17,91.13 191.08,214.61 224.4,366.98 33.32,152.38 47.04,333.67 53.9,424.31 6.86,90.64 6.86,90.64 8.82,8.82 1.96,-81.82 5.87,-245.47 -3.93,-389.03 -9.8,-143.55 -33.31,-267.03 -95.04,-366.98 -61.74,-99.95 -161.7,-176.39 -329.27,-226.37 -167.57,-49.97 -402.75,-73.49 -646.75,-76.43 -244.01,-2.94 -496.84,14.7 -623.25,23.52 -126.41,8.82 -126.41,8.82 17.64,-32.34 144.05,-41.16 432.15,-123.47 696.74,-220.49 264.58,-97.01 505.64,-208.73 767.29,-364.54 261.64,-155.81 543.87,-355.71 802.57,-640.88 258.7,-285.16 493.89,-655.57 602.66,-996.59 108.77,-341.02 91.14,-652.64 -49.97,-952.5 -141.11,-299.86 -405.7,-587.97 -702.62,-782 -296.92,-194.02 -626.18,-293.98 -996.6,-317.5 -370.42,-23.51 -781.99,29.4 -1155.35,155.81 -373.36,126.42 -708.49,326.32 -876.06,426.27 -167.57,99.96 -167.57,99.96 14.7,23.52 182.27,-76.43 546.8,-229.3 893.7,-335.14 346.9,-105.83 676.16,-164.62 976.02,-170.5z"/>
   <path class="fil1" d="M8643.53 21244.29c244,30.87 629.11,51.44 967.19,47.03 338.08,-4.41 629.12,-33.8 840.56,-56.68 211.44,-22.88 343.27,-39.25 436.64,-40.53 93.37,-1.28 148.28,12.53 175.73,19.43 27.45,6.9 27.45,6.9 27.07,6.79 -0.38,-0.1 -1.15,-0.31 -47.48,0.97 -46.33,1.28 -138.24,4.05 -245.93,20.13 -107.68,16.09 -231.15,45.48 -444.28,69 -213.14,23.52 -515.95,41.16 -823.16,42.63 -307.21,1.47 -618.83,-13.23 -856.95,-57.33 -238.13,-44.1 -402.76,-117.59 -478.21,-179.33 -75.46,-61.74 -61.75,-111.73 -54.89,-136.72 6.86,-24.99 6.86,-24.99 14.7,4.41 7.84,29.4 23.53,88.21 82.82,138.19 59.28,49.98 162.18,91.14 406.19,122.01z"/>
  </g>
 </g>
</svg>
