<?xml version="1.0" encoding="UTF-8"?>
<!DOCTYPE svg PUBLIC "-//W3C//DTD SVG 1.1//EN" "http://www.w3.org/Graphics/SVG/1.1/DTD/svg11.dtd">
<!-- Creator: CorelDRAW 2018 (64-Bit) -->
<svg xmlns="http://www.w3.org/2000/svg" xml:space="preserve" width="210mm" height="297mm" version="1.1" style="shape-rendering:geometricPrecision; text-rendering:geometricPrecision; image-rendering:optimizeQuality; fill-rule:evenodd; clip-rule:evenodd"
viewBox="0 0 21000 29700"
 xmlns:xlink="http://www.w3.org/1999/xlink">
 <defs>
  <style type="text/css">
   <![CDATA[
    .fil1 {fill:#FEFEFE}
    .fil0 {fill:#1F1B20}
   ]]>
  </style>
 </defs>
 <g id="Слой_x0020_1">
  <metadata id="CorelCorpID_0Corel-Layer"/>
  <g id="_2752422431040">
   <path class="fil0" d="M3376.3 3188.05c122.78,52.04 272.26,118.77 488.48,236.23 216.22,117.45 499.17,285.62 718.06,425.76 218.88,140.14 373.7,252.25 469.81,327 96.09,74.74 133.45,112.11 152.14,130.8 18.69,18.68 18.69,18.68 73.41,16.01 54.72,-2.66 164.17,-8 218.89,-10.67 54.72,-2.67 54.72,-2.67 70.74,-69.4 16.01,-66.74 48.05,-200.22 104.11,-375.05 56.05,-174.85 136.13,-391.07 206.88,-579.25 70.73,-188.19 132.12,-348.35 189.51,-477.82 57.4,-129.46 110.78,-228.23 165.51,-288.29 54.72,-60.06 110.77,-81.42 162.83,-81.42 52.05,0 100.09,21.36 174.84,61.4 74.74,40.04 176.18,98.77 272.27,214.89 96.1,116.11 186.86,289.61 264.28,457.79 77.4,168.17 141.46,331 218.88,539.21 77.41,208.21 168.17,461.8 222.9,655.33 54.71,193.52 73.41,327 74.74,443.11 1.34,116.12 -14.67,214.89 -36.03,293.64 -21.35,78.74 -48.05,137.46 -65.4,174.84 -17.35,37.37 -25.36,53.39 9.34,121.46 34.71,68.06 112.11,188.18 200.21,349.68 88.08,161.5 186.85,364.36 336.34,627.3 149.48,262.93 349.68,585.91 559.23,871.53 209.54,285.63 428.43,533.88 636.64,703.39 208.2,169.49 405.73,260.26 605.94,375.04 200.2,114.78 403.07,253.58 581.91,353.69 178.85,100.1 333.68,161.49 467.14,214.88 133.47,53.39 245.58,98.76 437.77,164.16 192.19,65.4 464.48,150.82 722.07,213.56 257.59,62.72 500.5,102.75 708.71,137.46 208.21,34.7 381.71,64.06 600.59,77.41 218.9,13.34 483.17,10.67 675.36,8 192.19,-2.67 312.31,-5.33 489.82,4.02 177.51,9.34 412.42,30.69 565.91,44.04 153.48,13.34 225.55,18.68 298.96,8 73.41,-10.67 148.15,-37.36 222.89,-93.42 74.75,-56.06 149.49,-141.48 253.59,-261.59 104.11,-120.13 237.58,-274.95 352.36,-403.07 114.78,-128.13 210.88,-229.57 363.03,-423.1 152.16,-193.53 360.36,-479.15 503.17,-678.01 142.81,-198.87 220.23,-310.99 284.29,-387.06 64.06,-76.08 114.78,-116.12 153.48,-122.79 38.71,-6.67 65.4,20.01 65.4,72.07 0,52.05 -26.69,129.46 -76.07,256.26 -49.39,126.8 -121.46,302.97 -201.54,513.85 -80.08,210.87 -168.17,456.46 -261.6,660.67 -93.42,204.2 -192.2,367.02 -296.3,585.91 -104.1,218.89 -213.54,493.84 -282.95,678.02 -69.4,184.18 -98.76,277.62 -114.78,332.34 -16.02,54.72 -18.68,70.73 -16.02,86.74 2.67,16.02 10.68,32.04 37.38,70.74 26.69,38.71 72.07,100.1 124.12,176.18 52.06,76.08 110.78,166.84 161.5,288.29 50.72,121.46 93.42,273.61 138.8,465.81 45.39,192.18 93.43,424.42 142.81,612.62 49.39,188.18 100.1,332.32 177.51,505.83 77.42,173.5 181.53,376.38 294.97,571.24 113.45,194.86 236.24,381.71 408.41,600.6 172.18,218.88 393.73,469.81 556.56,776.78 162.83,306.97 266.93,670.01 314.98,939.61 48.05,269.6 40.05,445.78 21.36,723.39 -18.69,277.62 -48.05,656.67 -90.76,991.67 -42.72,335 -98.77,625.95 -160.17,831.49 -61.39,205.54 -128.12,325.67 -218.88,401.74 -90.75,76.08 -205.54,108.11 -325.66,118.79 -120.12,10.68 -245.58,0 -345.69,-22.69 -100.09,-22.69 -174.83,-57.39 -229.56,-74.74 -54.72,-17.35 -89.42,-17.35 -137.47,-25.36 -48.05,-8.01 -109.44,-24.02 -148.15,-61.39 -38.7,-37.37 -54.71,-96.09 -46.7,-168.17 8.01,-72.07 40.03,-157.49 74.73,-241.58 34.71,-84.08 72.07,-166.83 120.12,-238.91 48.05,-72.07 106.77,-133.46 141.48,-177.51 34.7,-44.04 45.38,-70.73 61.4,-117.45 16.01,-46.71 37.36,-113.45 61.39,-265.6 24.02,-152.14 50.72,-389.72 66.74,-551.22 16.01,-161.5 21.35,-246.91 17.35,-309.65 -4.01,-62.73 -17.35,-102.76 -180.19,-264.26 -162.83,-161.5 -475.14,-444.45 -715.39,-659.33 -240.24,-214.88 -408.4,-361.7 -405.73,-359.03 2.67,2.67 176.17,154.83 262.92,230.91 86.76,76.07 86.76,76.07 72.08,148.15 -14.69,72.06 -44.04,216.21 -92.09,403.07 -48.05,186.84 -114.78,416.41 -166.84,607.27 -52.05,190.86 -89.42,343.01 -110.78,440.44 -21.35,97.44 -26.69,140.14 -56.05,178.85 -29.37,38.71 -82.75,73.4 -133.47,112.11 -50.72,38.71 -98.76,81.42 -164.17,104.11 -65.39,22.69 -148.15,25.35 -257.59,28.02 -109.44,2.67 -245.58,5.34 -360.36,2.67 -114.78,-2.67 -208.21,-10.67 -280.29,-24.02 -72.06,-13.34 -122.78,-32.03 -150.81,-49.38 -28.03,-17.35 -33.37,-33.37 -50.72,-58.73 -17.35,-25.36 -46.71,-60.06 -61.4,-108.11 -14.68,-48.05 -14.68,-109.44 17.36,-190.86 32.03,-81.41 96.09,-182.85 188.18,-280.28 92.1,-97.43 212.23,-190.86 285.63,-246.92 73.41,-56.05 100.1,-74.73 130.8,-168.16 30.69,-93.43 65.39,-261.6 93.42,-437.78 28.03,-176.18 49.39,-360.36 48.05,-493.82 -1.33,-133.47 -25.36,-216.22 -74.75,-286.96 -49.37,-70.74 -124.12,-129.46 -213.54,-198.86 -89.42,-69.41 -193.53,-149.49 -305.64,-217.55 -112.11,-68.08 -232.23,-124.13 -349.68,-174.85 -117.45,-50.72 -232.24,-96.09 -357.7,-150.82 -125.46,-54.72 -261.59,-118.78 -365.7,-162.83 -104.11,-44.05 -176.17,-68.06 -301.64,-50.71 -125.46,17.35 -304.3,76.07 -497.83,144.14 -193.53,68.07 -401.74,145.48 -587.26,210.89 -185.52,65.39 -348.34,118.77 -529.86,172.16 -181.52,53.39 -381.71,106.77 -568.57,136.14 -186.86,29.36 -360.37,34.7 -359.03,32.03 1.33,-2.67 177.51,-13.34 265.6,-18.68 88.09,-5.34 88.09,-5.34 77.41,56.06 -10.68,61.39 -32.03,184.18 -69.41,375.04 -37.37,190.85 -90.75,449.78 -162.83,728.73 -72.07,278.95 -162.83,577.91 -242.91,854.19 -80.07,276.28 -149.48,529.86 -186.85,736.73 -37.37,206.88 -42.71,367.04 -45.38,615.29 -2.67,248.26 -2.67,584.59 -64.06,964.97 -61.39,380.39 -184.19,804.81 -292.3,1142.48 -108.1,337.68 -201.54,588.59 -297.63,740.75 -96.09,152.15 -194.87,205.53 -304.31,237.56 -109.44,32.04 -229.56,42.72 -325.65,48.06 -96.11,5.34 -168.17,5.34 -262.93,-4.01 -94.77,-9.34 -212.22,-28.03 -300.3,-81.42 -88.1,-53.38 -146.82,-141.47 -182.86,-237.57 -36.04,-96.09 -49.38,-200.19 -53.39,-288.29 -4,-88.08 1.34,-160.15 24.03,-224.22 22.69,-64.07 62.72,-120.12 126.79,-200.2 64.06,-80.08 152.15,-184.19 241.58,-302.98 89.42,-118.78 180.18,-252.25 244.25,-395.06 64.06,-142.81 101.43,-294.96 110.77,-573.91 9.35,-278.94 -9.34,-684.68 -101.43,-1135.8 -92.1,-451.12 -257.59,-947.62 -340.34,-1195.87 -82.75,-248.24 -82.75,-248.24 -92.1,-94.76 -9.34,153.49 -28.03,460.46 -69.4,776.78 -41.38,316.32 -105.44,641.97 -192.19,1022.35 -86.76,380.39 -196.2,815.49 -276.28,1065.08 -80.08,249.59 -130.79,313.65 -221.55,372.38 -90.76,58.73 -221.57,112.11 -395.07,169.49 -173.51,57.4 -389.73,118.8 -584.59,154.83 -194.86,36.03 -368.37,46.71 -492.5,-8.01 -124.12,-54.72 -198.87,-174.84 -218.88,-351.02 -20.02,-176.18 14.67,-408.41 80.08,-556.56 65.39,-148.14 161.49,-212.21 260.26,-284.29 98.76,-72.07 200.2,-152.14 272.28,-213.54 72.07,-61.4 114.77,-104.11 153.48,-196.2 38.71,-92.09 73.4,-233.57 92.09,-448.46 18.68,-214.87 21.35,-503.16 26.69,-766.09 5.34,-262.93 13.35,-500.5 -8.01,-700.71 -21.35,-200.19 -72.06,-363.02 -161.48,-707.36 -89.43,-344.35 -217.56,-870.22 -293.63,-1167.85 -76.08,-297.63 -100.11,-367.04 -134.81,-435.1 -34.71,-68.07 -80.08,-134.8 -148.14,-270.94 -68.08,-136.14 -158.84,-341.68 -218.89,-649.99 -60.07,-308.31 -89.42,-719.39 -85.42,-1177.18 4,-457.79 41.37,-962.3 49.38,-1287.96 8.01,-325.66 -13.34,-472.47 -53.38,-633.97 -40.05,-161.5 -98.77,-337.68 -158.83,-496.5 -60.07,-158.83 -121.46,-300.31 -194.86,-437.78 -73.41,-137.47 -158.83,-270.94 -208.21,-337.66 -49.39,-66.74 -62.74,-66.74 -98.77,-58.73 -36.04,8 -94.76,24.02 -204.2,64.06 -109.45,40.05 -269.61,104.11 -445.79,178.85 -176.18,74.74 -368.36,160.17 -560.56,249.58 -192.19,89.42 -384.38,182.86 -548.55,242.92 -164.16,60.06 -300.31,86.74 -435.11,101.43 -134.8,14.68 -268.27,17.35 -399.07,9.34 -130.79,-8.01 -258.92,-26.69 -357.69,-32.03 -98.77,-5.34 -168.17,2.66 -226.9,6.67 -58.72,4 -106.77,4 -166.82,-22.68 -60.07,-26.7 -132.14,-80.09 -205.55,-149.49 -73.41,-69.4 -148.15,-154.82 -204.21,-221.56 -56.06,-66.74 -93.42,-114.78 -118.78,-157.49 -25.36,-42.71 -38.71,-80.08 -33.37,-121.45 5.34,-41.38 29.37,-86.76 77.42,-125.46 48.04,-38.71 120.12,-70.74 174.84,-94.76 54.72,-24.03 92.09,-40.04 144.15,-78.75 52.04,-38.71 118.78,-100.1 201.53,-173.5 82.74,-73.42 181.52,-158.84 290.96,-257.6 109.44,-98.77 229.57,-210.88 318.99,-302.97 89.42,-92.09 148.14,-164.16 200.2,-253.58 52.05,-89.43 97.42,-196.21 118.78,-300.31 21.35,-104.11 18.69,-205.54 14.69,-321.65 -4.01,-116.12 -9.35,-246.92 -2.67,-359.04 6.67,-112.11 25.35,-205.54 60.05,-294.96 34.71,-89.42 85.42,-174.84 165.5,-294.96 80.08,-120.12 189.53,-274.94 296.3,-413.75 106.77,-138.81 210.89,-261.6 261.61,-336.33 50.71,-74.75 48.04,-101.44 26.68,-154.83 -21.35,-53.39 -61.39,-133.46 -162.82,-316.32 -101.44,-182.85 -264.27,-468.47 -416.43,-731.4 -152.15,-262.93 -293.63,-503.18 -373.7,-653.98 -80.09,-150.82 -98.77,-212.22 -72.08,-248.25 26.7,-36.04 98.76,-46.72 182.84,-33.37 84.09,13.34 180.18,50.7 302.97,102.76z"/>
   <path class="fil1" d="M16530.18 15148.03c-85.65,-84.08 -254.7,-223.53 -405.95,-343.96 -151.26,-120.44 -284.72,-221.88 -402.17,-315.31 -117.45,-93.42 -218.89,-178.85 -306.99,-252.25 -88.08,-73.41 -162.82,-134.8 -217.55,-184.19 -54.72,-49.38 -89.42,-86.75 -108.1,-106.77 -18.69,-20.02 -21.36,-22.69 -109.45,-20.02 -88.09,2.67 -261.59,10.68 -491.63,1.81 -230.04,-8.87 -516.62,-34.62 -672.79,-48.7 -156.16,-14.07 -181.92,-16.47 -143.99,-2.42 37.93,14.04 139.52,44.51 238.29,66.59 98.79,22.08 194.72,35.78 322.78,47.96 128.05,12.18 288.22,22.85 427.02,30.85 138.81,8.01 256.26,13.35 351.02,40.05 94.77,26.69 166.83,74.74 257.59,154.82 90.76,80.08 200.21,192.2 331.01,302.97 130.8,110.78 282.95,220.23 441.78,340.35 158.82,120.12 324.32,250.91 421.97,324.32 97.66,73.4 127.47,89.41 141.25,83.05 13.78,-6.35 11.55,-35.06 -74.09,-119.15z"/>
   <path class="fil1" d="M6620.96 14068.16c35,31.46 131.57,153.97 303.99,299.31 172.41,145.35 420.67,313.51 642.23,429.63 221.55,116.12 416.41,180.18 561.89,222.89 145.48,42.71 241.58,64.07 313.66,97.44 72.06,33.36 120.11,78.74 166.82,194.86 46.72,116.12 92.09,302.96 115.9,480.69 23.81,177.73 26.04,346.33 27.68,422.62 1.62,76.29 2.66,60.28 -17.15,-38.7 -19.8,-98.98 -60.44,-280.94 -94.1,-427.96 -33.67,-147.03 -60.36,-259.14 -104.4,-349.9 -44.05,-90.76 -105.44,-160.16 -181.51,-205.54 -76.08,-45.38 -166.85,-66.73 -281.63,-96.1 -114.78,-29.36 -253.58,-66.73 -379.04,-121.45 -125.46,-54.72 -237.58,-126.8 -343.02,-192.2 -105.43,-65.4 -204.21,-124.12 -301.64,-192.18 -97.42,-68.08 -193.53,-145.49 -261.88,-219.66 -68.35,-74.17 -108.98,-145.1 -142.58,-210.36 -33.61,-65.27 -60.21,-124.85 -25.22,-93.39z"/>
  </g>
 </g>
</svg>
