<?xml version="1.0" encoding="UTF-8"?>
<!DOCTYPE svg PUBLIC "-//W3C//DTD SVG 1.1//EN" "http://www.w3.org/Graphics/SVG/1.1/DTD/svg11.dtd">
<!-- Creator: CorelDRAW 2018 (64-Bit) -->
<svg xmlns="http://www.w3.org/2000/svg" xml:space="preserve" width="210mm" height="297mm" version="1.1" style="shape-rendering:geometricPrecision; text-rendering:geometricPrecision; image-rendering:optimizeQuality; fill-rule:evenodd; clip-rule:evenodd"
viewBox="0 0 21000 29700"
 xmlns:xlink="http://www.w3.org/1999/xlink">
 <defs>
  <style type="text/css">
   <![CDATA[
    .str0 {stroke:#1F1B20;stroke-width:200;stroke-miterlimit:22.9256}
    .fil2 {fill:none}
    .fil1 {fill:#FEFEFE}
    .fil0 {fill:#1F1B20}
   ]]>
  </style>
 </defs>
 <g id="Слой_x0020_1">
  <metadata id="CorelCorpID_0Corel-Layer"/>
  <g id="_2240318835104">
   <g>
    <path class="fil0" d="M6540.69 9833.64c104.87,5.83 198.08,0 297.11,2.91 99.04,2.92 203.9,14.57 294.2,61.18 90.3,46.6 166.04,128.16 238.86,174.77 72.82,46.6 142.73,58.25 244.68,61.16 101.95,2.92 235.94,-2.9 419.45,26.23 183.51,29.12 416.54,93.2 570.92,139.81 154.38,46.61 230.12,75.73 294.2,81.56 64.08,5.82 116.52,-11.65 168.94,-37.87 52.43,-26.21 104.87,-61.17 171.86,-61.17 67,0 148.56,34.96 247.6,61.17 99.04,26.22 215.55,43.69 367.02,93.22 151.46,49.51 337.89,131.07 460.23,183.51 122.33,52.43 180.6,75.73 224.29,93.2 43.69,17.48 72.82,29.14 99.03,58.27 26.22,29.12 49.52,75.73 46.61,163.12 -2.91,87.38 -32.04,215.55 -96.13,410.71 -64.08,195.16 -163.11,457.31 -267.98,623.35 -104.86,166.03 -215.55,235.94 -302.93,305.85 -87.39,69.9 -151.47,139.82 -212.64,160.21 -61.17,20.38 -119.43,-8.74 -163.12,-104.87 -43.7,-96.12 -72.82,-259.24 -87.39,-340.8 -14.56,-81.56 -14.56,-81.56 -49.51,2.91 -34.96,84.47 -104.87,253.42 -148.56,416.54 -43.69,163.12 -61.17,320.42 -55.35,466.06 5.83,145.64 34.95,279.63 81.56,393.23 46.61,113.6 110.69,206.81 203.91,291.29 93.2,84.47 215.55,160.2 369.93,256.33 154.38,96.13 340.8,212.64 538.88,334.97 198.07,122.35 407.8,250.52 608.78,425.28 200.99,174.78 393.24,396.15 661.22,702 267.99,305.85 611.7,696.17 801.04,952.51 189.34,256.33 224.29,378.67 300.02,524.31 75.74,145.65 192.25,314.59 291.29,492.27 99.03,177.69 180.59,364.11 230.11,576.75 49.52,212.64 67,451.49 75.74,570.92 8.73,119.43 8.73,119.43 93.21,128.17 84.47,8.74 253.42,26.21 396.15,11.65 142.73,-14.57 259.24,-61.17 346.63,-116.52 87.38,-55.34 145.64,-119.42 215.55,-198.07 69.91,-78.65 151.47,-171.86 238.85,-247.59 87.39,-75.74 180.6,-134 250.51,-180.6 69.91,-46.61 116.52,-81.56 186.42,-99.04 69.91,-17.47 163.12,-17.47 271.26,-5.82 108.15,11.65 231.23,34.95 292.77,46.6 61.55,11.65 61.55,11.65 17.48,37.87 -44.06,26.21 -132.19,78.65 -228.69,122.34 -96.49,43.69 -201.35,78.65 -294.56,151.47 -93.21,72.82 -174.77,183.51 -262.16,291.28 -87.38,107.78 -180.59,212.64 -311.67,320.42 -131.08,107.77 -300.03,218.46 -436.94,282.54 -136.9,64.09 -241.76,81.57 -343.71,96.13 -101.95,14.57 -200.98,26.21 -267.98,32.04 -67,5.83 -101.95,5.83 -125.25,2.91 -23.31,-2.91 -34.96,-8.74 -90.3,78.65 -55.35,87.39 -154.39,267.98 -270.9,396.14 -116.51,128.17 -250.51,203.91 -372.85,253.43 -122.33,49.52 -233.02,72.82 -270.89,107.77 -37.87,34.96 -2.91,81.57 26.21,136.91 29.13,55.34 52.43,119.42 37.87,168.94 -14.56,49.52 -67,84.47 -198.07,157.29 -131.08,72.83 -340.81,183.52 -588.4,291.29 -247.59,107.78 -533.06,212.64 -704.92,273.81 -171.85,61.17 -230.11,78.65 -343.71,87.39 -113.6,8.74 -282.54,8.74 -399.06,-14.57 -116.51,-23.3 -180.6,-69.91 -221.38,-145.64 -40.78,-75.74 -58.25,-180.59 -43.69,-267.98 14.56,-87.39 61.17,-157.3 151.47,-233.03 90.29,-75.73 224.29,-157.29 381.58,-221.38 157.3,-64.08 337.89,-110.69 454.4,-168.94 116.52,-58.26 168.96,-128.17 168.96,-128.17 0,0 -52.44,69.91 -148.57,125.25 -96.12,55.35 -235.93,96.13 -372.83,148.56 -136.91,52.43 -270.9,116.52 -393.24,171.86 -122.34,55.34 -233.03,101.95 -355.37,125.25 -122.34,23.3 -256.33,23.3 -399.06,23.3 -142.73,0 -294.2,0 -413.63,8.74 -119.42,8.74 -206.81,26.22 -250.5,34.96 -43.7,8.73 -43.7,8.73 -58.26,133.99 -14.57,125.25 -43.69,375.76 -78.64,538.88 -34.96,163.12 -75.74,238.85 -160.22,314.59 -84.47,75.73 -212.63,151.46 -349.54,166.03 -136.91,14.57 -282.55,-32.04 -410.71,-87.39 -128.17,-55.34 -238.86,-119.43 -294.2,-198.07 -55.35,-78.65 -55.35,-171.86 -43.69,-285.46 11.65,-113.6 34.95,-247.59 96.12,-396.15 61.17,-148.56 160.21,-311.68 238.86,-530.14 78.64,-218.47 136.9,-492.27 174.77,-702 37.86,-209.73 55.34,-355.37 93.21,-538.88 37.87,-183.51 96.12,-404.89 107.77,-602.96 11.66,-198.08 -23.3,-372.84 -55.34,-509.75 -32.04,-136.9 -61.17,-235.94 -119.42,-320.41 -58.26,-84.47 -145.65,-154.39 -209.73,-209.73 -64.09,-55.34 -104.87,-96.13 -125.25,-116.52 -20.4,-20.38 -20.4,-20.38 -69.91,99.04 -49.52,119.43 -148.56,358.29 -224.3,597.14 -75.73,238.85 -128.17,477.71 -171.86,719.48 -43.69,241.76 -78.64,486.44 -93.2,696.16 -14.57,209.73 -8.74,384.51 -133.99,506.84 -125.26,122.35 -381.59,192.25 -579.66,157.3 -198.08,-34.95 -337.9,-174.78 -399.07,-297.12 -61.16,-122.34 -43.69,-227.2 14.57,-340.8 58.26,-113.6 157.29,-235.94 244.68,-410.71 87.38,-174.77 163.12,-401.97 209.72,-675.78 46.61,-273.81 64.09,-594.22 58.26,-818.51 -5.83,-224.29 -34.95,-352.46 -58.26,-471.89 -23.3,-119.43 -40.78,-230.11 -11.65,-387.41 29.13,-157.29 104.87,-361.19 145.65,-501.01 40.78,-139.82 46.6,-215.55 20.39,-300.02 -26.22,-84.48 -84.48,-177.69 -119.43,-267.99 -34.96,-90.3 -46.61,-177.68 -43.69,-279.63 2.91,-101.95 20.38,-218.46 72.82,-343.72 52.43,-125.25 139.81,-259.24 183.51,-326.24 43.69,-66.99 43.69,-66.99 5.82,-104.86 -37.87,-37.87 -113.6,-113.6 -177.68,-189.34 -64.08,-75.73 -116.52,-151.46 -154.38,-241.76 -37.87,-90.3 -61.17,-195.16 -61.17,-305.85 0,-110.69 23.3,-227.21 14.56,-364.11 -8.74,-136.91 -49.52,-294.2 -69.91,-468.97 -20.39,-174.77 -20.39,-367.02 -11.65,-588.4 8.74,-221.37 26.22,-471.88 37.87,-658.3 11.65,-186.43 17.48,-308.77 20.39,-369.94 2.91,-61.17 2.91,-61.17 -64.08,37.87 -67,99.04 -200.99,297.11 -282.55,384.5 -81.56,87.38 -110.69,64.08 -136.91,-2.91 -26.21,-67 -49.51,-177.69 -93.2,-349.55 -43.7,-171.86 -107.79,-404.89 -157.3,-573.83 -49.52,-168.95 -84.48,-273.81 -78.65,-387.41 5.83,-113.6 52.43,-235.94 75.73,-300.03 23.31,-64.08 23.31,-69.9 72.83,-90.3 49.52,-20.39 148.55,-55.34 221.37,-72.82 72.82,-17.47 119.43,-17.47 166.04,-23.3 46.6,-5.83 93.21,-17.47 174.77,-14.56 81.56,2.91 198.07,20.39 302.93,26.21z"/>
    <path class="fil1" d="M11400.78 17819.24c-71.36,123.8 -135.45,260.71 -179.15,406.35 -43.69,145.64 -66.99,300.02 -58.25,508.29 8.74,208.27 49.52,470.43 80.11,636.47 30.58,166.03 50.97,235.94 45.15,298.56 -5.82,62.63 -37.86,117.97 -83.01,184.96 -45.15,67 -103.41,145.65 -223.3,205.11 -119.88,59.47 -301.38,99.74 -449.35,155.81 -147.96,56.07 -262.39,127.93 -326.29,172 -63.9,44.07 -77.26,60.35 -58.47,44.21 18.79,-16.13 69.73,-64.67 133.63,-108.74 63.89,-44.07 140.74,-83.67 212.15,-117.29 71.41,-33.63 137.38,-61.29 216.45,-93.82 79.08,-32.54 171.27,-69.95 245.17,-103.5 73.91,-33.55 129.52,-63.23 168.87,-117.83 39.35,-54.6 62.42,-134.11 68.13,-204.45 5.71,-70.34 -5.93,-131.52 -21.95,-214.53 -16.03,-83.02 -36.42,-187.88 -52.44,-294.2 -16.02,-106.32 -27.67,-214.09 -36.41,-316.05 -8.74,-101.95 -14.56,-198.07 -11.65,-284 2.91,-85.93 14.57,-161.66 37.86,-251.96 23.31,-90.3 58.27,-195.16 94.67,-278.18 36.42,-83.01 74.28,-144.19 145.65,-235.94 71.37,-91.76 176.22,-214.1 228.65,-275.27 52.44,-61.17 52.44,-61.17 13.11,-5.83 -39.32,55.35 -117.97,166.04 -189.33,289.83z"/>
    <path class="fil1" d="M8869.87 20417.72c-36.09,155.11 -24.43,69.44 10.98,-116.13 35.4,-185.56 94.54,-471.02 134.23,-704.05 39.69,-233.03 59.93,-413.63 118.11,-633.55 58.18,-219.92 154.31,-479.17 232.96,-688.9 78.64,-209.72 139.82,-369.93 176.23,-554.9 36.41,-184.96 48.05,-394.69 53.88,-499.55 5.83,-104.86 5.83,-104.86 7.28,-10.19 1.46,94.66 4.37,284 -13.11,434.01 -17.47,150.02 -55.34,260.7 -100.49,400.52 -45.15,139.82 -97.58,308.76 -145.64,471.88 -48.06,163.13 -91.76,320.42 -129.62,439.84 -37.87,119.43 -69.91,200.99 -92.44,280.37 -22.52,79.38 -35.53,156.57 -83.97,393.11 -48.44,236.54 -132.3,632.43 -168.4,787.54z"/>
    <path class="fil1" d="M9239.18 19321.82c41.04,77.64 108.04,159.2 180.86,213.08 72.82,53.89 151.46,80.11 263.61,90.3 112.14,10.2 257.79,4.37 415.09,10.2 157.29,5.82 326.23,23.3 428.18,39.32 101.95,16.02 136.91,30.59 154.38,37.87 17.48,7.28 17.48,7.28 -65.53,1.46 -83.02,-5.83 -249.05,-17.48 -415.09,-21.85 -166.03,-4.37 -332.06,-1.46 -450.03,5.82 -117.98,7.29 -187.88,18.94 -272.36,16.03 -84.47,-2.92 -183.5,-20.4 -266.99,-20.49 -83.49,-0.08 -151.44,17.23 -185.41,25.88 -33.97,8.65 -33.97,8.65 -23.95,-51.31 10.02,-59.96 30.06,-179.89 51.79,-261.73 21.72,-81.84 45.11,-125.58 64.43,-170.85 19.31,-45.26 34.55,-92.04 42.16,-115.44 7.61,-23.39 7.61,-23.39 15.16,13.47 7.55,36.87 22.65,110.59 63.7,188.24z"/>
   </g>
   <circle class="fil2 str0" cx="9794.5" cy="15120.71" r="6905.63"/>
  </g>
 </g>
</svg>
