<?xml version="1.0" encoding="UTF-8"?>
<!DOCTYPE svg PUBLIC "-//W3C//DTD SVG 1.1//EN" "http://www.w3.org/Graphics/SVG/1.1/DTD/svg11.dtd">
<!-- Creator: CorelDRAW 2018 (64-Bit) -->
<svg xmlns="http://www.w3.org/2000/svg" xml:space="preserve" width="210mm" height="297mm" version="1.1" style="shape-rendering:geometricPrecision; text-rendering:geometricPrecision; image-rendering:optimizeQuality; fill-rule:evenodd; clip-rule:evenodd"
viewBox="0 0 21000 29700"
 xmlns:xlink="http://www.w3.org/1999/xlink">
 <defs>
  <style type="text/css">
   <![CDATA[
    .str0 {stroke:#1F1B20;stroke-width:200;stroke-miterlimit:22.9256}
    .fil2 {fill:none}
    .fil1 {fill:#FEFEFE}
    .fil0 {fill:#1F1B20}
   ]]>
  </style>
 </defs>
 <g id="Слой_x0020_1">
  <metadata id="CorelCorpID_0Corel-Layer"/>
  <g id="_2240318857824">
   <g>
    <path class="fil0" d="M11887.27 10713.53c77.1,-3.79 136.51,-6.32 182.64,-3.79 46.14,2.52 79,10.11 99.22,9.48 20.23,-0.64 27.81,-9.48 39.19,-29.08 11.37,-19.59 26.54,-49.92 39.18,-74.57 12.64,-24.65 22.75,-43.6 29.07,-79.62 6.32,-36.03 8.85,-89.12 10.74,-167.48 1.9,-78.37 3.16,-182.01 8.85,-236.99 5.69,-54.98 15.8,-61.3 20.85,-73.31 5.06,-12.01 5.06,-29.7 5.69,-63.83 0.63,-34.12 1.9,-84.68 2.53,-128.92 0.63,-44.24 0.63,-82.15 4.42,-104.27 3.8,-22.12 11.38,-28.44 29.08,-16.44 17.69,12.01 45.5,42.34 65.72,76.47 20.23,34.13 32.86,72.05 41.08,144.72 8.21,72.68 12.01,180.12 10.74,284.4 -1.26,104.27 -7.58,205.38 -4.42,289.43 3.16,84.06 15.8,151.05 28.44,203.5 12.64,52.46 25.27,90.37 39.18,113.76 13.9,23.38 29.07,32.22 33.49,86.58 4.42,54.35 -1.89,154.2 -10.74,232.56 -8.85,78.37 -20.22,135.25 -27.81,174.43 -7.58,39.18 -11.37,60.67 -18.96,83.42 -7.58,22.75 -18.95,46.76 -30.96,84.05 -12.01,37.28 -24.65,87.85 -37.29,119.45 -12.64,31.59 -25.28,44.23 -33.49,62.56 -8.22,18.32 -12.01,42.34 -18.96,80.26 -6.96,37.91 -17.07,89.74 -29.08,152.3 -12,62.57 -25.9,135.88 -37.91,197.81 -12.01,61.93 -22.12,112.49 -30.97,168.74 -8.85,56.24 -16.43,118.17 -23.38,187.69 -6.95,69.52 -13.27,146.62 -16.43,238.26 -3.16,91.63 -3.16,197.8 9.48,302.08 12.64,104.27 37.91,206.65 62.56,314.72 24.65,108.07 48.66,221.82 61.93,329.26 13.28,107.44 15.8,208.55 30.34,326.1 14.54,117.55 41.08,251.52 51.82,389.92 10.75,138.41 5.69,281.23 -10.74,398.14 -16.43,116.92 -44.24,207.92 -62.57,308.41 -18.33,100.48 -27.17,210.44 -37.28,383.61 -10.11,173.16 -21.49,409.51 -36.66,600.37 -15.17,190.86 -34.12,336.21 -48.66,489.15 -14.53,152.94 -24.65,313.45 -32.23,445.53 -7.59,132.09 -12.64,235.73 -8.85,355.81 3.79,120.07 16.43,256.58 27.81,391.82 11.38,135.24 21.48,269.22 43.6,372.86 22.12,103.65 56.25,176.96 77.1,212.98 20.86,36.02 28.44,34.76 46.77,33.5 18.33,-1.27 47.4,-2.53 73.31,4.42 25.91,6.95 48.66,22.12 61.93,40.44 13.28,18.33 17.06,39.82 28.44,60.04 11.38,20.22 30.34,39.19 42.98,68.25 12.64,29.08 18.95,68.26 11.37,96.06 -7.58,27.81 -29.07,44.24 -63.2,51.19 -34.12,6.96 -80.89,4.43 -164.31,4.43 -83.42,0 -203.5,2.53 -274.28,3.16 -70.78,0.63 -92.26,-0.63 -107.43,-5.69 -15.17,-5.06 -24.01,-13.9 -36.65,-57.51 -12.64,-43.6 -29.07,-121.97 -44.87,-234.46 -15.8,-112.49 -30.97,-259.11 -42.34,-374.76 -11.38,-115.65 -18.97,-200.34 -21.49,-264.8 -2.53,-64.46 0,-108.7 5.05,-145.35 5.06,-36.65 12.64,-65.73 13.91,-109.33 1.26,-43.61 -3.79,-101.75 -5.69,-167.47 -1.9,-65.73 -0.63,-139.04 -9.48,-264.8 -8.85,-125.77 -27.81,-303.98 -42.97,-466.4 -15.17,-162.42 -26.55,-309.03 -37.29,-479.04 -10.75,-169.99 -20.85,-363.38 -25.91,-460.07 -5.06,-96.69 -5.06,-96.69 -22.12,-78.36 -17.06,18.32 -51.19,54.98 -106.81,84.68 -55.61,29.71 -132.71,52.45 -218.66,68.89 -85.95,16.43 -180.74,26.54 -228.14,31.6 -47.4,5.05 -47.4,5.05 -63.2,48.66 -15.79,43.61 -47.39,130.81 -69.51,214.87 -22.12,84.05 -34.76,164.94 -43.61,277.43 -8.85,112.5 -13.9,256.59 -15.17,424.06 -1.26,167.47 1.27,358.33 8.85,509.37 7.58,151.04 20.23,262.27 20.23,336.84 0,74.57 -12.65,112.49 -21.49,157.36 -8.85,44.87 -13.91,96.69 -1.9,182 12.01,85.32 41.08,204.13 58.14,270.49 17.07,66.36 22.12,80.26 58.14,105.54 36.03,25.28 103.02,61.94 149.78,86.58 46.77,24.65 73.31,37.29 93.53,76.47 20.23,39.18 34.13,104.91 39.82,156.1 5.69,51.19 3.16,87.84 -6.95,106.8 -10.11,18.96 -27.81,20.23 -142.83,18.96 -115.02,-1.26 -327.36,-5.05 -439.86,-10.11 -112.48,-5.06 -125.12,-11.38 -133.97,-35.39 -8.85,-24.02 -13.9,-65.73 -15.8,-129.56 -1.9,-63.83 -0.63,-149.77 -0.63,-231.3 0,-81.52 -1.27,-158.63 -5.69,-206.03 -4.42,-47.39 -12.01,-65.08 -25.91,-75.83 -13.91,-10.74 -34.13,-14.53 -48.66,-27.17 -14.54,-12.65 -23.38,-34.13 -27.81,-64.47 -4.42,-30.33 -4.42,-69.51 -0.63,-111.22 3.79,-41.71 11.37,-85.95 20.22,-154.83 8.85,-68.89 18.96,-162.42 23.39,-346.96 4.42,-184.53 3.16,-460.07 -3.8,-743.2 -6.95,-283.12 -19.59,-573.83 -32.23,-728.66 -12.64,-154.84 -25.27,-173.79 -46.13,-196.54 -20.86,-22.76 -49.93,-49.3 -106.81,-80.27 -56.87,-30.96 -141.55,-66.35 -235.09,-89.74 -93.53,-23.38 -195.91,-34.75 -254.05,-40.44 -58.14,-5.69 -72.04,-5.69 -69.51,43.6 2.52,49.3 21.48,147.89 21.48,274.28 0,126.4 -18.96,280.59 -64.46,400.67 -45.5,120.07 -117.55,206.02 -206.02,315.35 -88.48,109.34 -193.39,242.05 -283.13,343.16 -89.74,101.12 -164.31,170.64 -211.71,248.37 -47.4,77.73 -67.62,163.68 -77.1,234.46 -9.48,70.78 -8.21,126.4 5.69,191.49 13.9,65.1 40.44,139.66 66.36,209.81 25.91,70.15 51.18,135.88 96.69,211.09 45.5,75.2 111.22,159.88 152.31,208.54 41.07,48.67 57.5,61.31 78.36,74.58 20.85,13.27 46.13,27.17 78.36,44.24 32.23,17.06 71.41,37.28 96.06,70.77 24.65,33.5 34.76,80.27 35.39,118.18 0.63,37.92 -8.21,66.99 -33.49,82.79 -25.28,15.8 -66.99,18.33 -160.52,13.28 -93.54,-5.06 -238.89,-17.7 -323.58,-36.66 -84.68,-18.96 -108.69,-44.23 -127.65,-82.15 -18.96,-37.92 -32.86,-88.48 -53.72,-174.43 -20.86,-85.94 -48.66,-207.29 -66.99,-290.71 -18.33,-83.41 -27.17,-128.92 -50.55,-176.95 -23.39,-48.03 -61.31,-98.59 -82.79,-141.56 -21.49,-42.98 -26.55,-78.36 -32.24,-108.07 -5.68,-29.7 -12,-53.72 -19.58,-75.2 -7.59,-21.49 -16.44,-40.45 -23.39,-80.26 -6.95,-39.82 -12.01,-100.49 -22.75,-149.78 -10.75,-49.29 -27.17,-87.21 -40.45,-127.03 -13.27,-39.81 -23.38,-81.52 -20.85,-116.28 2.53,-34.76 17.69,-62.56 42.97,-90.37 25.28,-27.81 60.67,-55.61 99.23,-97.96 38.54,-42.34 80.25,-99.22 121.33,-151.04 41.08,-51.82 81.53,-98.59 114.39,-146.62 32.86,-48.03 58.14,-97.32 65.72,-201.6 7.59,-104.27 -2.52,-263.53 -17.69,-374.76 -15.17,-111.22 -35.39,-174.42 -60.04,-239.51 -24.65,-65.09 -53.72,-132.09 -78.36,-159.26 -24.65,-27.18 -44.87,-14.54 -83.42,3.16 -38.55,17.7 -95.43,40.44 -152.94,90.37 -57.51,49.93 -115.65,127.03 -191.49,226.88 -75.84,99.85 -169.37,222.46 -231.93,307.14 -62.57,84.68 -94.17,131.45 -164.95,197.18 -70.78,65.72 -180.74,150.4 -296.39,251.51 -115.65,101.12 -236.99,218.67 -313.46,299.56 -76.47,80.9 -108.07,125.13 -146.61,183.91 -38.56,58.77 -84.06,132.08 -113.13,189.59 -29.07,57.51 -41.71,99.22 -55.61,155.47 -13.91,56.24 -29.08,127.02 -39.19,190.85 -10.11,63.83 -15.16,120.71 -12,218.03 3.16,97.32 14.53,235.1 22.75,306.51 8.21,71.41 13.27,76.47 36.65,84.68 23.38,8.22 65.1,19.59 99.22,36.02 34.13,16.44 60.67,37.92 74.57,64.46 13.91,26.55 15.17,58.15 16.44,84.69 1.26,26.54 2.52,48.03 0.63,72.68 -1.9,24.65 -6.95,52.45 -22.12,72.04 -15.17,19.59 -40.45,30.97 -53.09,36.65 -12.64,5.69 -12.64,5.69 -82.15,2.53 -69.52,-3.16 -208.55,-9.47 -286.29,-18.32 -77.73,-8.85 -94.16,-20.23 -115.02,-41.08 -20.85,-20.86 -46.13,-51.19 -61.3,-86.58 -15.16,-35.39 -20.22,-75.84 -15.16,-138.41 5.05,-62.56 20.22,-147.24 36.65,-278.06 16.43,-130.82 34.13,-307.77 38.55,-417.74 4.42,-109.96 -4.42,-152.93 -11.38,-196.54 -6.95,-43.6 -12,-87.84 -11.37,-130.19 0.63,-42.34 6.95,-82.78 15.8,-116.28 8.85,-33.5 20.22,-60.04 25.27,-118.18 5.06,-58.14 3.8,-147.88 12.65,-199.07 8.84,-51.19 27.8,-63.82 60.04,-81.52 32.22,-17.7 77.73,-40.45 128.92,-75.84 51.19,-35.39 108.06,-83.42 156.1,-129.56 48.02,-46.13 87.2,-90.37 118.17,-141.56 30.97,-51.19 53.72,-109.33 106.81,-229.4 53.08,-120.08 136.5,-302.08 203.49,-449.33 66.99,-147.25 117.55,-259.75 153.57,-348.22 36.02,-88.48 57.51,-152.94 88.48,-285.65 30.96,-132.71 71.41,-333.68 109.96,-483.46 38.55,-149.78 75.21,-248.37 103.65,-317.88 28.43,-69.52 48.65,-109.97 95.42,-159.26 46.77,-49.29 120.07,-107.44 178.85,-167.47 58.77,-60.04 103.01,-121.97 127.66,-166.85 24.64,-44.86 29.7,-72.67 8.21,-117.54 -21.48,-44.87 -69.52,-106.81 -92.26,-163.05 -22.76,-56.25 -20.23,-106.8 -8.85,-141.56 11.37,-34.76 31.59,-53.72 60.03,-66.36 28.44,-12.64 65.1,-18.96 106.81,1.9 41.71,20.85 88.48,68.89 131.45,114.39 42.97,45.5 82.16,88.47 101.75,109.96 19.59,21.48 19.59,21.48 46.76,20.85 27.17,-0.63 81.53,-1.89 154.84,-15.8 73.31,-13.9 165.57,-40.44 295.76,-63.83 130.19,-23.38 298.29,-43.6 429.11,-76.46 130.82,-32.87 224.35,-78.37 331.78,-141.57 107.44,-63.19 228.78,-144.09 359.6,-247.1 130.81,-103.01 271.11,-228.14 362.74,-314.72 91.64,-86.58 134.62,-134.61 175.69,-204.76 41.08,-70.15 80.26,-162.42 109.33,-245.84 29.07,-83.42 48.03,-157.99 66.99,-238.88 18.96,-80.9 37.92,-168.11 54.99,-246.47 17.06,-78.37 32.22,-147.88 51.18,-208.55 18.96,-60.67 41.71,-112.49 54.99,-147.25 13.27,-34.76 17.06,-52.46 12.64,-105.54 -4.43,-53.09 -17.07,-141.56 -30.97,-194.65 -13.91,-53.09 -29.07,-70.78 -36.02,-104.9 -6.96,-34.13 -5.69,-84.69 10.74,-151.05 16.43,-66.36 48.03,-148.51 71.41,-211.08 23.39,-62.56 38.55,-105.54 51.19,-183.9 12.64,-78.36 22.75,-192.12 42.34,-300.19 19.59,-108.07 48.67,-210.44 77.74,-273.64 29.07,-63.2 58.14,-87.21 87.21,-103.65 29.07,-16.43 58.14,-25.27 72.68,-23.38 14.53,1.9 14.53,14.54 11.37,31.6 -3.16,17.06 -9.48,38.55 -14.53,54.35 -5.06,15.8 -8.85,25.91 -15.17,56.25 -6.32,30.33 -15.17,80.89 -18.96,163.05 -3.79,82.15 -2.53,195.91 -2.53,266.06 0,70.15 -1.26,96.69 -2.52,114.38 -1.27,17.7 -2.53,26.54 3.16,35.39 5.68,8.85 18.32,17.7 27.8,25.28 9.48,7.58 15.8,13.91 21.49,24.02 5.69,10.11 10.74,24.01 13.9,39.18 3.16,15.17 4.43,31.6 3.16,48.03 -1.26,16.43 -5.05,32.86 -7.58,42.97 -2.53,10.11 -3.79,13.91 -4.43,17.07 -0.63,3.16 -0.63,5.69 46.77,4.42 47.4,-1.26 142.19,-6.32 219.29,-10.11z"/>
    <path class="fil1" d="M9040.87 15280.81c51.82,-36.02 109.96,-65.09 176.95,-89.11 66.99,-24.01 142.82,-42.97 212.34,-46.76 69.52,-3.79 132.71,7.58 178.85,24.64 46.13,17.07 75.2,39.81 112.49,68.89 37.28,29.07 82.79,64.46 105.54,82.15 22.75,17.7 22.75,17.7 2.52,6.32 -20.22,-11.37 -60.66,-34.12 -101.11,-58.14 -40.44,-24.01 -80.89,-49.29 -116.91,-66.98 -36.03,-17.7 -67.62,-27.81 -103.64,-32.87 -36.03,-5.06 -76.48,-5.06 -125.14,2.53 -48.66,7.58 -105.54,22.75 -159.25,41.08 -53.72,18.33 -104.28,39.81 -158.63,76.46 -54.35,36.66 -112.49,88.49 -178.46,147.9 -65.97,59.42 -139.77,126.44 -176.67,159.95 -36.91,33.51 -36.91,33.51 0.63,-4.42 37.53,-37.93 112.59,-113.8 172.88,-173.22 60.28,-59.42 105.79,-102.4 157.61,-138.42z"/>
   </g>
   <circle class="fil2 str0" cx="10385.4" cy="14723.82" r="5516.54"/>
  </g>
 </g>
</svg>
