<?xml version="1.0" encoding="UTF-8"?>
<!DOCTYPE svg PUBLIC "-//W3C//DTD SVG 1.1//EN" "http://www.w3.org/Graphics/SVG/1.1/DTD/svg11.dtd">
<!-- Creator: CorelDRAW 2018 (64-Bit) -->
<svg xmlns="http://www.w3.org/2000/svg" xml:space="preserve" width="210mm" height="297mm" version="1.1" style="shape-rendering:geometricPrecision; text-rendering:geometricPrecision; image-rendering:optimizeQuality; fill-rule:evenodd; clip-rule:evenodd"
viewBox="0 0 21000 29700"
 xmlns:xlink="http://www.w3.org/1999/xlink">
 <defs>
  <style type="text/css">
   <![CDATA[
    .str0 {stroke:#1F1B20;stroke-width:200;stroke-miterlimit:22.9256}
    .fil2 {fill:none}
    .fil1 {fill:#FEFEFE}
    .fil0 {fill:#1F1B20}
   ]]>
  </style>
 </defs>
 <g id="Слой_x0020_1">
  <metadata id="CorelCorpID_0Corel-Layer"/>
  <g id="_2240319358784">
   <g>
    <path class="fil0" d="M12251.4 9986.89c43.17,-108.41 71.27,-190.73 110.42,-273.04 39.15,-82.31 89.34,-164.62 128.49,-261.99 39.15,-97.37 67.25,-209.79 87.33,-287.08 20.08,-77.3 32.12,-119.46 56.22,-140.54 24.09,-21.08 60.22,-21.08 93.35,9.03 33.13,30.11 63.24,90.35 95.36,194.74 32.12,104.4 66.25,252.96 83.32,327.24 17.06,74.28 17.06,74.28 39.15,36.14 22.08,-38.14 66.25,-114.44 107.4,-195.74 41.16,-81.31 79.3,-167.64 118.45,-262 39.15,-94.35 79.3,-196.74 111.42,-255.96 32.12,-59.23 56.22,-75.29 71.28,-37.15 15.05,38.14 21.08,130.5 21.08,268.02 0,137.52 -6.03,320.21 -18.07,454.73 -12.05,134.5 -30.12,220.83 -36.14,285.08 -6.03,64.24 0,106.4 16.06,138.52 16.06,32.13 42.16,54.21 90.33,90.34 48.19,36.14 118.46,86.33 200.77,142.55 82.31,56.21 176.68,118.45 271.03,189.72 94.36,71.26 188.72,151.57 248.95,208.8 60.23,57.21 86.33,91.33 99.38,139.52 13.05,48.18 13.05,110.42 15.06,164.63 2,54.2 6.01,100.37 36.13,156.59 30.12,56.21 86.33,122.47 169.64,186.71 83.32,64.24 193.74,126.48 306.17,205.78 112.43,79.3 226.86,175.66 322.22,259.98 95.36,84.32 171.66,156.6 228.87,210.81 57.22,54.2 95.36,90.33 107.41,122.46 12.04,32.12 -2.01,60.23 -25.1,95.36 -23.09,35.13 -55.2,77.29 -91.34,108.41 -36.14,31.12 -76.29,51.2 -113.44,65.25 -37.14,14.05 -71.26,22.08 -93.35,36.14 -22.08,14.05 -32.12,34.12 -82.32,73.28 -50.18,39.14 -140.52,97.36 -216.82,137.52 -76.29,40.15 -138.52,62.23 -197.75,74.28 -59.22,12.05 -115.44,14.05 -173.66,8.03 -58.21,-6.02 -118.45,-20.08 -166.63,-17.07 -48.18,3.02 -84.31,23.09 -117.44,42.17 -33.13,19.07 -63.25,37.13 -98.38,49.18 -35.13,12.05 -75.28,18.07 -122.47,6.02 -47.17,-12.04 -101.37,-42.15 -138.52,-54.2 -37.14,-12.05 -57.21,-6.02 -51.19,35.14 6.03,41.15 38.14,117.44 77.29,178.67 39.15,61.23 85.33,107.4 145.55,167.63 60.23,60.23 134.51,134.52 132.51,203.78 -2.01,69.26 -80.31,133.51 -157.6,174.66 -77.29,41.16 -153.58,59.23 -204.78,98.37 -51.19,39.15 -77.29,99.38 -71.27,159.61 6.02,60.23 44.16,120.46 105.39,180.68 61.24,60.24 145.56,120.46 226.87,202.77 81.31,82.32 159.61,186.72 197.75,332.26 38.15,145.56 36.14,332.27 -18.07,607.31 -54.2,275.04 -160.6,638.42 -287.09,958.64 -126.48,320.21 -273.03,597.27 -395.5,798.03 -122.46,200.76 -220.83,325.23 -281.07,406.54 -60.22,81.31 -82.31,119.45 -94.35,172.65 -12.05,53.21 -14.06,121.47 -14.06,266.01 0,144.56 2.01,365.39 4.02,560.13 2.01,194.74 4.01,363.38 27.1,570.17 23.09,206.78 67.26,451.71 104.4,624.36 37.14,172.66 67.25,273.04 105.4,325.23 38.15,52.21 84.32,56.22 137.52,55.22 53.2,-1.01 113.43,-7.03 170.65,-5.02 57.22,2.01 111.42,12.04 171.65,34.13 60.23,22.08 126.48,56.21 181.69,95.36 55.21,39.15 99.38,83.32 129.49,126.48 30.12,43.17 46.17,85.32 54.21,116.44 8.03,31.12 8.03,51.2 -6.03,76.29 -14.05,25.1 -42.15,55.21 -82.31,69.26 -40.15,14.06 -92.35,12.05 -128.49,22.09 -36.14,10.04 -56.21,32.12 -83.31,44.17 -27.11,12.04 -61.23,14.05 -89.34,19.07 -28.11,5.02 -50.19,13.05 -84.33,23.08 -34.12,10.04 -80.3,22.09 -103.39,28.11 -23.08,6.03 -23.08,6.03 2.01,39.15 25.1,33.12 75.29,99.38 111.42,133.51 36.14,34.13 58.23,36.13 92.35,40.15 34.13,4.02 80.31,10.04 138.53,20.08 58.23,10.04 128.49,24.09 212.81,61.23 84.32,37.14 182.7,97.37 260.99,156.59 78.3,59.23 136.52,117.45 161.61,162.62 25.1,45.17 17.07,77.29 -9.03,109.41 -26.1,32.13 -70.27,64.24 -123.47,84.32 -53.2,20.08 -115.43,28.11 -162.62,42.17 -47.18,14.05 -79.3,34.13 -151.57,55.21 -72.28,21.08 -184.7,43.16 -284.08,42.15 -99.38,-1 -185.7,-25.09 -263,-53.19 -77.29,-28.11 -145.55,-60.23 -205.78,-86.33 -60.23,-26.1 -112.42,-46.18 -148.56,-81.31 -36.14,-35.13 -56.21,-85.33 -73.28,-143.54 -17.06,-58.22 -31.12,-124.48 -45.17,-179.69 -14.06,-55.21 -28.11,-99.37 -72.28,-153.58 -44.16,-54.2 -118.45,-118.45 -194.74,-177.68 -76.29,-59.22 -154.58,-113.42 -205.78,-165.62 -51.19,-52.21 -75.28,-102.39 -117.45,-237.91 -42.15,-135.52 -102.38,-356.35 -148.56,-518.97 -46.17,-162.61 -78.29,-267.01 -109.41,-420.59 -31.12,-153.58 -61.23,-356.36 -99.38,-538.05 -38.15,-181.68 -84.32,-342.3 -110.42,-427.62 -26.1,-85.32 -32.12,-95.36 -92.35,-28.11 -60.23,67.26 -174.66,211.81 -342.3,351.34 -167.64,139.53 -388.48,274.04 -547.07,366.38 -158.61,92.36 -254.97,142.55 -308.17,191.74 -53.21,49.19 -63.25,97.37 -62.24,143.54 1,46.18 13.05,90.35 44.17,144.55 31.11,54.2 81.3,118.45 72.27,198.75 -9.04,80.31 -77.3,176.68 -174.67,243.93 -97.37,67.26 -223.84,105.4 -314.18,125.48 -90.35,20.07 -144.55,22.08 -201.77,5.02 -57.22,-17.07 -117.45,-53.2 -169.65,-44.17 -52.2,9.03 -96.36,63.24 -130.49,121.46 -34.13,58.22 -58.22,120.46 -69.26,153.58 -11.05,33.13 -9.04,37.14 73.27,40.15 82.31,3.01 244.93,5.02 381.45,-6.02 136.52,-11.04 246.94,-35.13 371.41,-14.06 124.47,21.09 262.99,87.34 328.25,163.63 65.24,76.29 57.22,162.62 12.05,238.91 -45.17,76.29 -127.49,142.54 -227.87,187.71 -100.38,45.17 -218.83,69.26 -378.44,64.24 -159.6,-5.02 -360.37,-39.14 -539.04,-65.25 -178.68,-26.1 -335.28,-44.16 -468.78,-60.22 -133.51,-16.06 -243.93,-30.12 -328.25,-18.07 -84.32,12.05 -142.54,50.19 -242.92,82.31 -100.38,32.12 -242.92,58.22 -391.49,54.2 -148.56,-4.01 -303.15,-38.14 -428.62,-100.38 -125.48,-62.23 -221.85,-152.57 -289.11,-221.84 -67.25,-69.26 -105.4,-117.44 -189.71,-139.53 -84.32,-22.08 -214.82,-18.07 -373.42,-19.07 -158.6,-1 -345.32,-7.03 -533.03,-19.07 -187.71,-12.05 -376.43,-30.11 -547.07,-52.2 -170.65,-22.08 -323.23,-48.18 -467.78,-126.49 -144.55,-78.29 -281.07,-208.78 -359.36,-332.25 -78.3,-123.47 -98.37,-239.91 -99.38,-353.34 -1,-113.43 17.06,-223.85 70.27,-322.23 53.19,-98.37 141.53,-184.7 265,-267.01 123.47,-82.31 282.07,-160.61 475.81,-219.84 193.74,-59.22 422.6,-99.37 616.34,-123.46 193.73,-24.09 352.33,-32.12 448.71,-28.11 96.36,4.02 130.49,20.08 147.55,28.11 17.07,8.03 17.07,8.03 28.11,-26.1 11.04,-34.13 33.12,-102.39 74.28,-207.79 41.16,-105.4 101.38,-247.94 169.65,-382.45 68.25,-134.51 144.55,-260.99 226.86,-386.47 82.31,-125.48 170.64,-249.94 282.07,-404.53 111.42,-154.59 245.93,-339.29 358.36,-499.9 112.43,-160.61 202.77,-297.12 328.25,-455.73 125.47,-158.6 286.08,-339.29 399.51,-466.77 113.43,-127.48 179.69,-201.77 240.92,-268.02 61.23,-66.25 117.44,-124.47 170.65,-185.71 53.2,-61.23 103.38,-125.47 149.56,-172.65 46.18,-47.18 88.34,-77.29 139.53,-125.48 51.19,-48.18 111.43,-114.43 199.76,-209.79 88.33,-95.36 204.78,-219.83 332.26,-359.36 127.49,-139.53 266.01,-294.12 410.56,-459.75 144.55,-165.62 295.12,-342.3 392.49,-465.77 97.37,-123.46 141.54,-193.73 198.76,-288.09 57.21,-94.36 127.48,-212.81 162.62,-300.14 35.13,-87.33 35.13,-143.55 34.12,-270.02 -1,-126.48 -3.01,-323.23 6.03,-493.88 9.03,-170.65 29.1,-315.19 76.28,-466.77 47.18,-151.57 121.47,-310.18 196.75,-445.69 75.28,-135.51 151.58,-247.94 220.84,-380.45 69.26,-132.5 131.5,-285.08 191.72,-428.62 60.24,-143.55 118.45,-278.06 161.62,-386.47z"/>
    <path class="fil1" d="M13344.55 20023.01c-16.06,-44.16 -38.14,-114.44 -56.38,-224.86 -18.23,-110.42 -32.62,-261.01 -39.82,-336.3 -7.19,-75.29 -7.19,-75.29 4.02,-6.02 11.21,69.26 33.63,207.81 55.88,308.19 22.25,100.38 44.33,162.62 76.46,230.88 32.12,68.26 74.28,142.54 114.26,213.8 39.98,71.27 77.8,139.52 96.7,173.65 18.9,34.12 18.9,34.12 16.49,36.83 -2.4,2.7 -7.22,8.11 -9.63,10.81 -2.4,2.71 -2.4,2.71 -38.98,-52.19 -36.57,-54.9 -109.71,-164.69 -151.31,-228.62 -41.59,-63.94 -51.63,-82 -67.69,-126.17z"/>
    <path class="fil1" d="M9227.92 20047.09c-13.05,0 -17.07,-26.1 8.03,-57.22 25.09,-31.12 79.3,-67.25 149.56,-109.41 70.27,-42.16 156.6,-90.34 217.84,-142.54 61.22,-52.2 97.36,-108.41 128.48,-174.67 31.12,-66.24 57.21,-142.54 77.29,-198.76 20.08,-56.21 34.13,-92.34 49.19,-149.56 15.06,-57.21 31.12,-135.51 45.17,-238.9 14.06,-103.39 26.1,-231.88 16.06,-353.34 -10.04,-121.47 -42.16,-235.89 -84.31,-330.25 -42.17,-94.36 -94.37,-168.64 -89.35,-164.63 5.02,4.02 67.26,86.33 111.43,168.64 44.17,82.31 70.26,164.63 86.32,244.93 16.06,80.3 22.09,158.6 16.06,263 -6.02,104.4 -24.09,234.89 -50.19,351.33 -26.1,116.44 -60.23,218.83 -98.37,313.19 -38.14,94.35 -80.31,180.69 -140.53,245.93 -60.23,65.25 -138.53,109.42 -205.78,152.58 -67.26,43.16 -123.47,85.33 -162.62,119.45 -39.15,34.13 -61.23,60.23 -74.28,60.23z"/>
    <path class="fil1" d="M9202.31 20111.84c8.53,16.06 23.09,24.85 41.91,32.75 18.83,7.9 41.91,14.93 100.63,23.46 58.72,8.54 153.09,18.58 237.01,22.64 83.92,4.06 157.4,2.14 194.15,1.19 36.74,-0.96 36.74,-0.96 5.02,-4.52 -31.73,-3.56 -95.17,-10.68 -178.09,-20.26 -82.92,-9.59 -185.31,-21.63 -247.05,-32.68 -61.73,-11.04 -82.81,-21.08 -97.36,-35.47 -14.56,-14.38 -22.58,-33.12 -14.22,-52.52 8.37,-19.41 33.12,-39.49 39.56,-54 6.44,-14.5 -5.45,-23.43 -19.2,-18.07 -13.75,5.36 -29.38,25.02 -42.35,39.86 -12.96,14.84 -23.26,24.86 -27.16,41.54 -3.89,16.68 -1.38,40.02 7.15,56.08z"/>
    <path class="fil1" d="M6691.03 19440.52c-79.3,17.06 -175.67,39.15 -252.96,50.19 -77.29,11.04 -135.52,11.04 -170.65,7.03 -35.13,-4.02 -47.18,-12.05 -25.09,-33.13 22.08,-21.08 78.29,-55.21 146.56,-83.32 68.25,-28.1 148.56,-50.18 222.84,-65.24 74.28,-15.06 142.55,-23.09 191.74,-34.13 49.18,-11.05 79.29,-25.1 100.37,-20.08 21.08,5.02 33.13,29.11 39.15,41.15 6.02,12.05 6.02,12.05 -4.01,8.03 -10.04,-4.01 -30.12,-12.04 -83.32,-9.02 -53.2,3.01 -139.53,17.05 -223.85,35.12 -84.32,18.07 -166.64,40.16 -225.86,62.24 -59.23,22.09 -95.36,44.17 -102.39,57.22 -7.02,13.05 15.06,17.06 66.25,12.04 51.19,-5.01 131.5,-19.07 212.81,-36.14 81.31,-17.06 163.63,-37.13 221.85,-54.2 58.22,-17.06 92.34,-31.12 121.46,-75.29 29.11,-44.16 53.19,-118.45 67.25,-199.76 14.05,-81.3 18.07,-169.64 33.13,-254.96 15.05,-85.32 41.15,-167.64 62.21,-232.56 21.05,-64.92 37.05,-112.45 45.05,-136.22 8,-23.76 8,-23.76 -5.02,40.15 -13.02,63.92 -39.06,191.76 -54.09,290.81 -15.03,99.05 -19.04,169.32 -30.08,242.6 -11.05,73.27 -29.12,149.57 -55.22,207.79 -26.1,58.22 -60.22,98.37 -108.4,124.47 -48.19,26.1 -110.43,38.14 -189.73,55.21z"/>
    <path class="fil0" d="M11150.99 19667.37c-32.12,57.22 -90.34,147.57 -161.61,208.8 -71.27,61.24 -155.59,93.35 -235.9,114.43 -80.3,21.09 -156.59,31.12 -227.86,37.14 -71.27,6.02 -137.53,8.03 -198.75,2.01 -61.24,-6.02 -117.45,-20.07 -161.04,-44.54 -43.6,-24.46 -74.56,-59.33 -103.67,-89.45 -29.12,-30.11 -56.36,-55.47 19.35,-82.21 75.71,-26.72 254.39,-54.83 377.86,-107.03 123.46,-52.19 191.73,-128.49 219.33,-194.24 27.6,-65.75 14.55,-120.95 29.74,-139.02 15.18,-18.07 58.59,0.99 101.06,8.53 42.46,7.53 83.97,3.52 130.01,26.61 46.05,23.09 96.65,73.27 140.01,103.38 43.37,30.12 79.5,40.16 94.56,57.22 15.06,17.07 9.03,41.16 -23.09,98.37z"/>
    <path class="fil1" d="M10279.69 19499.97c88.33,-98.37 212.8,-248.94 316.91,-341.54 104.1,-92.6 187.83,-127.22 254.87,-159.24 67.04,-32.02 117.38,-61.43 67.48,-41.11 -49.9,20.33 -200.03,90.39 -327.29,181.63 -127.27,91.24 -231.67,203.67 -321.01,309.07 -89.33,105.4 -163.62,203.77 -223.39,281.92 -59.79,78.14 -105.06,136.07 -148.18,202.98 -43.13,66.93 -84.11,142.86 -104.6,180.82 -20.48,37.97 -20.48,37.97 31.68,-39 52.16,-76.95 156.47,-230.88 234.73,-330.93 78.26,-100.05 130.46,-146.22 218.8,-244.6z"/>
   </g>
   <circle class="fil2 str0" cx="11090.97" cy="15570.48" r="7425.98"/>
  </g>
 </g>
</svg>
