<?xml version="1.0" encoding="UTF-8"?>
<!DOCTYPE svg PUBLIC "-//W3C//DTD SVG 1.1//EN" "http://www.w3.org/Graphics/SVG/1.1/DTD/svg11.dtd">
<!-- Creator: CorelDRAW 2018 (64-Bit) -->
<svg xmlns="http://www.w3.org/2000/svg" xml:space="preserve" width="210mm" height="297mm" version="1.1" style="shape-rendering:geometricPrecision; text-rendering:geometricPrecision; image-rendering:optimizeQuality; fill-rule:evenodd; clip-rule:evenodd"
viewBox="0 0 21000 29700"
 xmlns:xlink="http://www.w3.org/1999/xlink">
 <defs>
  <style type="text/css">
   <![CDATA[
    .fil1 {fill:#FEFEFE}
    .fil0 {fill:#1F1B20}
   ]]>
  </style>
 </defs>
 <g id="Слой_x0020_1">
  <metadata id="CorelCorpID_0Corel-Layer"/>
  <g id="_2240551822128">
   <path class="fil0" d="M5941.82 2489.72c123.47,258.7 252.83,529.16 335.15,917.22 82.31,388.05 117.58,893.7 170.5,1428.75 52.92,535.04 123.47,1099.49 199.91,1534.58 76.43,435.09 158.75,740.83 246.94,999.54 88.19,258.7 182.27,470.36 299.86,640.87 117.59,170.51 258.71,299.87 458.62,376.31 199.9,76.43 458.61,99.95 758.47,117.59 299.86,17.64 640.87,29.39 940.74,41.15 299.86,11.76 558.56,23.52 687.92,29.4 129.35,5.88 129.35,5.88 194.03,-123.47 64.67,-129.35 194.02,-388.06 317.49,-646.76 123.47,-258.7 241.07,-517.41 399.82,-699.67 158.75,-182.27 358.65,-288.11 511.52,-382.18 152.87,-94.08 258.71,-176.39 376.3,-288.1 117.59,-111.72 246.95,-252.83 346.9,-382.18 99.95,-129.35 170.51,-246.95 323.38,-352.78 152.87,-105.83 388.05,-199.91 699.67,-270.46 311.63,-70.56 699.68,-117.59 1034.82,-94.07 335.14,23.51 617.36,117.59 893.7,235.18 276.34,117.59 546.81,258.71 758.47,329.27 211.67,70.55 364.54,70.55 552.69,170.51 188.15,99.95 411.57,299.85 658.51,570.32 246.95,270.46 517.42,611.47 729.08,870.18 211.67,258.7 364.54,435.09 458.61,599.72 94.08,164.63 129.36,317.5 158.76,540.93 29.4,223.42 52.91,517.41 5.87,817.27 -47.03,299.86 -164.63,605.6 -276.34,864.31 -111.71,258.7 -217.55,470.36 -393.94,634.99 -176.38,164.63 -423.33,282.23 -587.96,341.03 -164.62,58.79 -246.94,58.79 -317.5,-88.2 -70.55,-146.99 -129.34,-440.98 -170.5,-682.04 -41.16,-241.07 -64.68,-429.21 -135.24,-623.24 -70.55,-194.03 -188.15,-393.94 -246.95,-493.89 -58.79,-99.96 -58.79,-99.96 -41.15,29.4 17.64,129.35 52.92,388.05 76.44,593.84 23.52,205.79 35.27,358.66 82.31,529.17 47.04,170.51 129.35,358.65 170.51,558.56 41.16,199.91 41.16,411.57 -11.76,570.32 -52.91,158.75 -158.75,264.59 -282.22,358.67 -123.47,94.07 -264.58,176.38 -393.93,205.78 -129.35,29.4 -246.95,5.88 -317.51,29.4 -70.55,23.52 -94.07,94.07 -111.71,188.15 -17.64,94.07 -29.4,211.67 -17.64,341.02 11.76,129.35 47.04,270.46 35.28,429.21 -11.76,158.75 -70.55,335.14 -182.27,535.05 -111.71,199.9 -276.34,423.33 -405.69,652.64 -129.35,229.3 -223.43,464.48 -293.99,752.58 -70.55,288.11 -117.58,629.12 -211.66,946.62 -94.07,317.5 -235.19,611.49 -305.75,999.54 -70.55,388.06 -70.55,870.19 -35.27,1258.24 35.28,388.06 105.83,682.04 164.63,899.58 58.8,217.55 105.83,358.67 182.26,429.22 76.44,70.56 182.28,70.56 270.47,135.23 88.2,64.68 158.75,194.03 182.27,317.5 23.52,123.47 0,241.07 -129.35,335.14 -129.35,94.08 -364.54,164.63 -629.12,217.55 -264.58,52.92 -558.57,88.19 -817.28,82.31 -258.7,-5.88 -482.12,-52.91 -593.84,-129.35 -111.71,-76.43 -111.71,-182.27 -117.59,-488.01 -5.88,-305.74 -17.63,-811.39 -70.55,-1405.24 -52.92,-593.84 -146.99,-1275.87 -164.63,-1787.4 -17.64,-511.53 41.15,-852.54 70.55,-1023.05 29.4,-170.51 29.4,-170.51 -123.47,-176.39 -152.87,-5.88 -458.61,-17.64 -717.32,-29.4 -258.7,-11.76 -470.36,-23.52 -576.2,-29.4 -105.83,-5.88 -105.83,-5.88 -194.03,99.95 -88.19,105.84 -264.58,317.5 -382.17,446.85 -117.6,129.36 -176.39,176.39 -205.79,205.79 -29.4,29.4 -29.4,41.16 -64.67,205.79 -35.28,164.63 -105.84,482.13 -141.11,640.88 -35.28,158.75 -35.28,158.75 11.76,252.82 47.03,94.08 141.11,282.22 235.18,446.85 94.07,164.63 188.15,305.75 252.82,382.18 64.68,76.44 99.95,88.2 217.54,94.08 117.6,5.88 317.51,5.88 470.38,182.27 152.87,176.39 258.71,529.16 282.22,723.19 23.52,194.03 -35.27,229.3 -352.77,235.18 -317.5,5.88 -893.71,-17.63 -1181.81,-29.39 -288.1,-11.76 -288.1,-11.76 -276.34,117.59 11.76,129.35 35.27,388.06 94.07,546.81 58.79,158.75 152.87,217.54 288.1,282.21 135.23,64.68 311.62,135.24 417.46,241.07 105.83,105.83 141.1,246.95 52.9,358.66 -88.19,111.71 -299.85,194.03 -535.03,264.58 -235.19,70.56 -493.9,129.35 -846.67,152.87 -352.78,23.52 -799.63,11.76 -1052.45,-99.96 -252.83,-111.71 -311.62,-323.37 -335.14,-670.27 -23.52,-346.9 -11.76,-829.03 47.04,-1464.03 58.79,-635 164.63,-1422.87 258.7,-2134.31 94.07,-711.43 176.39,-1346.43 141.11,-1740.37 -35.28,-393.93 -188.15,-546.8 -282.22,-646.75 -94.08,-99.96 -129.35,-146.99 -293.98,-235.18 -164.63,-88.2 -458.62,-217.56 -611.49,-293.99 -152.87,-76.44 -164.63,-99.95 -223.42,-23.51 -58.8,76.43 -164.64,252.82 -282.23,429.21 -117.59,176.39 -246.94,352.77 -335.13,476.24 -88.2,123.48 -135.23,194.03 -158.75,299.86 -23.52,105.84 -23.52,246.95 -17.64,470.37 5.88,223.43 17.63,529.17 5.87,917.22 -11.76,388.06 -47.03,858.44 -5.87,1134.78 41.15,276.34 158.75,358.66 241.07,482.13 82.31,123.47 129.34,288.1 158.74,417.45 29.4,129.35 41.16,223.43 -5.87,329.26 -47.04,105.83 -152.88,223.43 -382.18,282.22 -229.31,58.8 -582.09,58.8 -899.59,35.28 -317.5,-23.52 -599.72,-70.55 -758.47,-164.63 -158.75,-94.07 -194.03,-235.19 -141.11,-470.38 52.91,-235.18 194.03,-564.43 276.35,-799.62 82.31,-235.18 105.82,-376.3 99.94,-693.8 -5.88,-317.5 -41.15,-811.38 -29.39,-1164.16 11.76,-352.78 70.55,-564.44 111.71,-699.68 41.16,-135.23 64.67,-194.02 52.91,-311.62 -11.76,-117.59 -58.79,-293.98 -64.67,-493.89 -5.88,-199.91 29.4,-423.33 41.16,-699.67 11.76,-276.35 0,-605.6 105.84,-1222.96 105.83,-617.36 329.25,-1522.83 529.16,-2128.43 199.91,-605.6 376.29,-911.35 470.37,-1111.25 94.07,-199.91 105.83,-293.99 47.04,-658.52 -58.8,-364.54 -188.15,-999.54 -282.22,-1622.78 -94.08,-623.24 -152.87,-1234.72 -194.03,-1740.37 -41.16,-505.65 -64.68,-905.46 -94.08,-1199.44 -29.4,-293.99 -64.67,-482.13 -117.59,-646.76 -52.92,-164.63 -123.47,-305.75 -152.87,-535.05 -29.4,-229.31 -17.64,-546.81 5.88,-840.79 23.52,-293.98 58.79,-564.45 152.87,-664.4 94.07,-99.95 246.94,-29.4 382.17,129.36 135.23,158.75 252.83,405.69 376.3,664.4z"/>
   <path class="fil1" d="M9697.98 19044.8c18.63,-280.26 59.78,-627.16 114.48,-899.67 54.7,-272.5 122.94,-470.61 164.12,-604.53 41.18,-133.92 55.31,-203.65 30.01,-66.38 -25.3,137.28 -90.03,481.55 -148.85,833.02 -58.82,351.47 -111.73,710.12 -139.18,952.16 -27.45,242.05 -29.43,367.48 -30.42,430.19 -0.99,62.72 -0.99,62.72 -2.94,-44.09 -1.95,-106.81 -5.85,-320.44 12.78,-600.7z"/>
   <path class="fil1" d="M12775.47 11593.58c-22.05,-127.15 -13.24,-99.23 48.5,91.86 61.74,191.09 176.39,545.34 286.63,754.81 110.25,209.46 216.09,274.13 368.96,294.71 152.87,20.58 352.77,-2.94 496.82,-52.91 144.06,-49.98 232.25,-126.42 276.35,-164.63 44.1,-38.22 44.1,-38.22 73.49,-5.88 29.4,32.33 88.2,97.01 223.43,102.89 135.23,5.87 346.9,-47.04 518.38,-78.39 171.48,-31.36 302.78,-41.16 387.04,-77.41 84.27,-36.26 121.5,-98.97 140.12,-130.33 18.62,-31.36 18.62,-31.36 0,0 -18.62,31.36 -55.85,94.07 -125.42,145.03 -69.57,50.95 -171.46,90.15 -287.09,121.51 -115.62,31.35 -244.98,54.86 -368.45,72.5 -123.47,17.64 -241.06,29.4 -329.26,17.64 -88.19,-11.76 -146.98,-47.03 -176.38,-64.67 -29.4,-17.64 -29.4,-17.64 -64.68,5.88 -35.28,23.52 -105.83,70.55 -182.27,105.83 -76.44,35.28 -158.75,58.8 -241.07,73.5 -82.31,14.7 -164.63,20.57 -244.01,23.51 -79.37,2.94 -155.8,2.94 -232.24,-38.21 -76.43,-41.16 -152.87,-123.48 -226.37,-214.61 -73.49,-91.13 -144.04,-191.09 -205.78,-382.17 -61.74,-191.09 -114.65,-473.32 -136.7,-600.46z"/>
   <path class="fil1" d="M9882.68 9364.46c8.82,14.7 -79.38,261.64 -88.2,543.87 -8.82,282.22 61.74,599.72 196.97,917.22 135.23,317.5 335.14,635 558.56,881.95 223.43,246.94 470.38,423.33 693.8,573.26 223.43,149.93 423.33,273.4 558.56,308.68 135.24,35.27 205.79,-17.64 232.25,-332.2 26.46,-314.56 8.82,-890.77 -26.46,-1414.05 -35.28,-523.29 -88.19,-993.66 -144.05,-1364.07 -55.86,-370.42 -114.65,-640.89 -144.05,-776.12 -29.4,-135.23 -29.4,-135.23 20.58,58.8 49.98,194.03 149.93,582.08 217.55,881.95 67.62,299.86 102.89,511.52 129.35,829.02 26.46,317.5 44.1,740.84 52.92,1093.62 8.82,352.77 8.82,635 -11.76,823.15 -20.58,188.14 -61.74,282.22 -123.48,335.14 -61.73,52.91 -144.05,64.67 -270.46,11.76 -126.41,-52.92 -296.92,-170.52 -502.71,-320.45 -205.78,-149.93 -446.85,-332.2 -649.7,-540.93 -202.84,-208.73 -367.47,-443.91 -505.64,-690.85 -138.17,-246.95 -249.89,-505.66 -314.56,-740.84 -64.68,-235.19 -82.32,-446.85 -38.22,-661.46 44.09,-214.61 149.93,-432.15 158.75,-417.45z"/>
  </g>
 </g>
</svg>
