<?xml version="1.0" encoding="UTF-8"?>
<!DOCTYPE svg PUBLIC "-//W3C//DTD SVG 1.1//EN" "http://www.w3.org/Graphics/SVG/1.1/DTD/svg11.dtd">
<!-- Creator: CorelDRAW 2018 (64-Bit) -->
<svg xmlns="http://www.w3.org/2000/svg" xml:space="preserve" width="210mm" height="297mm" version="1.1" style="shape-rendering:geometricPrecision; text-rendering:geometricPrecision; image-rendering:optimizeQuality; fill-rule:evenodd; clip-rule:evenodd"
viewBox="0 0 21000 29700"
 xmlns:xlink="http://www.w3.org/1999/xlink">
 <defs>
  <style type="text/css">
   <![CDATA[
    .fil2 {fill:#FEFEFE}
    .fil1 {fill:#FEFEFE}
    .fil0 {fill:#1F1B20}
   ]]>
  </style>
 </defs>
 <g id="Слой_x0020_1">
  <metadata id="CorelCorpID_0Corel-Layer"/>
  <g id="_2240540278736">
   <path class="fil0" d="M13227.98 6729.74c188.15,-88.2 382.18,-199.92 535.05,-282.23 152.87,-82.32 264.59,-135.23 385.12,-179.33 120.53,-44.1 249.88,-79.37 338.07,-85.25 88.2,-5.88 135.23,17.64 182.27,94.08 47.04,76.43 94.07,205.78 117.59,291.04 23.52,85.25 23.52,126.41 17.64,158.75 -5.88,32.34 -17.63,55.85 41.16,26.46 58.8,-29.4 188.15,-111.72 308.68,-170.51 120.53,-58.8 232.25,-94.08 346.9,-114.66 114.65,-20.58 232.25,-26.46 291.04,-29.4 58.8,-2.94 58.8,-2.94 17.64,-73.49 -41.15,-70.56 -123.47,-211.67 -164.63,-317.5 -41.15,-105.84 -41.15,-176.39 17.64,-232.25 58.8,-55.86 176.39,-97.01 358.66,-117.59 182.27,-20.58 429.21,-20.58 643.82,-44.1 214.61,-23.52 396.88,-70.55 567.39,-117.59 170.51,-47.04 329.26,-94.07 461.55,-88.19 132.29,5.88 238.13,64.67 308.68,167.57 70.56,102.89 105.83,249.88 108.77,396.87 2.94,146.99 -26.45,293.98 -85.25,449.79 -58.8,155.81 -146.99,320.44 -223.43,411.58 -76.44,91.13 -141.11,108.77 -155.81,182.27 -14.7,73.49 20.58,202.84 35.28,435.09 14.7,232.24 8.82,567.38 17.64,990.72 8.82,423.33 32.33,934.86 47.03,1231.78 14.7,296.92 20.58,379.24 67.62,496.83 47.04,117.59 135.23,270.46 155.81,440.97 20.58,170.51 -26.45,358.66 -129.35,520.35 -102.89,161.69 -261.65,296.92 -376.3,373.36 -114.65,76.43 -185.21,94.07 -244.01,132.29 -58.79,38.22 -105.82,97.01 -138.16,229.31 -32.34,132.29 -49.98,338.07 -94.08,567.38 -44.1,229.31 -114.65,482.13 -135.23,699.68 -20.58,217.55 8.82,399.81 41.16,655.58 32.34,255.76 67.61,585.02 91.13,1087.73 23.52,502.71 35.28,1178.87 0,1716.85 -35.28,537.99 -117.59,937.81 -232.25,1311.16 -114.65,373.36 -261.64,720.26 -349.84,990.72 -88.19,270.47 -117.58,464.49 -135.22,796.69 -17.64,332.2 -23.52,802.57 -67.62,1196.5 -44.1,393.94 -126.41,711.45 -170.51,1178.88 -44.1,467.43 -49.98,1084.79 -55.86,1684.51 -5.88,599.72 -11.76,1181.81 -2.94,1602.2 8.82,420.4 32.34,679.1 117.59,923.1 85.26,244.01 232.25,473.32 399.82,684.98 167.57,211.67 355.72,405.7 455.67,564.45 99.96,158.75 111.72,282.22 29.4,379.23 -82.31,97.02 -258.7,167.57 -473.31,199.91 -214.6,32.34 -467.43,26.46 -664.4,0 -196.96,-26.46 -338.08,-73.49 -426.28,-220.48 -88.19,-146.99 -123.46,-393.94 -149.92,-626.19 -26.46,-232.24 -44.1,-449.78 -79.38,-587.96 -35.28,-138.17 -88.19,-196.96 -132.29,-261.64 -44.1,-64.68 -79.37,-135.23 -64.67,-235.19 14.7,-99.95 79.37,-229.31 108.77,-367.48 29.4,-138.17 23.52,-285.16 20.58,-370.42 -2.94,-85.25 -2.94,-108.76 -23.52,-126.4 -20.58,-17.64 -61.74,-29.4 -70.56,-111.72 -8.82,-82.31 14.7,-235.18 29.4,-385.11 14.7,-149.93 20.58,-296.93 11.76,-732.02 -8.82,-435.09 -32.34,-1158.29 -67.62,-1766.83 -35.28,-608.54 -82.31,-1102.43 -91.13,-1616.9 -8.82,-514.47 20.58,-1049.51 38.22,-1396.41 17.64,-346.9 23.52,-505.65 26.46,-585.03 2.94,-79.37 2.94,-79.37 -88.2,-52.91 -91.13,26.46 -273.4,79.37 -505.65,146.98 -232.24,67.62 -514.47,149.94 -670.28,235.19 -155.81,85.26 -185.2,173.45 -258.7,391 -73.49,217.55 -191.09,564.44 -255.77,849.6 -64.67,285.17 -76.43,508.59 -97.01,914.28 -20.58,405.7 -49.97,993.67 -64.67,1505.19 -14.7,511.53 -14.7,946.63 5.88,1514.01 20.58,567.39 61.73,1267.06 120.52,1693.33 58.8,426.28 135.24,579.15 185.21,758.48 49.98,179.33 73.5,385.12 123.48,546.81 49.98,161.69 126.41,279.28 223.42,426.27 97.02,146.99 214.61,323.38 264.58,479.19 49.98,155.81 32.35,291.05 -35.27,382.18 -67.61,91.14 -185.21,138.17 -367.48,158.75 -182.27,20.58 -429.21,14.7 -652.64,-17.64 -223.43,-32.34 -423.33,-91.13 -537.99,-158.75 -114.65,-67.62 -144.04,-144.05 -155.8,-358.66 -11.76,-214.61 -5.88,-567.38 -8.82,-970.14 -2.94,-402.75 -14.7,-855.49 -41.16,-1084.8 -26.46,-229.3 -67.61,-235.18 -102.89,-244 -35.28,-8.82 -64.68,-20.57 -70.56,-111.71 -5.88,-91.13 11.76,-261.64 41.16,-376.3 29.4,-114.65 70.55,-173.44 88.19,-276.34 17.64,-102.89 11.76,-249.88 -5.88,-537.98 -17.64,-288.1 -47.03,-717.32 -76.43,-1064.22 -29.4,-346.9 -58.8,-611.48 -82.32,-1114.19 -23.52,-502.71 -41.16,-1243.55 -44.1,-1852.09 -2.94,-608.54 8.82,-1084.79 38.22,-1340.56 29.4,-255.76 76.43,-291.03 79.37,-343.95 2.94,-52.92 -38.21,-123.47 -158.75,-223.43 -120.53,-99.95 -320.43,-229.31 -614.42,-488.02 -293.98,-258.7 -682.03,-646.75 -914.28,-861.36 -232.25,-214.61 -308.68,-255.76 -349.84,-276.34 -41.16,-20.58 -47.03,-20.58 -73.49,79.37 -26.46,99.96 -73.5,299.87 -108.78,670.29 -35.28,370.42 -58.79,911.34 -88.19,1331.73 -29.4,420.4 -64.68,720.26 -155.81,984.84 -91.14,264.59 -238.13,493.89 -379.24,705.56 -141.11,211.67 -276.34,405.69 -385.11,626.18 -108.78,220.49 -191.09,467.43 -246.95,717.31 -55.86,249.89 -85.25,502.72 -94.07,849.61 -8.82,346.9 2.94,787.88 35.28,1064.22 32.34,276.34 85.25,388.06 199.91,493.89 114.65,105.83 291.03,205.79 379.23,293.98 88.19,88.19 88.19,164.63 52.92,241.06 -35.28,76.44 -105.84,152.87 -241.07,202.85 -135.23,49.98 -335.14,73.5 -511.53,64.68 -176.39,-8.82 -329.26,-49.98 -423.33,-126.42 -94.08,-76.43 -129.35,-188.15 -155.81,-308.68 -26.46,-120.53 -44.1,-249.88 -38.22,-734.95 5.88,-485.07 35.28,-1325.86 49.98,-1822.69 14.7,-496.83 14.7,-649.7 58.8,-779.05 44.09,-129.35 132.29,-235.19 205.79,-358.66 73.49,-123.47 132.28,-264.58 176.38,-473.31 44.1,-208.72 73.49,-485.07 70.55,-837.85 -2.94,-352.77 -38.21,-781.99 -114.64,-1099.49 -76.44,-317.5 -194.04,-523.28 -326.33,-723.19 -132.29,-199.91 -279.28,-393.94 -396.87,-537.99 -117.6,-144.05 -205.79,-238.13 -249.89,-285.17 -44.1,-47.03 -44.1,-47.03 -173.45,135.24 -129.35,182.27 -388.06,546.8 -564.44,831.96 -176.39,285.17 -270.47,490.95 -373.36,682.04 -102.89,191.09 -214.61,367.48 -314.56,543.87 -99.95,176.39 -188.15,352.78 -285.16,567.38 -97.01,214.61 -202.85,467.44 -393.93,796.7 -191.09,329.26 -467.44,734.95 -611.49,1008.35 -144.05,273.41 -155.81,414.52 -185.21,623.24 -29.4,208.73 -76.43,485.08 -132.29,717.32 -55.86,232.25 -120.53,420.39 -179.33,664.39 -58.8,244.01 -111.71,543.88 -123.47,834.92 -11.76,291.04 17.63,573.27 64.67,793.75 47.04,220.49 111.71,379.24 126.41,499.77 14.7,120.53 -20.57,202.85 -111.7,252.82 -91.14,49.98 -238.13,67.62 -393.94,79.38 -155.81,11.76 -320.44,17.64 -461.55,-14.7 -141.11,-32.34 -258.71,-102.89 -311.62,-238.13 -52.92,-135.23 -41.16,-335.13 29.4,-579.14 70.55,-244 199.9,-532.11 291.04,-779.06 91.13,-246.94 144.04,-452.72 188.14,-699.67 44.1,-246.94 79.38,-535.05 111.72,-746.72 32.34,-211.66 61.73,-346.89 97.01,-517.4 35.28,-170.51 76.43,-376.29 141.11,-546.8 64.68,-170.51 152.87,-305.75 232.25,-423.34 79.37,-117.59 149.93,-217.55 205.79,-346.9 55.85,-129.35 97.01,-288.1 138.17,-526.23 41.16,-238.12 82.31,-555.62 155.81,-911.34 73.49,-355.72 179.33,-749.65 276.34,-1099.49 97.01,-349.84 185.21,-655.58 232.25,-981.9 47.03,-326.32 52.91,-673.22 79.37,-967.2 26.46,-293.98 73.49,-535.05 97.01,-655.58 23.52,-120.53 23.52,-120.53 -82.31,-64.68 -105.84,55.86 -317.5,167.58 -561.5,273.41 -244.01,105.83 -520.36,205.79 -799.64,270.46 -279.28,64.68 -561.51,94.07 -1002.48,102.89 -440.97,8.82 -1040.7,-2.94 -1340.56,-8.82 -299.86,-5.88 -299.86,-5.88 0,-38.22 299.86,-32.33 899.59,-97.01 1299.41,-158.75 399.81,-61.73 599.72,-120.52 811.39,-194.02 211.67,-73.5 435.09,-161.69 646.76,-252.83 211.67,-91.13 411.57,-185.21 614.42,-326.32 202.85,-141.11 408.63,-329.26 582.08,-529.17 173.45,-199.91 314.57,-411.57 467.44,-634.99 152.87,-223.43 317.49,-458.62 496.82,-711.44 179.33,-252.82 373.36,-523.29 655.59,-740.83 282.22,-217.55 652.63,-382.18 937.8,-499.77 285.16,-117.6 485.06,-188.15 690.85,-246.95 205.79,-58.8 417.46,-105.83 755.54,-135.23 338.08,-29.4 802.57,-41.16 1278.82,-73.5 476.25,-32.34 964.26,-85.25 1234.72,-144.05 270.47,-58.8 323.38,-123.47 423.33,-185.21 99.96,-61.74 246.95,-120.53 376.3,-167.57 129.35,-47.04 241.07,-82.31 361.6,-126.41 120.53,-44.1 249.89,-97.01 355.72,-152.87 105.83,-55.86 188.15,-114.65 255.76,-252.82 67.62,-138.18 120.53,-355.72 164.63,-726.14 44.1,-370.42 79.38,-893.7 102.9,-1214.14 23.52,-320.44 35.27,-438.04 -2.95,-520.35 -38.21,-82.32 -126.41,-129.35 -276.34,-235.18 -149.93,-105.84 -361.59,-270.47 -526.22,-402.76 -164.63,-132.29 -282.23,-232.25 -396.88,-379.24 -114.65,-146.99 -226.37,-341.02 -211.67,-485.07 14.7,-144.05 155.82,-238.13 317.51,-317.5 161.69,-79.38 343.95,-144.05 532.1,-232.24z"/>
   <path class="fil1" d="M7605.58 16865.23c124.94,-110.73 242.54,-198.93 392.47,-257.73 149.93,-58.79 332.19,-88.18 523.28,-97 191.09,-8.82 391,2.93 593.85,26.45 202.85,23.52 408.63,58.8 552.68,138.67 144.05,79.87 226.37,204.32 267.53,266.55 41.15,62.23 41.15,62.23 0,26.46 -41.16,-35.77 -123.48,-107.31 -202.85,-163.66 -79.38,-56.35 -155.81,-97.51 -302.8,-132.79 -147,-35.28 -364.54,-64.67 -564.45,-76.43 -199.91,-11.76 -382.17,-5.88 -537.98,20.58 -155.81,26.46 -285.17,73.49 -432.16,149.92 -146.99,76.44 -311.62,182.28 -427.74,266.55 -116.13,84.28 -183.74,147 -217.55,178.36 -33.81,31.36 -33.81,31.36 32.34,-35.28 66.14,-66.64 198.44,-199.91 323.38,-310.65z"/>
   <path class="fil2" d="M15297.61 10845.45c123.47,199.91 258.7,399.81 388.05,537.99 129.35,138.17 252.83,214.6 438.04,255.76 185.21,41.16 432.15,47.04 625.2,47.54 193.05,0.49 332.2,-4.4 401.77,-6.84 69.58,-2.45 69.58,-2.45 -55.85,8.82 -125.43,11.26 -376.3,33.78 -586.99,39.17 -210.68,5.38 -381.19,-6.37 -525.24,-44.59 -144.05,-38.22 -261.65,-102.89 -382.18,-220.48 -120.53,-117.6 -244.01,-288.11 -352.78,-499.77 -108.77,-211.67 -202.85,-464.5 -249.89,-590.91 -47.03,-126.41 -47.03,-126.41 8.82,-26.45 55.86,99.95 167.58,299.85 291.05,499.76z"/>
  </g>
 </g>
</svg>
