<?xml version="1.0" encoding="UTF-8"?>
<!DOCTYPE svg PUBLIC "-//W3C//DTD SVG 1.1//EN" "http://www.w3.org/Graphics/SVG/1.1/DTD/svg11.dtd">
<!-- Creator: CorelDRAW 2018 (64-Bit) -->
<svg xmlns="http://www.w3.org/2000/svg" xml:space="preserve" width="210mm" height="297mm" version="1.1" style="shape-rendering:geometricPrecision; text-rendering:geometricPrecision; image-rendering:optimizeQuality; fill-rule:evenodd; clip-rule:evenodd"
viewBox="0 0 21000 29700"
 xmlns:xlink="http://www.w3.org/1999/xlink">
 <defs>
  <style type="text/css">
   <![CDATA[
    .fil1 {fill:#FEFEFE}
    .fil0 {fill:#1F1B20}
   ]]>
  </style>
 </defs>
 <g id="Слой_x0020_1">
  <metadata id="CorelCorpID_0Corel-Layer"/>
  <g id="_2240317408368">
   <path class="fil0" d="M5112.33 4237.64c165.52,9.19 312.63,0 468.95,4.59 156.32,4.6 321.83,22.99 464.36,96.56 142.52,73.56 262.06,202.29 377,275.86 114.94,73.55 225.29,91.94 386.2,96.54 160.91,4.59 372.41,-4.59 662.06,41.38 289.64,45.98 657.44,147.12 901.12,220.69 243.67,73.55 363.2,119.52 464.35,128.72 101.14,9.2 183.91,-18.38 266.66,-59.76 82.75,-41.38 165.51,-96.55 271.26,-96.55 105.74,0 234.47,55.17 390.79,96.55 156.32,41.38 340.22,68.96 579.29,147.12 239.08,78.16 533.33,206.89 726.42,289.65 193.09,82.75 285.05,119.53 354.01,147.12 68.97,27.58 114.94,45.97 156.32,91.95 41.38,45.97 78.16,119.54 73.56,257.47 -4.6,137.92 -50.57,340.22 -151.72,648.26 -101.15,308.03 -257.46,721.81 -422.97,983.87 -165.52,262.06 -340.22,372.4 -478.15,482.74 -137.93,110.35 -239.07,220.69 -335.62,252.88 -96.55,32.18 -188.51,-13.79 -257.47,-165.52 -68.96,-151.72 -114.94,-409.18 -137.92,-537.91 -22.99,-128.74 -22.99,-128.74 -78.16,4.59 -55.17,133.33 -165.52,399.99 -234.48,657.46 -68.96,257.46 -96.55,505.73 -87.36,735.61 9.2,229.88 55.17,441.36 128.74,620.67 73.56,179.3 174.71,326.43 321.83,459.76 147.12,133.33 340.22,252.86 583.89,404.59 243.67,151.72 537.91,335.62 850.55,528.71 312.63,193.1 643.66,395.4 960.89,671.25 317.24,275.86 620.68,625.27 1043.66,1108.01 422.98,482.75 965.48,1098.82 1264.33,1503.41 298.85,404.59 354.01,597.69 473.55,827.56 119.54,229.89 303.44,496.54 459.75,777 156.32,280.45 285.06,574.69 363.21,910.31 78.17,335.63 105.74,712.63 119.54,901.13 13.79,188.5 13.79,188.5 147.12,202.29 133.33,13.8 399.99,41.39 625.27,18.4 225.29,-22.99 409.19,-96.55 547.12,-183.91 137.92,-87.35 229.87,-188.5 340.22,-312.63 110.34,-124.14 239.07,-271.26 377,-390.8 137.92,-119.53 285.05,-211.49 395.39,-285.05 110.34,-73.56 183.91,-128.73 294.25,-156.32 110.34,-27.58 257.45,-27.58 428.15,-9.19 170.7,18.4 364.96,55.17 462.1,73.56 97.13,18.39 97.13,18.39 27.58,59.77 -69.54,41.38 -208.64,124.14 -360.95,193.1 -152.3,68.97 -317.81,124.13 -464.93,239.07 -147.13,114.94 -275.86,289.65 -413.79,459.76 -137.93,170.11 -285.04,335.62 -491.94,505.73 -206.89,170.11 -473.55,344.82 -689.64,445.96 -216.08,101.16 -381.59,128.74 -542.51,151.73 -160.91,22.99 -317.23,41.37 -422.98,50.57 -105.74,9.2 -160.91,9.2 -197.69,4.6 -36.78,-4.6 -55.17,-13.8 -142.53,124.13 -87.35,137.93 -243.67,422.98 -427.57,625.27 -183.9,202.29 -395.4,321.84 -588.49,399.99 -193.1,78.17 -367.81,114.94 -427.58,170.11 -59.76,55.17 -4.59,128.74 41.38,216.09 45.98,87.35 82.76,188.5 59.77,266.65 -22.99,78.17 -105.75,133.33 -312.64,248.27 -206.88,114.95 -537.91,289.65 -928.71,459.77 -390.79,170.11 -841.35,335.62 -1112.61,432.16 -271.25,96.56 -363.21,124.14 -542.52,137.93 -179.3,13.8 -445.95,13.8 -629.85,-22.99 -183.91,-36.77 -285.06,-110.34 -349.42,-229.88 -64.37,-119.53 -91.95,-285.04 -68.96,-422.97 22.98,-137.93 96.54,-248.27 239.07,-367.8 142.52,-119.54 354.01,-248.27 602.28,-349.42 248.27,-101.14 533.31,-174.71 717.21,-266.66 183.91,-91.95 266.67,-202.3 266.67,-202.3 0,0 -82.76,110.35 -234.48,197.7 -151.72,87.36 -372.4,151.73 -588.48,234.48 -216.09,82.75 -427.58,183.91 -620.67,271.26 -193.11,87.35 -367.81,160.92 -560.9,197.69 -193.11,36.78 -404.6,36.78 -629.88,36.78 -225.28,0 -464.35,0 -652.85,13.8 -188.5,13.79 -326.43,41.37 -395.39,55.16 -68.97,13.8 -68.97,13.8 -91.96,211.49 -22.99,197.7 -68.96,593.09 -124.13,850.56 -55.17,257.46 -119.54,377 -252.87,496.54 -133.33,119.53 -335.62,239.07 -551.71,262.06 -216.09,22.99 -445.97,-50.58 -648.26,-137.93 -202.29,-87.35 -377,-188.5 -464.35,-312.64 -87.36,-124.13 -87.36,-271.25 -68.97,-450.56 18.39,-179.3 55.17,-390.79 151.73,-625.27 96.54,-234.47 252.86,-491.94 377,-836.76 124.13,-344.82 216.08,-776.99 275.85,-1108.02 59.77,-331.02 87.35,-560.9 147.13,-850.55 59.76,-289.64 151.71,-639.06 170.1,-951.7 18.39,-312.63 -36.78,-588.48 -87.35,-804.57 -50.58,-216.09 -96.55,-372.4 -188.5,-505.73 -91.95,-133.33 -229.88,-243.68 -331.03,-331.03 -101.14,-87.35 -165.51,-151.72 -197.69,-183.91 -32.18,-32.17 -32.18,-32.17 -110.34,156.32 -78.16,188.51 -234.48,565.51 -354.02,942.51 -119.54,377 -202.3,754 -271.26,1135.6 -68.96,381.6 -124.13,767.79 -147.11,1098.81 -22.99,331.04 -13.8,606.89 -211.49,799.99 -197.7,193.1 -602.29,303.44 -914.92,248.27 -312.64,-55.17 -533.32,-275.86 -629.87,-468.96 -96.55,-193.1 -68.97,-358.61 22.99,-537.91 91.95,-179.31 248.26,-372.41 386.19,-648.26 137.93,-275.85 257.46,-634.46 331.03,-1066.64 73.56,-432.17 101.15,-937.9 91.95,-1291.91 -9.2,-354.01 -55.17,-556.31 -91.95,-744.82 -36.78,-188.49 -64.37,-363.2 -18.39,-611.47 45.97,-248.26 165.51,-570.1 229.88,-790.78 64.37,-220.68 73.55,-340.22 32.18,-473.55 -41.38,-133.33 -133.33,-280.45 -188.5,-422.98 -55.17,-142.53 -73.56,-280.45 -68.96,-441.36 4.59,-160.92 32.17,-344.82 114.94,-542.52 82.75,-197.69 220.68,-409.19 289.64,-514.93 68.97,-105.74 68.97,-105.74 9.2,-165.52 -59.77,-59.76 -179.31,-179.3 -280.45,-298.83 -101.15,-119.54 -183.91,-239.08 -243.67,-381.6 -59.78,-142.53 -96.55,-308.04 -96.55,-482.75 0,-174.71 36.77,-358.61 22.98,-574.69 -13.79,-216.09 -78.16,-464.36 -110.34,-740.21 -32.19,-275.86 -32.19,-579.3 -18.39,-928.71 13.79,-349.42 41.38,-744.81 59.77,-1039.05 18.39,-294.25 27.59,-487.35 32.18,-583.9 4.6,-96.55 4.6,-96.55 -101.14,59.77 -105.74,156.32 -317.24,468.96 -445.97,606.88 -128.73,137.92 -174.7,101.15 -216.08,-4.59 -41.38,-105.76 -78.16,-280.46 -147.12,-551.72 -68.97,-271.26 -170.12,-639.06 -248.28,-905.72 -78.16,-266.66 -133.33,-432.17 -124.13,-611.47 9.19,-179.31 82.75,-372.41 119.54,-473.56 36.78,-101.14 36.78,-110.34 114.94,-142.52 78.16,-32.19 234.47,-87.35 349.41,-114.94 114.94,-27.59 188.5,-27.59 262.06,-36.78 73.56,-9.2 147.12,-27.58 275.86,-22.99 128.73,4.6 312.63,32.18 478.14,41.38z"/>
   <path class="fil1" d="M12783.36 16841.89c-112.64,195.4 -213.79,411.49 -282.76,641.37 -68.96,229.88 -105.73,473.55 -91.94,802.27 13.79,328.74 78.15,742.52 126.43,1004.58 48.28,262.07 80.46,372.41 71.27,471.25 -9.19,98.85 -59.76,186.19 -131.02,291.94 -71.26,105.75 -163.22,229.88 -352.44,323.74 -189.22,93.86 -475.7,157.42 -709.25,245.91 -233.54,88.5 -414.15,201.93 -515.01,271.49 -100.85,69.56 -121.94,95.25 -92.28,69.78 29.65,-25.46 110.05,-102.08 210.91,-171.64 100.85,-69.55 222.15,-132.05 334.86,-185.12 112.71,-53.08 216.83,-96.73 341.64,-148.09 124.81,-51.35 270.32,-110.4 386.96,-163.36 116.65,-52.95 204.44,-99.8 266.54,-185.98 62.11,-86.17 98.52,-211.67 107.54,-322.7 9.02,-111.02 -9.37,-207.58 -34.66,-338.61 -25.28,-131.03 -57.47,-296.54 -82.76,-464.35 -25.29,-167.81 -43.67,-337.92 -57.46,-498.84 -13.8,-160.91 -22.99,-312.63 -18.39,-448.26 4.59,-135.63 22.98,-255.16 59.76,-397.69 36.78,-142.52 91.96,-308.03 149.42,-439.06 57.48,-131.03 117.24,-227.59 229.88,-372.41 112.65,-144.83 278.15,-337.92 360.91,-434.48 82.76,-96.55 82.76,-96.55 20.69,-9.2 -62.06,87.36 -186.2,262.07 -298.84,457.46z"/>
   <path class="fil1" d="M8788.65 20943.26c-56.98,244.82 -38.56,109.6 17.32,-183.29 55.88,-292.89 149.22,-743.46 211.87,-1111.26 62.64,-367.81 94.59,-652.86 186.42,-999.98 91.83,-347.12 243.55,-756.31 367.69,-1087.34 124.13,-331.02 220.69,-583.89 278.16,-875.83 57.47,-291.95 75.85,-622.98 85.05,-788.49 9.19,-165.51 9.19,-165.51 11.49,-16.09 2.3,149.43 6.9,448.26 -20.69,685.04 -27.59,236.78 -87.35,411.48 -158.61,632.17 -71.27,220.69 -154.03,487.35 -229.89,744.81 -75.85,257.47 -144.82,505.73 -204.58,694.23 -59.78,188.51 -110.35,317.24 -145.9,442.52 -35.56,125.29 -56.09,247.12 -132.54,620.47 -76.45,373.35 -208.82,998.22 -265.79,1243.04z"/>
   <path class="fil1" d="M9371.54 19213.51c64.79,122.55 170.53,251.28 285.47,336.34 114.94,85.06 239.07,126.43 416.08,142.52 177,16.09 406.89,6.9 655.16,16.09 248.27,9.2 514.92,36.78 675.84,62.07 160.92,25.29 216.08,48.27 243.67,59.77 27.59,11.49 27.59,11.49 -103.44,2.3 -131.04,-9.2 -393.1,-27.59 -655.16,-34.49 -262.06,-6.89 -524.13,-2.29 -710.32,9.2 -186.21,11.49 -296.55,29.89 -429.88,25.29 -133.33,-4.6 -289.64,-32.19 -421.42,-32.33 -131.78,-0.13 -239.02,27.18 -292.64,40.84 -53.62,13.66 -53.62,13.66 -37.8,-80.99 15.82,-94.64 47.45,-283.93 81.74,-413.1 34.28,-129.17 71.21,-198.21 101.7,-269.66 30.48,-71.45 54.52,-145.29 66.54,-182.21 12.02,-36.92 12.02,-36.92 23.94,21.26 11.9,58.19 35.74,174.56 100.52,297.1z"/>
  </g>
 </g>
</svg>
