<?xml version="1.0" encoding="UTF-8"?>
<!DOCTYPE svg PUBLIC "-//W3C//DTD SVG 1.1//EN" "http://www.w3.org/Graphics/SVG/1.1/DTD/svg11.dtd">
<!-- Creator: CorelDRAW 2018 (64-Bit) -->
<svg xmlns="http://www.w3.org/2000/svg" xml:space="preserve" width="210mm" height="297mm" version="1.1" style="shape-rendering:geometricPrecision; text-rendering:geometricPrecision; image-rendering:optimizeQuality; fill-rule:evenodd; clip-rule:evenodd"
viewBox="0 0 21000 29700"
 xmlns:xlink="http://www.w3.org/1999/xlink">
 <defs>
  <style type="text/css">
   <![CDATA[
    .str0 {stroke:#1F1B20;stroke-width:200;stroke-miterlimit:22.9256}
    .fil2 {fill:none}
    .fil1 {fill:#FEFEFE}
    .fil0 {fill:#1F1B20}
   ]]>
  </style>
 </defs>
 <g id="Слой_x0020_1">
  <metadata id="CorelCorpID_0Corel-Layer"/>
  <g id="_2240318834944">
   <g>
    <path class="fil0" d="M7276.58 8774.17c78.71,164.92 161.17,337.33 213.65,584.71 52.47,247.37 74.95,569.71 108.69,910.79 33.73,341.07 78.71,700.89 127.44,978.25 48.72,277.36 101.19,472.26 157.41,637.18 56.22,164.92 116.2,299.84 191.16,408.54 74.96,108.69 164.92,191.16 292.35,239.89 127.44,48.72 292.36,63.71 483.51,74.96 191.15,11.24 408.54,18.73 599.7,26.23 191.15,7.5 356.06,14.99 438.53,18.74 82.45,3.75 82.45,3.75 123.69,-78.71 41.22,-82.46 123.68,-247.38 202.39,-412.29 78.71,-164.91 153.67,-329.84 254.87,-446.02 101.2,-116.19 228.63,-183.66 326.08,-243.63 97.45,-59.97 164.92,-112.45 239.88,-183.66 74.96,-71.22 157.43,-161.17 221.14,-243.63 63.72,-82.45 108.7,-157.42 206.15,-224.88 97.45,-67.47 247.37,-127.44 446.02,-172.42 198.66,-44.98 446.03,-74.96 659.67,-59.96 213.64,14.98 393.55,74.96 569.71,149.92 176.16,74.96 348.58,164.92 483.51,209.9 134.93,44.97 232.38,44.97 352.32,108.69 119.94,63.72 262.37,191.15 419.78,363.57 157.43,172.41 329.84,389.79 464.77,554.72 134.94,164.91 232.39,277.35 292.35,382.3 59.98,104.95 82.47,202.4 101.21,344.83 18.74,142.42 33.73,329.83 3.74,520.99 -29.98,191.15 -104.95,386.05 -176.16,550.97 -71.21,164.92 -138.68,299.84 -251.12,404.79 -112.44,104.95 -269.87,179.92 -374.81,217.4 -104.94,37.48 -157.42,37.48 -202.4,-56.23 -44.97,-93.7 -82.45,-281.11 -108.69,-434.78 -26.24,-153.67 -41.23,-273.61 -86.21,-397.3 -44.98,-123.69 -119.94,-251.12 -157.43,-314.84 -37.47,-63.72 -37.47,-63.72 -26.23,18.74 11.25,82.46 33.74,247.37 48.73,378.56 14.99,131.19 22.48,228.64 52.47,337.33 29.99,108.7 82.46,228.63 108.7,356.07 26.23,127.44 26.23,262.36 -7.5,363.56 -33.73,101.2 -101.2,168.67 -179.91,228.65 -78.71,59.96 -168.66,112.43 -251.12,131.17 -82.46,18.75 -157.42,3.75 -202.4,18.75 -44.98,14.99 -59.97,59.96 -71.21,119.94 -11.25,59.96 -18.75,134.93 -11.25,217.39 7.5,82.46 29.99,172.41 22.49,273.61 -7.5,101.2 -44.97,213.64 -116.19,341.08 -71.21,127.43 -176.16,269.86 -258.62,416.04 -82.46,146.17 -142.43,296.09 -187.41,479.75 -44.97,183.66 -74.95,401.05 -134.93,603.44 -59.96,202.4 -149.92,389.81 -194.9,637.18 -44.98,247.38 -44.98,554.73 -22.49,802.1 22.49,247.38 67.47,434.78 104.95,573.46 37.48,138.68 67.46,228.64 116.19,273.61 48.72,44.98 116.19,44.98 172.41,86.21 56.23,41.23 101.2,123.69 116.19,202.4 15,78.71 0,153.67 -82.45,213.64 -82.46,59.97 -232.39,104.95 -401.05,138.68 -168.66,33.74 -356.07,56.22 -520.99,52.47 -164.92,-3.75 -307.34,-33.73 -378.56,-82.45 -71.21,-48.73 -71.21,-116.2 -74.96,-311.1 -3.75,-194.9 -11.24,-517.24 -44.98,-895.8 -33.73,-378.56 -93.7,-813.33 -104.94,-1139.42 -11.25,-326.09 26.23,-543.47 44.97,-652.17 18.74,-108.69 18.74,-108.69 -78.71,-112.44 -97.45,-3.75 -292.35,-11.25 -457.27,-18.74 -164.91,-7.5 -299.84,-15 -367.31,-18.75 -67.47,-3.74 -67.47,-3.74 -123.69,63.72 -56.22,67.47 -168.66,202.4 -243.63,284.85 -74.96,82.47 -112.44,112.45 -131.18,131.19 -18.74,18.74 -18.74,26.24 -41.23,131.19 -22.49,104.94 -67.47,307.34 -89.95,408.54 -22.49,101.2 -22.49,101.2 7.5,161.17 29.98,59.97 89.95,179.9 149.92,284.85 59.96,104.95 119.94,194.91 161.16,243.63 41.24,48.73 63.72,56.23 138.68,59.97 74.97,3.75 202.4,3.75 299.85,116.2 97.46,112.44 164.93,337.32 179.91,461.01 15,123.69 -22.48,146.17 -224.88,149.92 -202.4,3.75 -569.72,-11.24 -753.37,-18.73 -183.66,-7.5 -183.66,-7.5 -176.16,74.96 7.5,82.45 22.48,247.37 59.97,348.57 37.47,101.2 97.45,138.68 183.65,179.91 86.21,41.23 198.65,86.21 266.12,153.67 67.47,67.46 89.95,157.43 33.72,228.64 -56.21,71.21 -191.14,123.69 -341.06,168.66 -149.93,44.98 -314.85,82.46 -539.73,97.45 -224.89,14.99 -509.75,7.5 -670.91,-63.72 -161.17,-71.21 -198.65,-206.14 -213.64,-427.28 -15,-221.14 -7.5,-528.49 29.98,-933.28 37.48,-404.8 104.95,-907.04 164.92,-1360.57 59.96,-453.51 112.44,-858.31 89.95,-1109.44 -22.49,-251.12 -119.94,-348.57 -179.91,-412.28 -59.97,-63.72 -82.45,-93.71 -187.4,-149.92 -104.95,-56.23 -292.36,-138.69 -389.81,-187.41 -97.45,-48.73 -104.95,-63.72 -142.43,-14.99 -37.48,48.72 -104.95,161.16 -179.91,273.61 -74.96,112.44 -157.42,224.88 -213.64,303.59 -56.22,78.71 -86.2,123.69 -101.19,191.15 -15,67.47 -15,157.43 -11.25,299.85 3.75,142.43 11.24,337.33 3.74,584.7 -7.49,247.38 -29.98,547.24 -3.74,723.4 26.23,176.16 101.2,228.63 153.68,307.34 52.47,78.71 82.45,183.66 101.19,266.11 18.74,82.46 26.24,142.43 -3.74,209.9 -29.99,67.46 -97.46,142.43 -243.63,179.91 -146.18,37.48 -371.07,37.48 -573.47,22.49 -202.4,-15 -382.3,-44.98 -483.5,-104.95 -101.2,-59.97 -123.69,-149.93 -89.96,-299.86 33.73,-149.92 123.69,-359.8 176.17,-509.73 52.47,-149.92 67.46,-239.88 63.71,-442.28 -3.75,-202.4 -26.23,-517.23 -18.74,-742.12 7.5,-224.89 44.98,-359.82 71.22,-446.03 26.23,-86.21 41.22,-123.68 33.72,-198.65 -7.49,-74.96 -37.47,-187.4 -41.22,-314.84 -3.75,-127.44 18.74,-269.86 26.24,-446.02 7.49,-176.17 0,-386.06 67.47,-779.61 67.46,-393.55 209.89,-970.76 337.32,-1356.81 127.44,-386.06 239.88,-580.97 299.85,-708.4 59.97,-127.43 67.47,-187.41 29.99,-419.79 -37.49,-232.38 -119.94,-637.18 -179.91,-1034.48 -59.97,-397.29 -97.45,-787.1 -123.69,-1109.44 -26.24,-322.33 -41.23,-577.2 -59.97,-764.61 -18.74,-187.41 -41.23,-307.34 -74.96,-412.29 -33.74,-104.95 -78.71,-194.91 -97.45,-341.08 -18.75,-146.18 -11.25,-348.58 3.74,-535.98 15,-187.41 37.48,-359.82 97.46,-423.54 59.96,-63.71 157.41,-18.74 243.62,82.47 86.2,101.19 161.17,258.61 239.88,423.53z"/>
    <path class="fil1" d="M9671.03 19327.6c11.88,-178.66 38.11,-399.8 72.98,-573.52 34.87,-173.71 78.37,-300 104.62,-385.37 26.25,-85.37 35.26,-129.82 19.13,-42.32 -16.12,87.52 -57.39,306.98 -94.88,531.03 -37.5,224.06 -71.23,452.69 -88.73,606.98 -17.5,154.3 -18.76,234.26 -19.39,274.23 -0.63,39.99 -0.63,39.99 -1.87,-28.1 -1.25,-68.09 -3.73,-204.27 8.14,-382.93z"/>
    <path class="fil1" d="M11632.85 14577.64c-14.06,-81.05 -8.44,-63.25 30.92,58.56 39.36,121.82 112.44,347.64 182.72,481.17 70.28,133.53 137.75,174.75 235.2,187.87 97.45,13.12 224.88,-1.87 316.71,-33.73 91.83,-31.86 148.05,-80.59 176.17,-104.94 28.11,-24.37 28.11,-24.37 46.84,-3.75 18.74,20.61 56.23,61.84 142.43,65.59 86.21,3.74 221.14,-29.99 330.46,-49.97 109.31,-20 193.01,-26.24 246.73,-49.35 53.71,-23.12 77.45,-63.09 89.32,-83.08 11.87,-19.99 11.87,-19.99 0,0 -11.87,19.99 -35.61,59.96 -79.95,92.45 -44.35,32.48 -109.31,57.47 -183.02,77.46 -73.7,19.98 -156.16,34.97 -234.87,46.22 -78.71,11.24 -153.67,18.74 -209.9,11.24 -56.22,-7.5 -93.69,-29.98 -112.44,-41.22 -18.74,-11.25 -18.74,-11.25 -41.23,3.74 -22.49,15 -67.46,44.98 -116.19,67.47 -48.73,22.49 -101.2,37.48 -153.68,46.85 -52.47,9.37 -104.94,13.12 -155.55,14.99 -50.59,1.87 -99.31,1.87 -148.04,-24.36 -48.72,-26.24 -97.45,-78.71 -144.31,-136.81 -46.84,-58.09 -91.82,-121.81 -131.18,-243.62 -39.35,-121.81 -73.08,-301.73 -87.14,-382.78z"/>
    <path class="fil1" d="M9788.77 13156.64c5.63,9.37 -50.6,166.79 -56.22,346.7 -5.62,179.91 39.36,382.31 125.56,584.7 86.21,202.4 213.64,404.8 356.07,562.22 142.43,157.42 299.85,269.87 442.28,365.44 142.43,95.58 269.86,174.29 356.07,196.78 86.21,22.48 131.18,-11.25 148.05,-211.77 16.87,-200.53 5.62,-567.84 -16.87,-901.42 -22.49,-333.58 -56.22,-633.43 -91.83,-869.56 -35.61,-236.13 -73.08,-408.55 -91.82,-494.76 -18.75,-86.2 -18.75,-86.2 13.11,37.49 31.87,123.69 95.58,371.06 138.69,562.22 43.1,191.15 65.59,326.08 82.45,528.48 16.87,202.39 28.12,472.26 33.74,697.15 5.62,224.88 5.62,404.8 -7.5,524.74 -13.12,119.93 -39.36,179.9 -78.71,213.64 -39.35,33.73 -91.83,41.22 -172.41,7.5 -80.59,-33.74 -189.28,-108.71 -320.47,-204.28 -131.18,-95.58 -284.85,-211.77 -414.16,-344.83 -129.31,-133.06 -234.26,-282.98 -322.34,-440.4 -88.08,-157.42 -159.3,-322.34 -200.52,-472.27 -41.23,-149.92 -52.48,-284.85 -24.36,-421.66 28.1,-136.81 95.57,-275.48 101.19,-266.11z"/>
   </g>
   <circle class="fil2 str0" cx="9864.25" cy="14234.29" r="7029.79"/>
  </g>
 </g>
</svg>
