<?xml version="1.0" encoding="UTF-8"?>
<!DOCTYPE svg PUBLIC "-//W3C//DTD SVG 1.1//EN" "http://www.w3.org/Graphics/SVG/1.1/DTD/svg11.dtd">
<!-- Creator: CorelDRAW 2018 (64-Bit) -->
<svg xmlns="http://www.w3.org/2000/svg" xml:space="preserve" width="210mm" height="297mm" version="1.1" style="shape-rendering:geometricPrecision; text-rendering:geometricPrecision; image-rendering:optimizeQuality; fill-rule:evenodd; clip-rule:evenodd"
viewBox="0 0 21000 29700"
 xmlns:xlink="http://www.w3.org/1999/xlink">
 <defs>
  <style type="text/css">
   <![CDATA[
    .fil1 {fill:#FEFEFE}
    .fil0 {fill:#1F1B20}
   ]]>
  </style>
 </defs>
 <g id="Слой_x0020_1">
  <metadata id="CorelCorpID_0Corel-Layer"/>
  <g id="_2240552991984">
   <path class="fil0" d="M8774.15 3210.76c144.05,-20.58 302.8,-73.49 429.22,-120.53 126.41,-47.04 220.48,-88.19 305.74,-79.37 85.25,8.82 161.69,67.61 291.04,97.01 129.35,29.4 311.62,29.4 488.01,85.26 176.39,55.85 346.9,167.57 535.05,311.62 188.15,144.05 393.93,320.44 535.04,438.03 141.11,117.59 217.55,176.39 305.74,211.67 88.2,35.27 188.15,47.03 279.28,105.83 91.14,58.79 173.46,164.63 244.01,285.16 70.56,120.53 129.35,255.77 258.7,402.76 129.36,146.99 329.26,305.74 508.59,496.83 179.33,191.09 338.08,414.51 429.21,561.5 91.14,146.99 114.66,217.55 114.66,293.99 0,76.43 -23.52,158.74 -179.33,323.37 -155.81,164.63 -443.91,411.58 -723.19,637.95 -279.28,226.36 -549.75,432.15 -732.02,558.57 -182.27,126.41 -276.34,173.44 -352.78,176.38 -76.43,2.94 -135.23,-38.22 -191.09,-91.13 -55.85,-52.92 -108.76,-117.6 -117.58,-76.44 -8.82,41.16 26.45,188.15 67.61,346.9 41.16,158.75 88.19,329.26 146.99,473.31 58.8,144.05 129.35,261.65 252.82,464.5 123.48,202.84 299.86,490.94 411.57,746.71 111.72,255.76 158.76,479.18 217.55,667.33 58.8,188.15 129.36,341.02 249.89,517.41 120.53,176.39 291.04,376.3 488.01,593.85 196.97,217.54 420.39,452.73 567.38,673.22 147,220.48 217.55,426.26 320.44,693.79 102.9,267.52 238.13,596.78 314.56,843.73 76.44,246.94 94.08,411.57 149.93,526.23 55.86,114.65 149.94,179.32 255.77,329.26 105.83,149.93 223.43,385.11 329.26,620.29 105.83,235.19 199.91,470.38 252.82,696.74 52.92,226.37 64.68,443.91 61.74,626.18 -2.94,182.27 -20.58,329.27 -5.88,476.26 14.7,146.99 61.74,293.98 85.26,464.49 23.52,170.51 23.52,364.53 35.28,511.52 11.76,146.99 35.27,246.95 61.73,361.6 26.46,114.65 55.86,244.01 76.44,364.54 20.58,120.53 32.33,232.25 73.49,317.5 41.16,85.26 111.71,144.05 191.08,226.36 79.38,82.32 167.58,188.16 217.55,282.23 49.98,94.07 61.74,176.39 29.4,249.88 -32.33,73.5 -108.77,138.17 -217.54,191.09 -108.77,52.92 -249.89,94.07 -396.88,129.35 -146.99,35.28 -299.86,64.68 -438.03,47.04 -138.17,-17.64 -261.65,-82.31 -361.6,-170.51 -99.95,-88.19 -176.39,-199.91 -208.73,-361.6 -32.33,-161.69 -20.58,-373.35 -41.16,-590.9 -20.58,-217.55 -73.49,-440.97 -108.77,-605.6 -35.28,-164.63 -52.91,-270.47 -88.19,-379.24 -35.28,-108.77 -88.19,-220.49 -191.09,-326.32 -102.89,-105.83 -255.76,-205.79 -341.02,-285.17 -85.25,-79.37 -102.89,-138.16 -164.63,-67.61 -61.73,70.56 -167.57,270.46 -273.4,388.05 -105.83,117.6 -211.67,152.88 -267.53,226.37 -55.85,73.5 -61.73,185.22 -144.05,255.77 -82.31,70.56 -241.06,99.95 -370.41,135.23 -129.35,35.28 -229.31,76.43 -293.99,117.59 -64.67,41.16 -94.07,82.32 -132.29,235.19 -38.22,152.87 -85.25,417.46 -126.41,676.16 -41.16,258.7 -76.43,511.53 -108.77,770.23 -32.34,258.7 -61.74,523.29 -99.96,693.8 -38.22,170.51 -85.25,246.94 -202.85,311.62 -117.59,64.68 -305.73,117.59 -505.64,161.69 -199.91,44.1 -411.57,79.37 -611.48,99.95 -199.91,20.58 -388.06,26.46 -496.83,-20.58 -108.78,-47.03 -138.17,-146.99 -114.65,-296.92 23.51,-149.93 99.95,-349.83 205.78,-552.68 105.83,-202.85 241.07,-408.64 352.78,-573.27 111.71,-164.63 199.91,-288.1 246.94,-435.09 47.04,-146.99 52.92,-317.5 55.86,-402.76 2.94,-85.25 2.94,-85.25 -149.93,-38.22 -152.87,47.04 -458.61,141.12 -676.15,194.03 -217.55,52.92 -346.91,64.68 -411.58,70.56 -64.68,5.88 -64.68,5.88 -73.5,132.29 -8.82,126.41 -26.46,379.24 -85.25,561.5 -58.8,182.27 -158.76,293.99 -323.39,355.72 -164.63,61.74 -393.93,73.5 -629.11,79.38 -235.19,5.88 -476.26,5.88 -608.55,-61.74 -132.29,-67.61 -155.81,-202.85 -126.41,-361.6 29.4,-158.75 111.71,-341.01 226.37,-467.43 114.65,-126.41 261.64,-196.96 296.92,-244 35.27,-47.04 -41.16,-70.55 -49.98,-126.41 -8.82,-55.86 49.97,-144.05 108.77,-252.83 58.8,-108.77 117.59,-238.12 155.81,-349.84 38.22,-111.71 55.86,-205.78 55.86,-326.32 0,-120.53 -17.64,-267.52 -55.86,-373.36 -38.22,-105.83 -97.01,-170.5 -114.65,-288.1 -17.64,-117.59 5.88,-288.1 32.34,-473.31 26.46,-185.21 55.85,-385.11 5.88,-682.04 -49.98,-296.92 -179.33,-690.85 -273.4,-993.66 -94.08,-302.8 -152.87,-514.46 -167.57,-696.73 -14.7,-182.27 14.69,-335.14 17.63,-476.25 2.94,-141.11 -20.57,-270.46 -58.79,-461.55 -38.22,-191.09 -91.13,-443.91 -164.63,-635 -73.5,-191.09 -167.57,-320.44 -246.94,-526.22 -79.38,-205.79 -144.06,-488.02 -149.93,-752.6 -5.88,-264.59 47.03,-511.53 138.17,-829.03 91.13,-317.5 220.48,-705.56 338.07,-1002.48 117.59,-296.92 223.43,-502.71 329.26,-737.89 105.83,-235.19 211.67,-499.78 282.23,-820.22 70.55,-320.44 105.83,-696.73 126.41,-990.71 20.58,-293.99 26.46,-505.65 -8.82,-629.12 -35.28,-123.48 -111.71,-158.75 -252.82,-223.42 -141.12,-64.68 -346.9,-158.76 -520.35,-223.43 -173.45,-64.68 -314.57,-99.96 -443.92,-161.69 -129.35,-61.74 -246.94,-149.94 -323.37,-258.71 -76.44,-108.77 -111.72,-238.13 -147,-329.26 -35.28,-91.14 -70.55,-144.05 -102.89,-211.66 -32.34,-67.62 -61.74,-149.94 -64.68,-282.23 -2.94,-132.29 20.58,-314.56 70.56,-461.55 49.98,-146.99 126.41,-258.71 182.27,-367.48 55.86,-108.77 91.13,-214.61 120.53,-285.16 29.4,-70.56 52.91,-105.83 85.25,-129.35 32.34,-23.52 73.5,-35.28 108.78,-44.1 35.28,-8.82 64.67,-14.7 152.87,-29.4 88.19,-14.7 235.18,-38.21 355.72,-55.85 120.53,-17.64 214.6,-29.4 252.82,-67.62 38.22,-38.22 20.58,-102.89 20.58,-161.69 0,-58.8 17.64,-111.71 61.74,-164.63 44.09,-52.92 114.65,-105.83 196.97,-173.45 82.31,-67.62 176.38,-149.93 288.1,-185.21 111.71,-35.28 241.06,-23.52 385.11,-44.1z"/>
   <path class="fil1" d="M9681.1 17918.68c151.4,76.44 360.12,188.16 485.07,249.89 124.94,61.74 166.1,73.5 169.04,95.55 2.94,22.05 -32.34,54.38 -102.89,94.07 -70.56,39.69 -176.4,86.73 -317.51,138.17 -141.11,51.45 -317.5,107.31 -402.75,132.29 -85.26,24.99 -79.38,19.12 -82.32,-69.08 -2.94,-88.19 -14.69,-258.7 -30.86,-396.87 -16.17,-138.17 -36.75,-244.01 -47.04,-305.75 -10.29,-61.73 -10.29,-79.37 36.75,-67.61 47.03,11.76 141.11,52.91 292.51,129.34z"/>
   <path class="fil1" d="M13758.63 15868.15c-95.54,101.43 -157.28,171.98 -201.38,255.76 -44.09,83.79 -70.55,180.81 -80.84,310.16 -10.29,129.35 -4.41,291.04 7.35,435.09 11.76,144.05 29.4,270.47 47.24,368.41 17.85,97.95 35.9,167.44 44.92,202.18 9.03,34.74 9.03,34.74 -19.11,-32.34 -28.13,-67.08 -84.4,-201.24 -119.89,-357.99 -35.48,-156.74 -50.17,-336.07 -53.11,-475.71 -2.94,-139.64 5.87,-239.6 41.15,-352.78 35.28,-113.18 97.01,-239.6 216.07,-361.6 119.07,-122 295.46,-239.6 383.65,-298.4 88.2,-58.79 88.2,-58.79 23.52,7.35 -64.67,66.15 -194.03,198.45 -289.57,299.87z"/>
   <path class="fil1" d="M12128.86 17985.73c34.89,-305.19 52.53,-587.42 90.74,-943.14 38.22,-355.71 97.02,-784.93 205.79,-1228.84 108.77,-443.91 267.52,-902.52 352.77,-1170.04 85.26,-267.53 97.02,-343.96 70.56,-490.95 -26.46,-147 -91.13,-364.54 -126.41,-508.59 -35.28,-144.06 -41.15,-214.61 -20.57,-370.42 20.58,-155.81 67.61,-396.88 91.13,-517.41 23.52,-120.53 23.52,-120.53 5.88,2.94 -17.64,123.47 -52.92,370.42 -44.1,567.39 8.82,196.96 61.73,343.96 99.95,458.61 38.22,114.65 61.74,196.97 82.32,279.29 20.58,82.31 38.22,164.62 20.58,270.46 -17.64,105.83 -70.55,235.18 -141.11,438.03 -70.56,202.84 -158.75,479.19 -238.13,784.93 -79.37,305.74 -149.93,640.88 -205.79,961.32 -55.85,320.44 -97.01,626.18 -158.36,1028.39 -61.35,402.21 -142.89,900.9 -183.66,1150.24 -40.77,249.34 -40.77,249.34 -14.7,85.25 26.07,-164.08 78.22,-492.26 113.11,-797.46z"/>
   <path class="fil1" d="M10739.57 14720.13c6.82,-8.82 170.41,342.5 254.14,544.61 83.73,202.12 87.6,255.03 94.26,346.16 6.67,91.14 16.14,220.5 22.45,348.38 6.31,127.88 9.47,254.29 -9.53,402.75 -19,148.46 -60.15,318.97 -95.43,468.9 -35.28,149.93 -64.67,279.28 -99.95,414.51 -35.28,135.23 -76.44,276.35 -126.42,408.64 -49.97,132.29 -108.77,255.77 -129.35,370.42 -20.57,114.65 -2.94,220.49 -3.43,427.25 -0.48,206.77 -19.1,514.48 -28.41,668.33 -9.3,153.85 -9.3,153.85 -14.69,11.75 -5.39,-142.09 -16.18,-426.27 -21.57,-653.62 -5.39,-227.35 -5.39,-397.86 24.01,-553.67 29.4,-155.81 88.19,-296.92 152.86,-473.31 64.68,-176.39 135.24,-388.05 176.39,-602.66 41.16,-214.61 52.92,-432.15 68.99,-595.31 16.08,-163.16 36.48,-271.94 41.99,-393.95 5.51,-122 -3.85,-257.23 -83.51,-509.33 -79.66,-252.09 -229.62,-621.03 -222.8,-629.85z"/>
   <path class="fil1" d="M8566.6 14871.9c-21.51,-58.42 -17.49,-45.93 76.59,92.24 94.07,138.18 278.19,402.02 490.79,572.16 212.59,170.15 453.65,246.58 732.94,328.89 279.28,82.32 596.78,170.52 755.53,214.61 158.75,44.1 158.75,44.1 58.79,29.4 -99.95,-14.7 -299.86,-44.09 -523.28,-88.19 -223.43,-44.1 -470.38,-102.89 -655.58,-161.69 -185.21,-58.8 -308.69,-117.59 -435.1,-229.31 -126.41,-111.71 -255.76,-276.34 -343.95,-423.33 -88.2,-146.99 -135.23,-276.35 -156.73,-334.78z"/>
   <path class="fil1" d="M9365.58 17209.78c1.57,-281.13 -1.37,-660.36 3.04,-886.73 4.41,-226.37 16.17,-299.86 39.69,-351.67 23.52,-51.81 58.79,-81.94 76.43,-97 17.64,-15.06 17.64,-15.06 -1.47,17.64 -19.11,32.7 -57.32,98.1 -73.49,221.93 -16.17,123.84 -10.29,306.11 -5.88,548.64 4.41,242.54 7.35,545.35 -1.57,754.45 -8.92,209.1 -29.71,324.51 -40.1,382.21 -10.39,57.7 -10.39,57.7 -7.35,-33.81 3.04,-91.51 9.13,-274.53 10.7,-555.66z"/>
   <path class="fil1" d="M9347.32 19195.36c22.14,-151.56 56.75,-355.92 74.06,-458.11 17.31,-102.18 17.31,-102.18 19.11,-54.39 1.8,47.8 5.4,143.4 -5.89,287.6 -11.29,144.21 -37.48,337.02 -61.42,440.78 -23.94,103.77 -45.63,118.47 -56.48,125.82 -10.85,7.36 -10.85,7.36 -6.02,-42.02 4.83,-49.37 14.5,-148.12 36.64,-299.68z"/>
   <path class="fil1" d="M8344.12 19041.64c-17.64,71.29 -51.45,187.42 -87.46,263.12 -36.02,75.7 -74.23,110.98 -121.68,145.98 -47.45,35.01 -104.13,69.73 -132.47,87.09 -28.34,17.37 -28.34,17.37 3.68,-8.82 32.01,-26.18 96.04,-78.54 142.76,-131.19 46.71,-52.64 76.1,-105.55 98.89,-162.88 22.78,-57.33 38.95,-119.06 55.86,-181.54 16.9,-62.47 34.54,-125.67 40.42,-245.47 5.88,-119.8 0,-296.18 -7.18,-387.74 -7.19,-91.55 -15.68,-98.26 -10.53,-54.9 5.14,43.36 23.92,136.8 32.58,237.17 8.65,100.37 7.18,207.68 5.71,274.56 -1.47,66.88 -2.94,93.33 -20.58,164.62z"/>
   <path class="fil1" d="M11141.71 7440.76c-18.02,-128.26 -32.72,-254.67 -26.84,-406.07 5.88,-151.4 32.33,-327.79 67.61,-474.78 35.28,-146.99 79.38,-264.59 110.25,-429.22 30.87,-164.63 48.5,-376.29 57.32,-482.12 8.82,-105.84 8.82,-105.84 -7.35,-4.41 -16.17,101.42 -48.5,304.26 -91.13,477.71 -42.63,173.45 -95.54,317.5 -136.7,468.9 -41.16,151.4 -70.56,310.16 -72.03,489.49 -1.47,179.33 24.99,379.23 56.24,507.49 31.26,128.26 67.32,184.86 85.34,213.17 18.03,28.3 18.03,28.3 7.35,-36.75 -10.67,-65.05 -32.03,-195.16 -50.06,-323.41z"/>
  </g>
 </g>
</svg>
