<?xml version="1.0" encoding="UTF-8"?>
<!DOCTYPE svg PUBLIC "-//W3C//DTD SVG 1.1//EN" "http://www.w3.org/Graphics/SVG/1.1/DTD/svg11.dtd">
<!-- Creator: CorelDRAW 2018 (64-Bit) -->
<svg xmlns="http://www.w3.org/2000/svg" xml:space="preserve" width="210mm" height="297mm" version="1.1" style="shape-rendering:geometricPrecision; text-rendering:geometricPrecision; image-rendering:optimizeQuality; fill-rule:evenodd; clip-rule:evenodd"
viewBox="0 0 21000 29700"
 xmlns:xlink="http://www.w3.org/1999/xlink">
 <defs>
  <style type="text/css">
   <![CDATA[
    .str0 {stroke:#1F1B20;stroke-width:200;stroke-miterlimit:22.9256}
    .fil2 {fill:none}
    .fil1 {fill:#FEFEFE}
    .fil0 {fill:#1F1B20}
   ]]>
  </style>
 </defs>
 <g id="Слой_x0020_1">
  <metadata id="CorelCorpID_0Corel-Layer"/>
  <g id="_2241920403456">
   <g>
    <path class="fil0" d="M10257.16 6489.89c70.04,-46.69 138.29,-86.2 184.98,-122.12 46.7,-35.93 71.84,-68.25 89.8,-120.33 17.96,-52.09 28.74,-123.93 34.13,-179.6 5.39,-55.68 5.39,-95.19 10.77,-141.88 5.39,-46.7 16.16,-100.59 41.31,-154.46 25.14,-53.88 64.65,-107.76 91.59,-154.45 26.94,-46.7 41.31,-86.21 57.48,-134.7 16.16,-48.49 34.12,-105.97 48.49,-147.27 14.37,-41.31 25.14,-66.46 41.31,-88.01 16.16,-21.56 37.71,-39.51 71.84,-50.29 34.12,-10.77 80.81,-14.37 107.75,-28.73 26.95,-14.37 34.13,-39.51 59.27,-57.47 25.15,-17.96 68.25,-28.74 122.13,-26.95 53.88,1.8 118.53,16.17 170.62,16.17 52.08,0 91.59,-14.37 132.9,-28.74 41.31,-14.37 84.41,-28.73 136.49,-35.91 52.09,-7.19 113.16,-7.19 246.05,-3.6 132.91,3.6 337.65,10.77 468.76,21.55 131.1,10.78 188.58,25.15 238.86,43.11 50.3,17.96 93.4,39.51 138.29,52.08 44.9,12.57 91.6,16.16 147.28,17.96 55.67,1.8 120.33,1.8 165.22,21.55 44.91,19.76 70.05,59.27 93.4,98.78 23.35,39.52 44.9,79.02 80.81,114.95 35.93,35.92 86.22,68.24 131.11,88 44.91,19.76 84.41,26.94 129.32,59.27 44.9,32.32 95.18,89.8 143.67,138.29 48.5,48.49 95.19,88 150.87,143.68 55.67,55.67 120.33,127.51 165.23,188.58 44.9,61.06 70.04,111.34 75.43,158.04 5.39,46.7 -8.98,89.8 -32.33,131.11 -23.35,41.3 -55.67,80.82 -93.39,134.7 -37.72,53.87 -80.82,122.12 -129.31,188.57 -48.49,66.45 -102.37,131.11 -163.43,185 -61.07,53.87 -129.32,96.97 -168.83,125.71 -39.51,28.74 -50.29,43.11 -48.49,140.09 1.8,96.98 16.17,276.58 30.53,470.55 14.37,193.96 28.74,402.3 43.11,551.37 14.37,149.06 28.73,238.86 70.04,344.82 41.31,105.97 109.56,228.09 170.62,425.65 61.06,197.56 114.94,470.55 159.84,684.27 44.9,213.72 80.82,368.18 129.31,592.68 48.49,224.49 109.56,519.04 140.09,766.89 30.53,247.84 30.53,448.99 1.79,657.32 -28.73,208.34 -86.2,423.86 -141.88,635.79 -55.67,211.92 -109.55,420.26 -152.66,576.51 -43.1,156.25 -75.42,260.41 -93.38,352.01 -17.97,91.59 -21.56,170.62 -10.78,242.46 10.78,71.84 35.91,136.5 39.51,249.64 3.59,113.15 -14.37,274.79 -46.7,492.1 -32.33,217.31 -79.02,490.31 -105.96,713.01 -26.94,222.7 -34.13,395.12 -39.51,605.24 -5.39,210.13 -8.98,457.98 -10.78,677.09 -1.8,219.11 -1.8,409.49 7.18,589.08 8.98,179.6 26.95,348.43 48.5,520.84 21.55,172.41 46.69,348.43 64.65,463.36 17.96,114.95 28.74,168.83 44.9,220.91 16.17,52.09 37.72,102.37 86.21,127.52 48.49,25.14 123.93,25.14 184.99,32.33 61.06,7.18 107.76,21.54 143.67,57.47 35.92,35.92 61.07,93.39 57.48,154.45 -3.59,61.07 -35.92,125.73 -102.37,172.42 -66.45,46.7 -167.03,75.43 -283.77,79.02 -116.74,3.59 -249.64,-17.96 -348.42,-48.49 -98.78,-30.53 -163.44,-70.05 -220.91,-145.48 -57.47,-75.43 -107.75,-186.78 -134.7,-326.87 -26.94,-140.08 -30.53,-308.91 -48.49,-497.49 -17.96,-188.57 -50.29,-396.91 -70.04,-590.88 -19.76,-193.96 -26.94,-373.56 -41.31,-594.47 -14.37,-220.9 -35.92,-483.12 -68.25,-754.31 -32.33,-271.19 -75.43,-551.37 -98.78,-824.36 -23.35,-272.99 -26.93,-538.8 -26.93,-743.54 0,-204.74 3.58,-348.42 5.38,-427.44 1.8,-79.02 1.8,-93.39 -50.29,-77.23 -52.08,16.17 -156.24,62.86 -310.7,75.43 -154.45,12.58 -359.2,-8.98 -520.84,-26.94 -161.64,-17.96 -280.17,-32.32 -346.63,-41.3 -66.45,-8.98 -80.81,-12.58 -93.38,64.65 -12.58,77.23 -23.35,235.28 -37.72,452.59 -14.37,217.31 -32.32,493.9 -48.49,666.31 -16.16,172.42 -30.53,240.67 -50.29,330.47 -19.76,89.79 -44.9,201.14 -64.65,414.86 -19.76,213.73 -34.13,529.82 -28.74,792.03 5.39,262.22 30.53,470.55 37.72,633.98 7.18,163.44 -3.6,281.98 -5.39,409.5 -1.8,127.51 5.39,264 53.88,448.99 48.49,184.99 138.29,418.47 229.88,596.27 91.6,177.8 184.99,299.93 217.31,398.71 32.33,98.78 3.6,174.21 -48.49,235.27 -52.08,61.06 -127.51,107.76 -262.21,136.49 -134.7,28.74 -328.66,39.52 -477.73,34.13 -149.07,-5.39 -253.24,-26.94 -325.08,-80.82 -71.84,-53.88 -111.35,-140.09 -127.51,-258.62 -16.17,-118.53 -8.98,-269.4 5.39,-429.24 14.37,-159.84 35.92,-328.67 35.92,-472.35 0,-143.68 -21.55,-262.21 -41.31,-350.21 -19.76,-88.01 -37.71,-145.48 -44.9,-229.89 -7.18,-84.41 -3.59,-195.76 0,-316.09 3.6,-120.33 7.19,-249.65 21.56,-484.92 14.36,-235.27 39.5,-576.51 48.48,-842.32 8.99,-265.8 1.8,-456.18 -1.79,-757.9 -3.59,-301.73 -3.59,-714.81 -3.59,-987.8 0,-272.99 0,-405.89 8.98,-519.04 8.98,-113.14 26.93,-206.54 43.1,-280.17 16.16,-73.63 30.53,-127.52 30.53,-154.45 0,-26.94 -14.37,-26.94 -68.25,-53.88 -53.88,-26.95 -147.27,-80.82 -206.54,-114.95 -59.27,-34.12 -84.4,-48.49 -96.98,-55.67 -12.57,-7.19 -12.57,-7.19 -21.55,64.65 -8.98,71.84 -26.94,215.52 -71.83,393.32 -44.9,177.8 -116.75,389.73 -183.2,585.49 -66.45,195.77 -127.51,375.36 -219.11,553.16 -91.59,177.81 -213.72,353.82 -321.48,501.09 -107.76,147.27 -201.15,265.81 -258.62,332.26 -57.48,66.45 -79.02,80.81 -95.19,134.69 -16.16,53.88 -26.94,147.27 -66.45,247.85 -39.51,100.57 -107.76,208.33 -154.46,312.5 -46.7,104.17 -71.83,204.75 -79.02,344.83 -7.18,140.09 3.59,319.69 46.7,535.2 43.1,215.52 118.53,466.96 174.21,642.97 55.67,176.01 91.59,276.58 120.32,321.48 28.74,44.9 50.3,34.12 91.61,46.7 41.3,12.57 102.37,48.49 140.09,102.36 37.71,53.89 52.07,125.73 12.56,184.99 -39.51,59.27 -132.9,105.97 -244.26,134.7 -111.35,28.74 -240.65,39.51 -348.41,28.74 -107.76,-10.78 -193.97,-43.1 -249.64,-95.19 -55.68,-52.08 -80.83,-123.92 -98.79,-220.91 -17.96,-96.98 -28.73,-219.1 -48.49,-418.46 -19.75,-199.35 -48.49,-475.94 -71.83,-727.38 -23.35,-251.44 -41.31,-477.73 -61.07,-659.13 -19.76,-181.39 -41.31,-317.88 -59.27,-445.4 -17.96,-127.51 -32.33,-246.04 -12.57,-325.07 19.76,-79.03 73.63,-118.53 141.89,-201.15 68.24,-82.62 150.86,-208.33 219.1,-325.07 68.25,-116.74 122.13,-224.5 158.05,-335.85 35.92,-111.36 53.88,-226.29 66.45,-386.14 12.57,-159.84 19.76,-364.58 8.98,-567.53 -10.77,-202.95 -39.51,-404.1 -86.2,-567.53 -46.7,-163.44 -111.36,-289.16 -143.69,-352.01 -32.33,-62.87 -32.33,-62.87 -59.26,-43.11 -26.94,19.76 -80.83,59.27 -140.09,82.62 -59.27,23.34 -123.93,30.52 -167.03,46.69 -43.1,16.16 -64.65,41.31 -131.1,98.78 -66.45,57.47 -177.81,147.27 -255.03,213.73 -77.23,66.45 -120.33,109.55 -152.66,174.2 -32.33,64.66 -53.88,150.87 -84.41,244.26 -30.54,93.39 -70.05,193.96 -138.29,287.35 -68.25,93.4 -165.24,179.6 -238.87,269.4 -73.63,89.8 -123.93,183.2 -197.56,303.52 -73.63,120.34 -170.62,267.61 -278.38,470.55 -107.76,202.95 -226.29,461.57 -298.13,659.13 -71.84,197.56 -96.98,334.05 -116.74,423.85 -19.76,89.8 -34.13,132.9 -61.06,183.19 -26.94,50.29 -66.46,107.76 -84.41,201.16 -17.96,93.39 -14.38,222.69 -30.54,364.57 -16.16,141.89 -52.08,296.35 -70.04,463.37 -17.96,167.03 -17.96,346.63 -17.96,479.53 0,132.9 0,219.11 17.96,290.95 17.96,71.84 53.88,129.31 80.82,190.37 26.94,61.07 44.9,125.73 19.76,193.98 -25.15,68.24 -93.4,140.08 -190.38,183.18 -96.99,43.11 -222.7,57.47 -319.68,53.88 -96.99,-3.59 -165.24,-25.14 -231.69,-95.19 -66.45,-70.04 -131.11,-188.57 -145.47,-334.05 -14.37,-145.47 21.55,-317.89 70.04,-508.26 48.49,-190.37 109.56,-398.71 147.28,-572.92 37.71,-174.21 52.07,-314.3 50.27,-468.76 -1.79,-154.45 -19.75,-323.27 1.81,-454.38 21.54,-131.11 82.61,-224.5 109.55,-312.5 26.94,-88 19.75,-170.62 39.51,-231.68 19.76,-61.07 66.45,-100.57 123.93,-176.01 57.46,-75.43 125.72,-186.78 179.6,-350.22 53.88,-163.43 93.38,-378.95 129.31,-623.2 35.92,-244.25 68.24,-517.25 120.33,-721.99 52.08,-204.74 123.92,-341.24 179.6,-488.5 55.67,-147.28 95.18,-305.33 120.32,-423.86 25.15,-118.53 35.92,-197.56 52.09,-264.01 16.16,-66.45 37.71,-120.34 48.49,-233.48 10.77,-113.14 10.77,-285.56 32.33,-481.33 21.55,-195.76 64.65,-414.86 96.98,-592.67 32.33,-177.8 53.88,-314.29 120.33,-454.38 66.45,-140.09 177.8,-283.77 319.69,-420.27 141.88,-136.49 314.3,-265.8 391.52,-348.42 77.23,-82.62 59.27,-118.53 52.09,-179.59 -7.19,-61.07 -3.6,-147.28 19.75,-204.75 23.35,-57.47 66.45,-86.2 118.54,-109.55 52.08,-23.35 113.15,-41.31 188.58,-37.72 75.43,3.59 165.23,28.74 211.92,41.31 46.7,12.57 50.29,12.57 96.99,-10.78 46.69,-23.35 136.49,-70.04 335.85,-109.55 199.35,-39.52 508.26,-71.84 739.94,-89.8 231.69,-17.96 386.14,-21.55 553.17,-43.11 167.02,-21.55 346.62,-61.06 495.69,-95.18 149.07,-34.13 267.6,-62.86 375.36,-116.74 107.76,-53.88 204.75,-132.91 265.81,-201.15 61.06,-68.25 86.2,-125.73 122.12,-235.28 35.93,-109.55 82.62,-271.19 109.56,-389.72 26.94,-118.54 34.12,-193.98 37.71,-237.08 3.59,-43.1 3.59,-53.87 -35.92,-59.26 -39.51,-5.39 -118.53,-5.39 -244.25,-5.39 -125.71,0 -298.13,0 -425.65,-1.8 -127.51,-1.79 -210.13,-5.38 -251.44,-7.18 -41.31,-1.8 -41.31,-1.8 -43.1,16.16 -1.8,17.97 -5.39,53.88 -23.35,68.25 -17.96,14.37 -50.29,7.18 -86.2,-7.18 -35.92,-14.37 -75.44,-35.92 -111.35,-66.45 -35.93,-30.54 -68.25,-70.05 -100.58,-131.11 -32.33,-61.06 -64.65,-143.68 -84.41,-190.38 -19.76,-46.7 -26.94,-57.47 -41.31,-64.65 -14.37,-7.18 -35.92,-10.78 -44.9,-34.13 -8.98,-23.35 -5.39,-66.45 -12.58,-93.39 -7.18,-26.94 -25.13,-37.72 -41.3,-53.88 -16.16,-16.16 -30.53,-37.71 -39.51,-73.63 -8.98,-35.92 -12.58,-86.21 1.79,-132.9 14.37,-46.7 46.69,-89.8 104.17,-149.07 57.47,-59.27 140.09,-134.7 217.32,-199.36 77.22,-64.65 149.07,-118.53 219.11,-165.23z"/>
    <path class="fil1" d="M8709.83 12388c67.43,-43.16 137.48,-75.49 218.29,-100.63 80.82,-25.15 172.42,-43.1 321.49,-19.75 149.06,23.34 355.6,88 531.91,173.6 176.31,85.6 322.38,192.16 395.42,245.44 73.03,53.27 73.03,53.27 30.53,30.52 -42.51,-22.74 -127.52,-68.23 -206.84,-110.73 -79.32,-42.5 -152.96,-82.01 -234.68,-120.63 -81.72,-38.61 -171.52,-76.32 -259.52,-105.06 -88,-28.74 -174.21,-48.49 -246.94,-59.27 -72.75,-10.77 -132.01,-12.57 -192.17,-8.08 -60.17,4.49 -121.24,15.27 -183.2,35.92 -61.96,20.66 -124.82,51.18 -186.87,84.47 -62.05,33.28 -123.29,69.31 -153.91,87.33 -30.61,18.01 -30.61,18.01 1.8,-8.98 32.42,-27 97.25,-80.99 164.69,-124.15z"/>
   </g>
   <circle class="fil2 str0" cx="9729.51" cy="12079.39" r="8008.06"/>
  </g>
 </g>
</svg>
