<?xml version="1.0" encoding="UTF-8"?>
<!DOCTYPE svg PUBLIC "-//W3C//DTD SVG 1.1//EN" "http://www.w3.org/Graphics/SVG/1.1/DTD/svg11.dtd">
<!-- Creator: CorelDRAW 2018 (64-Bit) -->
<svg xmlns="http://www.w3.org/2000/svg" xml:space="preserve" width="210mm" height="297mm" version="1.1" style="shape-rendering:geometricPrecision; text-rendering:geometricPrecision; image-rendering:optimizeQuality; fill-rule:evenodd; clip-rule:evenodd"
viewBox="0 0 21000 29700"
 xmlns:xlink="http://www.w3.org/1999/xlink">
 <defs>
  <style type="text/css">
   <![CDATA[
    .fil1 {fill:#FEFEFE}
    .fil0 {fill:#1F1B20}
   ]]>
  </style>
 </defs>
 <g id="Слой_x0020_1">
  <metadata id="CorelCorpID_0Corel-Layer"/>
  <g id="_2240507040528">
   <path class="fil0" d="M10359.32 4046.41c114.65,-76.44 226.37,-141.11 302.8,-199.91 76.44,-58.8 117.59,-111.71 146.99,-196.96 29.4,-85.26 47.04,-202.86 55.86,-293.99 8.82,-91.14 8.82,-155.81 17.64,-232.24 8.82,-76.44 26.45,-164.64 67.61,-252.83 41.16,-88.19 105.83,-176.39 149.93,-252.82 44.1,-76.44 67.62,-141.11 94.08,-220.48 26.46,-79.38 55.85,-173.46 79.37,-241.07 23.52,-67.62 41.16,-108.78 67.62,-144.06 26.46,-35.28 61.73,-64.67 117.59,-82.31 55.86,-17.64 132.29,-23.52 176.39,-47.04 44.1,-23.52 55.86,-64.67 97.01,-94.07 41.16,-29.4 111.72,-47.04 199.91,-44.1 88.19,2.94 194.03,26.46 279.28,26.46 85.26,0 149.93,-23.52 217.55,-47.04 67.62,-23.52 138.17,-47.03 223.42,-58.79 85.26,-11.76 185.22,-11.76 402.76,-5.88 217.55,5.88 552.69,17.63 767.29,35.27 214.61,17.64 308.69,41.16 391,70.56 82.32,29.4 152.87,64.67 226.36,85.25 73.5,20.58 149.94,26.46 241.07,29.4 91.13,2.94 196.97,2.94 270.46,35.28 73.5,32.34 114.66,97.01 152.88,161.69 38.22,64.68 73.49,129.35 132.28,188.15 58.8,58.8 141.12,111.71 214.61,144.05 73.5,32.34 138.17,44.1 211.67,97.02 73.5,52.91 155.81,146.99 235.18,226.37 79.38,79.37 155.82,144.04 246.95,235.18 91.13,91.13 196.97,208.72 270.46,308.68 73.5,99.95 114.66,182.26 123.48,258.7 8.82,76.44 -14.7,146.99 -52.92,214.61 -38.22,67.61 -91.13,132.29 -152.87,220.48 -61.74,88.19 -132.29,199.91 -211.67,308.68 -79.37,108.77 -167.57,214.61 -267.52,302.81 -99.95,88.19 -211.67,158.74 -276.35,205.78 -64.67,47.04 -82.31,70.56 -79.37,229.31 2.94,158.75 26.46,452.73 49.98,770.23 23.52,317.5 47.04,658.52 70.56,902.53 23.52,244 47.03,390.99 114.64,564.44 67.62,173.45 179.34,373.35 279.29,696.73 99.95,323.38 188.15,770.24 261.64,1120.08 73.5,349.83 132.29,602.66 211.66,970.14 79.38,367.47 179.34,849.61 229.31,1255.31 49.98,405.69 49.98,734.94 2.94,1075.96 -47.03,341.02 -141.11,693.8 -232.24,1040.7 -91.13,346.9 -179.33,687.92 -249.89,943.69 -70.55,255.76 -123.46,426.26 -152.86,576.19 -29.4,149.93 -35.28,279.29 -17.64,396.88 17.64,117.59 58.79,223.43 64.67,408.63 5.88,185.21 -23.51,449.8 -76.43,805.51 -52.92,355.72 -129.35,802.58 -173.45,1167.11 -44.1,364.54 -55.86,646.77 -64.68,990.72 -8.82,343.96 -14.7,749.66 -17.64,1108.31 -2.94,358.66 -2.94,670.28 11.76,964.26 14.7,293.98 44.1,570.33 79.38,852.55 35.28,282.22 76.43,570.33 105.83,758.47 29.4,188.15 47.04,276.35 73.5,361.6 26.46,85.26 61.73,167.57 141.1,208.73 79.38,41.16 202.86,41.16 302.81,52.92 99.95,11.76 176.39,35.27 235.18,94.07 58.8,58.8 99.96,152.87 94.08,252.82 -5.88,99.96 -58.79,205.8 -167.57,282.23 -108.77,76.44 -273.4,123.47 -464.49,129.35 -191.09,5.88 -408.63,-29.4 -570.32,-79.38 -161.69,-49.97 -267.53,-114.65 -361.61,-238.12 -94.07,-123.47 -176.38,-305.74 -220.48,-535.05 -44.1,-229.3 -49.98,-505.65 -79.38,-814.33 -29.4,-308.68 -82.31,-649.7 -114.65,-967.2 -32.34,-317.5 -44.1,-611.48 -67.62,-973.08 -23.52,-361.59 -58.79,-790.81 -111.71,-1234.72 -52.92,-443.91 -123.47,-902.53 -161.69,-1349.38 -38.22,-446.85 -44.09,-881.95 -44.09,-1217.09 0,-335.13 5.87,-570.32 8.81,-699.67 2.94,-129.35 2.94,-152.87 -82.32,-126.41 -85.25,26.46 -255.75,102.89 -508.58,123.47 -252.82,20.58 -587.96,-14.7 -852.55,-44.1 -264.58,-29.4 -458.61,-52.91 -567.39,-67.61 -108.77,-14.7 -132.28,-20.58 -152.86,105.83 -20.58,126.41 -38.22,385.12 -61.74,740.83 -23.52,355.72 -52.91,808.46 -79.37,1090.68 -26.46,282.22 -49.98,393.94 -82.32,540.93 -32.34,146.99 -73.49,329.25 -105.83,679.09 -32.34,349.84 -55.86,867.25 -47.04,1296.46 8.82,429.22 49.98,770.23 61.74,1037.75 11.76,267.53 -5.88,461.56 -8.82,670.29 -2.94,208.73 8.82,432.15 88.19,734.95 79.38,302.81 226.37,684.98 376.3,976.02 149.93,291.05 302.8,490.95 355.71,652.64 52.92,161.69 5.89,285.17 -79.37,385.12 -85.25,99.95 -208.73,176.39 -429.22,223.42 -220.48,47.04 -537.98,64.68 -781.99,55.86 -244,-8.82 -414.51,-44.09 -532.11,-132.29 -117.59,-88.19 -182.26,-229.31 -208.72,-423.34 -26.46,-194.02 -14.7,-440.97 8.82,-702.61 23.52,-261.64 58.8,-537.99 58.8,-773.18 0,-235.18 -35.28,-429.21 -67.62,-573.26 -32.34,-144.05 -61.73,-238.13 -73.49,-376.3 -11.76,-138.17 -5.88,-320.43 0,-517.4 5.88,-196.97 11.76,-408.64 35.28,-793.76 23.52,-385.11 64.67,-943.68 79.37,-1378.77 14.7,-435.09 2.94,-746.71 -2.94,-1240.6 -5.88,-493.89 -5.88,-1170.05 -5.88,-1616.91 0,-446.85 0,-664.39 14.7,-849.6 14.7,-185.21 44.09,-338.08 70.55,-458.61 26.46,-120.53 49.98,-208.73 49.98,-252.82 0,-44.1 -23.52,-44.1 -111.72,-88.2 -88.19,-44.1 -241.06,-132.29 -338.08,-188.15 -97.01,-55.86 -138.16,-79.37 -158.74,-91.13 -20.58,-11.76 -20.58,-11.76 -35.28,105.83 -14.7,117.59 -44.09,352.78 -117.58,643.82 -73.5,291.04 -191.1,637.94 -299.87,958.38 -108.77,320.44 -208.73,614.42 -358.66,905.46 -149.93,291.04 -349.84,579.15 -526.23,820.21 -176.39,241.07 -329.26,435.1 -423.33,543.87 -94.08,108.78 -129.35,132.29 -155.81,220.48 -26.46,88.2 -44.1,241.07 -108.77,405.7 -64.68,164.63 -176.4,341.02 -252.83,511.53 -76.44,170.51 -117.59,335.14 -129.35,564.44 -11.76,229.31 5.88,523.29 76.44,876.07 70.55,352.78 194.02,764.35 285.16,1052.45 91.13,288.11 149.92,452.74 196.96,526.23 47.04,73.5 82.32,55.86 149.94,76.44 67.61,20.58 167.57,79.37 229.31,167.56 61.73,88.2 85.24,205.8 20.57,302.81 -64.68,97.01 -217.55,173.45 -399.82,220.48 -182.27,47.04 -393.93,64.68 -570.32,47.04 -176.39,-17.64 -317.5,-70.55 -408.63,-155.81 -91.14,-85.25 -132.3,-202.85 -161.7,-361.6 -29.4,-158.75 -47.03,-358.65 -79.37,-684.97 -32.34,-326.32 -79.37,-779.06 -117.59,-1190.64 -38.22,-411.57 -67.62,-781.98 -99.96,-1078.91 -32.34,-296.92 -67.61,-520.34 -97.01,-729.07 -29.4,-208.73 -52.92,-402.75 -20.58,-532.11 32.34,-129.35 120.53,-194.02 232.25,-329.26 111.71,-135.23 246.94,-341.01 358.65,-532.1 111.71,-191.09 199.91,-367.48 258.71,-549.75 58.79,-182.27 88.19,-370.41 108.77,-632.06 20.58,-261.64 32.34,-596.78 14.7,-928.98 -17.64,-332.2 -64.67,-661.46 -141.11,-928.98 -76.44,-267.53 -182.27,-473.31 -235.19,-576.2 -52.92,-102.9 -52.92,-102.9 -97.01,-70.56 -44.1,32.34 -132.3,97.01 -229.31,135.23 -97.01,38.22 -202.85,49.97 -273.4,76.43 -70.56,26.46 -105.83,67.62 -214.6,161.7 -108.78,94.07 -291.05,241.06 -417.46,349.84 -126.42,108.77 -196.97,179.32 -249.89,285.15 -52.92,105.84 -88.19,246.95 -138.17,399.82 -49.98,152.87 -114.65,317.5 -226.36,470.37 -111.72,152.87 -270.47,293.98 -391,440.97 -120.53,146.99 -202.85,299.87 -323.38,496.83 -120.53,196.97 -279.28,438.04 -455.67,770.23 -176.39,332.2 -370.42,755.54 -488.01,1078.92 -117.6,323.38 -158.75,546.8 -191.09,693.79 -32.34,147 -55.86,217.55 -99.95,299.86 -44.1,82.32 -108.78,176.4 -138.17,329.27 -29.4,152.87 -23.53,364.53 -49.98,596.77 -26.46,232.25 -85.26,485.08 -114.65,758.48 -29.4,273.4 -29.4,567.39 -29.4,784.93 0,217.55 0,358.66 29.4,476.25 29.39,117.6 88.19,211.67 132.29,311.62 44.09,99.96 73.49,205.8 32.34,317.51 -41.16,111.71 -152.88,229.31 -311.63,299.86 -158.75,70.56 -364.53,94.07 -523.28,88.19 -158.75,-5.88 -270.47,-41.15 -379.24,-155.81 -108.77,-114.65 -214.61,-308.68 -238.12,-546.81 -23.52,-238.12 35.27,-520.34 114.65,-831.96 79.37,-311.62 179.33,-652.64 241.07,-937.81 61.73,-285.16 85.24,-514.46 82.3,-767.29 -2.94,-252.82 -32.33,-529.17 2.95,-743.78 35.27,-214.6 135.23,-367.47 179.33,-511.52 44.09,-144.05 32.33,-279.28 64.67,-379.24 32.34,-99.95 108.77,-164.62 202.85,-288.1 94.07,-123.47 205.79,-305.74 293.99,-573.27 88.19,-267.52 152.86,-620.29 211.66,-1020.11 58.8,-399.81 111.71,-846.67 196.97,-1181.81 85.25,-335.14 202.84,-558.56 293.98,-799.62 91.13,-241.07 155.8,-499.78 196.96,-693.8 41.16,-194.03 58.8,-323.39 85.26,-432.16 26.46,-108.77 61.73,-196.97 79.37,-382.17 17.64,-185.21 17.64,-467.44 52.92,-787.88 35.28,-320.44 105.83,-679.09 158.75,-970.13 52.92,-291.05 88.19,-514.47 196.97,-743.78 108.77,-229.31 291.04,-464.49 523.29,-687.92 232.24,-223.43 514.47,-435.09 640.88,-570.32 126.41,-135.24 97.01,-194.03 85.25,-293.98 -11.76,-99.96 -5.88,-241.07 32.34,-335.14 38.22,-94.08 108.77,-141.11 194.03,-179.33 85.25,-38.22 185.21,-67.62 308.68,-61.74 123.47,5.88 270.46,47.04 346.9,67.62 76.43,20.58 82.31,20.58 158.75,-17.64 76.43,-38.22 223.43,-114.65 549.75,-179.33 326.32,-64.68 831.96,-117.59 1211.2,-146.99 379.24,-29.4 632.06,-35.28 905.47,-70.56 273.4,-35.28 567.38,-99.95 811.38,-155.81 244.01,-55.86 438.04,-102.89 614.43,-191.08 176.39,-88.2 335.14,-217.56 435.09,-329.27 99.96,-111.71 141.11,-205.79 199.91,-385.11 58.8,-179.33 135.23,-443.92 179.33,-637.94 44.1,-194.03 55.85,-317.51 61.73,-388.06 5.88,-70.56 5.88,-88.19 -58.8,-97.01 -64.67,-8.82 -194.02,-8.82 -399.81,-8.82 -205.78,0 -488.01,0 -696.74,-2.94 -208.72,-2.94 -343.96,-8.82 -411.58,-11.76 -67.61,-2.94 -67.61,-2.94 -70.55,26.46 -2.94,29.4 -8.82,88.19 -38.22,111.71 -29.4,23.52 -82.31,11.76 -141.1,-11.76 -58.8,-23.52 -123.48,-58.79 -182.27,-108.77 -58.8,-49.98 -111.71,-114.65 -164.63,-214.6 -52.92,-99.96 -105.83,-235.2 -138.17,-311.63 -32.34,-76.44 -44.1,-94.07 -67.62,-105.83 -23.52,-11.76 -58.8,-17.64 -73.5,-55.86 -14.7,-38.22 -8.82,-108.77 -20.58,-152.87 -11.76,-44.1 -41.15,-61.74 -67.61,-88.2 -26.46,-26.46 -49.98,-61.73 -64.68,-120.52 -14.7,-58.8 -20.58,-141.12 2.94,-217.55 23.52,-76.44 76.43,-146.99 170.51,-244 94.07,-97.02 229.31,-220.5 355.72,-326.33 126.41,-105.83 244.01,-194.03 358.66,-270.46z"/>
   <path class="fil1" d="M7826.52 13700.91c110.38,-70.65 225.04,-123.56 357.33,-164.72 132.29,-41.16 282.22,-70.55 526.23,-32.33 244,38.21 582.08,144.05 870.68,284.17 288.59,140.12 527.69,314.54 647.25,401.75 119.55,87.2 119.55,87.2 49.98,49.97 -69.58,-37.23 -208.74,-111.69 -338.58,-181.26 -129.84,-69.57 -250.38,-134.24 -384.14,-197.45 -133.76,-63.21 -280.75,-124.94 -424.8,-171.98 -144.05,-47.04 -285.16,-79.37 -404.22,-97.01 -119.07,-17.64 -216.08,-20.58 -314.56,-13.23 -98.49,7.35 -198.45,24.99 -299.87,58.8 -101.42,33.81 -204.32,83.78 -305.88,138.26 -101.57,54.48 -201.81,113.46 -251.93,142.95 -50.12,29.49 -50.12,29.49 2.94,-14.7 53.06,-44.19 159.18,-132.57 269.57,-203.22z"/>
  </g>
 </g>
</svg>
