<?xml version="1.0" encoding="UTF-8"?>
<!DOCTYPE svg PUBLIC "-//W3C//DTD SVG 1.1//EN" "http://www.w3.org/Graphics/SVG/1.1/DTD/svg11.dtd">
<!-- Creator: CorelDRAW 2018 (64-Bit) -->
<svg xmlns="http://www.w3.org/2000/svg" xml:space="preserve" width="210mm" height="297mm" version="1.1" style="shape-rendering:geometricPrecision; text-rendering:geometricPrecision; image-rendering:optimizeQuality; fill-rule:evenodd; clip-rule:evenodd"
viewBox="0 0 21000 29700"
 xmlns:xlink="http://www.w3.org/1999/xlink">
 <defs>
  <style type="text/css">
   <![CDATA[
    .str0 {stroke:#1F1B20;stroke-width:200;stroke-miterlimit:22.9256}
    .fil3 {fill:none}
    .fil2 {fill:#FEFEFE}
    .fil1 {fill:#FEFEFE}
    .fil0 {fill:#1F1B20}
   ]]>
  </style>
 </defs>
 <g id="Слой_x0020_1">
  <metadata id="CorelCorpID_0Corel-Layer"/>
  <g id="_2240318852864">
   <g>
    <path class="fil0" d="M11937.38 7407.96c123.64,-57.95 251.13,-131.37 351.59,-185.45 100.45,-54.1 173.86,-88.86 253.06,-117.84 79.2,-28.98 164.2,-52.16 222.15,-56.02 57.96,-3.86 88.86,11.59 119.77,61.82 30.91,50.22 61.81,135.22 77.27,191.24 15.46,56.02 15.46,83.07 11.59,104.32 -3.86,21.25 -11.58,36.7 27.05,17.39 38.64,-19.32 123.63,-73.41 202.83,-112.05 79.2,-38.63 152.62,-61.82 227.95,-75.34 75.34,-13.52 152.62,-17.39 191.25,-19.32 38.64,-1.93 38.64,-1.93 11.59,-48.29 -27.04,-46.37 -81.13,-139.09 -108.18,-208.63 -27.04,-69.55 -27.04,-115.91 11.59,-152.61 38.64,-36.71 115.91,-63.75 235.68,-77.27 119.77,-13.53 282.04,-13.53 423.06,-28.98 141.02,-15.46 260.79,-46.36 372.83,-77.27 112.05,-30.91 216.36,-61.82 303.29,-57.95 86.93,3.86 156.48,42.49 202.84,110.11 46.36,67.61 69.54,164.2 71.47,260.79 1.93,96.58 -17.38,193.17 -56.02,295.56 -38.64,102.38 -96.59,210.56 -146.81,270.45 -50.23,59.88 -92.73,71.47 -102.39,119.77 -9.66,48.29 13.52,133.29 23.18,285.9 9.66,152.61 5.8,372.83 11.6,651.01 5.79,278.17 21.24,614.3 30.9,809.41 9.66,195.11 13.52,249.2 44.43,326.47 30.91,77.27 88.86,177.72 102.39,289.76 13.52,112.05 -17.38,235.68 -85,341.93 -67.61,106.25 -171.93,195.11 -247.27,245.34 -75.34,50.22 -121.7,61.81 -160.34,86.93 -38.63,25.11 -69.54,63.74 -90.79,150.68 -21.25,86.93 -32.84,222.15 -61.82,372.83 -28.98,150.68 -75.33,316.81 -88.86,459.76 -13.52,142.95 5.8,262.72 27.05,430.79 21.25,168.06 44.43,384.42 59.88,714.75 15.46,330.34 23.18,774.65 0,1128.16 -23.18,353.51 -77.27,616.24 -152.61,861.57 -75.34,245.34 -171.93,473.29 -229.88,651.01 -57.95,177.72 -77.27,305.22 -88.86,523.51 -11.59,218.29 -15.45,527.37 -44.43,786.23 -28.98,258.86 -83.07,467.49 -112.04,774.65 -28.98,307.15 -32.85,712.82 -36.71,1106.9 -3.86,394.08 -7.73,776.57 -1.93,1052.82 5.79,276.24 21.25,446.24 77.27,606.57 56.02,160.34 152.61,311.02 262.72,450.11 110.11,139.09 233.75,266.58 299.42,370.9 65.69,104.32 73.42,185.45 19.32,249.2 -54.08,63.75 -169.99,110.11 -311.01,131.36 -141.02,21.25 -307.15,17.38 -436.58,0 -129.43,-17.39 -222.16,-48.29 -280.11,-144.88 -57.95,-96.59 -81.13,-258.86 -98.52,-411.48 -17.39,-152.6 -28.98,-295.55 -52.16,-386.35 -23.18,-90.79 -57.95,-129.42 -86.93,-171.92 -28.98,-42.51 -52.15,-88.86 -42.49,-154.55 9.66,-65.68 52.15,-150.68 71.47,-241.47 19.32,-90.79 15.46,-187.38 13.52,-243.41 -1.93,-56.02 -1.93,-71.46 -15.45,-83.06 -13.52,-11.59 -40.57,-19.31 -46.37,-73.41 -5.79,-54.08 9.66,-154.54 19.32,-253.06 9.66,-98.52 13.53,-195.11 7.73,-481.01 -5.8,-285.9 -21.25,-761.12 -44.43,-1161 -23.19,-399.87 -54.09,-724.41 -59.89,-1062.47 -5.79,-338.07 13.53,-689.64 25.12,-917.59 11.59,-227.95 15.45,-332.27 17.39,-384.43 1.93,-52.16 1.93,-52.16 -57.96,-34.77 -59.88,17.39 -179.65,52.16 -332.27,96.58 -152.6,44.44 -338.06,98.53 -440.44,154.55 -102.39,56.02 -121.7,113.97 -170,256.93 -48.29,142.95 -125.56,370.89 -168.06,558.27 -42.5,187.39 -50.23,334.2 -63.75,600.78 -13.52,266.59 -32.84,652.95 -42.5,989.07 -9.66,336.13 -9.66,622.04 3.87,994.87 13.52,372.84 40.56,832.59 79.19,1112.7 38.64,280.11 88.87,380.56 121.71,498.4 32.84,117.84 48.29,253.07 81.13,359.31 32.85,106.25 83.07,183.52 146.82,280.11 63.75,96.59 141.02,212.49 173.85,314.88 32.85,102.38 21.26,191.25 -23.17,251.13 -44.43,59.89 -121.71,90.79 -241.48,104.32 -119.77,13.52 -282.03,9.66 -428.85,-11.59 -146.82,-21.25 -278.17,-59.89 -353.52,-104.32 -75.34,-44.43 -94.65,-94.66 -102.38,-235.68 -7.72,-141.02 -3.86,-372.83 -5.79,-637.48 -1.93,-264.65 -9.66,-562.15 -27.05,-712.83 -17.38,-150.68 -44.42,-154.54 -67.61,-160.34 -23.18,-5.79 -42.5,-13.51 -46.36,-73.4 -3.87,-59.88 7.72,-171.93 27.04,-247.27 19.32,-75.34 46.36,-113.97 57.95,-181.59 11.6,-67.61 7.73,-164.19 -3.86,-353.51 -11.59,-189.31 -30.9,-471.35 -50.22,-699.3 -19.32,-227.95 -38.64,-401.81 -54.1,-732.15 -15.45,-330.33 -27.04,-817.14 -28.97,-1217.02 -1.94,-399.87 5.79,-712.82 25.11,-880.89 19.32,-168.06 50.22,-191.24 52.16,-226.01 1.93,-34.77 -25.11,-81.13 -104.32,-146.82 -79.2,-65.67 -210.56,-150.68 -403.74,-320.68 -193.18,-169.99 -448.17,-424.98 -600.78,-566 -152.61,-141.03 -202.84,-168.07 -229.88,-181.59 -27.05,-13.52 -30.91,-13.52 -48.29,52.16 -17.39,65.68 -48.3,197.04 -71.48,440.45 -23.19,243.4 -38.63,598.85 -57.95,875.09 -19.32,276.25 -42.5,473.29 -102.39,647.14 -59.89,173.87 -156.47,324.54 -249.2,463.63 -92.72,139.09 -181.58,266.58 -253.06,411.47 -71.48,144.88 -125.56,307.15 -162.27,471.35 -36.7,164.2 -56.02,330.34 -61.81,558.28 -5.8,227.95 1.93,517.72 23.18,699.31 21.25,181.58 56.02,255 131.36,324.54 75.34,69.54 191.24,135.22 249.2,193.17 57.95,57.95 57.95,108.18 34.77,158.41 -23.18,50.22 -69.55,100.45 -158.41,133.29 -88.86,32.84 -220.22,48.3 -336.13,42.5 -115.91,-5.79 -216.36,-32.84 -278.17,-83.07 -61.82,-50.22 -85,-123.64 -102.38,-202.84 -17.39,-79.2 -28.98,-164.19 -25.12,-482.94 3.86,-318.74 23.18,-871.23 32.84,-1197.7 9.66,-326.47 9.66,-426.92 38.64,-511.92 28.97,-85 86.93,-154.54 135.23,-235.68 48.29,-81.13 86.92,-173.85 115.9,-311.01 28.98,-137.15 48.29,-318.74 46.36,-550.56 -1.94,-231.81 -25.11,-513.85 -75.33,-722.48 -50.23,-208.63 -127.51,-343.85 -214.44,-475.21 -86.93,-131.37 -183.52,-258.86 -260.78,-353.52 -77.28,-94.66 -135.23,-156.48 -164.21,-187.39 -28.98,-30.9 -28.98,-30.9 -113.97,88.87 -85,119.77 -255,359.31 -370.9,546.69 -115.91,187.38 -177.73,322.6 -245.34,448.17 -67.61,125.57 -141.02,241.47 -206.7,357.38 -65.68,115.91 -123.63,231.81 -187.38,372.83 -63.74,141.02 -133.29,307.16 -258.85,523.52 -125.57,216.35 -307.16,482.94 -401.82,662.59 -94.65,179.66 -102.38,272.38 -121.7,409.53 -19.32,137.16 -50.22,318.75 -86.93,471.36 -36.7,152.61 -79.2,276.24 -117.84,436.58 -38.64,160.34 -73.4,357.38 -81.13,548.63 -7.73,191.24 11.58,376.7 42.49,521.58 30.91,144.88 73.41,249.2 83.07,328.4 9.66,79.2 -13.52,133.29 -73.4,166.13 -59.89,32.84 -156.48,44.43 -258.86,52.16 -102.38,7.73 -210.56,11.59 -303.29,-9.66 -92.72,-21.25 -170,-67.61 -204.77,-156.48 -34.77,-88.86 -27.04,-220.21 19.32,-380.55 46.36,-160.34 131.36,-349.66 191.25,-511.93 59.88,-162.27 94.65,-297.48 123.63,-459.76 28.97,-162.26 52.16,-351.58 73.41,-490.67 21.25,-139.09 40.56,-227.95 63.74,-339.99 23.19,-112.04 50.23,-247.26 92.73,-359.31 42.5,-112.04 100.45,-200.91 152.61,-278.17 52.16,-77.27 98.52,-142.96 135.23,-227.96 36.7,-84.99 63.74,-189.31 90.79,-345.78 27.05,-156.47 54.09,-365.11 102.38,-598.85 48.29,-233.75 117.84,-492.6 181.59,-722.48 63.74,-229.89 121.7,-430.79 152.61,-645.22 30.91,-214.43 34.77,-442.38 52.16,-635.55 17.38,-193.18 48.29,-351.59 63.74,-430.79 15.46,-79.2 15.46,-79.2 -54.08,-42.5 -69.55,36.71 -208.64,110.12 -368.97,179.66 -160.34,69.54 -341.93,135.23 -525.45,177.72 -183.52,42.5 -368.97,61.82 -658.74,67.61 -289.76,5.8 -683.85,-1.93 -880.89,-5.79 -197.04,-3.87 -197.04,-3.87 0,-25.12 197.04,-21.24 591.13,-63.75 853.85,-104.32 262.72,-40.56 394.08,-79.19 533.17,-127.49 139.09,-48.29 285.91,-106.24 424.99,-166.13 139.09,-59.89 270.45,-121.71 403.74,-214.43 133.3,-92.72 268.52,-216.36 382.49,-347.72 113.98,-131.36 206.71,-270.45 307.16,-417.26 100.45,-146.82 208.63,-301.36 326.47,-467.49 117.83,-166.13 245.33,-343.86 430.79,-486.8 185.45,-142.96 428.85,-251.14 616.23,-328.41 187.38,-77.27 318.74,-123.63 453.97,-162.27 135.22,-38.64 274.31,-69.54 496.47,-88.86 222.15,-19.32 527.37,-27.05 840.32,-48.3 312.94,-21.25 633.62,-56.02 811.34,-94.65 177.73,-38.64 212.5,-81.14 278.17,-121.71 65.69,-40.57 162.28,-79.2 247.27,-110.11 85,-30.91 158.41,-54.08 237.61,-83.06 79.2,-28.98 164.21,-63.75 233.75,-100.45 69.54,-36.71 123.63,-75.34 168.06,-166.13 44.43,-90.8 79.2,-233.75 108.18,-477.16 28.98,-243.4 52.16,-587.25 67.62,-797.82 15.45,-210.56 23.17,-287.83 -1.94,-341.92 -25.11,-54.09 -83.07,-85 -181.59,-154.54 -98.52,-69.55 -237.6,-177.73 -345.78,-264.66 -108.18,-86.92 -185.46,-152.61 -260.79,-249.2 -75.34,-96.59 -148.75,-224.08 -139.09,-318.74 9.66,-94.66 102.39,-156.48 208.64,-208.63 106.24,-52.16 226.01,-94.66 349.64,-152.61z"/>
    <path class="fil1" d="M8242.86 14068.06c82.1,-72.76 159.38,-130.72 257.9,-169.35 98.52,-38.64 218.28,-57.95 343.85,-63.74 125.57,-5.8 256.93,1.92 390.22,17.38 133.3,15.45 268.52,38.63 363.17,91.12 94.66,52.48 148.75,134.26 175.8,175.15 27.04,40.89 27.04,40.89 0,17.39 -27.05,-23.51 -81.14,-70.52 -133.3,-107.55 -52.16,-37.02 -102.38,-64.07 -198.97,-87.25 -96.59,-23.19 -239.54,-42.5 -370.9,-50.23 -131.36,-7.72 -251.13,-3.86 -353.51,13.53 -102.39,17.39 -187.39,48.29 -283.98,98.51 -96.59,50.23 -204.77,119.78 -281.07,175.15 -76.31,55.38 -120.74,96.6 -142.95,117.21 -22.22,20.6 -22.22,20.6 21.25,-23.19 43.46,-43.79 130.4,-131.36 212.49,-204.13z"/>
    <path class="fil2" d="M13297.35 10112.42c81.13,131.37 169.99,262.72 254.99,353.52 85,90.79 166.14,141.02 287.84,168.06 121.7,27.05 283.97,30.91 410.82,31.24 126.86,0.32 218.29,-2.89 264.01,-4.49 45.72,-1.61 45.72,-1.61 -36.7,5.79 -82.42,7.4 -247.27,22.2 -385.72,25.74 -138.44,3.54 -250.48,-4.19 -345.14,-29.3 -94.65,-25.11 -171.93,-67.61 -251.13,-144.88 -79.2,-77.27 -160.34,-189.32 -231.81,-328.4 -71.48,-139.09 -133.3,-305.23 -164.21,-388.29 -30.9,-83.07 -30.9,-83.07 5.8,-17.38 36.7,65.68 110.12,197.03 191.25,328.39z"/>
   </g>
   <circle class="fil3 str0" cx="10823.33" cy="13905.63" r="8728.23"/>
  </g>
 </g>
</svg>
