<?xml version="1.0" encoding="UTF-8"?>
<!DOCTYPE svg PUBLIC "-//W3C//DTD SVG 1.1//EN" "http://www.w3.org/Graphics/SVG/1.1/DTD/svg11.dtd">
<!-- Creator: CorelDRAW 2018 (64-Bit) -->
<svg xmlns="http://www.w3.org/2000/svg" xml:space="preserve" width="210mm" height="297mm" version="1.1" style="shape-rendering:geometricPrecision; text-rendering:geometricPrecision; image-rendering:optimizeQuality; fill-rule:evenodd; clip-rule:evenodd"
viewBox="0 0 21000 29700"
 xmlns:xlink="http://www.w3.org/1999/xlink">
 <defs>
  <style type="text/css">
   <![CDATA[
    .fil1 {fill:#FEFEFE}
    .fil0 {fill:#1F1B20}
   ]]>
  </style>
 </defs>
 <g id="Слой_x0020_1">
  <metadata id="CorelCorpID_0Corel-Layer"/>
  <g id="_2240319343808">
   <path class="fil0" d="M15348.18 8659.07c179.33,-8.82 317.5,-14.7 424.8,-8.82 107.31,5.88 183.74,23.52 230.78,22.05 47.04,-1.47 64.68,-22.05 91.14,-67.62 26.46,-45.57 61.73,-116.12 91.13,-173.45 29.4,-57.33 52.92,-101.42 67.62,-185.2 14.7,-83.79 20.58,-207.27 24.99,-389.54 4.41,-182.27 7.35,-423.33 20.58,-551.21 13.23,-127.89 36.74,-142.58 48.5,-170.51 11.76,-27.93 11.76,-69.09 13.23,-148.46 1.47,-79.38 4.41,-196.97 5.88,-299.86 1.47,-102.9 1.47,-191.09 10.29,-242.54 8.82,-51.45 26.46,-66.15 67.62,-38.22 41.16,27.93 105.83,98.48 152.87,177.86 47.04,79.38 76.43,167.57 95.54,336.61 19.11,169.04 27.93,418.93 24.99,661.47 -2.94,242.53 -17.64,477.71 -10.29,673.21 7.35,195.5 36.75,351.31 66.15,473.32 29.4,122 58.79,210.19 91.13,264.58 32.34,54.39 67.61,74.96 77.9,201.38 10.29,126.41 -4.4,358.65 -24.98,540.92 -20.58,182.27 -47.04,314.57 -64.68,405.71 -17.64,91.13 -26.46,141.1 -44.1,194.02 -17.64,52.92 -44.09,108.77 -72.02,195.5 -27.93,86.72 -57.33,204.32 -86.73,277.82 -29.4,73.49 -58.79,102.88 -77.9,145.51 -19.11,42.63 -27.93,98.48 -44.1,186.68 -16.17,88.19 -39.69,208.73 -67.62,354.25 -27.93,145.52 -60.26,316.03 -88.19,460.08 -27.93,144.05 -51.45,261.65 -72.03,392.47 -20.58,130.82 -38.21,274.87 -54.38,436.56 -16.17,161.69 -30.87,341.02 -38.22,554.16 -7.35,213.14 -7.35,460.08 22.05,702.62 29.4,242.53 88.19,480.66 145.52,732.02 57.33,251.35 113.18,515.93 144.05,765.82 30.87,249.89 36.75,485.07 70.56,758.47 33.81,273.41 95.54,585.03 120.53,906.94 24.99,321.91 13.23,654.11 -24.99,926.04 -38.22,271.94 -102.89,483.6 -145.52,717.32 -42.63,233.72 -63.2,489.48 -86.72,892.24 -23.52,402.76 -49.98,952.5 -85.26,1396.41 -35.28,443.92 -79.37,782 -113.18,1137.72 -33.81,355.72 -57.33,729.07 -74.97,1036.28 -17.64,307.22 -29.4,548.28 -20.58,827.56 8.82,279.29 38.22,596.79 64.68,911.35 26.46,314.56 49.97,626.19 101.42,867.25 51.45,241.07 130.82,411.58 179.33,495.36 48.51,83.79 66.15,80.85 108.78,77.91 42.63,-2.94 110.24,-5.88 170.51,10.29 60.27,16.17 113.18,51.44 144.05,94.07 30.87,42.63 39.68,92.6 66.14,139.64 26.46,47.04 70.56,91.14 99.96,158.75 29.4,67.62 44.09,158.76 26.45,223.43 -17.64,64.68 -67.61,102.89 -146.99,119.06 -79.37,16.17 -188.15,10.29 -382.18,10.29 -194.02,0 -473.31,5.88 -637.94,7.35 -164.63,1.47 -214.6,-1.47 -249.88,-13.23 -35.28,-11.76 -55.85,-32.33 -85.25,-133.76 -29.4,-101.42 -67.62,-283.69 -104.37,-545.34 -36.75,-261.64 -72.02,-602.66 -98.48,-871.66 -26.46,-268.99 -44.1,-465.96 -49.98,-615.89 -5.88,-149.93 0,-252.83 11.76,-338.08 11.76,-85.25 29.4,-152.87 32.34,-254.29 2.94,-101.42 -8.82,-236.66 -13.23,-389.53 -4.41,-152.87 -1.47,-323.38 -22.05,-615.9 -20.58,-292.51 -64.67,-707.02 -99.95,-1084.79 -35.28,-377.77 -61.74,-718.79 -86.73,-1114.2 -24.99,-395.4 -48.5,-845.2 -60.26,-1070.1 -11.76,-224.89 -11.76,-224.89 -51.45,-182.26 -39.69,42.63 -119.06,127.88 -248.42,196.97 -129.35,69.09 -308.68,122 -508.59,160.22 -199.91,38.22 -420.39,61.74 -530.64,73.5 -110.24,11.76 -110.24,11.76 -146.99,113.18 -36.74,101.43 -110.24,304.27 -161.69,499.77 -51.44,195.5 -80.84,383.65 -101.42,645.29 -20.58,261.65 -32.34,596.79 -35.28,986.31 -2.94,389.53 2.94,833.45 20.58,1184.75 17.64,351.31 47.04,610.02 47.04,783.47 0,173.45 -29.4,261.64 -49.98,366 -20.58,104.37 -32.34,224.9 -4.41,423.33 27.93,198.44 95.54,474.79 135.23,629.13 39.69,154.34 51.45,186.68 135.23,245.47 83.79,58.8 239.6,144.06 348.37,201.38 108.78,57.33 170.51,86.73 217.55,177.86 47.04,91.14 79.38,244.01 92.61,363.07 13.23,119.07 7.35,204.32 -16.17,248.42 -23.52,44.1 -64.68,47.04 -332.21,44.1 -267.52,-2.94 -761.41,-11.76 -1023.06,-23.52 -261.64,-11.76 -291.03,-26.46 -311.61,-82.32 -20.58,-55.85 -32.34,-152.87 -36.75,-301.33 -4.41,-148.46 -1.47,-348.37 -1.47,-537.99 0,-189.62 -2.94,-368.95 -13.23,-479.2 -10.29,-110.24 -27.93,-151.39 -60.27,-176.38 -32.34,-24.99 -79.37,-33.81 -113.18,-63.21 -33.81,-29.4 -54.38,-79.37 -64.67,-149.93 -10.29,-70.55 -10.29,-161.69 -1.47,-258.7 8.82,-97.01 26.45,-199.91 47.03,-360.13 20.58,-160.22 44.1,-377.76 54.39,-806.98 10.29,-429.21 7.35,-1070.1 -8.82,-1728.62 -16.17,-658.52 -45.57,-1334.68 -74.97,-1694.81 -29.4,-360.13 -58.79,-404.22 -107.3,-457.14 -48.51,-52.92 -116.12,-114.65 -248.42,-186.68 -132.29,-72.03 -329.25,-154.34 -546.8,-208.73 -217.55,-54.39 -455.67,-80.84 -590.91,-94.07 -135.23,-13.23 -167.56,-13.23 -161.68,101.42 5.88,114.66 49.97,343.96 49.97,637.94 0,293.99 -44.09,652.64 -149.93,931.92 -105.83,279.29 -273.4,479.2 -479.19,733.49 -205.79,254.3 -449.79,562.98 -658.52,798.16 -208.73,235.19 -382.18,396.88 -492.42,577.68 -110.25,180.8 -157.28,380.71 -179.33,545.34 -22.05,164.63 -19.11,293.99 13.23,445.39 32.34,151.4 94.07,324.84 154.34,488 60.27,163.16 119.06,316.04 224.9,490.96 105.83,174.92 258.7,371.88 354.25,485.06 95.54,113.19 133.75,142.59 182.26,173.46 48.51,30.87 107.3,63.2 182.27,102.89 74.97,39.69 166.1,86.72 223.43,164.62 57.33,77.91 80.84,186.69 82.31,274.88 1.47,88.2 -19.1,155.81 -77.9,192.56 -58.8,36.75 -155.81,42.63 -373.36,30.87 -217.55,-11.76 -555.63,-41.15 -752.6,-85.25 -196.97,-44.1 -252.82,-102.89 -296.92,-191.09 -44.1,-88.19 -76.43,-205.79 -124.94,-405.7 -48.51,-199.9 -113.18,-482.13 -155.81,-676.16 -42.63,-194.02 -63.2,-299.86 -117.59,-411.57 -54.39,-111.71 -142.58,-229.31 -192.56,-329.27 -49.98,-99.95 -61.74,-182.26 -74.97,-251.35 -13.23,-69.09 -27.92,-124.94 -45.56,-174.92 -17.64,-49.98 -38.22,-94.07 -54.39,-186.68 -16.17,-92.6 -27.93,-233.71 -52.92,-348.37 -24.99,-114.65 -63.2,-202.84 -94.07,-295.45 -30.87,-92.6 -54.39,-189.62 -48.51,-270.47 5.88,-80.84 41.16,-145.51 99.96,-210.19 58.79,-64.68 141.11,-129.35 230.78,-227.84 89.66,-98.48 186.67,-230.78 282.22,-351.31 95.54,-120.53 189.62,-229.31 266.06,-341.02 76.43,-111.71 135.22,-226.37 152.86,-468.91 17.64,-242.53 -5.88,-612.94 -41.16,-871.65 -35.28,-258.7 -82.31,-405.69 -139.64,-557.09 -57.33,-151.4 -124.94,-307.22 -182.27,-370.43 -57.33,-63.2 -104.36,-33.8 -194.02,7.36 -89.67,41.16 -221.97,94.07 -355.73,210.19 -133.76,116.13 -268.99,295.46 -445.38,527.7 -176.39,232.25 -393.93,517.42 -539.45,714.38 -145.53,196.97 -219.02,305.75 -383.65,458.62 -164.63,152.87 -420.4,349.83 -689.39,585.01 -268.99,235.19 -551.22,508.6 -729.08,696.75 -177.86,188.15 -251.35,291.04 -341.01,427.74 -89.67,136.71 -195.51,307.22 -263.12,440.98 -67.62,133.76 -97.01,230.78 -129.35,361.6 -32.34,130.82 -67.62,295.45 -91.14,443.91 -23.52,148.46 -35.27,280.75 -27.92,507.11 7.35,226.37 33.8,546.82 52.91,712.92 19.11,166.1 30.87,177.86 85.26,196.97 54.38,19.11 151.4,45.56 230.78,83.78 79.37,38.22 141.1,88.19 173.44,149.93 32.34,61.74 35.28,135.23 38.22,196.97 2.94,61.74 5.88,111.71 1.47,169.04 -4.41,57.33 -16.17,122 -51.45,167.57 -35.28,45.57 -94.07,72.02 -123.47,85.25 -29.4,13.23 -29.4,13.23 -191.09,5.88 -161.69,-7.35 -485.07,-22.04 -665.87,-42.62 -180.8,-20.58 -219.01,-47.04 -267.52,-95.55 -48.51,-48.51 -107.3,-119.06 -142.58,-201.38 -35.28,-82.31 -47.04,-176.39 -35.28,-321.91 11.76,-145.52 47.03,-342.48 85.25,-646.76 38.22,-304.27 79.38,-715.84 89.67,-971.61 10.29,-255.76 -10.29,-355.72 -26.46,-457.14 -16.17,-101.42 -27.93,-204.32 -26.46,-302.81 1.47,-98.48 16.17,-192.55 36.75,-270.46 20.58,-77.91 47.03,-139.64 58.79,-274.88 11.76,-135.23 8.82,-343.95 29.4,-463.02 20.58,-119.06 64.68,-148.45 139.65,-189.61 74.96,-41.16 180.8,-94.08 299.86,-176.4 119.06,-82.31 251.35,-194.03 363.07,-301.33 111.71,-107.3 202.84,-210.2 274.87,-329.26 72.03,-119.06 124.94,-254.29 248.42,-533.58 123.47,-279.28 317.49,-702.61 473.3,-1045.1 155.81,-342.49 273.41,-604.14 357.2,-809.93 83.78,-205.78 133.75,-355.71 205.78,-664.39 72.03,-308.68 166.1,-776.12 255.77,-1124.49 89.66,-348.37 174.92,-577.67 241.07,-739.36 66.14,-161.69 113.17,-255.77 221.95,-370.42 108.77,-114.65 279.28,-249.89 415.98,-389.53 136.7,-139.64 239.6,-283.69 296.93,-388.06 57.32,-104.36 69.08,-169.03 19.11,-273.4 -49.98,-104.36 -161.7,-248.42 -214.61,-379.24 -52.92,-130.82 -47.04,-248.41 -20.58,-329.26 26.46,-80.84 73.49,-124.94 139.64,-154.34 66.15,-29.4 151.4,-44.09 248.42,4.42 97.01,48.5 205.79,160.22 305.74,266.05 99.95,105.83 191.09,205.79 236.66,255.76 45.56,49.98 45.56,49.98 108.77,48.51 63.2,-1.47 189.62,-4.41 360.13,-36.75 170.51,-32.34 385.11,-94.07 687.92,-148.46 302.8,-54.39 693.79,-101.42 998.07,-177.86 304.27,-76.43 521.81,-182.27 771.69,-329.26 249.89,-146.99 532.12,-335.14 836.39,-574.73 304.27,-239.6 630.59,-530.65 843.72,-732.02 213.14,-201.38 313.1,-313.1 408.64,-476.26 95.54,-163.16 186.68,-377.76 254.29,-571.79 67.62,-194.03 111.71,-367.48 155.81,-555.63 44.1,-188.15 88.2,-390.99 127.89,-573.26 39.69,-182.27 74.96,-343.96 119.06,-485.07 44.1,-141.11 97.01,-261.65 127.88,-342.49 30.87,-80.85 39.69,-122.01 29.4,-245.48 -10.29,-123.48 -39.69,-329.26 -72.03,-452.73 -32.34,-123.48 -67.61,-164.63 -83.78,-244 -16.17,-79.38 -13.23,-196.98 24.99,-351.32 38.22,-154.34 111.71,-345.43 166.1,-490.95 54.39,-145.52 89.66,-245.48 119.06,-427.74 29.4,-182.27 52.92,-446.86 98.48,-698.21 45.57,-251.36 113.19,-489.48 180.8,-636.47 67.62,-147 135.23,-202.85 202.85,-241.07 67.62,-38.22 135.23,-58.79 169.04,-54.38 33.81,4.41 33.81,33.8 26.46,73.49 -7.35,39.69 -22.05,89.66 -33.81,126.41 -11.76,36.75 -20.58,60.27 -35.28,130.83 -14.7,70.55 -35.27,188.15 -44.09,379.24 -8.82,191.08 -5.88,455.67 -5.88,618.83 0,163.16 -2.94,224.89 -5.88,266.05 -2.94,41.16 -5.88,61.73 7.35,82.31 13.23,20.58 42.62,41.16 64.67,58.8 22.05,17.64 36.75,32.34 49.98,55.86 13.23,23.52 24.99,55.85 32.34,91.13 7.35,35.28 10.29,73.5 7.35,111.72 -2.94,38.22 -11.76,76.43 -17.64,99.95 -5.88,23.52 -8.82,32.34 -10.29,39.69 -1.47,7.35 -1.47,13.23 108.77,10.29 110.25,-2.94 330.73,-14.7 510.06,-23.52z"/>
   <path class="fil1" d="M8727.69 19282.16c120.53,-83.78 255.76,-151.39 411.57,-207.25 155.81,-55.86 332.2,-99.95 493.89,-108.77 161.69,-8.82 308.68,17.63 415.99,57.32 107.3,39.69 174.91,92.6 261.64,160.22 86.72,67.62 192.56,149.93 245.47,191.09 52.92,41.16 52.92,41.16 5.88,14.7 -47.03,-26.46 -141.11,-79.37 -235.18,-135.23 -94.07,-55.86 -188.15,-114.65 -271.93,-155.81 -83.79,-41.16 -157.28,-64.68 -241.06,-76.44 -83.79,-11.76 -177.87,-11.76 -291.05,5.88 -113.18,17.64 -245.48,52.92 -370.42,95.55 -124.94,42.63 -242.54,92.6 -368.95,177.85 -126.41,85.26 -261.64,205.8 -415.08,344 -153.45,138.21 -325.1,294.09 -410.93,372.03 -85.83,77.94 -85.83,77.94 1.47,-10.29 87.3,-88.23 261.89,-264.69 402.11,-402.9 140.21,-138.2 246.05,-238.16 366.58,-321.95z"/>
  </g>
 </g>
</svg>
