<?xml version="1.0" encoding="UTF-8"?>
<!DOCTYPE svg PUBLIC "-//W3C//DTD SVG 1.1//EN" "http://www.w3.org/Graphics/SVG/1.1/DTD/svg11.dtd">
<!-- Creator: CorelDRAW 2018 (64-Bit) -->
<svg xmlns="http://www.w3.org/2000/svg" xml:space="preserve" width="210mm" height="297mm" version="1.1" style="shape-rendering:geometricPrecision; text-rendering:geometricPrecision; image-rendering:optimizeQuality; fill-rule:evenodd; clip-rule:evenodd"
viewBox="0 0 21000 29700"
 xmlns:xlink="http://www.w3.org/1999/xlink">
 <defs>
  <style type="text/css">
   <![CDATA[
    .str0 {stroke:#1F1B20;stroke-width:200;stroke-miterlimit:22.9256}
    .fil2 {fill:none}
    .fil1 {fill:#FEFEFE}
    .fil0 {fill:#1F1B20}
   ]]>
  </style>
 </defs>
 <g id="Слой_x0020_1">
  <metadata id="CorelCorpID_0Corel-Layer"/>
  <g id="_2240507034896">
   <g>
    <path class="fil0" d="M11294.15 4694.18c75.88,82.02 166.1,180.44 254.27,289.12 88.17,108.68 174.3,227.61 235.81,303.48 61.52,75.87 98.42,108.67 141.48,120.97 43.06,12.31 92.28,4.1 139.44,8.21 47.16,4.1 92.27,20.5 118.93,38.96 26.65,18.45 34.86,38.95 98.42,36.9 63.57,-2.05 182.5,-26.65 285.02,-45.11 102.53,-18.45 188.66,-30.75 233.76,-57.41 45.12,-26.66 49.21,-67.67 65.62,-118.93 16.4,-51.26 45.11,-112.78 79.97,-182.5 34.86,-69.71 75.87,-147.63 108.68,-252.21 32.81,-104.58 57.41,-235.8 116.87,-364.99 59.47,-129.18 153.79,-256.31 223.51,-338.33 69.72,-82.03 114.83,-118.93 161.99,-94.32 47.17,24.6 96.37,110.72 145.58,215.3 49.22,104.58 98.43,227.6 131.24,311.68 32.81,84.07 49.21,129.17 51.26,237.86 2.05,108.67 -10.25,280.91 -26.66,451.11 -16.4,170.19 -36.9,338.33 -28.7,447.01 8.2,108.68 45.11,157.89 67.67,200.95 22.55,43.06 30.76,79.97 43.06,106.63 12.3,26.65 28.7,43.05 90.21,63.56 61.52,20.5 168.15,45.11 272.72,57.42 104.58,12.3 207.11,12.3 315.79,20.5 108.68,8.2 223.5,24.6 297.32,77.92 73.82,53.31 106.63,143.54 110.73,225.56 4.1,82.01 -20.51,155.84 -47.17,239.91 -26.65,84.07 -55.36,178.4 -69.71,262.46 -14.36,84.07 -14.36,157.9 -28.71,221.46 -14.35,63.56 -43.06,116.88 -82.02,164.04 -38.96,47.16 -88.17,88.17 -133.28,147.64 -45.12,59.46 -86.12,137.38 -131.24,192.75 -45.1,55.36 -94.32,88.16 -168.14,110.72 -73.81,22.56 -172.24,34.86 -252.21,57.42 -79.97,22.55 -141.49,55.36 -170.2,110.73 -28.7,55.36 -24.6,133.28 -16.39,262.46 8.2,129.18 20.49,309.63 32.8,479.82 12.3,170.19 24.61,330.13 16.4,463.41 -8.2,133.29 -36.9,239.91 -43.05,315.79 -6.15,75.87 10.24,120.97 24.6,270.66 14.35,149.69 26.66,403.95 53.31,604.91 26.66,200.94 67.67,348.58 125.08,451.11 57.42,102.52 131.24,159.93 159.94,268.61 28.71,108.68 12.31,268.62 -16.4,498.28 -28.7,229.65 -69.72,529.03 -174.29,799.7 -104.58,270.66 -272.72,512.62 -371.15,682.82 -98.42,170.19 -127.12,268.61 -155.83,471.61 -28.71,203 -57.41,510.58 -57.41,801.75 0,291.18 28.7,565.94 98.41,889.92 69.73,323.99 180.45,697.18 239.91,930.94 59.47,233.76 67.68,328.09 67.68,420.36 0,92.27 -8.21,182.49 0,274.76 8.2,92.28 32.8,186.61 118.92,342.44 86.13,155.84 233.76,373.2 315.78,492.13 82.02,118.93 98.43,139.42 174.29,147.63 75.88,8.2 211.21,4.1 321.93,2.05 110.73,-2.05 196.86,-2.05 268.62,30.76 71.77,32.81 129.19,98.42 180.44,164.03 51.27,65.63 96.38,131.25 112.78,194.81 16.41,63.56 4.1,125.08 -14.35,172.24 -18.46,47.16 -43.06,79.97 -55.36,96.37 -12.31,16.41 -12.31,16.41 -90.23,14.36 -77.92,-2.05 -233.75,-6.15 -442.91,0 -209.15,6.15 -471.61,22.55 -623.35,8.2 -151.74,-14.36 -192.75,-59.46 -246.07,-133.29 -53.3,-73.81 -118.93,-176.34 -164.04,-248.11 -45.11,-71.77 -69.71,-112.77 -94.31,-159.94 -24.61,-47.15 -49.21,-100.47 -88.18,-170.18 -38.96,-69.72 -92.27,-155.85 -149.69,-237.86 -57.41,-82.02 -118.93,-159.95 -174.29,-190.71 -55.36,-30.75 -104.57,-14.35 -157.89,-41.01 -53.31,-26.65 -110.73,-96.37 -139.43,-168.14 -28.71,-71.76 -28.71,-145.59 -53.31,-276.82 -24.61,-131.23 -73.82,-319.88 -123.04,-471.62 -49.21,-151.73 -98.42,-266.56 -159.94,-455.21 -61.51,-188.65 -135.33,-451.11 -172.24,-582.34 -36.91,-131.24 -36.91,-131.24 -6.16,51.26 30.76,182.5 92.28,547.49 123.03,779.2 30.76,231.7 30.76,330.13 12.31,414.2 -18.46,84.07 -55.36,153.79 -51.26,272.72 4.1,118.93 49.21,287.07 118.92,455.21 69.72,168.14 164.05,336.29 235.82,434.71 71.76,98.42 120.98,127.13 166.09,139.43 45.11,12.3 86.12,8.21 137.38,6.16 51.27,-2.05 112.78,-2.05 168.14,51.26 55.37,53.31 104.58,159.94 147.64,262.47 43.06,102.52 79.97,200.94 92.27,264.51 12.31,63.57 0.01,92.27 -26.65,118.93 -26.66,26.66 -67.66,51.26 -157.89,55.36 -90.22,4.11 -229.65,-12.3 -397.8,-18.45 -168.14,-6.15 -364.99,-2.05 -520.83,-2.05 -155.84,0 -270.67,-4.1 -336.29,-41.01 -65.61,-36.91 -82.01,-106.63 -114.82,-223.51 -32.81,-116.88 -82.02,-280.92 -106.63,-362.94 -24.6,-82.02 -24.6,-82.02 -51.26,-174.29 -26.66,-92.27 -79.97,-276.83 -129.18,-410.11 -49.22,-133.28 -94.33,-215.3 -127.14,-326.03 -32.81,-110.73 -53.31,-250.16 -75.86,-381.39 -22.56,-131.24 -47.16,-254.27 -73.82,-362.94 -26.66,-108.68 -55.37,-203 -82.02,-348.59 -26.66,-145.58 -51.26,-342.44 -69.72,-473.67 -18.45,-131.23 -30.76,-196.85 -36.91,-229.66 -6.15,-32.8 -6.15,-32.8 -116.88,-2.05 -110.73,30.76 -332.18,92.28 -496.22,182.5 -164.04,90.22 -270.67,209.15 -387.55,354.73 -116.88,145.59 -244,317.84 -338.33,469.57 -94.33,151.74 -155.84,282.98 -223.5,410.11 -67.67,127.13 -141.5,250.16 -182.5,362.94 -41.02,112.78 -49.22,215.3 -53.32,268.61 -4.1,53.32 -4.1,57.42 75.87,36.91 79.97,-20.5 239.91,-65.61 393.7,-96.37 153.79,-30.76 301.42,-47.16 475.72,-30.76 174.29,16.41 375.25,65.62 522.88,108.68 147.64,43.06 241.96,79.97 358.84,110.73 116.88,30.76 256.31,55.36 352.68,100.47 96.38,45.12 149.69,110.74 184.55,186.6 34.86,75.87 51.27,162 47.17,235.81 -4.11,73.82 -28.71,135.34 -92.28,186.6 -63.57,51.26 -166.09,92.27 -217.36,112.77 -51.26,20.51 -51.26,20.51 -116.88,24.61 -65.61,4.1 -196.84,12.31 -416.24,16.41 -219.41,4.1 -526.99,4.1 -945.29,-8.21 -418.3,-12.3 -947.34,-36.91 -1224.15,-49.21 -276.83,-12.3 -301.43,-12.3 -321.93,10.25 -20.51,22.56 -36.92,67.67 -63.57,108.68 -26.66,41.01 -63.57,77.92 -213.26,69.71 -149.69,-8.19 -412.15,-61.51 -746.38,-104.57 -334.23,-43.06 -740.24,-75.87 -1056.02,-98.43 -315.77,-22.55 -541.33,-34.85 -678.71,-45.1 -137.39,-10.26 -186.6,-18.46 -223.51,-63.57 -36.91,-45.11 -61.51,-127.14 -38.96,-248.12 22.55,-120.98 92.27,-280.91 116.88,-391.64 24.6,-110.73 4.1,-172.25 -28.71,-221.46 -32.81,-49.21 -77.91,-86.11 -96.37,-157.89 -18.46,-71.76 -10.25,-178.39 16.41,-270.66 26.65,-92.27 71.76,-170.2 96.37,-211.21 24.61,-41.01 28.71,-45.11 12.3,-174.29 -16.4,-129.18 -53.31,-383.44 -55.36,-561.84 -2.05,-178.39 30.75,-280.92 90.22,-426.51 59.46,-145.58 145.58,-334.24 287.07,-625.41 141.48,-291.17 338.34,-684.87 524.93,-1002.7 186.59,-317.82 362.94,-559.78 588.5,-826.35 225.56,-266.57 500.32,-557.74 707.43,-760.74 207.1,-203 346.53,-317.83 465.46,-412.15 118.93,-94.33 217.35,-168.15 323.98,-280.93 106.62,-112.77 221.45,-264.51 297.33,-367.03 75.86,-102.53 112.77,-155.84 194.79,-235.81 82.02,-79.97 209.15,-186.6 354.74,-307.58 145.59,-120.98 309.63,-256.31 399.86,-367.04 90.22,-110.73 106.62,-196.86 102.51,-280.92 -4.1,-84.07 -28.7,-166.1 20.52,-256.32 49.21,-90.22 172.23,-188.65 282.96,-258.36 110.73,-69.72 209.16,-110.73 305.53,-203 96.37,-92.28 190.7,-235.81 254.26,-342.43 63.57,-106.63 96.37,-176.35 108.67,-244.02 12.31,-67.66 4.11,-133.28 0.01,-215.3 -4.1,-82.02 -4.1,-180.45 2.05,-262.47 6.15,-82.02 18.45,-147.64 26.65,-254.26 8.21,-106.63 12.31,-254.26 43.07,-406 30.76,-151.74 88.17,-307.58 116.88,-408.05 28.71,-100.48 28.71,-145.59 -6.15,-211.2 -34.86,-65.62 -104.58,-151.75 -166.09,-250.17 -61.52,-98.43 -114.83,-209.16 -168.15,-313.73 -53.32,-104.58 -106.62,-203 -143.54,-338.33 -36.91,-135.33 -57.41,-307.58 -71.76,-481.87 -14.36,-174.3 -22.56,-350.64 -43.07,-545.44 -20.5,-194.8 -53.3,-408.05 -73.81,-555.68 -20.51,-147.64 -28.71,-229.67 22.56,-274.78 51.25,-45.11 161.98,-53.31 274.76,-6.15 112.78,47.16 227.61,149.69 315.79,233.76 88.17,84.07 149.68,149.69 225.54,231.71z"/>
    <path class="fil1" d="M13363.39 13551.56c-102.78,115.66 -225.81,271.5 -328.33,396.58 -102.53,125.08 -184.55,219.41 -250.17,307.58 -65.62,88.17 -114.83,170.2 -166.09,266.57 -51.26,96.38 -104.58,207.1 -133.51,340.53 -28.93,133.44 -33.47,289.57 -35.74,367.63 -2.27,78.07 -2.27,78.07 -6.15,-22.55 -3.88,-100.62 -11.64,-301.87 21.38,-468.11 33.04,-166.24 106.86,-297.47 201.18,-441.01 94.32,-143.53 209.15,-299.37 352.68,-465.47 143.54,-166.09 315.79,-342.43 440.18,-473.32 124.4,-130.89 200.94,-216.33 293.43,-354.73 92.49,-138.41 200.92,-329.77 255.14,-425.45 54.21,-95.69 54.21,-95.69 -17.52,37.79 -71.73,133.46 -215.19,400.4 -328.18,571.6 -113,171.22 -195.52,246.7 -298.3,362.36z"/>
    <path class="fil1" d="M11120.89 14736.91c-62.54,-208.46 -124.06,-434.01 -201.97,-579.6 -77.92,-145.58 -172.25,-211.21 -231.71,-285.02 -59.47,-73.82 -84.07,-155.84 -55.36,-285.03 28.7,-129.18 110.72,-305.52 151.74,-393.7 41,-88.17 41,-88.17 4.09,-26.66 -36.91,61.52 -110.73,184.55 -153.79,272.72 -43.06,88.18 -55.36,141.49 -61.51,213.26 -6.15,71.77 -6.15,161.99 26.66,227.6 32.8,65.62 98.42,106.63 157.89,172.24 59.46,65.62 112.77,155.85 172.24,299.38 59.46,143.54 125.08,340.4 189.67,511.95 64.59,171.56 128.16,317.82 159.93,390.95 31.79,73.13 31.79,73.13 0,-22.56 -31.77,-95.68 -95.34,-287.06 -157.88,-495.53z"/>
    <path class="fil1" d="M8097.41 14606.37c209.15,-4.1 397.8,28.7 580.3,125.07 182.49,96.38 358.84,256.32 473.67,412.16 114.82,155.84 168.13,307.58 192.74,457.27 24.61,149.69 20.51,297.32 -79.97,512.62 -100.47,215.3 -297.32,498.28 -580.29,727.94 -282.98,229.65 -652.06,405.99 -937.08,524.92 -285.03,118.93 -485.98,180.45 -586.46,211.21 -100.47,30.76 -100.47,30.76 53.32,22.55 153.78,-8.2 461.37,-24.6 693.07,-12.3 231.71,12.3 387.55,53.32 483.93,116.88 96.37,63.56 133.28,149.69 156.52,255.97 23.24,106.28 32.81,232.73 37.59,295.95 4.79,63.22 4.79,63.22 6.15,6.15 1.37,-57.07 4.1,-171.21 -2.74,-271.34 -6.83,-100.13 -23.23,-186.26 -66.29,-255.97 -43.06,-69.72 -112.78,-123.03 -229.66,-157.89 -116.88,-34.86 -280.92,-51.26 -451.11,-53.31 -170.19,-2.05 -346.54,10.25 -434.71,16.4 -88.17,6.15 -88.17,6.15 12.3,-22.55 100.48,-28.71 301.42,-86.12 485.97,-153.8 184.55,-67.66 352.69,-145.58 535.19,-254.26 182.49,-108.68 379.34,-248.11 559.79,-447.01 180.44,-198.9 344.48,-457.26 420.35,-695.12 75.87,-237.86 63.57,-455.21 -34.85,-664.37 -98.43,-209.15 -282.98,-410.1 -490.08,-545.44 -207.1,-135.33 -436.76,-205.05 -695.12,-221.45 -258.37,-16.4 -545.44,20.5 -805.86,108.67 -260.41,88.18 -494.17,227.61 -611.05,297.33 -116.88,69.72 -116.88,69.72 10.26,16.4 127.13,-53.31 381.39,-159.94 623.35,-233.76 241.96,-73.81 471.62,-114.82 680.77,-118.92z"/>
    <path class="fil1" d="M9858.81 17576.54c170.19,21.53 438.8,35.88 674.61,32.8 235.81,-3.07 438.81,-23.57 586.29,-39.53 147.48,-15.96 239.43,-27.38 304.56,-28.27 65.12,-0.89 103.42,8.74 122.57,13.55 19.14,4.81 19.14,4.81 18.88,4.74 -0.27,-0.07 -0.8,-0.22 -33.12,0.67 -32.31,0.9 -96.42,2.83 -171.53,14.04 -75.11,11.23 -161.23,31.73 -309.89,48.13 -148.66,16.41 -359.87,28.71 -574.15,29.73 -214.28,1.03 -431.63,-9.22 -597.72,-39.98 -166.09,-30.76 -280.92,-82.02 -333.55,-125.08 -52.63,-43.07 -43.07,-77.94 -38.28,-95.37 4.78,-17.43 4.78,-17.43 10.25,3.08 5.47,20.51 16.41,61.53 57.77,96.39 41.34,34.86 113.12,63.57 283.31,85.1z"/>
   </g>
   <circle class="fil2 str0" cx="10958.07" cy="11976.13" r="8503.04"/>
  </g>
 </g>
</svg>
