<?xml version="1.0" encoding="UTF-8"?>
<!DOCTYPE svg PUBLIC "-//W3C//DTD SVG 1.1//EN" "http://www.w3.org/Graphics/SVG/1.1/DTD/svg11.dtd">
<!-- Creator: CorelDRAW 2018 (64-Bit) -->
<svg xmlns="http://www.w3.org/2000/svg" xml:space="preserve" width="210mm" height="297mm" version="1.1" style="shape-rendering:geometricPrecision; text-rendering:geometricPrecision; image-rendering:optimizeQuality; fill-rule:evenodd; clip-rule:evenodd"
viewBox="0 0 21000 29700"
 xmlns:xlink="http://www.w3.org/1999/xlink">
 <defs>
  <style type="text/css">
   <![CDATA[
    .fil10 {fill:#1F1B20}
    .fil11 {fill:#353539}
    .fil3 {fill:#372720}
    .fil9 {fill:#484848}
    .fil2 {fill:#4D2E1C}
    .fil8 {fill:#685E5D}
    .fil1 {fill:#6E4332}
    .fil7 {fill:#927D7A}
    .fil4 {fill:#A7968E}
    .fil0 {fill:#BB7F63}
    .fil5 {fill:#D5C3B6}
    .fil6 {fill:#EDE9E6}
    .fil12 {fill:#FEFEFE}
   ]]>
  </style>
 </defs>
 <g id="Слой_x0020_1">
  <metadata id="CorelCorpID_0Corel-Layer"/>
  <g id="_2171767255792">
   <path class="fil0" d="M5189.94 16208.67c-109.65,-200.25 -252.69,-467.25 -371.88,-667.49 -119.19,-200.25 -214.56,-333.74 -271.76,-457.7 -57.22,-123.96 -76.29,-238.4 -109.66,-357.59 -33.38,-119.2 -81.05,-243.16 -133.5,-400.49 -52.45,-157.34 -109.66,-348.05 -224.74,-533.99 -115.09,-185.95 -288.05,-367.12 -374.52,-595.97 -86.48,-228.86 -86.48,-505.39 -86.48,-772.38 0,-267 0,-524.46 67.41,-762.85 67.4,-238.38 202.22,-457.71 258.94,-642.12 56.72,-184.42 35.36,-333.94 75.17,-493.27 39.82,-159.34 140.82,-328.51 268.68,-520.43 127.85,-191.93 282.55,-406.64 481.12,-604.88 198.58,-198.24 441.02,-380.03 643.29,-528.13 202.27,-148.11 364.37,-262.54 507.4,-348.36 143.04,-85.82 267,-143.03 429.1,-176.41 162.11,-33.37 362.35,-42.91 505.39,-23.84 143.03,19.08 228.86,66.75 333.75,4.77 104.88,-61.98 228.85,-233.62 309.9,-371.88 81.05,-138.27 119.19,-243.17 185.94,-267 66.75,-23.84 162.11,33.37 214.56,76.28 52.44,42.91 61.97,71.51 157.33,38.15 95.35,-33.38 276.53,-128.73 519.69,-157.33 243.15,-28.61 548.28,9.52 829.58,66.74 281.3,57.21 538.76,133.5 719.94,214.55 181.17,81.05 286.07,166.87 400.5,190.71 114.42,23.83 238.38,-14.3 438.63,-28.61 200.25,-14.3 476.78,-4.76 767.61,76.29 290.84,81.05 595.97,233.61 915.41,410.02 319.44,176.41 653.19,376.66 929.72,548.3 276.53,171.63 495.85,314.67 743.78,476.78 247.92,162.1 524.44,343.27 839.11,677.02 314.68,333.74 667.5,820.06 886.81,1106.13 219.32,286.06 305.14,371.88 433.87,410.03 128.73,38.14 300.37,28.6 424.33,-0.01 123.97,-28.61 200.25,-76.28 290.84,-143.03 90.59,-66.75 195.48,-152.57 271.76,-114.43 76.29,38.15 123.96,200.24 176.41,290.84 52.45,90.58 109.66,109.65 185.94,100.12 76.29,-9.54 171.64,-47.67 219.31,4.77 47.69,52.45 47.69,195.47 131.45,186.51 83.77,-8.96 251.31,-169.91 335.08,-250.38 83.77,-80.48 83.77,-80.48 130.67,94.97 46.9,175.46 140.7,526.36 212.41,959.66 71.73,433.28 121.37,948.97 102.27,1548.08 -19.09,599.11 -106.93,1281.66 -185.07,1733.27 -78.14,451.61 -146.58,672.28 -277.22,826.85 -130.64,154.58 -323.48,243.05 -500.96,363.58 -177.48,120.52 -339.57,273.08 -454,420.88 -114.43,147.81 -181.18,290.84 -162.67,479.33 18.52,188.49 122.29,422.43 38.42,705.42 -83.86,282.99 -355.36,615.02 -664.7,807.96 -309.35,192.94 -656.54,246.76 -875.79,249.28 -219.24,2.52 -310.55,-46.28 -415.44,-17.68 -104.89,28.61 -223.38,134.63 -315.99,249.61 -92.61,114.99 -159.36,238.95 -156.08,403.36 3.29,164.41 76.61,369.26 109.76,473.8 33.16,104.53 26.16,108.73 -244.12,115.96 -270.28,7.24 -803.83,17.48 -787.02,7.25 16.82,-10.23 584,-40.97 796.59,-15.34 212.6,25.63 70.61,107.61 -163.71,222.61 -234.31,115.01 -560.93,263.05 -911.8,332.78 -350.86,69.73 -725.95,61.16 -1280.62,-57.56 -554.66,-118.71 -1288.91,-347.57 -2271.06,-953.08 -982.16,-605.5 -2212.25,-1587.67 -3032.3,-2264.69 -820.06,-677.02 -1230.09,-1048.91 -1535.22,-1244.39 -305.14,-195.47 -505.4,-214.55 -615.05,-281.3 -109.66,-66.74 -128.73,-181.17 -47.68,-247.92 81.05,-66.75 262.22,-85.82 314.67,-162.11 52.45,-76.28 -23.84,-209.78 -133.5,-410.02z"/>
   <path class="fil1" d="M6033.85 9049.87c66.75,-45.29 143.03,-78.67 174.02,-126.34 30.99,-47.68 16.69,-109.67 -40.52,-145.42 -57.22,-35.76 -157.35,-45.3 -300.37,4.77 -143.04,50.05 -328.98,159.72 -494.07,248.97 -165.1,89.25 -309.34,158.1 -299.81,189.1 9.53,30.98 172.85,24.11 192.53,65.97 19.68,41.86 -104.29,132.45 -197.25,213.5 -92.98,81.05 -154.96,152.57 -176.42,195.48 -21.45,42.91 -2.38,57.21 -19.07,92.97 -16.69,35.76 -69.13,92.97 -92.97,162.11 -23.84,69.13 -19.07,150.19 -7.15,205.02 11.92,54.82 30.99,83.42 0.01,133.49 -30.99,50.06 -112.05,121.58 -181.18,190.71 -69.14,69.13 -126.35,135.89 -123.96,200.26 2.37,64.36 64.36,126.33 23.83,190.7 -40.53,64.36 -183.55,131.12 -262.22,185.95 -78.67,54.82 -92.98,97.73 -90.59,123.95 2.38,26.23 21.45,35.76 -14.3,81.06 -35.76,45.29 -126.35,126.35 -174.02,202.63 -47.69,76.29 -52.45,147.8 -45.3,197.86 7.15,50.07 26.21,78.67 7.15,143.04 -19.07,64.36 -76.29,164.49 -95.35,295.6 -19.08,131.12 -0.01,293.21 30.98,486.31 30.99,193.09 73.9,417.18 104.83,608.66 30.93,191.47 49.87,350.34 83.12,470.71 33.24,120.36 80.78,202.22 133.29,280.13 52.5,77.91 109.98,151.84 119.65,262.72 9.66,110.87 -28.47,258.67 2.52,323.03 30.98,64.37 131.11,45.3 185.94,-40.52 54.83,-85.82 64.37,-238.39 76.29,-255.08 11.92,-16.69 26.21,102.51 57.2,178.79 31,76.29 78.67,109.66 102.51,188.34 23.84,78.66 23.84,202.62 -7.95,290.03 -31.78,87.41 -95.35,138.26 -137.57,134.3 -42.22,-3.96 -63.08,-62.72 -41.1,-24.21 21.98,38.52 86.81,174.33 210.48,402.15 123.68,227.82 306.21,547.67 444.74,745.95 138.53,198.28 233.08,275 268.43,351.5 35.35,76.51 11.52,152.8 6.75,212.39 -4.77,59.6 9.53,102.51 88.21,57.21 78.66,-45.29 221.69,-178.78 314.67,-286.06 92.97,-107.27 135.87,-188.33 157.33,-266.99 21.45,-78.67 21.45,-154.96 33.37,-145.42 11.92,9.53 35.76,104.9 85.83,176.42 50.06,71.51 126.34,119.18 188.33,100.11 61.98,-19.07 109.65,-104.89 159.71,-138.27 50.07,-33.37 102.51,-14.3 176.41,-35.76 73.9,-21.45 169.25,-83.43 224.09,-159.71 54.82,-76.29 69.13,-166.87 123.96,-212.16 54.82,-45.3 150.19,-45.3 266.99,-119.2 116.81,-73.9 255.08,-221.7 357.59,-326.59 102.5,-104.9 169.25,-166.88 205.01,-245.54 35.76,-78.68 40.53,-174.03 30.99,-247.93 -9.54,-73.9 -33.37,-126.34 -9.53,-188.33 23.83,-61.98 95.35,-133.5 133.5,-205.01 38.14,-71.52 42.9,-143.04 40.52,-233.63 -2.38,-90.58 -11.92,-200.25 -40.53,-283.68 -28.61,-83.43 -76.28,-140.65 -100.12,-221.7 -23.84,-81.05 -23.84,-185.95 -21.46,-297.99 2.39,-112.04 7.16,-231.23 33.38,-352.81 26.22,-121.58 73.9,-245.54 145.42,-355.2 71.51,-109.66 166.87,-205.02 219.32,-176.41 52.44,28.61 61.97,181.17 83.43,324.21 21.45,143.03 54.83,276.53 52.44,383.81 -2.38,107.27 -40.52,188.32 -40.52,278.92 0,90.58 38.14,190.7 33.37,264.61 -4.77,73.89 -52.44,121.57 -2.37,147.79 50.05,26.23 197.85,30.99 297.98,21.46 100.12,-9.54 152.56,-33.37 128.73,-119.19 -23.84,-85.82 -123.96,-233.62 -159.72,-328.98 -35.76,-95.36 -7.16,-138.26 2.38,-183.56 9.53,-45.3 0,-92.97 -26.23,-116.81 -26.22,-23.84 -69.12,-23.84 -88.2,-64.36 -19.07,-40.53 -14.3,-121.59 14.31,-140.65 28.61,-19.07 81.05,23.83 92.97,71.51 11.92,47.68 -16.69,100.12 -9.54,159.72 7.15,59.6 50.06,126.35 92.97,157.34 42.91,30.99 85.82,26.22 171.64,42.91 85.82,16.68 214.55,54.82 314.68,88.2 100.12,33.37 171.63,61.98 224.08,95.36 52.45,33.38 85.82,71.51 71.51,107.27 -14.3,35.76 -76.28,69.13 -147.79,97.74 -71.52,28.61 -152.58,52.45 -140.66,52.45 11.92,0 116.82,-23.84 247.93,-45.3 131.12,-21.45 288.45,-40.52 491.08,-114.42 202.63,-73.9 450.55,-202.64 600.74,-317.06 150.19,-114.43 202.63,-214.55 226.47,-295.6 23.84,-81.06 19.07,-143.03 -28.6,-193.1 -47.68,-50.06 -138.28,-88.2 -171.65,-145.41 -33.37,-57.22 -9.53,-133.5 -19.07,-200.25 -9.53,-66.75 -52.44,-123.96 -90.58,-236 -38.15,-112.05 -71.52,-278.92 -78.67,-400.5 -7.15,-121.57 11.91,-197.86 28.6,-278.91 16.69,-81.05 30.99,-166.88 52.45,-238.39 21.46,-71.52 50.06,-128.73 90.59,-128.73 40.52,0 92.97,57.21 171.64,135.88 78.66,78.67 183.56,178.79 181.18,228.85 -2.39,50.06 -112.05,50.06 -169.26,88.2 -57.22,38.15 -61.99,114.43 -61.99,190.72 0,76.28 4.77,152.57 26.23,224.08 21.45,71.52 59.59,138.27 121.58,183.56 61.97,45.29 147.8,69.13 209.78,33.38 61.98,-35.76 100.12,-131.12 119.19,-252.7 19.07,-121.58 19.07,-269.38 14.3,-438.63 -4.77,-169.26 -14.29,-359.97 -14.29,-498.23 0,-138.27 9.52,-224.09 38.13,-288.45 28.61,-64.37 76.28,-107.28 119.2,-183.56 42.91,-76.29 81.05,-185.95 114.42,-214.55 33.38,-28.61 61.99,23.83 90.6,-7.15 28.6,-31 57.2,-145.42 76.28,-157.34 19.07,-11.92 28.61,78.66 73.9,59.59 45.29,-19.07 126.35,-147.8 171.64,-183.55 45.29,-35.76 54.83,21.44 97.74,-33.38 42.91,-54.83 119.2,-221.7 178.79,-345.66 59.6,-123.96 102.5,-205.02 193.09,-283.69 90.59,-78.66 228.86,-154.95 405.26,-209.77 176.41,-54.84 390.97,-88.21 536.38,-121.59 145.41,-33.38 221.7,-66.75 322.07,-44.1 100.37,22.64 224.84,101.33 291.59,215.75 66.75,114.43 75.79,264.61 87.45,346.85 11.67,82.24 25.98,96.54 92.72,94.16 66.75,-2.39 185.95,-21.45 286.54,-29.24 100.59,-7.8 182.58,-4.33 223.57,-2.59 41,1.73 41,1.73 -28.72,-45.12 -69.71,-46.85 -209.15,-140.57 -321.41,-215.01 -112.26,-74.45 -197.34,-129.62 -347.07,-224.08 -149.72,-94.46 -364.08,-228.2 -560.29,-347.2 -196.2,-119.01 -374.25,-223.28 -558.67,-325.55 -184.42,-102.29 -375.22,-202.59 -548.77,-282.64 -173.55,-80.06 -329.86,-139.87 -512.93,-183.39 -183.08,-43.53 -392.93,-70.77 -557.39,-79.39 -164.46,-8.62 -283.53,1.38 -379.64,7.05 -96.12,5.68 -169.29,7.03 -251.19,-13.47 -81.91,-20.51 -172.55,-62.86 -239.29,-94.65 -66.76,-31.79 -109.61,-53 -135.01,-16.72 -25.4,36.27 -33.33,130.03 36.6,255.59 69.92,125.55 217.72,282.88 303.54,404.46 85.82,121.58 109.66,207.4 97.74,233.63 -11.92,26.22 -59.59,-7.15 -69.13,21.46 -9.54,28.6 19.06,119.19 -4.77,128.73 -23.84,9.53 -100.13,-61.99 -123.96,-59.61 -23.84,2.39 4.76,78.68 -9.54,109.67 -14.3,30.98 -71.52,16.68 -166.87,-57.22 -95.35,-73.9 -228.85,-207.4 -326.59,-355.2 -97.75,-147.8 -159.72,-309.9 -202.64,-414.79 -42.91,-104.9 -66.74,-152.57 -57.2,-90.59 9.53,61.98 52.44,233.61 35.76,309.9 -16.69,76.28 -92.98,57.22 -42.92,147.81 50.07,90.58 226.47,290.83 376.66,429.1 150.18,138.26 274.15,214.54 297.99,238.39 23.83,23.83 -52.45,-4.77 -71.53,9.53 -19.07,14.31 19.08,71.51 -4.76,71.51 -23.84,0 -109.66,-57.2 -150.18,-50.05 -40.53,7.14 -35.77,78.66 -81.06,92.97 -45.3,14.29 -140.65,-28.61 -231.23,-104.89 -90.59,-76.29 -176.41,-185.95 -290.84,-274.15 -114.43,-88.21 -257.46,-154.95 -259.84,-128.73 -2.39,26.22 135.88,145.42 116.81,181.18 -19.08,35.75 -195.48,-11.92 -224.09,11.92 -28.61,23.83 90.59,119.19 107.28,166.87 16.68,47.68 -69.14,47.68 -73.91,83.44 -4.77,35.75 71.52,107.27 171.64,188.32 100.12,81.05 224.09,171.64 297.99,195.48 73.9,23.83 97.74,-19.07 92.97,-81.05 -4.77,-61.98 -38.14,-143.04 9.55,-178.79 47.67,-35.76 176.4,-26.23 245.53,2.38 69.13,28.6 78.66,76.28 64.36,147.8 -14.31,71.51 -52.44,166.87 -133.49,197.86 -81.06,30.99 -205.02,-2.38 -371.89,-21.45 -166.87,-19.08 -376.66,-23.84 -472.01,-9.54 -95.36,14.3 -76.28,47.67 -119.19,23.84 -42.91,-23.84 -147.81,-104.9 -276.54,-138.27 -128.73,-33.37 -281.29,-19.07 -431.48,4.77 -150.18,23.84 -297.98,57.21 -421.95,76.28 -123.96,19.08 -224.09,23.84 -345.67,50.07 -121.57,26.22 -264.6,73.9 -243.14,81.05 21.45,7.15 207.39,-26.22 209.78,-14.3 2.38,11.91 -178.8,69.13 -205.01,92.97 -26.23,23.83 102.5,14.3 47.68,57.22 -54.84,42.9 -293.23,138.26 -269.39,181.17 23.84,42.9 309.9,33.37 359.96,50.06 50.07,16.69 -135.88,59.6 -205.01,104.89 -69.13,45.3 -21.45,92.97 -11.92,143.04 9.54,50.05 -19.07,102.5 -126.34,185.94 -107.28,83.43 -293.22,197.86 -295.61,207.4 -2.38,9.53 178.8,-85.83 314.68,-133.5 135.87,-47.68 226.47,-47.68 228.85,-23.84 2.38,23.84 -83.44,71.51 -157.34,116.81 -73.9,45.3 -135.88,88.2 -207.39,154.95 -71.52,66.75 -152.57,157.34 -231.24,297.99 -78.67,140.64 -154.95,331.36 -207.4,445.78 -52.45,114.43 -81.05,152.57 -11.91,69.14 69.13,-83.44 235.99,-288.45 350.43,-421.95 114.42,-133.5 176.4,-195.48 188.32,-135.88 11.92,59.6 -26.22,240.77 -64.36,414.8 -38.15,174.02 -76.28,340.89 -78.67,412.41 -2.38,71.51 30.99,47.67 14.3,164.48 -16.69,116.81 -83.43,374.27 -109.66,462.48 -26.22,88.2 -11.92,7.15 -2.38,73.9 9.53,66.74 14.3,281.3 47.68,364.73 33.37,83.44 95.35,35.76 116.81,71.52 21.45,35.76 2.38,154.96 -31,247.93 -33.37,92.97 -81.04,159.72 -83.43,274.14 -2.38,114.43 40.52,276.54 38.14,407.65 -2.39,131.11 -50.06,231.24 -52.44,357.58 -2.39,126.35 40.52,278.92 83.43,367.13 42.91,88.2 85.82,112.03 81.05,169.25 -4.77,57.21 -57.21,147.8 -83.43,259.84 -26.23,112.04 -26.23,245.54 -31,367.12 -4.76,121.58 -14.29,231.24 -35.75,290.84 -21.45,59.6 -54.83,69.12 -71.52,-31 -16.69,-100.12 -16.69,-309.91 -61.98,-388.57 -45.29,-78.67 -135.89,-26.23 -197.86,112.04 -61.99,138.27 -95.36,362.36 -133.5,417.19 -38.15,54.83 -81.05,-59.61 -102.51,-147.81 -21.45,-88.2 -21.45,-150.19 -85.81,-133.5 -64.37,16.69 -193.1,112.05 -305.14,171.65 -112.05,59.6 -207.41,83.43 -308.32,117.6 -100.92,34.16 -207.41,78.66 -219.32,42.9 -11.92,-35.76 70.72,-151.77 58.82,-173.59 -11.91,-21.82 -118.36,50.55 -144.59,21.94 -26.22,-28.61 27.79,-158.19 38.11,-275.42 10.31,-117.24 -23.06,-222.14 -39.75,-315.11 -16.68,-92.97 -16.68,-174.02 -30.99,-209.78 -14.3,-35.76 -42.9,-26.22 -54.82,-50.06 -11.92,-23.84 -7.16,-81.05 28.6,-154.95 35.76,-73.9 102.5,-164.5 135.88,-159.73 33.38,4.77 33.38,104.9 76.29,152.58 42.9,47.67 128.73,42.9 286.07,-38.14 157.33,-81.06 386.19,-238.39 405.26,-257.46 19.06,-19.08 -171.64,100.12 -300.37,202.62 -128.73,102.51 -195.49,188.33 -209.78,238.4 -14.31,50.06 23.83,64.36 11.91,126.34 -11.92,61.98 -73.9,171.64 -76.28,207.4 -2.39,35.75 54.82,-2.38 73.9,9.54 19.07,11.92 0,73.89 14.3,102.5 14.3,28.61 61.98,23.84 81.05,61.99 19.07,38.13 9.54,119.19 21.46,166.87 11.92,47.67 45.29,61.98 64.36,90.59 19.08,28.6 23.84,71.51 76.29,59.59 52.44,-11.92 152.57,-78.67 224.09,-147.8 71.51,-69.13 114.41,-140.65 135.87,-205.01 21.46,-64.37 21.46,-121.58 61.99,-202.63 40.52,-81.06 121.57,-185.95 150.18,-276.53 28.6,-90.6 4.77,-166.88 7.15,-257.46 2.39,-90.6 30.99,-195.49 19.07,-288.46 -11.92,-92.96 -64.36,-174.02 -71.51,-281.3 -7.16,-107.27 30.99,-240.77 57.21,-383.8 26.23,-143.04 40.52,-295.61 -19.07,-302.76 -59.6,-7.15 -193.1,131.12 -271.76,214.56 -78.68,83.43 -102.51,112.03 -107.28,76.28 -4.77,-35.76 9.53,-135.88 9.53,-205.01 0,-69.14 -14.3,-107.28 -7.14,-152.57 7.15,-45.3 35.75,-97.74 -9.54,-131.12 -45.3,-33.37 -164.49,-47.68 -190.71,-104.89 -26.23,-57.21 40.52,-157.34 112.05,-247.93 71.51,-90.58 147.79,-171.64 147.79,-183.55 0,-11.92 -76.28,45.29 -131.11,78.66 -54.84,33.38 -88.21,42.92 -109.66,0.01 -21.46,-42.91 -30.99,-138.27 -33.38,-190.71 -2.38,-52.45 2.39,-61.99 -9.54,-69.14 -11.92,-7.15 -40.52,-11.92 2.4,-52.44 42.9,-40.53 157.33,-116.82 169.25,-138.27 11.92,-21.45 -78.68,11.91 -140.65,19.07 -61.99,7.15 -95.36,-11.92 -97.74,-78.66 -2.38,-66.75 26.22,-181.19 40.52,-245.55 14.3,-64.37 14.3,-78.66 33.38,-121.58 19.07,-42.91 57.21,-114.42 59.6,-183.55 2.38,-69.14 -30.99,-135.89 -45.3,-193.1 -14.3,-57.22 -9.53,-104.89 -4.77,-166.86 4.77,-61.99 9.54,-138.28 14.31,-190.72 4.77,-52.45 9.53,-81.06 -7.15,-85.83 -16.69,-4.76 -54.83,14.31 -119.19,61.99 -64.37,47.67 -154.96,123.96 -174.03,109.66 -19.07,-14.31 33.37,-119.2 102.51,-233.63 69.13,-114.43 154.95,-238.39 247.92,-357.58 92.97,-119.19 193.1,-233.62 278.92,-326.59 85.82,-92.98 157.34,-164.49 221.71,-231.23 64.36,-66.76 121.57,-128.74 83.43,-126.36 -38.15,2.39 -171.64,69.14 -188.33,66.75 -16.69,-2.38 83.43,-73.9 162.1,-126.34 78.67,-52.45 135.88,-85.82 102.51,-90.59 -33.38,-4.77 -157.34,19.07 -288.45,102.51 -131.12,83.43 -269.38,226.47 -307.52,255.07 -38.14,28.61 23.83,-57.21 131.12,-169.25 107.27,-112.05 259.83,-250.31 400.48,-355.2 140.65,-104.89 269.38,-176.41 247.92,-181.18 -21.45,-4.77 -193.09,57.22 -355.19,126.35 -162.11,69.13 -314.67,145.41 -462.47,245.54 -147.81,100.12 -290.84,224.09 -290.84,195.48 0,-28.61 143.03,-209.78 255.08,-333.74 112.04,-123.97 193.09,-190.72 321.82,-281.3 128.73,-90.6 305.14,-205.02 383.81,-267 78.67,-61.98 59.59,-71.52 -52.45,-28.61 -112.04,42.91 -317.06,138.27 -460.09,209.79 -143.03,71.51 -224.09,119.19 -202.63,73.9 21.46,-45.3 145.42,-183.57 236.01,-274.15 90.59,-90.59 147.8,-133.5 135.88,-143.03 -11.92,-9.54 -92.97,14.3 -162.1,28.6 -69.14,14.31 -126.36,19.07 -126.36,-7.15 0,-26.22 57.22,-83.44 123.97,-128.73z"/>
   <path class="fil1" d="M12789.79 14752.17c42.91,-145.42 114.43,-312.28 181.18,-488.7 66.75,-176.41 128.73,-362.34 240.77,-495.84 112.05,-133.5 274.15,-214.56 379.04,-309.91 104.89,-95.35 152.57,-205.02 231.23,-259.84 78.68,-54.84 188.33,-54.84 290.84,-104.89 102.5,-50.07 197.87,-150.19 283.68,-257.46 85.83,-107.28 162.11,-221.71 228.85,-305.14 66.76,-83.44 123.97,-135.89 188.33,-195.48 64.37,-59.6 135.89,-126.34 202.63,-219.31 66.75,-92.98 128.74,-212.17 205.02,-338.52 76.28,-126.35 166.87,-259.84 214.55,-371.89 47.68,-112.04 52.45,-202.63 45.29,-307.52 -7.15,-104.89 -26.22,-224.08 -41.59,-317.36 -15.36,-93.28 -27,-160.63 -100.9,-248.83 -73.9,-88.21 -210.05,-197.26 -316.54,-304.04 -106.48,-106.78 -183.29,-211.28 -251.64,-281.36 -68.35,-70.07 -128.23,-105.71 -75.32,-58.44 52.92,47.27 218.63,177.46 372.79,302.36 154.17,124.9 296.8,244.53 413.85,384.48 117.06,139.94 208.56,300.23 312.6,456.78 104.04,156.55 220.64,309.38 337,435.84 116.35,126.45 232.47,226.53 376.66,271.94 144.19,45.4 316.46,36.13 456.69,-2.41 140.25,-38.54 248.46,-106.35 326.81,-144.61 78.36,-38.28 126.85,-47.03 168.08,-28.81 41.25,18.22 75.22,63.4 135.61,128.56 60.4,65.16 147.2,150.3 227.16,193.67 79.95,43.36 153.06,44.96 197.91,64.12 44.86,19.15 61.46,55.88 160.99,61.06 99.54,5.18 282,-21.18 322.17,66.95 40.18,88.12 -61.94,290.73 -196.43,413.5 -134.49,122.76 -301.36,165.66 -437.24,184.73 -135.88,19.08 -240.77,14.31 -297.99,-19.07 -57.2,-33.37 -66.74,-95.35 -30.99,-150.18 35.76,-54.84 116.82,-102.51 85.83,-102.51 -31,0 -174.03,47.67 -278.92,73.9 -104.89,26.22 -171.64,30.99 -266.99,16.69 -95.36,-14.31 -219.32,-47.68 -228.86,-35.76 -9.53,11.92 95.36,69.13 159.72,100.12 64.37,31 88.21,35.76 45.29,52.45 -42.9,16.69 -152.57,45.29 -145.41,71.52 7.15,26.22 131.11,50.05 264.61,71.51 133.5,21.46 276.53,40.53 221.7,61.98 -54.83,21.46 -307.52,45.29 -400.5,76.29 -92.97,30.99 -26.21,69.12 7.16,102.5 33.37,33.38 33.37,61.99 92.97,73.91 59.6,11.92 178.8,7.15 228.85,30.99 50.07,23.84 31,76.28 73.9,71.51 42.91,-4.77 147.81,-66.74 300.37,-85.82 152.57,-19.07 352.83,4.77 371.89,7.16 19.07,2.38 -143.03,-16.69 -176.4,-61.98 -33.38,-45.3 61.98,-116.82 100.12,-162.11 38.14,-45.29 19.07,-64.37 50.05,-100.13 31,-35.76 112.05,-88.2 202.64,-178.78 90.59,-90.6 190.71,-219.33 258.46,-330.17 67.74,-110.84 103.09,-203.78 115.01,-165.64 11.92,38.14 0.4,207.38 35.81,367.32 35.4,159.94 117.72,310.59 177.44,466.11 59.73,155.52 96.87,315.9 112.18,612.29 15.32,296.38 8.83,728.76 13.77,1009.12 4.95,280.34 21.32,408.66 -32.77,427.91 -54.1,19.25 -178.68,-70.58 -283.87,-146.48 -105.19,-75.9 -191.02,-137.87 -288.76,-187.94 -97.73,-50.06 -207.39,-88.2 -293.22,-152.56 -85.81,-64.37 -147.79,-154.96 -128.73,-202.63 19.08,-47.69 119.21,-52.45 207.41,-52.45 88.2,0 164.49,4.76 114.42,-26.22 -50.06,-30.99 -226.47,-97.75 -405.26,-176.41 -178.79,-78.67 -359.96,-169.26 -524.46,-274.15 -164.49,-104.89 -312.28,-224.09 -288.45,-228.86 23.84,-4.77 219.33,104.9 393.34,236.01 174.03,131.12 326.6,283.68 417.19,367.12 90.59,83.43 119.19,97.74 109.65,152.57 -9.53,54.83 -57.21,150.19 -128.73,183.56 -71.51,33.37 -166.87,4.77 -262.22,-50.06 -95.36,-54.83 -190.71,-135.88 -286.06,-252.69 -95.36,-116.82 -190.72,-269.38 -331.37,-402.88 -140.65,-133.5 -326.59,-247.93 -305.14,-195.48 21.46,52.44 250.32,271.76 264.61,352.82 14.31,81.05 -185.94,23.83 -162.1,85.82 23.84,61.98 271.77,243.15 457.71,431.48 185.94,188.32 309.91,383.81 286.07,312.29 -23.85,-71.52 -195.48,-410.03 -212.17,-514.92 -16.69,-104.89 121.58,23.84 214.55,135.88 92.97,112.04 140.65,207.4 185.94,321.83 45.29,114.42 88.21,247.92 83.44,209.78 -4.77,-38.14 -57.21,-247.93 -40.53,-352.82 16.69,-104.89 102.51,-104.89 152.57,-112.04 50.07,-7.15 64.36,-21.45 107.27,21.46 42.92,42.9 114.43,143.03 174.03,205.02 59.6,61.97 107.27,85.81 200.24,107.26 92.98,21.46 231.25,40.53 334.25,78.32 103,37.78 170.73,94.27 212.73,172.84 42,78.56 58.28,179.2 57.45,294.32 -0.83,115.12 -18.76,244.72 -52.47,395.03 -33.7,150.31 -83.2,321.33 -89.06,354.55 -5.86,33.22 31.93,-71.35 -9.74,-223.94 -41.67,-152.59 -162.78,-353.2 -321.08,-532.17 -158.29,-178.98 -353.78,-336.31 -363.31,-329.16 -9.53,7.15 166.87,178.79 314.83,356.27 147.96,177.48 267.48,360.8 312.12,541.4 44.65,180.59 14.43,358.48 -9.27,484.13 -23.69,125.66 -40.86,199.08 -59.28,140.06 -18.43,-59.02 -38.11,-250.5 -76.55,-424.9 -38.45,-174.4 -95.66,-331.73 -126.65,-336.5 -30.99,-4.77 -35.76,143.02 -64.37,143.02 -28.6,0 -81.04,-147.79 -169.25,-262.22 -88.21,-114.42 -212.17,-195.48 -231.24,-126.34 -19.07,69.13 66.75,288.45 119.19,443.4 52.45,154.95 71.52,245.54 81.05,307.53 9.54,61.98 9.54,95.34 -19.07,54.82 -28.6,-40.52 -85.82,-154.96 -126.34,-133.5 -40.53,21.45 -64.37,178.79 -119.2,205.02 -54.82,26.22 -140.65,-78.68 -176.41,-45.3 -35.75,33.38 -21.45,205.01 -42.9,216.93 -21.46,11.92 -78.67,-135.87 -114.43,-138.26 -35.76,-2.38 -50.06,140.65 -81.06,133.49 -30.98,-7.15 -78.66,-164.48 -109.65,-171.63 -30.99,-7.15 -45.29,135.88 -69.13,250.31 -23.84,114.42 -57.21,200.25 -104.89,317.06 -47.68,116.81 -109.66,264.6 -147.8,350.42 -38.15,85.82 -52.45,109.66 4.76,-9.53 57.21,-119.19 185.94,-381.42 266.99,-398.11 81.06,-16.69 114.44,212.17 131.12,328.98 16.69,116.81 16.69,121.58 45.29,4.77 28.61,-116.81 85.83,-355.21 145.42,-410.04 59.6,-54.82 121.58,73.91 171.64,97.75 50.07,23.84 88.2,-57.22 104.89,-47.68 16.69,9.53 11.92,109.66 12.09,215.11 0.18,105.46 5.29,216.24 48.2,182.87 42.91,-33.38 123.62,-210.91 163.97,-373.58 40.35,-162.67 40.35,-310.47 47.51,-415.36 7.15,-104.89 21.45,-166.88 38.14,-121.58 16.69,45.3 35.75,197.86 32.06,363.91 -3.69,166.05 -30.14,345.58 -43.36,435.34 -13.23,89.77 -13.23,89.77 -97.55,149.57 -84.32,59.81 -252.97,179.43 -372.45,277.18 -119.48,97.76 -189.8,173.66 -252.07,291.5 -62.27,117.84 -116.48,277.61 -145.88,438.14 -29.4,160.53 -33.97,321.8 -27.58,439.38 6.41,117.57 23.8,191.42 24.7,273.72 0.9,82.31 -14.66,173.05 -73.77,281.22 -59.11,108.18 -161.75,233.81 -264.75,323.1 -103,89.28 -206.36,142.25 -349.03,228.38 -142.68,86.12 -324.69,205.41 -456.22,269.82 -131.52,64.42 -212.57,73.96 -313.26,45.85 -100.69,-28.1 -221.02,-93.84 -328.61,-121.19 -107.59,-27.34 -202.44,-16.3 -334.37,226.53 -131.93,242.83 -300.94,717.46 -417.44,997.5 -116.49,280.04 -180.48,365.49 -351.96,443.05 -171.48,77.55 -450.47,147.19 -589.96,182.01 -139.49,34.83 -139.49,34.83 -133.49,-59.59 5.99,-94.42 17.98,-283.26 -40.4,-442.05 -58.36,-158.78 -187.09,-287.51 -320.59,-463.92 -133.5,-176.4 -271.77,-400.49 -376.66,-605.51 -104.89,-205.01 -176.41,-390.95 -159.72,-636.5 16.68,-245.54 121.58,-550.67 264.61,-851.04 143.04,-300.38 324.21,-595.97 233.62,-736.62 -90.58,-140.65 -452.94,-126.35 -655.57,-121.58 -202.63,4.77 -245.53,0 -200.25,-97.75 45.3,-97.73 178.8,-288.44 264.62,-495.84 85.82,-207.4 123.96,-431.49 150.18,-624.59 26.23,-193.09 40.53,-355.19 7.15,-584.04 -33.36,-228.86 -114.42,-524.45 -162.1,-705.63 -47.67,-181.18 -61.98,-247.93 -61.98,-343.28 0,-95.36 14.31,-219.32 57.21,-364.74z"/>
   <path class="fil0" d="M15869.78 16604.45c76.29,-9.53 128.73,-47.67 224.08,-154.95 95.36,-107.28 233.63,-283.68 283.69,-288.45 50.06,-4.76 11.92,162.11 -59.61,297.99 -71.51,135.88 -176.4,240.77 -188.32,290.83 -11.92,50.07 69.14,45.3 154.96,-16.69 85.81,-61.97 176.41,-181.17 238.38,-290.83 61.99,-109.65 95.36,-209.78 107.28,-174.02 11.92,35.76 2.38,207.39 -54.84,352.81 -57.2,145.42 -162.09,264.62 -188.32,331.37 -26.22,66.75 26.23,81.04 33.38,133.49 7.15,52.44 -30.99,143.04 -85.83,231.24 -54.82,88.2 -126.34,174.03 -88.2,150.18 38.15,-23.84 185.95,-157.33 293.22,-297.98 107.27,-140.65 174.03,-288.45 219.32,-431.48 45.29,-143.04 69.13,-281.3 83.44,-352.82 14.3,-71.52 19.07,-76.28 35.76,-104.89 16.69,-28.61 45.29,-81.05 76.28,-38.14 30.99,42.91 64.36,181.17 85.82,309.9 21.45,128.73 30.99,247.93 40.53,367.12 9.53,119.19 19.06,238.39 -7.17,343.28 -26.21,104.89 -88.2,195.48 -128.72,185.94 -40.53,-9.53 -59.59,-119.19 -109.65,-114.42 -50.07,4.76 -131.12,123.96 -185.55,115.61 -54.44,-8.34 -82.24,-144.22 -119.1,-185.85 -36.86,-41.63 -82.74,10.99 -102.21,95.62 -19.47,84.63 -12.52,201.27 -32.88,295.34 -20.36,94.07 -68.03,165.6 -32.28,151.29 35.76,-14.3 154.96,-114.43 193.09,-126.35 38.15,-11.92 -4.76,64.37 16.69,73.9 21.46,9.54 107.28,-47.68 135.88,-42.91 28.61,4.77 0.01,71.52 -38.13,135.88 -38.15,64.37 -85.82,126.35 -109.66,185.95 -23.84,59.6 -23.84,116.81 30.98,81.05 54.83,-35.75 164.5,-164.49 176.42,-157.34 11.92,7.15 -73.9,150.19 -78.67,205.01 -4.77,54.83 71.52,21.47 85.81,35.77 14.31,14.3 -33.36,76.28 -66.74,159.71 -33.38,83.44 -52.45,188.33 -59.6,250.31 -7.15,61.99 -2.39,81.06 57.21,45.3 59.6,-35.75 174.03,-126.35 216.94,-126.35 42.91,0 14.3,90.6 -33.38,171.64 -47.67,81.05 -114.43,152.57 -216.93,224.09 -102.51,71.51 -240.77,143.03 -312.29,228.85 -71.52,85.82 -76.28,185.95 -88.2,152.57 -11.92,-33.38 -31,-200.24 -47.69,-307.53 -16.68,-107.27 -30.98,-154.94 -21.44,-214.54 9.53,-59.6 42.9,-131.12 23.83,-162.11 -19.07,-30.98 -90.59,-21.46 -157.34,-2.38 -66.74,19.07 -128.72,47.68 -152.56,38.14 -23.84,-9.53 -9.54,-57.21 -14.31,-100.12 -4.76,-42.91 -28.6,-81.05 -4.76,-138.27 23.84,-57.2 95.35,-133.49 83.43,-157.33 -11.91,-23.84 -107.27,4.76 -164.49,4.76 -57.21,0 -76.28,-28.6 -76.28,-78.66 0,-50.07 19.07,-121.58 14.3,-157.34 -4.77,-35.76 -33.37,-35.76 -54.83,-66.75 -21.46,-30.99 -35.75,-92.97 -42.91,-135.88 -7.15,-42.91 -7.15,-66.75 -16.68,-57.21 -9.54,9.53 -28.61,52.44 -33.38,21.45 -4.77,-30.99 4.77,-135.88 -11.92,-219.32 -16.69,-83.43 -59.59,-145.41 -81.05,-159.71 -21.46,-14.31 -21.46,19.06 4.77,-21.47 26.22,-40.52 78.66,-154.94 97.74,-250.3 19.07,-95.35 4.76,-171.64 -14.31,-207.4 -19.07,-35.75 -42.9,-30.99 -64.36,-40.53 -21.46,-9.54 -40.53,-33.37 -30.99,-88.2 9.53,-54.83 47.67,-140.65 116.8,-174.03 69.14,-33.37 169.27,-14.3 245.55,-23.84z"/>
   <path class="fil2" d="M4908.65 13455.35c85.82,-107.27 200.25,-216.93 307.52,-281.29 107.27,-64.37 207.4,-83.44 262.23,-100.13 54.83,-16.69 64.37,-30.99 47.68,28.61 -16.69,59.59 -59.6,193.09 -88.2,302.75 -28.61,109.65 -42.92,195.48 -11.92,176.41 30.98,-19.08 107.27,-143.04 140.65,-147.8 33.36,-4.77 23.84,109.66 45.29,150.19 21.45,40.52 73.9,7.14 112.04,47.67 38.14,40.52 61.98,154.96 104.89,174.42 42.91,19.45 104.89,-56.05 147.81,-13.14 42.9,42.91 66.74,204.23 103.77,204.92 37.01,0.68 87.22,-159.28 135.93,-116.25 48.7,43.03 95.91,289.04 122.86,483.44 26.94,194.4 33.63,337.17 -34.14,513.47 -67.79,176.29 -210.02,386.09 -279.48,558.28 -69.45,172.18 -66.11,306.77 -85.18,287.7 -19.08,-19.08 -60.55,-191.8 -97.98,-285.31 -37.43,-93.51 -70.8,-107.82 -61.96,-207.37 8.84,-99.55 59.9,-284.36 100.43,-420.25 40.52,-135.88 70.52,-222.83 16.38,-240.09 -54.13,-17.25 -192.4,35.19 -282.98,82.87 -90.6,47.68 -133.5,90.58 -150.19,42.91 -16.69,-47.68 -7.15,-185.95 -38.14,-219.32 -31,-33.38 -102.51,38.14 -169.25,35.76 -66.76,-2.39 -128.74,-78.67 -181.18,-121.58 -52.45,-42.91 -95.36,-52.45 -123.96,-131.11 -28.61,-78.68 -42.92,-226.47 -81.06,-319.44 -38.15,-92.98 -100.12,-131.11 -102.51,-202.63 -2.38,-71.52 54.83,-176.42 140.65,-283.69z"/>
   <path class="fil2" d="M4911 10651.91c-11.92,50.06 107.28,-16.69 209.79,-92.97 102.51,-76.29 188.32,-162.11 200.24,-212.17 11.92,-50.06 -50.05,-64.36 -152.56,11.93 -102.51,76.28 -245.55,243.15 -257.47,293.21z"/>
   <path class="fil2" d="M4728.24 10881.57c112.83,-87.42 252.7,-205.02 341.46,-279.63 88.77,-74.62 126.45,-106.24 70.83,-93.92 -55.63,12.31 -204.57,68.57 -328.29,136.42 -123.73,67.84 -222.25,147.28 -315.21,218 -92.97,70.71 -180.37,132.68 -188.32,168.06 -7.95,35.37 63.54,44.13 142.21,19.91 78.65,-24.23 164.48,-81.44 277.32,-168.84z"/>
   <path class="fil2" d="M5466.44 9550.56c112.04,-64.37 224.08,-116.82 281.3,-125.15 57.2,-8.35 59.59,27.4 22.64,87.01 -36.95,59.59 -113.24,143.03 -215.74,199.05 -102.51,56.02 -231.24,84.62 -306.33,89.39 -75.09,4.77 -96.55,-14.3 -51.25,-61.98 45.28,-47.68 157.33,-123.96 269.38,-188.32z"/>
   <path class="fil2" d="M7725.18 14634.2c67.94,-77.47 148.99,-179.99 200.92,-273.81 51.93,-93.84 74.74,-178.99 46.14,-262.43 -28.61,-83.44 -108.64,-165.15 -152.23,-275.14 -43.58,-109.99 -50.73,-248.26 -42.39,-387.72 8.35,-139.45 32.19,-280.1 60.79,-432.67 28.61,-152.57 61.98,-317.05 131.12,-445.78 69.13,-128.73 174.02,-221.71 250.31,-297.99 76.28,-76.29 123.95,-135.88 151.37,-127.54 27.41,8.34 34.56,84.63 64.36,184.75 29.81,100.12 82.25,224.08 118.01,293.22 35.76,69.13 54.82,83.43 38.14,17.88 -16.69,-65.56 -69.14,-210.97 -97.74,-313.47 -28.6,-102.52 -33.37,-162.11 -19.07,-212.18 14.31,-50.06 47.67,-90.58 96.55,-137.07 48.87,-46.49 113.23,-98.93 165.68,-126.35 52.45,-27.41 92.97,-29.8 87.01,13.12 -5.96,42.9 -58.4,131.11 -85.82,245.54 -27.42,114.42 -29.8,255.07 -17.88,374.27 11.92,119.19 38.14,216.93 91.78,315.86 53.63,98.93 134.69,199.06 324.21,280.11 189.52,81.05 487.5,143.03 657.95,184.75 170.45,41.72 213.35,63.17 234.81,87.01 21.45,23.84 21.45,50.06 15.49,83.44 -5.96,33.38 -17.87,73.9 -39.32,114.42 -21.46,40.53 -52.45,81.05 -59.2,113.63 -6.75,32.56 10.74,57.17 73.92,30.95 63.18,-26.22 172.02,-103.28 228.84,-153.72 56.81,-50.46 61.57,-74.3 46.07,-93.37 -15.49,-19.07 -51.25,-33.37 -95.35,-54.82 -44.11,-21.46 -96.55,-50.07 -131.12,-85.83 -34.56,-35.76 -51.24,-78.66 -19.06,-177.59 32.18,-98.94 113.23,-253.89 175.22,-377.85 61.98,-123.96 104.88,-216.94 119.18,-315.87 14.31,-98.93 0,-203.82 -16.68,-302.75 -16.69,-98.92 -35.76,-191.9 -56.02,-270.57 -20.27,-78.66 -41.72,-143.03 -59.6,-159.71 -17.88,-16.69 -32.18,14.29 -48.87,23.83 -16.68,9.54 -35.76,-2.38 -56.02,-63.17 -20.27,-60.79 -41.71,-170.45 -117.99,-252.69 -76.29,-82.25 -207.41,-137.07 -228.86,-152.57 -21.46,-15.5 66.75,8.34 127.54,58.4 60.79,50.07 94.15,126.35 106.08,188.33 11.92,61.98 2.38,109.66 -32.19,112.04 -34.57,2.38 -94.16,-40.53 -171.63,-87.01 -77.49,-46.48 -172.84,-96.55 -209.78,-103.69 -36.96,-7.16 -15.51,28.6 -40.53,54.82 -25.03,26.23 -96.55,42.91 -165.68,63.17 -69.14,20.26 -135.89,44.1 -200.25,63.18 -64.37,19.07 -126.35,33.37 -170.45,57.21 -44.1,23.84 -70.33,57.21 -106.09,76.29 -35.76,19.07 -81.05,23.84 -128.72,7.15 -47.68,-16.69 -97.74,-54.83 -127.54,-90.59 -29.8,-35.76 -39.33,-69.14 -10.72,-154.95 28.6,-85.83 95.35,-224.09 144.22,-293.21 48.87,-69.14 79.85,-69.14 141.84,-141.85 61.97,-72.71 154.95,-218.13 222.89,-319.44 67.94,-101.32 110.85,-158.53 133.49,-224.08 22.65,-65.57 25.04,-139.47 -19.06,-145.42 -44.1,-5.96 -134.7,56.01 -227.67,151.38 -92.97,95.35 -188.32,224.08 -294.4,376.65 -106.08,152.56 -222.9,328.97 -314.68,456.51 -91.77,127.54 -158.53,206.2 -208.58,292.03 -50.07,85.82 -83.44,178.78 -153.76,295.59 -70.33,116.81 -177.61,257.46 -252.7,393.35 -75.1,135.88 -118,266.99 -170.44,435.06 -52.45,168.06 -114.43,373.08 -145.42,533.99 -30.99,160.91 -30.99,277.72 -1.19,334.93 29.79,57.21 89.39,54.83 152.57,89.4 63.17,34.56 129.91,106.08 183.55,169.25 53.64,63.17 94.17,118.01 114.43,156.15 20.26,38.14 20.26,59.59 -26.22,33.38 -46.49,-26.23 -139.46,-100.13 -214.55,-154.96 -75.1,-54.83 -132.31,-90.59 -176.41,-126.35 -44.11,-35.76 -75.09,-71.51 -91.78,-46.48 -16.69,25.02 -19.07,110.85 -23.84,201.43 -4.77,90.59 -11.92,185.95 -42.91,276.53 -31,90.59 -85.82,176.42 -115.62,256.27 -29.8,79.86 -34.57,153.76 -4.77,210.98 29.8,57.21 94.16,97.73 151.38,114.42 57.22,16.69 107.27,9.54 159.72,-20.26 52.45,-29.8 107.28,-82.25 175.22,-159.72z"/>
   <path class="fil2" d="M10682.39 8530.28c78.67,92.97 174.03,221.7 295.61,288.45 121.57,66.75 269.37,71.52 410.02,57.21 140.65,-14.3 274.14,-47.68 395.72,-69.13 121.58,-21.46 231.25,-30.99 324.22,-69.13 92.96,-38.15 169.25,-104.89 230.87,-149.02 61.63,-44.13 108.6,-65.64 56.15,-91.86 -52.44,-26.22 -204.31,-57.16 -366.05,-94.09 -161.75,-36.93 -333.39,-79.83 -481.99,-130.89 -148.62,-51.07 -274.19,-110.27 -400.54,-105.5 -126.34,4.77 -253.46,73.51 -364.69,110.26 -111.24,36.76 -206.6,41.53 -223.28,72.52 -16.69,31 45.29,88.2 123.96,181.18z"/>
   <path class="fil2" d="M13345.18 15748.71c66.75,-11.93 152.58,-7.16 233.63,19.07 81.05,26.21 157.34,73.89 221.7,104.89 64.37,30.98 116.81,45.29 205.01,40.52 88.21,-4.77 212.17,-28.6 343.28,-83.43 131.12,-54.83 269.38,-140.66 362.35,-219.32 92.98,-78.67 140.65,-150.19 176.41,-188.33 35.76,-38.15 59.6,-42.91 76.29,0 16.69,42.9 26.22,133.5 -11.93,207.4 -38.13,73.9 -123.96,131.11 -138.26,162.1 -14.3,30.99 42.91,35.76 61.98,81.06 19.08,45.29 0,131.11 -28.61,231.23 -28.6,100.12 -66.74,214.55 -140.65,328.97 -73.89,114.43 -183.55,228.86 -305.13,314.68 -121.58,85.82 -255.07,143.04 -376.65,183.56 -121.58,40.52 -231.24,64.36 -281.31,102.51 -50.06,38.14 -40.52,90.58 -11.91,123.96 28.61,33.38 76.28,47.67 171.63,59.59 95.36,11.92 238.4,21.46 352.82,33.38 114.43,11.92 200.25,26.22 267,59.6 66.75,33.38 114.43,85.82 162.11,116.81 47.68,30.99 95.35,40.52 104.89,-38.15 9.53,-78.67 -19.08,-245.53 16.68,-412.41 35.76,-166.87 135.89,-333.74 247.93,-526.84 112.04,-193.09 236,-412.41 357.58,-626.96 121.58,-214.55 240.78,-424.33 340.9,-591.2 100.12,-166.87 181.18,-290.83 259.84,-481.54 78.67,-190.72 154.96,-448.18 231.24,-629.35 76.28,-181.18 152.57,-286.07 236.41,-292.44 83.84,-6.36 175.24,85.79 265.83,204.98 90.58,119.19 180.36,265.43 261.01,381.45 80.64,116.03 152.16,201.85 125.15,147.9 -27.01,-53.95 -152.55,-247.67 -274.12,-433.61 -121.58,-185.94 -239.2,-364.11 -329.01,-486.56 -89.8,-122.46 -151.77,-189.21 -270.98,-260.73 -119.19,-71.52 -295.59,-147.8 -481.54,-185.94 -185.94,-38.15 -381.42,-38.15 -488.69,-47.68 -107.28,-9.54 -126.35,-28.6 -28.61,-40.52 97.74,-11.92 312.29,-16.69 481.54,4.76 169.26,21.46 293.23,69.13 412.42,133.5 119.2,64.36 233.62,145.42 271.76,133.5 38.14,-11.92 0.01,-116.82 -28.6,-207.4 -28.61,-90.59 -47.68,-166.88 -23.84,-221.7 23.84,-54.84 90.58,-88.2 78.66,-154.95 -11.91,-66.75 -102.5,-166.88 -121.57,-255.08 -19.07,-88.2 33.37,-164.49 52.44,-236.01 19.08,-71.52 4.77,-138.26 33.35,-219.08 28.58,-80.83 100.06,-175.74 65.49,-269.69 -34.56,-93.95 -175.13,-186.95 -293.09,-295.38 -117.94,-108.42 -213.26,-232.26 -275.08,-316.27 -61.83,-84 -90.15,-128.15 -77.07,-70.01 13.08,58.13 67.58,218.55 63.83,320.22 -3.74,101.67 -65.72,144.58 -84.79,182.72 -19.07,38.15 4.76,71.52 -7.16,114.43 -11.92,42.91 -59.59,95.35 -73.89,123.96 -14.31,28.61 4.77,33.38 -57.22,57.22 -61.98,23.84 -205.01,66.74 -205.01,73.9 0,7.15 143.03,-21.46 188.32,-7.16 45.3,14.31 -7.14,71.52 -35.75,109.66 -28.61,38.15 -33.38,57.22 -92.98,85.83 -59.59,28.6 -174.02,66.74 -147.79,66.74 26.22,0 193.09,-38.14 283.67,-30.98 90.6,7.14 104.89,59.59 76.29,100.12 -28.61,40.52 -100.13,69.13 -207.4,78.66 -107.27,9.54 -250.31,0 -331.36,28.61 -81.05,28.6 -100.12,95.35 -11.92,92.97 88.2,-2.38 283.69,-73.9 319.44,-66.75 35.76,7.15 -88.2,92.98 -243.16,157.34 -154.95,64.37 -340.89,107.27 -441.02,174.02 -100.12,66.75 -114.42,157.34 -4.76,152.57 109.66,-4.77 343.28,-104.89 328.97,-112.05 -14.3,-7.15 -276.53,78.68 -364.74,143.05 -88.2,64.36 -2.37,107.26 35.76,145.41 38.15,38.14 28.62,71.52 11.93,133.5 -16.69,61.98 -40.53,152.57 11.91,240.77 52.45,88.2 181.18,174.03 297.99,238.4 116.81,64.36 221.71,107.26 233.63,109.65 11.92,2.38 -69.14,-35.75 -64.37,0.01 4.77,35.75 95.36,145.41 45.3,147.79 -50.07,2.38 -240.77,-102.51 -390.96,-162.11 -150.19,-59.6 -259.85,-73.89 -367.13,-64.36 -107.27,9.54 -212.16,42.91 -336.12,102.51 -123.96,59.59 -267,145.42 -393.34,207.4 -126.35,61.98 -236,100.11 -328.98,114.42 -92.97,14.3 -169.25,4.77 -250.63,-16.82 -81.39,-21.59 -167.85,-55.21 -244.14,-26.6 -76.28,28.6 -142.38,119.45 -170.66,300.76 -28.28,181.3 -18.74,453.06 -11.24,695.07 7.5,242.01 12.96,454.27 72.55,618.76 59.6,164.48 173.34,281.2 280.26,377.71 106.93,96.5 207.06,172.78 276.19,258.6 69.13,85.82 107.27,181.18 135.88,240.77 28.61,59.6 47.67,83.44 85.81,81.06 38.15,-2.39 95.36,-30.99 78.67,-88.2 -16.68,-57.21 -107.27,-143.04 -176.41,-216.94 -69.13,-73.9 -116.8,-135.88 -169.25,-195.48 -52.45,-59.6 -109.66,-116.81 -154.96,-183.55 -45.29,-66.76 -78.66,-143.05 -71.51,-195.49 7.15,-52.44 54.83,-81.04 121.57,-92.96z"/>
   <path class="fil2" d="M16861.41 14716.47c21.45,23.83 73.89,219.31 95.35,367.11 21.46,147.8 11.92,247.93 7.15,297.99 -4.77,50.06 -4.77,50.06 -21.45,-23.84 -16.69,-73.9 -50.06,-221.7 -71.52,-369.5 -21.45,-147.8 -30.99,-295.6 -9.53,-271.76z"/>
   <path class="fil2" d="M16580.11 14544.82c26.22,104.89 45.29,224.09 50.06,352.82 4.77,128.73 -4.77,266.99 -42.91,386.19 -38.15,119.19 -104.89,219.32 -150.19,207.4 -45.29,-11.92 -69.13,-135.88 -76.28,-233.62 -7.15,-97.75 2.39,-169.26 -14.3,-157.34 -16.69,11.91 -59.6,107.28 -85.82,245.54 -26.22,138.27 -35.76,319.44 -45.3,424.34 -9.53,104.88 -19.07,133.48 -21.45,71.51 -2.39,-61.99 2.38,-214.55 19.07,-362.35 16.69,-147.8 45.29,-290.84 69.13,-398.11 23.84,-107.27 42.91,-178.8 59.6,-145.42 16.69,33.38 30.98,171.64 57.21,159.72 26.22,-11.92 64.37,-174.02 81.06,-338.51 16.68,-164.49 11.92,-331.36 26.22,-369.5 14.3,-38.15 47.67,52.44 73.9,157.33z"/>
   <path class="fil2" d="M16007.46 15870.22c40.01,9.49 115.25,-100.26 129.56,-245.68 14.3,-145.42 -32.34,-326.5 -58.05,-350.29 -25.7,-23.79 -30.47,109.71 -42.39,200.29 -11.92,90.59 -30.99,138.27 -45.29,128.73 -14.3,-9.54 -23.84,-76.29 -30.99,-147.8 -7.15,-71.51 -11.92,-147.8 -35.76,-121.58 -23.84,26.23 -66.75,154.96 -100.18,264.09 -33.43,109.13 -57.36,198.66 -40.68,203.43 16.69,4.76 74.01,-75.23 109.82,-122.38 35.81,-47.15 50.11,-61.46 59.65,-4.24 9.53,57.21 14.3,185.94 54.31,195.43z"/>
   <path class="fil2" d="M15040.1 17863.22c50.07,95.35 97.74,333.74 147.8,533.99 50.07,200.25 102.51,362.35 147.81,500.61 45.29,138.27 83.43,252.69 81.04,169.25 -2.38,-83.43 -45.28,-364.72 -52.44,-522.06 -7.15,-157.34 21.45,-190.71 16.68,-126.35 -4.76,64.37 -42.9,226.47 -23.84,390.96 19.08,164.49 95.36,331.36 162.11,407.64 66.75,76.29 123.96,61.98 183.56,114.42 59.6,52.45 121.58,171.65 142.18,299.85 20.6,128.19 -0.18,265.39 36.47,355.99 36.65,90.6 130.74,134.62 96.21,134.89 -34.52,0.27 -197.65,-43.18 -326.24,-41.72 -128.57,1.47 -222.59,47.88 -300.21,132.54 -77.62,84.67 -138.85,207.6 -154.2,339.61 -15.35,132.01 15.18,273.11 56.75,366.38 41.57,93.27 94.19,138.72 120.5,161.44 26.31,22.73 26.31,22.73 -80.51,85.94 -106.81,63.21 -320.45,189.65 -531.46,302.5 -211,112.85 -419.39,212.14 -588.08,287.18 -168.7,75.04 -297.69,125.85 -362.2,151.25 -64.5,25.41 -64.5,25.41 -64.21,-66.22 0.3,-91.61 0.87,-274.86 -22.98,-406.81 -23.85,-131.94 -72.13,-212.6 -144.85,-317.07 -72.72,-104.46 -169.89,-232.73 -275.8,-400.54 -105.91,-167.81 -220.57,-375.14 -290.68,-554.99 -70.1,-179.86 -95.66,-332.24 -83.82,-441.4 11.84,-109.15 61.09,-175.08 76.17,-293.87 15.08,-118.78 -3.98,-290.41 44.53,-458.87 48.51,-168.45 164.59,-333.73 326.69,-445.77 162.11,-112.04 370.23,-170.86 521.97,-295.62 151.73,-124.77 247.09,-315.47 390.13,-410.84 143.03,-95.35 333.74,-95.35 441.01,-71.51 107.28,23.84 131.12,71.51 169.26,71.51 38.15,0 90.59,-47.67 140.65,47.69z"/>
   <path class="fil3" d="M13189.87 15373.85c107.58,10.11 222.01,76.86 355.5,148.37 133.5,71.51 286.07,147.8 390.96,119.2 104.89,-28.61 162.11,-162.11 293.22,-379.04 131.12,-216.94 336.13,-517.31 412.41,-700.86 76.29,-183.56 23.85,-250.32 -45.29,-305.14 -69.13,-54.83 -154.95,-97.74 -245.76,-142.88 -90.8,-45.15 -186.59,-92.54 -343.1,-78.93 -156.5,13.6 -373.73,88.18 -535.62,176.24 -161.89,88.05 -268.44,189.58 -361.11,264.23 -92.66,74.64 -171.44,122.4 -210.97,191.52 -39.52,69.11 -39.8,159.57 -37.41,281.04 2.39,121.48 7.43,273.96 10.9,363.99 3.46,90.04 5.34,117.63 56.65,108.16 51.31,-9.47 152.04,-56.01 259.62,-45.9z"/>
   <path class="fil3" d="M16155.73 13715.24c-16.69,119.19 -64.36,309.9 -128.73,500.61 -64.36,190.72 -145.42,381.42 -193.87,550.68 -48.46,169.26 -64.34,317.07 -129.09,489.51 -64.75,172.43 -178.39,369.5 -264.88,520.35 -86.48,150.85 -145.83,255.49 -218.16,206.23 -72.32,-49.27 -157.62,-252.44 -134.71,-393.75 22.91,-141.32 154.02,-220.79 252.96,-327.28 98.94,-106.49 165.68,-239.98 208.59,-347.26 42.92,-107.27 61.98,-188.33 92.97,-262.22 31,-73.91 73.9,-140.65 83.44,-190.72 9.53,-50.06 -14.3,-83.43 -2.38,-119.19 11.92,-35.76 59.59,-73.9 83.43,-135.88 23.84,-61.98 23.84,-147.81 4.77,-216.94 -19.07,-69.13 -57.21,-121.57 -30.99,-157.33 26.22,-35.77 116.82,-54.84 169.26,-109.66 52.45,-54.83 66.74,-145.42 92.97,-188.32 26.22,-42.92 64.36,-38.16 90.58,-11.93 26.23,26.22 40.53,73.89 23.84,193.1z"/>
   <path class="fil3" d="M14647.9 17071.77c-10.73,-45.29 -36.94,-95.35 -75.09,-121.58 -38.14,-26.22 -88.2,-28.6 -113.23,5.96 -25.03,34.56 -25.03,106.09 -32.13,164.43 -7.09,58.34 -21.26,103.51 7.32,142.13 28.58,38.61 99.92,70.67 148.74,96.95 48.82,26.29 75.13,46.79 82.31,18.91 7.17,-27.89 -4.78,-104.17 -8.37,-162.58 -3.59,-58.4 1.18,-98.92 -9.55,-144.22z"/>
   <path class="fil3" d="M15165.85 19504.92c-46.92,-141.74 -88.76,-319.59 -149.5,-429.94 -60.74,-110.35 -140.38,-153.21 -164.22,-253.33 -23.84,-100.12 8.12,-257.52 9.8,-350.52 1.68,-93 -26.92,-121.6 -53.15,-114.44 -26.22,7.15 -50.05,50.05 -88.2,16.68 -38.14,-33.37 -90.58,-143.04 -119.19,-166.88 -28.61,-23.83 -33.38,38.15 -64.37,23.84 -30.99,-14.29 -88.2,-104.89 -119.96,-61.2 -31.77,43.68 -38.08,221.63 -2.31,378.97 35.76,157.34 113.58,294.05 135.83,294.85 22.25,0.79 -11.08,-134.33 -56.37,-227.31 -45.29,-92.97 -102.56,-143.78 -259.92,-138.19 -157.36,5.58 -414.82,67.56 -633.98,189.06 -219.17,121.51 -400.05,302.53 -440.58,495.62 -40.53,193.1 59.3,398.27 142.59,555.68 83.28,157.41 150.03,267.07 190.56,350.5 40.53,83.44 54.83,140.65 73.9,157.34 19.07,16.69 42.91,-7.14 81.05,23.84 38.15,30.99 90.59,116.82 147.8,207.4 57.21,90.59 119.2,185.94 178.79,274.14 59.6,88.21 116.81,169.26 157.56,258.95 40.75,89.69 65.02,188.01 83.16,306.62 18.13,118.61 30.1,257.5 36.1,326.95 5.99,69.45 5.99,69.45 102.61,25.33 96.62,-44.11 289.86,-132.35 418.6,-194.4 128.74,-62.04 192.98,-97.91 225.1,-115.83 32.13,-17.93 32.13,-17.93 -21.77,-91.18 -53.9,-73.25 -161.7,-219.75 -222.75,-343.07 -61.06,-123.3 -75.36,-223.42 -72.98,-314.01 2.39,-90.58 21.46,-171.64 82.77,-188.98 61.32,-17.34 164.87,29.05 209.94,88.21 45.07,59.16 31.66,131.11 67.79,113.5 36.14,-17.6 121.83,-124.77 191.87,-226.45 70.05,-101.67 124.46,-197.87 185.92,-253.77 61.48,-55.9 130.01,-71.52 188.92,-70.6 58.91,0.93 108.19,18.4 116.13,-12.33 7.96,-30.73 -25.41,-109.66 -100.07,-148.04 -74.66,-38.38 -190.6,-36.2 -248.57,-35.11 -57.97,1.09 -57.97,1.09 -83.98,-51.73 -25.99,-52.81 -78,-158.44 -124.92,-300.17z"/>
   <path class="fil3" d="M7571.4 13996.45c-14.46,64.46 -33.52,159.82 -52.59,221.81 -19.07,61.98 -38.15,90.58 -50.07,126.34 -11.92,35.76 -16.69,78.66 -9.53,125.15 7.15,46.49 26.22,96.55 59.6,108.47 33.37,11.92 81.05,-14.3 118,-48.87 36.95,-34.57 63.17,-77.47 90.58,-114.42 27.42,-36.96 56.03,-67.95 75.1,-108.47 19.07,-40.53 28.6,-90.59 11.91,-133.5 -16.68,-42.91 -59.59,-78.67 -84,-118.4 -24.41,-39.75 -30.31,-83.46 -48.03,-115.75 -17.73,-32.29 -47.28,-53.15 -62.05,-63.58 -14.78,-10.43 -14.78,-10.43 -19.7,6.36 -4.92,16.79 -14.76,50.38 -29.22,114.86z"/>
   <path class="fil4" d="M4689.26 18852.44c47.56,-142.94 104.77,-333.66 200.13,-443.31 95.36,-109.66 228.86,-138.27 405.27,-157.34 176.4,-19.07 395.71,-28.6 562.59,-157.33 166.86,-128.73 281.3,-376.66 309.91,-514.93 28.6,-138.26 -28.61,-166.87 -176.41,-152.56 -147.81,14.3 -386.19,71.51 -457.71,42.9 -71.52,-28.6 23.84,-143.03 166.87,-276.53 143.03,-133.5 333.74,-286.06 467.24,-429.09 133.5,-143.04 209.79,-276.53 309.91,-381.42 100.12,-104.89 224.08,-181.18 328.98,-257.46 104.89,-76.28 190.7,-152.57 266.99,-243.16 76.28,-90.58 143.04,-195.48 247.93,-247.92 104.89,-52.45 247.92,-52.45 376.65,9.53 128.73,61.98 243.16,185.94 343.28,300.37 100.12,114.42 185.94,219.32 205.02,152.58 19.06,-66.76 -28.61,-305.15 -71.53,-481.55 -42.91,-176.42 -81.04,-290.84 -71.51,-381.43 9.54,-90.59 66.75,-157.33 133.5,-219.31 66.74,-61.99 143.03,-119.2 195.48,-181.18 52.44,-61.98 81.04,-128.73 162.1,-200.24 81.05,-71.52 214.55,-147.81 238.39,-209.79 23.84,-61.98 -61.99,-109.66 -66.75,-166.87 -4.76,-57.21 71.52,-123.97 238.39,-181.17 166.88,-57.22 424.33,-104.89 653.19,-181.18 228.85,-76.28 429.1,-181.18 624.58,-300.38 195.48,-119.19 386.18,-252.69 543.52,-376.65 157.34,-123.96 281.3,-238.39 338.52,-448.17 57.21,-209.78 47.67,-514.91 61.97,-786.68 14.31,-271.76 52.45,-510.15 76.29,-724.7 23.84,-214.55 33.37,-405.26 52.44,-472 19.08,-66.76 47.68,-9.55 90.59,-95.37 42.91,-85.81 100.12,-314.67 133.5,-390.95 33.37,-76.29 42.91,0 104.9,-42.92 61.97,-42.91 176.4,-205.01 219.31,-224.08 42.9,-19.07 14.3,104.89 71.52,19.07 57.21,-85.82 200.24,-381.42 271.75,-486.31 71.52,-104.89 71.52,-19.07 143.03,-42.91 71.52,-23.84 214.56,-157.34 286.07,-200.24 71.52,-42.92 71.52,4.76 119.19,-14.31 47.69,-19.07 143.05,-104.89 195.49,-119.19 52.45,-14.3 61.98,42.9 133.5,19.07 71.52,-23.84 205.01,-128.74 281.3,-138.27 76.28,-9.54 95.35,76.29 138.26,133.5 42.91,57.21 109.66,85.82 181.17,114.43 71.52,28.61 147.81,57.21 181.18,152.57 33.38,95.35 23.84,257.45 47.68,324.2 23.84,66.75 81.05,38.15 162.1,0 81.06,-38.14 185.95,-85.81 309.92,-47.67 123.96,38.14 266.98,162.1 433.86,290.83 166.87,128.73 357.58,262.23 481.54,443.41 123.97,181.17 181.18,410.03 190.72,572.13 9.53,162.1 -28.61,257.45 -42.92,319.44 -14.3,61.98 -4.76,90.58 -66.75,152.57 -61.98,61.98 -195.47,157.33 -238.39,214.55 -42.9,57.2 4.77,76.28 -9.53,114.42 -14.3,38.15 -90.59,95.35 -119.2,143.04 -28.6,47.68 -9.53,85.81 -52.45,119.19 -42.9,33.38 -147.79,61.98 -200.24,104.89 -52.44,42.91 -52.44,100.12 -85.82,152.57 -33.37,52.45 -100.12,100.12 -104.88,147.8 -4.77,47.68 52.44,95.35 38.13,143.04 -14.29,47.67 -100.12,95.35 -109.66,133.49 -9.52,38.14 57.22,66.75 -33.36,100.12 -90.59,33.38 -338.52,71.52 -538.77,162.11 -200.25,90.59 -352.81,233.62 -491.07,367.12 -138.27,133.5 -262.23,257.46 -376.66,429.1 -114.42,171.63 -219.32,390.96 -281.3,586.44 -61.98,195.48 -81.05,367.11 -61.98,567.36 19.07,200.24 76.28,429.09 119.19,629.35 42.91,200.24 71.52,371.87 104.89,576.89 33.38,205.01 71.52,443.41 19.07,710.4 -52.44,267 -195.47,562.6 -309.9,743.77 -114.42,181.18 -200.25,247.93 -157.33,195.48 42.91,-52.45 214.54,-224.08 352.81,-348.05 138.26,-123.96 243.15,-200.25 390.96,-233.62 147.8,-33.37 338.5,-23.84 462.47,-28.6 123.97,-4.77 181.18,-23.84 286.11,-25 104.95,-1.15 257.61,15.61 367.27,115.74 109.66,100.12 176.31,283.61 185.8,475.47 9.48,191.86 -38.19,392.11 -85.87,573.28 -47.68,181.18 -95.35,343.28 -133.5,381.42 -38.14,38.15 -66.74,-47.68 -90.58,-61.98 -23.84,-14.3 -42.91,42.91 -128.74,23.84 -85.82,-19.06 -238.38,-114.43 -343.28,-90.59 -104.89,23.84 -162.09,166.88 -224.08,214.55 -61.98,47.68 -128.73,0.01 -181.18,66.75 -52.45,66.76 -90.58,247.93 -171.64,295.61 -81.05,47.68 -205.01,-38.15 -267,-9.54 -61.97,28.61 -61.97,171.64 -61.97,314.67 0,143.04 0,286.07 14.3,438.64 14.3,152.57 42.91,314.67 128.72,462.47 85.83,147.8 228.86,281.3 367.13,462.47 138.26,181.18 271.76,410.04 336.29,588.57 64.54,178.53 60.11,306.74 57.9,370.84 -2.21,64.11 -2.21,64.11 -93.67,94.29 -91.45,30.18 -274.35,90.52 -460.08,144.35 -185.73,53.84 -374.28,101.14 -612.72,147.24 -238.42,46.11 -526.73,91.01 -743.49,118.77 -216.76,27.76 -361.96,38.36 -564.45,43.43 -202.49,5.08 -462.25,4.61 -726.26,-9.03 -264.01,-13.63 -532.27,-40.44 -726.67,-64.38 -194.41,-23.93 -314.95,-44.97 -508.69,-89.24 -193.75,-44.27 -460.69,-111.76 -707.69,-186.3 -247.01,-74.53 -474.09,-156.13 -701.47,-250.19 -227.39,-94.06 -455.08,-200.59 -659.04,-305.9 -203.95,-105.31 -384.17,-209.4 -671.78,-413.37 -287.63,-203.97 -682.65,-507.81 -985.66,-769.45 -303,-261.65 -513.99,-481.09 -676.41,-661.89 -162.43,-180.8 -276.28,-322.95 -333.21,-394.02 -56.92,-71.08 -56.92,-71.08 -37.96,-118.68 18.95,-47.59 56.88,-142.77 104.45,-285.73z"/>
   <path class="fil5" d="M10720.35 21446.15c147.79,-219.31 357.58,-524.44 481.54,-753.3 123.96,-228.85 162.1,-381.42 109.66,-386.19 -52.45,-4.77 -195.48,138.26 -171.63,90.58 23.83,-47.67 214.54,-286.07 209.77,-476.78 -4.76,-190.71 -205.02,-333.73 -352.81,-343.27 -147.8,-9.53 -243.16,114.43 -433.87,152.56 -190.71,38.15 -476.77,-9.52 -495.85,-33.37 -19.07,-23.84 228.85,-23.84 371.89,-76.28 143.03,-52.44 181.17,-157.34 95.35,-224.1 -85.81,-66.74 -295.6,-95.34 -324.2,-114.41 -28.61,-19.08 123.95,-28.61 143.02,-76.29 19.08,-47.67 -95.35,-133.5 -100.12,-224.09 -4.77,-90.58 100.13,-185.94 252.7,-152.57 152.56,33.38 352.81,195.49 562.59,305.14 209.78,109.66 429.11,166.88 581.68,185.94 152.56,19.08 238.38,0.01 309.9,-90.58 71.52,-90.59 128.73,-252.69 157.33,-424.33 28.61,-171.64 28.61,-352.81 23.85,-481.54 -4.77,-128.73 -14.31,-205.02 50.06,-272.56 64.37,-67.53 202.65,-126.32 349.66,-312.26 147.01,-185.93 302.76,-499.02 328.97,-765.23 26.22,-266.2 -77.09,-485.54 -147.83,-695.32 -70.72,-209.79 -108.86,-410.04 -147,-581.68 -38.15,-171.64 -76.28,-314.67 -147.8,-419.56 -71.52,-104.89 -176.41,-171.64 -127.01,-257.6 49.4,-85.96 253.09,-191.14 315.07,-329.4 61.98,-138.27 -17.74,-309.63 39.34,-454.1 57.09,-144.47 250.99,-262.06 492.56,-453.56 241.57,-191.5 530.82,-456.9 734.23,-698.48 203.42,-241.57 321.02,-459.32 460.08,-599.18 139.06,-139.85 299.59,-201.81 409.24,-406.82 109.66,-205.02 168.46,-553.08 212.16,-822.47 43.7,-269.39 72.3,-460.1 52.44,-650.01 -19.86,-189.91 -88.19,-379.01 -202.61,-460.06 -114.43,-81.06 -274.96,-54.05 -413.45,-88.54 -138.49,-34.49 -254.94,-130.47 -374.13,-187.68 -119.2,-57.21 -241.13,-75.66 -349.78,-123.03 -108.64,-47.37 -204,-123.65 -342.27,-147.49 -138.26,-23.84 -319.43,4.77 -491.08,85.83 -171.64,81.04 -333.74,214.54 -510.15,390.95 -176.4,176.41 -367.12,395.73 -510.14,700.87 -143.04,305.13 -238.4,696.08 -340.1,1042.55 -101.71,346.47 -209.76,648.44 -320.21,874.13 -110.45,225.68 -223.29,375.06 -420.92,540.56 -197.62,165.51 -480.02,347.13 -729.08,475.27 -249.07,128.14 -464.78,202.8 -651.14,265.66 -186.37,62.86 -343.39,113.92 -430.33,172.51 -86.95,58.59 -103.83,124.71 -148.14,207.04 -44.33,82.33 -116.08,180.89 -194.86,279.07 -78.78,98.17 -164.57,195.97 -234.5,359.66 -69.93,163.69 -123.99,393.29 -139.1,588.34 -15.1,195.05 8.74,355.57 20.66,435.83 11.92,80.26 11.92,80.26 -48.52,27.03 -60.44,-53.23 -181.32,-159.68 -303.96,-243.07 -122.66,-83.39 -247.08,-143.72 -403.11,-104.61 -156.03,39.1 -343.67,177.63 -515.83,308.7 -172.16,131.06 -328.84,254.66 -536.7,451.55 -207.86,196.89 -466.91,467.06 -624.24,648.23 -157.34,181.18 -212.97,273.36 -240.77,319.44 -27.82,46.09 -27.82,46.09 73.08,41.35 100.9,-4.74 302.71,-14.21 389.23,51.05 86.52,65.26 57.76,205.24 72.07,343.47 14.31,138.23 71.71,274.7 -5.64,333.19 -77.34,58.5 -289.42,39.02 -480.87,42.52 -191.45,3.51 -362.27,30.01 -498.61,98.2 -136.34,68.2 -238.18,178.08 -302.57,271.51 -64.4,93.43 -91.35,170.4 -122.23,256.51 -30.88,86.1 -65.7,181.35 -83.59,239.7 -17.9,58.36 -18.86,79.84 -19.35,90.57 -0.49,10.74 -0.49,10.74 81.09,109.88 81.57,99.14 244.72,297.43 419.8,482.45 175.08,185.03 362.11,356.8 536.37,508.59 174.25,151.78 335.75,283.58 500.03,411.82 164.27,128.24 331.32,252.93 526.82,384.16 195.49,131.24 419.42,269.04 699.15,411.24 279.74,142.2 615.28,288.8 871.55,392.34 256.28,103.54 433.29,164.01 652.39,223.11 219.11,59.11 480.3,116.85 681.22,156.86 200.92,40.02 341.57,62.31 411.9,73.45 70.32,11.15 70.32,11.15 131.64,-59.59 61.31,-70.73 183.94,-212.22 288.17,-349.71 104.21,-137.48 190.04,-270.97 337.84,-490.3z"/>
   <path class="fil4" d="M12162.59 14423.24c-88.2,-90.6 -216.93,-209.79 -314.66,-305.14 -97.75,-95.36 -164.5,-166.88 -233.62,-181.18 -69.14,-14.31 -140.66,28.6 -205.02,54.82 -64.37,26.23 -121.58,35.76 -197.86,33.38 -76.29,-2.38 -171.64,-16.69 -264.61,-23.84 -92.97,-7.15 -183.57,-7.15 -278.92,-7.15 -95.35,0 -195.48,0 -276.53,-16.69 -81.06,-16.69 -143.04,-50.06 -97.74,-11.91 45.29,38.13 197.86,147.8 345.66,205.02 147.8,57.2 290.84,61.97 376.66,104.89 85.82,42.9 114.42,123.96 121.57,195.47 7.15,71.51 -7.15,133.5 11.92,209.78 19.08,76.28 71.52,166.87 150.19,243.16 78.66,76.28 183.56,138.26 257.47,135.88 73.89,-2.39 116.8,-69.13 183.55,-76.28 66.75,-7.16 157.34,45.28 281.3,92.96 123.96,47.69 281.29,90.59 283.68,69.14 2.38,-21.45 -150.18,-107.28 -205.01,-174.02 -54.83,-66.76 -11.92,-114.43 83.43,-112.05 95.36,2.39 243.16,54.83 278.92,26.23 35.76,-28.61 -40.53,-138.27 -102.52,-224.08 -61.97,-85.83 -109.65,-147.81 -197.86,-238.39z"/>
   <path class="fil6" d="M11681.03 12139.47c73.9,-109.67 169.26,-271.76 219.33,-438.64 50.05,-166.87 54.82,-338.51 81.05,-493.46 26.22,-154.96 73.89,-293.22 176.4,-312.29 102.51,-19.08 259.84,81.04 374.27,169.25 114.43,88.2 185.95,164.49 233.63,195.48 47.68,30.99 71.51,16.69 104.89,69.14 33.37,52.44 76.28,171.63 107.27,257.46 30.99,85.81 50.06,138.25 66.75,123.96 16.69,-14.31 30.99,-95.36 73.9,-114.43 42.91,-19.07 114.42,23.83 162.11,23.83 47.68,0 71.51,-42.9 107.27,-30.98 35.76,11.91 83.43,78.66 150.18,104.89 66.75,26.21 152.58,11.92 219.32,54.83 66.75,42.91 114.43,143.04 128.73,219.32 14.3,76.28 -4.77,128.73 -73.91,162.1 -69.12,33.37 -188.32,47.68 -214.54,88.2 -26.22,40.52 40.53,107.28 38.14,176.41 -2.38,69.13 -73.89,140.65 -73.89,200.25 0,59.6 71.51,107.27 47.67,181.18 -23.83,73.89 -143.04,174.01 -238.39,295.59 -95.35,121.58 -166.87,264.61 -293.22,400.5 -126.35,135.88 -307.52,264.61 -452.93,317.06 -145.42,52.44 -255.08,28.6 -374.27,0 -119.2,-28.61 -247.93,-61.98 -336.13,-92.97 -88.21,-31 -135.88,-59.6 -183.56,-121.58 -47.68,-61.99 -95.35,-157.35 -116.81,-159.73 -21.46,-2.38 -16.69,88.21 -40.53,121.58 -23.84,33.37 -76.28,9.54 -128.73,23.85 -52.45,14.3 -104.89,66.74 -200.24,102.5 -95.36,35.76 -233.63,54.83 -343.29,64.36 -109.65,9.54 -190.71,9.54 -221.7,-28.6 -30.99,-38.14 -11.92,-114.43 61.99,-193.1 73.9,-78.66 202.63,-159.72 300.36,-262.23 97.74,-102.5 164.49,-226.46 224.09,-336.12 59.6,-109.66 112.04,-205.02 166.87,-271.76 54.83,-66.76 112.04,-104.89 123.96,-145.42 11.92,-40.53 -21.45,-83.44 -11.92,-133.5 9.54,-50.06 61.98,-107.27 135.88,-216.93z"/>
   <path class="fil6" d="M8860.88 16637.87c42.91,-30.98 162.1,7.15 245.54,-4.77 83.43,-11.92 131.11,-73.9 183.56,-143.03 52.44,-69.13 109.65,-145.42 147.8,-226.47 38.14,-81.05 57.21,-166.87 73.9,-274.15 16.68,-107.27 30.99,-236 71.52,-352.81 40.52,-116.81 107.27,-221.7 104.89,-297.98 -2.39,-76.29 -73.91,-123.96 -85.82,-169.26 -11.92,-45.3 35.75,-88.2 54.82,-131.11 19.08,-42.92 9.54,-85.82 16.69,-116.81 7.15,-31 30.99,-50.07 83.44,-52.45 52.44,-2.39 133.5,11.92 209.78,-2.39 76.28,-14.3 147.8,-57.2 214.56,-95.35 66.74,-38.14 128.72,-71.52 140.64,-119.19 11.92,-47.68 -26.22,-109.67 -73.9,-133.5 -47.68,-23.84 -104.89,-9.55 -176.4,-11.93 -71.52,-2.38 -157.35,-21.45 -226.48,-52.44 -69.13,-30.99 -121.57,-73.9 -135.88,-40.52 -14.3,33.37 9.54,143.03 -9.53,214.55 -19.08,71.51 -81.05,104.89 -126.35,100.12 -45.3,-4.77 -73.9,-47.67 -104.89,-61.98 -30.99,-14.3 -64.37,-0.01 -119.19,7.15 -54.84,7.15 -131.13,7.15 -209.79,23.84 -78.67,16.68 -159.72,50.06 -231.24,66.75 -71.52,16.69 -133.49,16.69 -195.47,50.06 -61.99,33.37 -123.97,100.12 -183.56,190.71 -59.6,90.59 -116.81,205.01 -171.65,321.82 -54.83,116.81 -107.27,236.01 -119.19,333.75 -11.92,97.74 16.69,174.03 35.76,267 19.07,92.96 28.61,202.62 38.15,290.83 9.53,88.2 19.06,154.95 -16.69,174.02 -35.76,19.07 -116.82,-9.53 -174.03,-73.9 -57.22,-64.36 -90.58,-164.49 -138.26,-224.08 -47.69,-59.6 -109.66,-78.67 -193.1,-71.52 -83.44,7.15 -188.33,40.53 -252.69,100.13 -64.37,59.59 -88.21,145.42 -140.65,193.09 -52.45,47.68 -133.5,57.21 -214.55,69.13 -81.05,11.92 -162.11,26.22 -226.47,52.45 -64.37,26.22 -112.04,64.36 -154.95,109.65 -42.92,45.3 -81.05,97.74 -114.43,121.58 -33.38,23.84 -61.98,19.07 -104.89,59.59 -42.91,40.53 -100.12,126.36 -145.42,195.49 -45.29,69.13 -78.66,121.58 -59.59,162.1 19.06,40.53 90.59,69.13 133.5,107.28 42.9,38.14 57.21,85.81 64.36,128.73 7.15,42.91 7.15,81.05 47.68,90.58 40.52,9.54 121.58,-9.53 178.79,9.54 57.21,19.07 90.58,76.29 126.34,126.34 35.76,50.07 73.9,92.97 107.28,76.29 33.37,-16.68 61.98,-92.97 102.51,-131.12 40.53,-38.13 92.97,-38.13 131.11,-104.89 38.15,-66.74 61.98,-200.24 126.35,-264.61 64.36,-64.36 169.26,-59.59 243.16,-76.28 73.9,-16.69 116.8,-54.83 145.41,-52.44 28.61,2.38 42.91,45.29 71.52,95.35 28.6,50.07 71.51,107.28 114.42,147.8 42.91,40.53 85.82,64.36 123.96,104.89 38.15,40.53 71.52,97.74 78.67,135.89 7.15,38.14 -11.91,57.2 42.92,78.66 54.82,21.46 183.55,45.3 283.67,76.29 100.13,30.99 171.65,69.13 138.27,104.89 -33.38,35.76 -171.64,69.13 -276.53,88.2 -104.89,19.07 -176.41,23.84 -224.08,61.98 -47.69,38.14 -71.52,109.66 -42.91,145.42 28.6,35.76 109.66,35.76 131.11,57.21 21.45,21.46 -16.68,64.37 -54.83,119.2 -38.14,54.83 -76.28,121.58 -131.11,174.02 -54.83,52.45 -126.35,90.59 -164.49,147.8 -38.15,57.21 -42.91,133.5 0,147.8 42.9,14.3 133.5,-33.37 152.57,-7.15 19.06,26.22 -33.38,126.35 -90.59,200.25 -57.21,73.9 -119.2,121.58 -126.34,159.72 -7.16,38.14 40.52,66.74 14.3,112.04 -26.22,45.3 -126.35,107.27 -164.49,145.42 -38.14,38.14 -14.3,52.45 28.61,78.67 42.9,26.23 104.89,64.36 114.42,102.51 9.53,38.14 -33.37,76.28 -88.2,102.5 -54.83,26.23 -121.58,40.53 -109.66,92.97 11.92,52.45 102.51,143.04 171.64,121.59 69.13,-21.46 116.81,-154.96 133.5,-154.96 16.68,0 2.38,133.5 33.37,159.72 30.99,26.22 107.28,-54.83 145.42,-47.68 38.14,7.15 38.14,102.51 61.98,185.94 23.84,83.45 71.51,154.96 95.35,169.26 23.84,14.31 23.84,-28.6 7.16,-4.77 -16.69,23.85 -50.06,114.44 -38.14,154.96 11.91,40.53 69.13,30.99 123.96,66.74 54.83,35.76 107.27,116.82 166.87,152.57 59.6,35.76 126.34,26.23 95.36,2.39 -30.99,-23.84 -159.72,-61.98 -162.11,-102.51 -2.38,-40.53 121.58,-83.43 214.55,-112.04 92.97,-28.61 154.95,-42.91 188.33,-16.69 33.37,26.23 38.14,92.97 45.29,61.98 7.15,-30.98 16.69,-159.71 47.68,-193.09 30.99,-33.38 83.43,28.61 128.73,7.15 45.3,-21.46 83.43,-126.34 133.5,-195.48 50.05,-69.13 112.04,-102.51 176.41,-81.05 64.36,21.46 131.1,97.74 178.78,102.5 47.68,4.77 76.28,-61.97 71.52,-159.72 -4.77,-97.73 -42.91,-226.46 -109.65,-321.82 -66.76,-95.35 -162.12,-157.34 -226.48,-193.1 -64.37,-35.75 -97.74,-45.29 -95.35,-76.28 2.38,-30.99 40.52,-83.43 66.74,-145.42 26.23,-61.97 40.53,-133.49 7.16,-183.56 -33.37,-50.06 -114.43,-78.66 -114.43,-102.5 0,-23.84 81.06,-42.91 126.35,-78.67 45.29,-35.76 54.83,-88.2 102.51,-123.96 47.67,-35.76 133.5,-54.83 164.49,-104.9 30.98,-50.06 7.14,-131.11 23.83,-171.64 16.69,-40.52 73.9,-40.52 159.72,-28.6 85.82,11.92 200.25,35.76 324.21,76.28 123.96,40.53 257.46,97.75 379.04,107.27 121.57,9.54 231.24,-28.6 295.61,-21.45 64.36,7.16 83.42,59.6 114.42,54.83 30.99,-4.77 73.89,-66.75 152.57,-109.66 78.66,-42.91 193.09,-66.74 281.3,-107.27 88.2,-40.53 150.17,-97.74 181.17,-133.5 30.99,-35.76 30.99,-50.06 78.67,-64.36 47.67,-14.3 143.03,-28.61 185.95,-71.52 42.9,-42.91 33.37,-114.43 28.6,-214.55 -4.77,-100.12 -4.77,-228.86 7.15,-336.13 11.92,-107.27 35.76,-193.1 104.9,-231.24 69.13,-38.14 183.55,-28.6 195.47,-64.37 11.92,-35.75 -78.67,-116.81 -138.26,-178.79 -59.61,-61.98 -88.21,-104.88 -174.02,-104.88 -85.83,0 -228.86,42.9 -331.37,64.36 -102.51,21.46 -164.49,21.46 -219.32,52.45 -54.83,30.99 -102.51,92.97 -147.8,147.8 -45.3,54.83 -88.2,102.51 -116.81,169.25 -28.61,66.75 -42.91,152.58 -38.14,224.09 4.77,71.51 28.6,128.73 14.3,200.24 -14.31,71.52 -66.75,157.34 -40.52,214.55 26.21,57.22 131.11,85.83 100.12,71.52 -30.99,-14.3 -197.86,-71.51 -383.8,-116.81 -185.95,-45.29 -390.97,-78.66 -526.85,-114.42 -135.88,-35.76 -202.62,-73.9 -250.3,-123.96 -47.69,-50.07 -76.29,-112.05 -152.57,-152.57 -76.29,-40.53 -200.25,-59.61 -307.52,-123.97 -107.27,-64.37 -197.87,-174.02 -271.77,-264.61 -73.9,-90.58 -131.11,-162.1 -176.41,-247.92 -45.29,-85.82 -78.66,-185.95 -35.75,-216.94z"/>
   <path class="fil7" d="M9666.63 16914.4c92.97,2.39 209.78,7.15 292.03,10.73 82.24,3.58 129.91,5.96 174.02,20.26 44.1,14.31 84.62,40.53 128.73,100.13 44.1,59.6 91.77,152.57 147.8,243.16 56.02,90.58 120.38,178.79 165.68,236 45.3,57.22 71.51,83.44 20.26,77.48 -51.25,-5.96 -179.98,-44.1 -302.75,-77.48 -122.77,-33.37 -239.59,-61.97 -339.71,-118 -100.12,-56.02 -183.56,-139.46 -250.31,-210.98 -66.75,-71.51 -116.81,-131.11 -169.25,-174.03 -52.45,-42.9 -107.28,-69.12 -154.95,-94.16 -47.68,-25.03 -88.2,-48.86 -77.48,-51.25 10.72,-2.38 72.71,16.69 138.27,26.22 65.55,9.54 134.68,9.54 227.66,11.92z"/>
   <path class="fil8" d="M9724.44 17025.85c17.28,24.44 51.84,73.31 94.17,112.99 42.32,39.69 92.41,70.18 153.79,104.74 61.39,34.57 134.08,73.21 197.84,88.95 63.75,15.74 118.58,8.59 146,5.01 27.41,-3.57 27.41,-3.57 -4.77,-30.99 -32.18,-27.41 -96.55,-82.24 -138.27,-128.73 -41.72,-46.48 -60.79,-84.62 -84.63,-107.27 -23.84,-22.65 -52.44,-29.79 -80.45,-32.61 -28.01,-2.81 -55.43,-1.3 -105.49,-6.66 -50.06,-5.36 -122.78,-17.61 -159.13,-23.74 -36.35,-6.12 -36.35,-6.12 -19.06,18.31z"/>
   <path class="fil4" d="M11825.45 15282.65c78.46,75.1 140.44,151.38 166.66,251.51 26.23,100.12 16.69,224.08 14.3,314.67 -2.38,90.59 2.39,147.8 9.54,219.32 7.15,71.51 16.69,157.34 4.77,228.85 -11.92,71.51 -45.29,128.73 -100.12,164.48 -54.84,35.76 -131.12,50.07 -193.1,83.44 -61.99,33.38 -109.66,85.82 -159.52,151.37 -49.86,65.56 -101.91,144.22 -225.88,184.74 -123.96,40.53 -319.83,42.92 -474.98,46.5 -155.16,3.58 -269.58,8.35 -350.63,-22.64 -81.06,-30.99 -128.73,-97.74 -214.55,-143.03 -85.82,-45.3 -209.78,-69.13 -286.07,-116.81 -76.28,-47.68 -104.89,-119.2 -147.8,-195.49 -42.91,-76.28 -100.13,-157.34 -128.73,-255.07 -28.61,-97.74 -28.61,-212.17 -32.38,-357.58 -3.78,-145.42 -11.32,-321.84 38.74,-462.49 50.06,-140.65 157.73,-245.53 278.32,-338.5 120.58,-92.97 254.07,-174.03 366.12,-224.08 112.04,-50.07 202.63,-69.13 307.52,-52.45 104.89,16.69 224.08,69.13 326.8,102.5 102.71,33.37 188.94,47.67 274.97,77.46 86.02,29.79 171.84,75.09 262.22,134.69 90.39,59.6 185.33,133.51 263.8,208.61z"/>
   <path class="fil9" d="M10893.17 14938.19c109.65,50.06 257.45,121.58 394.52,190.71 137.08,69.13 263.43,135.88 359.98,228.86 96.54,92.96 163.29,212.16 205.02,339.7 41.71,127.53 58.4,263.42 54.82,365.93 -3.58,102.51 -27.42,171.63 -66.75,232.43 -39.33,60.79 -94.16,113.23 -156.14,174.02 -61.99,60.79 -131.12,129.93 -196.68,185.94 -65.56,56.03 -127.53,98.93 -216.93,132.31 -89.4,33.37 -206.21,57.21 -314.67,54.83 -108.47,-2.38 -208.6,-30.99 -303.95,-67.94 -95.36,-36.96 -185.95,-82.25 -271.77,-133.5 -85.81,-51.25 -166.87,-108.47 -250.3,-183.56 -83.44,-75.09 -169.26,-168.06 -220.51,-252.69 -51.26,-84.63 -67.95,-160.91 -83.44,-241.96 -15.5,-81.06 -29.79,-166.88 -28.6,-259.85 1.19,-92.97 17.87,-193.1 35.75,-276.54 17.88,-83.43 36.95,-150.18 77.48,-213.35 40.53,-63.18 102.51,-122.77 184.76,-174.03 82.24,-51.25 184.74,-94.16 278.9,-127.53 94.17,-33.38 179.99,-57.21 258.66,-54.83 78.67,2.38 150.18,30.98 259.85,81.05z"/>
   <path class="fil10" d="M10419.99 15344.68c58.4,34.56 132.31,67.93 194.29,103.69 61.98,35.76 112.04,73.9 143.03,118 30.99,44.11 42.91,94.17 54.83,109.66 11.92,15.5 23.83,-3.57 54.83,-9.53 30.99,-5.96 81.05,1.19 125.15,17.88 44.11,16.68 82.24,42.91 125.15,79.86 42.92,36.95 90.59,84.63 134.69,125.16 44.11,40.52 84.63,73.89 122.77,96.54 38.15,22.65 73.9,34.56 96.55,57.21 22.65,22.65 32.18,56.02 23.84,101.32 -8.34,45.29 -34.56,102.51 -61.98,126.35 -27.41,23.83 -56.02,14.29 -79.86,-4.78 -23.84,-19.07 -42.91,-47.67 -42.91,-82.24 0,-34.57 19.07,-75.09 34.56,-79.86 15.5,-4.77 27.42,26.22 34.57,51.25 7.15,25.03 9.54,44.11 10.73,29.8 1.19,-14.3 1.19,-61.98 -13.11,-102.5 -14.31,-40.53 -42.91,-73.9 -72.71,-97.74 -29.8,-23.84 -60.78,-38.15 -87.01,-46.49 -26.22,-8.34 -47.68,-10.73 -67.94,-21.46 -20.27,-10.72 -39.34,-29.79 -70.33,-29.79 -30.99,0 -73.9,19.07 -102.51,29.79 -28.6,10.73 -42.9,13.12 -51.24,42.92 -8.35,29.8 -10.73,87.01 -32.19,139.45 -21.45,52.45 -61.98,100.13 -89.39,141.85 -27.42,41.72 -41.72,77.47 -59.6,73.89 -17.88,-3.57 -39.33,-46.48 -39.33,-103.69 0,-57.21 21.45,-128.73 36.94,-189.52 15.5,-60.79 25.04,-110.85 26.23,-152.57 1.19,-41.72 -5.96,-75.09 -17.88,-72.7 -11.92,2.38 -28.61,40.52 -67.94,79.85 -39.34,39.34 -101.32,79.86 -144.23,121.58 -42.91,41.72 -66.75,84.63 -88.2,131.11 -21.46,46.49 -40.53,96.55 -61.98,101.32 -21.46,4.76 -45.3,-35.76 -83.43,-58.41 -38.15,-22.65 -90.6,-27.41 -113.24,5.97 -22.65,33.37 -15.5,104.89 5.95,148.98 21.46,44.11 57.22,60.79 84.64,79.86 27.41,19.07 46.48,40.53 61.58,80.05 15.09,39.53 26.2,97.14 45.27,109.05 19.07,11.92 46.1,-21.84 81.07,-44.68 34.97,-22.84 77.87,-34.75 114.83,-29.99 36.95,4.77 67.94,26.22 92.97,44.1 25.03,17.88 44.1,32.19 65.56,44.11 21.45,11.92 45.29,21.45 71.52,16.68 26.22,-4.76 54.82,-23.84 90.58,-30.99 35.76,-7.15 78.67,-2.38 102.51,8.35 23.84,10.72 28.61,27.41 16.69,39.33 -11.92,11.92 -40.53,19.07 -66.76,22.64 -26.22,3.58 -50.05,3.58 -45.29,16.69 4.77,13.11 38.14,39.34 96.55,47.68 58.4,8.35 141.84,-1.19 227.66,-32.18 85.82,-31 174.02,-83.44 270.57,-179.99 96.55,-96.54 201.44,-237.19 256.28,-344.46 54.82,-107.28 59.59,-181.18 44.09,-268.19 -15.49,-87.02 -51.25,-187.14 -100.12,-270.57 -48.87,-83.44 -110.85,-150.19 -197.86,-221.7 -87.01,-71.52 -199.06,-147.81 -315.87,-209.79 -116.81,-61.98 -238.39,-109.65 -340.9,-145.41 -102.5,-35.76 -185.94,-59.6 -268.18,-66.75 -82.25,-7.15 -163.3,2.38 -237.2,30.99 -73.9,28.6 -140.65,76.28 -190.71,120.39 -50.06,44.1 -83.43,84.62 -101.31,126.34 -17.88,41.72 -20.26,84.62 -2.38,94.16 17.88,9.53 56.01,-14.3 83.43,-26.22 27.42,-11.92 44.1,-11.92 41.71,-25.03 -2.38,-13.11 -23.83,-39.33 -10.72,-53.63 13.11,-14.31 60.79,-16.69 106.08,0 45.3,16.68 88.2,52.44 146.61,87.01z"/>
   <path class="fil10" d="M10017.12 15827.41c48.87,59.6 103.69,121.58 170.45,152.57 66.74,30.99 145.41,30.99 208.59,-3.58 63.17,-34.56 110.84,-103.69 135.87,-178.78 25.04,-75.1 27.42,-156.16 10.73,-214.56 -16.69,-58.41 -52.45,-94.16 -101.31,-127.53 -48.87,-33.38 -110.86,-64.37 -159.83,-85.36 -48.98,-21 -84.96,-32.01 -95.68,2.56 -10.73,34.56 3.79,114.7 -5.64,163.11 -9.43,48.42 -42.8,65.1 -80.94,54.38 -38.15,-10.73 -81.05,-48.87 -126.15,-80.66 -45.11,-31.79 -92.4,-57.24 -107.89,-32.21 -15.5,25.04 0.81,100.53 30.41,166.9 29.61,66.35 72.51,123.56 121.39,183.16z"/>
   <path class="fil10" d="M9120.76 11803.42c91.78,-38.15 201.44,-71.52 308.71,-87.01 107.28,-15.5 212.17,-13.11 302.76,10.73 90.59,23.84 166.87,69.13 226.47,123.96 59.6,54.82 102.5,119.19 134.69,188.32 32.18,69.13 53.63,143.03 67.93,252.69 14.31,109.66 21.46,255.08 -1.19,429.1 -22.65,174.02 -75.09,376.66 -101.31,477.97 -26.22,101.31 -26.22,101.31 -116.81,103.7 -90.59,2.38 -271.76,7.15 -418.37,-9.54 -146.61,-16.69 -258.66,-54.82 -359.97,-117.99 -101.31,-63.18 -191.91,-151.39 -257.46,-234.82 -65.56,-83.43 -106.08,-162.11 -128.73,-264.61 -22.65,-102.51 -27.42,-228.85 -7.15,-357.58 20.26,-128.73 65.55,-259.85 88.2,-325.4 22.65,-65.56 22.65,-65.56 59.6,-87.02 36.95,-21.45 110.85,-64.36 202.63,-102.5z"/>
   <path class="fil10" d="M13705.2 14293.86c99.12,-74.35 201.43,-129.78 312.18,-152.72 110.75,-22.95 229.95,-13.41 338.41,15.2 108.47,28.61 206.21,76.28 292.03,152.57 85.82,76.28 159.72,181.18 206.2,321.83 46.49,140.65 65.57,317.05 75.1,405.26 9.54,88.2 9.54,88.2 -10.73,132.31 -20.26,44.09 -60.78,132.3 -138.26,228.85 -77.48,96.54 -191.91,201.43 -299.18,263.42 -107.28,61.97 -207.41,81.05 -323.02,81.05 -115.62,0 -246.74,-19.08 -371.89,-83.44 -125.15,-64.37 -244.35,-174.02 -339.7,-288.45 -95.35,-114.43 -166.87,-233.63 -205.02,-309.91 -38.14,-76.29 -42.9,-109.66 -8.52,-186.68 34.38,-77.04 107.92,-197.72 192.64,-304.69 84.73,-106.98 180.65,-200.26 279.76,-274.6z"/>
   <path class="fil11" d="M9213.73 12060.91c-3.58,35.76 -10.73,76.28 -26.23,94.16 -15.49,17.88 -39.33,13.11 -45.29,-19.06 -5.96,-32.19 5.96,-91.79 21.45,-125.16 15.5,-33.37 34.57,-40.53 44.11,-28.61 9.53,11.92 9.53,42.91 5.96,78.67z"/>
   <path class="fil11" d="M9099.44 12424.19c14.3,-8.34 38.14,32.18 51.25,70.32 13.11,38.15 15.49,73.9 1.19,82.24 -14.3,8.35 -45.29,-10.72 -58.4,-48.86 -13.11,-38.15 -8.34,-95.35 5.96,-103.7z"/>
   <path class="fil11" d="M9844.4 12530.27c-13.11,26.23 20.27,85.82 50.07,115.62 29.8,29.8 56.01,29.8 54.82,36.95 -1.19,7.15 -29.79,21.45 -50.05,45.29 -20.27,23.84 -32.19,57.22 -45.3,81.06 -13.11,23.84 -27.42,38.13 -50.07,36.94 -22.64,-1.19 -53.63,-17.87 -95.35,-46.48 -41.72,-28.61 -94.16,-69.13 -147.8,-101.31 -53.64,-32.19 -108.47,-56.03 -156.15,-73.91 -47.68,-17.88 -88.2,-29.8 -116.81,-29.8 -28.61,0 -45.29,11.92 -42.9,57.22 2.38,45.29 23.83,123.96 88.2,184.75 64.36,60.79 171.64,103.7 280.11,121.58 108.46,17.88 218.12,10.73 290.83,-11.92 72.71,-22.65 108.47,-60.78 129.92,-102.5 21.46,-41.72 28.61,-87.01 16.69,-141.85 -11.93,-54.83 -42.91,-119.19 -88.21,-154.95 -45.29,-35.76 -104.89,-42.91 -118,-16.69z"/>
   <path class="fil11" d="M13951.85 14519.65c29.8,10.73 79.85,63.17 106.08,112.04 26.22,48.88 28.6,94.17 26.22,127.54 -2.38,33.38 -9.54,54.83 -16.69,70.32 -7.15,15.5 -14.3,25.04 -29.8,2.4 -15.49,-22.65 -39.33,-77.49 -54.82,-121.58 -15.5,-44.11 -22.65,-77.48 -34.57,-98.94 -11.92,-21.46 -28.61,-30.98 -32.19,-51.25 -3.57,-20.26 5.96,-51.25 35.77,-40.53z"/>
   <path class="fil11" d="M13823.12 14526.81c3.57,-34.57 -8.35,-48.88 -28.61,-40.53 -20.27,8.34 -48.87,39.33 -52.44,73.9 -3.58,34.57 17.87,72.71 38.13,64.36 20.27,-8.34 39.34,-63.17 42.92,-97.73z"/>
   <path class="fil11" d="M13540.62 14624.54c-19.07,-8.34 -57.21,8.35 -69.13,44.11 -11.92,35.76 2.38,90.58 7.15,138.26 4.77,47.68 0.01,88.2 11.93,134.69 11.92,46.48 40.52,98.93 67.93,132.31 27.42,33.37 53.64,47.67 78.67,15.5 25.03,-32.19 48.87,-110.86 67.94,-168.07 19.08,-57.22 33.37,-92.97 35.76,-128.73 2.38,-35.76 -7.15,-71.51 -27.41,-78.67 -20.27,-7.15 -51.26,14.3 -78.68,16.68 -27.41,2.39 -51.24,-14.29 -63.16,-39.32 -11.92,-25.04 -11.92,-58.41 -31,-66.76z"/>
   <path class="fil11" d="M14090.65 14973.01c-34.56,14.3 -50.34,67.13 -62.99,103.09 -12.65,35.95 -22.18,55.02 -5.49,66.94 16.68,11.92 59.59,16.69 85.81,23.84 26.23,7.15 35.76,16.69 39.34,46.49 3.58,29.79 1.19,79.85 16.69,95.35 15.49,15.49 48.87,-3.58 47.68,-30.99 -1.19,-27.42 -36.95,-63.17 -46.49,-95.36 -9.54,-32.18 7.15,-60.79 22.65,-89.4 15.49,-28.6 29.8,-57.21 10.26,-83.62 -19.52,-26.42 -72.9,-50.64 -107.46,-36.34z"/>
   <path class="fil11" d="M14602.65 15033.38c-36.96,66.75 -89.4,159.72 -144.23,224.09 -54.83,64.36 -112.04,100.12 -153.76,118 -41.72,17.88 -67.94,17.88 -91.78,35.76 -23.84,17.88 -45.3,53.63 -28.61,75.09 16.69,21.45 71.52,28.6 128.73,16.68 57.22,-11.92 116.81,-42.9 177.6,-95.34 60.79,-52.45 122.77,-126.36 169.26,-202.64 46.48,-76.29 77.48,-154.95 78.67,-208.59 1.19,-53.64 -27.42,-82.24 -52.45,-76.28 -25.03,5.96 -46.48,46.48 -83.43,113.23z"/>
   <path class="fil12" d="M13704.47 14914.89c-25.98,-33.24 -63.2,-41.59 -102.17,-44.16 -38.96,-2.58 -79.68,0.63 -94.03,24.99 -14.35,24.36 -2.35,69.89 9.42,122.98 11.78,53.09 23.31,113.75 52.92,142.88 29.61,29.14 77.29,26.75 111.86,5.3 34.56,-21.46 56.01,-61.98 59.37,-111.31 3.36,-49.32 -11.38,-107.44 -37.37,-140.68z"/>
   <path class="fil12" d="M9350.28 12841.64c37.6,33.12 92.42,71.28 136.52,77.84 44.1,6.56 77.48,-18.47 92.38,-52.43 14.9,-33.98 11.32,-76.89 -20.85,-118.81 -32.19,-41.93 -92.97,-82.86 -143.03,-94.78 -50.06,-11.92 -89.41,5.17 -111.51,26.49 -22.11,21.32 -26.98,46.85 -19.23,73.67 7.75,26.81 28.12,54.9 65.72,88.02z"/>
  </g>
 </g>
</svg>
