<svg width="32" height="30" viewBox="0 0 32 30" fill="none" xmlns="http://www.w3.org/2000/svg">
<line x1="20" y1="8" x2="20" y2="1" stroke="black" stroke-width="2" stroke-linecap="round"/>
<line x1="1" y1="1" x2="1" y2="29" stroke="black" stroke-width="2" stroke-linecap="round"/>
<line x1="1" y1="29" x2="20" y2="29" stroke="black" stroke-width="2" stroke-linecap="round"/>
<line x1="20" y1="29" x2="20" y2="22" stroke="black" stroke-width="2" stroke-linecap="round"/>
<path d="M11 15C10.4477 15 10 15.4477 10 16C10 16.5523 10.4477 17 11 17V15ZM31.7071 16.7071C32.0976 16.3166 32.0976 15.6834 31.7071 15.2929L25.3431 8.92893C24.9526 8.53841 24.3195 8.53841 23.9289 8.92893C23.5384 9.31946 23.5384 9.95262 23.9289 10.3431L29.5858 16L23.9289 21.6569C23.5384 22.0474 23.5384 22.6805 23.9289 23.0711C24.3195 23.4616 24.9526 23.4616 25.3431 23.0711L31.7071 16.7071ZM11 17H31V15H11V17Z" fill="black"/>
<line x1="20" y1="1" x2="1" y2="1" stroke="black" stroke-width="2" stroke-linecap="round"/>
</svg>
