<svg width="18" height="30" viewBox="0 0 18 30" fill="none" xmlns="http://www.w3.org/2000/svg">
<path d="M2 13C0.89543 13 0 13.8954 0 15C0 16.1046 0.89543 17 2 17V13ZM17.4142 16.4142C18.1953 15.6332 18.1953 14.3668 17.4142 13.5858L4.68629 0.857864C3.90524 0.0768156 2.63891 0.0768156 1.85786 0.857864C1.07682 1.63891 1.07682 2.90524 1.85786 3.68629L13.1716 15L1.85786 26.3137C1.07682 27.0948 1.07682 28.3611 1.85786 29.1421C2.63891 29.9232 3.90524 29.9232 4.68629 29.1421L17.4142 16.4142ZM2 17H16V13H2V17Z" fill="black"/>
</svg>
