<?xml version="1.0" encoding="UTF-8"?>
<!DOCTYPE svg PUBLIC "-//W3C//DTD SVG 1.1//EN" "http://www.w3.org/Graphics/SVG/1.1/DTD/svg11.dtd">
<!-- Creator: CorelDRAW 2018 (64-Bit) -->
<svg xmlns="http://www.w3.org/2000/svg" xml:space="preserve" width="210mm" height="297mm" version="1.1" style="shape-rendering:geometricPrecision; text-rendering:geometricPrecision; image-rendering:optimizeQuality; fill-rule:evenodd; clip-rule:evenodd"
viewBox="0 0 21000 29700"
 xmlns:xlink="http://www.w3.org/1999/xlink">
 <defs>
  <style type="text/css">
   <![CDATA[
    .fil3 {fill:#D9DADA}
    .fil5 {fill:#C5C6C6}
    .fil6 {fill:#B2B3B3}
    .fil2 {fill:#CFEAFB}
    .fil10 {fill:#3D5DA6}
    .fil11 {fill:#3D5DA6}
    .fil8 {fill:#2C6DFB}
    .fil9 {fill:#2C6DFB}
    .fil1 {fill:#5BB1FA}
    .fil7 {fill:#5BB1FA}
    .fil0 {fill:url(#id0)}
    .fil4 {fill:url(#id1)}
   ]]>
  </style>
  <radialGradient id="id0" gradientUnits="userSpaceOnUse" gradientTransform="matrix(-0.0133871 -3.08524 3.08524 -0.0133871 -66045 55942)" cx="10019.66" cy="24698" r="10865.56" fx="10019.66" fy="24698">
   <stop offset="0" style="stop-opacity:1; stop-color:#FEFEFE"/>
   <stop offset="0.329412" style="stop-opacity:1; stop-color:#F5F0A2"/>
   <stop offset="0.65098" style="stop-opacity:1; stop-color:#CEEBFF"/>
   <stop offset="1" style="stop-opacity:1; stop-color:#95C671"/>
  </radialGradient>
  <radialGradient id="id1" gradientUnits="userSpaceOnUse" gradientTransform="matrix(0.22535 -7.40845 7.40845 0.22535 -125366 70602)" xlink:href="#id0" cx="7676.55" cy="17724.76" r="2328.33" fx="7676.55" fy="17724.76">
  </radialGradient>
 </defs>
 <g id="Слой_x0020_1">
  <metadata id="CorelCorpID_0Corel-Layer"/>
  <g id="_2871884862448">
   <circle class="fil0" cx="9592.27" cy="10166.46" r="7123.31"/>
   <circle class="fil1" cx="10121.14" cy="10553.84" r="2844.69"/>
   <circle class="fil2" cx="10080.67" cy="10594.31" r="1647.84"/>
   <circle class="fil3" cx="8004.94" cy="9709.64" r="2844.69"/>
   <circle class="fil4" cx="8004.97" cy="9744.36" r="1642.06"/>
   <path class="fil5" d="M3932.55 13670.32c132.98,144.55 310.29,329.57 398.95,422.08 88.65,92.51 88.65,92.51 88.65,92.51 0,0 0,0 134.92,-134.92 134.9,-134.9 404.73,-404.73 539.64,-539.64 134.91,-134.91 134.91,-134.91 134.91,-134.91 0,0 0,0 131.06,132.99 131.05,132.98 393.16,398.95 524.22,531.93 131.06,132.99 131.06,132.99 131.06,132.99 0,0 0,0 144.55,-142.62 144.54,-142.62 433.64,-427.87 578.19,-570.49 144.55,-142.61 144.55,-142.61 144.55,-142.61 0,0 0,0 -131.06,-134.92 -131.06,-134.91 -393.17,-404.73 -524.23,-539.64 -131.05,-134.92 -131.05,-134.92 -131.05,-134.92 0,0 0,0 70.67,-61.84 70.67,-61.86 212.01,-185.55 282.69,-247.4 70.67,-61.86 70.67,-61.86 70.67,-61.86 0,0 0,0 -14.78,-263.86 -14.78,-263.86 -44.34,-791.59 -84.18,-1122.91 -39.83,-331.32 -89.94,-466.23 -145.83,-514.41 -55.9,-48.19 -117.57,-9.65 -177.31,98.28 -59.75,107.93 -117.57,285.25 -195.27,453.98 -77.7,168.73 -175.28,328.88 -292.84,473.43 -117.57,144.54 -255.12,273.49 -323.89,337.97 -68.78,64.47 -68.78,64.47 -68.78,64.47 0,0 0,0 -127.2,-129.13 -127.21,-129.14 -381.61,-387.39 -508.81,-516.52 -127.2,-129.13 -127.2,-129.13 -127.2,-129.13 0,0 0,0 -140.69,138.77 -140.7,138.76 -422.09,416.29 -562.78,555.06 -140.69,138.77 -140.69,138.77 -140.69,138.77 0,0 0,0 127.2,134.91 127.21,134.91 381.61,404.73 508.81,539.65 127.2,134.9 127.2,134.9 127.2,134.9 0,0 0,0 -125.27,132.99 -125.28,132.98 -375.83,398.95 -501.1,531.93 -125.28,132.98 -125.28,132.98 -125.28,131.06 0,-1.93 0,-5.78 44.33,44.33 44.33,50.11 132.98,154.18 265.97,298.73z"/>
   <path class="fil5" d="M9895.61 8559.14c21.2,-129.13 59.74,-321.87 84.84,-473.89 25.1,-152.01 36.75,-263.33 42.57,-318.98 5.83,-55.65 5.83,-55.65 -59.33,-110.75 -65.14,-55.09 -195.45,-165.28 -313.08,-252.36 -117.64,-87.1 -222.61,-151.08 -342.5,-211.95 -119.88,-60.87 -254.68,-118.61 -374.33,-161.9 -119.67,-43.28 -224.19,-72.12 -305.09,-91.76 -80.91,-19.65 -138.2,-30.12 -203.53,11.37 -65.33,41.48 -138.71,134.91 -221.65,208.61 -82.94,73.69 -175.46,127.65 -385.53,241.36 -210.08,113.72 -537.72,287.18 -761.28,474.12 -223.57,186.95 -343.07,387.39 -400.53,557.67 -57.47,170.28 -52.92,310.39 -50.64,380.46 2.28,70.05 2.28,70.05 37.89,24.2 35.61,-45.86 106.84,-137.57 170.35,-208.7 63.51,-71.15 119.3,-121.71 181.16,-169.89 61.84,-48.18 129.74,-93.95 185.1,-127.82 55.35,-33.88 98.15,-55.85 161.83,-82.14 63.68,-26.3 148.23,-56.91 245.15,-81.18 96.91,-24.28 206.18,-42.22 298.61,-50.94 92.42,-8.73 167.99,-8.23 253.71,-0.07 85.71,8.15 181.57,23.95 296.46,59.08 114.89,35.13 248.82,89.57 381.08,168.71 132.25,79.14 262.84,182.98 360.62,277.73 97.77,94.75 162.75,180.42 219.22,247.91 56.47,67.48 104.44,116.77 128.42,141.42 23.98,24.64 23.98,24.64 76.91,-11.15 52.93,-35.8 158.8,-107.39 213.66,-175.95 54.85,-68.56 58.71,-134.09 79.91,-263.21z"/>
   <path class="fil6" d="M3962.36 13698.81c132.72,143.04 295.26,314.57 376.53,400.33 81.26,85.77 81.26,85.77 193.69,-26.66 112.43,-112.43 337.28,-337.28 449.71,-449.71 112.42,-112.42 112.42,-112.42 99.24,-99.24 -13.17,13.17 -39.53,39.53 -76.8,42.1 -37.26,2.59 -85.44,-18.6 -97.96,-69.67 -12.52,-51.07 10.6,-132.02 97.33,-332.46 86.73,-200.43 237.06,-520.37 412.45,-842.23 175.38,-321.86 375.82,-645.64 550.58,-879.52 174.76,-233.88 323.84,-377.86 432.37,-492.6 108.53,-114.74 176.51,-200.25 210.5,-243 33.99,-42.75 33.99,-42.75 18.38,-68.83 -15.61,-26.07 -46.81,-78.21 -80.06,-145.94 -33.24,-67.74 -68.53,-151.05 -99.77,-278.15 -31.23,-127.1 -58.44,-297.98 -70.13,-415.94 -11.69,-117.97 -7.86,-183 12.84,-287.59 20.69,-104.6 58.27,-248.75 81.4,-351.12 23.13,-102.38 31.82,-162.97 67.01,-243.87 35.18,-80.89 96.85,-182.07 172.02,-275.06 75.16,-93 163.82,-177.8 253.44,-250.07 89.62,-72.28 180.21,-132.03 288.62,-187.44 108.41,-55.41 234.65,-106.48 369.08,-137.32 134.43,-30.83 277.05,-41.43 416.78,-42.4 139.73,-0.96 276.56,7.71 403.77,35.18 127.2,27.46 244.77,73.71 341.14,119.01 96.36,45.29 171.53,89.62 260.19,159.97 88.65,70.34 190.8,166.71 249.1,218.75 58.3,52.03 72.76,59.74 94.44,11.56 21.68,-48.18 50.59,-152.26 75.16,-265.48 24.58,-113.24 44.81,-235.62 65.53,-375.35 20.72,-139.73 41.92,-296.81 52.36,-396.06 10.45,-99.26 10.13,-140.7 6.3,-163.87 -3.82,-23.16 -11.17,-28.05 -53.9,-56.48 -42.72,-28.43 -120.83,-80.4 -218.9,-129.81 -98.08,-49.42 -216.13,-96.29 -330.46,-136.16 -114.33,-39.86 -224.96,-72.71 -314.38,-95.72 -89.43,-23.01 -157.66,-36.17 -239.97,-47.72 -82.31,-11.54 -178.7,-21.47 -281.65,-26.17 -102.95,-4.69 -212.46,-4.16 -312.36,1.08 -99.89,5.24 -190.17,15.17 -266.35,26.13 -76.18,10.96 -138.25,22.96 -212.32,40.95 -74.06,17.99 -160.13,41.98 -250.4,72.48 -90.28,30.5 -184.77,67.51 -287.86,116.11 -103.09,48.61 -214.78,108.81 -320.59,175.07 -105.82,66.25 -205.75,138.55 -291.35,207.36 -85.6,68.81 -156.86,134.13 -217.26,193.93 -60.41,59.81 -109.94,114.09 -177.07,199.94 -67.13,85.85 -151.86,203.27 -221.55,313.61 -69.71,110.33 -124.39,213.59 -171.5,316.71 -47.11,103.12 -86.65,206.12 -118.28,302.46 -31.64,96.34 -55.36,186.02 -73.82,269.95 -18.47,83.94 -31.68,162.13 -41.79,245.76 -10.1,83.64 -17.11,172.72 -19.81,264.39 -2.7,91.67 -1.11,185.92 5.09,279.58 6.19,93.66 16.96,186.74 31.38,275.56 14.43,88.81 32.49,173.36 57.47,265.15 24.98,91.77 56.88,190.77 89.76,279.01 32.87,88.25 66.73,165.75 101.9,238.11 35.16,72.36 71.64,139.58 97.34,185.29 25.7,45.71 40.62,69.9 50.02,85.02 9.39,15.11 13.27,21.14 7.24,33.7 -6.05,12.56 -22,31.65 -88.34,99.84 -66.36,68.18 -183.09,185.46 -241.46,244.1 -58.37,58.64 -58.37,58.64 -58.37,58.64 0,0 0,0 -127.2,-129.13 -127.21,-129.14 -381.61,-387.39 -508.81,-516.52 -127.2,-129.13 -127.2,-129.13 -127.2,-129.13 0,0 0,0 -140.69,138.77 -140.7,138.76 -422.09,416.29 -562.78,555.06 -140.69,138.77 -140.69,138.77 -140.69,138.77 0,0 0,0 127.2,134.91 127.21,134.91 381.61,404.73 508.81,539.65 127.2,134.9 127.2,134.9 127.2,134.9 0,0 0,0 -125.27,132.67 -125.28,132.66 -375.83,397.98 -501.1,530.65 -125.28,132.66 -125.28,132.66 -125.02,132.56 0.25,-0.09 0.76,-0.28 52.48,56.89 51.71,57.18 154.64,171.72 287.37,314.76z"/>
   <path class="fil7" d="M7570.24 11794.2c55.5,116.21 114.26,218.92 178.89,317.23 64.63,98.3 135.12,192.23 205.9,276.59 70.78,84.36 141.82,159.16 223.67,235.08 81.83,75.92 174.47,152.96 262.87,218.92 88.4,65.95 172.59,120.81 220.7,151.67 48.11,30.86 60.16,37.71 66.18,41.14 6.03,3.43 6.03,3.43 206.3,-77.21 200.27,-80.65 600.81,-241.93 814.43,-374.82 213.62,-132.89 240.32,-237.39 253.67,-289.64 13.36,-52.25 13.36,-52.25 -37.24,-58.92 -50.6,-6.67 -151.8,-20 -278.46,-56.59 -126.65,-36.58 -278.77,-96.41 -416.46,-174.93 -137.7,-78.53 -260.98,-175.76 -373.24,-299.01 -112.26,-123.25 -213.5,-272.53 -279.05,-387.9 -65.55,-115.37 -95.41,-196.82 -119.9,-294.83 -24.49,-98.02 -43.6,-212.59 -53.64,-286.45 -10.05,-73.87 -11.03,-107.04 -11.53,-123.63 -0.49,-16.58 -0.49,-16.58 -127.7,-27.18 -127.21,-10.6 -381.62,-31.79 -574.26,-48.09 -192.64,-16.31 -323.5,-27.71 -388.92,-33.41 -65.44,-5.7 -65.44,-5.7 -60.71,71.72 4.73,77.43 14.19,232.28 36.39,385.95 22.21,153.66 57.16,306.15 100.76,447.26 43.6,141.1 95.85,270.84 151.35,387.05z"/>
   <path class="fil7" d="M12058.81 7751.31c174.55,-174.96 413.53,-406.23 533.02,-521.87 119.5,-115.63 119.5,-115.63 142.62,-136.84 23.13,-21.2 69.39,-63.59 92.51,-84.8 23.13,-21.2 23.13,-21.2 23.13,-21.2 0,0 0,0 -248.62,-1.92 -248.62,-1.93 -745.87,-5.79 -994.49,-7.71 -248.62,-1.93 -248.62,-1.93 -248.62,-1.93 0,0 0,0 0,-186.95 0,-186.95 0,-560.85 0,-747.79 0,-186.96 0,-186.96 0,-186.96 0,0 0,0 572.41,1.93 572.41,1.93 1717.22,5.78 2289.63,9.64 572.41,3.85 572.41,7.71 572.41,9.64 0,1.92 0,1.92 1.93,582.04 1.92,580.12 5.78,1740.35 7.71,2320.48 1.92,580.11 1.92,580.11 1.92,580.11 0,0 0,0 -194.65,0 -194.66,0 -583.98,0 -778.63,0 -194.66,0 -194.66,0 -194.66,0 0,0 0,0 -1.93,-229.35 -1.93,-229.35 -5.78,-688.04 -7.71,-917.39 -1.93,-229.35 -1.93,-229.35 -1.93,-229.35 0,0 0,0 -229.35,233.2 -229.35,233.21 -688.04,699.61 -917.39,932.81 -229.35,233.21 -229.35,233.21 -229.35,233.21 0,0 0,0 -161.9,-169.6 -161.89,-169.61 -485.67,-508.81 -583.13,-711.61 -97.44,-202.79 31.45,-269.18 150.95,-361.69 119.49,-92.52 229.58,-211.14 404.12,-386.1z"/>
   <path class="fil8" d="M7900.85 11164.98c200.06,7.77 423.35,7.81 534.99,7.83 111.64,0.02 111.64,0.02 111.64,0.02 0,0 0,0 36.86,69.76 36.85,69.75 110.55,209.26 209.09,338.21 98.53,128.96 221.91,247.36 358.69,343.4 136.78,96.05 286.96,169.74 442.46,227.01 155.5,57.27 316.32,98.11 510.2,93.96 193.88,-4.15 420.83,-53.3 574.46,-107.26 153.63,-53.96 233.95,-112.72 317.78,-168.13 83.84,-55.41 171.2,-107.47 268.63,-221.36 97.44,-113.9 204.95,-289.63 281.48,-456.67 76.53,-167.05 122.1,-325.41 145.92,-466.48 23.82,-141.08 25.92,-264.87 18,-374.91 -7.92,-110.05 -25.85,-206.36 -34.82,-254.51 -8.96,-48.15 -8.96,-48.15 169.01,-167.82 177.97,-119.67 533.9,-359.02 711.87,-478.69 177.97,-119.67 177.97,-119.67 198.7,-61.18 20.74,58.49 62.21,175.47 96.39,298.87 34.19,123.41 61.08,253.24 80.94,396.85 19.85,143.61 32.67,301.01 26.32,486.43 -6.35,185.41 -31.88,398.86 -79.43,586.88 -47.55,188.02 -117.13,350.6 -195.16,505.26 -78.02,154.65 -164.5,301.37 -237.23,411.8 -72.73,110.42 -131.74,184.56 -224.59,281.52 -92.86,96.96 -219.58,216.76 -370.07,337.98 -150.48,121.22 -324.73,243.88 -538.82,344.95 -214.09,101.08 -468.02,180.57 -727.48,223.2 -259.46,42.64 -524.46,48.42 -774.05,22.88 -249.58,-25.54 -483.76,-82.39 -709.69,-178.07 -225.94,-95.67 -443.66,-230.19 -625.28,-345.38 -181.63,-115.21 -327.17,-211.1 -467.47,-372.74 -140.31,-161.63 -275.38,-389 -373.05,-580.19 -97.68,-191.2 -157.97,-346.22 -200.07,-470.57 -42.1,-124.34 -66.01,-218.01 -77.97,-264.83 -11.97,-46.84 -11.97,-46.84 76.45,-39.08 88.41,7.76 265.24,23.28 465.3,31.06z"/>
   <path class="fil7" d="M7900.13 10749.88c191.49,-5.46 368.11,-10.41 456.42,-12.88 88.31,-2.47 88.31,-2.47 86.98,-45.2 -1.33,-42.74 -4,-128.22 0.05,-209.2 4.05,-80.99 14.82,-157.49 35.25,-243.87 20.42,-86.39 50.51,-182.66 87.57,-272.83 37.05,-90.16 81.07,-174.22 124.78,-245.66 43.7,-71.45 87.09,-130.29 138.38,-189.72 51.28,-59.44 110.46,-119.49 181.93,-179.57 71.46,-60.1 155.21,-120.23 221.62,-163.01 66.4,-42.79 115.47,-68.24 156.24,-87.74 40.78,-19.51 73.25,-33.07 89.49,-39.85 16.24,-6.78 16.24,-6.78 4.56,-29.16 -11.68,-22.37 -35.03,-67.12 -80.38,-135.54 -45.36,-68.42 -112.7,-160.51 -176.84,-235.45 -64.14,-74.95 -125.07,-132.74 -192.76,-182.85 -67.68,-50.12 -142.11,-92.53 -228.89,-137.83 -86.77,-45.29 -185.88,-93.45 -235.19,-117.77 -49.31,-24.33 -48.83,-24.81 -73.5,-6.02 -24.67,18.8 -74.5,56.87 -142.28,113.74 -67.79,56.87 -153.52,132.54 -221.77,197.7 -68.25,65.15 -119,119.78 -168.17,177.18 -49.18,57.4 -96.77,117.57 -142.92,181.3 -46.14,63.72 -90.86,131.01 -143.32,210.95 -52.46,79.93 -112.68,172.52 -159.19,275.6 -46.51,103.08 -79.33,216.66 -112.53,347.65 -33.21,130.99 -66.83,279.4 -87.29,414.17 -20.48,134.75 -27.81,255.87 -29.35,359.15 -1.56,103.26 2.67,188.7 4.79,231.42 2.12,42.71 2.12,42.71 105.3,39.72 103.17,-2.99 309.53,-8.97 501.02,-14.43z"/>
   <path class="fil9" d="M13933.32 8186.1c100.83,-131.08 201.05,-281.41 297.42,-433.67 96.36,-152.26 188.88,-306.44 265.97,-439.42 77.09,-132.99 138.77,-244.77 173.45,-344.99 34.7,-100.22 42.41,-188.88 42.33,-369.96 -0.08,-181.1 -7.95,-454.62 -11.88,-591.38 -3.94,-136.76 -3.94,-136.76 12.09,-135.99 16.02,0.77 48.06,2.32 64.09,3.09 16.02,0.77 16.02,0.77 16.02,0.77 0,0 0,0 1.93,580.44 1.92,580.43 5.78,1741.31 7.71,2321.75 1.92,580.44 1.92,580.44 1.92,580.44 0,0 0,0 -194.65,0 -194.66,0 -583.98,0 -778.63,0 -194.66,0 -194.66,0 -194.66,0 0,0 0,0 -1.13,-134.13 -1.13,-134.14 -3.38,-402.39 -4.53,-538.45 -1.14,-136.06 -1.17,-139.91 -1.19,-141.84 -0.01,-1.93 -0.01,-1.93 50.71,-57.84 50.73,-55.92 152.19,-167.74 253.03,-298.82z"/>
   <path class="fil10" d="M8421.31 10166.75c21.74,-124.67 52.58,-224.89 91.13,-314.51 38.54,-89.62 84.8,-168.64 144.54,-254.4 59.74,-85.76 132.99,-178.28 200.45,-254.41 67.45,-76.12 129.12,-135.87 226.1,-196.66 96.98,-60.79 229.26,-122.62 295.4,-153.53 66.14,-30.92 66.14,-30.92 74.48,-15.71 8.33,15.2 25,45.62 33.33,60.83 8.34,15.21 8.34,15.21 -9.28,22.98 -17.62,7.77 -52.86,23.31 -96.52,45.71 -43.66,22.39 -95.75,51.65 -152.05,87.98 -56.29,36.34 -116.8,79.76 -178.83,129.5 -62.04,49.73 -125.59,105.77 -188.77,178 -63.19,72.23 -126.01,160.64 -178.05,243.98 -52.06,83.33 -93.35,161.59 -125.61,242.79 -32.28,81.18 -55.54,165.3 -73.05,248.01 -17.5,82.71 -29.25,164 -39.71,246.55 -10.46,82.55 -19.63,166.36 -7.02,272.98 12.61,106.61 47,236.03 67.2,309.16 20.19,73.13 26.2,89.98 29.2,98.41 3,8.42 3,8.42 -18.8,-39.02 -21.81,-47.45 -65.41,-142.33 -92.57,-239.53 -27.17,-97.2 -37.89,-196.71 -36.93,-321.03 0.97,-124.31 13.61,-273.41 35.36,-398.08z"/>
   <path class="fil11" d="M11780.86 7116.72c216.1,-0.25 578.91,-0.72 759.18,-1.9 180.27,-1.18 178.01,-3.05 199.25,-24.54 21.26,-21.48 66.03,-62.58 88.41,-83.12 22.39,-20.56 22.39,-20.56 -215.91,-22.41 -238.3,-1.84 -714.91,-5.54 -953.21,-7.38 -238.3,-1.85 -238.3,-1.85 -239.28,22.69 -0.97,24.53 -2.92,73.6 -1.97,97.18 0.96,23.57 4.81,21.65 6.74,20.68 1.93,-0.96 1.93,-0.96 36.61,-0.96 34.7,0 104.09,0 320.18,-0.24z"/>
  </g>
 </g>
</svg>
