<svg width="49" height="48" viewBox="0 0 49 48" fill="none" xmlns="http://www.w3.org/2000/svg">
<path d="M29.5255 23.73C29.5255 26.4273 27.2671 28.6625 24.4205 28.6625C21.5738 28.6625 19.3154 26.4273 19.3154 23.73C19.3154 21.0327 21.5738 18.7975 24.4205 18.7975C27.2671 18.7975 29.5255 21.0327 29.5255 23.73Z" stroke="black" stroke-width="2"/>
<path d="M23.265 11.4827C23.5064 10.2071 25.3339 10.2071 25.5753 11.4827C26.0388 13.9322 29.017 14.9168 30.8482 13.2234L31.0013 13.0818C31.9208 12.2315 33.3471 13.2852 32.7884 14.4193C31.6723 16.685 33.579 19.2244 36.032 18.9072C36.6598 18.826 37.113 19.1836 37.2875 19.6906C37.4588 20.1888 37.3212 20.6958 36.7854 20.9776C34.5689 22.1431 34.5689 25.3167 36.7854 26.4823C37.3212 26.764 37.4588 27.2711 37.2875 27.7692C37.113 28.2762 36.6598 28.6339 36.032 28.5527C33.579 28.2354 31.6723 30.7748 32.7884 33.0406C33.3471 34.1746 31.9208 35.2284 31.0013 34.378L30.8482 34.2365C29.017 32.543 26.0388 33.5276 25.5753 35.9771C25.3339 37.2527 23.5064 37.2527 23.265 35.9771C22.8015 33.5276 19.8233 32.543 17.9921 34.2365L17.839 34.378C16.9195 35.2284 15.4932 34.1746 16.0519 33.0406C17.1681 30.7748 15.2614 28.2354 12.8084 28.5527C12.1806 28.6339 11.7273 28.2762 11.5529 27.7692C11.3815 27.2711 11.5191 26.764 12.0549 26.4823C14.2714 25.3167 14.2714 22.1431 12.0549 20.9776C11.5191 20.6958 11.3815 20.1888 11.5529 19.6906C11.7273 19.1836 12.1806 18.826 12.8084 18.9072C15.2614 19.2244 17.1681 16.685 16.0519 14.4193C15.4932 13.2852 16.9195 12.2315 17.839 13.0818L17.9921 13.2234C19.8233 14.9168 22.8015 13.9322 23.265 11.4827Z" stroke="black" stroke-width="2"/>
</svg>
