<svg width="94" height="98" viewBox="0 0 94 98" fill="none" xmlns="http://www.w3.org/2000/svg">
<g filter="url(#filter0_d_3_7680)">
<path d="M63.1289 45C63.1289 54.4395 55.6917 62 46.6289 62C37.5662 62 30.1289 54.4395 30.1289 45C30.1289 35.5605 37.5662 28 46.6289 28C55.6917 28 63.1289 35.5605 63.1289 45Z" stroke="black" stroke-width="4"/>
<path d="M27.5885 10.8044C32.5578 15.5652 40.8281 12.8888 42.0647 6.11849C42.9917 1.04384 50.2661 1.04383 51.193 6.11849C52.4297 12.8888 60.6999 15.5652 65.6693 10.8044C69.293 7.33277 75.2963 11.4689 73.0234 16.2489C70.0773 22.4445 75.148 29.5136 81.9872 28.5973C87.0409 27.9202 89.4047 34.842 84.7827 37.36C78.7408 40.6514 78.7408 49.3487 84.7827 52.6401C89.4047 55.158 87.0409 62.0799 81.9872 61.4028C75.148 60.4864 70.0773 67.5555 73.0234 73.7512C75.2963 78.5311 69.293 82.6673 65.6693 79.1956C60.6999 74.4348 52.4297 77.1112 51.193 83.8816C50.2661 88.9562 42.9916 88.9562 42.0647 83.8816C40.8281 77.1112 32.5578 74.4348 27.5885 79.1956C23.9648 82.6673 17.9614 78.5311 20.2344 73.7512C23.1805 67.5555 18.1098 60.4864 11.2705 61.4028C6.21685 62.0799 3.85304 55.158 8.47507 52.6401C14.517 49.3487 14.517 40.6514 8.47507 37.36C3.85304 34.842 6.21685 27.9202 11.2705 28.5973C18.1098 29.5136 23.1805 22.4445 20.2344 16.2489C17.9614 11.4689 23.9648 7.33277 27.5885 10.8044Z" stroke="black" stroke-width="4"/>
</g>
<defs>
<filter id="filter0_d_3_7680" x="0" y="0.3125" width="93.2578" height="97.3751" filterUnits="userSpaceOnUse" color-interpolation-filters="sRGB">
<feFlood flood-opacity="0" result="BackgroundImageFix"/>
<feColorMatrix in="SourceAlpha" type="matrix" values="0 0 0 0 0 0 0 0 0 0 0 0 0 0 0 0 0 0 127 0" result="hardAlpha"/>
<feOffset dy="4"/>
<feGaussianBlur stdDeviation="2"/>
<feComposite in2="hardAlpha" operator="out"/>
<feColorMatrix type="matrix" values="0 0 0 0 0 0 0 0 0 0 0 0 0 0 0 0 0 0 0.75 0"/>
<feBlend mode="normal" in2="BackgroundImageFix" result="effect1_dropShadow_3_7680"/>
<feBlend mode="normal" in="SourceGraphic" in2="effect1_dropShadow_3_7680" result="shape"/>
</filter>
</defs>
</svg>
