<svg width="55" height="50" viewBox="0 0 55 50" fill="none" xmlns="http://www.w3.org/2000/svg">
<g filter="url(#filter0_d_3_7704)">
<path d="M31.8723 13.3742C31.8723 15.9877 29.8162 18.0606 27.3356 18.0606C24.855 18.0606 22.7988 15.9877 22.7988 13.3742C22.7988 10.7607 24.855 8.68784 27.3356 8.68784C29.8162 8.68784 31.8723 10.7607 31.8723 13.3742Z" stroke="black" stroke-width="2"/>
<path d="M21.3591 3.42993C23.0772 5.07594 25.9366 4.15063 26.3642 1.80977C26.5614 0.730078 28.1091 0.730077 28.3063 1.80977C28.7339 4.15063 31.5933 5.07594 33.3114 3.42993C34.0541 2.71848 35.3727 3.54439 34.8722 4.5971C33.8553 6.7355 35.6041 9.18013 37.9707 8.86304C39.0254 8.72173 39.5687 10.1867 38.562 10.7352C36.4746 11.8723 36.4746 14.8761 38.562 16.0133C39.5687 16.5617 39.0254 18.0267 37.9707 17.8854C35.6041 17.5683 33.8553 20.013 34.8722 22.1514C35.3727 23.2041 34.0541 24.03 33.3114 23.3185C31.5933 21.6725 28.7339 22.5978 28.3063 24.9387C28.1091 26.0184 26.5614 26.0184 26.3642 24.9387C25.9366 22.5978 23.0772 21.6725 21.3591 23.3185C20.6165 24.03 19.2978 23.2041 19.7984 22.1514C20.8152 20.013 19.0664 17.5683 16.6998 17.8854C15.6451 18.0267 15.1018 16.5617 16.1085 16.0133C18.1959 14.8761 18.1959 11.8723 16.1085 10.7352C15.1018 10.1867 15.6451 8.72173 16.6998 8.86304C19.0664 9.18013 20.8152 6.7355 19.7984 4.5971C19.2978 3.54439 20.6165 2.71848 21.3591 3.42993Z" stroke="black" stroke-width="2"/>
<path d="M5.5 23.5L5.13606 21.3164C5.04551 20.7731 5 20.2232 5 19.6724V6.66257C5 6.22685 5.10145 5.7971 5.29631 5.40738L5.32197 5.35606C5.43989 5.12023 5.59505 4.90495 5.78149 4.71851L5.82439 4.67561C6.25697 4.24303 6.84369 4 7.45546 4V4C7.81357 4 8.16675 4.08338 8.48705 4.24352L8.64394 4.32197C8.87977 4.43989 9.09505 4.59505 9.28149 4.78149V4.78149C9.74155 5.24155 10 5.86551 10 6.51612V9.5V23" stroke="black" stroke-width="2"/>
<path d="M5 20L5.22109 21.7687C5.40474 23.2379 5.91234 24.648 6.70725 25.8971L9 29.5L12.3892 34.8259C12.4616 34.9396 12.5 35.0716 12.5 35.2064V35.2064C12.5 35.3944 12.4253 35.5747 12.2924 35.7076L12.0732 35.9268C12.0245 35.9755 11.9792 36.0277 11.9379 36.0828L9.03541 39.9528C9.01185 39.9842 8.99117 40.0177 8.97361 40.0528L8.94721 40.1056C8.74175 40.5165 9.04056 41 9.5 41V41H23V41C23.2761 41 23.5 40.7761 23.5 40.5V40.5L23.9359 34.8339C23.9785 34.28 23.9538 33.723 23.8625 33.175V33.175C23.6267 31.7604 22.9549 30.4549 21.9408 29.4408L20 27.5L15.5 23L13.6287 21.5029C13.2217 21.1774 12.7161 21 12.1949 21H12.1514C11.7267 21 11.3114 21.1257 10.958 21.3613V21.3613C10.3595 21.7603 10 22.4321 10 23.1514V23.2081C10 23.7207 10.1745 24.2181 10.4947 24.6183L12 26.5L15.5 30L18 32.5" stroke="black" stroke-width="2"/>
<path d="M12.5 19V10.4008C12.5 9.82403 12.2709 9.27087 11.863 8.86302V8.86302C11.6243 8.62429 11.3332 8.44442 11.013 8.33765L10 8" stroke="black" stroke-width="2"/>
<path d="M49.5 23.5L49.8639 21.3164C49.9545 20.7731 50 20.2232 50 19.6724V6.66257C50 6.22685 49.8986 5.7971 49.7037 5.40738L49.678 5.35606C49.5601 5.12023 49.4049 4.90495 49.2185 4.71851L49.1756 4.67561C48.743 4.24303 48.1563 4 47.5445 4V4C47.1864 4 46.8332 4.08338 46.513 4.24352L46.3561 4.32197C46.1202 4.43989 45.9049 4.59505 45.7185 4.78149V4.78149C45.2585 5.24155 45 5.86551 45 6.51612V9.5V23" stroke="black" stroke-width="2"/>
<path d="M50 20L49.7789 21.7687C49.5953 23.2379 49.0877 24.648 48.2927 25.8971L46 29.5L42.6108 34.8259C42.5384 34.9396 42.5 35.0716 42.5 35.2064V35.2064C42.5 35.3944 42.5747 35.5747 42.7076 35.7076L42.9268 35.9268C42.9755 35.9755 43.0208 36.0277 43.0621 36.0828L45.9646 39.9528C45.9881 39.9842 46.0088 40.0177 46.0264 40.0528L46.0528 40.1056C46.2583 40.5165 45.9594 41 45.5 41V41H32V41C31.7239 41 31.5 40.7761 31.5 40.5V40.5L31.0641 34.8339C31.0215 34.28 31.0462 33.723 31.1375 33.175V33.175C31.3733 31.7604 32.0451 30.4549 33.0592 29.4408L35 27.5L39.5 23L41.3713 21.5029C41.7783 21.1774 42.2839 21 42.8051 21H42.8486C43.2733 21 43.6886 21.1257 44.042 21.3613V21.3613C44.6405 21.7603 45 22.4321 45 23.1514V23.2081C45 23.7207 44.8255 24.2181 44.5053 24.6183L43 26.5L39.5 30L37 32.5" stroke="black" stroke-width="2"/>
<path d="M42.5 19V10.4008C42.5 9.82403 42.7291 9.27087 43.137 8.86302V8.86302C43.3757 8.62429 43.6668 8.44442 43.987 8.33765L45 8" stroke="black" stroke-width="2"/>
</g>
<defs>
<filter id="filter0_d_3_7704" x="0" y="0" width="55" height="50" filterUnits="userSpaceOnUse" color-interpolation-filters="sRGB">
<feFlood flood-opacity="0" result="BackgroundImageFix"/>
<feColorMatrix in="SourceAlpha" type="matrix" values="0 0 0 0 0 0 0 0 0 0 0 0 0 0 0 0 0 0 127 0" result="hardAlpha"/>
<feOffset dy="4"/>
<feGaussianBlur stdDeviation="2"/>
<feComposite in2="hardAlpha" operator="out"/>
<feColorMatrix type="matrix" values="0 0 0 0 0 0 0 0 0 0 0 0 0 0 0 0 0 0 0.75 0"/>
<feBlend mode="normal" in2="BackgroundImageFix" result="effect1_dropShadow_3_7704"/>
<feBlend mode="normal" in="SourceGraphic" in2="effect1_dropShadow_3_7704" result="shape"/>
</filter>
</defs>
</svg>
