<?xml version="1.0" encoding="UTF-8"?>
<!DOCTYPE svg PUBLIC "-//W3C//DTD SVG 1.1//EN" "http://www.w3.org/Graphics/SVG/1.1/DTD/svg11.dtd">
<!-- Creator: CorelDRAW 2018 (64-Bit) -->
<svg xmlns="http://www.w3.org/2000/svg" xml:space="preserve" width="210mm" height="297mm" version="1.1" style="shape-rendering:geometricPrecision; text-rendering:geometricPrecision; image-rendering:optimizeQuality; fill-rule:evenodd; clip-rule:evenodd"
viewBox="0 0 21000 29700"
 xmlns:xlink="http://www.w3.org/1999/xlink">
 <defs>
  <style type="text/css">
   <![CDATA[
    .fil2 {fill:#F5F0A2}
    .fil0 {fill:#F5F0A2}
    .fil1 {fill:#E01188}
    .fil3 {fill:#E01188}
   ]]>
  </style>
 </defs>
 <g id="Слой_x0020_1">
  <metadata id="CorelCorpID_0Corel-Layer"/>
  <g id="_1887823874272">
   <circle class="fil0" cx="10650.82" cy="9617.56" r="6749.01"/>
   <circle class="fil1" cx="10600.3" cy="7732.74" r="3814.41"/>
   <ellipse class="fil2" cx="10574.63" cy="7758.4" rx="2948.75" ry="2947.54"/>
   <path class="fil3" d="M10109.94 12604.42c2.94,576.2 2.94,1422.86 0,1949.09 -2.94,526.23 -8.82,732.01 23.51,890.76 32.34,158.75 102.9,270.47 188.15,335.14 85.25,64.68 185.21,82.32 293.98,73.5 108.77,-8.82 226.37,-44.1 299.86,-94.08 73.5,-49.97 102.9,-114.65 111.72,-385.11 8.82,-270.46 -2.94,-746.72 -2.94,-1475.8 0,-729.07 11.76,-1710.96 17.64,-2207.79 5.88,-496.83 5.88,-508.59 -94.08,-520.35 -99.95,-11.76 -299.86,-23.52 -452.73,-11.76 -152.87,11.76 -258.71,47.03 -317.51,94.07 -58.79,47.04 -70.54,105.83 -73.48,288.1 -2.94,182.27 2.94,488.02 5.88,1064.23z"/>
   <path class="fil3" d="M9633.68 13089.48c549.75,0 1440.52,-2.94 1968.21,-2.94 527.7,0 692.33,2.94 805.51,10.29 113.19,7.35 174.92,19.11 230.78,54.39 55.86,35.28 105.83,94.07 138.17,163.16 32.34,69.08 47.03,148.46 38.21,245.47 -8.82,97.01 -41.15,211.67 -89.66,292.51 -48.51,80.85 -113.18,127.88 -736.43,145.52 -623.24,17.64 -1805.04,5.88 -2459.15,0 -654.11,-5.88 -780.52,-5.88 -886.36,-45.57 -105.83,-39.68 -191.08,-119.06 -246.94,-211.66 -55.86,-92.6 -82.31,-198.44 -70.55,-295.45 11.76,-97.01 61.73,-185.21 124.94,-244 63.21,-58.8 139.64,-88.2 282.22,-101.43 142.59,-13.23 351.31,-10.29 901.05,-10.29z"/>
  </g>
 </g>
</svg>
