<?xml version="1.0" encoding="UTF-8"?>
<!DOCTYPE svg PUBLIC "-//W3C//DTD SVG 1.1//EN" "http://www.w3.org/Graphics/SVG/1.1/DTD/svg11.dtd">
<!-- Creator: CorelDRAW 2018 (64-Bit) -->
<svg xmlns="http://www.w3.org/2000/svg" xml:space="preserve" width="210mm" height="297mm" version="1.1" style="shape-rendering:geometricPrecision; text-rendering:geometricPrecision; image-rendering:optimizeQuality; fill-rule:evenodd; clip-rule:evenodd"
viewBox="0 0 21000 29700"
 xmlns:xlink="http://www.w3.org/1999/xlink">
 <defs>
  <style type="text/css">
   <![CDATA[
    .fil0 {fill:#95C671}
    .fil1 {fill:#06A1DA}
    .fil2 {fill:#06A1DA}
   ]]>
  </style>
 </defs>
 <g id="Слой_x0020_1">
  <metadata id="CorelCorpID_0Corel-Layer"/>
  <g id="_1887811718416">
   <circle class="fil0" cx="10670.13" cy="12399.26" r="6749.01"/>
   <ellipse class="fil1" cx="9121" cy="13613.97" rx="3873.95" ry="3845.28"/>
   <ellipse class="fil0" cx="9125.38" cy="13603.52" rx="2952.31" ry="2961.7"/>
   <path class="fil2" d="M12155.64 9863.2c368.87,-369.31 956.84,-939.64 1250.82,-1224.8 293.98,-285.16 293.98,-285.16 374.83,-266.05 80.84,19.11 242.53,57.32 361.6,111.71 119.06,54.39 195.49,124.94 233.71,204.32 38.22,79.37 38.22,167.57 0,254.3 -38.22,86.72 -114.65,171.97 -489.68,553.75 -375.04,381.78 -1048.67,1060.08 -1385.48,1399.23 -336.82,339.15 -336.82,339.15 -364.54,342.49 -27.72,3.34 -83.17,10.01 -204.96,-30.75 -121.8,-40.76 -309.95,-128.95 -411.37,-230.37 -101.43,-101.43 -116.12,-216.09 -107.23,-286.28 8.88,-70.2 41.36,-95.94 57.6,-108.81 16.23,-12.87 16.23,-12.87 91.13,-97.01 74.89,-84.15 224.69,-252.43 593.57,-621.73z"/>
   <path class="fil2" d="M12458.43 8600.32c251.42,0.12 619.05,0.37 832.19,0.37 213.13,0 271.78,-0.25 352.55,18.74 80.77,18.99 183.67,57.2 267.46,110.12 83.78,52.92 148.45,120.53 186.67,191.09 38.22,70.56 49.98,144.05 51.45,213.14 1.47,69.09 -7.35,133.76 -10.29,427.75 -2.94,293.98 0,817.26 1.47,1086.26 1.47,268.99 1.47,283.69 29.4,316.03 27.93,32.34 83.78,82.31 152.87,120.53 69.09,38.22 151.4,64.68 224.89,74.97 73.5,10.29 138.18,4.41 204.32,-17.64 66.15,-22.05 133.76,-60.27 185.21,-105.84 51.45,-45.57 86.73,-98.48 104.37,-124.94 17.64,-26.46 17.64,-26.46 19.11,-562.97 1.47,-536.52 4.4,-1609.56 5.87,-2146.07 1.47,-536.52 1.47,-536.52 1.47,-536.52 0,0 0,0 -539.46,0 -539.45,0 -1618.37,0 -2157.82,0 -539.46,0 -539.46,0 -568.86,20.58 -29.4,20.58 -88.19,61.73 -135.23,111.71 -47.04,49.98 -82.31,108.77 -104.36,171.98 -22.05,63.21 -30.87,130.82 -26.46,196.97 4.41,66.14 22.05,130.82 47.04,194.03 24.99,63.2 57.32,124.93 117.59,164.62 60.26,39.69 148.46,57.33 260.17,66.15 111.71,8.82 246.95,8.82 498.38,8.94z"/>
  </g>
 </g>
</svg>
